<svg width="800" height="184.84" version="1.1" viewBox="0 0 800 184.84" xml:space="preserve" xmlns="http://www.w3.org/2000/svg"><g transform="matrix(1.3333 0 0 -1.3333 -1224.3 150.71)" fill="#e01f38"><path d="m1238.1 112.81c-3.8777-20.803-7.6962-41.317-11.519-61.832 5.5626 6.5405 11.815 11.726 19.52 15.143 12.391 5.4949 25.468 7.1924 38.727 5.6473 17.518-2.0447 28.901-19.219 25.451-36.572-3.7719-18.94-7.1459-37.965-10.626-56.964-0.3598-1.9812-0.5334-3.5899-3.2004-3.5772-15.219 0.07197-30.434 0.03387-45.648 0.05927-0.4911 0-0.9822 0.27093-1.8966 0.54187 1.7823 9.6308 3.5306 19.156 5.3044 28.681 1.1726 6.2865 2.4807 12.548 3.5348 18.851 0.8975 5.3679-0.3556 10.257-4.9276 13.534-5.8166 4.1656-12.247 4.263-18.601 1.3335-8.9111-4.1021-12.937-11.79-14.732-20.976-2.7009-13.843-5.4144-27.682-8.1746-41.8h-49.763c0.6985 4.0852 1.287 7.9798 2.0363 11.841 7.6411 39.353 15.304 78.706 22.974 118.06 1.3462 6.9088 2.9295 8.2338 9.8933 8.2465 12.548 0.0212 25.091 0.0127 37.639 0 1.1727-4e-3 2.3495-0.12276 4.009-0.21166"/><path d="m1152.5-25.597h-4.4323c-34.032 0-68.068 0-102.1 0.0042-14.935 0-22.428 8.9577-19.622 23.52 1.6891 8.7588 3.3105 17.539 5.2663 26.238 2.485 11.036 11.337 17.966 22.805 18.017 18.284 0.08043 36.568-0.03387 54.851 0.1524 1.9812 0.02117 5.1689 1.0245 5.6727 2.3707 1.1514 3.0607 1.4054 6.659 1.0795 9.9441-0.093 0.92287-3.4587 2.1548-5.3298 2.1717-18.148 0.16933-36.301 0.1016-54.454 0.11007-1.198 0-2.4172-0.05503-3.5941 0.12277-3.6364 0.55034-5.2789 2.6543-4.7794 6.4516 0.4657 3.5602 1.0202 7.1416 2.0108 10.575 0.2752 0.9525 2.2522 1.977 3.4629 1.9981 9.8722 0.1651 19.753 0.1016 29.629 0.1016 20.553 0.0042 41.106 0.02117 61.658-0.0042 16.303-0.02117 25.476-11.46 22.352-27.453-4.5678-23.393-8.9281-46.825-13.394-70.24-0.2455-1.2785-0.6689-2.5273-1.0837-4.0809m-41.212 49.611c-9.525 0-18.69 0.16933-27.843-0.09737-2.976-0.0889-4.4154-2.6543-4.9699-5.4991-0.9652-4.9572-1.9389-9.9145-2.8956-14.872-0.9187-4.7752 1.634-8.1492 6.5701-8.2677 5.9902-0.14817 11.989-0.059267 17.988 0.029633 3.4798 0.0508 5.8589 1.7822 6.5701 5.262 1.5621 7.6623 3.0057 15.35 4.5805 23.444"/><path d="m1326.8 76.149c13.212 0 25.878 0.13123 38.544-0.05503 6.3924-0.09313 9.5378-4.7117 8.2762-11.265-3.9497-20.527-7.8952-41.059-11.786-61.599-0.8636-4.5508 1.4309-7.7639 5.9902-7.8909 8.1322-0.23283 16.281-0.23283 24.418-0.00423 3.8015 0.1016 5.8632 2.5908 6.5574 6.3712 1.469 7.9883 3.0904 15.947 4.6313 23.923 2.7474 14.241 5.4864 28.482 8.2296 42.719 0.8975 4.6524 3.5857 7.62 7.8825 7.6708 13.856 0.1651 27.711 0.0635 42.249 0.0635-0.7789-4.4196-1.4351-8.5429-2.2352-12.641-5.516-28.232-11.117-56.452-16.535-84.705-0.6308-3.2935-1.9473-4.1656-5.2493-4.1529-34.828 0.13547-69.664 0.30057-104.49-0.01693-13.598-0.12277-23.944 12.895-21.328 25.646 5.1604 25.159 9.8806 50.402 14.846 75.938"/><path d="m920.77 76.205h21.954c1.4732 7.4507 2.9506 14.707 4.3392 21.984 1.0795 5.643 2.9803 7.3575 8.5471 7.3618 14.127 0.0127 28.258 4e-3 43.062 4e-3 -1.8627-9.8298-3.6534-19.283-5.5372-29.248h41.279c-0.9906-5.2874-1.596-10.139-2.8744-14.804-0.9652-3.5179-4.009-4.6271-7.5693-4.6017-10.278 0.06773-20.557-0.09737-30.831 0.09737-3.0861 0.05927-4.0132-0.98214-4.5508-3.9412-2.5866-14.148-5.478-28.245-8.2381-42.363-1.8119-9.2541 3.2131-15.397 12.658-15.452 6.9384-0.0381 13.881 0.016933 20.82-0.00847 1.3885-0.00423 2.777-0.1778 4.3307-0.28363-0.6985-5.0334-1.1769-9.5419-1.9855-13.995-0.8339-4.6016-2.6966-6.2061-7.3363-6.223-21.62-0.0762-43.244-0.19897-64.863-0.0085-11.633 0.10583-18.948 10.389-16.607 22.234 3.7465 18.948 7.2686 37.943 10.875 56.921 0.14817 0.77047 0.19897 1.5621 0.38524 3.0522-4.4111 0-8.6106-0.0254-12.806 0.0042-6.6082 0.0508-8.4794 2.3072-7.2221 8.6657 0.66886 3.3951 1.3843 6.7776 2.1717 10.605"/><path d="m1459.7 16.915c1.4182 7.2009 2.6289 14.008 4.2037 20.731 0.2667 1.1303 1.9812 2.358 3.2639 2.7347 7.6539 2.2437 15.376 4.2545 23.262 7.1035-7.6454 2.1336-15.291 4.2672-23.419 6.5405 1.3927 7.2602 2.7601 14.398 4.1867 21.848h47.058c-0.8382-4.3476-1.6552-8.5852-2.5484-13.221h-28.02c-0.042-0.3175-0.08-0.63924-0.1185-0.95674 8.7037-2.3453 17.412-4.6906 26.492-7.1374-0.8848-4.7202-1.5663-9.2795-2.6966-13.729-0.2583-1.0245-1.9262-2.0489-3.1412-2.4172-8.1534-2.4723-16.358-4.7583-24.545-7.1205-0.9736-0.28363-1.9219-0.6731-2.8067-1.5706h28.313c-0.8509-4.5085-1.6171-8.5767-2.4172-12.806z"/><path d="m1451.5-25.335c2.6035 12.954 5.0843 25.307 7.6073 37.859h12.027c-1.4774-7.3956-2.921-14.622-4.4873-22.462 2.0362 0 3.6915-0.33867 5.1054 0.1016 1.1896 0.37253 2.7475 1.4774 3.0311 2.5485 1.2785 4.881 2.3918 9.834 3.1073 14.825 0.436 3.0522 1.6764 4.136 4.6439 3.7719 1.6637-0.2032 3.374-0.0381 5.4145-0.0381-1.4521-7.1967-2.794-13.826-4.2588-21.065h17.924c-0.9864-5.0715-1.7399-9.5165-2.8152-13.881-0.1778-0.7239-1.7356-1.5833-2.6627-1.5875-14.647-0.1016-29.299-0.07197-44.636-0.07197"/></g></svg>
