<svg height="209.78999pt" viewBox="0 0 960.50848 209.78999" width="960.50848pt" xmlns="http://www.w3.org/2000/svg"><g fill="#455a21" transform="translate(-.744568 -.21)"><path d="m306.27 8.28c13.29-6.56 28.39-7.69 42.97-8.07-.01 14.85.05 29.7-.02 44.55-7.85 3.97-9.08 14.87-4.9 21.9 3.63 5.02 9.95 6.84 15.54 8.75 15.37 4.36 31.12 8.04 45.45 15.35 6.9 3.49 13.19 8.36 17.71 14.69-.06-12.07.01-24.14-.03-36.21-18.82.02-37.64 0-56.46.02-.17-6.7.59-13.94-2.74-20.04-1.3-2.73-4.17-3.95-6.78-5.07-.02-14.57-.01-29.14 0-43.71 20.57.4 41.25 5.14 59.24 15.31-.01-3.83 0-7.67 0-11.5 23.58-.01 47.16.01 70.74-.01.03 26.25 0 52.51.01 78.76h39.5c0 13.17 0 26.33-.01 39.5-13.13-.02-26.27.06-39.41-.05-.19 27.85-.02 55.7-.08 83.55-23.59 0-47.17.01-70.76-.01.01-5.25 0-10.49.02-15.73-14.42 14.67-35.71 18.77-55.47 19.74h-.51c.5-14.84.08-29.71.22-44.57 3.84-2.62 6.64-6.68 7.15-11.37.87-7.44-.46-16.12-6.52-21.19-6.08-4.75-13.92-6.05-21.2-7.88-13.43-3.34-27.18-6.6-39.23-13.67-7.05-4.1-12.89-10.18-16.65-17.42 2.93 13.49 5.46 27.07 8.23 40.59 16.82.01 33.64.01 50.45 0 .17 7.59-.48 15.29 1.09 22.77.88 4.38 4.79 7.09 8.65 8.73.26 14.67-.38 29.36.33 44.01h-3.94c-14.52-.64-29.11-2.59-42.85-7.52-.01.88-.02 2.64-.02 3.52-26.5-.01-53 .03-79.5-.02.02-11.89 0-23.77.01-35.66 2.38-1.46 5.04-2.93 6.19-5.63 1.83-3.58 1.07-7.7.35-11.46-4.01.02-8.03.02-12.03.02-.01-13.17-.01-26.33 0-39.5h6.25c-3.54-19.77-6.67-39.62-10.45-59.35-3.42 19.76-6.63 39.56-9.88 59.35 2.1 0 4.21 0 6.31.01.01 13.16.01 26.32 0 39.48-3.53.01-7.07-.02-10.6.1-.57 3.99-1.44 8.46.93 12.07 1.4 2.53 4.19 3.66 6.66 4.87.04 11.91.01 23.81.02 35.72-23.26-.01-46.51.03-69.76-.02.01-2.81 0-5.61.01-8.41-18.39 10.65-40.4 8.04-60.75 8.43 0-14.02-.01-28.03.01-42.05 4.68-.58 9.81-1.38 13.19-5.01 4.15-4.56 4.61-11.08 4.74-16.95-.12-6.23-.73-13.5-5.9-17.76-5.67-4.4-13.28-3.74-20.03-3.71-.01 28.49-.01 56.98 0 85.47-23.67.02-47.34.01-71.01 0 .01-11.91-.03-23.83.03-35.74 2.25-1.49 4.75-2.96 5.99-5.48 1.68-3.3 1.96-7.1 1.99-10.74-.02-32.67-.01-65.33 0-98-.08-3.62-.33-7.41-2.06-10.67-1.25-2.44-3.69-3.87-5.91-5.31-.08-11.94-.03-23.87-.03-35.8 23.66 0 47.33-.01 70.99 0 .01 26-.01 51.99.01 77.99 5.86 0 12.03.44 17.52-2.02 3.68-1.63 6.13-5.31 6.78-9.22 1.16-5.97 1.15-12.65-2.01-18.03-3.03-4.86-9.06-5.98-14.3-6.62.01-14.04-.01-28.07.01-42.1 13.01.12 26.11-.52 39.03 1.3 9.99 1.38 20 5.12 27.3 12.27 8.6 8.35 12.23 20.49 12.99 32.18.73 11.85-.58 24.55-7.4 34.62-5.6 8.38-14.85 13.51-24.39 16.11 11.38 1.37 22.19 7.45 28.12 17.44 6.93-37.98 14.12-75.92 21.1-113.89 29.85-.07 59.7-.01 89.56-.03 2.57 12.74 5.18 25.48 7.7 38.23 1.3 6.88 3.14 13.68 3.73 20.68 1.28-11.94.9-24.73 7.3-35.39 5.14-8.31 12.88-14.93 21.47-19.49z"/><path d="m494.76 4.25c24.14-.01 48.28.03 72.42-.02.11 22.84.12 45.7-.01 68.55-19.31-.06-38.62-.01-57.92-.03-.17-6.35.68-13.07-1.91-19.05-2.21-4.81-7.93-5.7-12.6-6.35.02-14.37-.01-28.74.02-43.1z"/><path d="m509.23 132.79c19.34-.09 38.67-.02 58.01-.03.02 24.41.01 48.82.01 73.24-24.17 0-48.33 0-72.5 0 0-14.37-.01-28.74.01-43.11 5.01-.52 11.09-1.99 12.89-7.38 2.19-7.33 1.42-15.16 1.58-22.72z"/></g><g fill="#bbc5a9" transform="translate(-.744568 -.21)"><path d="m604.45 4.34c23.69-.2 47.37-.06 71.06-.07-.03 27.07-.01 54.15-.01 81.23 13.33.01 26.66 0 40 0v39.5c-13.34.02-26.68-.04-40.02.03.08 10.86-.07 21.72.07 32.57.09 4.98 2.4 9.86 6.67 12.57.06 11.94.01 23.89.03 35.83-25.58 0-51.17 0-76.75 0-.03-11.86.07-23.72-.05-35.57 4.65-3.01 7.09-8.36 6.99-13.83.15-32.19.01-64.38.07-96.57-.07-4.4-.09-8.91-1.44-13.14-1.01-3.12-3.64-5.37-6.55-6.68-.07-11.96.05-23.92-.07-35.87z"/><path d="m683.25 4.25c22.66-.01 45.33 0 67.99 0 .01 23.25.01 46.5.01 69.75-18.17 0-36.33 0-54.5 0-.33-6.97 1.05-14.4-1.95-20.95-2.06-4.37-7.24-5.37-11.56-5.93.01-14.29 0-28.58.01-42.87z"/><path d="m762.25 4.25h79.49c6.88 27.55 13.8 55.08 20.71 82.62 7.51-27.43 14.17-55.11 21.4-82.63 25.8.01 51.59.01 77.4.01-.01 11.95.01 23.91-.02 35.86-4.7 2.99-6.99 8.5-6.81 13.96.15 24.38.05 48.78.08 73.18-20.09 0-40.17 0-60.25-.01-.06-10.33.13-20.67-.11-31-9.36 36.52-18.27 73.17-27.44 109.75-6.69.02-13.38 0-20.07.01-9.6-36.58-19.04-73.2-28.8-109.74-.17 10.33-.04 20.66-.08 30.98-16.25.01-32.5.01-48.75.01 0-24.41 0-48.82 0-73.22.16-5.34-2.02-10.91-6.72-13.77-.08-12-.01-24.01-.03-36.01z"/><path d="m769.01 135.24c16.24.02 32.49 0 48.74.01.08 7.56-.16 15.13.11 22.68.18 4.85 2.48 9.6 6.62 12.27.04 11.93.01 23.87.02 35.8-20.75 0-41.51.01-62.26-.01.02-11.91 0-23.83.01-35.74 4.1-2.71 6.6-7.32 6.68-12.22.18-7.6 0-15.19.08-22.79z"/><path d="m894.25 135.25c20.07-.02 40.14.04 60.21-.03.14 7.8-.09 15.61.1 23.41.19 4.7 2.74 9.01 6.65 11.58.08 11.93.02 23.86.04 35.79-24.67 0-49.34.01-74.01-.01.01-11.89.02-23.78 0-35.68 3.89-2.44 6.47-6.68 6.73-11.28.61-7.91.12-15.86.28-23.78z"/></g></svg>