<?xml version="1.0" encoding="UTF-8" standalone="no"?>
<svg
   xmlns:dc="http://purl.org/dc/elements/1.1/"
   xmlns:cc="http://creativecommons.org/ns#"
   xmlns:rdf="http://www.w3.org/1999/02/22-rdf-syntax-ns#"
   xmlns:svg="http://www.w3.org/2000/svg"
   xmlns="http://www.w3.org/2000/svg"
   xmlns:sodipodi="http://sodipodi.sourceforge.net/DTD/sodipodi-0.dtd"
   xmlns:inkscape="http://www.inkscape.org/namespaces/inkscape"
   width="1387.5605pt"
   height="634.40002pt"
   viewBox="0 0 1387.5606 634.40002"
   version="1.1"
   id="svg2"
   inkscape:version="0.91 r13725"
   sodipodi:docname="Calvary Chapel Radio.svg">
  <metadata
     id="metadata62">
    <rdf:RDF>
      <cc:Work
         rdf:about="">
        <dc:format>image/svg+xml</dc:format>
        <dc:type
           rdf:resource="http://purl.org/dc/dcmitype/StillImage" />
        <dc:title></dc:title>
      </cc:Work>
    </rdf:RDF>
  </metadata>
  <defs
     id="defs60" />
  <sodipodi:namedview
     pagecolor="#ffffff"
     bordercolor="#666666"
     borderopacity="1"
     objecttolerance="10"
     gridtolerance="10"
     guidetolerance="10"
     inkscape:pageopacity="0"
     inkscape:pageshadow="2"
     inkscape:window-width="1920"
     inkscape:window-height="1017"
     id="namedview58"
     showgrid="false"
     fit-margin-top="0"
     fit-margin-left="0"
     fit-margin-right="0"
     fit-margin-bottom="0"
     inkscape:zoom="0.34515539"
     inkscape:cx="1394.5853"
     inkscape:cy="37.57797"
     inkscape:window-x="-8"
     inkscape:window-y="-8"
     inkscape:window-maximized="1"
     inkscape:current-layer="svg2" />
  <g
     id="#009ddcff"
     transform="translate(-258.53247,117.48615)" />
  <path
     inkscape:connector-curvature="0"
     style="opacity:1;fill:#009ddc;fill-opacity:1"
     id="path6"
     d="m 287.60844,1.4180543 c 71.33307,-6.8738861 144.69855,11.4179127 204.41541,51.0584077 8.82369,5.254555 15.43319,14.722667 15.31753,25.248301 1.04099,14.193907 -10.14559,27.792957 -24.10817,29.974107 -9.33592,2.13156 -18.70489,-1.735 -26.05796,-7.28698 C 422.14488,77.493431 381.31468,63.59695 339.62523,60.027818 289.77306,55.566404 238.6816,66.075514 194.7284,90.018439 142.92642,117.8775 101.1709,163.96226 78.682056,218.30889 58.72136,265.91385 53.780762,319.59953 64.422053,370.09613 c 13.450348,65.66542 53.966597,125.08485 109.849937,162.01544 53.17346,35.84003 120.07815,50.44704 183.36414,40.11969 35.34432,-5.45284 69.43283,-18.6388 99.42345,-38.08726 6.19641,-3.93266 12.01277,-9.13764 19.53109,-10.26126 12.26062,-2.61075 25.82662,3.63523 31.60994,14.80529 6.95651,12.44239 3.35433,29.64362 -8.39406,37.87245 -49.52171,35.16256 -109.42033,55.47026 -170.1121,57.55225 C 267.54861,636.8061 204.72527,620.49715 151.78316,587.86274 95.48672,553.49332 50.343819,501.14606 24.847656,440.30558 2.7223421,388.27226 -4.7463928,330.20778 2.9206351,274.22529 10.719841,215.96252 35.340245,160.11222 72.96484,114.96932 125.77476,50.741467 204.70875,8.6885042 287.60844,1.4180543 Z" />
  <path
     inkscape:connector-curvature="0"
     style="opacity:1;fill:#009ddc;fill-opacity:1"
     id="path8"
     d="m 263.64899,89.076584 c 47.53886,-11.054394 98.58075,-7.154787 143.60799,11.847536 10.69087,4.51099 19.41541,13.46686 23.36459,24.4056 3.99875,11.484 3.04037,24.80215 -3.23866,35.29474 -5.68417,9.74902 -15.44971,17.16818 -26.55367,19.51456 -13.00421,3.17255 -27.42945,-0.49572 -37.31065,-9.53421 -7.55135,-6.51036 -11.8971,-15.94543 -13.68167,-25.62835 -36.56708,-6.93997 -75.36487,-1.99938 -108.82547,14.42525 -38.79778,18.60574 -70.19292,52.06635 -86.32011,91.9547 -14.68962,35.67479 -16.85423,76.25715 -6.3286,113.35298 15.31753,55.66853 60.06386,101.93506 115.08797,119.38415 39.47526,12.85548 83.49455,10.9222 121.714,-5.30413 15.44972,-7.20435 35.65827,2.16461 39.97097,18.67185 4.14747,13.13638 -2.32985,28.76786 -14.85486,34.71641 -69.06931,30.70114 -152.99347,24.40559 -216.85779,-15.995 C 161.41651,496.2385 134.2845,468.46206 115.16651,435.95983 93.768248,399.78932 82.383386,357.73636 82.928664,315.69992 82.912171,264.7737 100.4769,214.09534 131.78941,173.95913 164.29164,131.67484 211.68178,101.10588 263.64899,89.076584 Z" />
  <path
     inkscape:connector-curvature="0"
     style="opacity:1;fill:#009ddc;fill-opacity:1"
     id="path10"
     d="m 299.07593,169.77862 c 10.26125,-0.84271 21.36522,-2.94123 31.0151,1.88371 11.10396,5.08932 17.84566,17.74651 16.30895,29.80886 -0.95838,10.36039 -8.04707,19.72937 -17.54824,23.8603 -9.28635,3.8996 -19.67979,1.40452 -29.26356,4.06485 -40.16926,7.46873 -72.12621,45.30814 -71.9775,86.30358 0.72705,12.92158 -7.88183,25.77706 -20.3077,29.57752 -11.99624,4.04833 -26.47105,-0.51223 -33.49365,-11.17005 -5.20499,-7.20436 -5.96508,-16.52376 -5.0067,-25.09959 1.85066,-35.93917 17.34995,-71.05216 42.97829,-96.36655 23.08369,-23.66202 54.46231,-39.01259 87.29501,-42.86263 z" />
  <path
     inkscape:connector-curvature="0"
     style="opacity:1;fill:#009ddc;fill-opacity:1"
     id="path12"
     d="m 627.9077,103.56449 c 14.00289,-12.464922 33.69867,-17.339262 52.09219,-14.995112 12.32848,1.28991 24.52055,6.21385 33.40102,15.007512 3.16274,3.48521 6.21383,7.55336 6.7224,12.39049 0.0374,3.44801 -2.88993,5.89138 -6.07743,6.43711 -4.17979,-8.80606 -11.55955,-15.93773 -20.34075,-20.1175 -14.00289,-6.883612 -30.99489,-6.883612 -45.20862,-0.60774 -10.10836,4.50225 -18.55469,12.48971 -23.75155,22.2508 -7.37968,13.34551 -9.0913,29.27084 -6.67273,44.19153 2.62942,15.40439 11.27421,30.12663 24.85542,38.27534 15.93773,9.63705 37.09708,10.46804 53.55568,1.61238 8.97974,-4.7007 15.64009,-13.03545 19.18729,-22.44926 3.42325,0.68217 7.44173,3.386 6.51156,7.41695 -1.59997,8.11149 -7.71462,14.51138 -14.11453,19.34851 -13.07265,9.10373 -29.72971,12.16725 -45.38217,10.35643 -14.48662,-1.41393 -28.71273,-7.70221 -38.68468,-18.43072 -12.71295,-13.13466 -18.24467,-31.87544 -17.82291,-49.87205 0.19838,-18.8524 7.33008,-38.20093 21.72981,-50.81467 z" />
  <path
     inkscape:connector-curvature="0"
     style="opacity:1;fill:#009ddc;fill-opacity:1"
     id="path14"
     d="m 781.22,94.733618 c 1.47587,-7.64018 15.09427,-7.66499 16.86788,-0.26045 16.32219,41.611722 32.80563,83.149032 49.12788,124.760752 -2.1333,1.33951 -4.5271,3.03871 -7.1936,2.35655 -3.014,-0.26046 -4.56439,-3.21235 -5.54415,-5.69293 -5.29605,-13.37032 -10.57971,-26.76546 -15.97495,-40.09857 -19.3237,0.0124 -38.63499,0.0124 -57.95876,0 -5.43245,13.46955 -10.77809,26.9639 -16.18579,40.44585 -1.04181,2.9767 -3.63401,6.23866 -7.19367,5.39526 -2.26972,-0.19845 -6.15179,-1.7364 -4.31621,-4.61388 16.0866,-40.78073 32.33436,-81.49944 48.37137,-122.292582 m -17.46328,72.036032 c 17.16555,0.0496 34.33116,0.0124 51.49679,0.0248 -8.48363,-21.8291 -17.22761,-43.57138 -25.53761,-65.46249 -8.86806,21.71747 -17.20275,43.6706 -25.95918,65.43768 z" />
  <path
     inkscape:connector-curvature="0"
     style="opacity:1;fill:#009ddc;fill-opacity:1"
     id="path16"
     d="m 865.84496,93.580148 c -0.5706,-5.64331 10.5176,-5.75494 10.1207,-0.0992 0.087,39.317192 0.012,78.646782 0.037,117.963972 20.6757,-0.0124 41.3514,0.0248 62.027,-0.0248 1.7488,0.0992 3.7085,-0.16123 5.2836,0.83099 3.076,2.48059 1.8481,9.16575 -2.7162,8.79366 -23.1439,0.0248 -46.3001,0.0744 -69.4563,-0.0248 -3.6464,0.0992 -5.7797,-3.80768 -5.3952,-7.06965 0.087,-40.12337 -0.124,-80.24675 0.099,-120.370132 z" />
  <path
     inkscape:connector-curvature="0"
     style="opacity:1;fill:#009ddc;fill-opacity:1"
     id="path18"
     d="m 935.93376,91.769328 c 3.3363,-3.43561 10.1952,-3.10072 11.8448,1.88524 11.423,29.171622 22.6104,58.430062 33.9219,87.651282 3.8821,9.26497 6.772,18.98884 11.2618,27.98094 15.05714,-38.61022 29.94064,-77.29486 45.07214,-115.867872 1.5132,-4.58908 8.1363,-5.15961 11.1627,-1.79843 0.434,1.52556 -0.6326,2.9643 -1.0295,4.39063 -11.5595,28.948372 -23.0322,57.933942 -34.5421,86.894712 -5.2216,12.63855 -9.7735,25.54997 -15.42914,38.00248 -4.0186,1.47594 -10.5053,2.28214 -12.4278,-2.62942 -16.0865,-40.14818 -31.9251,-80.40799 -47.9993,-120.556172 -0.6325,-1.95966 -1.9968,-3.8573 -1.8355,-5.95339 z" />
  <path
     inkscape:connector-curvature="0"
     style="opacity:1;fill:#009ddc;fill-opacity:1"
     id="path20"
     d="m 1098.3869,90.218968 c 5.0357,-2.1209 13.1471,-1.59997 14.1517,5.03558 16.099,41.214832 32.6445,82.268422 48.5326,123.557672 -2.1457,4.04334 -9.4262,3.8573 -11.3487,-0.48372 -5.9534,-14.08969 -11.2121,-28.46464 -17.1283,-42.55434 -19.299,0.0868 -38.5855,-0.0124 -57.872,0.0372 -5.7673,14.07729 -11.1998,28.30341 -17.054,42.34349 -2.0216,4.7007 -8.2975,4.20458 -11.4603,0.99224 16.0494,-40.65671 32.1732,-81.2762 48.2225,-121.920492 1.1039,-2.40617 1.6,-5.46969 3.9565,-7.00765 m 5.2589,11.001382 c -8.3348,21.95313 -17.1532,43.72021 -25.736,65.57412 17.1532,0 34.3064,0 51.4596,0 -8.558,-21.86631 -17.0044,-43.76983 -25.7236,-65.57412 z" />
  <path
     inkscape:connector-curvature="0"
     style="opacity:1;fill:#009ddc;fill-opacity:1"
     id="path22"
     d="m 1179.874,97.226608 c -0.2232,-3.12554 1.5008,-6.98284 5.0852,-6.98284 13.606,-0.12403 27.2243,-0.0124 40.8304,-0.0372 11.3858,0.40929 23.4662,2.91467 32.2227,10.678892 7.6402,6.8464 10.7408,17.48809 10.2943,27.50963 0.099,10.6789 -4.2045,21.8291 -13.1222,28.12978 -10.096,7.51615 -23.1934,8.86806 -35.3978,8.75644 15.7516,16.49586 31.1808,33.30179 46.8829,49.84725 2.9643,2.1333 -0.1737,5.27123 -2.5302,6.11463 -3.386,1.58757 -6.772,-0.74417 -8.8805,-3.26196 -16.2354,-17.5625 -32.6444,-34.95137 -48.7186,-52.65031 -5.482,-0.14883 -10.9517,-0.0744 -16.4215,-0.0744 -0.062,17.47568 0.1365,34.95137 -0.087,52.42705 0.1365,4.32862 -5.4572,4.77512 -8.4463,3.44801 -1.8976,-1.36432 -1.6372,-3.8697 -1.724,-5.89138 0.037,-39.34199 -0.012,-78.67158 0.012,-118.013582 m 10.2696,59.012992 c 10.6417,-0.062 21.2834,0.0124 31.9251,-0.0372 8.9921,-0.16124 18.5671,-1.43874 25.9469,-7.00764 10.9517,-8.28514 12.4277,-25.19029 5.8541,-36.60096 -5.5937,-9.15333 -16.8679,-12.29127 -26.9391,-12.936222 -12.2168,-0.38449 -24.4337,0.0744 -36.6381,-0.24806 -0.3721,18.939232 -0.087,37.890862 -0.1489,56.830092 z" />
  <path
     inkscape:connector-curvature="0"
     style="opacity:1;fill:#009ddc;fill-opacity:1"
     id="path24"
     d="m 1281.7266,93.319688 c 1.6744,-4.46504 8.6696,-5.17201 11.1626,-1.06665 14.0649,20.973302 27.7701,42.194662 41.8102,63.180372 13.5315,-20.39037 27.0011,-40.83034 40.5078,-61.245522 1.3643,-2.02167 2.9643,-4.44024 5.6558,-4.61388 2.6169,-0.57053 4.6015,1.61239 6.6976,2.79066 -0.6202,1.61238 -1.1907,3.27436 -2.1954,4.70069 -15.1564,22.598092 -30.1515,45.307802 -45.4566,67.806662 -0.1489,17.62451 0.087,35.24903 -0.099,52.87355 0.074,5.69293 -10.8153,5.5441 -10.406,-0.29767 -0.4465,-17.59971 0.3349,-35.27385 -0.3721,-52.84875 -13.7796,-20.72524 -27.7329,-41.33886 -41.5248,-62.0641 -1.9349,-3.063522 -4.4775,-5.816962 -5.7798,-9.215362 z" />
  <path
     inkscape:connector-curvature="0"
     style="opacity:1;fill:#009ddc;fill-opacity:1"
     id="path26"
     d="m 1283.463,256.98834 c 23.0322,-2.92708 47.5775,1.45114 66.8516,14.83387 13.0851,8.84326 23.2803,21.69266 29.4073,36.21646 8.2231,19.54697 9.5998,41.63653 5.2712,62.29976 -3.9441,18.72838 -14.0401,36.19166 -28.8243,48.44572 -19.0385,16.06176 -45.0474,22.15158 -69.5307,19.80743 -20.0555,-1.7116 -39.9373,-9.74868 -54.275,-24.11124 -14.4866,-13.79202 -22.9454,-33.10333 -25.3764,-52.78673 -2.1581,-17.87258 -0.3101,-36.45212 6.7844,-53.10921 7.8634,-18.70357 22.6849,-34.45526 41.0412,-43.17449 8.9797,-4.39063 18.7408,-7.13167 28.6507,-8.42157 m 5.7302,35.22423 c -12.3657,1.52555 -24.1113,7.99987 -31.553,18.04622 -10.158,13.37032 -12.7502,31.16849 -10.5921,47.4783 1.8729,14.47417 9.1906,28.51426 21.3206,36.94823 19.6585,13.37033 49.3387,10.97656 65.3261,-7.13167 11.7579,-13.01064 15.0943,-31.59018 13.2462,-48.58215 -1.6495,-13.81683 -7.8014,-27.54684 -18.778,-36.42731 -10.7161,-8.85568 -25.3391,-12.19206 -38.9698,-10.33162 z" />
  <path
     inkscape:connector-curvature="0"
     style="opacity:1;fill:#009ddc;fill-opacity:1"
     id="path28"
     d="m 820.90918,268.03932 c 2.36898,-6.18904 9.25262,-8.70683 15.34243,-9.37659 9.45105,-1.02944 19.54695,-1.38912 28.47705,2.34415 5.8294,2.38135 7.4913,8.88047 9.5998,14.17651 19.237,48.56975 38.4615,97.15191 57.7603,145.69685 0.7318,2.28213 2.7907,4.99837 0.5086,7.08205 -6.524,7.64019 -17.8478,11.24943 -27.5593,8.49599 -8.0618,-2.38135 -13.3951,-9.74867 -16.2602,-17.28964 -3.5224,-9.46341 -7.3921,-18.8028 -10.6789,-28.35303 -21.2709,-0.28526 -42.54192,-0.0248 -63.81291,-0.12402 -4.35343,10.87734 -8.17352,21.99034 -12.81221,32.74365 -3.44794,8.24793 -11.75794,14.561 -20.92365,14.00287 -7.98744,-0.63254 -16.66945,-4.10536 -20.77481,-11.38586 20.40272,-52.66271 40.78067,-105.33782 61.1338,-158.01293 m 24.75618,29.23364 c -7.65253,21.18414 -15.82604,42.19466 -23.71429,63.29198 15.78887,0.0248 31.57779,0.0248 47.36669,0 -7.8386,-21.12213 -15.5657,-42.28148 -23.6524,-63.29198 z" />
  <path
     inkscape:connector-curvature="0"
     style="opacity:1;fill:#009ddc;fill-opacity:1"
     id="path30"
     d="m 1149.4249,259.35729 c 6.6852,-1.16587 13.9284,-1.52555 20.4524,0.65736 6.5487,2.20771 9.2277,9.59984 9.0913,15.97493 0.012,46.69692 -0.037,93.39382 0.024,140.09074 0.099,5.48208 -0.1736,11.75794 -4.3534,15.8509 -3.4108,3.62165 -8.5828,4.67589 -13.3704,4.6883 -5.7673,0.0868 -12.2168,0.34728 -16.9919,-3.4232 -4.3658,-3.48522 -5.7426,-9.33939 -5.6681,-14.67263 0.025,-47.54031 -0.012,-95.08062 0.012,-142.62093 -0.2357,-7.04485 3.386,-14.89588 10.8029,-16.54547 z" />
  <path
     inkscape:connector-curvature="0"
     style="opacity:1;fill:#009ddc;fill-opacity:1"
     id="path32"
     d="m 609.05536,269.35403 c 3.01388,-5.9782 9.68661,-9.52543 16.28498,-9.52543 20.29115,0 40.60707,-0.062 60.91061,0.0248 16.70673,0.73177 34.44283,4.45264 47.20544,15.98734 10.66652,9.66185 15.13152,24.47091 14.83387,38.5482 0.39691,13.53156 -3.98134,27.57165 -13.63081,37.32033 -8.48355,8.43396 -20.03064,12.89901 -31.62734,14.93309 15.37957,18.55473 30.74677,37.12187 45.90312,55.86265 -4.78756,12.35329 -20.48962,16.42144 -32.3096,12.97344 -8.28509,-2.46818 -13.76722,-9.63706 -18.76554,-16.22299 -12.22928,-15.44162 -24.43373,-30.89563 -36.725,-46.28762 -4.86191,0.062 -9.7239,0.0372 -14.57343,0.0372 -0.0619,14.79666 0.0619,29.60572 -0.0497,44.40238 -0.0741,5.48208 -1.11625,11.63392 -5.58132,15.34239 -4.86191,4.37822 -11.86958,3.91931 -17.95939,3.85729 -5.24637,0.062 -10.7285,-2.35655 -13.35791,-7.05724 -3.5968,-5.85417 -3.50999,-12.98584 -3.4108,-19.60898 0,-41.76057 0.0245,-83.53353 -0.0245,-125.29409 -0.14887,-5.20922 0.31003,-10.64169 2.87747,-15.29277 m 36.911,21.79189 c -0.0122,17.45088 0,34.90176 -0.0122,52.36504 10.5548,-0.0372 21.0973,0.0248 31.6398,-0.0248 8.59519,-0.16124 17.95939,-2.10849 24.12363,-8.5704 7.10686,-7.91305 7.913,-20.24153 3.77042,-29.74216 -4.3658,-9.59984 -15.47876,-13.3207 -25.28947,-13.80442 -11.39824,-0.50852 -22.82131,-0.0744 -34.232,-0.22325 z" />
  <path
     inkscape:connector-curvature="0"
     style="opacity:1;fill:#009ddc;fill-opacity:1"
     id="path34"
     d="m 965.89916,260.51076 c 2.617,-0.76898 5.3704,-0.71936 8.0743,-0.71936 16.5331,0.0868 33.07854,-0.0372 49.61164,0.0496 20.7996,0.8558 42.1575,6.37509 58.6657,19.55937 16.1857,12.48972 25.7484,32.14831 28.2662,52.2038 2.4806,20.42757 0.4465,42.02103 -9.4386,60.37731 -9.7363,18.45551 -27.5097,31.92506 -47.3295,37.97767 -22.9082,7.6526 -47.3543,5.27124 -71.08104,5.68054 -7.3921,0.0372 -15.5037,0.65735 -21.8415,-3.90692 -6.3627,-4.20458 -9.9719,-11.74554 -9.8107,-19.29891 -0.012,-39.70168 0,-79.40335 0,-119.10503 0.1365,-6.73478 -0.707,-13.6804 1.4884,-20.19192 1.9472,-6.11463 7.1441,-11.08819 13.3951,-12.62615 m 25.1531,33.73588 c -0.012,35.54671 -0.012,71.09341 0,106.64012 9.21534,-0.0248 18.43064,0.0248 27.64614,-0.0124 13.8664,-0.29766 28.2041,-4.7255 38.2753,-14.61061 9.2277,-9.05412 13.5315,-22.05236 14.2137,-34.72811 0.7194,-13.10987 -1.7364,-27.01352 -9.7487,-37.71722 -6.7099,-9.27737 -17.2896,-15.18115 -28.3034,-17.73615 -13.8044,-3.17514 -28.0678,-1.36431 -42.08304,-1.83563 z" />
  <path
     inkscape:connector-curvature="0"
     style="opacity:1;fill:#009ddc;fill-opacity:1"
     id="path36"
     d="m 612.29246,465.13378 c 3.77049,-1.57516 7.96267,-0.8682 11.93163,-1.00463 250.52617,0.0124 501.06481,0 751.59091,0 6.3006,-0.63255 12.1672,5.23402 11.5346,11.5347 -0.087,5.85416 -5.6309,10.75331 -11.4478,10.21998 -252.6346,-0.0124 -505.26934,-0.0124 -757.89162,0 -5.92856,0.65736 -11.62145,-4.31621 -11.84475,-10.24479 -0.38446,-4.39063 2.36898,-8.48358 6.12703,-10.50526 z" />
  <path
     inkscape:connector-curvature="0"
     style="opacity:1;fill:#009ddc;fill-opacity:1"
     id="path38"
     d="m 1052.2605,520.4135 c 1.166,-3.54723 5.569,-3.448 8.6077,-3.55963 2.6914,0.21085 6.4991,0.4093 7.4789,3.51002 6.6232,16.16097 12.6634,32.57001 19.4973,48.64417 -2.1084,3.47281 -6.7719,4.57666 -10.4307,3.15033 -4.6387,-3.0263 -5.1597,-9.12853 -7.4046,-13.75481 -6.5115,0.0372 -13.0106,0.0248 -19.5097,0 -1.8977,4.25419 -2.8775,9.05411 -5.8418,12.73778 -2.9519,2.92708 -10.1828,1.86043 -11.051,-2.25733 5.941,-16.2354 12.3657,-32.34676 18.6539,-48.47053 m 0.7071,28.36543 c 4.7627,0.0248 9.5378,0.0248 14.3129,0.0248 -2.3565,-6.35029 -4.6759,-12.71297 -7.0945,-19.03845 -2.4806,6.30067 -4.8123,12.67576 -7.2184,19.01364 z" />
  <path
     inkscape:connector-curvature="0"
     style="opacity:1;fill:#009ddc;fill-opacity:1"
     id="path40"
     d="m 1196.4691,520.58715 c 1.0046,-3.46042 5.2588,-3.64646 8.2231,-3.72088 2.741,0.16124 6.6107,0.19845 7.8758,3.18755 6.5364,16.48345 13.0975,32.9669 19.609,49.47516 -3.1131,3.16274 -8.8432,4.81233 -12.2417,1.20308 -2.8526,-3.54723 -3.7705,-8.17351 -5.5441,-12.27887 -6.5487,-0.062 -13.085,-0.0372 -19.6213,-0.0248 -1.7488,4.10535 -2.7534,8.60761 -5.3456,12.30367 -3.2621,3.49761 -8.9053,2.08368 -11.9192,-1.02944 6.2634,-16.39663 12.6261,-32.75605 18.964,-49.11547 m 7.9006,9.451 c -2.4557,6.22626 -4.7007,12.52693 -7.1193,18.77799 4.7876,-0.0248 9.5627,-0.0124 14.3626,-0.0248 -2.3813,-6.26347 -4.4774,-12.65096 -7.2433,-18.75319 z" />
  <path
     inkscape:connector-curvature="0"
     style="opacity:1;fill:#009ddc;fill-opacity:1"
     id="path42"
     d="m 606.33906,521.74061 c 0.74424,-6.15184 10.23238,-6.11463 13.0355,-1.51315 8.01227,10.75331 15.72682,21.72987 23.72671,32.50799 0.12403,-10.40603 -0.0992,-20.81206 0.0868,-31.21809 -0.0868,-6.11463 11.69596,-6.13943 11.68358,-0.0372 0.12403,15.31759 0.0741,30.65997 0.0245,45.97755 0.11165,6.18905 -9.24017,6.88361 -12.13002,2.49298 -8.24795,-11.05098 -16.18579,-22.32522 -24.4089,-33.40101 -0.13641,10.29441 0.21084,20.61362 -0.14887,30.90803 0.47135,5.40766 -7.04481,6.68516 -10.39363,3.90691 -1.97206,-1.57517 -1.56276,-4.2914 -1.63712,-6.48671 0.16117,-14.37496 -0.1737,-28.77473 0.16117,-43.13729 z" />
  <path
     inkscape:connector-curvature="0"
     style="opacity:1;fill:#009ddc;fill-opacity:1"
     id="path44"
     d="m 685.66802,522.94369 c 0.0375,-3.48521 3.50999,-5.81696 6.79676,-5.45727 10.30682,0.0124 20.61364,-0.13643 30.92046,0.062 5.17202,-0.4465 6.61076,6.78439 3.52245,9.90992 -1.68679,1.33951 -3.93174,1.14106 -5.94102,1.22789 -7.54092,-0.0372 -15.08192,-0.0496 -22.62285,-0.0248 -0.0122,3.49762 -0.0122,7.00764 0,10.51766 6.67273,0.12402 13.3703,-0.23566 20.03065,0.12402 4.78755,0.88062 4.82469,9.14094 0.0497,10.05876 -6.64797,0.8558 -13.39513,0.14884 -20.08024,0.38449 -0.0122,3.80769 -0.0122,7.62778 0,11.46028 8.7812,0.11162 17.58731,-0.21085 26.36851,0.12402 5.69296,0.13643 5.48212,10.41844 -0.0497,10.80293 -10.80294,0.50852 -21.65546,0.17364 -32.47077,0.17364 -3.39842,0.23566 -6.8216,-2.54259 -6.58592,-6.07742 0,-14.42457 -0.11165,-28.86154 0.0619,-43.28612 z" />
  <path
     inkscape:connector-curvature="0"
     style="opacity:1;fill:#009ddc;fill-opacity:1"
     id="path46"
     d="m 755.24826,520.16544 c 2.92714,-1.93485 6.57353,-4.00613 10.15803,-2.6046 3.1875,1.10386 4.40302,4.57667 4.98594,7.60297 2.1333,10.30681 4.39064,20.60122 6.48673,30.93283 2.70384,-9.30217 5.33326,-18.61675 8.09906,-27.89412 1.43873,-6.89601 13.61835,-6.8588 14.89584,0.16124 2.66663,8.91768 5.11004,17.89738 7.81389,26.80266 2.90223,-10.46805 4.61385,-21.23376 7.10686,-31.80103 0.6449,-3.18754 3.10069,-6.46191 6.66035,-6.27587 2.93945,-0.19844 5.48205,1.43874 7.66495,3.22476 -3.94412,15.78889 -8.39673,31.44135 -12.56415,47.16822 -0.4589,2.49298 -2.31931,4.78752 -4.97356,5.06038 -3.62164,0.44651 -9.02925,0.65736 -10.43077,-3.62164 -3.13799,-9.89751 -5.817,-19.94386 -8.7689,-29.90339 -3.15028,9.89751 -5.84175,19.94386 -9.15333,29.79176 -1.17823,4.22939 -6.44951,4.13017 -9.9595,3.79529 -3.43563,-0.0124 -5.06037,-3.37359 -5.63091,-6.25106 -3.98134,-15.44161 -8.74406,-30.67237 -12.39053,-46.1884 z" />
  <path
     inkscape:connector-curvature="0"
     style="opacity:1;fill:#009ddc;fill-opacity:1"
     id="path48"
     d="m 893.50336,527.54517 c -1.9844,-3.22476 -2.4061,-9.36419 2.493,-9.93472 10.282,-0.38449 20.5888,0.0124 30.8832,-0.17364 3.0512,0.062 6.9456,-0.3845 8.9797,2.44336 2.0465,3.19995 0.7442,7.54097 -1.5504,10.29441 -8.8432,10.44324 -17.6741,20.91129 -26.5794,31.30492 8.8061,0.19845 17.637,-0.24806 26.443,0.19845 4.9364,0.81859 4.8868,9.53782 -0.025,10.36882 -7.3673,0.75657 -14.8214,0.11162 -22.2135,0.32248 -5.4945,-0.22326 -11.1131,0.57053 -16.5207,-0.58294 -4.9116,-1.46354 -4.4651,-8.30995 -1.7488,-11.59671 8.806,-10.6913 17.7981,-21.24617 26.7158,-31.85065 -8.9549,-0.29766 -18.0214,0.8682 -26.8771,-0.79378 z" />
  <path
     inkscape:connector-curvature="0"
     style="opacity:1;fill:#009ddc;fill-opacity:1"
     id="path50"
     d="m 965.89916,525.08939 c -0.2853,-3.48521 1.8232,-7.65258 5.7922,-7.50375 10.7657,-0.24805 21.5438,-0.13643 32.32194,-0.0496 6.2014,-0.34728 6.7968,10.19519 0.9054,11.00137 -8.74414,0.32248 -17.51294,0 -26.26934,0.12404 -0.012,3.49761 -0.012,6.99523 0,10.51765 6.6603,0.12403 13.3455,-0.23565 20.0059,0.13643 5.04794,0.55813 4.99834,9.55024 -0.025,10.09596 -6.6231,0.74418 -13.3207,0.12404 -19.981,0.33488 -0.012,3.80769 -0.012,7.62778 0,11.46028 8.806,0.0992 17.6245,-0.18604 26.41824,0.11162 6.003,0.062 5.7673,10.64169 -0.037,10.82773 -10.79054,0.45891 -21.61824,0.19846 -32.42124,0.14884 -3.6092,0.29767 -6.6479,-2.77825 -6.6231,-6.31307 -0.2233,-13.63079 -0.05,-27.27397 -0.087,-40.89236 z" />
  <path
     inkscape:connector-curvature="0"
     style="opacity:1;fill:#009ddc;fill-opacity:1"
     id="path52"
     d="m 1113.779,526.51573 c 0.124,-3.16274 -0.6326,-7.73941 3.0758,-9.12853 3.4357,-0.75658 9.2774,-0.69457 9.5627,3.96892 0.3101,13.15948 0.012,26.34376 0.1365,39.52804 7.4169,0.19845 14.871,-0.45891 22.2631,0.33488 5.8914,0.59534 4.9116,11.26183 -1.0418,10.98896 -9.1781,0.32248 -18.3811,0.17365 -27.5717,0.0868 -3.3735,0.23565 -6.4867,-2.61701 -6.3503,-6.02781 -0.1488,-13.2587 0.038,-26.505 -0.074,-39.75129 z" />
  <path
     inkscape:connector-curvature="0"
     style="opacity:1;fill:#009ddc;fill-opacity:1"
     id="path54"
     d="m 1260.7037,517.88331 c 3.4852,-1.61238 8.4711,-1.10386 10.6665,2.39376 7.8634,10.75331 15.6152,21.58104 23.5159,32.30955 0.025,-9.52543 -0.012,-19.03845 -0.012,-28.55147 -0.012,-2.45578 0.2109,-5.65573 2.9767,-6.58594 2.7906,-0.69456 6.5488,-0.80619 8.3347,1.93485 1.1288,2.18291 0.7814,4.7131 0.8807,7.09446 -0.2481,13.84163 0.3224,27.70808 -0.2729,41.5249 -0.7938,6.52393 -10.6665,5.9906 -13.0354,0.79379 -7.9007,-10.80293 -15.7145,-21.66787 -23.64,-32.44598 -0.124,10.7285 0.1861,21.46941 -0.124,32.18552 -0.9178,6.13943 -12.4153,5.45727 -11.882,-1.09146 -0.248,-14.07729 -0.024,-28.16698 -0.1116,-42.23187 0.062,-2.5798 -0.025,-6.02781 2.7038,-7.33011 z" />
  <path
     inkscape:connector-curvature="0"
     style="opacity:1;fill:#009ddc;fill-opacity:1"
     id="path56"
     d="m 1340.3427,518.37942 c 3.3116,-1.61237 7.1317,-0.71936 10.6913,-0.91781 8.3844,-0.19844 17.3021,-0.16123 24.7189,4.34101 16.4959,9.94713 15.4417,38.77147 -2.1456,47.0442 -8.9426,4.52706 -19.2865,3.43561 -28.9732,3.46041 -3.8697,0.13643 -7.6278,-3.26196 -7.2185,-7.25569 -0.074,-13.28351 0,-26.56702 -0.038,-39.85052 -0.1115,-2.5674 0.6078,-5.45728 2.9643,-6.8216 m 9.7735,9.99674 c 0.012,10.93936 0,21.86631 0,32.80567 6.0155,-0.0372 12.651,0.8558 17.947,-2.66662 8.124,-5.45728 8.6697,-18.35629 2.431,-25.43835 -5.3084,-5.38286 -13.4447,-4.79992 -20.378,-4.7007 z" />
</svg>
