<?xml version="1.0" encoding="UTF-8" standalone="no"?>
<!-- Created with Inkscape (http://www.inkscape.org/) -->

<svg
   xmlns:dc="http://purl.org/dc/elements/1.1/"
   xmlns:cc="http://creativecommons.org/ns#"
   xmlns:rdf="http://www.w3.org/1999/02/22-rdf-syntax-ns#"
   xmlns:svg="http://www.w3.org/2000/svg"
   xmlns="http://www.w3.org/2000/svg"
   xmlns:sodipodi="http://sodipodi.sourceforge.net/DTD/sodipodi-0.dtd"
   xmlns:inkscape="http://www.inkscape.org/namespaces/inkscape"
   width="120.00246mm"
   height="27.672861mm"
   viewBox="0 0 425.20556 98.053444"
   id="svg6190"
   version="1.1"
   inkscape:version="0.91 r13725"
   sodipodi:docname="George FM.svg">
  <defs
     id="defs6192" />
  <sodipodi:namedview
     id="base"
     pagecolor="#ffffff"
     bordercolor="#666666"
     borderopacity="1.0"
     inkscape:pageopacity="0.0"
     inkscape:pageshadow="2"
     inkscape:zoom="15.839192"
     inkscape:cx="404.02092"
     inkscape:cy="88.572091"
     inkscape:document-units="px"
     inkscape:current-layer="layer1"
     showgrid="false"
     fit-margin-top="0"
     fit-margin-left="0"
     fit-margin-right="0"
     fit-margin-bottom="0"
     inkscape:window-width="1920"
     inkscape:window-height="1017"
     inkscape:window-x="-8"
     inkscape:window-y="-8"
     inkscape:window-maximized="1" />
  <metadata
     id="metadata6195">
    <rdf:RDF>
      <cc:Work
         rdf:about="">
        <dc:format>image/svg+xml</dc:format>
        <dc:type
           rdf:resource="http://purl.org/dc/dcmitype/StillImage" />
        <dc:title />
      </cc:Work>
    </rdf:RDF>
  </metadata>
  <g
     inkscape:label="Layer 1"
     inkscape:groupmode="layer"
     id="layer1"
     transform="translate(-253.1115,-426.19263)">
    <path
       inkscape:connector-curvature="0"
       id="path16"
       style="fill:#ffffff;fill-opacity:1;fill-rule:evenodd;stroke:none"
       d="m 292.64763,476.28444 0,-15.20637 34.8995,0 0,31.16025 c -6.68075,4.55425 -12.59813,7.66237 -17.74888,9.32312 -5.11962,1.62813 -11.20212,2.4415 -18.2475,2.443 -8.675,0 -15.75462,-1.47862 -21.23875,-4.43725 -5.4515,-2.95712 -9.68937,-7.3615 -12.7135,-13.212 -2.99125,-5.84875 -4.487,-12.56225 -4.487,-20.14187 0,-7.977 1.64525,-14.907 4.93575,-20.79013 3.29063,-5.91587 8.1095,-10.40287 14.45838,-13.46137 4.9515,-2.35863 11.615,-3.53813 19.99237,-3.53963 8.07675,0 14.1095,0.73213 18.098,2.1935 4.02113,1.46313 7.34438,3.73938 9.97113,6.8305 2.65812,3.0585 4.65225,6.947 5.98287,11.66625 l -21.78737,3.88888 c -0.89725,-2.75763 -2.42725,-4.86875 -4.58675,-6.33175 -2.12825,-1.4615 -4.85325,-2.19213 -8.17638,-2.19363 -4.95287,0 -8.90875,1.72938 -11.86587,5.18488 -2.92588,3.42475 -4.38738,8.859 -4.38738,16.30312 0,7.91175 1.47863,13.56113 4.43725,16.95125 2.99138,3.39025 7.14513,5.08525 12.46413,5.08525 2.5255,0 4.93425,-0.36437 7.22925,-1.09687 2.29337,-0.73063 4.91862,-1.97688 7.87712,-3.739 l 0,-6.88013 -15.10637,0 z" />
    <path
       inkscape:connector-curvature="0"
       id="path18"
       style="fill:#ffffff;fill-opacity:1;fill-rule:evenodd;stroke:none"
       d="m 398.393,481.31982 -40.68275,0 c 0.3645,3.25775 1.24475,5.68362 2.64237,7.279 1.96001,2.29337 4.51975,3.44 7.67788,3.44 1.99413,0 3.88875,-0.49838 5.68362,-1.49575 1.09675,-0.63075 2.27625,-1.74338 3.53975,-3.34013 l 19.99238,1.8445 c -3.05838,5.31925 -6.74775,9.141 -11.06813,11.467 -4.32187,2.29338 -10.51962,3.44025 -18.59637,3.44025 -7.01413,0 -12.53113,-0.98175 -16.55225,-2.94162 -4.02287,-1.99425 -7.36325,-5.13513 -10.02125,-9.42288 -2.62675,-4.32037 -3.93862,-9.3885 -3.93862,-15.20637 0,-8.276 2.64237,-14.9725 7.92712,-20.09213 5.3175,-5.11775 12.6465,-7.67612 21.98675,-7.67762 7.57812,0 13.56087,1.14662 17.94825,3.44 4.38737,2.29337 7.72787,5.61825 10.02125,9.97125 2.29325,4.35462 3.44,10.02112 3.44,17.00112 l 0,2.29338 z m -20.6405,-9.722 c -0.39887,-3.9215 -1.463,-6.72913 -3.19088,-8.42588 -1.69512,-1.695 -3.93862,-2.5425 -6.73049,-2.5425 -3.22513,0 -5.80051,1.2805 -7.72788,3.83888 -1.23075,1.59537 -2.01137,3.973 -2.34325,7.1295 l 19.9925,0 z" />
    <path
       inkscape:connector-curvature="0"
       id="path20"
       style="fill:#ffffff;fill-opacity:1;fill-rule:evenodd;stroke:none"
       d="m 405.22337,476.43394 c 0,-8.07675 2.72488,-14.72325 8.17638,-19.94262 5.44987,-5.25063 12.81162,-7.87575 22.08637,-7.87725 10.60225,0 18.612,3.07525 24.03075,9.22337 4.35313,4.953 6.52963,11.0525 6.53126,18.29738 0,8.14362 -2.70938,14.82425 -8.12663,20.04212 -5.3845,5.185 -12.84738,7.77775 -22.3855,7.77775 -8.50988,0 -15.39,-2.1595 -20.64062,-6.48137 -6.44863,-5.35025 -9.672,-12.363 -9.672,-21.03938 z m 20.34126,-0.05 c 0,4.72088 0.94737,8.21088 2.84187,10.47 1.92738,2.26075 4.33588,3.39025 7.22912,3.39025 2.92451,0 5.31751,-1.11237 7.17938,-3.3405 1.89462,-2.22625 2.84187,-5.79887 2.84187,-10.719 0,-4.58675 -0.94724,-7.9925 -2.84187,-10.22062 -1.8945,-2.25925 -4.23775,-3.38863 -7.02962,-3.39013 -2.95875,0 -5.40163,1.1465 -7.329,3.44013 -1.92888,2.2605 -2.89175,5.71787 -2.89175,10.36987 z" />
    <path
       inkscape:connector-curvature="0"
       id="path22"
       style="fill:#ffffff;fill-opacity:1;fill-rule:evenodd;stroke:none"
       d="m 476.01937,449.81044 18.99538,0 0,8.67513 c 1.82737,-3.75488 3.70487,-6.33025 5.6335,-7.72788 1.96025,-1.42862 4.3705,-2.14212 7.22937,-2.14362 2.99138,0 6.26463,0.93175 9.82175,2.79175 l -6.28199,14.45837 c -2.39326,-0.997 -4.28776,-1.49575 -5.68363,-1.49575 -2.65963,0 -4.72075,1.09688 -6.18225,3.29075 -2.09375,3.09113 -3.14088,8.87425 -3.14088,17.34988 l 0,17.749 -20.39125,0 0,-52.94763 z" />
    <path
       inkscape:connector-curvature="0"
       id="path24"
       style="fill:#ffffff;fill-opacity:1;fill-rule:evenodd;stroke:none"
       d="m 560.53513,449.81044 18.99537,0 0,50.006 0.05,2.34325 c 0,3.32325 -0.71537,6.47975 -2.14388,9.47263 -1.39612,3.02425 -3.27512,5.46725 -5.63387,7.32912 -2.3275,1.86 -5.30175,3.20613 -8.92425,4.03838 -3.58975,0.83037 -7.71212,1.24475 -12.3645,1.24625 -10.63662,0 -17.94825,-1.59538 -21.93663,-4.78638 -3.956,-3.1905 -5.93287,-7.46275 -5.93287,-12.81275 0,-0.66525 0.0325,-1.56275 0.1,-2.69225 l 19.693,2.24338 c 0.49862,1.82762 1.26225,3.0895 2.29337,3.789 1.496,1.03 3.37313,1.54425 5.63388,1.54575 2.9245,0 5.101,-0.78213 6.53137,-2.3435 1.46113,-1.5625 2.19213,-4.28738 2.19363,-8.17625 l 0,-8.027 c -1.99438,2.3605 -3.98863,4.07287 -5.983,5.13512 -3.12525,1.66263 -6.49838,2.493 -10.12088,2.493 -7.0795,0 -12.79725,-3.09112 -17.1505,-9.27337 -3.09087,-4.38713 -4.63662,-10.18613 -4.63662,-17.39988 0,-8.24187 1.99437,-14.52362 5.98275,-18.8455 3.98862,-4.32037 9.2065,-6.47987 15.65487,-6.48137 4.12113,0 7.51126,0.698 10.17088,2.09387 2.69225,1.39588 5.2005,3.70663 7.52812,6.92988 l 0,-7.82738 z m -19.09488,25.67625 c 0,3.82325 0.81325,6.665 2.44287,8.52538 1.62813,1.82887 3.77201,2.742 6.43163,2.742 2.52563,0 4.635,-0.94725 6.33175,-2.84175 1.72762,-1.92725 2.591,-4.81913 2.5925,-8.675 0,-3.85463 -0.8975,-6.796 -2.69225,-8.82475 -1.79475,-2.05963 -3.98862,-3.08925 -6.58112,-3.09088 -2.59251,0 -4.671,0.94738 -6.232,2.84188 -1.52988,1.8615 -2.29338,4.97012 -2.29338,9.32312 z" />
    <path
       inkscape:connector-curvature="0"
       id="path26"
       style="fill:#ffffff;fill-opacity:1;fill-rule:evenodd;stroke:none"
       d="m 650.576,481.31982 -40.683,0 c 0.36462,3.25775 1.24475,5.68362 2.6425,7.279 1.95987,2.29337 4.51962,3.44 7.67787,3.44 1.99413,0 3.88863,-0.49838 5.68363,-1.49575 1.09687,-0.63075 2.27637,-1.74338 3.53975,-3.34013 l 19.99237,1.8445 c -3.0585,5.31925 -6.74775,9.141 -11.06812,11.467 -4.32187,2.29338 -10.51975,3.44025 -18.5965,3.44025 -7.01413,0 -12.53113,-0.98175 -16.55213,-2.94162 -4.02275,-1.99425 -7.36325,-5.13513 -10.02137,-9.42288 -2.62663,-4.32037 -3.93863,-9.3885 -3.93863,-15.20637 0,-8.276 2.64263,-14.9725 7.92725,-20.09213 5.31738,-5.11775 12.6465,-7.67612 21.98675,-7.67762 7.57813,0 13.56075,1.14662 17.94825,3.44 4.38725,2.29337 7.72775,5.61825 10.02113,9.97125 2.29338,4.35462 3.44025,10.02112 3.44025,17.00112 l 0,2.29338 z m -20.64062,-9.722 c -0.39888,-3.9215 -1.463,-6.72913 -3.19088,-8.42588 -1.69525,-1.695 -3.93862,-2.5425 -6.73063,-2.5425 -3.22512,0 -5.80049,1.2805 -7.72775,3.83888 -1.23075,1.59537 -2.01137,3.973 -2.34312,7.1295 l 19.99237,0 z" />
    <path
       inkscape:connector-curvature="0"
       id="path58"
       style="fill:#000000;stroke:#ffffff;stroke-width:3.89762497;stroke-linecap:butt;stroke-linejoin:miter;stroke-miterlimit:3.86360002;stroke-dasharray:none;stroke-opacity:1;fill-opacity:0"
       d="m 648.71988,441.96557 c 0,-7.63488 6.18924,-13.82413 13.82412,-13.82413 7.635,0 13.82425,6.18925 13.82425,13.82413 0,7.63512 -6.18925,13.82437 -13.82425,13.82437 -7.63487,0 -13.82412,-6.18925 -13.82412,-13.82437 z" />
    <path
       inkscape:connector-curvature="0"
       id="path60"
       style="fill:#ffffff;fill-opacity:1;fill-rule:evenodd;stroke:none"
       d="m 653.433,446.24319 c 0,0.68875 0.45012,1.153 1.15325,1.153 0.70312,0 1.153,-0.46425 1.153,-1.153 l 0,-3.16412 3.48725,0 c 0.60487,0 1.08275,-0.16875 1.08275,-0.88588 0,-0.71712 -0.47788,-0.88587 -1.08275,-0.88587 l -3.48725,0 0,-2.36238 4.12013,0 c 0.67512,0 1.167,-0.19687 1.167,-0.92812 0,-0.73113 -0.49188,-0.928 -1.167,-0.928 l -5.07625,0 c -0.81576,0 -1.35013,0.3235 -1.35013,1.34975 l 0,7.80462 z" />
    <path
       inkscape:connector-curvature="0"
       id="path62"
       style="fill:#ffffff;fill-opacity:1;fill-rule:evenodd;stroke:none"
       d="m 661.49063,446.27132 c 0,0.57637 0.28099,1.12487 1.02625,1.12487 0.74562,0 1.02662,-0.5485 1.02662,-1.12487 l 0,-6.27175 0.0288,0 2.1515,6.7215 c 0.15463,0.47825 0.50625,0.67512 0.9845,0.67512 0.47788,0 0.82938,-0.19687 0.98413,-0.67512 l 2.1515,-6.7215 0.0288,0 0,6.27175 c 0,0.57637 0.28137,1.12487 1.02662,1.12487 0.74513,0 1.0265,-0.5485 1.0265,-1.12487 l 0,-8.22638 c 0,-0.928 -0.63287,-1.13887 -1.2515,-1.13887 l -0.647,0 c -0.71712,0 -1.05462,0.281 -1.29362,1.05462 l -1.98275,6.49663 -0.0275,0 -2.01088,-6.49663 c -0.23925,-0.77362 -0.57675,-1.05462 -1.29387,-1.05462 l -0.67475,0 c -0.61888,0 -1.2515,0.21087 -1.2515,1.13887 l 0,8.22638 z" />
  </g>
</svg>
