<svg id="a" width="120mm" height="27.673mm" version="1.1" viewBox="0 0 425.21 98.053" xmlns="http://www.w3.org/2000/svg">
 <g id="b" transform="translate(-253.11 -426.19)">
  <path id="c" d="m292.65 476.28v-15.206h34.9v31.16c-6.6808 4.5542-12.598 7.6624-17.749 9.3231-5.1196 1.6281-11.202 2.4415-18.248 2.443-8.675 0-15.755-1.4786-21.239-4.4372-5.4515-2.9571-9.6894-7.3615-12.714-13.212-2.9912-5.8488-4.487-12.562-4.487-20.142 0-7.977 1.6452-14.907 4.9358-20.79 3.2906-5.9159 8.1095-10.403 14.458-13.461 4.9515-2.3586 11.615-3.5381 19.992-3.5396 8.0768 0 14.11 0.73213 18.098 2.1935 4.0211 1.4631 7.3444 3.7394 9.9711 6.8305 2.6581 3.0585 4.6522 6.947 5.9829 11.666l-21.787 3.8889c-0.89725-2.7576-2.4272-4.8688-4.5868-6.3318-2.1282-1.4615-4.8532-2.1921-8.1764-2.1936-4.9529 0-8.9088 1.7294-11.866 5.1849-2.9259 3.4248-4.3874 8.859-4.3874 16.303 0 7.9118 1.4786 13.561 4.4372 16.951 2.9914 3.3902 7.1451 5.0852 12.464 5.0852 2.5255 0 4.9342-0.36437 7.2292-1.0969 2.2934-0.73063 4.9186-1.9769 7.8771-3.739v-6.8801h-15.106z" fill="#fff" fill-rule="evenodd"/>
  <path id="d" d="m398.39 481.32h-40.683c0.3645 3.2578 1.2448 5.6836 2.6424 7.279 1.96 2.2934 4.5198 3.44 7.6779 3.44 1.9941 0 3.8888-0.49838 5.6836-1.4958 1.0968-0.63075 2.2762-1.7434 3.5398-3.3401l19.992 1.8445c-3.0584 5.3192-6.7478 9.141-11.068 11.467-4.3219 2.2934-10.52 3.4402-18.596 3.4402-7.0141 0-12.531-0.98175-16.552-2.9416-4.0229-1.9942-7.3632-5.1351-10.021-9.4229-2.6268-4.3204-3.9386-9.3885-3.9386-15.206 0-8.276 2.6424-14.972 7.9271-20.092 5.3175-5.1178 12.646-7.6761 21.987-7.6776 7.5781 0 13.561 1.1466 17.948 3.44 4.3874 2.2934 7.7279 5.6182 10.021 9.9712 2.2932 4.3546 3.44 10.021 3.44 17.001v2.2934zm-20.64-9.722c-0.39887-3.9215-1.463-6.7291-3.1909-8.4259-1.6951-1.695-3.9386-2.5425-6.7305-2.5425-3.2251 0-5.8005 1.2805-7.7279 3.8389-1.2308 1.5954-2.0114 3.973-2.3432 7.1295h19.992z" fill="#fff" fill-rule="evenodd"/>
  <path id="e" d="m405.22 476.43c0-8.0768 2.7249-14.723 8.1764-19.943 5.4499-5.2506 12.812-7.8758 22.086-7.8772 10.602 0 18.612 3.0752 24.031 9.2234 4.3531 4.953 6.5296 11.052 6.5313 18.297 0 8.1436-2.7094 14.824-8.1266 20.042-5.3845 5.185-12.847 7.7778-22.386 7.7778-8.5099 0-15.39-2.1595-20.641-6.4814-6.4486-5.3502-9.672-12.363-9.672-21.039zm20.341-0.05c0 4.7209 0.94737 8.2109 2.8419 10.47 1.9274 2.2608 4.3359 3.3902 7.2291 3.3902 2.9245 0 5.3175-1.1124 7.1794-3.3405 1.8946-2.2262 2.8419-5.7989 2.8419-10.719 0-4.5868-0.94724-7.9925-2.8419-10.221-1.8945-2.2592-4.2378-3.3886-7.0296-3.3901-2.9588 0-5.4016 1.1465-7.329 3.4401-1.9289 2.2605-2.8918 5.7179-2.8918 10.37z" fill="#fff" fill-rule="evenodd"/>
  <path id="f" d="m476.02 449.81h18.995v8.6751c1.8274-3.7549 3.7049-6.3302 5.6335-7.7279 1.9602-1.4286 4.3705-2.1421 7.2294-2.1436 2.9914 0 6.2646 0.93175 9.8218 2.7918l-6.282 14.458c-2.3933-0.997-4.2878-1.4958-5.6836-1.4958-2.6596 0-4.7208 1.0969-6.1822 3.2908-2.0938 3.0911-3.1409 8.8742-3.1409 17.35v17.749h-20.391v-52.948z" fill="#fff" fill-rule="evenodd"/>
  <path id="g" d="m560.54 449.81h18.995v50.006l0.05 2.3432c0 3.3232-0.71537 6.4798-2.1439 9.4726-1.3961 3.0242-3.2751 5.4672-5.6339 7.3291-2.3275 1.86-5.3018 3.2061-8.9242 4.0384-3.5898 0.83037-7.7121 1.2448-12.364 1.2462-10.637 0-17.948-1.5954-21.937-4.7864-3.956-3.1905-5.9329-7.4628-5.9329-12.813 0-0.66525 0.0325-1.5628 0.1-2.6922l19.693 2.2434c0.49862 1.8276 1.2622 3.0895 2.2934 3.789 1.496 1.03 3.3731 1.5442 5.6339 1.5458 2.9245 0 5.101-0.78213 6.5314-2.3435 1.4611-1.5625 2.1921-4.2874 2.1936-8.1762v-8.027c-1.9944 2.3605-3.9886 4.0729-5.983 5.1351-3.1252 1.6626-6.4984 2.493-10.121 2.493-7.0795 0-12.797-3.0911-17.15-9.2734-3.0909-4.3871-4.6366-10.186-4.6366-17.4 0-8.2419 1.9944-14.524 5.9828-18.846 3.9886-4.3204 9.2065-6.4799 15.655-6.4814 4.1211 0 7.5113 0.698 10.171 2.0939 2.6922 1.3959 5.2005 3.7066 7.5281 6.9299v-7.8274zm-19.095 25.676c0 3.8232 0.81325 6.665 2.4429 8.5254 1.6281 1.8289 3.772 2.742 6.4316 2.742 2.5256 0 4.635-0.94725 6.3318-2.8418 1.7276-1.9272 2.591-4.8191 2.5925-8.675 0-3.8546-0.8975-6.796-2.6922-8.8248-1.7948-2.0596-3.9886-3.0892-6.5811-3.0909-2.5925 0-4.671 0.94738-6.232 2.8419-1.5299 1.8615-2.2934 4.9701-2.2934 9.3231z" fill="#fff" fill-rule="evenodd"/>
  <path id="h" d="m650.58 481.32h-40.683c0.36462 3.2578 1.2448 5.6836 2.6425 7.279 1.9599 2.2934 4.5196 3.44 7.6779 3.44 1.9941 0 3.8886-0.49838 5.6836-1.4958 1.0969-0.63075 2.2764-1.7434 3.5398-3.3401l19.992 1.8445c-3.0585 5.3192-6.7478 9.141-11.068 11.467-4.3219 2.2934-10.52 3.4402-18.596 3.4402-7.0141 0-12.531-0.98175-16.552-2.9416-4.0228-1.9942-7.3632-5.1351-10.021-9.4229-2.6266-4.3204-3.9386-9.3885-3.9386-15.206 0-8.276 2.6426-14.972 7.9272-20.092 5.3174-5.1178 12.646-7.6761 21.987-7.6776 7.5781 0 13.561 1.1466 17.948 3.44 4.3872 2.2934 7.7278 5.6182 10.021 9.9712 2.2934 4.3546 3.4402 10.021 3.4402 17.001v2.2934zm-20.641-9.722c-0.39888-3.9215-1.463-6.7291-3.1909-8.4259-1.6952-1.695-3.9386-2.5425-6.7306-2.5425-3.2251 0-5.8005 1.2805-7.7278 3.8389-1.2308 1.5954-2.0114 3.973-2.3431 7.1295h19.992z" fill="#fff" fill-rule="evenodd"/>
  <path id="i" d="m648.72 441.97c0-7.6349 6.1892-13.824 13.824-13.824 7.635 0 13.824 6.1892 13.824 13.824 0 7.6351-6.1892 13.824-13.824 13.824-7.6349 0-13.824-6.1892-13.824-13.824z" fill-opacity="0" stroke="#fff" stroke-miterlimit="3.8636" stroke-width="3.8976"/>
  <path id="j" d="m653.43 446.24c0 0.68875 0.45012 1.153 1.1532 1.153 0.70312 0 1.153-0.46425 1.153-1.153v-3.1641h3.4872c0.60487 0 1.0828-0.16875 1.0828-0.88588 0-0.71712-0.47788-0.88587-1.0828-0.88587h-3.4872v-2.3624h4.1201c0.67512 0 1.167-0.19687 1.167-0.92812 0-0.73113-0.49188-0.928-1.167-0.928h-5.0762c-0.81576 0-1.3501 0.3235-1.3501 1.3498v7.8046z" fill="#fff" fill-rule="evenodd"/>
  <path id="k" d="m661.49 446.27c0 0.57637 0.28099 1.1249 1.0262 1.1249 0.74562 0 1.0266-0.5485 1.0266-1.1249v-6.2718h0.0288l2.1515 6.7215c0.15463 0.47825 0.50625 0.67512 0.9845 0.67512 0.47788 0 0.82938-0.19687 0.98413-0.67512l2.1515-6.7215h0.0288v6.2718c0 0.57637 0.28137 1.1249 1.0266 1.1249 0.74513 0 1.0265-0.5485 1.0265-1.1249v-8.2264c0-0.928-0.63287-1.1389-1.2515-1.1389h-0.647c-0.71712 0-1.0546 0.281-1.2936 1.0546l-1.9828 6.4966h-0.0275l-2.0109-6.4966c-0.23925-0.77362-0.57675-1.0546-1.2939-1.0546h-0.67475c-0.61888 0-1.2515 0.21087-1.2515 1.1389v8.2264z" fill="#fff" fill-rule="evenodd"/>
 </g>
</svg>
