<svg version="1.1" viewBox="0 0 300 278.58" xmlns="http://www.w3.org/2000/svg">
 <rect x="66.737" y="156.08" width="164.03" height="69.11" fill="#fff" stroke="#fff"/>
 <path d="m72.222 98.768c1.96-0.45 3.995-0.148 5.993-0.205 49.232 4e-3 98.465 0.012 147.69-4e-3 1.53 0.052 2.91 0.795 4.25 1.46 4.606 2.284 8.028 6.743 9.192 11.735 0.546 2.26 0.333 4.6 0.345 6.9-0.242 19.14-0.078 38.288-0.123 57.428 0.05 26.528-0.12 53.056 0.123 79.58-0.106 3.77 0.534 7.69-0.894 11.3-2.383 6.757-9.237 12.233-16.608 11.564-48.54-0.024-97.08-0.037-145.61 8e-3 -3.765 0.34-7.342-1.382-10.255-3.614-2.916-2.316-4.96-5.61-6.042-9.15-0.655-2.076-0.335-4.28-0.39-6.416-0.032-48.548 0.063-97.095-0.015-145.64 0-1.98 0.824-3.83 1.608-5.61 2.022-4.47 6.12-7.806 10.74-9.332zm25.408 63.852c-5.41 0.702-10.518 3.18-14.53 6.86-4.25 4.06-7.408 9.33-8.66 15.1-0.98 5.594-0.733 11.288-0.754 16.94 0.078 2.503-4e-3 11.662 0.862 13.533 1.214 2.576 3.786 4.237 6.448 5.017 1.826 0.56 3.7-0.177 5.304-1.035 2.51-1.234 4.242-4.02 4.106-6.83-0.065-6.57-0.2-13.142-0.172-19.717-0.18-3.196 0.845-6.424 2.86-8.914 1.525-2.154 3.966-3.363 6.382-4.242 4.044-1.152 8.643-0.102 11.822 2.634 2.953 2.617 3.573 6.777 3.753 10.514 0.124 5.747-0.04 11.497-0.07 17.244-0.01 1.863-0.195 3.86 0.752 5.554 1.202 2.187 3.286 3.902 5.694 4.6 2.07 0.815 4.36 0.07 6.247-0.89 2.78-1.617 3.733-4.985 3.745-8.012 0-5.34-0.024-10.682 4e-3 -16.023 0.037-2.888-0.484-5.74-0.644-8.61-1.78-12.322-12.63-22.775-25.067-23.9-2.69-7e-3 -5.406-0.188-8.08 0.178zm77.947 0.082c-3.733 0.92-6.096 4.734-6.04 8.455 0.046 6.563 5e-3 13.126 0.03 19.69 0.217 4.393 0.984 8.843 2.88 12.843 2.93 5.788 7.716 10.575 13.36 13.73 6.38 3.466 14.058 3.82 20.98 1.944 11.512-3.015 20.262-14.164 20.48-26.056 0.01-7.245-0.018-14.49 0.024-21.733 0.12-4.73-3.986-9.23-8.794-9.18-3.52 0.307-6.793 2.892-7.605 6.38-0.233 6.66 0.47 13.347-0.134 20.004-0.05 2.883 0.098 5.95-1.313 8.58-2.05 3.795-6.255 6.035-10.456 6.453-6.017 0.3-12.37-4.233-12.81-10.493-0.09-7.244 0.057-14.493 0.07-21.74 0.056-5.297-5.285-10.527-10.67-8.878zm-27.057 0.476c-3.077 0.796-5.928 3.425-6.07 6.744 0.044 14.36 0.04 28.726 3e-3 43.087 0.11 3.28 2.72 5.972 5.55 7.31 2.37 0.775 5.226 0.733 7.305-0.796 2.007-1.338 3.262-3.684 3.266-6.092-0.148-13.96-0.04-27.92-0.06-41.878-0.232-3.167-2.044-6.214-4.82-7.79-1.565-0.877-3.456-0.935-5.174-0.586zm-107.44-20.896c1.916-0.196 3.864-0.176 5.784-8e-3 2.354 0.5 4.51 2.585 4.573 5.08-0.05 23.938-0.07 47.886 0.033 71.825-0.058 1.644-1.108 3.117-2.416 4.044-1.6 1.09-3.668 0.964-5.49 0.656-3.207-0.673-5.98-2.62-8.37-4.783-26.983-37.132-11.643-70.452-10.798-71.818 0.915-1.544 2.716-2.09 4.29-2.688 3.968-1.493 8.234-1.74 12.393-2.31zm-8.118 12.766c-1.632 3.922-1.554 8.253-2.01 12.413-0.754 8.357 0.44 16.77 2.777 24.793 1.654 4.828 3.303 9.8 6.367 13.943 0.452-1.09 0.27-35.958 0.243-52.21-2.478-0.353-5.01 0.352-7.376 1.062zm220.18-12.774c2.395-0.21 4.828-0.197 7.207 0.193 3.798 0.46 7.675 0.83 11.268 2.24 1.378 0.55 2.95 1.038 3.815 2.342 3.17 2.575 14.45 42.365-11.277 72.638-2.98 2.54-6.71 4.758-10.78 4.364-2.542-0.123-4.69-2.4-4.843-4.905 0.102-22.693 0.06-45.39 0.045-68.082 0.053-1.682-0.27-3.42 0.21-5.058 0.697-1.87 2.395-3.347 4.356-3.733zm6.526 11.712c-0.033 16.937 0.033 51.763 0.246 52.202 1.292-1.723 2.293-3.65 3.212-5.595 2.023-4.726 3.79-9.595 4.673-14.673 1.427-6.314 1.792-12.83 1.176-19.268-0.396-3.893-0.404-7.933-1.926-11.6-2.367-0.71-4.898-1.415-7.38-1.066z" fill="#ff2d00"/>
 <path d="m11.967 150c0-76.234 61.8-138.03 138.03-138.03 76.234 0 138.03 61.8 138.03 138.03 0 10.427-1.164 20.58-3.355 30.346h12.248c2.014-9.8 3.072-19.95 3.072-30.346 1e-3 -82.843-67.157-150-150-150s-150 67.157-150 150c0 10.397 1.058 20.546 3.072 30.346h12.25c-2.19-9.765-3.355-19.92-3.355-30.346z" fill="#ff2d00"/>
</svg>
