<?xml version="1.0" encoding="UTF-8" standalone="no"?>
<svg
   xmlns:dc="http://purl.org/dc/elements/1.1/"
   xmlns:cc="http://creativecommons.org/ns#"
   xmlns:rdf="http://www.w3.org/1999/02/22-rdf-syntax-ns#"
   xmlns:svg="http://www.w3.org/2000/svg"
   xmlns="http://www.w3.org/2000/svg"
   xmlns:sodipodi="http://sodipodi.sourceforge.net/DTD/sodipodi-0.dtd"
   xmlns:inkscape="http://www.inkscape.org/namespaces/inkscape"
   width="473.84pt"
   height="275.87292pt"
   viewBox="0 0 473.84 275.87292"
   version="1.1"
   id="svg24"
   sodipodi:docname="Radio Live.svg"
   inkscape:version="0.92.0 r15299">
  <metadata
     id="metadata30">
    <rdf:RDF>
      <cc:Work
         rdf:about="">
        <dc:format>image/svg+xml</dc:format>
        <dc:type
           rdf:resource="http://purl.org/dc/dcmitype/StillImage" />
        <dc:title></dc:title>
      </cc:Work>
    </rdf:RDF>
  </metadata>
  <defs
     id="defs28" />
  <sodipodi:namedview
     pagecolor="#ffffff"
     bordercolor="#666666"
     borderopacity="1"
     objecttolerance="10"
     gridtolerance="10"
     guidetolerance="10"
     inkscape:pageopacity="0"
     inkscape:pageshadow="2"
     inkscape:window-width="1920"
     inkscape:window-height="1017"
     id="namedview26"
     showgrid="false"
     fit-margin-top="0"
     fit-margin-left="0"
     fit-margin-right="0"
     fit-margin-bottom="0"
     inkscape:zoom="0.84259437"
     inkscape:cx="418.10914"
     inkscape:cy="353.30744"
     inkscape:window-x="-8"
     inkscape:window-y="-8"
     inkscape:window-maximized="1"
     inkscape:current-layer="svg24" />
  <g
     id="#ffffffff"
     transform="translate(-109.17,-76.167085)"
     style="fill:#ffffff;fill-opacity:1" />
  <g
     id="#012e57ff"
     transform="translate(-109.17,-76.167085)"
     style="fill:#ffffff;fill-opacity:1">
    <path
       d="m 289.5,76.81 c 8.9,-2.34 19.63,1.81 22.93,10.78 1.94,5.92 1.52,12.3 1.49,18.44 -0.15,5.36 -0.63,11.32 -4.53,15.41 -7.53,8.82 -22.98,8.4 -30.17,-0.64 -3.52,-4.43 -3.77,-10.35 -4,-15.76 -0.06,-5.78 -0.19,-11.7 1.52,-17.29 2.01,-5.5 7.07,-9.71 12.76,-10.94 m 2.75,11.23 c -4.3,1.7 -4.15,7.11 -4.26,10.96 0.22,4.87 -0.72,10.14 1.49,14.67 2.53,4.43 10.01,3.2 11.08,-1.78 1.04,-6.07 0.72,-12.33 0.28,-18.45 -0.16,-4.13 -4.79,-7.09 -8.59,-5.4 z"
       id="path3"
       inkscape:connector-curvature="0"
       style="opacity:1;fill:#ffffff;fill-opacity:1" />
    <path
       d="m 109.23,76.74 c 6.93,0.02 13.87,-0.06 20.81,0.01 3.79,0.02 7.56,1.21 10.57,3.54 6.31,4.9 7.98,14.98 3.23,21.48 -1.37,1.98 -3.44,3.27 -5.31,4.72 l 10.81,20.83975 h -14.75 l -8.92,-18.81975 -3.87,0.04 0.02,18.77975 H 109.24 L 109.23,76.74 m 12.58,11.204251 -0.05,10.059 h 4.46851 c 1.21959,0 2.45511,-0.02643 3.63149,-0.153251 3.38,-0.51 5.36,-4.89 3.1,-7.63 -1.55252,-2.004593 -3.90453,-2.275749 -6.32829,-2.275749 z"
       id="path5"
       inkscape:connector-curvature="0"
       style="opacity:1;fill:#ffffff;fill-opacity:1"
       sodipodi:nodetypes="ccccccccccccccsccsc" />
    <path
       d="m 170.27,76.71 9.77,-0.02 18.36,50.56 -13.33,0.04 -2.3,-7.43 -15.02,-0.11 -2.64,7.52 -13.33,-0.02 18.49,-50.54 m 5.02,19.97 -4.11,12.51 8.17,0.01 z"
       id="path7"
       inkscape:connector-curvature="0"
       style="opacity:1;fill:#ffffff;fill-opacity:1"
       sodipodi:nodetypes="ccccccccccccc" />
    <path
       d="m 205.08,76.72 c 6.97,0.12 13.94,-0.15 20.9,0.11 5.72,0.22 11.29,3.28 14.12,8.32 3.59,5.97 2.21,13.19 2.51,19.79 0.12,5.65 -0.15,12.07 -4.29,16.41 -3.29,3.86 -8.38,5.85 -13.39,5.9 -6.61,0.07 -13.22,-0.05 -19.82,0.04 l -0.03,-50.57 m 12.42,11.29 0.01,27.95 c 3.63,-0.14 8.47,1.06 10.94,-2.42 2.25,-3.75 1.29,-8.39 1.56,-12.54 -0.26,-3.83 0.66,-8.56 -2.52,-11.43 -2.76,-2.37 -6.68,-1.36 -9.99,-1.56 z"
       id="path9"
       inkscape:connector-curvature="0"
       style="opacity:1;fill:#ffffff;fill-opacity:1"
       sodipodi:nodetypes="cccccccccccccc" />
    <path
       d="m 252.73,76.76 12.53,-0.04 0.04,50.51 -12.53,0.07 z"
       id="path11"
       inkscape:connector-curvature="0"
       style="opacity:1;fill:#ffffff;fill-opacity:1"
       sodipodi:nodetypes="ccccc" />
    <path
       d="m 109.22,170.05 h 45.33 l -0.04,140.41 46.98,0.06 -0.05,41.52 -92.27,-0.06 z"
       id="path13"
       inkscape:connector-curvature="0"
       style="opacity:1;fill:#ffffff;fill-opacity:1"
       sodipodi:nodetypes="ccccccc" />
    <path
       d="m 243.18,170.06 45.34,0.03 0.02,181.87 -45.36,0.03 z"
       id="path15"
       inkscape:connector-curvature="0"
       style="opacity:1;fill:#ffffff;fill-opacity:1"
       sodipodi:nodetypes="ccccc" />
    <path
       d="m 322.96,169.91 46.23,0.07 40.64,181.99 -46.43,0.03 z"
       id="path17"
       inkscape:connector-curvature="0"
       style="opacity:1;fill:#ffffff;fill-opacity:1"
       sodipodi:nodetypes="ccccc" />
    <path
       d="m 403.19,170.30025 h 46.86 l -0.03,41.8995 -18.36,63.36025 -13.98,-63.36025 h -14.41 z"
       id="path19"
       inkscape:connector-curvature="0"
       style="opacity:1;fill:#ffffff;fill-opacity:1"
       sodipodi:nodetypes="ccccccc" />
    <path
       d="m 490.49,169.98 92.5,0.07 -0.02,41.48 -47.15,-0.03 -0.01,28.69 40.45,0.01 -0.06,41.62 h -40.39 l 0.01,28.67 47.12,-0.06 0.07,41.57 -92.51,-0.01 z"
       id="path21"
       inkscape:connector-curvature="0"
       style="opacity:1;fill:#ffffff;fill-opacity:1"
       sodipodi:nodetypes="ccccccccccccc" />
  </g>
</svg>
