<?xml version="1.0" encoding="UTF-8" standalone="no"?>
<!-- Created with Inkscape (http://www.inkscape.org/) -->

<svg
   xmlns:dc="http://purl.org/dc/elements/1.1/"
   xmlns:cc="http://creativecommons.org/ns#"
   xmlns:rdf="http://www.w3.org/1999/02/22-rdf-syntax-ns#"
   xmlns:svg="http://www.w3.org/2000/svg"
   xmlns="http://www.w3.org/2000/svg"
   xmlns:sodipodi="http://sodipodi.sourceforge.net/DTD/sodipodi-0.dtd"
   xmlns:inkscape="http://www.inkscape.org/namespaces/inkscape"
   width="17.246748mm"
   height="6.6357636mm"
   viewBox="0 0 61.110524 23.512548"
   id="svg6036"
   version="1.1"
   inkscape:version="0.91 r13725"
   sodipodi:docname="Radio New Zealand Concert - Dark.svg">
  <defs
     id="defs6038" />
  <sodipodi:namedview
     id="base"
     pagecolor="#ffffff"
     bordercolor="#666666"
     borderopacity="1.0"
     inkscape:pageopacity="0.0"
     inkscape:pageshadow="2"
     inkscape:zoom="11.2"
     inkscape:cx="35.578767"
     inkscape:cy="-1.0160596"
     inkscape:document-units="px"
     inkscape:current-layer="layer1"
     showgrid="false"
     fit-margin-top="0"
     fit-margin-left="0"
     fit-margin-right="0"
     fit-margin-bottom="0"
     inkscape:window-width="1920"
     inkscape:window-height="1017"
     inkscape:window-x="-8"
     inkscape:window-y="-8"
     inkscape:window-maximized="1" />
  <metadata
     id="metadata6041">
    <rdf:RDF>
      <cc:Work
         rdf:about="">
        <dc:format>image/svg+xml</dc:format>
        <dc:type
           rdf:resource="http://purl.org/dc/dcmitype/StillImage" />
        <dc:title></dc:title>
      </cc:Work>
    </rdf:RDF>
  </metadata>
  <g
     inkscape:label="Layer 1"
     inkscape:groupmode="layer"
     id="layer1"
     transform="translate(-329.44474,-472.03345)">
    <path
       inkscape:connector-curvature="0"
       id="path252"
       style="fill:#000000;fill-opacity:1;fill-rule:nonzero;stroke:none"
       d="m 345.07264,486.48035 0,-5.34 c 0,-0.17625 -0.135,-0.32125 -0.31125,-0.32125 l -0.6325,0 c -0.17625,0 -0.31125,0.145 -0.31125,0.32125 l 0,3.2875 -1.0675,-3.2875 c -0.0525,-0.16625 -0.135,-0.32125 -0.32125,-0.32125 l -1.08875,0 c -0.1775,0 -0.31125,0.145 -0.31125,0.32125 l 0,5.33 c 0,0.17625 0.13375,0.32125 0.31125,0.32125 l 0.62125,0 c 0.17625,0 0.32125,-0.135 0.32125,-0.31125 l 0,-3.49375 0,-0.0312 1.11,3.515 c 0.0525,0.165 0.145,0.32125 0.32125,0.32125 l 1.0375,0 c 0.17625,0 0.32125,-0.135 0.32125,-0.31125" />
    <path
       inkscape:connector-curvature="0"
       id="path256"
       style="fill:#000000;fill-opacity:1;fill-rule:nonzero;stroke:none"
       d="m 349.62426,486.46985 0,-0.58 c 0,-0.17625 -0.145,-0.31125 -0.32125,-0.31125 l -1.57625,0 0,-1.265 1.23375,0 c 0.17625,0 0.32125,-0.145 0.32125,-0.3225 l 0,-0.55875 c 0,-0.17625 -0.145,-0.31125 -0.32125,-0.31125 l -1.23375,0 0,-1.13 1.4925,0 c 0.17625,0 0.3225,-0.145 0.3225,-0.32125 l 0,-0.55 c 0,-0.17625 -0.14625,-0.31125 -0.3225,-0.31125 l -2.57125,0 c -0.17625,0 -0.31125,0.145 -0.31125,0.32125 l 0,5.34 c 0,0.17625 0.135,0.32125 0.31125,0.32125 l 2.655,0 c 0.17625,0 0.32125,-0.145 0.32125,-0.32125" />
    <path
       inkscape:connector-curvature="0"
       id="path260"
       style="fill:#000000;fill-opacity:1;fill-rule:nonzero;stroke:none"
       d="m 356.46601,481.1301 c 0.0312,-0.17625 0,-0.31125 -0.17625,-0.31125 l -0.85,0 c -0.17625,0 -0.28,0.145 -0.30125,0.32125 l -0.45625,3.80625 -0.56,-3.80625 c -0.02,-0.17625 -0.12375,-0.32125 -0.3,-0.32125 l -0.94375,0 c -0.17625,0 -0.30125,0.145 -0.3225,0.32125 l -0.53875,3.76375 -0.4775,-3.76375 c -0.02,-0.17625 -0.13375,-0.32125 -0.31,-0.32125 l -0.84,0 c -0.17625,0 -0.1975,0.145 -0.16625,0.32125 l 0.9225,5.33 c 0.0312,0.17625 0.125,0.32125 0.30125,0.32125 l 1.02625,0 c 0.17625,0 0.28,-0.145 0.31125,-0.32125 l 0.56,-3.7225 0.59125,3.7225 c 0.0312,0.17625 0.145,0.32125 0.32125,0.32125 l 1.01625,0 c 0.17625,0 0.27,-0.145 0.30125,-0.32125 l 0.89125,-5.34 z" />
    <path
       inkscape:connector-curvature="0"
       id="path264"
       style="fill:#000000;fill-opacity:1;fill-rule:nonzero;stroke:none"
       d="m 362.39639,486.48035 0,-0.58 c 0,-0.17625 -0.145,-0.31125 -0.32125,-0.31125 l -1.56625,0 1.77375,-3.47375 c 0.0312,-0.0725 0.0825,-0.135 0.0825,-0.2175 l 0,-0.7675 c 0,-0.17625 -0.135,-0.32125 -0.31125,-0.32125 l -2.685,0 c -0.17625,0 -0.32125,0.135 -0.32125,0.31125 l 0,0.59 c 0,0.17625 0.145,0.31125 0.32125,0.31125 l 1.38875,0 -1.7625,3.47375 c -0.0312,0.0725 -0.0825,0.135 -0.0825,0.2175 l 0,0.7575 c 0,0.17625 0.135,0.32125 0.31125,0.32125 l 2.85125,0 c 0.17625,0 0.32125,-0.135 0.32125,-0.31125" />
    <path
       inkscape:connector-curvature="0"
       id="path268"
       style="fill:#000000;fill-opacity:1;fill-rule:nonzero;stroke:none"
       d="m 366.63714,486.46985 0,-0.58 c 0,-0.17625 -0.145,-0.31125 -0.32125,-0.31125 l -1.57625,0 0,-1.265 1.23375,0 c 0.17625,0 0.32125,-0.145 0.32125,-0.3225 l 0,-0.55875 c 0,-0.17625 -0.145,-0.31125 -0.32125,-0.31125 l -1.23375,0 0,-1.13 1.4925,0 c 0.1775,0 0.3225,-0.145 0.3225,-0.32125 l 0,-0.55 c 0,-0.17625 -0.145,-0.31125 -0.3225,-0.31125 l -2.57125,0 c -0.17625,0 -0.31125,0.145 -0.31125,0.32125 l 0,5.34 c 0,0.17625 0.135,0.32125 0.31125,0.32125 l 2.655,0 c 0.17625,0 0.32125,-0.145 0.32125,-0.32125" />
    <path
       inkscape:connector-curvature="0"
       id="path272"
       style="fill:#000000;fill-opacity:1;fill-rule:nonzero;stroke:none"
       d="m 371.41551,486.44923 0,-3.95 c 0,-1.3275 -0.67375,-1.77375 -1.92875,-1.77375 -1.21375,0 -1.86625,0.4875 -1.86625,1.77375 l 0,3.95 c 0,0.18625 0.135,0.3425 0.31125,0.3425 l 0.76625,0 c 0.17625,0 0.31125,-0.15625 0.31125,-0.3425 l 0,-1.64875 1.0375,0 0,1.64875 c 0,0.18625 0.135,0.3425 0.31125,0.3425 l 0.74625,0 c 0.17625,0 0.31125,-0.15625 0.31125,-0.3425 m -1.36875,-2.7575 -1.0375,0 0,-1.12 c 0,-0.45625 0.135,-0.65375 0.50875,-0.65375 0.3725,0 0.52875,0.1975 0.52875,0.67375 l 0,1.1 z" />
    <path
       inkscape:connector-curvature="0"
       id="path276"
       style="fill:#000000;fill-opacity:1;fill-rule:nonzero;stroke:none"
       d="m 375.57264,486.48035 0,-0.59125 c 0,-0.17625 -0.145,-0.31125 -0.32125,-0.31125 l -1.245,0 0,-4.4375 c 0,-0.17625 -0.135,-0.32125 -0.31125,-0.32125 l -0.7675,0 c -0.17625,0 -0.31125,0.145 -0.31125,0.32125 l 0,5.33 c 0,0.17625 0.135,0.32125 0.31125,0.32125 l 2.32375,0 c 0.17625,0 0.32125,-0.135 0.32125,-0.31125" />
    <path
       inkscape:connector-curvature="0"
       id="path280"
       style="fill:#000000;fill-opacity:1;fill-rule:nonzero;stroke:none"
       d="m 380.16701,486.44923 0,-3.95 c 0,-1.3275 -0.67375,-1.77375 -1.92875,-1.77375 -1.21375,0 -1.86625,0.4875 -1.86625,1.77375 l 0,3.95 c 0,0.18625 0.135,0.3425 0.31125,0.3425 l 0.7675,0 c 0.175,0 0.31,-0.15625 0.31,-0.3425 l 0,-1.64875 1.0375,0 0,1.64875 c 0,0.18625 0.135,0.3425 0.31125,0.3425 l 0.74625,0 c 0.17625,0 0.31125,-0.15625 0.31125,-0.3425 m -1.36875,-2.7575 -1.0375,0 0,-1.12 c 0,-0.45625 0.135,-0.65375 0.50875,-0.65375 0.3725,0 0.52875,0.1975 0.52875,0.67375 l 0,1.1 z" />
    <path
       inkscape:connector-curvature="0"
       id="path284"
       style="fill:#000000;fill-opacity:1;fill-rule:nonzero;stroke:none"
       d="m 385.44376,486.48035 0,-5.34 c 0,-0.17625 -0.135,-0.32125 -0.31125,-0.32125 l -0.6325,0 c -0.17625,0 -0.31125,0.145 -0.31125,0.32125 l 0,3.2875 -1.0675,-3.2875 c -0.0525,-0.16625 -0.135,-0.32125 -0.32125,-0.32125 l -1.08875,0 c -0.1775,0 -0.31125,0.145 -0.31125,0.32125 l 0,5.33 c 0,0.17625 0.13375,0.32125 0.31125,0.32125 l 0.62125,0 c 0.1775,0 0.32125,-0.135 0.32125,-0.31125 l 0,-3.49375 0,-0.0312 1.11,3.515 c 0.0525,0.165 0.145,0.32125 0.32125,0.32125 l 1.0375,0 c 0.17625,0 0.32125,-0.135 0.32125,-0.31125" />
    <path
       inkscape:connector-curvature="0"
       id="path288"
       style="fill:#000000;fill-opacity:1;fill-rule:nonzero;stroke:none"
       d="m 390.55526,484.1121 0,-0.69625 c 0,-1.84 -0.4875,-2.6075 -1.95,-2.6075 l -1.59625,0 c -0.17625,0 -0.31125,0.145 -0.31125,0.32125 l 0,5.34 c 0,0.17625 0.135,0.32125 0.31125,0.32125 l 1.535,0 c 1.545,0 2.01125,-0.7775 2.01125,-2.67875 m -1.41,0.47875 c 0,0.7375 -0.145,1.05 -0.705,1.05 l -0.3325,0 0,-3.7125 0.32125,0 c 0.52875,0 0.71625,0.3125 0.71625,1.00875 l 0,1.65375 z" />
    <path
       inkscape:connector-curvature="0"
       id="path292"
       style="fill:#000000;fill-opacity:1;fill-rule:nonzero;stroke:none"
       d="m 344.93864,478.13435 -0.85,-2.22875 c 0.445,-0.27 0.6425,-0.7675 0.6425,-1.55 l 0,-0.115 c 0,-1.1875 -0.53875,-1.7675 -1.69,-1.7675 l -1.70125,0 c -0.17625,0 -0.31125,0.145 -0.31125,0.32125 l 0,5.34 c 0,0.17625 0.135,0.32125 0.31125,0.32125 l 0.7675,0 c 0.17625,0 0.31125,-0.145 0.31125,-0.32125 l 0,-1.99125 0.44625,0 0.68375,1.99125 c 0.0625,0.17625 0.1975,0.32125 0.37375,0.32125 l 0.7575,0 c 0.17625,0 0.32125,-0.145 0.25875,-0.32125 m -1.58625,-3.7375 c 0,0.47 -0.15625,0.6275 -0.59125,0.6275 l -0.3425,0 0,-1.43125 0.3625,0 c 0.42625,0 0.57125,0.125 0.57125,0.5325 l 0,0.27125 z" />
    <path
       inkscape:connector-curvature="0"
       id="path296"
       style="fill:#000000;fill-opacity:1;fill-rule:nonzero;stroke:none"
       d="m 349.55139,478.11373 0,-3.95 c 0,-1.3275 -0.67375,-1.77375 -1.92875,-1.77375 -1.21375,0 -1.86625,0.4875 -1.86625,1.77375 l 0,3.95 c 0,0.18625 0.135,0.3425 0.31125,0.3425 l 0.76625,0 c 0.17625,0 0.31125,-0.15625 0.31125,-0.3425 l 0,-1.64875 1.0375,0 0,1.64875 c 0,0.18625 0.135,0.3425 0.31125,0.3425 l 0.74625,0 c 0.17625,0 0.31125,-0.15625 0.31125,-0.3425 m -1.36875,-2.7575 -1.0375,0 0,-1.12 c 0,-0.45625 0.135,-0.65375 0.50875,-0.65375 0.3725,0 0.52875,0.1975 0.52875,0.67375 l 0,1.1 z" />
    <path
       inkscape:connector-curvature="0"
       id="path300"
       style="fill:#000000;fill-opacity:1;fill-rule:nonzero;stroke:none"
       d="m 354.61026,475.77648 0,-0.69625 c 0,-1.84 -0.4875,-2.6075 -1.95,-2.6075 l -1.59625,0 c -0.17625,0 -0.31125,0.145 -0.31125,0.32125 l 0,5.34 c 0,0.17625 0.135,0.32125 0.31125,0.32125 l 1.535,0 c 1.545,0 2.01125,-0.7775 2.01125,-2.67875 m -1.41,0.47875 c 0,0.7375 -0.145,1.05 -0.705,1.05 l -0.3325,0 0,-3.7125 0.32125,0 c 0.52875,0 0.71625,0.3125 0.71625,1.00875 l 0,1.65375 z" />
    <path
       inkscape:connector-curvature="0"
       id="path304"
       style="fill:#000000;fill-opacity:1;fill-rule:nonzero;stroke:none"
       d="m 357.01551,478.14485 0,-5.34 c 0,-0.17625 -0.135,-0.32125 -0.31125,-0.32125 l -0.7775,0 c -0.17625,0 -0.31125,0.145 -0.31125,0.32125 l 0,5.33 c 0,0.17625 0.135,0.32125 0.31125,0.32125 l 0.7675,0 c 0.17625,0 0.32125,-0.135 0.32125,-0.31125" />
    <path
       inkscape:connector-curvature="0"
       id="path308"
       style="fill:#000000;fill-opacity:1;fill-rule:nonzero;stroke:none"
       d="m 362.03339,476.28885 0,-1.6275 c 0,-1.56625 -0.58125,-2.27125 -2.0225,-2.27125 -1.43125,0 -2.01125,0.705 -2.01125,2.27125 l 0,1.6275 c 0,1.565 0.58,2.27 2.0325,2.27 1.42,0 2.00125,-0.705 2.00125,-2.27 m -1.45125,0.32125 c 0,0.4975 -0.16625,0.7875 -0.56,0.7875 -0.395,0 -0.58125,-0.29 -0.58125,-0.7875 l 0,-2.28125 c 0,-0.4975 0.18625,-0.7775 0.58125,-0.7775 0.39375,0 0.56,0.28 0.56,0.7775 l 0,2.28125 z" />
    <path
       inkscape:connector-curvature="0"
       id="path312"
       style="fill:#000000;fill-opacity:1;fill-rule:nonzero;stroke:none"
       d="m 335.04251,483.08135 c 0.105,-0.16 0.17375,-0.38125 0.17125,-0.68625 -0.006,-0.88375 -0.6075,-1.65125 -1.975,-1.57375 -0.7775,0.0437 -2.175,0.83 -2.15875,2.6025 0.015,1.78625 1.4,3.15125 3.11625,3.23 2.02125,0.0925 3.51625,-1.54125 4.01625,-2.8275 0,0 0.36125,-0.895 0.18125,0.31 -0.23125,1.54875 -1.59875,3.72875 -4.32125,3.89 -2.73125,0.16125 -4.77,-2.325 -4.62,-4.82375 0.17125,-2.825 2.5225,-4.0825 4.3825,-3.85875 1.7525,0.2125 2.9825,1.64 2.8225,3.355 -0.15875,1.69875 -1.68,2.6575 -2.96125,2.17125 -1.3375,-0.50875 -1.21,-2.155 -0.415,-2.65625 0.58125,-0.365 1.6925,-0.18875 1.61125,0.8075 l -0.002,0.0238 c -0.0263,0.17875 0.0537,0.1675 0.1525,0.0362 m -4.12,8.7675 c 2.08625,1.1375 4.12,1.0375 5.925,0.0525 l 0.0288,-0.015 0.0138,-0.007 0.0125,-0.006 c 0.0975,-0.045 0.2,-0.0537 0.004,0.20125 -1.24875,1.4625 -3.32,1.86125 -4.985,0.84625 -0.37625,-0.23 -0.705,-0.515 -0.98,-0.84 l -0.0263,-0.0338 c -0.20875,-0.26125 -0.0875,-0.24875 0.007,-0.1975 m 5.78125,-16.28375 c -2.07625,-1.155 -4.11125,-1.0725 -5.925,-0.10375 l -0.0288,0.015 -0.0137,0.006 -0.0125,0.007 c -0.0975,0.0437 -0.2,0.0512 -0.001,-0.20125 1.26,-1.4525 3.33625,-1.8325 4.99125,-0.80375 0.375,0.23375 0.7,0.52125 0.9725,0.84875 l 0.0263,0.0337 c 0.2075,0.26375 0.0863,0.25 -0.009,0.1975 m -1.12,-2.61125 c -1.2525,-0.64 -2.47875,-0.59375 -3.5725,-0.0575 l -0.0175,0.007 -0.0163,0.007 c -0.0587,0.025 -0.12125,0.0288 -10e-4,-0.11125 0.76,-0.8025 2.0125,-1.01375 3.01,-0.44375 0.22625,0.12875 0.4225,0.28875 0.5875,0.47 l 0.015,0.0175 c 0.125,0.14625 0.0525,0.13875 -0.005,0.11 m 0.4625,4.17375 c 0.80875,0.54125 1.4,1.30375 1.75,2.16125 0.17,0.44625 -10e-4,0.3475 -0.2125,0.1125 -0.32125,-0.35625 -0.68375,-0.67375 -1.09,-0.94625 -2.1225,-1.42 -4.8025,-1.165 -6.61625,0.44 l -0.0112,0.009 c -0.245,0.21875 -0.43,0.2975 -0.17375,-0.18625 l 0.035,-0.0638 c 0.0188,-0.0337 0.0387,-0.0662 0.0575,-0.0975 1.33875,-2.20625 4.14125,-2.84625 6.26125,-1.42875 m -4.01125,17.535 c 1.3875,0.61375 2.71625,0.50625 3.88,-0.11125 l 0.0175,-0.01 0.0175,-0.009 c 0.0625,-0.0275 0.13,-0.0363 0.006,0.1175 -0.78875,0.88375 -2.1375,1.16625 -3.2475,0.61375 -0.25125,-0.125 -0.47125,-0.28375 -0.6575,-0.4675 l -0.0175,-0.0175 c -0.1425,-0.14875 -0.0625,-0.14375 10e-4,-0.11625 m -0.61375,-4.4325 c -0.835,-0.5325 -1.45,-1.2875 -1.815,-2.1425 -0.1775,-0.445 -10e-4,-0.3475 0.21875,-0.115 0.33125,0.35375 0.70625,0.6675 1.1275,0.935 2.1925,1.395 4.9475,1.11 6.80375,-0.515 l 0.0113,-0.009 c 0.25,-0.22125 0.44,-0.3025 0.17875,0.18375 l -0.035,0.065 c -0.0188,0.0325 -0.0388,0.0662 -0.0588,0.0987 -1.3625,2.22125 -4.24125,2.8925 -6.43125,1.49875" />
    <path
       inkscape:connector-curvature="0"
       id="path316"
       style="fill:#46b5d6;fill-opacity:1;fill-rule:nonzero;stroke:none"
       d="m 349.13714,492.97873 0,-1.6275 c 0,-1.565 -0.58,-2.27 -2.02125,-2.27 -1.43125,0 -2.0125,0.705 -2.0125,2.27 l 0,1.6275 c 0,1.565 0.58125,2.27 2.0325,2.27 1.42125,0 2.00125,-0.705 2.00125,-2.27 m -1.45125,0.32125 c 0,0.4975 -0.16625,0.7875 -0.56,0.7875 -0.39375,0 -0.58125,-0.29 -0.58125,-0.7875 l 0,-2.28 c 0,-0.49875 0.1875,-0.77875 0.58125,-0.77875 0.39375,0 0.56,0.28 0.56,0.77875 l 0,2.28 z" />
    <path
       inkscape:connector-curvature="0"
       id="path320"
       style="fill:#46b5d6;fill-opacity:1;fill-rule:nonzero;stroke:none"
       d="m 354.40276,494.83435 0,-5.33875 c 0,-0.17625 -0.135,-0.32125 -0.31125,-0.32125 l -0.6325,0 c -0.17625,0 -0.31125,0.145 -0.31125,0.32125 l 0,3.28625 -1.0675,-3.28625 c -0.0525,-0.16625 -0.135,-0.32125 -0.32125,-0.32125 l -1.08875,0 c -0.17625,0 -0.31125,0.145 -0.31125,0.32125 l 0,5.32875 c 0,0.17625 0.135,0.32125 0.31125,0.32125 l 0.6225,0 c 0.17625,0 0.32125,-0.135 0.32125,-0.31125 l 0,-3.49375 0,-0.0312 1.10875,3.515 c 0.0525,0.165 0.145,0.32125 0.32125,0.32125 l 1.0375,0 c 0.17625,0 0.32125,-0.135 0.32125,-0.31125" />
    <path
       inkscape:connector-curvature="0"
       id="path324"
       style="fill:#46b5d6;fill-opacity:1;fill-rule:nonzero;stroke:none"
       d="m 363.01889,494.82398 0,-0.58 c 0,-0.17625 -0.145,-0.31125 -0.32125,-0.31125 l -1.57625,0 0,-1.265 1.23375,0 c 0.17625,0 0.32125,-0.145 0.32125,-0.32125 l 0,-0.56 c 0,-0.17625 -0.145,-0.31125 -0.32125,-0.31125 l -1.23375,0 0,-1.13 1.4925,0 c 0.1775,0 0.3225,-0.145 0.3225,-0.32125 l 0,-0.55 c 0,-0.175 -0.145,-0.31 -0.3225,-0.31 l -2.57125,0 c -0.175,0 -0.31,0.145 -0.31,0.32125 l 0,5.33875 c 0,0.17625 0.135,0.32125 0.31,0.32125 l 2.655,0 c 0.17625,0 0.32125,-0.145 0.32125,-0.32125" />
    <path
       inkscape:connector-curvature="0"
       id="path328"
       style="fill:#46b5d6;fill-opacity:1;fill-rule:nonzero;stroke:none"
       d="m 368.00389,494.82398 -0.85,-2.22875 c 0.445,-0.27 0.6425,-0.7675 0.6425,-1.55 l 0,-0.115 c 0,-1.18625 -0.53875,-1.76625 -1.69,-1.76625 l -1.7,0 c -0.17625,0 -0.31125,0.145 -0.31125,0.32125 l 0,5.33875 c 0,0.17625 0.135,0.32125 0.31125,0.32125 l 0.7675,0 c 0.17625,0 0.31,-0.145 0.31,-0.32125 l 0,-1.99 0.44625,0 0.68375,1.99 c 0.0625,0.17625 0.1975,0.32125 0.37375,0.32125 l 0.7575,0 c 0.175,0 0.32125,-0.145 0.25875,-0.32125 m -1.58625,-3.73625 c 0,0.47 -0.15625,0.62625 -0.59125,0.62625 l -0.3425,0 0,-1.43 0.36375,0 c 0.425,0 0.57,0.125 0.57,0.53125 l 0,0.2725 z" />
    <path
       inkscape:connector-curvature="0"
       id="path332"
       style="fill:#46b5d6;fill-opacity:1;fill-rule:nonzero;stroke:none"
       d="m 372.22464,490.0446 0,-0.54875 c 0,-0.1875 -0.145,-0.31125 -0.32125,-0.31125 l -3.06875,-0.0112 c -0.17625,0 -0.32125,0.135 -0.32125,0.31125 l 0,0.56 c 0,0.17625 0.145,0.31125 0.32125,0.31125 l 0.84,0 0,4.4675 c 0,0.17625 0.13375,0.3225 0.31125,0.3225 l 0.76625,0 c 0.17625,0 0.31125,-0.14625 0.31125,-0.3225 l 0,-4.4675 0.84,0 c 0.17625,0 0.32125,-0.135 0.32125,-0.31125" />
    <path
       inkscape:connector-curvature="0"
       id="path336"
       style="fill:#46b5d6;fill-opacity:1;fill-rule:nonzero;stroke:none"
       d="m 344.22476,494.8341 0,-0.3725 c 0,-0.17625 -0.12375,-0.3325 -0.32125,-0.3325 l -0.86125,0 c -0.36375,0 -0.56,-0.28 -0.56,-0.7175 l 0,-2.3075 c 0,-0.48875 0.17625,-0.75875 0.56,-0.75875 l 0.86125,0 c 0.1975,0 0.32125,-0.15625 0.32125,-0.33125 l 0,-0.54 c 0,-0.17625 -0.145,-0.31125 -0.32125,-0.31125 l -0.8825,0 c -1.6375,0 -2.01125,0.965 -2.01125,2.45 l 0,1.03 c 0,1.5175 0.32125,2.5025 2.01125,2.5025 l 0.8825,0 c 0.17625,0 0.32125,-0.135 0.32125,-0.31125" />
    <path
       inkscape:connector-curvature="0"
       id="path340"
       style="fill:#46b5d6;fill-opacity:1;fill-rule:nonzero;stroke:none"
       d="m 358.71589,494.8341 0,-0.3725 c 0,-0.17625 -0.12375,-0.3325 -0.32125,-0.3325 l -0.86125,0 c -0.3625,0 -0.56,-0.28 -0.56,-0.7175 l 0,-2.3075 c 0,-0.48875 0.17625,-0.75875 0.56,-0.75875 l 0.86125,0 c 0.1975,0 0.32125,-0.15625 0.32125,-0.33125 l 0,-0.54 c 0,-0.17625 -0.145,-0.31125 -0.32125,-0.31125 l -0.8825,0 c -1.6375,0 -2.01125,0.965 -2.01125,2.45 l 0,1.03 c 0,1.5175 0.32125,2.5025 2.01125,2.5025 l 0.8825,0 c 0.17625,0 0.32125,-0.135 0.32125,-0.31125" />
  </g>
</svg>
