<svg height="275.87292pt" viewBox="0 0 473.84 275.87292" width="473.84pt" xmlns="http://www.w3.org/2000/svg"><g fill="#fff" transform="translate(-109.17 -76.167085)"><path d="m289.5 76.81c8.9-2.34 19.63 1.81 22.93 10.78 1.94 5.92 1.52 12.3 1.49 18.44-.15 5.36-.63 11.32-4.53 15.41-7.53 8.82-22.98 8.4-30.17-.64-3.52-4.43-3.77-10.35-4-15.76-.06-5.78-.19-11.7 1.52-17.29 2.01-5.5 7.07-9.71 12.76-10.94m2.75 11.23c-4.3 1.7-4.15 7.11-4.26 10.96.22 4.87-.72 10.14 1.49 14.67 2.53 4.43 10.01 3.2 11.08-1.78 1.04-6.07.72-12.33.28-18.45-.16-4.13-4.79-7.09-8.59-5.4z"/><path d="m109.23 76.74c6.93.02 13.87-.06 20.81.01 3.79.02 7.56 1.21 10.57 3.54 6.31 4.9 7.98 14.98 3.23 21.48-1.37 1.98-3.44 3.27-5.31 4.72l10.81 20.83975h-14.75l-8.92-18.81975-3.87.04.02 18.77975h-12.58zm12.58 11.204251-.05 10.059h4.46851c1.21959 0 2.45511-.02643 3.63149-.153251 3.38-.51 5.36-4.89 3.1-7.63-1.55252-2.004593-3.90453-2.275749-6.32829-2.275749z"/><path d="m170.27 76.71 9.77-.02 18.36 50.56-13.33.04-2.3-7.43-15.02-.11-2.64 7.52-13.33-.02zm5.02 19.97-4.11 12.51 8.17.01z"/><path d="m205.08 76.72c6.97.12 13.94-.15 20.9.11 5.72.22 11.29 3.28 14.12 8.32 3.59 5.97 2.21 13.19 2.51 19.79.12 5.65-.15 12.07-4.29 16.41-3.29 3.86-8.38 5.85-13.39 5.9-6.61.07-13.22-.05-19.82.04zm12.42 11.29.01 27.95c3.63-.14 8.47 1.06 10.94-2.42 2.25-3.75 1.29-8.39 1.56-12.54-.26-3.83.66-8.56-2.52-11.43-2.76-2.37-6.68-1.36-9.99-1.56z"/><path d="m252.73 76.76 12.53-.04.04 50.51-12.53.07z"/><path d="m109.22 170.05h45.33l-.04 140.41 46.98.06-.05 41.52-92.27-.06z"/><path d="m243.18 170.06 45.34.03.02 181.87-45.36.03z"/><path d="m322.96 169.91 46.23.07 40.64 181.99-46.43.03z"/><path d="m403.19 170.30025h46.86l-.03 41.8995-18.36 63.36025-13.98-63.36025h-14.41z"/><path d="m490.49 169.98 92.5.07-.02 41.48-47.15-.03-.01 28.69 40.45.01-.06 41.62h-40.39l.01 28.67 47.12-.06.07 41.57-92.51-.01z"/></g></svg>