<svg height="6.635693mm" viewBox="0 0 61.105645 23.512298" width="17.245371mm" xmlns="http://www.w3.org/2000/svg"><g transform="translate(-260.87575 -503.4629)"><path d="m276.50177 517.90885v-5.34c0-.17625-.135-.32125-.31125-.32125h-.6325c-.17625 0-.31125.145-.31125.32125v3.2875l-1.0675-3.2875c-.0525-.16625-.135-.32125-.32125-.32125h-1.08875c-.17625 0-.31125.145-.31125.32125v5.33c0 .17625.135.32125.31125.32125h.62125c.1775 0 .3225-.135.3225-.31125v-3.49375-.0312l1.10875 3.515c.0525.165.145.32125.32125.32125h1.0375c.17625 0 .32125-.135.32125-.31125"/><path d="m281.05314 517.89835v-.58c0-.17625-.145-.31125-.32125-.31125h-1.57625v-1.265h1.23375c.17625 0 .32125-.145.32125-.3225v-.55875c0-.17625-.145-.31125-.32125-.31125h-1.23375v-1.13h1.4925c.17625 0 .3225-.14625.3225-.3225v-.54875c0-.17625-.14625-.31125-.3225-.31125h-2.57125c-.17625 0-.31125.145-.31125.32125v5.34c0 .17625.135.32125.31125.32125h2.655c.17625 0 .32125-.145.32125-.32125"/><path d="m287.89452 512.55848c.0312-.17625 0-.31125-.17625-.31125h-.85c-.17625 0-.28.145-.30125.32125l-.45625 3.80625-.56-3.80625c-.02-.17625-.12375-.32125-.3-.32125h-.94375c-.17625 0-.30125.145-.32125.32125l-.54 3.76375-.47625-3.76375c-.0213-.17625-.135-.32125-.31125-.32125h-.84c-.17625 0-.1975.145-.16625.32125l.92375 5.33c.03.17625.12375.32125.3.32125h1.02625c.17625 0 .28-.145.31125-.32125l.56-3.7225.59125 3.7225c.0312.17625.145.32125.32125.32125h1.01625c.17625 0 .27-.145.30125-.32125z"/><path d="m293.82439 517.90885v-.58c0-.17625-.145-.31125-.32125-.31125h-1.565l1.7725-3.47375c.0312-.0725.0825-.135.0825-.2175v-.7675c0-.17625-.135-.32125-.31125-.32125h-2.685c-.17625 0-.32125.135-.32125.31125v.59c0 .17625.145.31125.32125.31125h1.39l-1.76375 3.47375c-.0312.0725-.0825.135-.0825.2175v.7575c0 .17625.135.32125.31125.32125h2.85125c.17625 0 .32125-.135.32125-.31125"/><path d="m298.06477 517.89835v-.58c0-.17625-.145-.31125-.32125-.31125h-1.57625v-1.265h1.23375c.17625 0 .32125-.145.32125-.3225v-.55875c0-.17625-.145-.31125-.32125-.31125h-1.23375v-1.13h1.4925c.1775 0 .3225-.14625.3225-.3225v-.54875c0-.17625-.145-.31125-.3225-.31125h-2.57125c-.17625 0-.31.145-.31.32125v5.34c0 .17625.13375.32125.31.32125h2.655c.17625 0 .32125-.145.32125-.32125"/><path d="m302.84277 517.87773v-3.95c0-1.3275-.67375-1.77375-1.92875-1.77375-1.21375 0-1.86625.4875-1.86625 1.77375v3.95c0 .18625.135.3425.31125.3425h.7675c.17625 0 .31-.15625.31-.3425v-1.64875h1.0375v1.64875c0 .18625.135.3425.31125.3425h.74625c.17625 0 .31125-.15625.31125-.3425m-1.36875-2.7575h-1.0375v-1.12c0-.45625.135-.65375.50875-.65375s.52875.1975.52875.67375z"/><path d="m306.99977 517.90885v-.59125c0-.17625-.145-.31125-.32125-.31125h-1.245v-4.4375c0-.17625-.135-.32125-.31125-.32125h-.7675c-.17625 0-.31.145-.31.32125v5.33c0 .17625.13375.32125.31.32125h2.32375c.17625 0 .32125-.135.32125-.31125"/><path d="m311.59377 517.87773v-3.95c0-1.3275-.67375-1.77375-1.92875-1.77375-1.21375 0-1.86625.4875-1.86625 1.77375v3.95c0 .18625.135.3425.31125.3425h.7675c.17625 0 .31-.15625.31-.3425v-1.64875h1.0375v1.64875c0 .18625.135.3425.31125.3425h.74625c.17625 0 .31125-.15625.31125-.3425m-1.36875-2.7575h-1.0375v-1.12c0-.45625.135-.65375.50875-.65375.3725 0 .52875.1975.52875.67375z"/><path d="m316.87014 517.90885v-5.34c0-.17625-.135-.32125-.31125-.32125h-.6325c-.17625 0-.31125.145-.31125.32125v3.2875l-1.0675-3.2875c-.0525-.16625-.135-.32125-.32125-.32125h-1.08875c-.17625 0-.31125.145-.31125.32125v5.33c0 .17625.135.32125.31125.32125h.6225c.17625 0 .32125-.135.32125-.31125v-3.49375-.0312l1.10875 3.515c.0525.165.145.32125.32125.32125h1.0375c.17625 0 .32125-.135.32125-.31125"/><path d="m321.98139 515.5406v-.69625c0-1.84-.4875-2.6075-1.95-2.6075h-1.59625c-.17625 0-.31125.145-.31125.32125v5.34c0 .17625.135.32125.31125.32125h1.535c1.545 0 2.01125-.7775 2.01125-2.67875m-1.41.47875c0 .7375-.145 1.05-.705 1.05h-.3325v-3.7125h.32125c.53 0 .71625.3125.71625 1.00875z"/><path d="m276.36789 509.56285-.85-2.22875c.445-.27.6425-.7675.6425-1.55v-.115c0-1.18625-.53875-1.7675-1.69-1.7675h-1.7c-.1775 0-.31125.145-.31125.32125v5.34c0 .17625.13375.32125.31125.32125h.76625c.17625 0 .31125-.145.31125-.32125v-1.99125h.44625l.68375 1.99125c.0625.17625.1975.32125.37375.32125h.7575c.17625 0 .32125-.145.25875-.32125m-1.58625-3.7375c0 .47-.15625.6275-.59125.6275h-.3425v-1.43125h.36375c.425 0 .57.125.57.5325z"/><path d="m280.98027 509.5421v-3.95c0-1.3275-.67375-1.77375-1.92875-1.77375-1.21375 0-1.86625.4875-1.86625 1.77375v3.95c0 .18625.135.3425.31125.3425h.76625c.1775 0 .31125-.15625.31125-.3425v-1.64875h1.0375v1.64875c0 .18625.135.3425.31125.3425h.74625c.17625 0 .31125-.15625.31125-.3425m-1.36875-2.7575h-1.0375v-1.12c0-.45625.135-.65375.50875-.65375s.52875.1975.52875.67375z"/><path d="m286.03889 507.20485v-.69625c0-1.84-.4875-2.6075-1.95-2.6075h-1.59625c-.17625 0-.31125.145-.31125.32125v5.34c0 .17625.135.32125.31125.32125h1.535c1.545 0 2.01125-.7775 2.01125-2.67875m-1.41.47875c0 .7375-.145 1.05-.705 1.05h-.3325v-3.7125h.32125c.52875 0 .71625.3125.71625 1.00875z"/><path d="m288.44377 509.57323v-5.34c0-.17625-.135-.32125-.31125-.32125h-.7775c-.17625 0-.31125.145-.31125.32125v5.33c0 .17625.135.32125.31125.32125h.7675c.17625 0 .32125-.135.32125-.31125"/><path d="m293.46139 507.71723v-1.6275c0-1.56625-.58-2.27125-2.0225-2.27125-1.43 0-2.01125.705-2.01125 2.27125v1.6275c0 1.56625.58125 2.27125 2.0325 2.27125 1.42125 0 2.00125-.705 2.00125-2.27125m-1.45125.32125c0 .4975-.16625.78875-.56.78875s-.58125-.29125-.58125-.78875v-2.28125c0-.4975.1875-.7775.58125-.7775s.56.28.56.7775z"/><path d="m266.47239 514.50985c.105-.16.17375-.38125.17125-.68625-.006-.88375-.6075-1.65125-1.975-1.57375-.7775.0437-2.175.83-2.15875 2.6025.015 1.7875 1.4 3.15125 3.11625 3.23 2.02125.0925 3.515-1.54125 4.01625-2.8275 0 0 .36125-.895.18125.31-.2325 1.54875-1.59875 3.72875-4.32125 3.89-2.73.16125-4.77-2.325-4.61875-4.82375.17-2.825 2.52125-4.0825 4.38125-3.85875 1.7525.2125 2.9825 1.64 2.8225 3.355-.15875 1.69875-1.68 2.65875-2.96125 2.17125-1.3375-.50875-1.21-2.155-.41375-2.65625.58-.365 1.69125-.18875 1.61.8075l-.002.0238c-.0263.17875.0538.1675.1525.0362m-4.12 8.76875c2.0875 1.13625 4.12 1.03625 5.925.0512l.0288-.015.0137-.007.0125-.006c.0975-.045.2-.0538.002.20125-1.2475 1.4625-3.31875 1.86125-4.9825.84625-.3775-.23-.705-.515-.98-.84l-.0263-.0338c-.21-.26125-.0888-.24875.006-.19625m5.78125-16.285c-2.07625-1.155-4.11125-1.0725-5.925-.10375l-.0275.015-.015.006-.0125.007c-.0975.0438-.2.0513-.001-.20125 1.26125-1.4525 3.33625-1.8325 4.99125-.80375.375.23375.70125.52125.9725.84875l.0263.0337c.2075.26375.0863.25-.009.1975m-1.12-2.61125c-1.2525-.64-2.47875-.59375-3.5725-.0575l-.0175.007-.0162.008c-.0588.025-.12.03-.001-.11125.76125-.8025 2.0125-1.01375 3.01-.44375.22625.12875.4225.28875.5875.47l.015.0175c.125.14625.0525.13875-.005.11m.4625 4.17375c.80875.54125 1.4 1.30375 1.75 2.16125.17.4475-.001.3475-.21375.1125-.32-.35625-.6825-.67375-1.08875-.94625-2.1225-1.42-4.80125-1.165-6.61625.44l-.0113.009c-.24375.21875-.42875.2975-.1725-.18625l.0337-.0638c.0187-.0337.0387-.065.0587-.0975 1.3375-2.20625 4.14-2.84625 6.26-1.42875m-4.01125 17.53625c1.3875.6125 2.71625.505 3.88-.1125l.0175-.009.0175-.009c.0625-.0288.13-.0375.006.11625-.78875.88375-2.1375 1.16625-3.2475.61375-.25-.125-.47125-.28375-.6575-.4675l-.0175-.0175c-.1425-.14875-.0625-.14375.001-.115m-.61375-4.43375c-.835-.5325-1.45-1.2875-1.81375-2.1425-.17875-.44375-.002-.3475.2175-.115.3325.35375.70625.6675 1.1275.935 2.1925 1.395 4.9475 1.11125 6.8025-.515l.0125-.009c.25-.22125.44-.3025.17875.18375l-.035.065c-.0188.0337-.0387.0662-.0587.0987-1.3625 2.22125-4.24125 2.8925-6.43125 1.49875"/><g fill="#bbb436"><path d="m276.49964 526.26298v-5.33875c0-.17625-.135-.32125-.31125-.32125h-.6325c-.17625 0-.31125.145-.31125.32125v3.28625l-1.0675-3.28625c-.0512-.16625-.135-.32125-.32125-.32125h-1.08875c-.17625 0-.31125.145-.31125.32125v5.32875c0 .17625.135.32125.31125.32125h.6225c.17625 0 .32125-.135.32125-.31125v-3.49375-.0312l1.10875 3.515c.0525.165.14625.32125.32125.32125h1.0375c.17625 0 .32125-.135.32125-.31125"/><path d="m281.54789 526.23185v-3.95c0-1.3275-.67375-1.7725-1.92875-1.7725-1.2125 0-1.86625.4875-1.86625 1.7725v3.95c0 .18625.135.3425.31125.3425h.7675c.17625 0 .31125-.15625.31125-.3425v-1.64875h1.03625v1.64875c0 .18625.135.3425.31125.3425h.74625c.17625 0 .31125-.15625.31125-.3425m-1.36875-2.7575h-1.03625v-1.12c0-.45625.135-.6525.5075-.6525.37375 0 .52875.19625.52875.67375z"/><path d="m285.46714 521.47323v-.54875c0-.1875-.145-.31125-.32125-.31125l-2.59375-.0113c-.17625 0-.32125.135-.32125.31125v.56c0 .17625.145.31125.32125.31125h.6025v4.4675c0 .17625.135.3225.31125.3225h.76625c.17625 0 .31125-.14625.31125-.3225v-4.4675h.6025c.17625 0 .32125-.135.32125-.31125"/><path d="m287.65277 526.26298v-5.33875c0-.17625-.135-.32125-.31125-.32125h-.7775c-.17625 0-.31125.145-.31125.32125v5.32875c0 .17625.135.32125.31125.32125h.7675c.17625 0 .32125-.135.32125-.31125"/><path d="m292.87702 524.40723v-1.6275c0-1.565-.58-2.27-2.02125-2.27-1.43125 0-2.01125.705-2.01125 2.27v1.6275c0 1.565.58 2.27 2.03125 2.27 1.42125 0 2.00125-.705 2.00125-2.27m-1.45125.32125c0 .4975-.16625.7875-.56.7875s-.58-.29-.58-.7875v-2.28c0-.49875.18625-.77875.58-.77875s.56.28.56.77875z"/><path d="m298.03852 526.26298v-5.33875c0-.17625-.135-.32125-.31125-.32125h-.6325c-.17625 0-.31.145-.31.32125v3.28625l-1.06875-3.28625c-.0513-.16625-.135-.32125-.32125-.32125h-1.08875c-.17625 0-.31125.145-.31125.32125v5.32875c0 .17625.135.32125.31125.32125h.6225c.17625 0 .32125-.135.32125-.31125v-3.49375-.0312l1.10875 3.515c.0525.165.14625.32125.3225.32125h1.03625c.17625 0 .32125-.135.32125-.31125"/><path d="m303.08677 526.23185v-3.95c0-1.3275-.67375-1.7725-1.92875-1.7725-1.2125 0-1.865.4875-1.865 1.7725v3.95c0 .18625.13375.3425.31.3425h.7675c.17625 0 .31125-.15625.31125-.3425v-1.64875h1.03625v1.64875c0 .18625.135.3425.31125.3425h.74625c.17625 0 .31125-.15625.31125-.3425m-1.36875-2.7575h-1.03625v-1.12c0-.45625.135-.6525.5075-.6525.37375 0 .52875.19625.52875.67375z"/><path d="m307.24364 526.26298v-.59125c0-.17625-.145-.31-.32125-.31h-1.245v-4.4375c0-.17625-.135-.32125-.31125-.32125h-.7675c-.17625 0-.31.145-.31.32125v5.32875c0 .17625.13375.32125.31.32125h2.32375c.17625 0 .32125-.135.32125-.31125"/></g></g></svg>