<svg width="473.84pt" height="275.87pt" version="1.1" viewBox="0 0 473.84 275.87" xmlns="http://www.w3.org/2000/svg">
 <g transform="translate(-109.17 -76.167)" fill="#fff">
  <path d="m289.5 76.81c8.9-2.34 19.63 1.81 22.93 10.78 1.94 5.92 1.52 12.3 1.49 18.44-0.15 5.36-0.63 11.32-4.53 15.41-7.53 8.82-22.98 8.4-30.17-0.64-3.52-4.43-3.77-10.35-4-15.76-0.06-5.78-0.19-11.7 1.52-17.29 2.01-5.5 7.07-9.71 12.76-10.94m2.75 11.23c-4.3 1.7-4.15 7.11-4.26 10.96 0.22 4.87-0.72 10.14 1.49 14.67 2.53 4.43 10.01 3.2 11.08-1.78 1.04-6.07 0.72-12.33 0.28-18.45-0.16-4.13-4.79-7.09-8.59-5.4z"/>
  <path d="m109.23 76.74c6.93 0.02 13.87-0.06 20.81 0.01 3.79 0.02 7.56 1.21 10.57 3.54 6.31 4.9 7.98 14.98 3.23 21.48-1.37 1.98-3.44 3.27-5.31 4.72l10.81 20.84h-14.75l-8.92-18.82-3.87 0.04 0.02 18.78h-12.58l-0.01-50.59m12.58 11.204-0.05 10.059h4.4685c1.2196 0 2.4551-0.02643 3.6315-0.15325 3.38-0.51 5.36-4.89 3.1-7.63-1.5525-2.0046-3.9045-2.2757-6.3283-2.2757z"/>
  <path d="m170.27 76.71 9.77-0.02 18.36 50.56-13.33 0.04-2.3-7.43-15.02-0.11-2.64 7.52-13.33-0.02 18.49-50.54m5.02 19.97-4.11 12.51 8.17 0.01z"/>
  <path d="m205.08 76.72c6.97 0.12 13.94-0.15 20.9 0.11 5.72 0.22 11.29 3.28 14.12 8.32 3.59 5.97 2.21 13.19 2.51 19.79 0.12 5.65-0.15 12.07-4.29 16.41-3.29 3.86-8.38 5.85-13.39 5.9-6.61 0.07-13.22-0.05-19.82 0.04l-0.03-50.57m12.42 11.29 0.01 27.95c3.63-0.14 8.47 1.06 10.94-2.42 2.25-3.75 1.29-8.39 1.56-12.54-0.26-3.83 0.66-8.56-2.52-11.43-2.76-2.37-6.68-1.36-9.99-1.56z"/>
  <path d="m252.73 76.76 12.53-0.04 0.04 50.51-12.53 0.07z"/>
  <path d="m109.22 170.05h45.33l-0.04 140.41 46.98 0.06-0.05 41.52-92.27-0.06z"/>
  <path d="m243.18 170.06 45.34 0.03 0.02 181.87-45.36 0.03z"/>
  <path d="m322.96 169.91 46.23 0.07 40.64 181.99-46.43 0.03z"/>
  <path d="m403.19 170.3h46.86l-0.03 41.9-18.36 63.36-13.98-63.36h-14.41z"/>
  <path d="m490.49 169.98 92.5 0.07-0.02 41.48-47.15-0.03-0.01 28.69 40.45 0.01-0.06 41.62h-40.39l0.01 28.67 47.12-0.06 0.07 41.57-92.51-0.01z"/>
 </g>
</svg>
