<svg height="6.635764mm" viewBox="0 0 61.110524 23.512548" width="17.246748mm" xmlns="http://www.w3.org/2000/svg"><g transform="translate(-329.44474 -472.03345)"><path d="m345.07264 486.48035v-5.34c0-.17625-.135-.32125-.31125-.32125h-.6325c-.17625 0-.31125.145-.31125.32125v3.2875l-1.0675-3.2875c-.0525-.16625-.135-.32125-.32125-.32125h-1.08875c-.1775 0-.31125.145-.31125.32125v5.33c0 .17625.13375.32125.31125.32125h.62125c.17625 0 .32125-.135.32125-.31125v-3.49375-.0312l1.11 3.515c.0525.165.145.32125.32125.32125h1.0375c.17625 0 .32125-.135.32125-.31125"/><path d="m349.62426 486.46985v-.58c0-.17625-.145-.31125-.32125-.31125h-1.57625v-1.265h1.23375c.17625 0 .32125-.145.32125-.3225v-.55875c0-.17625-.145-.31125-.32125-.31125h-1.23375v-1.13h1.4925c.17625 0 .3225-.145.3225-.32125v-.55c0-.17625-.14625-.31125-.3225-.31125h-2.57125c-.17625 0-.31125.145-.31125.32125v5.34c0 .17625.135.32125.31125.32125h2.655c.17625 0 .32125-.145.32125-.32125"/><path d="m356.46601 481.1301c.0312-.17625 0-.31125-.17625-.31125h-.85c-.17625 0-.28.145-.30125.32125l-.45625 3.80625-.56-3.80625c-.02-.17625-.12375-.32125-.3-.32125h-.94375c-.17625 0-.30125.145-.3225.32125l-.53875 3.76375-.4775-3.76375c-.02-.17625-.13375-.32125-.31-.32125h-.84c-.17625 0-.1975.145-.16625.32125l.9225 5.33c.0312.17625.125.32125.30125.32125h1.02625c.17625 0 .28-.145.31125-.32125l.56-3.7225.59125 3.7225c.0312.17625.145.32125.32125.32125h1.01625c.17625 0 .27-.145.30125-.32125z"/><path d="m362.39639 486.48035v-.58c0-.17625-.145-.31125-.32125-.31125h-1.56625l1.77375-3.47375c.0312-.0725.0825-.135.0825-.2175v-.7675c0-.17625-.135-.32125-.31125-.32125h-2.685c-.17625 0-.32125.135-.32125.31125v.59c0 .17625.145.31125.32125.31125h1.38875l-1.7625 3.47375c-.0312.0725-.0825.135-.0825.2175v.7575c0 .17625.135.32125.31125.32125h2.85125c.17625 0 .32125-.135.32125-.31125"/><path d="m366.63714 486.46985v-.58c0-.17625-.145-.31125-.32125-.31125h-1.57625v-1.265h1.23375c.17625 0 .32125-.145.32125-.3225v-.55875c0-.17625-.145-.31125-.32125-.31125h-1.23375v-1.13h1.4925c.1775 0 .3225-.145.3225-.32125v-.55c0-.17625-.145-.31125-.3225-.31125h-2.57125c-.17625 0-.31125.145-.31125.32125v5.34c0 .17625.135.32125.31125.32125h2.655c.17625 0 .32125-.145.32125-.32125"/><path d="m371.41551 486.44923v-3.95c0-1.3275-.67375-1.77375-1.92875-1.77375-1.21375 0-1.86625.4875-1.86625 1.77375v3.95c0 .18625.135.3425.31125.3425h.76625c.17625 0 .31125-.15625.31125-.3425v-1.64875h1.0375v1.64875c0 .18625.135.3425.31125.3425h.74625c.17625 0 .31125-.15625.31125-.3425m-1.36875-2.7575h-1.0375v-1.12c0-.45625.135-.65375.50875-.65375.3725 0 .52875.1975.52875.67375z"/><path d="m375.57264 486.48035v-.59125c0-.17625-.145-.31125-.32125-.31125h-1.245v-4.4375c0-.17625-.135-.32125-.31125-.32125h-.7675c-.17625 0-.31125.145-.31125.32125v5.33c0 .17625.135.32125.31125.32125h2.32375c.17625 0 .32125-.135.32125-.31125"/><path d="m380.16701 486.44923v-3.95c0-1.3275-.67375-1.77375-1.92875-1.77375-1.21375 0-1.86625.4875-1.86625 1.77375v3.95c0 .18625.135.3425.31125.3425h.7675c.175 0 .31-.15625.31-.3425v-1.64875h1.0375v1.64875c0 .18625.135.3425.31125.3425h.74625c.17625 0 .31125-.15625.31125-.3425m-1.36875-2.7575h-1.0375v-1.12c0-.45625.135-.65375.50875-.65375.3725 0 .52875.1975.52875.67375z"/><path d="m385.44376 486.48035v-5.34c0-.17625-.135-.32125-.31125-.32125h-.6325c-.17625 0-.31125.145-.31125.32125v3.2875l-1.0675-3.2875c-.0525-.16625-.135-.32125-.32125-.32125h-1.08875c-.1775 0-.31125.145-.31125.32125v5.33c0 .17625.13375.32125.31125.32125h.62125c.1775 0 .32125-.135.32125-.31125v-3.49375-.0312l1.11 3.515c.0525.165.145.32125.32125.32125h1.0375c.17625 0 .32125-.135.32125-.31125"/><path d="m390.55526 484.1121v-.69625c0-1.84-.4875-2.6075-1.95-2.6075h-1.59625c-.17625 0-.31125.145-.31125.32125v5.34c0 .17625.135.32125.31125.32125h1.535c1.545 0 2.01125-.7775 2.01125-2.67875m-1.41.47875c0 .7375-.145 1.05-.705 1.05h-.3325v-3.7125h.32125c.52875 0 .71625.3125.71625 1.00875z"/><path d="m344.93864 478.13435-.85-2.22875c.445-.27.6425-.7675.6425-1.55v-.115c0-1.1875-.53875-1.7675-1.69-1.7675h-1.70125c-.17625 0-.31125.145-.31125.32125v5.34c0 .17625.135.32125.31125.32125h.7675c.17625 0 .31125-.145.31125-.32125v-1.99125h.44625l.68375 1.99125c.0625.17625.1975.32125.37375.32125h.7575c.17625 0 .32125-.145.25875-.32125m-1.58625-3.7375c0 .47-.15625.6275-.59125.6275h-.3425v-1.43125h.3625c.42625 0 .57125.125.57125.5325z"/><path d="m349.55139 478.11373v-3.95c0-1.3275-.67375-1.77375-1.92875-1.77375-1.21375 0-1.86625.4875-1.86625 1.77375v3.95c0 .18625.135.3425.31125.3425h.76625c.17625 0 .31125-.15625.31125-.3425v-1.64875h1.0375v1.64875c0 .18625.135.3425.31125.3425h.74625c.17625 0 .31125-.15625.31125-.3425m-1.36875-2.7575h-1.0375v-1.12c0-.45625.135-.65375.50875-.65375.3725 0 .52875.1975.52875.67375z"/><path d="m354.61026 475.77648v-.69625c0-1.84-.4875-2.6075-1.95-2.6075h-1.59625c-.17625 0-.31125.145-.31125.32125v5.34c0 .17625.135.32125.31125.32125h1.535c1.545 0 2.01125-.7775 2.01125-2.67875m-1.41.47875c0 .7375-.145 1.05-.705 1.05h-.3325v-3.7125h.32125c.52875 0 .71625.3125.71625 1.00875z"/><path d="m357.01551 478.14485v-5.34c0-.17625-.135-.32125-.31125-.32125h-.7775c-.17625 0-.31125.145-.31125.32125v5.33c0 .17625.135.32125.31125.32125h.7675c.17625 0 .32125-.135.32125-.31125"/><path d="m362.03339 476.28885v-1.6275c0-1.56625-.58125-2.27125-2.0225-2.27125-1.43125 0-2.01125.705-2.01125 2.27125v1.6275c0 1.565.58 2.27 2.0325 2.27 1.42 0 2.00125-.705 2.00125-2.27m-1.45125.32125c0 .4975-.16625.7875-.56.7875-.395 0-.58125-.29-.58125-.7875v-2.28125c0-.4975.18625-.7775.58125-.7775.39375 0 .56.28.56.7775z"/><path d="m335.04251 483.08135c.105-.16.17375-.38125.17125-.68625-.006-.88375-.6075-1.65125-1.975-1.57375-.7775.0437-2.175.83-2.15875 2.6025.015 1.78625 1.4 3.15125 3.11625 3.23 2.02125.0925 3.51625-1.54125 4.01625-2.8275 0 0 .36125-.895.18125.31-.23125 1.54875-1.59875 3.72875-4.32125 3.89-2.73125.16125-4.77-2.325-4.62-4.82375.17125-2.825 2.5225-4.0825 4.3825-3.85875 1.7525.2125 2.9825 1.64 2.8225 3.355-.15875 1.69875-1.68 2.6575-2.96125 2.17125-1.3375-.50875-1.21-2.155-.415-2.65625.58125-.365 1.6925-.18875 1.61125.8075l-.002.0238c-.0263.17875.0537.1675.1525.0362m-4.12 8.7675c2.08625 1.1375 4.12 1.0375 5.925.0525l.0288-.015.0138-.007.0125-.006c.0975-.045.2-.0537.004.20125-1.24875 1.4625-3.32 1.86125-4.985.84625-.37625-.23-.705-.515-.98-.84l-.0263-.0338c-.20875-.26125-.0875-.24875.007-.1975m5.78125-16.28375c-2.07625-1.155-4.11125-1.0725-5.925-.10375l-.0288.015-.0137.006-.0125.007c-.0975.0437-.2.0512-.001-.20125 1.26-1.4525 3.33625-1.8325 4.99125-.80375.375.23375.7.52125.9725.84875l.0263.0337c.2075.26375.0863.25-.009.1975m-1.12-2.61125c-1.2525-.64-2.47875-.59375-3.5725-.0575l-.0175.007-.0163.007c-.0587.025-.12125.0288-.001-.11125.76-.8025 2.0125-1.01375 3.01-.44375.22625.12875.4225.28875.5875.47l.015.0175c.125.14625.0525.13875-.005.11m.4625 4.17375c.80875.54125 1.4 1.30375 1.75 2.16125.17.44625-.001.3475-.2125.1125-.32125-.35625-.68375-.67375-1.09-.94625-2.1225-1.42-4.8025-1.165-6.61625.44l-.0112.009c-.245.21875-.43.2975-.17375-.18625l.035-.0638c.0188-.0337.0387-.0662.0575-.0975 1.33875-2.20625 4.14125-2.84625 6.26125-1.42875m-4.01125 17.535c1.3875.61375 2.71625.50625 3.88-.11125l.0175-.01.0175-.009c.0625-.0275.13-.0363.006.1175-.78875.88375-2.1375 1.16625-3.2475.61375-.25125-.125-.47125-.28375-.6575-.4675l-.0175-.0175c-.1425-.14875-.0625-.14375.001-.11625m-.61375-4.4325c-.835-.5325-1.45-1.2875-1.815-2.1425-.1775-.445-.001-.3475.21875-.115.33125.35375.70625.6675 1.1275.935 2.1925 1.395 4.9475 1.11 6.80375-.515l.0113-.009c.25-.22125.44-.3025.17875.18375l-.035.065c-.0188.0325-.0388.0662-.0588.0987-1.3625 2.22125-4.24125 2.8925-6.43125 1.49875"/><g fill="#46b5d6"><path d="m349.13714 492.97873v-1.6275c0-1.565-.58-2.27-2.02125-2.27-1.43125 0-2.0125.705-2.0125 2.27v1.6275c0 1.565.58125 2.27 2.0325 2.27 1.42125 0 2.00125-.705 2.00125-2.27m-1.45125.32125c0 .4975-.16625.7875-.56.7875s-.58125-.29-.58125-.7875v-2.28c0-.49875.1875-.77875.58125-.77875s.56.28.56.77875z"/><path d="m354.40276 494.83435v-5.33875c0-.17625-.135-.32125-.31125-.32125h-.6325c-.17625 0-.31125.145-.31125.32125v3.28625l-1.0675-3.28625c-.0525-.16625-.135-.32125-.32125-.32125h-1.08875c-.17625 0-.31125.145-.31125.32125v5.32875c0 .17625.135.32125.31125.32125h.6225c.17625 0 .32125-.135.32125-.31125v-3.49375-.0312l1.10875 3.515c.0525.165.145.32125.32125.32125h1.0375c.17625 0 .32125-.135.32125-.31125"/><path d="m363.01889 494.82398v-.58c0-.17625-.145-.31125-.32125-.31125h-1.57625v-1.265h1.23375c.17625 0 .32125-.145.32125-.32125v-.56c0-.17625-.145-.31125-.32125-.31125h-1.23375v-1.13h1.4925c.1775 0 .3225-.145.3225-.32125v-.55c0-.175-.145-.31-.3225-.31h-2.57125c-.175 0-.31.145-.31.32125v5.33875c0 .17625.135.32125.31.32125h2.655c.17625 0 .32125-.145.32125-.32125"/><path d="m368.00389 494.82398-.85-2.22875c.445-.27.6425-.7675.6425-1.55v-.115c0-1.18625-.53875-1.76625-1.69-1.76625h-1.7c-.17625 0-.31125.145-.31125.32125v5.33875c0 .17625.135.32125.31125.32125h.7675c.17625 0 .31-.145.31-.32125v-1.99h.44625l.68375 1.99c.0625.17625.1975.32125.37375.32125h.7575c.175 0 .32125-.145.25875-.32125m-1.58625-3.73625c0 .47-.15625.62625-.59125.62625h-.3425v-1.43h.36375c.425 0 .57.125.57.53125z"/><path d="m372.22464 490.0446v-.54875c0-.1875-.145-.31125-.32125-.31125l-3.06875-.0112c-.17625 0-.32125.135-.32125.31125v.56c0 .17625.145.31125.32125.31125h.84v4.4675c0 .17625.13375.3225.31125.3225h.76625c.17625 0 .31125-.14625.31125-.3225v-4.4675h.84c.17625 0 .32125-.135.32125-.31125"/><path d="m344.22476 494.8341v-.3725c0-.17625-.12375-.3325-.32125-.3325h-.86125c-.36375 0-.56-.28-.56-.7175v-2.3075c0-.48875.17625-.75875.56-.75875h.86125c.1975 0 .32125-.15625.32125-.33125v-.54c0-.17625-.145-.31125-.32125-.31125h-.8825c-1.6375 0-2.01125.965-2.01125 2.45v1.03c0 1.5175.32125 2.5025 2.01125 2.5025h.8825c.17625 0 .32125-.135.32125-.31125"/><path d="m358.71589 494.8341v-.3725c0-.17625-.12375-.3325-.32125-.3325h-.86125c-.3625 0-.56-.28-.56-.7175v-2.3075c0-.48875.17625-.75875.56-.75875h.86125c.1975 0 .32125-.15625.32125-.33125v-.54c0-.17625-.145-.31125-.32125-.31125h-.8825c-1.6375 0-2.01125.965-2.01125 2.45v1.03c0 1.5175.32125 2.5025 2.01125 2.5025h.8825c.17625 0 .32125-.135.32125-.31125"/></g></g></svg>