<?xml version="1.0" encoding="UTF-8"?>
<!-- Created with Inkscape (http://www.inkscape.org/) -->
<svg id="svg6036" width="17.247mm" height="6.6358mm" version="1.1" viewBox="0 0 61.111 23.513" xmlns="http://www.w3.org/2000/svg" xmlns:cc="http://creativecommons.org/ns#" xmlns:dc="http://purl.org/dc/elements/1.1/" xmlns:rdf="http://www.w3.org/1999/02/22-rdf-syntax-ns#">
 <metadata id="metadata6041">
  <rdf:RDF>
   <cc:Work rdf:about="">
    <dc:format>image/svg+xml</dc:format>
    <dc:type rdf:resource="http://purl.org/dc/dcmitype/StillImage"/>
    <dc:title/>
   </cc:Work>
  </rdf:RDF>
 </metadata>
 <g id="layer1" transform="translate(-329.44 -472.03)">
  <path id="path252" d="m345.07 486.48v-5.34c0-0.17625-0.135-0.32125-0.31125-0.32125h-0.6325c-0.17625 0-0.31125 0.145-0.31125 0.32125v3.2875l-1.0675-3.2875c-0.0525-0.16625-0.135-0.32125-0.32125-0.32125h-1.0888c-0.1775 0-0.31125 0.145-0.31125 0.32125v5.33c0 0.17625 0.13375 0.32125 0.31125 0.32125h0.62125c0.17625 0 0.32125-0.135 0.32125-0.31125v-3.4938-0.0312l1.11 3.515c0.0525 0.165 0.145 0.32125 0.32125 0.32125h1.0375c0.17625 0 0.32125-0.135 0.32125-0.31125" fill="#fff"/>
  <path id="path256" d="m349.62 486.47v-0.58c0-0.17625-0.145-0.31125-0.32125-0.31125h-1.5762v-1.265h1.2338c0.17625 0 0.32125-0.145 0.32125-0.3225v-0.55875c0-0.17625-0.145-0.31125-0.32125-0.31125h-1.2338v-1.13h1.4925c0.17625 0 0.3225-0.145 0.3225-0.32125v-0.55c0-0.17625-0.14625-0.31125-0.3225-0.31125h-2.5712c-0.17625 0-0.31125 0.145-0.31125 0.32125v5.34c0 0.17625 0.135 0.32125 0.31125 0.32125h2.655c0.17625 0 0.32125-0.145 0.32125-0.32125" fill="#fff"/>
  <path id="path260" d="m356.47 481.13c0.0312-0.17625 0-0.31125-0.17625-0.31125h-0.85c-0.17625 0-0.28 0.145-0.30125 0.32125l-0.45625 3.8062-0.56-3.8062c-0.02-0.17625-0.12375-0.32125-0.3-0.32125h-0.94375c-0.17625 0-0.30125 0.145-0.3225 0.32125l-0.53875 3.7638-0.4775-3.7638c-0.02-0.17625-0.13375-0.32125-0.31-0.32125h-0.84c-0.17625 0-0.1975 0.145-0.16625 0.32125l0.9225 5.33c0.0312 0.17625 0.125 0.32125 0.30125 0.32125h1.0262c0.17625 0 0.28-0.145 0.31125-0.32125l0.56-3.7225 0.59125 3.7225c0.0312 0.17625 0.145 0.32125 0.32125 0.32125h1.0162c0.17625 0 0.27-0.145 0.30125-0.32125l0.89125-5.34z" fill="#fff"/>
  <path id="path264" d="m362.4 486.48v-0.58c0-0.17625-0.145-0.31125-0.32125-0.31125h-1.5662l1.7738-3.4738c0.0312-0.0725 0.0825-0.135 0.0825-0.2175v-0.7675c0-0.17625-0.135-0.32125-0.31125-0.32125h-2.685c-0.17625 0-0.32125 0.135-0.32125 0.31125v0.59c0 0.17625 0.145 0.31125 0.32125 0.31125h1.3888l-1.7625 3.4738c-0.0312 0.0725-0.0825 0.135-0.0825 0.2175v0.7575c0 0.17625 0.135 0.32125 0.31125 0.32125h2.8512c0.17625 0 0.32125-0.135 0.32125-0.31125" fill="#fff"/>
  <path id="path268" d="m366.64 486.47v-0.58c0-0.17625-0.145-0.31125-0.32125-0.31125h-1.5762v-1.265h1.2338c0.17625 0 0.32125-0.145 0.32125-0.3225v-0.55875c0-0.17625-0.145-0.31125-0.32125-0.31125h-1.2338v-1.13h1.4925c0.1775 0 0.3225-0.145 0.3225-0.32125v-0.55c0-0.17625-0.145-0.31125-0.3225-0.31125h-2.5712c-0.17625 0-0.31125 0.145-0.31125 0.32125v5.34c0 0.17625 0.135 0.32125 0.31125 0.32125h2.655c0.17625 0 0.32125-0.145 0.32125-0.32125" fill="#fff"/>
  <path id="path272" d="m371.42 486.45v-3.95c0-1.3275-0.67375-1.7738-1.9288-1.7738-1.2138 0-1.8662 0.4875-1.8662 1.7738v3.95c0 0.18625 0.135 0.3425 0.31125 0.3425h0.76625c0.17625 0 0.31125-0.15625 0.31125-0.3425v-1.6488h1.0375v1.6488c0 0.18625 0.135 0.3425 0.31125 0.3425h0.74625c0.17625 0 0.31125-0.15625 0.31125-0.3425m-1.3688-2.7575h-1.0375v-1.12c0-0.45625 0.135-0.65375 0.50875-0.65375 0.3725 0 0.52875 0.1975 0.52875 0.67375v1.1z" fill="#fff"/>
  <path id="path276" d="m375.57 486.48v-0.59125c0-0.17625-0.145-0.31125-0.32125-0.31125h-1.245v-4.4375c0-0.17625-0.135-0.32125-0.31125-0.32125h-0.7675c-0.17625 0-0.31125 0.145-0.31125 0.32125v5.33c0 0.17625 0.135 0.32125 0.31125 0.32125h2.3238c0.17625 0 0.32125-0.135 0.32125-0.31125" fill="#fff"/>
  <path id="path280" d="m380.17 486.45v-3.95c0-1.3275-0.67375-1.7738-1.9288-1.7738-1.2138 0-1.8662 0.4875-1.8662 1.7738v3.95c0 0.18625 0.135 0.3425 0.31125 0.3425h0.7675c0.175 0 0.31-0.15625 0.31-0.3425v-1.6488h1.0375v1.6488c0 0.18625 0.135 0.3425 0.31125 0.3425h0.74625c0.17625 0 0.31125-0.15625 0.31125-0.3425m-1.3688-2.7575h-1.0375v-1.12c0-0.45625 0.135-0.65375 0.50875-0.65375 0.3725 0 0.52875 0.1975 0.52875 0.67375v1.1z" fill="#fff"/>
  <path id="path284" d="m385.44 486.48v-5.34c0-0.17625-0.135-0.32125-0.31125-0.32125h-0.6325c-0.17625 0-0.31125 0.145-0.31125 0.32125v3.2875l-1.0675-3.2875c-0.0525-0.16625-0.135-0.32125-0.32125-0.32125h-1.0888c-0.1775 0-0.31125 0.145-0.31125 0.32125v5.33c0 0.17625 0.13375 0.32125 0.31125 0.32125h0.62125c0.1775 0 0.32125-0.135 0.32125-0.31125v-3.4938-0.0312l1.11 3.515c0.0525 0.165 0.145 0.32125 0.32125 0.32125h1.0375c0.17625 0 0.32125-0.135 0.32125-0.31125" fill="#fff"/>
  <path id="path288" d="m390.56 484.11v-0.69625c0-1.84-0.4875-2.6075-1.95-2.6075h-1.5962c-0.17625 0-0.31125 0.145-0.31125 0.32125v5.34c0 0.17625 0.135 0.32125 0.31125 0.32125h1.535c1.545 0 2.0112-0.7775 2.0112-2.6788m-1.41 0.47875c0 0.7375-0.145 1.05-0.705 1.05h-0.3325v-3.7125h0.32125c0.52875 0 0.71625 0.3125 0.71625 1.0088v1.6538z" fill="#fff"/>
  <path id="path292" d="m344.94 478.13-0.85-2.2288c0.445-0.27 0.6425-0.7675 0.6425-1.55v-0.115c0-1.1875-0.53875-1.7675-1.69-1.7675h-1.7012c-0.17625 0-0.31125 0.145-0.31125 0.32125v5.34c0 0.17625 0.135 0.32125 0.31125 0.32125h0.7675c0.17625 0 0.31125-0.145 0.31125-0.32125v-1.9912h0.44625l0.68375 1.9912c0.0625 0.17625 0.1975 0.32125 0.37375 0.32125h0.7575c0.17625 0 0.32125-0.145 0.25875-0.32125m-1.5862-3.7375c0 0.47-0.15625 0.6275-0.59125 0.6275h-0.3425v-1.4312h0.3625c0.42625 0 0.57125 0.125 0.57125 0.5325v0.27125z" fill="#fff"/>
  <path id="path296" d="m349.55 478.11v-3.95c0-1.3275-0.67375-1.7738-1.9288-1.7738-1.2138 0-1.8662 0.4875-1.8662 1.7738v3.95c0 0.18625 0.135 0.3425 0.31125 0.3425h0.76625c0.17625 0 0.31125-0.15625 0.31125-0.3425v-1.6488h1.0375v1.6488c0 0.18625 0.135 0.3425 0.31125 0.3425h0.74625c0.17625 0 0.31125-0.15625 0.31125-0.3425m-1.3688-2.7575h-1.0375v-1.12c0-0.45625 0.135-0.65375 0.50875-0.65375 0.3725 0 0.52875 0.1975 0.52875 0.67375v1.1z" fill="#fff"/>
  <path id="path300" d="m354.61 475.78v-0.69625c0-1.84-0.4875-2.6075-1.95-2.6075h-1.5962c-0.17625 0-0.31125 0.145-0.31125 0.32125v5.34c0 0.17625 0.135 0.32125 0.31125 0.32125h1.535c1.545 0 2.0112-0.7775 2.0112-2.6788m-1.41 0.47875c0 0.7375-0.145 1.05-0.705 1.05h-0.3325v-3.7125h0.32125c0.52875 0 0.71625 0.3125 0.71625 1.0088v1.6538z" fill="#fff"/>
  <path id="path304" d="m357.02 478.14v-5.34c0-0.17625-0.135-0.32125-0.31125-0.32125h-0.7775c-0.17625 0-0.31125 0.145-0.31125 0.32125v5.33c0 0.17625 0.135 0.32125 0.31125 0.32125h0.7675c0.17625 0 0.32125-0.135 0.32125-0.31125" fill="#fff"/>
  <path id="path308" d="m362.03 476.29v-1.6275c0-1.5662-0.58125-2.2712-2.0225-2.2712-1.4312 0-2.0112 0.705-2.0112 2.2712v1.6275c0 1.565 0.58 2.27 2.0325 2.27 1.42 0 2.0012-0.705 2.0012-2.27m-1.4512 0.32125c0 0.4975-0.16625 0.7875-0.56 0.7875-0.395 0-0.58125-0.29-0.58125-0.7875v-2.2812c0-0.4975 0.18625-0.7775 0.58125-0.7775 0.39375 0 0.56 0.28 0.56 0.7775v2.2812z" fill="#fff"/>
  <path id="path312" d="m335.04 483.08c0.105-0.16 0.17375-0.38125 0.17125-0.68625-6e-3 -0.88375-0.6075-1.6512-1.975-1.5738-0.7775 0.0437-2.175 0.83-2.1588 2.6025 0.015 1.7862 1.4 3.1512 3.1162 3.23 2.0212 0.0925 3.5162-1.5412 4.0162-2.8275 0 0 0.36125-0.895 0.18125 0.31-0.23125 1.5488-1.5988 3.7288-4.3212 3.89-2.7312 0.16125-4.77-2.325-4.62-4.8238 0.17125-2.825 2.5225-4.0825 4.3825-3.8588 1.7525 0.2125 2.9825 1.64 2.8225 3.355-0.15875 1.6988-1.68 2.6575-2.9612 2.1712-1.3375-0.50875-1.21-2.155-0.415-2.6562 0.58125-0.365 1.6925-0.18875 1.6112 0.8075l-2e-3 0.0238c-0.0263 0.17875 0.0537 0.1675 0.1525 0.0362m-4.12 8.7675c2.0862 1.1375 4.12 1.0375 5.925 0.0525l0.0288-0.015 0.0138-7e-3 0.0125-6e-3c0.0975-0.045 0.2-0.0537 4e-3 0.20125-1.2488 1.4625-3.32 1.8612-4.985 0.84625-0.37625-0.23-0.705-0.515-0.98-0.84l-0.0263-0.0338c-0.20875-0.26125-0.0875-0.24875 7e-3 -0.1975m5.7812-16.284c-2.0762-1.155-4.1112-1.0725-5.925-0.10375l-0.0288 0.015-0.0137 6e-3 -0.0125 7e-3c-0.0975 0.0437-0.2 0.0512-1e-3 -0.20125 1.26-1.4525 3.3362-1.8325 4.9912-0.80375 0.375 0.23375 0.7 0.52125 0.9725 0.84875l0.0263 0.0337c0.2075 0.26375 0.0863 0.25-9e-3 0.1975m-1.12-2.6112c-1.2525-0.64-2.4788-0.59375-3.5725-0.0575l-0.0175 7e-3 -0.0163 7e-3c-0.0587 0.025-0.12125 0.0288-1e-3 -0.11125 0.76-0.8025 2.0125-1.0138 3.01-0.44375 0.22625 0.12875 0.4225 0.28875 0.5875 0.47l0.015 0.0175c0.125 0.14625 0.0525 0.13875-5e-3 0.11m0.4625 4.1738c0.80875 0.54125 1.4 1.3038 1.75 2.1612 0.17 0.44625-1e-3 0.3475-0.2125 0.1125-0.32125-0.35625-0.68375-0.67375-1.09-0.94625-2.1225-1.42-4.8025-1.165-6.6162 0.44l-0.0112 9e-3c-0.245 0.21875-0.43 0.2975-0.17375-0.18625l0.035-0.0638c0.0188-0.0337 0.0387-0.0662 0.0575-0.0975 1.3388-2.2062 4.1412-2.8462 6.2612-1.4288m-4.0112 17.535c1.3875 0.61375 2.7162 0.50625 3.88-0.11125l0.0175-0.01 0.0175-9e-3c0.0625-0.0275 0.13-0.0363 6e-3 0.1175-0.78875 0.88375-2.1375 1.1662-3.2475 0.61375-0.25125-0.125-0.47125-0.28375-0.6575-0.4675l-0.0175-0.0175c-0.1425-0.14875-0.0625-0.14375 1e-3 -0.11625m-0.61375-4.4325c-0.835-0.5325-1.45-1.2875-1.815-2.1425-0.1775-0.445-1e-3 -0.3475 0.21875-0.115 0.33125 0.35375 0.70625 0.6675 1.1275 0.935 2.1925 1.395 4.9475 1.11 6.8038-0.515l0.0113-9e-3c0.25-0.22125 0.44-0.3025 0.17875 0.18375l-0.035 0.065c-0.0188 0.0325-0.0388 0.0662-0.0588 0.0987-1.3625 2.2212-4.2412 2.8925-6.4312 1.4988" fill="#fff"/>
  <path id="path316" d="m349.14 492.98v-1.6275c0-1.565-0.58-2.27-2.0212-2.27-1.4312 0-2.0125 0.705-2.0125 2.27v1.6275c0 1.565 0.58125 2.27 2.0325 2.27 1.4212 0 2.0012-0.705 2.0012-2.27m-1.4512 0.32125c0 0.4975-0.16625 0.7875-0.56 0.7875s-0.58125-0.29-0.58125-0.7875v-2.28c0-0.49875 0.1875-0.77875 0.58125-0.77875s0.56 0.28 0.56 0.77875v2.28z" fill="#46b5d6"/>
  <path id="path320" d="m354.4 494.83v-5.3388c0-0.17625-0.135-0.32125-0.31125-0.32125h-0.6325c-0.17625 0-0.31125 0.145-0.31125 0.32125v3.2862l-1.0675-3.2862c-0.0525-0.16625-0.135-0.32125-0.32125-0.32125h-1.0888c-0.17625 0-0.31125 0.145-0.31125 0.32125v5.3288c0 0.17625 0.135 0.32125 0.31125 0.32125h0.6225c0.17625 0 0.32125-0.135 0.32125-0.31125v-3.4938-0.0312l1.1088 3.515c0.0525 0.165 0.145 0.32125 0.32125 0.32125h1.0375c0.17625 0 0.32125-0.135 0.32125-0.31125" fill="#46b5d6"/>
  <path id="path324" d="m363.02 494.82v-0.58c0-0.17625-0.145-0.31125-0.32125-0.31125h-1.5762v-1.265h1.2338c0.17625 0 0.32125-0.145 0.32125-0.32125v-0.56c0-0.17625-0.145-0.31125-0.32125-0.31125h-1.2338v-1.13h1.4925c0.1775 0 0.3225-0.145 0.3225-0.32125v-0.55c0-0.175-0.145-0.31-0.3225-0.31h-2.5712c-0.175 0-0.31 0.145-0.31 0.32125v5.3388c0 0.17625 0.135 0.32125 0.31 0.32125h2.655c0.17625 0 0.32125-0.145 0.32125-0.32125" fill="#46b5d6"/>
  <path id="path328" d="m368 494.82-0.85-2.2288c0.445-0.27 0.6425-0.7675 0.6425-1.55v-0.115c0-1.1862-0.53875-1.7662-1.69-1.7662h-1.7c-0.17625 0-0.31125 0.145-0.31125 0.32125v5.3388c0 0.17625 0.135 0.32125 0.31125 0.32125h0.7675c0.17625 0 0.31-0.145 0.31-0.32125v-1.99h0.44625l0.68375 1.99c0.0625 0.17625 0.1975 0.32125 0.37375 0.32125h0.7575c0.175 0 0.32125-0.145 0.25875-0.32125m-1.5862-3.7362c0 0.47-0.15625 0.62625-0.59125 0.62625h-0.3425v-1.43h0.36375c0.425 0 0.57 0.125 0.57 0.53125v0.2725z" fill="#46b5d6"/>
  <path id="path332" d="m372.22 490.04v-0.54875c0-0.1875-0.145-0.31125-0.32125-0.31125l-3.0688-0.0112c-0.17625 0-0.32125 0.135-0.32125 0.31125v0.56c0 0.17625 0.145 0.31125 0.32125 0.31125h0.84v4.4675c0 0.17625 0.13375 0.3225 0.31125 0.3225h0.76625c0.17625 0 0.31125-0.14625 0.31125-0.3225v-4.4675h0.84c0.17625 0 0.32125-0.135 0.32125-0.31125" fill="#46b5d6"/>
  <path id="path336" d="m344.22 494.83v-0.3725c0-0.17625-0.12375-0.3325-0.32125-0.3325h-0.86125c-0.36375 0-0.56-0.28-0.56-0.7175v-2.3075c0-0.48875 0.17625-0.75875 0.56-0.75875h0.86125c0.1975 0 0.32125-0.15625 0.32125-0.33125v-0.54c0-0.17625-0.145-0.31125-0.32125-0.31125h-0.8825c-1.6375 0-2.0112 0.965-2.0112 2.45v1.03c0 1.5175 0.32125 2.5025 2.0112 2.5025h0.8825c0.17625 0 0.32125-0.135 0.32125-0.31125" fill="#46b5d6"/>
  <path id="path340" d="m358.72 494.83v-0.3725c0-0.17625-0.12375-0.3325-0.32125-0.3325h-0.86125c-0.3625 0-0.56-0.28-0.56-0.7175v-2.3075c0-0.48875 0.17625-0.75875 0.56-0.75875h0.86125c0.1975 0 0.32125-0.15625 0.32125-0.33125v-0.54c0-0.17625-0.145-0.31125-0.32125-0.31125h-0.8825c-1.6375 0-2.0112 0.965-2.0112 2.45v1.03c0 1.5175 0.32125 2.5025 2.0112 2.5025h0.8825c0.17625 0 0.32125-0.135 0.32125-0.31125" fill="#46b5d6"/>
 </g>
</svg>
