<?xml version="1.0" encoding="UTF-8" standalone="no"?>
<!-- Created with Inkscape (http://www.inkscape.org/) -->

<svg
   xmlns:dc="http://purl.org/dc/elements/1.1/"
   xmlns:cc="http://creativecommons.org/ns#"
   xmlns:rdf="http://www.w3.org/1999/02/22-rdf-syntax-ns#"
   xmlns:svg="http://www.w3.org/2000/svg"
   xmlns="http://www.w3.org/2000/svg"
   xmlns:sodipodi="http://sodipodi.sourceforge.net/DTD/sodipodi-0.dtd"
   xmlns:inkscape="http://www.inkscape.org/namespaces/inkscape"
   width="17.245371mm"
   height="6.6356931mm"
   viewBox="0 0 61.105645 23.512298"
   id="svg5405"
   version="1.1"
   inkscape:version="0.91 r13725"
   sodipodi:docname="Radio New Zealand National.svg">
  <defs
     id="defs5407" />
  <sodipodi:namedview
     id="base"
     pagecolor="#ffffff"
     bordercolor="#666666"
     borderopacity="1.0"
     inkscape:pageopacity="0.0"
     inkscape:pageshadow="2"
     inkscape:zoom="11.2"
     inkscape:cx="13.575525"
     inkscape:cy="-2.7507883"
     inkscape:document-units="px"
     inkscape:current-layer="layer1"
     showgrid="false"
     fit-margin-top="0"
     fit-margin-left="0"
     fit-margin-right="0"
     fit-margin-bottom="0"
     inkscape:window-width="1920"
     inkscape:window-height="1017"
     inkscape:window-x="-8"
     inkscape:window-y="-8"
     inkscape:window-maximized="1" />
  <metadata
     id="metadata5410">
    <rdf:RDF>
      <cc:Work
         rdf:about="">
        <dc:format>image/svg+xml</dc:format>
        <dc:type
           rdf:resource="http://purl.org/dc/dcmitype/StillImage" />
        <dc:title></dc:title>
      </cc:Work>
    </rdf:RDF>
  </metadata>
  <g
     inkscape:label="Layer 1"
     inkscape:groupmode="layer"
     id="layer1"
     transform="translate(-260.87575,-503.4629)">
    <path
       inkscape:connector-curvature="0"
       id="path156"
       style="fill:#ffffff;fill-opacity:1;fill-rule:nonzero;stroke:none"
       d="m 276.50177,517.90885 0,-5.34 c 0,-0.17625 -0.135,-0.32125 -0.31125,-0.32125 l -0.6325,0 c -0.17625,0 -0.31125,0.145 -0.31125,0.32125 l 0,3.2875 -1.0675,-3.2875 c -0.0525,-0.16625 -0.135,-0.32125 -0.32125,-0.32125 l -1.08875,0 c -0.17625,0 -0.31125,0.145 -0.31125,0.32125 l 0,5.33 c 0,0.17625 0.135,0.32125 0.31125,0.32125 l 0.62125,0 c 0.1775,0 0.3225,-0.135 0.3225,-0.31125 l 0,-3.49375 0,-0.0312 1.10875,3.515 c 0.0525,0.165 0.145,0.32125 0.32125,0.32125 l 1.0375,0 c 0.17625,0 0.32125,-0.135 0.32125,-0.31125" />
    <path
       inkscape:connector-curvature="0"
       id="path160"
       style="fill:#ffffff;fill-opacity:1;fill-rule:nonzero;stroke:none"
       d="m 281.05314,517.89835 0,-0.58 c 0,-0.17625 -0.145,-0.31125 -0.32125,-0.31125 l -1.57625,0 0,-1.265 1.23375,0 c 0.17625,0 0.32125,-0.145 0.32125,-0.3225 l 0,-0.55875 c 0,-0.17625 -0.145,-0.31125 -0.32125,-0.31125 l -1.23375,0 0,-1.13 1.4925,0 c 0.17625,0 0.3225,-0.14625 0.3225,-0.3225 l 0,-0.54875 c 0,-0.17625 -0.14625,-0.31125 -0.3225,-0.31125 l -2.57125,0 c -0.17625,0 -0.31125,0.145 -0.31125,0.32125 l 0,5.34 c 0,0.17625 0.135,0.32125 0.31125,0.32125 l 2.655,0 c 0.17625,0 0.32125,-0.145 0.32125,-0.32125" />
    <path
       inkscape:connector-curvature="0"
       id="path164"
       style="fill:#ffffff;fill-opacity:1;fill-rule:nonzero;stroke:none"
       d="m 287.89452,512.55848 c 0.0312,-0.17625 0,-0.31125 -0.17625,-0.31125 l -0.85,0 c -0.17625,0 -0.28,0.145 -0.30125,0.32125 l -0.45625,3.80625 -0.56,-3.80625 c -0.02,-0.17625 -0.12375,-0.32125 -0.3,-0.32125 l -0.94375,0 c -0.17625,0 -0.30125,0.145 -0.32125,0.32125 l -0.54,3.76375 -0.47625,-3.76375 c -0.0213,-0.17625 -0.135,-0.32125 -0.31125,-0.32125 l -0.84,0 c -0.17625,0 -0.1975,0.145 -0.16625,0.32125 l 0.92375,5.33 c 0.03,0.17625 0.12375,0.32125 0.3,0.32125 l 1.02625,0 c 0.17625,0 0.28,-0.145 0.31125,-0.32125 l 0.56,-3.7225 0.59125,3.7225 c 0.0312,0.17625 0.145,0.32125 0.32125,0.32125 l 1.01625,0 c 0.17625,0 0.27,-0.145 0.30125,-0.32125 l 0.89125,-5.34 z" />
    <path
       inkscape:connector-curvature="0"
       id="path168"
       style="fill:#ffffff;fill-opacity:1;fill-rule:nonzero;stroke:none"
       d="m 293.82439,517.90885 0,-0.58 c 0,-0.17625 -0.145,-0.31125 -0.32125,-0.31125 l -1.565,0 1.7725,-3.47375 c 0.0312,-0.0725 0.0825,-0.135 0.0825,-0.2175 l 0,-0.7675 c 0,-0.17625 -0.135,-0.32125 -0.31125,-0.32125 l -2.685,0 c -0.17625,0 -0.32125,0.135 -0.32125,0.31125 l 0,0.59 c 0,0.17625 0.145,0.31125 0.32125,0.31125 l 1.39,0 -1.76375,3.47375 c -0.0312,0.0725 -0.0825,0.135 -0.0825,0.2175 l 0,0.7575 c 0,0.17625 0.135,0.32125 0.31125,0.32125 l 2.85125,0 c 0.17625,0 0.32125,-0.135 0.32125,-0.31125" />
    <path
       inkscape:connector-curvature="0"
       id="path172"
       style="fill:#ffffff;fill-opacity:1;fill-rule:nonzero;stroke:none"
       d="m 298.06477,517.89835 0,-0.58 c 0,-0.17625 -0.145,-0.31125 -0.32125,-0.31125 l -1.57625,0 0,-1.265 1.23375,0 c 0.17625,0 0.32125,-0.145 0.32125,-0.3225 l 0,-0.55875 c 0,-0.17625 -0.145,-0.31125 -0.32125,-0.31125 l -1.23375,0 0,-1.13 1.4925,0 c 0.1775,0 0.3225,-0.14625 0.3225,-0.3225 l 0,-0.54875 c 0,-0.17625 -0.145,-0.31125 -0.3225,-0.31125 l -2.57125,0 c -0.17625,0 -0.31,0.145 -0.31,0.32125 l 0,5.34 c 0,0.17625 0.13375,0.32125 0.31,0.32125 l 2.655,0 c 0.17625,0 0.32125,-0.145 0.32125,-0.32125" />
    <path
       inkscape:connector-curvature="0"
       id="path176"
       style="fill:#ffffff;fill-opacity:1;fill-rule:nonzero;stroke:none"
       d="m 302.84277,517.87773 0,-3.95 c 0,-1.3275 -0.67375,-1.77375 -1.92875,-1.77375 -1.21375,0 -1.86625,0.4875 -1.86625,1.77375 l 0,3.95 c 0,0.18625 0.135,0.3425 0.31125,0.3425 l 0.7675,0 c 0.17625,0 0.31,-0.15625 0.31,-0.3425 l 0,-1.64875 1.0375,0 0,1.64875 c 0,0.18625 0.135,0.3425 0.31125,0.3425 l 0.74625,0 c 0.17625,0 0.31125,-0.15625 0.31125,-0.3425 m -1.36875,-2.7575 -1.0375,0 0,-1.12 c 0,-0.45625 0.135,-0.65375 0.50875,-0.65375 0.37375,0 0.52875,0.1975 0.52875,0.67375 l 0,1.1 z" />
    <path
       inkscape:connector-curvature="0"
       id="path180"
       style="fill:#ffffff;fill-opacity:1;fill-rule:nonzero;stroke:none"
       d="m 306.99977,517.90885 0,-0.59125 c 0,-0.17625 -0.145,-0.31125 -0.32125,-0.31125 l -1.245,0 0,-4.4375 c 0,-0.17625 -0.135,-0.32125 -0.31125,-0.32125 l -0.7675,0 c -0.17625,0 -0.31,0.145 -0.31,0.32125 l 0,5.33 c 0,0.17625 0.13375,0.32125 0.31,0.32125 l 2.32375,0 c 0.17625,0 0.32125,-0.135 0.32125,-0.31125" />
    <path
       inkscape:connector-curvature="0"
       id="path184"
       style="fill:#ffffff;fill-opacity:1;fill-rule:nonzero;stroke:none"
       d="m 311.59377,517.87773 0,-3.95 c 0,-1.3275 -0.67375,-1.77375 -1.92875,-1.77375 -1.21375,0 -1.86625,0.4875 -1.86625,1.77375 l 0,3.95 c 0,0.18625 0.135,0.3425 0.31125,0.3425 l 0.7675,0 c 0.17625,0 0.31,-0.15625 0.31,-0.3425 l 0,-1.64875 1.0375,0 0,1.64875 c 0,0.18625 0.135,0.3425 0.31125,0.3425 l 0.74625,0 c 0.17625,0 0.31125,-0.15625 0.31125,-0.3425 m -1.36875,-2.7575 -1.0375,0 0,-1.12 c 0,-0.45625 0.135,-0.65375 0.50875,-0.65375 0.3725,0 0.52875,0.1975 0.52875,0.67375 l 0,1.1 z" />
    <path
       inkscape:connector-curvature="0"
       id="path188"
       style="fill:#ffffff;fill-opacity:1;fill-rule:nonzero;stroke:none"
       d="m 316.87014,517.90885 0,-5.34 c 0,-0.17625 -0.135,-0.32125 -0.31125,-0.32125 l -0.6325,0 c -0.17625,0 -0.31125,0.145 -0.31125,0.32125 l 0,3.2875 -1.0675,-3.2875 c -0.0525,-0.16625 -0.135,-0.32125 -0.32125,-0.32125 l -1.08875,0 c -0.17625,0 -0.31125,0.145 -0.31125,0.32125 l 0,5.33 c 0,0.17625 0.135,0.32125 0.31125,0.32125 l 0.6225,0 c 0.17625,0 0.32125,-0.135 0.32125,-0.31125 l 0,-3.49375 0,-0.0312 1.10875,3.515 c 0.0525,0.165 0.145,0.32125 0.32125,0.32125 l 1.0375,0 c 0.17625,0 0.32125,-0.135 0.32125,-0.31125" />
    <path
       inkscape:connector-curvature="0"
       id="path192"
       style="fill:#ffffff;fill-opacity:1;fill-rule:nonzero;stroke:none"
       d="m 321.98139,515.5406 0,-0.69625 c 0,-1.84 -0.4875,-2.6075 -1.95,-2.6075 l -1.59625,0 c -0.17625,0 -0.31125,0.145 -0.31125,0.32125 l 0,5.34 c 0,0.17625 0.135,0.32125 0.31125,0.32125 l 1.535,0 c 1.545,0 2.01125,-0.7775 2.01125,-2.67875 m -1.41,0.47875 c 0,0.7375 -0.145,1.05 -0.705,1.05 l -0.3325,0 0,-3.7125 0.32125,0 c 0.53,0 0.71625,0.3125 0.71625,1.00875 l 0,1.65375 z" />
    <path
       inkscape:connector-curvature="0"
       id="path196"
       style="fill:#ffffff;fill-opacity:1;fill-rule:nonzero;stroke:none"
       d="m 276.36789,509.56285 -0.85,-2.22875 c 0.445,-0.27 0.6425,-0.7675 0.6425,-1.55 l 0,-0.115 c 0,-1.18625 -0.53875,-1.7675 -1.69,-1.7675 l -1.7,0 c -0.1775,0 -0.31125,0.145 -0.31125,0.32125 l 0,5.34 c 0,0.17625 0.13375,0.32125 0.31125,0.32125 l 0.76625,0 c 0.17625,0 0.31125,-0.145 0.31125,-0.32125 l 0,-1.99125 0.44625,0 0.68375,1.99125 c 0.0625,0.17625 0.1975,0.32125 0.37375,0.32125 l 0.7575,0 c 0.17625,0 0.32125,-0.145 0.25875,-0.32125 m -1.58625,-3.7375 c 0,0.47 -0.15625,0.6275 -0.59125,0.6275 l -0.3425,0 0,-1.43125 0.36375,0 c 0.425,0 0.57,0.125 0.57,0.5325 l 0,0.27125 z" />
    <path
       inkscape:connector-curvature="0"
       id="path200"
       style="fill:#ffffff;fill-opacity:1;fill-rule:nonzero;stroke:none"
       d="m 280.98027,509.5421 0,-3.95 c 0,-1.3275 -0.67375,-1.77375 -1.92875,-1.77375 -1.21375,0 -1.86625,0.4875 -1.86625,1.77375 l 0,3.95 c 0,0.18625 0.135,0.3425 0.31125,0.3425 l 0.76625,0 c 0.1775,0 0.31125,-0.15625 0.31125,-0.3425 l 0,-1.64875 1.0375,0 0,1.64875 c 0,0.18625 0.135,0.3425 0.31125,0.3425 l 0.74625,0 c 0.17625,0 0.31125,-0.15625 0.31125,-0.3425 m -1.36875,-2.7575 -1.0375,0 0,-1.12 c 0,-0.45625 0.135,-0.65375 0.50875,-0.65375 0.37375,0 0.52875,0.1975 0.52875,0.67375 l 0,1.1 z" />
    <path
       inkscape:connector-curvature="0"
       id="path204"
       style="fill:#ffffff;fill-opacity:1;fill-rule:nonzero;stroke:none"
       d="m 286.03889,507.20485 0,-0.69625 c 0,-1.84 -0.4875,-2.6075 -1.95,-2.6075 l -1.59625,0 c -0.17625,0 -0.31125,0.145 -0.31125,0.32125 l 0,5.34 c 0,0.17625 0.135,0.32125 0.31125,0.32125 l 1.535,0 c 1.545,0 2.01125,-0.7775 2.01125,-2.67875 m -1.41,0.47875 c 0,0.7375 -0.145,1.05 -0.705,1.05 l -0.3325,0 0,-3.7125 0.32125,0 c 0.52875,0 0.71625,0.3125 0.71625,1.00875 l 0,1.65375 z" />
    <path
       inkscape:connector-curvature="0"
       id="path208"
       style="fill:#ffffff;fill-opacity:1;fill-rule:nonzero;stroke:none"
       d="m 288.44377,509.57323 0,-5.34 c 0,-0.17625 -0.135,-0.32125 -0.31125,-0.32125 l -0.7775,0 c -0.17625,0 -0.31125,0.145 -0.31125,0.32125 l 0,5.33 c 0,0.17625 0.135,0.32125 0.31125,0.32125 l 0.7675,0 c 0.17625,0 0.32125,-0.135 0.32125,-0.31125" />
    <path
       inkscape:connector-curvature="0"
       id="path212"
       style="fill:#ffffff;fill-opacity:1;fill-rule:nonzero;stroke:none"
       d="m 293.46139,507.71723 0,-1.6275 c 0,-1.56625 -0.58,-2.27125 -2.0225,-2.27125 -1.43,0 -2.01125,0.705 -2.01125,2.27125 l 0,1.6275 c 0,1.56625 0.58125,2.27125 2.0325,2.27125 1.42125,0 2.00125,-0.705 2.00125,-2.27125 m -1.45125,0.32125 c 0,0.4975 -0.16625,0.78875 -0.56,0.78875 -0.39375,0 -0.58125,-0.29125 -0.58125,-0.78875 l 0,-2.28125 c 0,-0.4975 0.1875,-0.7775 0.58125,-0.7775 0.39375,0 0.56,0.28 0.56,0.7775 l 0,2.28125 z" />
    <path
       inkscape:connector-curvature="0"
       id="path216"
       style="fill:#ffffff;fill-opacity:1;fill-rule:nonzero;stroke:none"
       d="m 266.47239,514.50985 c 0.105,-0.16 0.17375,-0.38125 0.17125,-0.68625 -0.006,-0.88375 -0.6075,-1.65125 -1.975,-1.57375 -0.7775,0.0437 -2.175,0.83 -2.15875,2.6025 0.015,1.7875 1.4,3.15125 3.11625,3.23 2.02125,0.0925 3.515,-1.54125 4.01625,-2.8275 0,0 0.36125,-0.895 0.18125,0.31 -0.2325,1.54875 -1.59875,3.72875 -4.32125,3.89 -2.73,0.16125 -4.77,-2.325 -4.61875,-4.82375 0.17,-2.825 2.52125,-4.0825 4.38125,-3.85875 1.7525,0.2125 2.9825,1.64 2.8225,3.355 -0.15875,1.69875 -1.68,2.65875 -2.96125,2.17125 -1.3375,-0.50875 -1.21,-2.155 -0.41375,-2.65625 0.58,-0.365 1.69125,-0.18875 1.61,0.8075 l -0.002,0.0238 c -0.0263,0.17875 0.0538,0.1675 0.1525,0.0362 m -4.12,8.76875 c 2.0875,1.13625 4.12,1.03625 5.925,0.0512 l 0.0288,-0.015 0.0137,-0.007 0.0125,-0.006 c 0.0975,-0.045 0.2,-0.0538 0.002,0.20125 -1.2475,1.4625 -3.31875,1.86125 -4.9825,0.84625 -0.3775,-0.23 -0.705,-0.515 -0.98,-0.84 l -0.0263,-0.0338 c -0.21,-0.26125 -0.0888,-0.24875 0.006,-0.19625 m 5.78125,-16.285 c -2.07625,-1.155 -4.11125,-1.0725 -5.925,-0.10375 l -0.0275,0.015 -0.015,0.006 -0.0125,0.007 c -0.0975,0.0438 -0.2,0.0513 -0.001,-0.20125 1.26125,-1.4525 3.33625,-1.8325 4.99125,-0.80375 0.375,0.23375 0.70125,0.52125 0.9725,0.84875 l 0.0263,0.0337 c 0.2075,0.26375 0.0863,0.25 -0.009,0.1975 m -1.12,-2.61125 c -1.2525,-0.64 -2.47875,-0.59375 -3.5725,-0.0575 l -0.0175,0.007 -0.0162,0.008 c -0.0588,0.025 -0.12,0.03 -0.001,-0.11125 0.76125,-0.8025 2.0125,-1.01375 3.01,-0.44375 0.22625,0.12875 0.4225,0.28875 0.5875,0.47 l 0.015,0.0175 c 0.125,0.14625 0.0525,0.13875 -0.005,0.11 m 0.4625,4.17375 c 0.80875,0.54125 1.4,1.30375 1.75,2.16125 0.17,0.4475 -10e-4,0.3475 -0.21375,0.1125 -0.32,-0.35625 -0.6825,-0.67375 -1.08875,-0.94625 -2.1225,-1.42 -4.80125,-1.165 -6.61625,0.44 l -0.0113,0.009 c -0.24375,0.21875 -0.42875,0.2975 -0.1725,-0.18625 l 0.0337,-0.0638 c 0.0187,-0.0337 0.0387,-0.065 0.0587,-0.0975 1.3375,-2.20625 4.14,-2.84625 6.26,-1.42875 m -4.01125,17.53625 c 1.3875,0.6125 2.71625,0.505 3.88,-0.1125 l 0.0175,-0.009 0.0175,-0.009 c 0.0625,-0.0288 0.13,-0.0375 0.006,0.11625 -0.78875,0.88375 -2.1375,1.16625 -3.2475,0.61375 -0.25,-0.125 -0.47125,-0.28375 -0.6575,-0.4675 l -0.0175,-0.0175 c -0.1425,-0.14875 -0.0625,-0.14375 0.001,-0.115 m -0.61375,-4.43375 c -0.835,-0.5325 -1.45,-1.2875 -1.81375,-2.1425 -0.17875,-0.44375 -0.002,-0.3475 0.2175,-0.115 0.3325,0.35375 0.70625,0.6675 1.1275,0.935 2.1925,1.395 4.9475,1.11125 6.8025,-0.515 l 0.0125,-0.009 c 0.25,-0.22125 0.44,-0.3025 0.17875,0.18375 l -0.035,0.065 c -0.0188,0.0337 -0.0387,0.0662 -0.0587,0.0987 -1.3625,2.22125 -4.24125,2.8925 -6.43125,1.49875" />
    <path
       inkscape:connector-curvature="0"
       id="path220"
       style="fill:#bbb436;fill-opacity:1;fill-rule:nonzero;stroke:none"
       d="m 276.49964,526.26298 0,-5.33875 c 0,-0.17625 -0.135,-0.32125 -0.31125,-0.32125 l -0.6325,0 c -0.17625,0 -0.31125,0.145 -0.31125,0.32125 l 0,3.28625 -1.0675,-3.28625 c -0.0512,-0.16625 -0.135,-0.32125 -0.32125,-0.32125 l -1.08875,0 c -0.17625,0 -0.31125,0.145 -0.31125,0.32125 l 0,5.32875 c 0,0.17625 0.135,0.32125 0.31125,0.32125 l 0.6225,0 c 0.17625,0 0.32125,-0.135 0.32125,-0.31125 l 0,-3.49375 0,-0.0312 1.10875,3.515 c 0.0525,0.165 0.14625,0.32125 0.32125,0.32125 l 1.0375,0 c 0.17625,0 0.32125,-0.135 0.32125,-0.31125" />
    <path
       inkscape:connector-curvature="0"
       id="path224"
       style="fill:#bbb436;fill-opacity:1;fill-rule:nonzero;stroke:none"
       d="m 281.54789,526.23185 0,-3.95 c 0,-1.3275 -0.67375,-1.7725 -1.92875,-1.7725 -1.2125,0 -1.86625,0.4875 -1.86625,1.7725 l 0,3.95 c 0,0.18625 0.135,0.3425 0.31125,0.3425 l 0.7675,0 c 0.17625,0 0.31125,-0.15625 0.31125,-0.3425 l 0,-1.64875 1.03625,0 0,1.64875 c 0,0.18625 0.135,0.3425 0.31125,0.3425 l 0.74625,0 c 0.17625,0 0.31125,-0.15625 0.31125,-0.3425 m -1.36875,-2.7575 -1.03625,0 0,-1.12 c 0,-0.45625 0.135,-0.6525 0.5075,-0.6525 0.37375,0 0.52875,0.19625 0.52875,0.67375 l 0,1.09875 z" />
    <path
       inkscape:connector-curvature="0"
       id="path228"
       style="fill:#bbb436;fill-opacity:1;fill-rule:nonzero;stroke:none"
       d="m 285.46714,521.47323 0,-0.54875 c 0,-0.1875 -0.145,-0.31125 -0.32125,-0.31125 l -2.59375,-0.0113 c -0.17625,0 -0.32125,0.135 -0.32125,0.31125 l 0,0.56 c 0,0.17625 0.145,0.31125 0.32125,0.31125 l 0.6025,0 0,4.4675 c 0,0.17625 0.135,0.3225 0.31125,0.3225 l 0.76625,0 c 0.17625,0 0.31125,-0.14625 0.31125,-0.3225 l 0,-4.4675 0.6025,0 c 0.17625,0 0.32125,-0.135 0.32125,-0.31125" />
    <path
       inkscape:connector-curvature="0"
       id="path232"
       style="fill:#bbb436;fill-opacity:1;fill-rule:nonzero;stroke:none"
       d="m 287.65277,526.26298 0,-5.33875 c 0,-0.17625 -0.135,-0.32125 -0.31125,-0.32125 l -0.7775,0 c -0.17625,0 -0.31125,0.145 -0.31125,0.32125 l 0,5.32875 c 0,0.17625 0.135,0.32125 0.31125,0.32125 l 0.7675,0 c 0.17625,0 0.32125,-0.135 0.32125,-0.31125" />
    <path
       inkscape:connector-curvature="0"
       id="path236"
       style="fill:#bbb436;fill-opacity:1;fill-rule:nonzero;stroke:none"
       d="m 292.87702,524.40723 0,-1.6275 c 0,-1.565 -0.58,-2.27 -2.02125,-2.27 -1.43125,0 -2.01125,0.705 -2.01125,2.27 l 0,1.6275 c 0,1.565 0.58,2.27 2.03125,2.27 1.42125,0 2.00125,-0.705 2.00125,-2.27 m -1.45125,0.32125 c 0,0.4975 -0.16625,0.7875 -0.56,0.7875 -0.39375,0 -0.58,-0.29 -0.58,-0.7875 l 0,-2.28 c 0,-0.49875 0.18625,-0.77875 0.58,-0.77875 0.39375,0 0.56,0.28 0.56,0.77875 l 0,2.28 z" />
    <path
       inkscape:connector-curvature="0"
       id="path240"
       style="fill:#bbb436;fill-opacity:1;fill-rule:nonzero;stroke:none"
       d="m 298.03852,526.26298 0,-5.33875 c 0,-0.17625 -0.135,-0.32125 -0.31125,-0.32125 l -0.6325,0 c -0.17625,0 -0.31,0.145 -0.31,0.32125 l 0,3.28625 -1.06875,-3.28625 c -0.0513,-0.16625 -0.135,-0.32125 -0.32125,-0.32125 l -1.08875,0 c -0.17625,0 -0.31125,0.145 -0.31125,0.32125 l 0,5.32875 c 0,0.17625 0.135,0.32125 0.31125,0.32125 l 0.6225,0 c 0.17625,0 0.32125,-0.135 0.32125,-0.31125 l 0,-3.49375 0,-0.0312 1.10875,3.515 c 0.0525,0.165 0.14625,0.32125 0.3225,0.32125 l 1.03625,0 c 0.17625,0 0.32125,-0.135 0.32125,-0.31125" />
    <path
       inkscape:connector-curvature="0"
       id="path244"
       style="fill:#bbb436;fill-opacity:1;fill-rule:nonzero;stroke:none"
       d="m 303.08677,526.23185 0,-3.95 c 0,-1.3275 -0.67375,-1.7725 -1.92875,-1.7725 -1.2125,0 -1.865,0.4875 -1.865,1.7725 l 0,3.95 c 0,0.18625 0.13375,0.3425 0.31,0.3425 l 0.7675,0 c 0.17625,0 0.31125,-0.15625 0.31125,-0.3425 l 0,-1.64875 1.03625,0 0,1.64875 c 0,0.18625 0.135,0.3425 0.31125,0.3425 l 0.74625,0 c 0.17625,0 0.31125,-0.15625 0.31125,-0.3425 m -1.36875,-2.7575 -1.03625,0 0,-1.12 c 0,-0.45625 0.135,-0.6525 0.5075,-0.6525 0.37375,0 0.52875,0.19625 0.52875,0.67375 l 0,1.09875 z" />
    <path
       inkscape:connector-curvature="0"
       id="path248"
       style="fill:#bbb436;fill-opacity:1;fill-rule:nonzero;stroke:none"
       d="m 307.24364,526.26298 0,-0.59125 c 0,-0.17625 -0.145,-0.31 -0.32125,-0.31 l -1.245,0 0,-4.4375 c 0,-0.17625 -0.135,-0.32125 -0.31125,-0.32125 l -0.7675,0 c -0.17625,0 -0.31,0.145 -0.31,0.32125 l 0,5.32875 c 0,0.17625 0.13375,0.32125 0.31,0.32125 l 2.32375,0 c 0.17625,0 0.32125,-0.135 0.32125,-0.31125" />
  </g>
</svg>
