<?xml version="1.0" encoding="UTF-8"?>
<!-- Created with Inkscape (http://www.inkscape.org/) -->
<svg id="svg5405" width="17.245mm" height="6.6357mm" version="1.1" viewBox="0 0 61.106 23.512" xmlns="http://www.w3.org/2000/svg" xmlns:cc="http://creativecommons.org/ns#" xmlns:dc="http://purl.org/dc/elements/1.1/" xmlns:rdf="http://www.w3.org/1999/02/22-rdf-syntax-ns#">
 <metadata id="metadata5410">
  <rdf:RDF>
   <cc:Work rdf:about="">
    <dc:format>image/svg+xml</dc:format>
    <dc:type rdf:resource="http://purl.org/dc/dcmitype/StillImage"/>
    <dc:title/>
   </cc:Work>
  </rdf:RDF>
 </metadata>
 <g id="layer1" transform="translate(-260.88 -503.46)">
  <path id="path156" d="m276.5 517.91v-5.34c0-0.17625-0.135-0.32125-0.31125-0.32125h-0.6325c-0.17625 0-0.31125 0.145-0.31125 0.32125v3.2875l-1.0675-3.2875c-0.0525-0.16625-0.135-0.32125-0.32125-0.32125h-1.0888c-0.17625 0-0.31125 0.145-0.31125 0.32125v5.33c0 0.17625 0.135 0.32125 0.31125 0.32125h0.62125c0.1775 0 0.3225-0.135 0.3225-0.31125v-3.4938-0.0312l1.1088 3.515c0.0525 0.165 0.145 0.32125 0.32125 0.32125h1.0375c0.17625 0 0.32125-0.135 0.32125-0.31125" fill="#fff"/>
  <path id="path160" d="m281.05 517.9v-0.58c0-0.17625-0.145-0.31125-0.32125-0.31125h-1.5762v-1.265h1.2338c0.17625 0 0.32125-0.145 0.32125-0.3225v-0.55875c0-0.17625-0.145-0.31125-0.32125-0.31125h-1.2338v-1.13h1.4925c0.17625 0 0.3225-0.14625 0.3225-0.3225v-0.54875c0-0.17625-0.14625-0.31125-0.3225-0.31125h-2.5712c-0.17625 0-0.31125 0.145-0.31125 0.32125v5.34c0 0.17625 0.135 0.32125 0.31125 0.32125h2.655c0.17625 0 0.32125-0.145 0.32125-0.32125" fill="#fff"/>
  <path id="path164" d="m287.89 512.56c0.0312-0.17625 0-0.31125-0.17625-0.31125h-0.85c-0.17625 0-0.28 0.145-0.30125 0.32125l-0.45625 3.8062-0.56-3.8062c-0.02-0.17625-0.12375-0.32125-0.3-0.32125h-0.94375c-0.17625 0-0.30125 0.145-0.32125 0.32125l-0.54 3.7638-0.47625-3.7638c-0.0213-0.17625-0.135-0.32125-0.31125-0.32125h-0.84c-0.17625 0-0.1975 0.145-0.16625 0.32125l0.92375 5.33c0.03 0.17625 0.12375 0.32125 0.3 0.32125h1.0262c0.17625 0 0.28-0.145 0.31125-0.32125l0.56-3.7225 0.59125 3.7225c0.0312 0.17625 0.145 0.32125 0.32125 0.32125h1.0162c0.17625 0 0.27-0.145 0.30125-0.32125l0.89125-5.34z" fill="#fff"/>
  <path id="path168" d="m293.82 517.91v-0.58c0-0.17625-0.145-0.31125-0.32125-0.31125h-1.565l1.7725-3.4738c0.0312-0.0725 0.0825-0.135 0.0825-0.2175v-0.7675c0-0.17625-0.135-0.32125-0.31125-0.32125h-2.685c-0.17625 0-0.32125 0.135-0.32125 0.31125v0.59c0 0.17625 0.145 0.31125 0.32125 0.31125h1.39l-1.7638 3.4738c-0.0312 0.0725-0.0825 0.135-0.0825 0.2175v0.7575c0 0.17625 0.135 0.32125 0.31125 0.32125h2.8512c0.17625 0 0.32125-0.135 0.32125-0.31125" fill="#fff"/>
  <path id="path172" d="m298.06 517.9v-0.58c0-0.17625-0.145-0.31125-0.32125-0.31125h-1.5762v-1.265h1.2338c0.17625 0 0.32125-0.145 0.32125-0.3225v-0.55875c0-0.17625-0.145-0.31125-0.32125-0.31125h-1.2338v-1.13h1.4925c0.1775 0 0.3225-0.14625 0.3225-0.3225v-0.54875c0-0.17625-0.145-0.31125-0.3225-0.31125h-2.5712c-0.17625 0-0.31 0.145-0.31 0.32125v5.34c0 0.17625 0.13375 0.32125 0.31 0.32125h2.655c0.17625 0 0.32125-0.145 0.32125-0.32125" fill="#fff"/>
  <path id="path176" d="m302.84 517.88v-3.95c0-1.3275-0.67375-1.7738-1.9288-1.7738-1.2138 0-1.8662 0.4875-1.8662 1.7738v3.95c0 0.18625 0.135 0.3425 0.31125 0.3425h0.7675c0.17625 0 0.31-0.15625 0.31-0.3425v-1.6488h1.0375v1.6488c0 0.18625 0.135 0.3425 0.31125 0.3425h0.74625c0.17625 0 0.31125-0.15625 0.31125-0.3425m-1.3688-2.7575h-1.0375v-1.12c0-0.45625 0.135-0.65375 0.50875-0.65375s0.52875 0.1975 0.52875 0.67375v1.1z" fill="#fff"/>
  <path id="path180" d="m307 517.91v-0.59125c0-0.17625-0.145-0.31125-0.32125-0.31125h-1.245v-4.4375c0-0.17625-0.135-0.32125-0.31125-0.32125h-0.7675c-0.17625 0-0.31 0.145-0.31 0.32125v5.33c0 0.17625 0.13375 0.32125 0.31 0.32125h2.3238c0.17625 0 0.32125-0.135 0.32125-0.31125" fill="#fff"/>
  <path id="path184" d="m311.59 517.88v-3.95c0-1.3275-0.67375-1.7738-1.9288-1.7738-1.2138 0-1.8662 0.4875-1.8662 1.7738v3.95c0 0.18625 0.135 0.3425 0.31125 0.3425h0.7675c0.17625 0 0.31-0.15625 0.31-0.3425v-1.6488h1.0375v1.6488c0 0.18625 0.135 0.3425 0.31125 0.3425h0.74625c0.17625 0 0.31125-0.15625 0.31125-0.3425m-1.3688-2.7575h-1.0375v-1.12c0-0.45625 0.135-0.65375 0.50875-0.65375 0.3725 0 0.52875 0.1975 0.52875 0.67375v1.1z" fill="#fff"/>
  <path id="path188" d="m316.87 517.91v-5.34c0-0.17625-0.135-0.32125-0.31125-0.32125h-0.6325c-0.17625 0-0.31125 0.145-0.31125 0.32125v3.2875l-1.0675-3.2875c-0.0525-0.16625-0.135-0.32125-0.32125-0.32125h-1.0888c-0.17625 0-0.31125 0.145-0.31125 0.32125v5.33c0 0.17625 0.135 0.32125 0.31125 0.32125h0.6225c0.17625 0 0.32125-0.135 0.32125-0.31125v-3.4938-0.0312l1.1088 3.515c0.0525 0.165 0.145 0.32125 0.32125 0.32125h1.0375c0.17625 0 0.32125-0.135 0.32125-0.31125" fill="#fff"/>
  <path id="path192" d="m321.98 515.54v-0.69625c0-1.84-0.4875-2.6075-1.95-2.6075h-1.5962c-0.17625 0-0.31125 0.145-0.31125 0.32125v5.34c0 0.17625 0.135 0.32125 0.31125 0.32125h1.535c1.545 0 2.0112-0.7775 2.0112-2.6788m-1.41 0.47875c0 0.7375-0.145 1.05-0.705 1.05h-0.3325v-3.7125h0.32125c0.53 0 0.71625 0.3125 0.71625 1.0088v1.6538z" fill="#fff"/>
  <path id="path196" d="m276.37 509.56-0.85-2.2288c0.445-0.27 0.6425-0.7675 0.6425-1.55v-0.115c0-1.1862-0.53875-1.7675-1.69-1.7675h-1.7c-0.1775 0-0.31125 0.145-0.31125 0.32125v5.34c0 0.17625 0.13375 0.32125 0.31125 0.32125h0.76625c0.17625 0 0.31125-0.145 0.31125-0.32125v-1.9912h0.44625l0.68375 1.9912c0.0625 0.17625 0.1975 0.32125 0.37375 0.32125h0.7575c0.17625 0 0.32125-0.145 0.25875-0.32125m-1.5862-3.7375c0 0.47-0.15625 0.6275-0.59125 0.6275h-0.3425v-1.4312h0.36375c0.425 0 0.57 0.125 0.57 0.5325v0.27125z" fill="#fff"/>
  <path id="path200" d="m280.98 509.54v-3.95c0-1.3275-0.67375-1.7738-1.9288-1.7738-1.2138 0-1.8662 0.4875-1.8662 1.7738v3.95c0 0.18625 0.135 0.3425 0.31125 0.3425h0.76625c0.1775 0 0.31125-0.15625 0.31125-0.3425v-1.6488h1.0375v1.6488c0 0.18625 0.135 0.3425 0.31125 0.3425h0.74625c0.17625 0 0.31125-0.15625 0.31125-0.3425m-1.3688-2.7575h-1.0375v-1.12c0-0.45625 0.135-0.65375 0.50875-0.65375s0.52875 0.1975 0.52875 0.67375v1.1z" fill="#fff"/>
  <path id="path204" d="m286.04 507.2v-0.69625c0-1.84-0.4875-2.6075-1.95-2.6075h-1.5962c-0.17625 0-0.31125 0.145-0.31125 0.32125v5.34c0 0.17625 0.135 0.32125 0.31125 0.32125h1.535c1.545 0 2.0112-0.7775 2.0112-2.6788m-1.41 0.47875c0 0.7375-0.145 1.05-0.705 1.05h-0.3325v-3.7125h0.32125c0.52875 0 0.71625 0.3125 0.71625 1.0088v1.6538z" fill="#fff"/>
  <path id="path208" d="m288.44 509.57v-5.34c0-0.17625-0.135-0.32125-0.31125-0.32125h-0.7775c-0.17625 0-0.31125 0.145-0.31125 0.32125v5.33c0 0.17625 0.135 0.32125 0.31125 0.32125h0.7675c0.17625 0 0.32125-0.135 0.32125-0.31125" fill="#fff"/>
  <path id="path212" d="m293.46 507.72v-1.6275c0-1.5662-0.58-2.2712-2.0225-2.2712-1.43 0-2.0112 0.705-2.0112 2.2712v1.6275c0 1.5662 0.58125 2.2712 2.0325 2.2712 1.4212 0 2.0012-0.705 2.0012-2.2712m-1.4512 0.32125c0 0.4975-0.16625 0.78875-0.56 0.78875s-0.58125-0.29125-0.58125-0.78875v-2.2812c0-0.4975 0.1875-0.7775 0.58125-0.7775s0.56 0.28 0.56 0.7775v2.2812z" fill="#fff"/>
  <path id="path216" d="m266.47 514.51c0.105-0.16 0.17375-0.38125 0.17125-0.68625-6e-3 -0.88375-0.6075-1.6512-1.975-1.5738-0.7775 0.0437-2.175 0.83-2.1588 2.6025 0.015 1.7875 1.4 3.1512 3.1162 3.23 2.0212 0.0925 3.515-1.5412 4.0162-2.8275 0 0 0.36125-0.895 0.18125 0.31-0.2325 1.5488-1.5988 3.7288-4.3212 3.89-2.73 0.16125-4.77-2.325-4.6188-4.8238 0.17-2.825 2.5212-4.0825 4.3812-3.8588 1.7525 0.2125 2.9825 1.64 2.8225 3.355-0.15875 1.6988-1.68 2.6588-2.9612 2.1712-1.3375-0.50875-1.21-2.155-0.41375-2.6562 0.58-0.365 1.6912-0.18875 1.61 0.8075l-2e-3 0.0238c-0.0263 0.17875 0.0538 0.1675 0.1525 0.0362m-4.12 8.7688c2.0875 1.1362 4.12 1.0362 5.925 0.0512l0.0288-0.015 0.0137-7e-3 0.0125-6e-3c0.0975-0.045 0.2-0.0538 2e-3 0.20125-1.2475 1.4625-3.3188 1.8612-4.9825 0.84625-0.3775-0.23-0.705-0.515-0.98-0.84l-0.0263-0.0338c-0.21-0.26125-0.0888-0.24875 6e-3 -0.19625m5.7812-16.285c-2.0762-1.155-4.1112-1.0725-5.925-0.10375l-0.0275 0.015-0.015 6e-3 -0.0125 7e-3c-0.0975 0.0438-0.2 0.0513-1e-3 -0.20125 1.2612-1.4525 3.3362-1.8325 4.9912-0.80375 0.375 0.23375 0.70125 0.52125 0.9725 0.84875l0.0263 0.0337c0.2075 0.26375 0.0863 0.25-9e-3 0.1975m-1.12-2.6112c-1.2525-0.64-2.4788-0.59375-3.5725-0.0575l-0.0175 7e-3 -0.0162 8e-3c-0.0588 0.025-0.12 0.03-1e-3 -0.11125 0.76125-0.8025 2.0125-1.0138 3.01-0.44375 0.22625 0.12875 0.4225 0.28875 0.5875 0.47l0.015 0.0175c0.125 0.14625 0.0525 0.13875-5e-3 0.11m0.4625 4.1738c0.80875 0.54125 1.4 1.3038 1.75 2.1612 0.17 0.4475-1e-3 0.3475-0.21375 0.1125-0.32-0.35625-0.6825-0.67375-1.0888-0.94625-2.1225-1.42-4.8012-1.165-6.6162 0.44l-0.0113 9e-3c-0.24375 0.21875-0.42875 0.2975-0.1725-0.18625l0.0337-0.0638c0.0187-0.0337 0.0387-0.065 0.0587-0.0975 1.3375-2.2062 4.14-2.8462 6.26-1.4288m-4.0112 17.536c1.3875 0.6125 2.7162 0.505 3.88-0.1125l0.035-0.018c0.0625-0.0288 0.13-0.0375 6e-3 0.11625-0.78875 0.88375-2.1375 1.1662-3.2475 0.61375-0.25-0.125-0.47125-0.28375-0.6575-0.4675l-0.0175-0.0175c-0.1425-0.14875-0.0625-0.14375 1e-3 -0.115m-0.61375-4.4338c-0.835-0.5325-1.45-1.2875-1.8138-2.1425-0.17875-0.44375-2e-3 -0.3475 0.2175-0.115 0.3325 0.35375 0.70625 0.6675 1.1275 0.935 2.1925 1.395 4.9475 1.1112 6.8025-0.515l0.0125-9e-3c0.25-0.22125 0.44-0.3025 0.17875 0.18375l-0.035 0.065c-0.0188 0.0337-0.0387 0.0662-0.0587 0.0987-1.3625 2.2212-4.2412 2.8925-6.4312 1.4988" fill="#fff"/>
  <path id="path220" d="m276.5 526.26v-5.3388c0-0.17625-0.135-0.32125-0.31125-0.32125h-0.6325c-0.17625 0-0.31125 0.145-0.31125 0.32125v3.2862l-1.0675-3.2862c-0.0512-0.16625-0.135-0.32125-0.32125-0.32125h-1.0888c-0.17625 0-0.31125 0.145-0.31125 0.32125v5.3288c0 0.17625 0.135 0.32125 0.31125 0.32125h0.6225c0.17625 0 0.32125-0.135 0.32125-0.31125v-3.4938-0.0312l1.1088 3.515c0.0525 0.165 0.14625 0.32125 0.32125 0.32125h1.0375c0.17625 0 0.32125-0.135 0.32125-0.31125" fill="#bbb436"/>
  <path id="path224" d="m281.55 526.23v-3.95c0-1.3275-0.67375-1.7725-1.9288-1.7725-1.2125 0-1.8662 0.4875-1.8662 1.7725v3.95c0 0.18625 0.135 0.3425 0.31125 0.3425h0.7675c0.17625 0 0.31125-0.15625 0.31125-0.3425v-1.6488h1.0362v1.6488c0 0.18625 0.135 0.3425 0.31125 0.3425h0.74625c0.17625 0 0.31125-0.15625 0.31125-0.3425m-1.3688-2.7575h-1.0362v-1.12c0-0.45625 0.135-0.6525 0.5075-0.6525 0.37375 0 0.52875 0.19625 0.52875 0.67375v1.0988z" fill="#bbb436"/>
  <path id="path228" d="m285.47 521.47v-0.54875c0-0.1875-0.145-0.31125-0.32125-0.31125l-2.5938-0.0113c-0.17625 0-0.32125 0.135-0.32125 0.31125v0.56c0 0.17625 0.145 0.31125 0.32125 0.31125h0.6025v4.4675c0 0.17625 0.135 0.3225 0.31125 0.3225h0.76625c0.17625 0 0.31125-0.14625 0.31125-0.3225v-4.4675h0.6025c0.17625 0 0.32125-0.135 0.32125-0.31125" fill="#bbb436"/>
  <path id="path232" d="m287.65 526.26v-5.3388c0-0.17625-0.135-0.32125-0.31125-0.32125h-0.7775c-0.17625 0-0.31125 0.145-0.31125 0.32125v5.3288c0 0.17625 0.135 0.32125 0.31125 0.32125h0.7675c0.17625 0 0.32125-0.135 0.32125-0.31125" fill="#bbb436"/>
  <path id="path236" d="m292.88 524.41v-1.6275c0-1.565-0.58-2.27-2.0212-2.27-1.4312 0-2.0112 0.705-2.0112 2.27v1.6275c0 1.565 0.58 2.27 2.0312 2.27 1.4212 0 2.0012-0.705 2.0012-2.27m-1.4512 0.32125c0 0.4975-0.16625 0.7875-0.56 0.7875s-0.58-0.29-0.58-0.7875v-2.28c0-0.49875 0.18625-0.77875 0.58-0.77875s0.56 0.28 0.56 0.77875v2.28z" fill="#bbb436"/>
  <path id="path240" d="m298.04 526.26v-5.3388c0-0.17625-0.135-0.32125-0.31125-0.32125h-0.6325c-0.17625 0-0.31 0.145-0.31 0.32125v3.2862l-1.0688-3.2862c-0.0513-0.16625-0.135-0.32125-0.32125-0.32125h-1.0888c-0.17625 0-0.31125 0.145-0.31125 0.32125v5.3288c0 0.17625 0.135 0.32125 0.31125 0.32125h0.6225c0.17625 0 0.32125-0.135 0.32125-0.31125v-3.4938-0.0312l1.1088 3.515c0.0525 0.165 0.14625 0.32125 0.3225 0.32125h1.0362c0.17625 0 0.32125-0.135 0.32125-0.31125" fill="#bbb436"/>
  <path id="path244" d="m303.09 526.23v-3.95c0-1.3275-0.67375-1.7725-1.9288-1.7725-1.2125 0-1.865 0.4875-1.865 1.7725v3.95c0 0.18625 0.13375 0.3425 0.31 0.3425h0.7675c0.17625 0 0.31125-0.15625 0.31125-0.3425v-1.6488h1.0362v1.6488c0 0.18625 0.135 0.3425 0.31125 0.3425h0.74625c0.17625 0 0.31125-0.15625 0.31125-0.3425m-1.3688-2.7575h-1.0362v-1.12c0-0.45625 0.135-0.6525 0.5075-0.6525 0.37375 0 0.52875 0.19625 0.52875 0.67375v1.0988z" fill="#bbb436"/>
  <path id="path248" d="m307.24 526.26v-0.59125c0-0.17625-0.145-0.31-0.32125-0.31h-1.245v-4.4375c0-0.17625-0.135-0.32125-0.31125-0.32125h-0.7675c-0.17625 0-0.31 0.145-0.31 0.32125v5.3288c0 0.17625 0.13375 0.32125 0.31 0.32125h2.3238c0.17625 0 0.32125-0.135 0.32125-0.31125" fill="#bbb436"/>
 </g>
</svg>
