<?xml version="1.0" encoding="UTF-8"?>
<!-- Generator: Adobe Illustrator 19.1.0, SVG Export Plug-In . SVG Version: 6.00 Build 0)  -->
<svg id="Layer_1" width="950" height="405" space="preserve" version="1.1" viewBox="0 0 950 405" xmlns="http://www.w3.org/2000/svg" xmlns:cc="http://creativecommons.org/ns#" xmlns:dc="http://purl.org/dc/elements/1.1/" xmlns:rdf="http://www.w3.org/1999/02/22-rdf-syntax-ns#">
 <link id="dark-mode" href="" rel="stylesheet" type="text/css"/>
 <style id="dark-mode-custom-style" type="text/css"/>
 <metadata id="metadata4496">
  <rdf:RDF>
   <cc:Work rdf:about="">
    <dc:format>image/svg+xml</dc:format>
    <dc:type rdf:resource="http://purl.org/dc/dcmitype/StillImage"/>
    <dc:title/>
   </cc:Work>
  </rdf:RDF>
 </metadata>
 <g id="g4504-7-1" transform="matrix(6.7857 0 0 6.7857 271.43 -2.1429)">
  <path id="path4500-1-0" class="st0" d="m-0.21053 0.31579v59.684h100.21v-59.684z" clip-rule="evenodd" fill="#2e2a25" fill-rule="evenodd"/>
 </g>
 <g id="g4504-7-5" transform="matrix(6.4415 0 0 6.4415 412.36 405.57)">
  <path id="path4500-1-7" d="m4.4557-57.374c-4.6 0-8.4004 0.20117-8.4004 0.20117-1 0.1-1.6992 0.79883-1.6992 1.7988v28.801c0 0.9 0.69922 1.6992 1.6992 1.6992h3.5996c1 0 1.8008-0.69922 1.8008-1.6992v-10.699h2.1992l3.9004 10.699c0.3 0.9 1 1.6992 2 1.6992h4c1 0 1.8004-0.99961 1.4004-2.0996l-4-10.199c-0.3-0.8-0.90039-1.3008-0.90039-1.3008 2.4-1.4 3.7012-4.3 3.7012-8.5v-0.69922c0-6.4-3.0008-9.7012-9.3008-9.7012zm42.301 0.20117c-1 0-1.8008 0.69922-1.8008 1.6992v3.2012c0 1 0.80078 1.6992 1.8008 1.6992h7.5996l-9.5996 18.9c-0.3 0.5-0.5 0.90039-0.5 1.4004v3.7988c0 0.9 0.69922 1.7012 1.6992 1.7012h15.6c1 0 1.8008-0.70117 1.8008-1.7012v-3.2988c0-1-0.80078-1.7012-1.8008-1.7012h-8.5996l9.6992-18.699c0.3-0.6 0.5-0.90039 0.5-1.4004v-3.9004c0-0.9-0.69922-1.6992-1.6992-1.6992zm-26.4 0.09961c-0.9 0-1.5996 0.69922-1.5996 1.6992v28.801c0 0.9 0.69961 1.6992 1.5996 1.6992h3.6992c0.9 0 1.7012-0.69922 1.7012-1.6992v-15.801l6.6992 15.801c0.5 1.1 1.1 1.6992 2 1.6992h4.1992c0.7 0 1.4004-0.69922 1.4004-1.6992v-28.801c0-0.9-0.69961-1.6992-1.5996-1.6992h-3.8008c-0.9 0-1.5996 0.69922-1.5996 1.6992v15.102l-6.4004-15.102c-0.5-1-1-1.6992-2-1.6992zm-18.801 6h2c2.4 0 3.3004 0.70078 3.4004 2.8008v1.5c0 2.6-0.99922 3.3984-3.6992 3.3984h-1.7012z" clip-rule="evenodd" fill="#fff" fill-rule="evenodd"/>
 </g>
 <path id="rect4487" d="m0 2.3348e-6h270v405h-270z" clip-rule="evenodd" fill="#d34141" fill-rule="evenodd" stroke-width="6.7857"/>
 <path id="path4489" class="st1" d="m152.74 193.11c2.0357-2.0357 3.3928-4.75 3.3928-9.5 0.67857-12.893-9.5-25.786-31.893-25.107-12.214 0.67857-33.929 12.893-33.929 40.036 0 27.821 21.036 48.179 48.179 49.536 32.571 1.3571 55.643-21.714 63.107-42.75 1.3571-4.0714 2.0357-4.75 2.7143-4.75 0.67858 0 2.0357 1.3571 0.67858 8.8214-4.75 25.786-25.107 58.357-67.857 59.714-44.107 1.3572-74.643-35.286-72.607-73.964 2.7143-43.429 40.036-63.107 69.214-59.714 30.536 3.3929 47.5 25.786 44.786 52.25s-27.143 40.714-47.5 33.25c-21.036-8.1429-19-33.25-6.7857-40.714 10.179-6.1071 27.143-2.0357 25.107 12.214 0.67857 2.0357 2.0357 2.7143 3.3929 0.67857zm42.75 84.143c2.0357-4.0714 1.3571-5.4286 0.67857-5.4286s-1.3572 0.67857-2.7143 2.0357c-29.179 25.107-69.893 29.179-103.14 7.4643-6.1071-4.0714-12.214-8.8214-16.964-14.25-1.3571-1.3571-2.0357-2.0357-3.3929-2.0357-0.67857 0-1.3571 1.3572 0 4.0714 5.4286 12.893 14.929 24.429 27.143 32.571 33.25 21.036 78.036 10.857 98.393-24.429zm-124.86-149.96c-2.0357 4.0714-1.3571 5.4286-0.67857 5.4286 0.67857 0 1.3571-0.67857 2.7143-2.0357 28.5-25.107 73.286-27.143 101.79-7.4643 6.1071 4.0714 12.214 9.5 16.964 14.929 1.3571 1.3571 2.0357 2.0357 2.7143 2.0357s1.3572-1.3571 0-4.0714c-4.75-11.536-12.893-24.429-25.107-32.571-33.25-21.714-78.036-10.857-98.393 23.75zm23.75 199.5c2.7143 3.3929 8.1429 8.8214 12.893 12.214 21.714 13.571 50.893 7.4643 66.5-11.536 2.0357-2.7143 0.67857-2.7143-0.67857-2.7143-23.75 11.536-50.893 14.25-78.714-0.67857-0.67857-0.67857-2.0357 0 0 2.7143zm77.357-248.36c-2.7143-3.3929-8.1429-8.8214-12.893-12.214-21.714-13.571-50.893-8.1428-66.5 10.857-2.7143 3.3928-0.67857 2.7143 0.67857 2.7143 23.75-11.536 50.893-13.571 78.714 1.3572 0.67857 0.67857 2.7143 1.3571 0-2.7143z" clip-rule="evenodd" fill="#fff" fill-rule="evenodd" stroke-width="6.7857"/>
 <g id="g844" transform="matrix(1.0011 0 0 1.0011 330.37 260.64)" fill="#fff">
  <path id="path7-0" d="m285.05 13.82c5.12-3.85 11.64-5.51 17.99-5.41 6.66-0.06 13.7-0.41 19.82 2.73 6.03 3.08 10.85 8.54 13.09 14.94l-14.95 7.45c-2.49-3.79-4.72-9.07-9.85-9.63-4-0.48812-8.14-0.57-12.04 0.47-3.99 1.36-6.975 5.38-6.805 9.64v43.92c-0.02 5.48 5.235 10.19 10.665 9.82 3.37-0.08 6.85 0.39 10.15-0.52 3.94-1.78 5.6-6.1 7.87-9.49l14.85 7.28c-2.38 8.27-9.48 15.32-17.93 17.25-6.56 1.21-13.32 1.2-19.93 0.51-8.43-0.8-16.65-5.87-20.05-13.8-2.74-5.58-2.445-11.92-2.385-17.96v-37.06c-0.11-7.68 3.285-15.5 9.505-20.14z"/>
  <path id="path9" d="m196.13 9.85 14.622 0.04 29.738 59.58v-59.61l15.9 0.01v91.68h-14.217l-30.033-59.1v59.1h-16.01z"/>
  <path id="path11" d="m349.63 9.9899h53.98v15.3h-37.195v22.2h31.045v15.185h-31.045v23.665h37.195v15.22h-53.98z"/>
  <path id="path13-2" d="m420.72 9.8298h32.325c7.09-0.1 14.66 1.1402 20.18 5.9402 7.93 6.47 10.04 17.75 8.3 27.41-1.46 6.79-6.55 11.78-11.83 15.86l14.14 42.47h-17.44l-13.957-38.705h-15.043v38.705h-16.675v-91.68m16.675 15.505v22.095h17.59c6.2309 0 10.4-4.077 10.4-11.048 0-6.5489-4.3721-11.048-10.37-11.048z"/>
  <path id="path15" transform="scale(.75)" d="m655.35 13.146v20.654h24.947v101.66h22.008v-101.66h24.945v-20.654z" stroke-width="1.3333"/>
  <path id="path7-2" d="m53.128 13.82c5.12-3.85 11.64-5.51 17.99-5.41 6.66-0.06 13.7-0.41 19.82 2.73 6.03 3.08 10.85 8.54 13.09 14.94l-14.95 7.45c-2.49-3.79-4.72-9.07-9.85-9.63-4-0.48813-8.14-0.57-12.04 0.47-3.99 1.36-6.975 5.38-6.805 9.64v43.92c-0.02 5.48 5.235 10.19 10.665 9.82 3.37-0.08 6.85 0.39 10.15-0.52 3.94-1.78 5.6-6.1 7.87-9.49l14.85 7.28c-2.38 8.27-9.48 15.32-17.93 17.25-6.56 1.21-13.32 1.2-19.93 0.51-8.43-0.8-16.65-5.87-20.05-13.8-2.74-5.58-2.445-11.92-2.385-17.96v-37.06c-0.11-7.68 3.285-15.5 9.505-20.14z"/>
  <path id="path5-0" transform="scale(.75)" d="m194.61 11.141c-3.1885 0-6.0047-0.0021-8.6895 0.25977-8.44 0.81333-16.906 4.1328-22.76 10.439-6.3333 6.5333-9.0204 15.854-8.9004 24.801v55.475c-0.12 8.9467 2.567 18.267 8.9004 24.801 5.8533 6.3067 14.32 9.6242 22.76 10.438 2.6848 0.2619 5.5635 0.26171 8.6895 0.26171h2e-3c3.3467 0.0485 6.0334-3e-3 8.9551-0.25195 5.7122-0.49196 11.278-1.7779 16.342-4.7676 10.493-5.64 16.201-17.639 16.107-29.279l-2e-3 -57.877c0.0933-11.64-5.6141-23.639-16.107-29.279-5.064-2.9897-10.63-4.2756-16.342-4.7676-3.3184-0.26215-5.8521-0.25195-8.9551-0.25195zm0.90429 20.469c3.5669 0 5.5702-0.0038 8.2227 0.54102 5.7513 1.4815 10.17 7.148 10.064 13.156v58.143c0.1056 6.0083-4.3131 11.675-10.064 13.156-2.6524 0.54482-4.6558 0.54101-8.2227 0.54101h-2e-3c-2.8029 0.0282-5.9896 2e-3 -8.6328-0.55078-5.9333-1.4133-10.468-7.2003-10.361-13.32l2e-3 -57.795c-0.10667-6.12 4.428-11.907 10.361-13.32 3.1241-0.54708 5.7005-0.56881 8.6328-0.55078z" stroke-width="1.3333"/>
 </g>
</svg>
