<svg id="a" space="preserve" version="1.1" viewBox="0 0 950 405" xmlns="http://www.w3.org/2000/svg">
 <link id="b" href="" rel="stylesheet" type="text/css"/>
 <style id="c" type="text/css"/>
 <g id="d" transform="matrix(6.7857 0 0 6.7857 271.43 -2.1429)">
  <path id="e" class="st0" d="m-0.21053 0.31579v59.684h100.21v-59.684z" clip-rule="evenodd" fill="#2e2a25" fill-rule="evenodd"/>
 </g>
 <g id="f" transform="matrix(6.4415 0 0 6.4415 412.36 405.57)">
  <path id="g" d="m4.4557-57.374c-4.6 0-8.4004 0.20117-8.4004 0.20117-1 0.1-1.6992 0.79883-1.6992 1.7988v28.801c0 0.9 0.69922 1.6992 1.6992 1.6992h3.5996c1 0 1.8008-0.69922 1.8008-1.6992v-10.699h2.1992l3.9004 10.699c0.3 0.9 1 1.6992 2 1.6992h4c1 0 1.8004-0.99961 1.4004-2.0996l-4-10.199c-0.3-0.8-0.90039-1.3008-0.90039-1.3008 2.4-1.4 3.7012-4.3 3.7012-8.5v-0.69922c0-6.4-3.0008-9.7012-9.3008-9.7012zm42.301 0.20117c-1 0-1.8008 0.69922-1.8008 1.6992v3.2012c0 1 0.80078 1.6992 1.8008 1.6992h7.5996l-9.5996 18.9c-0.3 0.5-0.5 0.90039-0.5 1.4004v3.7988c0 0.9 0.69922 1.7012 1.6992 1.7012h15.6c1 0 1.8008-0.70117 1.8008-1.7012v-3.2988c0-1-0.80078-1.7012-1.8008-1.7012h-8.5996l9.6992-18.699c0.3-0.6 0.5-0.90039 0.5-1.4004v-3.9004c0-0.9-0.69922-1.6992-1.6992-1.6992zm-26.4 0.09961c-0.9 0-1.5996 0.69922-1.5996 1.6992v28.801c0 0.9 0.69961 1.6992 1.5996 1.6992h3.6992c0.9 0 1.7012-0.69922 1.7012-1.6992v-15.801l6.6992 15.801c0.5 1.1 1.1 1.6992 2 1.6992h4.1992c0.7 0 1.4004-0.69922 1.4004-1.6992v-28.801c0-0.9-0.69961-1.6992-1.5996-1.6992h-3.8008c-0.9 0-1.5996 0.69922-1.5996 1.6992v15.102l-6.4004-15.102c-0.5-1-1-1.6992-2-1.6992zm-18.801 6h2c2.4 0 3.3004 0.70078 3.4004 2.8008v1.5c0 2.6-0.99922 3.3984-3.6992 3.3984h-1.7012z" clip-rule="evenodd" fill="#fff" fill-rule="evenodd"/>
 </g>
 <path id="h" d="m0 2.3348e-6h270v405h-270z" clip-rule="evenodd" fill="#d34141" fill-rule="evenodd" stroke-width="6.7857"/>
 <path id="i" class="st1" d="m152.74 193.11c2.0357-2.0357 3.3928-4.75 3.3928-9.5 0.67857-12.893-9.5-25.786-31.893-25.107-12.214 0.67857-33.929 12.893-33.929 40.036 0 27.821 21.036 48.179 48.179 49.536 32.571 1.3571 55.643-21.714 63.107-42.75 1.3571-4.0714 2.0357-4.75 2.7143-4.75 0.67858 0 2.0357 1.3571 0.67858 8.8214-4.75 25.786-25.107 58.357-67.857 59.714-44.107 1.3572-74.643-35.286-72.607-73.964 2.7143-43.429 40.036-63.107 69.214-59.714 30.536 3.3929 47.5 25.786 44.786 52.25s-27.143 40.714-47.5 33.25c-21.036-8.1429-19-33.25-6.7857-40.714 10.179-6.1071 27.143-2.0357 25.107 12.214 0.67857 2.0357 2.0357 2.7143 3.3929 0.67857zm42.75 84.143c2.0357-4.0714 1.3571-5.4286 0.67857-5.4286s-1.3572 0.67857-2.7143 2.0357c-29.179 25.107-69.893 29.179-103.14 7.4643-6.1071-4.0714-12.214-8.8214-16.964-14.25-1.3571-1.3571-2.0357-2.0357-3.3929-2.0357-0.67857 0-1.3571 1.3572 0 4.0714 5.4286 12.893 14.929 24.429 27.143 32.571 33.25 21.036 78.036 10.857 98.393-24.429zm-124.86-149.96c-2.0357 4.0714-1.3571 5.4286-0.67857 5.4286 0.67857 0 1.3571-0.67857 2.7143-2.0357 28.5-25.107 73.286-27.143 101.79-7.4643 6.1071 4.0714 12.214 9.5 16.964 14.929 1.3571 1.3571 2.0357 2.0357 2.7143 2.0357s1.3572-1.3571 0-4.0714c-4.75-11.536-12.893-24.429-25.107-32.571-33.25-21.714-78.036-10.857-98.393 23.75zm23.75 199.5c2.7143 3.3929 8.1429 8.8214 12.893 12.214 21.714 13.571 50.893 7.4643 66.5-11.536 2.0357-2.7143 0.67857-2.7143-0.67857-2.7143-23.75 11.536-50.893 14.25-78.714-0.67857-0.67857-0.67857-2.0357 0 0 2.7143zm77.357-248.36c-2.7143-3.3929-8.1429-8.8214-12.893-12.214-21.714-13.571-50.893-8.1428-66.5 10.857-2.7143 3.3928-0.67857 2.7143 0.67857 2.7143 23.75-11.536 50.893-13.571 78.714 1.3572 0.67857 0.67857 2.7143 1.3571 0-2.7143z" clip-rule="evenodd" fill="#fff" fill-rule="evenodd" stroke-width="6.7857"/>
 <g id="j" transform="matrix(1.0014 0 0 1.0014 334.55 255.74)" fill="#fff">
  <path id="k" d="m42.39 14.913 14.622 0.04 29.738 59.58v-59.61l15.9 0.01v91.68h-14.217l-30.033-59.1v59.1h-16.01z"/>
  <path id="l" d="m367.29 14.913 14.622 0.04 29.738 59.58v-59.61l15.9 0.01v91.68h-14.217l-30.033-59.1v59.1h-16.01z"/>
  <path id="m" d="m317.07 13.244c-2.3914 0-4.5035-2e-3 -6.5171 0.19482-6.33 0.61-12.68 3.0996-17.07 7.8296-4.75 4.9-6.7653 11.891-6.6753 18.601v41.606c-0.09 6.71 1.9253 13.701 6.6753 18.601 4.39 4.73 10.74 7.2181 17.07 7.8281 2.0136 0.19644 4.1726 0.19629 6.5171 0.19629h2e-3c2.51 0.0364 4.525-2e-3 6.7163-0.18897 4.2842-0.36897 8.4583-1.3334 12.256-3.5757 7.87-4.23 12.151-13.229 12.081-21.959l-9.5e-4 -43.408c0.07-8.73-4.2106-17.729-12.081-21.959-3.799-2.2423-7.9732-3.2067-12.257-3.5757-2.4888-0.19661-4.3891-0.18896-6.7163-0.18896zm0.67822 15.352c2.6752 0 4.1777-3e-3 6.167 0.40576 4.3135 1.1111 7.6275 5.361 7.5483 9.8672v43.607c0.0792 4.5062-3.2348 8.7561-7.5483 9.8672-1.9893 0.40861-3.4918 0.40576-6.167 0.40576h-9.8e-4c-2.1022 0.02107-4.4922 0.0023-6.4746-0.41309-4.45-1.06-7.851-5.4002-7.771-9.9902l2e-3 -43.346c-0.08-4.59 3.321-8.9302 7.771-9.9902 2.3431-0.41031 4.2754-0.42661 6.4746-0.41309z"/>
  <path id="n" d="m183.56 14.837v15.491h18.71v76.245h16.506v-76.245h18.709v-15.491z"/>
  <path id="o" d="m251.31 14.57h16.255v91.94h-16.255z"/>
  <path id="p" transform="scale(.75)" d="m187.43 19.393-37.291 122.65h23.559l6.8262-22.852h30.68l6.8281 22.852h23.557l-37.291-122.65zm8.4336 40.857 8.9668 38.311h-17.934z" stroke-width="1.3333"/>
  <path id="q" d="m515.77 14.615h16.79v76.515h37.705v15.469h-54.495z"/>
  <path id="r" d="m465.58 14.544-27.968 91.985h17.669l5.1196-17.139h23.01l5.1211 17.139h17.667l-27.968-91.985zm6.3252 30.643 6.7251 28.733h-13.45z"/>
 </g>
</svg>
