<?xml version="1.0" encoding="UTF-8" standalone="no"?>
<!-- Created with Inkscape (http://www.inkscape.org/) -->

<svg
   xmlns:dc="http://purl.org/dc/elements/1.1/"
   xmlns:cc="http://creativecommons.org/ns#"
   xmlns:rdf="http://www.w3.org/1999/02/22-rdf-syntax-ns#"
   xmlns:svg="http://www.w3.org/2000/svg"
   xmlns="http://www.w3.org/2000/svg"
   xmlns:sodipodi="http://sodipodi.sourceforge.net/DTD/sodipodi-0.dtd"
   xmlns:inkscape="http://www.inkscape.org/namespaces/inkscape"
   width="16.27795mm"
   height="7.6425776mm"
   viewBox="0 0 57.677777 27.079999"
   id="svg78943"
   version="1.1"
   inkscape:version="0.91 r13725"
   sodipodi:docname="Sky Digital Music.svg">
  <defs
     id="defs78945">
    <clipPath
       clipPathUnits="userSpaceOnUse"
       id="clipPath71504">
      <path
         d="m 301.068,136.849 82.8,0 0,24.803 -82.8,0 0,-24.803 z"
         id="path71506"
         inkscape:connector-curvature="0" />
    </clipPath>
    <clipPath
       clipPathUnits="userSpaceOnUse"
       id="clipPath71484">
      <path
         d="m 319.187,138.418 46.561,0 0,21.664 -46.561,0 0,-21.664 z"
         id="path71486"
         inkscape:connector-curvature="0" />
    </clipPath>
    <clipPath
       clipPathUnits="userSpaceOnUse"
       id="clipPath71410">
      <path
         d="m 301.068,136.849 82.8,0 0,24.803 -82.8,0 0,-24.803 z"
         id="path71412"
         inkscape:connector-curvature="0" />
    </clipPath>
  </defs>
  <sodipodi:namedview
     id="base"
     pagecolor="#ffffff"
     bordercolor="#666666"
     borderopacity="1.0"
     inkscape:pageopacity="0.0"
     inkscape:pageshadow="2"
     inkscape:zoom="0.35"
     inkscape:cx="-420.44683"
     inkscape:cy="-212.17429"
     inkscape:document-units="px"
     inkscape:current-layer="layer1"
     showgrid="false"
     fit-margin-top="0"
     fit-margin-left="0"
     fit-margin-right="0"
     fit-margin-bottom="0"
     inkscape:window-width="1920"
     inkscape:window-height="1017"
     inkscape:window-x="-8"
     inkscape:window-y="-8"
     inkscape:window-maximized="1" />
  <metadata
     id="metadata78948">
    <rdf:RDF>
      <cc:Work
         rdf:about="">
        <dc:format>image/svg+xml</dc:format>
        <dc:type
           rdf:resource="http://purl.org/dc/dcmitype/StillImage" />
        <dc:title></dc:title>
      </cc:Work>
    </rdf:RDF>
  </metadata>
  <g
     inkscape:label="Layer 1"
     inkscape:groupmode="layer"
     id="layer1"
     transform="translate(-368.30397,-293.10792)">
    <g
       transform="matrix(1.25,0,0,-1.25,-30.950235,493.21154)"
       id="g71406">
      <g
         id="g71408"
         clip-path="url(#clipPath71410)">
        <g
           id="g71414"
           transform="translate(356.076,143.2329)">
          <path
             d="m 0,0 c 0,-2.659 -1.878,-4.814 -4.197,-4.814 l -18.886,0 c -2.318,0 -4.197,2.155 -4.197,4.814 l 0,12.035 c 0,2.659 1.879,4.815 4.197,4.815 l 18.886,0 C -1.878,16.85 0,14.694 0,12.035 L 0,0 Z"
             style="fill:#3655a9;fill-opacity:1;fill-rule:nonzero;stroke:none"
             id="path71416"
             inkscape:connector-curvature="0" />
        </g>
        <g
           id="g71418"
           transform="translate(352.6411,144.9373)">
          <path
             d="m 0,0 c 0,-1.906 -1.394,-3.451 -3.113,-3.451 l -14.012,0 c -1.72,0 -3.114,1.545 -3.114,3.451 l 0,8.627 c 0,1.905 1.394,3.45 3.114,3.45 l 14.012,0 C -1.394,12.077 0,10.532 0,8.627 L 0,0 Z"
             style="fill:#ffffff;fill-opacity:1;fill-rule:nonzero;stroke:none"
             id="path71420"
             inkscape:connector-curvature="0" />
        </g>
        <g
           id="g71422"
           transform="translate(334.6768,148.5031)">
          <path
             d="M 0,0 0.704,0 C 1.001,0 1.11,0.197 1.11,0.515 l 0,0.631 c 0,0.39 -0.125,0.47 -0.406,0.47 L 0,1.616 0,0 Z m -0.804,2.316 1.528,0 c 0.84,0 1.214,-0.314 1.214,-1.17 l 0,-0.631 C 1.938,-0.31 1.673,-0.7 0.832,-0.7 l -1.636,0 0,3.016 z"
             style="fill:#3655a9;fill-opacity:1;fill-rule:nonzero;stroke:none"
             id="path71424"
             inkscape:connector-curvature="0" />
        </g>
        <path
           d="m 337.954,147.804 -0.804,0 0,3.016 0.804,0 0,-3.016 z"
           style="fill:#3655a9;fill-opacity:1;fill-rule:nonzero;stroke:none"
           id="path71426"
           inkscape:connector-curvature="0" />
        <g
           id="g71428"
           transform="translate(340.4023,149.8823)">
          <path
             d="m 0,0 c -0.016,0.306 -0.277,0.302 -0.519,0.302 -0.579,0 -0.595,-0.177 -0.603,-0.664 l 0,-0.49 c 0,-0.535 0.185,-0.591 0.603,-0.591 0.41,0 0.519,0.092 0.519,0.51 l -0.555,0 0,0.559 1.371,0 0,-0.527 c 0,-1.017 -0.257,-1.202 -1.335,-1.202 -0.949,0 -1.431,0.161 -1.431,1.138 l 0,0.78 c 0,0.997 0.547,1.146 1.431,1.146 0.78,0 1.335,-0.004 1.335,-0.961 L 0,0 Z"
             style="fill:#3655a9;fill-opacity:1;fill-rule:nonzero;stroke:none"
             id="path71430"
             inkscape:connector-curvature="0" />
        </g>
        <path
           d="m 342.545,147.804 -0.804,0 0,3.016 0.804,0 0,-3.016 z"
           style="fill:#3655a9;fill-opacity:1;fill-rule:nonzero;stroke:none"
           id="path71432"
           inkscape:connector-curvature="0" />
        <g
           id="g71434"
           transform="translate(344.4954,147.8035)">
          <path
             d="m 0,0 -0.804,0 0,2.316 -0.772,0 0,0.7 2.388,0 0,-0.7 L 0,2.316 0,0 Z"
             style="fill:#3655a9;fill-opacity:1;fill-rule:nonzero;stroke:none"
             id="path71436"
             inkscape:connector-curvature="0" />
        </g>
        <g
           id="g71438"
           transform="translate(346.7959,150.216)">
          <path
             d="m 0,0 -0.008,0 -0.366,-1.307 0.748,0 L 0,0 Z m -0.547,-1.894 -0.148,-0.519 -0.837,0 0.905,3.016 1.222,0 0.917,-3.016 -0.82,0 -0.157,0.519 -1.082,0 z"
             style="fill:#3655a9;fill-opacity:1;fill-rule:nonzero;stroke:none"
             id="path71440"
             inkscape:connector-curvature="0" />
        </g>
        <g
           id="g71442"
           transform="translate(349.4175,148.5031)">
          <path
             d="m 0,0 1.258,0 0,-0.7 -2.062,0 0,3.016 L 0,2.316 0,0 Z"
             style="fill:#3655a9;fill-opacity:1;fill-rule:nonzero;stroke:none"
             id="path71444"
             inkscape:connector-curvature="0" />
        </g>
        <g
           id="g71446"
           transform="translate(335.7929,142.9857)">
          <path
             d="m 0,0 -0.804,0 0,3.016 1.274,0 0.575,-1.894 0.029,0 0.546,1.894 1.307,0 0,-3.016 -0.804,0 0.08,2.312 -0.028,0 L 1.411,0 0.716,0 -0.056,2.312 -0.08,2.312 0,0 Z"
             style="fill:#3655a9;fill-opacity:1;fill-rule:nonzero;stroke:none"
             id="path71448"
             inkscape:connector-curvature="0" />
        </g>
        <g
           id="g71450"
           transform="translate(341.9325,146.0013)">
          <path
             d="m 0,0 0,-2.01 c 0,-0.804 -0.378,-1.03 -1.262,-1.03 -1.207,0 -1.335,0.306 -1.335,1.03 l 0,2.01 0.804,0 0,-1.994 c 0,-0.342 0.193,-0.346 0.531,-0.346 0.341,0 0.458,0.028 0.458,0.382 L -0.804,0 0,0 Z"
             style="fill:#3655a9;fill-opacity:1;fill-rule:nonzero;stroke:none"
             id="path71452"
             inkscape:connector-curvature="0" />
        </g>
        <g
           id="g71454"
           transform="translate(343.9228,144.8191)">
          <path
             d="m 0,0 c 0.893,-0.064 1.114,-0.177 1.114,-0.868 0,-0.499 0.02,-0.989 -1.307,-0.989 -0.768,0 -1.278,0.016 -1.278,1.005 l 0.771,0 c 0,-0.314 0.113,-0.346 0.507,-0.346 0.378,0 0.503,0.024 0.503,0.277 0,0.262 -0.045,0.258 -0.423,0.282 l -0.176,0.012 c -0.744,0.052 -1.179,0.048 -1.179,0.913 0,0.864 0.487,0.92 1.275,0.92 0.66,0 1.222,-0.012 1.222,-0.844 l 0,-0.125 -0.772,0 c 0,0.31 -0.128,0.31 -0.45,0.31 -0.434,0 -0.47,-0.089 -0.47,-0.257 0,-0.242 0.116,-0.25 0.329,-0.266 L 0,0 Z"
             style="fill:#3655a9;fill-opacity:1;fill-rule:nonzero;stroke:none"
             id="path71456"
             inkscape:connector-curvature="0" />
        </g>
        <path
           d="m 346.355,142.986 -0.804,0 0,3.016 0.804,0 0,-3.016 z"
           style="fill:#3655a9;fill-opacity:1;fill-rule:nonzero;stroke:none"
           id="path71458"
           inkscape:connector-curvature="0" />
        <g
           id="g71460"
           transform="translate(349.5195,144.1278)">
          <path
             d="m 0,0 0,-0.089 c 0,-0.329 -0.004,-0.627 -0.277,-0.856 -0.274,-0.225 -0.607,-0.221 -0.957,-0.221 -0.821,0 -1.42,0.04 -1.42,1.142 l 0,0.78 c 0,0.997 0.535,1.142 1.42,1.142 0.828,0 1.214,-0.085 1.23,-0.989 l 0,-0.117 -0.828,0 0,0.117 c -0.028,0.269 -0.217,0.289 -0.491,0.289 -0.458,0 -0.502,-0.141 -0.502,-0.571 l 0,-0.47 c 0,-0.451 0.02,-0.624 0.502,-0.624 0.334,0 0.495,0.025 0.495,0.378 L -0.828,0 0,0 Z"
             style="fill:#3655a9;fill-opacity:1;fill-rule:nonzero;stroke:none"
             id="path71462"
             inkscape:connector-curvature="0" />
        </g>
        <g
           id="g71464"
           transform="translate(343.6951,154.933)">
          <path
             d="M 0,0 -0.987,-0.975 -0.295,-1.659 0.68,-0.696 0,0 Z m -1.634,-0.262 0.962,0.95 1.335,0 0.689,-0.704 0.688,0.704 1.327,0 -3.007,-3.037 -1.333,0 -0.926,0.948 -0.248,-0.947 -1.087,0 0.572,2.242 -1.385,0 c -0.149,0 -0.299,-0.164 -0.149,-0.312 l 0.655,-0.639 c 0.082,-0.082 0.224,-0.163 0.224,-0.54 0,-0.377 -0.341,-0.746 -0.705,-0.746 l -2.246,0 0.2,0.786 1.234,0 c 0.148,0 0.356,0.131 0.165,0.32 l -0.649,0.651 c -0.459,0.454 -0.058,1.276 0.617,1.276 l 3.316,0 -0.249,-0.952 z"
             style="fill:#3655a9;fill-opacity:1;fill-rule:nonzero;stroke:none"
             id="path71466"
             inkscape:connector-curvature="0" />
        </g>
        <g
           id="g71468"
           transform="translate(344.3584,155.6213)">
          <path
             d="M 0,0 -0.663,-0.688 -1.335,0 0,0 Z"
             style="fill:#f4a816;fill-opacity:1;fill-rule:nonzero;stroke:none"
             id="path71470"
             inkscape:connector-curvature="0" />
        </g>
        <g
           id="g71472"
           transform="translate(344.3584,155.6213)">
          <path
             d="M 0,0 -0.663,-0.688 -1.335,0 0,0 Z"
             style="fill:none;stroke:#f4a816;stroke-width:0.018;stroke-linecap:butt;stroke-linejoin:miter;stroke-miterlimit:4;stroke-dasharray:none;stroke-opacity:1"
             id="path71474"
             inkscape:connector-curvature="0" />
        </g>
        <g
           id="g71476"
           transform="translate(344.0628,152.5832)">
          <path
             d="M 0,0 -0.664,0.695 -1.335,0 0,0 Z"
             style="fill:#ea1d42;fill-opacity:1;fill-rule:nonzero;stroke:none"
             id="path71478"
             inkscape:connector-curvature="0" />
        </g>
      </g>
    </g>
    <g
       transform="matrix(1.25,0,0,-1.25,-30.950235,493.21154)"
       id="g71480">
      <g
         id="g71482"
         clip-path="url(#clipPath71484)">
        <g
           id="g71488"
           transform="translate(344.0628,152.5832)">
          <path
             d="M 0,0 -0.664,0.695 -1.335,0 0,0 Z"
             style="fill:none;stroke:#ea1d42;stroke-width:0.018;stroke-linecap:butt;stroke-linejoin:miter;stroke-miterlimit:4;stroke-dasharray:none;stroke-opacity:1"
             id="path71490"
             inkscape:connector-curvature="0" />
        </g>
        <g
           id="g71492"
           transform="translate(322.771,143.4341)">
          <path
             d="M 0,0 C -3.772,3.237 -3.723,8.916 0.109,12.696 M 2.061,1.918 c -2.528,2.17 -2.48,5.991 0.108,8.543 M 3.837,3.67 C 2.331,4.962 2.359,7.239 3.901,8.759"
             style="fill:none;stroke:#3655a9;stroke-width:1.16999996;stroke-linecap:round;stroke-linejoin:miter;stroke-miterlimit:4;stroke-dasharray:none;stroke-opacity:1"
             id="path71494"
             inkscape:connector-curvature="0" />
        </g>
        <g
           id="g71496"
           transform="translate(362.1112,156.0038)">
          <path
             d="m 0,0 c 3.784,-3.223 3.757,-8.902 -0.062,-12.696 m -1.992,10.77 c 2.536,-2.16 2.503,-5.982 -0.075,-8.543"
             style="fill:none;stroke:#3655a9;stroke-width:1.25999999;stroke-linecap:round;stroke-linejoin:miter;stroke-miterlimit:4;stroke-dasharray:none;stroke-opacity:1"
             id="path71498"
             inkscape:connector-curvature="0" />
        </g>
      </g>
    </g>
    <g
       transform="matrix(1.25,0,0,-1.25,-30.950235,493.21154)"
       id="g71500">
      <g
         id="g71502"
         clip-path="url(#clipPath71504)">
        <g
           id="g71508"
           transform="translate(358.2875,152.3197)">
          <path
             d="M 0,0 C 1.511,-1.287 1.491,-3.564 -0.045,-5.09"
             style="fill:none;stroke:#3655a9;stroke-width:1.25999999;stroke-linecap:round;stroke-linejoin:miter;stroke-miterlimit:4;stroke-dasharray:none;stroke-opacity:1"
             id="path71510"
             inkscape:connector-curvature="0" />
        </g>
      </g>
    </g>
  </g>
</svg>
