<svg height="7.642578mm" viewBox="0 0 57.677777 27.079999" width="16.27795mm" xmlns="http://www.w3.org/2000/svg" xmlns:xlink="http://www.w3.org/1999/xlink"><clipPath id="a"><path d="m301.068 136.849h82.8v24.803h-82.8z"/></clipPath><clipPath id="b"><path d="m319.187 138.418h46.561v21.664h-46.561z"/></clipPath><clipPath id="c"><path d="m301.068 136.849h82.8v24.803h-82.8z"/></clipPath><g clip-path="url(#c)" transform="matrix(1.25 0 0 -1.25 -399.254205 200.10362)"><g transform="translate(356.076 143.2329)"><path d="m0 0c0-2.659-1.878-4.814-4.197-4.814h-18.886c-2.318 0-4.197 2.155-4.197 4.814v12.035c0 2.659 1.879 4.815 4.197 4.815h18.886c2.319 0 4.197-2.156 4.197-4.815z" fill="#3655a9"/></g><g transform="translate(352.6411 144.9373)"><path d="m0 0c0-1.906-1.394-3.451-3.113-3.451h-14.012c-1.72 0-3.114 1.545-3.114 3.451v8.627c0 1.905 1.394 3.45 3.114 3.45h14.012c1.719 0 3.113-1.545 3.113-3.45z" fill="#fff"/></g><g transform="translate(334.6768 148.5031)"><path d="m0 0h .704c.297 0 .406.197.406.515v.631c0 .39-.125.47-.406.47h-.704zm-.804 2.316h1.528c.84 0 1.214-.314 1.214-1.17v-.631c0-.825-.265-1.215-1.106-1.215h-1.636z" fill="#3655a9"/></g><path d="m337.954 147.804h-.804v3.016h.804z" fill="#3655a9"/><g transform="translate(340.4023 149.8823)"><path d="m0 0c-.016.306-.277.302-.519.302-.579 0-.595-.177-.603-.664v-.49c0-.535.185-.591.603-.591.41 0 .519.092.519.51h-.555v.559h1.371v-.527c0-1.017-.257-1.202-1.335-1.202-.949 0-1.431.161-1.431 1.138v.78c0 .997.547 1.146 1.431 1.146.78 0 1.335-.004 1.335-.961z" fill="#3655a9"/></g><path d="m342.545 147.804h-.804v3.016h.804z" fill="#3655a9"/><g transform="translate(344.4954 147.8035)"><path d="m0 0h-.804v2.316h-.772v.7h2.388v-.7h-.812z" fill="#3655a9"/></g><g transform="translate(346.7959 150.216)"><path d="m0 0h-.008l-.366-1.307h.748zm-.547-1.894-.148-.519h-.837l.905 3.016h1.222l.917-3.016h-.82l-.157.519z" fill="#3655a9"/></g><g transform="translate(349.4175 148.5031)"><path d="m0 0h1.258v-.7h-2.062v3.016h.804z" fill="#3655a9"/></g><g transform="translate(335.7929 142.9857)"><path d="m0 0h-.804v3.016h1.274l.575-1.894h.029l.546 1.894h1.307v-3.016h-.804l.08 2.312h-.028l-.764-2.312h-.695l-.772 2.312h-.024z" fill="#3655a9"/></g><g transform="translate(341.9325 146.0013)"><path d="m0 0v-2.01c0-.804-.378-1.03-1.262-1.03-1.207 0-1.335.306-1.335 1.03v2.01h.804v-1.994c0-.342.193-.346.531-.346.341 0 .458.028.458.382v1.958z" fill="#3655a9"/></g><g transform="translate(343.9228 144.8191)"><path d="m0 0c .893-.064 1.114-.177 1.114-.868 0-.499.02-.989-1.307-.989-.768 0-1.278.016-1.278 1.005h.771c0-.314.113-.346.507-.346.378 0 .503.024.503.277 0 .262-.045.258-.423.282l-.176.012c-.744.052-1.179.048-1.179.913 0 .864.487.92 1.275.92.66 0 1.222-.012 1.222-.844v-.125h-.772c0 .31-.128.31-.45.31-.434 0-.47-.089-.47-.257 0-.242.116-.25.329-.266z" fill="#3655a9"/></g><path d="m346.355 142.986h-.804v3.016h.804z" fill="#3655a9"/><g transform="translate(349.5195 144.1278)"><path d="m0 0v-.089c0-.329-.004-.627-.277-.856-.274-.225-.607-.221-.957-.221-.821 0-1.42.04-1.42 1.142v.78c0 .997.535 1.142 1.42 1.142.828 0 1.214-.085 1.23-.989v-.117h-.828v.117c-.028.269-.217.289-.491.289-.458 0-.502-.141-.502-.571v-.47c0-.451.02-.624.502-.624.334 0 .495.025.495.378v.089z" fill="#3655a9"/></g><g transform="translate(343.6951 154.933)"><path d="m0 0-.987-.975.692-.684.975.963zm-1.634-.262.962.95h1.335l.689-.704.688.704h1.327l-3.007-3.037h-1.333l-.926.948-.248-.947h-1.087l.572 2.242h-1.385c-.149 0-.299-.164-.149-.312l.655-.639c.082-.082.224-.163.224-.54s-.341-.746-.705-.746h-2.246l.2.786h1.234c.148 0 .356.131.165.32l-.649.651c-.459.454-.058 1.276.617 1.276h3.316z" fill="#3655a9"/></g><g transform="translate(344.3584 155.6213)"><path d="m0 0-.663-.688-.672.688z" fill="#f4a816"/></g><g transform="translate(344.3584 155.6213)"><path d="m0 0-.663-.688-.672.688z" fill="none" stroke="#f4a816" stroke-width=".018"/></g><g transform="translate(344.0628 152.5832)"><path d="m0 0-.664.695-.671-.695z" fill="#ea1d42"/></g></g><g clip-path="url(#b)" transform="matrix(1.25 0 0 -1.25 -399.254205 200.10362)"><g transform="translate(344.0628 152.5832)"><path d="m0 0-.664.695-.671-.695z" fill="none" stroke="#ea1d42" stroke-width=".018"/></g><g transform="translate(322.771 143.4341)"><path d="m0 0c-3.772 3.237-3.723 8.916.109 12.696m1.952-10.778c-2.528 2.17-2.48 5.991.108 8.543m1.668-6.791c-1.506 1.292-1.478 3.569.064 5.089" fill="none" stroke="#3655a9" stroke-linecap="round" stroke-width="1.17"/></g><g transform="translate(362.1112 156.0038)"><path d="m0 0c3.784-3.223 3.757-8.902-.062-12.696m-1.992 10.77c2.536-2.16 2.503-5.982-.075-8.543" fill="none" stroke="#3655a9" stroke-linecap="round" stroke-width="1.26"/></g></g><g clip-path="url(#a)" transform="matrix(1.25 0 0 -1.25 -399.254205 200.10362)"><g transform="translate(358.2875 152.3197)"><path d="m0 0c1.511-1.287 1.491-3.564-.045-5.09" fill="none" stroke="#3655a9" stroke-linecap="round" stroke-width="1.26"/></g></g></svg>