<?xml version="1.0" encoding="UTF-8"?>
<!-- Created with Inkscape (http://www.inkscape.org/) -->
<svg id="svg78943" width="16.278mm" height="7.6426mm" version="1.1" viewBox="0 0 57.678 27.08" xmlns="http://www.w3.org/2000/svg" xmlns:cc="http://creativecommons.org/ns#" xmlns:dc="http://purl.org/dc/elements/1.1/" xmlns:rdf="http://www.w3.org/1999/02/22-rdf-syntax-ns#">
 <defs id="defs78945">
  <clipPath id="clipPath71504">
   <path id="path71506" d="m301.07 136.85h82.8v24.803h-82.8v-24.803z"/>
  </clipPath>
  <clipPath id="clipPath71484">
   <path id="path71486" d="m319.19 138.42h46.561v21.664h-46.561v-21.664z"/>
  </clipPath>
  <clipPath id="clipPath71410">
   <path id="path71412" d="m301.07 136.85h82.8v24.803h-82.8v-24.803z"/>
  </clipPath>
 </defs>
 <metadata id="metadata78948">
  <rdf:RDF>
   <cc:Work rdf:about="">
    <dc:format>image/svg+xml</dc:format>
    <dc:type rdf:resource="http://purl.org/dc/dcmitype/StillImage"/>
    <dc:title/>
   </cc:Work>
  </rdf:RDF>
 </metadata>
 <g id="layer1" transform="translate(-368.3 -293.11)">
  <g id="g71406" transform="matrix(1.25 0 0 -1.25 -30.95 493.21)">
   <g id="g71408" clip-path="url(#clipPath71410)">
    <g id="g71414" transform="translate(356.08 143.23)">
     <path id="path71416" d="m0 0c0-2.659-1.878-4.814-4.197-4.814h-18.886c-2.318 0-4.197 2.155-4.197 4.814v12.035c0 2.659 1.879 4.815 4.197 4.815h18.886c2.319 0 4.197-2.156 4.197-4.815v-12.035z" fill="#3655a9"/>
    </g>
    <g id="g71418" transform="translate(352.64 144.94)">
     <path id="path71420" d="m0 0c0-1.906-1.394-3.451-3.113-3.451h-14.012c-1.72 0-3.114 1.545-3.114 3.451v8.627c0 1.905 1.394 3.45 3.114 3.45h14.012c1.719 0 3.113-1.545 3.113-3.45v-8.627z" fill="#fff"/>
    </g>
    <g id="g71422" transform="translate(334.68 148.5)">
     <path id="path71424" d="m0 0h0.704c0.297 0 0.406 0.197 0.406 0.515v0.631c0 0.39-0.125 0.47-0.406 0.47h-0.704v-1.616zm-0.804 2.316h1.528c0.84 0 1.214-0.314 1.214-1.17v-0.631c0-0.825-0.265-1.215-1.106-1.215h-1.636v3.016z" fill="#3655a9"/>
    </g>
    <path id="path71426" d="m337.95 147.8h-0.804v3.016h0.804v-3.016z" fill="#3655a9"/>
    <g id="g71428" transform="translate(340.4 149.88)">
     <path id="path71430" d="m0 0c-0.016 0.306-0.277 0.302-0.519 0.302-0.579 0-0.595-0.177-0.603-0.664v-0.49c0-0.535 0.185-0.591 0.603-0.591 0.41 0 0.519 0.092 0.519 0.51h-0.555v0.559h1.371v-0.527c0-1.017-0.257-1.202-1.335-1.202-0.949 0-1.431 0.161-1.431 1.138v0.78c0 0.997 0.547 1.146 1.431 1.146 0.78 0 1.335-4e-3 1.335-0.961h-0.816z" fill="#3655a9"/>
    </g>
    <path id="path71432" d="m342.54 147.8h-0.804v3.016h0.804v-3.016z" fill="#3655a9"/>
    <g id="g71434" transform="translate(344.5 147.8)">
     <path id="path71436" d="m0 0h-0.804v2.316h-0.772v0.7h2.388v-0.7h-0.812v-2.316z" fill="#3655a9"/>
    </g>
    <g id="g71438" transform="translate(346.8 150.22)">
     <path id="path71440" d="m0 0h-8e-3l-0.366-1.307h0.748l-0.374 1.307zm-0.547-1.894-0.148-0.519h-0.837l0.905 3.016h1.222l0.917-3.016h-0.82l-0.157 0.519h-1.082z" fill="#3655a9"/>
    </g>
    <g id="g71442" transform="translate(349.42 148.5)">
     <path id="path71444" d="m0 0h1.258v-0.7h-2.062v3.016h0.804v-2.316z" fill="#3655a9"/>
    </g>
    <g id="g71446" transform="translate(335.79 142.99)">
     <path id="path71448" d="m0 0h-0.804v3.016h1.274l0.575-1.894h0.029l0.546 1.894h1.307v-3.016h-0.804l0.08 2.312h-0.028l-0.764-2.312h-0.695l-0.772 2.312h-0.024l0.08-2.312z" fill="#3655a9"/>
    </g>
    <g id="g71450" transform="translate(341.93 146)">
     <path id="path71452" d="m0 0v-2.01c0-0.804-0.378-1.03-1.262-1.03-1.207 0-1.335 0.306-1.335 1.03v2.01h0.804v-1.994c0-0.342 0.193-0.346 0.531-0.346 0.341 0 0.458 0.028 0.458 0.382v1.958h0.804z" fill="#3655a9"/>
    </g>
    <g id="g71454" transform="translate(343.92 144.82)">
     <path id="path71456" d="m0 0c0.893-0.064 1.114-0.177 1.114-0.868 0-0.499 0.02-0.989-1.307-0.989-0.768 0-1.278 0.016-1.278 1.005h0.771c0-0.314 0.113-0.346 0.507-0.346 0.378 0 0.503 0.024 0.503 0.277 0 0.262-0.045 0.258-0.423 0.282l-0.176 0.012c-0.744 0.052-1.179 0.048-1.179 0.913 0 0.864 0.487 0.92 1.275 0.92 0.66 0 1.222-0.012 1.222-0.844v-0.125h-0.772c0 0.31-0.128 0.31-0.45 0.31-0.434 0-0.47-0.089-0.47-0.257 0-0.242 0.116-0.25 0.329-0.266l0.334-0.024z" fill="#3655a9"/>
    </g>
    <path id="path71458" d="m346.36 142.99h-0.804v3.016h0.804v-3.016z" fill="#3655a9"/>
    <g id="g71460" transform="translate(349.52 144.13)">
     <path id="path71462" d="m0 0v-0.089c0-0.329-4e-3 -0.627-0.277-0.856-0.274-0.225-0.607-0.221-0.957-0.221-0.821 0-1.42 0.04-1.42 1.142v0.78c0 0.997 0.535 1.142 1.42 1.142 0.828 0 1.214-0.085 1.23-0.989v-0.117h-0.828v0.117c-0.028 0.269-0.217 0.289-0.491 0.289-0.458 0-0.502-0.141-0.502-0.571v-0.47c0-0.451 0.02-0.624 0.502-0.624 0.334 0 0.495 0.025 0.495 0.378v0.089h0.828z" fill="#3655a9"/>
    </g>
    <g id="g71464" transform="translate(343.7 154.93)">
     <path id="path71466" d="m0 0-0.987-0.975 0.692-0.684 0.975 0.963-0.68 0.696zm-1.634-0.262 0.962 0.95h1.335l0.689-0.704 0.688 0.704h1.327l-3.007-3.037h-1.333l-0.926 0.948-0.248-0.947h-1.087l0.572 2.242h-1.385c-0.149 0-0.299-0.164-0.149-0.312l0.655-0.639c0.082-0.082 0.224-0.163 0.224-0.54s-0.341-0.746-0.705-0.746h-2.246l0.2 0.786h1.234c0.148 0 0.356 0.131 0.165 0.32l-0.649 0.651c-0.459 0.454-0.058 1.276 0.617 1.276h3.316l-0.249-0.952z" fill="#3655a9"/>
    </g>
    <g id="g71468" transform="translate(344.36 155.62)">
     <path id="path71470" d="M 0,0 -0.663,-0.688 -1.335,0 0,0 Z" fill="#f4a816"/>
    </g>
    <g id="g71472" transform="translate(344.36 155.62)">
     <path id="path71474" d="M 0,0 -0.663,-0.688 -1.335,0 0,0 Z" fill="none" stroke="#f4a816" stroke-width=".018"/>
    </g>
    <g id="g71476" transform="translate(344.06 152.58)">
     <path id="path71478" d="M 0,0 -0.664,0.695 -1.335,0 0,0 Z" fill="#ea1d42"/>
    </g>
   </g>
  </g>
  <g id="g71480" transform="matrix(1.25 0 0 -1.25 -30.95 493.21)">
   <g id="g71482" clip-path="url(#clipPath71484)">
    <g id="g71488" transform="translate(344.06 152.58)">
     <path id="path71490" d="M 0,0 -0.664,0.695 -1.335,0 0,0 Z" fill="none" stroke="#ea1d42" stroke-width=".018"/>
    </g>
    <g id="g71492" transform="translate(322.77 143.43)">
     <path id="path71494" d="m0 0c-3.772 3.237-3.723 8.916 0.109 12.696m1.952-10.778c-2.528 2.17-2.48 5.991 0.108 8.543m1.668-6.791c-1.506 1.292-1.478 3.569 0.064 5.089" fill="none" stroke="#3655a9" stroke-linecap="round" stroke-width="1.17"/>
    </g>
    <g id="g71496" transform="translate(362.11 156)">
     <path id="path71498" d="m0 0c3.784-3.223 3.757-8.902-0.062-12.696m-1.992 10.77c2.536-2.16 2.503-5.982-0.075-8.543" fill="none" stroke="#3655a9" stroke-linecap="round" stroke-width="1.26"/>
    </g>
   </g>
  </g>
  <g id="g71500" transform="matrix(1.25 0 0 -1.25 -30.95 493.21)">
   <g id="g71502" clip-path="url(#clipPath71504)">
    <g id="g71508" transform="translate(358.29 152.32)">
     <path id="path71510" d="m0 0c1.511-1.287 1.491-3.564-0.045-5.09" fill="none" stroke="#3655a9" stroke-linecap="round" stroke-width="1.26"/>
    </g>
   </g>
  </g>
 </g>
</svg>
