<svg height="13.338846mm" viewBox="0 0 243.63964 47.263628" width="68.760521mm" xmlns="http://www.w3.org/2000/svg"><g transform="translate(-209.60897 -403.01585)"><path d="m269.87607 434.66761-.34875 1.8875c-.18375 1.0425-.3725 1.77875-.53625 2.2125-.115.31375-.21125.46-.24125.49875-.1125.0387-.595.13125-1.4975.11875h-3.72c-.1275-.005-.24625-.009-.355-.015l.6925-3.8825c.0612-.3525.1325-.58375.17875-.70625.0475-.01.1125-.0238.1975-.0362.23125-.035.58875-.0625 1.05-.0775h4.58zm1.18125 2.26875.73875-3.8825h-6.25625c-1.16.0275-1.91875.1425-2.36875.435-.445.28-.7425.7625-.95125 1.83625l-.67375 3.55375c-.0675.35-.0987.6425-.0987.87625.0225.605.1375.755.45375.93875.33875.18 1.01125.27 1.95.2925h3.565c1.45875.001 2.125-.13375 2.525-.58125.43625-.45125.75125-1.5 1.11625-3.46875m108.51875-20.435c.0838.10125.1175.23625.0937.36625l-4.51625 23.78125c-.29125 1.53-.40375 2.65375-.40375 3.53125.005 1.53625.32875 2.30375.7175 3.32.0513.1375.0338.28875-.0487.41s-.21875.1925-.365.1925h-32.67125-.125c-4.89375 0-7.72-2.165-8.46625-5.765l.4325-.0925-.43375.0863c-.0275-.14125-.0338-.28375-.0338-.45875.006-3.0225 2.4975-17.4825 2.64875-18.59125l.004-.004v-.002l.005-.07c.175-1.08375.25-1.9775.25-2.7375-.004-1.5475-.295-2.5425-.67-3.525-.0525-.135-.0338-.29.0475-.40875.0837-.12125.22125-.1925.36625-.1925l12.8075.001c2.0375.0888 3.84875 1.61125 3.84125 3.94375 0 .27125-.0237.55125-.0737.84875l-3.42 18.00375c-.0688.34875-.1.64625-.1.88875.009.5125.1175.7175.32125.87125.2125.16125.66375.2775 1.38.27375h5.56625c.89125 0 1.43-.1575 1.78375-.46125.35625-.29875.61625-.82875.7875-1.74l3.63875-19.21875c.52625-2.74625 2.39125-3.46375 3.68125-3.42375.11875 0 .23125.006.30625.0125h12.3075c.13125 0 .2575.06.34125.16m-44.93375 7.71375c0 .37875-.0425.78625-.125 1.245l-.43125-.0762.43.08c-.12125.64375-3.40125 21.2825-3.56 22.09375-.04.2075-.22375.3575-.43375.3575l-15.33875.004c-.13375 0-.26-.0613-.34375-.16375-.085-.10375-.11875-.23875-.0913-.36875l2.97125-14.41625c.0325-.16625.0475-.3275.0475-.48125.001-.86125-.475-1.60875-1.1825-2.16625-.70125-.5525-1.62625-.8725-2.355-.87125-.1325 0-.25375.0113-.36875.03-2.385.39125-3.86125.68125-4.73375 1.245-.85875.54875-1.29375 1.3675-1.64375 3.1775l-2.7425 13.84125c-.0412.2075-.2225.3575-.43375.3575h-15.00625c-.13125 0-.255-.0587-.33875-.16-.085-.1-.12-.2325-.0962-.36125l7.02-39.035c.5475-2.61875 2.21375-3.42625 3.90625-3.37375.005 0 .025 0 .055.001v-.001h12.655c.13125 0 .25625.06.34125.1625.0812.1.11625.23375.0925.3625l-3.6752 19.6088c.49125-.82375 1.16375-1.6775 2.25625-2.45625 2.19625-1.565 5.98625-2.82125 13.32125-3.30125.75625-.0487 1.4725-.0763 2.15-.0763 3.06.004 5.36.5325 6.73375 2.14125.57.75.92625 1.54875.92 2.60125m-43.5925-1.08125-.007.0812-4.35875 24.52125c-.0387.2125-.22125.36625-.43625.36625h-33.4825-.12625c-4.1725 0-6.59125-1.17125-7.4075-3.72875-.26-.83375-.33-1.7675-.33125-2.54625 0-.3575.0137-.6825.0375-.94375.0588-.81.185-1.6875.365-2.635l.42375-2.23375c.61875-3.25625 1.565-5.6875 3.30375-7.31875 1.7425-1.63125 4.2175-2.3725 7.70125-2.36875h13.91c1.03625.001 1.62-.14 1.9225-.3625.3-.2125.4725-.55875.605-1.24875.045-.23625.0675-.4375.0675-.59875-.0175-.37-.0675-.46125-.275-.6-.22125-.14-.7325-.2525-1.5725-.24625h-15.20375c-1.83.004-3.04625-.525-3.775-1.34625-.72625-.82-.92625-1.8525-.92625-2.75875.003-1.3675.44625-2.51125.455-2.54125.065-.17.23-.28375.41375-.28375h27.82c4.83375.001 7.57125 1.2075 9.0975 2.7 1.525 1.49375 1.775 3.21375 1.78 4.0925m91.31375-8.9425h-15.35c-.13625-.009-.26625-.0112-.38875-.0112-.9425-.004-2.22875.20875-3.41 1.08625-1.18875.8725-2.03125 2.325-2.37125 4.05l-.006.0312-3.63875 19.2325c-.0362.19-.0737.33875-.1075.44125-.0887.009-.21.015-.35875.015h-4.96375l3.33625-17.56875v.002c.0637-.3925.0987-.7875.0987-1.18625.0125-1.69875-.6875-3.3-1.8075-4.36125-1.115-1.07375-2.57125-1.65-4.06875-1.7275l-.0588-.004h-16.62125l1.34375 3.5125c.21125.56625.365 1.0225.45 1.6175-.84625-.68375-1.835-1.15125-2.8525-1.445-1.41625-.41125-2.93375-.54875-4.595-.55125-.73625 0-1.49875.03-2.29375.08-5.74875.38375-9.53875 1.21-12.2325 2.445l3.15375-16.83375h-15.7725-.0588c-1.0739-.004-2.45015.19245-3.6714 1.10745-1.225.91625-1.965 2.34-2.32125 3.9325l-.0125.0525-1.92375 10.70625c-.29625-.44375-.65625-.88375-1.09-1.30875-2.0525-2.01125-5.43375-3.32125-10.5975-3.315h-29.60125l-.63625 1.6625c-.05.1625-.58125 1.47125-.59625 3.31 0 1.2.25625 2.805 1.47 4.185.455.52 1.01625.94375 1.65375 1.26875-1.90125.445-3.5525 1.25-4.89875 2.51375-2.255 2.135-3.28625 5.05625-3.94625 8.49l-.42375 2.235c-.03.16125-.06.32125-.0875.47875-2.21375-.001-8.91375-.001-8.9175-.001-.60875-.015-.75375-.16-.8725-.2625-.1075-.11-.195-.295-.19625-.555 0-.07.006-.13625.0175-.1925l-2.10625-.41125c-.0375.1975-.0563.3975-.0563.5975.0238 1.535 1.03625 2.94125 3.21375 2.95875 0 0 8.54 0 9.51625.005.1425 0 .275.0663.35875.18125.0825.115.105.2625.0613.3975l-2.20625 6.74375c-.0613.1825-.23125.30625-.4225.30625h-19.15c-2.1175-.002-4.095-.36125-5.58375-1.45375-1.49375-1.095-2.405-2.935-2.39625-5.6225 0-.92625.10375-1.95875.3225-3.10625l2.78125-14.64875h-2.01375c-2.0875-.004-3.71125-1.59875-3.70375-3.82125 0-.3225.0325-.6575.0987-.9975l.3325-1.75125c.0387-.20875.2225-.36.435-.36h6.17l1.05375-5.37875c.44625-2.185 1.8575-3.47 3.8875-3.4375.0925 0 .18625.002.245.006l12.19875-.3125c.13625-.004.26375.0537.35.15625.0875.1025.1225.2375.0975.37l-1.6625 8.59625h11.62375c.1325 0 .25875.06.34125.16.085.10125.11875.23625.095.36625l-.54875 2.89c-.42 2.2575-1.99 3.55125-4.2725 3.51125l-.005.002h-8.55125l-2.60875 13.6325c0 .002 0 .005-.001.006l2.10875.40375 2.275-11.90125h6.7775.005c1.47375.01 3.00375-.3875 4.20375-1.38 1.2025-.9875 1.88375-2.40375 2.1725-3.85125l1.13625-5.99h-12.15125l1.77875-9.21125-15.33125.39375c-.0863-.002-.1775-.006-.275-.006-1.3875-.015-2.87875.43625-3.9725 1.4325-1.10125.98625-1.70625 2.31-2.01125 3.685l-.004.0188-.72125 3.6875h-6.5475l-.73 3.8575c-.0888.455-.1375.9275-.1375 1.3975-.009 1.60375.5875 3.1575 1.67625 4.255.95.9725 2.24375 1.55875 3.60125 1.68625l-2.30375 12.13875c-.23875 1.25875-.36 2.42-.36125 3.5075-.0463 3.12875 1.15875 5.84 3.2675 7.35125 2.08 1.50875 4.51 1.86375 6.86 1.875h21.02625l.98625-3.01375c.645.80875 1.475 1.47875 2.4175 1.91625 1.715.8225 3.66375 1.09 5.9875 1.0975h33.4425 20.2275l3.15375-15.93625c.15-.80625.3175-1.27875.43-1.485.19375-.28125.0613-.21375.64375-.48125.57-.2275 1.7775-.46875 3.55125-.75625l.007-.001h.009c.14375-.0213.72125.1475 1.035.41625.3475.28625.3625.44375.35875.4775 0 .0162-.001.0375-.007.0712l-3.60625 17.51125 20.64625-.004.40875-2.0925c.035-.19125.1225-.71.25-1.50625.54125.73 1.1975 1.3775 1.97 1.90375 1.92125 1.32125 4.3275 1.88125 7.1 1.8825h36.44625l-1.36-3.52c-.39875-1.07-.54875-1.33125-.57375-2.55 0-.69.0913-1.69.3675-3.13375l5.0975-26.865z"/><path d="m374.28482 440.48223c-.3 1.5675-.41875 2.74625-.41875 3.6975-.005 1.335.2475 2.225.54375 3.03625h-32.0275c-4.755-.0362-6.99875-1.84-7.72375-5.0575h.001c-.009-.0325-.0175-.14-.0175-.285-.005-1.41875.6575-6.0425 1.32-10.27125.33125-2.12125.66125-4.155.91125-5.675.12375-.7575.22875-1.38875.30125-1.8375.0625-.4075.0988-.6.11375-.74375.18-1.12125.26-2.06125.26-2.87875 0-1.3475-.2175-2.35875-.51125-3.24125h12.155c1.63125.1025 2.97 1.21875 2.9775 3.06 0 .22-.0188.45-.0588.6925l-3.41875 17.9925c-.075.38875-.11625.7375-.11625 1.0575-.007.64875.19875 1.24.69 1.5875.48125.3425 1.105.44 1.8975.4425h5.56625c.98 0 1.76625-.16875 2.3575-.6725.59-.50375.89625-1.2575 1.085-2.25l3.63625-19.2125c.525-2.375 1.76625-2.6675 2.8125-2.70875.0913 0 .185.004.2725.01l11.805.001-4.41375 23.25625zm-40.52875-16.2675c-.005-.8625-.24-1.39-.72625-2.05-1.05375-1.25875-3.06125-1.80875-6.04125-1.80625-.65375 0-1.35125.0263-2.0925.075-7.26.47-10.895 1.72375-12.86375 3.13625-1.9675 1.41-2.365 2.985-3.1775 4.47125-.0775.14-.225.22875-.38625.22875h-.13125c-.13 0-.25625-.0587-.34-.15875-.0838-.10125-.12-.23625-.095-.365l4.065-21.68625h-12.12l-.04-.001h-.015c-1.4875.0525-2.4575.37-3.03875 2.66625l-6.92375 38.49125h14.11375l2.67-13.4825c.34625-1.86375.89625-3.035 2.04-3.755 1.13125-.71 2.67625-.96875 5.0575-1.3675.17125-.0312.34375-.0437.51875-.0437 1.9.0175 4.375 1.4975 4.42375 3.92125 0 .21375-.02.43-.065.655l-2.8625 13.88875 14.4225-.003c.47875-2.8675 3.37-21.0425 3.4975-21.7275h-.001c.0775-.42.11125-.7775.11125-1.0875m-61.08375 8.115c-.0838-.10125-.21-.16125-.34125-.16125h-6.80375c-1.2.0362-2.1.12-2.8275.57-.73375.4575-1.13375 1.25875-1.34875 2.42125l-.67625 3.55375c-.0725.38625-.11375.73125-.11375 1.04125-.0213.775.31625 1.435.93875 1.72875.6025.2975 1.3525.355 2.34.38875h3.57625c1.4575-.001 2.455-.0962 3.1775-.8675.685-.76625.94875-1.92125 1.33375-3.90125l.83875-4.41c.0238-.12875-.01-.26375-.0937-.36375m13.20375 14.88625h-33.11125c-4.17125-.0238-6.01-1.0325-6.69125-3.11-.21625-.69125-.29-1.55625-.28875-2.27875 0-.3325.015-.63375.0362-.8725.0538-.7725.17375-1.6175.35-2.5425l.42375-2.23125c.60375-3.1825 1.51375-5.415 3.04-6.8375 1.5225-1.425 3.72125-2.12875 7.09625-2.13125h13.91c1.0975-.004 1.85875-.12375 2.435-.525.57875-.41125.82125-1.0525.96375-1.80625.05-.27125.0813-.5225.0813-.76375.0175-.5275-.205-1.08-.7075-1.3625-.48875-.28125-1.12125-.365-2.025-.37h-15.20375c-1.675-.002-2.58875-.46125-3.1125-1.0475-.52625-.59-.70375-1.38625-.7025-2.17-.001-.5875.0987-1.15125.19875-1.56375.0363-.1475.0725-.275.1025-.3775h27.50125c4.6975.006 7.17125 1.16875 8.4775 2.44875 1.2825 1.2575 1.5 2.68 1.51375 3.42625zm-50.22875-39.0975-11.68375.29875c-.08-.004-.15625-.006-.2325-.006-1.65875.0325-2.55375.805-3.02125 2.7325l-1.12 5.725c-.04.2075-.2225.3575-.43375.3575h-6.17l-.26375 1.39375c-.0562.29125-.0837.5675-.0837.83.0175 1.79125 1.18625 2.90875 2.82125 2.935h2.54625c.1325 0 .25625.0588.34125.16125.0825.1.1175.23625.0925.365l-2.88 15.175c-.21 1.10375-.30625 2.08-.30625 2.94.008 2.50875.795 3.98625 2.03625 4.91 1.24375.92375 3.035 1.28125 5.0575 1.28l18.82875-.001 1.91875-5.8575c-2.21-.001-8.89625-.002-8.905-.001-1.3025.001-2.3475-.4575-3.0475-1.18125s-1.0525-1.6875-1.0525-2.665c0-.2575.0238-.5175.0737-.77375h.001l2.67625-13.99125c.0387-.20875.22125-.36.43375-.36l8.91875.001.005-.001c1.97625-.0388 2.96625-.8525 3.405-2.8l.445-2.35875h-11.625c-.1325 0-.2575-.0575-.3425-.16-.0837-.1025-.1175-.235-.0937-.365l1.66-8.5825z" fill="#e41b2f"/><path d="m263.17132 433.48823c-.445.28125-.7425.7625-.95125 1.83625l-.675 3.555c-.0663.35-.0987.64125-.0987.875.0238.605.13875.75625.455.94.33875.18 1.01125.27 1.95.29125h3.565c1.45875.002 2.125-.13375 2.52375-.58125.4375-.45125.7525-1.49875 1.1175-3.4675l.73875-3.8825h-6.2575c-1.15875.0275-1.9175.1425-2.3675.43375m.6675 8.38375c-.98625-.0337-1.7375-.0913-2.33875-.38875-.62125-.29375-.96125-.95375-.93875-1.72875 0-.31.04-.655.115-1.04125l.67375-3.5525c.21625-1.1625.61625-1.96375 1.35-2.4225.7275-.45 1.6275-.5325 2.8275-.56875h6.8025v.4425-.4425c.13125 0 .25875.0587.3425.15875.0825.1025.1175.2375.0937.365l-.83875 4.41c-.385 1.98-.64875 3.135-1.335 3.90125-.72125.77125-1.71875.86625-3.17625.8675h-3.5775zm-51.11625-23.2525c-.0575.29125-.0825.56875-.0825.83.0162 1.79125 1.185 2.91 2.82 2.935h2.54625c.13125 0 .25625.0588.34125.16125.0825.1.1175.23625.0925.365l-2.88 15.175c-.21125 1.10375-.3075 2.08-.3075 2.94.009 2.50875.79625 3.98625 2.03625 4.90875 1.245.92375 3.03625 1.2825 5.05875 1.28125h18.82875l1.91875-5.85875c-2.21-.001-8.89625-.002-8.905-.001-1.3025.001-2.3475-.4575-3.0475-1.18125-.7-.7225-1.0525-1.68875-1.0525-2.665 0-.2575.0238-.5175.0737-.7725l2.67625-13.9925c.04-.20875.22375-.36.435-.36l8.91875.001.005-.001c1.97625-.0375 2.96625-.8525 3.40375-2.8l.4475-2.3575h-11.62625c-.13375 0-.25875-.0588-.3425-.16125-.0838-.1025-.11875-.235-.0925-.365l1.65875-8.5825-11.685.29875c-.0788-.004-.155-.006-.23125-.006-1.65875.0325-2.555.805-3.02125 2.73375l-1.12 5.725c-.0412.2075-.2225.3575-.43375.3575h-6.17l-.26375 1.3925zm9.625 29.4825c-2.11875-.001-4.095-.36125-5.585-1.45375-1.4925-1.095-2.40375-2.93375-2.395-5.6225 0-.92625.10375-1.9575.3225-3.105l2.78-14.64875h-2.0125c-2.0875-.005-3.71125-1.6-3.705-3.8225 0-.3225.0337-.6575.1-.9975l.33125-1.75c.04-.20875.2225-.36.43625-.36h6.17l1.0525-5.38c.4475-2.18375 1.85875-3.47 3.88875-3.4375.0913 0 .185.002.245.007l12.19875-.31375c.13625-.004.26375.0537.35.15625.0875.10375.1225.23875.0975.37l-1.6625 8.5975h11.62375c.1325 0 .25875.0588.34125.16.0837.10125.11875.235.095.36625l-.54875 2.89c-.42 2.25625-1.99 3.55125-4.2725 3.51125l-.005.002h-8.5525l-2.6075 13.6325c-.0387.2-.0588.4025-.0588.605.0238 1.53625 1.0375 2.94125 3.215 2.96 0 0 8.53875 0 9.51625.005.1425 0 .275.0662.3575.18.0825.11625.105.2625.0625.3975l-2.2075 6.745c-.06.18-.23.305-.42125.305h-19.15zm74.40625-39.3775-6.92375 38.49125h14.11375l2.67-13.48125c.34625-1.86375.895-3.03625 2.04-3.75625 1.13125-.70875 2.67625-.96875 5.0575-1.3675.17-.0312.34375-.045.51875-.045 1.89875.0188 4.37375 1.49875 4.4225 3.9225 0 .2125-.0187.43-.0637.655l-2.8625 13.89 14.4225-.004c.47875-2.86625 3.37-21.0425 3.4975-21.7275h-.001c.0763-.42.11125-.7775.11125-1.0875-.005-.8625-.24-1.38875-.7275-2.05-1.0525-1.25875-3.06-1.80875-6.04-1.805-.65375 0-1.3525.025-2.0925.0738-7.26.47-10.895 1.725-12.865 3.13625-1.96625 1.41-2.365 2.985-3.17625 4.47125-.0775.14125-.22625.22875-.38625.22875h-.13c-.13125 0-.2575-.0575-.34125-.15875-.0837-.10125-.11875-.23625-.095-.365l4.065-21.68625h-12.12l-.04-.001h-.015c-1.4875.0537-2.45875.37-3.03875 2.66625m-7.4525 39.3775c-.1325 0-.255-.0587-.33875-.15875-.085-.10125-.12125-.23375-.0962-.3625l7.02-39.03375c.5475-2.62 2.21375-3.42625 3.90625-3.37375.004 0 .025-.001.055.001v-.001h12.655c.13125 0 .25625.0587.34.16125.0825.1.1175.235.0937.3625l-3.6765 19.61005c.4925-.825 1.165-1.6775 2.25625-2.4575 2.1975-1.565 5.98625-2.82125 13.3225-3.3.755-.0488 1.4725-.0763 2.15-.0763 3.06.004 5.35875.53125 6.73375 2.14.57.75.92625 1.55.92 2.60125 0 .37875-.0425.7875-.125 1.245l-.435-.0775.43375.0825c-.12.6425-3.4025 21.2825-3.56 22.0925-.0413.2075-.22375.3575-.43375.3575l-15.34.005c-.1325 0-.25875-.0613-.3425-.16375-.085-.10375-.11875-.24-.0913-.37l2.97125-14.41625c.0325-.165.0475-.325.0475-.48125.001-.86125-.475-1.60875-1.1825-2.165-.7025-.5525-1.6275-.87375-2.355-.87125-.1325 0-.25375.01-.36875.03-2.38375.39125-3.86125.68125-4.73375 1.24375-.85875.55-1.295 1.3675-1.64375 3.1775l-2.74125 13.84125c-.0425.2075-.22375.3575-.435.3575h-15.00625zm-44.07-3.7275c-.26125-.835-.33-1.76875-.33125-2.5475 0-.35625.0137-.68125.0375-.94375.0575-.81.185-1.6875.36375-2.63375l.425-2.23375c.61875-3.25625 1.565-5.68875 3.30375-7.32 1.7425-1.63125 4.2175-2.3725 7.7-2.36875h13.91c1.0375.002 1.62125-.14 1.92375-.3625.29875-.2125.47125-.55875.605-1.2475.045-.2375.0675-.43875.0675-.6-.0175-.37-.0675-.46125-.275-.6-.22125-.14-.7325-.25125-1.5725-.245h-15.20375c-1.83.002-3.0475-.525-3.77625-1.34625-.72625-.82-.925-1.8525-.925-2.75875.002-1.3675.445-2.5125.455-2.54125.0637-.17125.23-.28375.4125-.28375h27.82125v.4425.4425h-27.50125c-.0312.10125-.0662.22875-.1025.3775-.1.41125-.2.975-.19875 1.5625-.001.78375.17625 1.58125.7025 2.17125.52375.58625 1.43625 1.04375 3.1125 1.04625h15.20375c.90375.005 1.53625.09 2.02375.37.50375.2825.72625.835.70875 1.3625 0 .24-.0325.4925-.0813.76375-.1425.755-.385 1.395-.96375 1.8075-.57625.4-1.3375.52-2.43625.52375h-13.91c-3.37375.002-5.5725.7075-7.095 2.13125-1.52625 1.4225-2.43625 3.655-3.04 6.8375l-.42375 2.2325c-.17625.925-.295 1.76875-.35125 2.54125-.0213.23875-.035.54125-.035.8725-.001.7225.0725 1.5875.28875 2.2775.68125 2.07875 2.52 3.08875 6.69125 3.11125h33.11l4.28875-24.115c-.0138-.74625-.23125-2.16875-1.51375-3.42625-1.30625-1.27875-3.78-2.4425-8.4775-2.4475v-.4425-.4425c4.83375 0 7.57125 1.20625 9.0975 2.7 1.52375 1.49375 1.77375 3.21375 1.77875 4.0925l-.006.08-4.35875 24.52125c-.0387.2125-.22125.36625-.4375.36625h-33.48125-.12625c-4.1725 0-6.5925-1.17-7.4075-3.7275m97.15125 2.84125h32.02875c-.29875-.81-.55-1.70125-.54625-3.03625 0-.95125.12-2.13.42-3.6975l4.41375-23.255-11.80625-.001c-.0875-.008-.18-.0113-.27125-.0113-1.04625.0412-2.2875.33375-2.8125 2.70875l-3.63625 19.2125c-.18875.99375-.495 1.74625-1.085 2.25125-.59125.5025-1.3775.67125-2.35875.67125h-5.565c-.7925-.002-1.41625-.1-1.89875-.44125-.49-.34875-.69625-.94-.68875-1.58875 0-.31875.0425-.66875.11625-1.05625l3.4175-17.99375c.0413-.24125.0588-.4725.0588-.69125-.007-1.8425-1.345-2.9575-2.9775-3.06h-12.155c.295.8825.5125 1.89375.5125 3.24125 0 .81625-.08 1.7575-.26 2.8775-.0162.145-.05.33625-.115.74375-.0713.44875-.17625 1.08-.3 1.83875-.24875 1.51875-.58125 3.5525-.91125 5.67375-.66125 4.23-1.32375 8.85375-1.32 10.27-.001.14625.009.25375.0162.28625.725 3.2175 2.97 5.02125 7.72375 5.0575m-8.59125-4.8775.4325-.0937-.435.0863c-.0263-.14125-.0325-.2825-.0325-.45875.006-3.0225 2.49625-17.48125 2.64875-18.59125l.004-.004v-.002l.005-.07c.175-1.0825.24875-1.97625.24875-2.73625-.002-1.54875-.295-2.5425-.66875-3.525-.0525-.13625-.0337-.29.0487-.41.0812-.12.21875-.19125.365-.19125h12.8075c2.03625.09 3.84875 1.61125 3.84125 3.945 0 .27125-.0238.55125-.0738.8475l-3.42125 18.00375c-.0662.35-.0987.64625-.0987.89.007.51125.1175.71625.3225.87.2125.1625.6625.2775 1.37875.275h5.565c.89375 0 1.43125-.1575 1.785-.46125.35625-.30125.61625-.83.7875-1.74l3.63875-19.22c.52625-2.745 2.39-3.46375 3.68125-3.4225.11875 0 .23125.006.30625.0125h12.3075c.13125 0 .2575.0587.34.16.085.10125.11875.235.095.36625l-4.51625 23.78c-.2925 1.53-.40375 2.65375-.40375 3.53125.004 1.5375.32875 2.30375.7175 3.32125.0512.13625.0337.2875-.0488.40875s-.21875.1925-.36375.1925h-32.6725c-.0412 0-.0825.001-.125.001-4.89375-.001-7.72125-2.16625-8.46625-5.765" fill="#fff"/><path d="m388.94245 450.27948h64.05125v-36.0225h-64.05125z" fill="#100f0d"/><path d="m404.19532 419.05261c-2.5875 4.205-5.6925 7.9425-9.13 11.275.305-3.51 1.19875-7.60875 1.775-11.275z" fill="#fff"/><path d="m398.11995 419.05948h55.07625v-4.86875h-55.07625z"/><path d="m375.17982 450.23248 2.305-13.00125h-.035l2.1625-11.3825 2.21625-11.6575h19.17l-1.49875 7.8775-1.48 7.80125h-.002l-1.09125 5.7475-.3075 1.61375h-6.04l-.63125 3.32h6.06l-1.53375 8.075-.28375 1.61375-19.01-.007z"/><path d="m440.1247 436.96536c-4.345-6.58125-16.855-3.675-22.06625-.13-2.92875 1.995-4.4875 5.7725-6.50875 8.2925h6.41125c1.94625-5.5425 11.56125-9.80875 17.62-6.255.6575.3925 2.56375 1.56375 1.375 3.38-.0613.1725-.11875.27625-.11875.27625.0487-.095.08-.185.11875-.27625.21625-.6075.5875-2.425-1.65875-3.18625-2.8575-.4425-4.15 4.80125-1.51375 5.915 5.17125 2.18625 9.5925-3.595 6.34125-8.01625" fill="#fff"/><path d="m427.9642 444.80911h4.75875c-1.5925-2.78875-4.03375-7.79375-8.19625-4.86875-.41625.29125-1.86375 2.5525-.25375 4.13625 1.725 1.6975 3.34375-.5275 2.52125-2.01-.009-.0113-.0188-.0175-.025-.03-.35-.5875-1.0575.2-1.0575.2.5775-1.36 1.83125.37 1.83125.37l-.015-.004c.34.53625.4625 1.29625.43625 2.20625" fill="#fff"/><path d="m390.9262 450.24073h62.27v-5.1425h-62.27z"/><path d="m379.43395 435.28523 1.56625-8.24375 9.29-1.27.007-.0437-8.77-1.4625 1.52875-8.0525h15.13125l-.91 4.78875h-11.5275l-.007.0425 11.10125 2.2475-.935 4.91625-11.95375 2.245-.007.0425h11.5275l-.91125 4.79h-15.13zm12.67875 12.90375 1.08625-5.72h-6.06l1.05-5.5325h-3.22125l-1.04875 5.5325h-2.24875l1.145-6.01875h-3.6025l-2.08 11.7325c.001-.002 14.98.006 14.98.006" fill="#fff"/><path d="m453.24557 427.19836v12.67c-11.4475-4.60375-24.19375-10.62-39.8775-10.66-4.71625-.0125-8.36625 3.75-4.82 7.7575-3.42875-5.385 1.88375-6.91125 3.265-6.0325 9.07 5.0125-1.71875 18.9625-9.86 10.81625-5.115-5.77-3.13-15.2375 1.9025-19.39375 6.67875-5.515 23.96-3.90125 30.1025-1.74375 6.14375 2.155 12.76375 4.1975 19.2275 6.5275" fill="#fff"/><path d="m452.07807 444.86823h1.05125v-1.0475c-.15.51125-.3425.8025-1.05125 1.0475m-2.91125 0h1.46625c2.92125-.6475 2.91375-4.76-.39125-5.1025 1.68 1.57125.5525 4.33375-1.075 5.1025m-2.3025 0h .49875c3.69-.39625 3.67-5.8575.09-6.38625 2.20875 1.51125 1.2375 5.1925-.58875 6.38625m-2.89625 0h1.155c3.74625-.65625 3.75-6.98375-.08-7.0275 2.94375 1.535 1.1525 6.03625-1.075 7.0275m-2.89625 0h1.05625c4.17625-.53625 5.06-6.1075 1.3925-7.81375-.88875-.29375-.90125-.545-1.92375-.7625 3.51375 1.83 2.82875 7.50375-.525 8.57625m-1.735-9.21125c2.30625 2.09625 3.11 6.6375.5225 9.10375 5.425-1.2375 3.86-7.96125-.5225-9.10375m-7.22875 7.4475c-1.07-3.33125 2.23-4.485 2.23-4.485-3.04-.27375-3.92875 3.43625-2.23 4.485m-1.685-2.54.0487.0587c.0538.055-.01-.015-.0487-.0587m-1.3075-1.35375c-.1475-.45375-.12125-.81625.4375-1.26375 0 0-1.62875.64875-2.2225.74.615.10125 1.33-.0113 1.785.52375m-1.9525 4.15125c.1.8225-.34125 1.0975-.65125 1.50625h1.09c.0138-.3275.0312-1.50375-.43875-1.50625m-3.47375 1.50625h.99625c-.2675-.14125-2.3875-1.63-1.015-4.27375.0137-.15625.28875-.52.55625-.69625.43125-.3775 1.17125-.435.52625-.5175-.43375-.0425-1.41125.49375-1.52125.89875-1.035 1.41125-.91 3.87125.4575 4.58875m-1.5425 0h .95c-.32125-.27875-1.435-.82875-.87875-3.305-1.4225.42875-1.63625 2.7125-.0712 3.305m-1.57875-2.2775c-.255.54-.97 1.43875-.28375 2.2775h.8975c-.545-.8875-.8025-1.26375-.61375-2.2775m-1.72875 2.2775h.89c-.13-.21.005-1.01125-.2025-.91375-.59375.28125-.66.725-.6875.91375m-26.2975-4.65125h1.39625c-.0437-.77-.49625-1.83125-.38125-2.7625h-1.015c-.315.6425.11125 1.9475 0 2.7625m-1.585-2.69875c-.2425.76625-.4775 2.0725-.58125 2.7625l1.65875-.0638c-.015-.75125-.29375-1.94875-.2525-2.7625zm4.30875-.03-1.20125-.0337c.1325 1.04125.3875 2.0125.75625 2.88125h1.4425l-.35 1.83875c1.01375 1.22875 2.4225 2.005 4.2375 2.08625-2.745-1.06375-3.9675-4.13-4.885-6.7725m.30125 6.5075c.79875.3825 1.855.5625 2.80875.64875-.96625-.54-1.755-1.25875-2.55875-1.965zm-.0975.52125h.2425s-.0925-.0238-.23-.07zm9.50125-.25625c-5.83375-2.03125-7.8875-8.865-5.83375-16.05-.24875.175-.47875.37-.6975.57375l-.165.86875-.002.001-1.39875 7.71375h-.75625c.695 4.5775 3.9725 8.335 8.85375 6.8925m6.84875-13.74c2.355 1.29625 3.84875 3.465 3.8025 7.19125 1.255-3.2425-1.00125-6.69625-3.8025-7.19125m.2525-.77c2.8 1.0475 4.61875 3.66875 4.56375 7.19 2.79625-2.83-.2025-8.13625-4.56375-7.19m3.93125.25625c1.65125 1.15375 2.64125 2.97625 2.40875 6.035 2.785-1.3275 1.21625-6.6975-2.40875-6.035m2.53625 0c1.3475.84125 2.23 2.8575 1.64875 4.88 2.8375-.9925 1.39125-5.65625-1.64875-4.88m2.91625.38625c.9125.5025 1.0925 2.325.63375 3.4675 2.0025-.345.97625-3.91875-.63375-3.4675m1.7525.18c.27375.90375.9 1.9875.27625 3.03 2.0775-.3025 2.26875-3.10875-.27625-3.03m2.30625.4625.0475.002c-.0225-.06-.0337-.12625-.0588-.1825l.0113.18zm1.25625.715c-.0113-.3875-.1775-.545-.5975-.67125l-.61125-.0412c.2675.7375.2725 1.6075-.175 2.05125.78-.195 1.42-.31875 1.38375-1.33875m3.56125.44c-.71375-.4225-2.1975-.58625-3.275-.95875.4475.3525.81375.9425-.0213 1.60125 1.32625.035 2.9175-.11875 3.29625-.6425m1.53875 5.85625c-1.335-.16875-3.5025-.21875-1.82625 2.0825-.345-.37875.0825-2.0375 1.82625-2.0825m1.42625.2875s-4.6225-.46875-2.2625 2.9975c0 0-.54875-2.445 2.2625-2.9975m9.845-18.97875c-2.565.10125-10.175-.0225-10.175-.0225s6.28125 2.2475 10.0475 3.68625c-.9225-.93125-1.23-3.04625.1275-3.66375m4.18375 0c-5.70625-.97875-4.5325 4.81125-.76 4.71125-1.79125-1.04-1.1975-4.37625.76-4.71125m3.2975 0c-5.45375-.81875-5.44 4.98875-1.2675 5.7575-1.8975-1.645-1.5-5.48875 1.2675-5.7575m2.53625.13125c-4.7375-.89875-5.62125 6.015-1.015 6.28-2.35-1.51875-1.0025-5.5525 1.015-6.28m0 .80125c-2.0175.535-2.395 5.06.0712 5.66625-.0512-2.08125.0263-4.52-.0712-5.66625m0-.0163v.0163c.0312-.009.0575-.0238.0888-.03l-.0888.0138z" fill="#e41b2f"/></g></svg>