<?xml version="1.0" encoding="UTF-8" standalone="no"?>
<!-- Created with Inkscape (http://www.inkscape.org/) -->

<svg
   xmlns:dc="http://purl.org/dc/elements/1.1/"
   xmlns:cc="http://creativecommons.org/ns#"
   xmlns:rdf="http://www.w3.org/1999/02/22-rdf-syntax-ns#"
   xmlns:svg="http://www.w3.org/2000/svg"
   xmlns="http://www.w3.org/2000/svg"
   xmlns:sodipodi="http://sodipodi.sourceforge.net/DTD/sodipodi-0.dtd"
   xmlns:inkscape="http://www.inkscape.org/namespaces/inkscape"
   width="68.760521mm"
   height="13.338846mm"
   viewBox="0 0 243.63964 47.263628"
   id="svg5239"
   version="1.1"
   inkscape:version="0.91 r13725"
   sodipodi:docname="Tahu FM - Dark.svg">
  <defs
     id="defs5241" />
  <sodipodi:namedview
     id="base"
     pagecolor="#ffffff"
     bordercolor="#666666"
     borderopacity="1.0"
     inkscape:pageopacity="0.0"
     inkscape:pageshadow="2"
     inkscape:zoom="5.6"
     inkscape:cx="117.40796"
     inkscape:cy="54.546929"
     inkscape:document-units="px"
     inkscape:current-layer="layer1"
     showgrid="false"
     fit-margin-top="0"
     fit-margin-left="0"
     fit-margin-right="0"
     fit-margin-bottom="0"
     inkscape:window-width="1920"
     inkscape:window-height="1017"
     inkscape:window-x="-8"
     inkscape:window-y="-8"
     inkscape:window-maximized="1" />
  <metadata
     id="metadata5244">
    <rdf:RDF>
      <cc:Work
         rdf:about="">
        <dc:format>image/svg+xml</dc:format>
        <dc:type
           rdf:resource="http://purl.org/dc/dcmitype/StillImage" />
        <dc:title></dc:title>
      </cc:Work>
    </rdf:RDF>
  </metadata>
  <g
     inkscape:label="Layer 1"
     inkscape:groupmode="layer"
     id="layer1"
     transform="translate(-209.60897,-403.01585)">
    <path
       inkscape:connector-curvature="0"
       id="path176"
       style="fill:#000000;fill-opacity:1;fill-rule:nonzero;stroke:none"
       d="m 269.87607,434.66761 -0.34875,1.8875 c -0.18375,1.0425 -0.3725,1.77875 -0.53625,2.2125 -0.115,0.31375 -0.21125,0.46 -0.24125,0.49875 -0.1125,0.0387 -0.595,0.13125 -1.4975,0.11875 l -3.72,0 c -0.1275,-0.005 -0.24625,-0.009 -0.355,-0.015 l 0.6925,-3.8825 c 0.0612,-0.3525 0.1325,-0.58375 0.17875,-0.70625 0.0475,-0.01 0.1125,-0.0238 0.1975,-0.0362 0.23125,-0.035 0.58875,-0.0625 1.05,-0.0775 l 4.58,0 z m 1.18125,2.26875 0.73875,-3.8825 -6.25625,0 c -1.16,0.0275 -1.91875,0.1425 -2.36875,0.435 -0.445,0.28 -0.7425,0.7625 -0.95125,1.83625 l -0.67375,3.55375 c -0.0675,0.35 -0.0987,0.6425 -0.0987,0.87625 0.0225,0.605 0.1375,0.755 0.45375,0.93875 0.33875,0.18 1.01125,0.27 1.95,0.2925 l 3.565,0 c 1.45875,0.001 2.125,-0.13375 2.525,-0.58125 0.43625,-0.45125 0.75125,-1.5 1.11625,-3.46875 m 108.51875,-20.435 c 0.0838,0.10125 0.1175,0.23625 0.0937,0.36625 l -4.51625,23.78125 c -0.29125,1.53 -0.40375,2.65375 -0.40375,3.53125 0.005,1.53625 0.32875,2.30375 0.7175,3.32 0.0513,0.1375 0.0338,0.28875 -0.0487,0.41 -0.0825,0.12125 -0.21875,0.1925 -0.365,0.1925 l -32.67125,0 -0.125,0 c -4.89375,0 -7.72,-2.165 -8.46625,-5.765 l 0.4325,-0.0925 -0.43375,0.0863 c -0.0275,-0.14125 -0.0338,-0.28375 -0.0338,-0.45875 0.006,-3.0225 2.4975,-17.4825 2.64875,-18.59125 l 0.004,-0.004 0,-0.002 0.005,-0.07 c 0.175,-1.08375 0.25,-1.9775 0.25,-2.7375 -0.004,-1.5475 -0.295,-2.5425 -0.67,-3.525 -0.0525,-0.135 -0.0338,-0.29 0.0475,-0.40875 0.0837,-0.12125 0.22125,-0.1925 0.36625,-0.1925 l 12.8075,0.001 c 2.0375,0.0888 3.84875,1.61125 3.84125,3.94375 0,0.27125 -0.0237,0.55125 -0.0737,0.84875 l -3.42,18.00375 c -0.0688,0.34875 -0.1,0.64625 -0.1,0.88875 0.009,0.5125 0.1175,0.7175 0.32125,0.87125 0.2125,0.16125 0.66375,0.2775 1.38,0.27375 l 5.56625,0 c 0.89125,0 1.43,-0.1575 1.78375,-0.46125 0.35625,-0.29875 0.61625,-0.82875 0.7875,-1.74 l 3.63875,-19.21875 c 0.52625,-2.74625 2.39125,-3.46375 3.68125,-3.42375 0.11875,0 0.23125,0.006 0.30625,0.0125 l 12.3075,0 c 0.13125,0 0.2575,0.06 0.34125,0.16 m -44.93375,7.71375 c 0,0.37875 -0.0425,0.78625 -0.125,1.245 l -0.43125,-0.0762 0.43,0.08 c -0.12125,0.64375 -3.40125,21.2825 -3.56,22.09375 -0.04,0.2075 -0.22375,0.3575 -0.43375,0.3575 l -15.33875,0.004 c -0.13375,0 -0.26,-0.0613 -0.34375,-0.16375 -0.085,-0.10375 -0.11875,-0.23875 -0.0913,-0.36875 l 2.97125,-14.41625 c 0.0325,-0.16625 0.0475,-0.3275 0.0475,-0.48125 0.001,-0.86125 -0.475,-1.60875 -1.1825,-2.16625 -0.70125,-0.5525 -1.62625,-0.8725 -2.355,-0.87125 -0.1325,0 -0.25375,0.0113 -0.36875,0.03 -2.385,0.39125 -3.86125,0.68125 -4.73375,1.245 -0.85875,0.54875 -1.29375,1.3675 -1.64375,3.1775 l -2.7425,13.84125 c -0.0412,0.2075 -0.2225,0.3575 -0.43375,0.3575 l -15.00625,0 c -0.13125,0 -0.255,-0.0587 -0.33875,-0.16 -0.085,-0.1 -0.12,-0.2325 -0.0962,-0.36125 l 7.02,-39.035 c 0.5475,-2.61875 2.21375,-3.42625 3.90625,-3.37375 0.005,0 0.025,0 0.055,0.001 l 0,-0.001 12.655,0 c 0.13125,0 0.25625,0.06 0.34125,0.1625 0.0812,0.1 0.11625,0.23375 0.0925,0.3625 l -3.6752,19.6088 c 0.49125,-0.82375 1.16375,-1.6775 2.25625,-2.45625 2.19625,-1.565 5.98625,-2.82125 13.32125,-3.30125 0.75625,-0.0487 1.4725,-0.0763 2.15,-0.0763 3.06,0.004 5.36,0.5325 6.73375,2.14125 0.57,0.75 0.92625,1.54875 0.92,2.60125 m -43.5925,-1.08125 -0.007,0.0812 -4.35875,24.52125 c -0.0387,0.2125 -0.22125,0.36625 -0.43625,0.36625 l -33.4825,0 -0.12625,0 c -4.1725,0 -6.59125,-1.17125 -7.4075,-3.72875 -0.26,-0.83375 -0.33,-1.7675 -0.33125,-2.54625 0,-0.3575 0.0137,-0.6825 0.0375,-0.94375 0.0588,-0.81 0.185,-1.6875 0.365,-2.635 l 0.42375,-2.23375 c 0.61875,-3.25625 1.565,-5.6875 3.30375,-7.31875 1.7425,-1.63125 4.2175,-2.3725 7.70125,-2.36875 l 13.91,0 c 1.03625,0.001 1.62,-0.14 1.9225,-0.3625 0.3,-0.2125 0.4725,-0.55875 0.605,-1.24875 0.045,-0.23625 0.0675,-0.4375 0.0675,-0.59875 -0.0175,-0.37 -0.0675,-0.46125 -0.275,-0.6 -0.22125,-0.14 -0.7325,-0.2525 -1.5725,-0.24625 l -15.20375,0 c -1.83,0.004 -3.04625,-0.525 -3.775,-1.34625 -0.72625,-0.82 -0.92625,-1.8525 -0.92625,-2.75875 0.003,-1.3675 0.44625,-2.51125 0.455,-2.54125 0.065,-0.17 0.23,-0.28375 0.41375,-0.28375 l 27.82,0 c 4.83375,0.001 7.57125,1.2075 9.0975,2.7 1.525,1.49375 1.775,3.21375 1.78,4.0925 m 91.31375,-8.9425 -15.35,0 c -0.13625,-0.009 -0.26625,-0.0112 -0.38875,-0.0112 -0.9425,-0.004 -2.22875,0.20875 -3.41,1.08625 -1.18875,0.8725 -2.03125,2.325 -2.37125,4.05 l -0.006,0.0312 -3.63875,19.2325 c -0.0362,0.19 -0.0737,0.33875 -0.1075,0.44125 -0.0887,0.009 -0.21,0.015 -0.35875,0.015 l -4.96375,0 3.33625,-17.56875 0,0.002 c 0.0637,-0.3925 0.0987,-0.7875 0.0987,-1.18625 0.0125,-1.69875 -0.6875,-3.3 -1.8075,-4.36125 -1.115,-1.07375 -2.57125,-1.65 -4.06875,-1.7275 l -0.0588,-0.004 -16.62125,0 1.34375,3.5125 c 0.21125,0.56625 0.365,1.0225 0.45,1.6175 -0.84625,-0.68375 -1.835,-1.15125 -2.8525,-1.445 -1.41625,-0.41125 -2.93375,-0.54875 -4.595,-0.55125 -0.73625,0 -1.49875,0.03 -2.29375,0.08 -5.74875,0.38375 -9.53875,1.21 -12.2325,2.445 l 3.15375,-16.83375 -15.7725,0 -0.0588,0 c -1.0739,-0.004 -2.45015,0.19245 -3.6714,1.10745 -1.225,0.91625 -1.965,2.34 -2.32125,3.9325 l -0.0125,0.0525 -1.92375,10.70625 c -0.29625,-0.44375 -0.65625,-0.88375 -1.09,-1.30875 -2.0525,-2.01125 -5.43375,-3.32125 -10.5975,-3.315 l -29.60125,0 -0.63625,1.6625 c -0.05,0.1625 -0.58125,1.47125 -0.59625,3.31 0,1.2 0.25625,2.805 1.47,4.185 0.455,0.52 1.01625,0.94375 1.65375,1.26875 -1.90125,0.445 -3.5525,1.25 -4.89875,2.51375 -2.255,2.135 -3.28625,5.05625 -3.94625,8.49 l -0.42375,2.235 c -0.03,0.16125 -0.06,0.32125 -0.0875,0.47875 -2.21375,-10e-4 -8.91375,-10e-4 -8.9175,-10e-4 -0.60875,-0.015 -0.75375,-0.16 -0.8725,-0.2625 -0.1075,-0.11 -0.195,-0.295 -0.19625,-0.555 0,-0.07 0.006,-0.13625 0.0175,-0.1925 l -2.10625,-0.41125 c -0.0375,0.1975 -0.0563,0.3975 -0.0563,0.5975 0.0238,1.535 1.03625,2.94125 3.21375,2.95875 0,0 8.54,0 9.51625,0.005 0.1425,0 0.275,0.0663 0.35875,0.18125 0.0825,0.115 0.105,0.2625 0.0613,0.3975 l -2.20625,6.74375 c -0.0613,0.1825 -0.23125,0.30625 -0.4225,0.30625 l -19.15,0 c -2.1175,-0.002 -4.095,-0.36125 -5.58375,-1.45375 -1.49375,-1.095 -2.405,-2.935 -2.39625,-5.6225 0,-0.92625 0.10375,-1.95875 0.3225,-3.10625 l 2.78125,-14.64875 -2.01375,0 c -2.0875,-0.004 -3.71125,-1.59875 -3.70375,-3.82125 0,-0.3225 0.0325,-0.6575 0.0987,-0.9975 l 0.3325,-1.75125 c 0.0387,-0.20875 0.2225,-0.36 0.435,-0.36 l 6.17,0 1.05375,-5.37875 c 0.44625,-2.185 1.8575,-3.47 3.8875,-3.4375 0.0925,0 0.18625,0.002 0.245,0.006 l 12.19875,-0.3125 c 0.13625,-0.004 0.26375,0.0537 0.35,0.15625 0.0875,0.1025 0.1225,0.2375 0.0975,0.37 l -1.6625,8.59625 11.62375,0 c 0.1325,0 0.25875,0.06 0.34125,0.16 0.085,0.10125 0.11875,0.23625 0.095,0.36625 l -0.54875,2.89 c -0.42,2.2575 -1.99,3.55125 -4.2725,3.51125 l -0.005,0.002 -8.55125,0 -2.60875,13.6325 c 0,0.002 0,0.005 -0.001,0.006 l 2.10875,0.40375 2.275,-11.90125 6.7775,0 0.005,0 c 1.47375,0.01 3.00375,-0.3875 4.20375,-1.38 1.2025,-0.9875 1.88375,-2.40375 2.1725,-3.85125 l 1.13625,-5.99 -12.15125,0 1.77875,-9.21125 -15.33125,0.39375 c -0.0863,-0.002 -0.1775,-0.006 -0.275,-0.006 -1.3875,-0.015 -2.87875,0.43625 -3.9725,1.4325 -1.10125,0.98625 -1.70625,2.31 -2.01125,3.685 l -0.004,0.0188 -0.72125,3.6875 -6.5475,0 -0.73,3.8575 c -0.0888,0.455 -0.1375,0.9275 -0.1375,1.3975 -0.009,1.60375 0.5875,3.1575 1.67625,4.255 0.95,0.9725 2.24375,1.55875 3.60125,1.68625 l -2.30375,12.13875 c -0.23875,1.25875 -0.36,2.42 -0.36125,3.5075 -0.0463,3.12875 1.15875,5.84 3.2675,7.35125 2.08,1.50875 4.51,1.86375 6.86,1.875 l 21.02625,0 0.98625,-3.01375 c 0.645,0.80875 1.475,1.47875 2.4175,1.91625 1.715,0.8225 3.66375,1.09 5.9875,1.0975 l 33.4425,0 20.2275,0 3.15375,-15.93625 c 0.15,-0.80625 0.3175,-1.27875 0.43,-1.485 0.19375,-0.28125 0.0613,-0.21375 0.64375,-0.48125 0.57,-0.2275 1.7775,-0.46875 3.55125,-0.75625 l 0.007,-0.001 0.009,0 c 0.14375,-0.0213 0.72125,0.1475 1.035,0.41625 0.3475,0.28625 0.3625,0.44375 0.35875,0.4775 0,0.0162 -10e-4,0.0375 -0.007,0.0712 l -3.60625,17.51125 20.64625,-0.004 0.40875,-2.0925 c 0.035,-0.19125 0.1225,-0.71 0.25,-1.50625 0.54125,0.73 1.1975,1.3775 1.97,1.90375 1.92125,1.32125 4.3275,1.88125 7.1,1.8825 l 36.44625,0 -1.36,-3.52 c -0.39875,-1.07 -0.54875,-1.33125 -0.57375,-2.55 0,-0.69 0.0913,-1.69 0.3675,-3.13375 l 5.0975,-26.865 z" />
    <path
       inkscape:connector-curvature="0"
       id="path180"
       style="fill:#e41b2f;fill-opacity:1;fill-rule:nonzero;stroke:none"
       d="m 374.28482,440.48223 c -0.3,1.5675 -0.41875,2.74625 -0.41875,3.6975 -0.005,1.335 0.2475,2.225 0.54375,3.03625 l -32.0275,0 c -4.755,-0.0362 -6.99875,-1.84 -7.72375,-5.0575 l 10e-4,0 c -0.009,-0.0325 -0.0175,-0.14 -0.0175,-0.285 -0.005,-1.41875 0.6575,-6.0425 1.32,-10.27125 0.33125,-2.12125 0.66125,-4.155 0.91125,-5.675 0.12375,-0.7575 0.22875,-1.38875 0.30125,-1.8375 0.0625,-0.4075 0.0988,-0.6 0.11375,-0.74375 0.18,-1.12125 0.26,-2.06125 0.26,-2.87875 0,-1.3475 -0.2175,-2.35875 -0.51125,-3.24125 l 12.155,0 c 1.63125,0.1025 2.97,1.21875 2.9775,3.06 0,0.22 -0.0188,0.45 -0.0588,0.6925 l -3.41875,17.9925 c -0.075,0.38875 -0.11625,0.7375 -0.11625,1.0575 -0.007,0.64875 0.19875,1.24 0.69,1.5875 0.48125,0.3425 1.105,0.44 1.8975,0.4425 l 5.56625,0 c 0.98,0 1.76625,-0.16875 2.3575,-0.6725 0.59,-0.50375 0.89625,-1.2575 1.085,-2.25 l 3.63625,-19.2125 c 0.525,-2.375 1.76625,-2.6675 2.8125,-2.70875 0.0913,0 0.185,0.004 0.2725,0.01 l 11.805,10e-4 -4.41375,23.25625 z m -40.52875,-16.2675 c -0.005,-0.8625 -0.24,-1.39 -0.72625,-2.05 -1.05375,-1.25875 -3.06125,-1.80875 -6.04125,-1.80625 -0.65375,0 -1.35125,0.0263 -2.0925,0.075 -7.26,0.47 -10.895,1.72375 -12.86375,3.13625 -1.9675,1.41 -2.365,2.985 -3.1775,4.47125 -0.0775,0.14 -0.225,0.22875 -0.38625,0.22875 l -0.13125,0 c -0.13,0 -0.25625,-0.0587 -0.34,-0.15875 -0.0838,-0.10125 -0.12,-0.23625 -0.095,-0.365 l 4.065,-21.68625 -12.12,0 -0.04,-10e-4 -0.015,0 c -1.4875,0.0525 -2.4575,0.37 -3.03875,2.66625 l -6.92375,38.49125 14.11375,0 2.67,-13.4825 c 0.34625,-1.86375 0.89625,-3.035 2.04,-3.755 1.13125,-0.71 2.67625,-0.96875 5.0575,-1.3675 0.17125,-0.0312 0.34375,-0.0437 0.51875,-0.0437 1.9,0.0175 4.375,1.4975 4.42375,3.92125 0,0.21375 -0.02,0.43 -0.065,0.655 l -2.8625,13.88875 14.4225,-0.003 c 0.47875,-2.8675 3.37,-21.0425 3.4975,-21.7275 l -0.001,0 c 0.0775,-0.42 0.11125,-0.7775 0.11125,-1.0875 m -61.08375,8.115 c -0.0838,-0.10125 -0.21,-0.16125 -0.34125,-0.16125 l -6.80375,0 c -1.2,0.0362 -2.1,0.12 -2.8275,0.57 -0.73375,0.4575 -1.13375,1.25875 -1.34875,2.42125 l -0.67625,3.55375 c -0.0725,0.38625 -0.11375,0.73125 -0.11375,1.04125 -0.0213,0.775 0.31625,1.435 0.93875,1.72875 0.6025,0.2975 1.3525,0.355 2.34,0.38875 l 3.57625,0 c 1.4575,-10e-4 2.455,-0.0962 3.1775,-0.8675 0.685,-0.76625 0.94875,-1.92125 1.33375,-3.90125 l 0.83875,-4.41 c 0.0238,-0.12875 -0.01,-0.26375 -0.0937,-0.36375 m 13.20375,14.88625 -33.11125,0 c -4.17125,-0.0238 -6.01,-1.0325 -6.69125,-3.11 -0.21625,-0.69125 -0.29,-1.55625 -0.28875,-2.27875 0,-0.3325 0.015,-0.63375 0.0362,-0.8725 0.0538,-0.7725 0.17375,-1.6175 0.35,-2.5425 l 0.42375,-2.23125 c 0.60375,-3.1825 1.51375,-5.415 3.04,-6.8375 1.5225,-1.425 3.72125,-2.12875 7.09625,-2.13125 l 13.91,0 c 1.0975,-0.004 1.85875,-0.12375 2.435,-0.525 0.57875,-0.41125 0.82125,-1.0525 0.96375,-1.80625 0.05,-0.27125 0.0813,-0.5225 0.0813,-0.76375 0.0175,-0.5275 -0.205,-1.08 -0.7075,-1.3625 -0.48875,-0.28125 -1.12125,-0.365 -2.025,-0.37 l -15.20375,0 c -1.675,-0.002 -2.58875,-0.46125 -3.1125,-1.0475 -0.52625,-0.59 -0.70375,-1.38625 -0.7025,-2.17 -10e-4,-0.5875 0.0987,-1.15125 0.19875,-1.56375 0.0363,-0.1475 0.0725,-0.275 0.1025,-0.3775 l 27.50125,0 c 4.6975,0.006 7.17125,1.16875 8.4775,2.44875 1.2825,1.2575 1.5,2.68 1.51375,3.42625 l -4.2875,24.115 z m -50.22875,-39.0975 -11.68375,0.29875 c -0.08,-0.004 -0.15625,-0.006 -0.2325,-0.006 -1.65875,0.0325 -2.55375,0.805 -3.02125,2.7325 l -1.12,5.725 c -0.04,0.2075 -0.2225,0.3575 -0.43375,0.3575 l -6.17,0 -0.26375,1.39375 c -0.0562,0.29125 -0.0837,0.5675 -0.0837,0.83 0.0175,1.79125 1.18625,2.90875 2.82125,2.935 l 2.54625,0 c 0.1325,0 0.25625,0.0588 0.34125,0.16125 0.0825,0.1 0.1175,0.23625 0.0925,0.365 l -2.88,15.175 c -0.21,1.10375 -0.30625,2.08 -0.30625,2.94 0.008,2.50875 0.795,3.98625 2.03625,4.91 1.24375,0.92375 3.035,1.28125 5.0575,1.28 l 18.82875,-10e-4 1.91875,-5.8575 c -2.21,-10e-4 -8.89625,-0.002 -8.905,-10e-4 -1.3025,10e-4 -2.3475,-0.4575 -3.0475,-1.18125 -0.7,-0.72375 -1.0525,-1.6875 -1.0525,-2.665 0,-0.2575 0.0238,-0.5175 0.0737,-0.77375 l 0.001,0 2.67625,-13.99125 c 0.0387,-0.20875 0.22125,-0.36 0.43375,-0.36 l 8.91875,10e-4 0.005,-10e-4 c 1.97625,-0.0388 2.96625,-0.8525 3.405,-2.8 l 0.445,-2.35875 -11.625,0 c -0.1325,0 -0.2575,-0.0575 -0.3425,-0.16 -0.0837,-0.1025 -0.1175,-0.235 -0.0937,-0.365 l 1.66,-8.5825 z" />
    <path
       inkscape:connector-curvature="0"
       id="path184"
       style="fill:#ffffff;fill-opacity:1;fill-rule:nonzero;stroke:none"
       d="m 263.17132,433.48823 c -0.445,0.28125 -0.7425,0.7625 -0.95125,1.83625 l -0.675,3.555 c -0.0663,0.35 -0.0987,0.64125 -0.0987,0.875 0.0238,0.605 0.13875,0.75625 0.455,0.94 0.33875,0.18 1.01125,0.27 1.95,0.29125 l 3.565,0 c 1.45875,0.002 2.125,-0.13375 2.52375,-0.58125 0.4375,-0.45125 0.7525,-1.49875 1.1175,-3.4675 l 0.73875,-3.8825 -6.2575,0 c -1.15875,0.0275 -1.9175,0.1425 -2.3675,0.43375 m 0.6675,8.38375 c -0.98625,-0.0337 -1.7375,-0.0913 -2.33875,-0.38875 -0.62125,-0.29375 -0.96125,-0.95375 -0.93875,-1.72875 0,-0.31 0.04,-0.655 0.115,-1.04125 l 0.67375,-3.5525 c 0.21625,-1.1625 0.61625,-1.96375 1.35,-2.4225 0.7275,-0.45 1.6275,-0.5325 2.8275,-0.56875 l 6.8025,0 0,0.4425 0,-0.4425 c 0.13125,0 0.25875,0.0587 0.3425,0.15875 0.0825,0.1025 0.1175,0.2375 0.0937,0.365 l -0.83875,4.41 c -0.385,1.98 -0.64875,3.135 -1.335,3.90125 -0.72125,0.77125 -1.71875,0.86625 -3.17625,0.8675 l -3.5775,0 z m -51.11625,-23.2525 c -0.0575,0.29125 -0.0825,0.56875 -0.0825,0.83 0.0162,1.79125 1.185,2.91 2.82,2.935 l 2.54625,0 c 0.13125,0 0.25625,0.0588 0.34125,0.16125 0.0825,0.1 0.1175,0.23625 0.0925,0.365 l -2.88,15.175 c -0.21125,1.10375 -0.3075,2.08 -0.3075,2.94 0.009,2.50875 0.79625,3.98625 2.03625,4.90875 1.245,0.92375 3.03625,1.2825 5.05875,1.28125 l 18.82875,0 1.91875,-5.85875 c -2.21,-0.001 -8.89625,-0.002 -8.905,-0.001 -1.3025,0.001 -2.3475,-0.4575 -3.0475,-1.18125 -0.7,-0.7225 -1.0525,-1.68875 -1.0525,-2.665 0,-0.2575 0.0238,-0.5175 0.0737,-0.7725 l 2.67625,-13.9925 c 0.04,-0.20875 0.22375,-0.36 0.435,-0.36 l 8.91875,0.001 0.005,-0.001 c 1.97625,-0.0375 2.96625,-0.8525 3.40375,-2.8 l 0.4475,-2.3575 -11.62625,0 c -0.13375,0 -0.25875,-0.0588 -0.3425,-0.16125 -0.0838,-0.1025 -0.11875,-0.235 -0.0925,-0.365 l 1.65875,-8.5825 -11.685,0.29875 c -0.0788,-0.004 -0.155,-0.006 -0.23125,-0.006 -1.65875,0.0325 -2.555,0.805 -3.02125,2.73375 l -1.12,5.725 c -0.0412,0.2075 -0.2225,0.3575 -0.43375,0.3575 l -6.17,0 -0.26375,1.3925 z m 9.625,29.4825 c -2.11875,-0.001 -4.095,-0.36125 -5.585,-1.45375 -1.4925,-1.095 -2.40375,-2.93375 -2.395,-5.6225 0,-0.92625 0.10375,-1.9575 0.3225,-3.105 l 2.78,-14.64875 -2.0125,0 c -2.0875,-0.005 -3.71125,-1.6 -3.705,-3.8225 0,-0.3225 0.0337,-0.6575 0.1,-0.9975 l 0.33125,-1.75 c 0.04,-0.20875 0.2225,-0.36 0.43625,-0.36 l 6.17,0 1.0525,-5.38 c 0.4475,-2.18375 1.85875,-3.47 3.88875,-3.4375 0.0913,0 0.185,0.002 0.245,0.007 l 12.19875,-0.31375 c 0.13625,-0.004 0.26375,0.0537 0.35,0.15625 0.0875,0.10375 0.1225,0.23875 0.0975,0.37 l -1.6625,8.5975 11.62375,0 c 0.1325,0 0.25875,0.0588 0.34125,0.16 0.0837,0.10125 0.11875,0.235 0.095,0.36625 l -0.54875,2.89 c -0.42,2.25625 -1.99,3.55125 -4.2725,3.51125 l -0.005,0.002 -8.5525,0 -2.6075,13.6325 c -0.0387,0.2 -0.0588,0.4025 -0.0588,0.605 0.0238,1.53625 1.0375,2.94125 3.215,2.96 0,0 8.53875,0 9.51625,0.005 0.1425,0 0.275,0.0662 0.3575,0.18 0.0825,0.11625 0.105,0.2625 0.0625,0.3975 l -2.2075,6.745 c -0.06,0.18 -0.23,0.305 -0.42125,0.305 l -19.15,0 z m 74.40625,-39.3775 -6.92375,38.49125 14.11375,0 2.67,-13.48125 c 0.34625,-1.86375 0.895,-3.03625 2.04,-3.75625 1.13125,-0.70875 2.67625,-0.96875 5.0575,-1.3675 0.17,-0.0312 0.34375,-0.045 0.51875,-0.045 1.89875,0.0188 4.37375,1.49875 4.4225,3.9225 0,0.2125 -0.0187,0.43 -0.0637,0.655 l -2.8625,13.89 14.4225,-0.004 c 0.47875,-2.86625 3.37,-21.0425 3.4975,-21.7275 l -10e-4,0 c 0.0763,-0.42 0.11125,-0.7775 0.11125,-1.0875 -0.005,-0.8625 -0.24,-1.38875 -0.7275,-2.05 -1.0525,-1.25875 -3.06,-1.80875 -6.04,-1.805 -0.65375,0 -1.3525,0.025 -2.0925,0.0738 -7.26,0.47 -10.895,1.725 -12.865,3.13625 -1.96625,1.41 -2.365,2.985 -3.17625,4.47125 -0.0775,0.14125 -0.22625,0.22875 -0.38625,0.22875 l -0.13,0 c -0.13125,0 -0.2575,-0.0575 -0.34125,-0.15875 -0.0837,-0.10125 -0.11875,-0.23625 -0.095,-0.365 l 4.065,-21.68625 -12.12,0 -0.04,-10e-4 -0.015,0 c -1.4875,0.0537 -2.45875,0.37 -3.03875,2.66625 m -7.4525,39.3775 c -0.1325,0 -0.255,-0.0587 -0.33875,-0.15875 -0.085,-0.10125 -0.12125,-0.23375 -0.0962,-0.3625 l 7.02,-39.03375 c 0.5475,-2.62 2.21375,-3.42625 3.90625,-3.37375 0.004,0 0.025,-10e-4 0.055,0.001 l 0,-0.001 12.655,0 c 0.13125,0 0.25625,0.0587 0.34,0.16125 0.0825,0.1 0.1175,0.235 0.0937,0.3625 l -3.6765,19.61005 c 0.4925,-0.825 1.165,-1.6775 2.25625,-2.4575 2.1975,-1.565 5.98625,-2.82125 13.3225,-3.3 0.755,-0.0488 1.4725,-0.0763 2.15,-0.0763 3.06,0.004 5.35875,0.53125 6.73375,2.14 0.57,0.75 0.92625,1.55 0.92,2.60125 0,0.37875 -0.0425,0.7875 -0.125,1.245 l -0.435,-0.0775 0.43375,0.0825 c -0.12,0.6425 -3.4025,21.2825 -3.56,22.0925 -0.0413,0.2075 -0.22375,0.3575 -0.43375,0.3575 l -15.34,0.005 c -0.1325,0 -0.25875,-0.0613 -0.3425,-0.16375 -0.085,-0.10375 -0.11875,-0.24 -0.0913,-0.37 l 2.97125,-14.41625 c 0.0325,-0.165 0.0475,-0.325 0.0475,-0.48125 10e-4,-0.86125 -0.475,-1.60875 -1.1825,-2.165 -0.7025,-0.5525 -1.6275,-0.87375 -2.355,-0.87125 -0.1325,0 -0.25375,0.01 -0.36875,0.03 -2.38375,0.39125 -3.86125,0.68125 -4.73375,1.24375 -0.85875,0.55 -1.295,1.3675 -1.64375,3.1775 l -2.74125,13.84125 c -0.0425,0.2075 -0.22375,0.3575 -0.435,0.3575 l -15.00625,0 z m -44.07,-3.7275 c -0.26125,-0.835 -0.33,-1.76875 -0.33125,-2.5475 0,-0.35625 0.0137,-0.68125 0.0375,-0.94375 0.0575,-0.81 0.185,-1.6875 0.36375,-2.63375 l 0.425,-2.23375 c 0.61875,-3.25625 1.565,-5.68875 3.30375,-7.32 1.7425,-1.63125 4.2175,-2.3725 7.7,-2.36875 l 13.91,0 c 1.0375,0.002 1.62125,-0.14 1.92375,-0.3625 0.29875,-0.2125 0.47125,-0.55875 0.605,-1.2475 0.045,-0.2375 0.0675,-0.43875 0.0675,-0.6 -0.0175,-0.37 -0.0675,-0.46125 -0.275,-0.6 -0.22125,-0.14 -0.7325,-0.25125 -1.5725,-0.245 l -15.20375,0 c -1.83,0.002 -3.0475,-0.525 -3.77625,-1.34625 -0.72625,-0.82 -0.925,-1.8525 -0.925,-2.75875 0.002,-1.3675 0.445,-2.5125 0.455,-2.54125 0.0637,-0.17125 0.23,-0.28375 0.4125,-0.28375 l 27.82125,0 0,0.4425 0,0.4425 -27.50125,0 c -0.0312,0.10125 -0.0662,0.22875 -0.1025,0.3775 -0.1,0.41125 -0.2,0.975 -0.19875,1.5625 -0.001,0.78375 0.17625,1.58125 0.7025,2.17125 0.52375,0.58625 1.43625,1.04375 3.1125,1.04625 l 15.20375,0 c 0.90375,0.005 1.53625,0.09 2.02375,0.37 0.50375,0.2825 0.72625,0.835 0.70875,1.3625 0,0.24 -0.0325,0.4925 -0.0813,0.76375 -0.1425,0.755 -0.385,1.395 -0.96375,1.8075 -0.57625,0.4 -1.3375,0.52 -2.43625,0.52375 l -13.91,0 c -3.37375,0.002 -5.5725,0.7075 -7.095,2.13125 -1.52625,1.4225 -2.43625,3.655 -3.04,6.8375 l -0.42375,2.2325 c -0.17625,0.925 -0.295,1.76875 -0.35125,2.54125 -0.0213,0.23875 -0.035,0.54125 -0.035,0.8725 -0.001,0.7225 0.0725,1.5875 0.28875,2.2775 0.68125,2.07875 2.52,3.08875 6.69125,3.11125 l 33.11,0 4.28875,-24.115 c -0.0138,-0.74625 -0.23125,-2.16875 -1.51375,-3.42625 -1.30625,-1.27875 -3.78,-2.4425 -8.4775,-2.4475 l 0,-0.4425 0,-0.4425 c 4.83375,0 7.57125,1.20625 9.0975,2.7 1.52375,1.49375 1.77375,3.21375 1.77875,4.0925 l -0.006,0.08 -4.35875,24.52125 c -0.0387,0.2125 -0.22125,0.36625 -0.4375,0.36625 l -33.48125,0 -0.12625,0 c -4.1725,0 -6.5925,-1.17 -7.4075,-3.7275 m 97.15125,2.84125 32.02875,0 c -0.29875,-0.81 -0.55,-1.70125 -0.54625,-3.03625 0,-0.95125 0.12,-2.13 0.42,-3.6975 l 4.41375,-23.255 -11.80625,-0.001 c -0.0875,-0.008 -0.18,-0.0113 -0.27125,-0.0113 -1.04625,0.0412 -2.2875,0.33375 -2.8125,2.70875 l -3.63625,19.2125 c -0.18875,0.99375 -0.495,1.74625 -1.085,2.25125 -0.59125,0.5025 -1.3775,0.67125 -2.35875,0.67125 l -5.565,0 c -0.7925,-0.002 -1.41625,-0.1 -1.89875,-0.44125 -0.49,-0.34875 -0.69625,-0.94 -0.68875,-1.58875 0,-0.31875 0.0425,-0.66875 0.11625,-1.05625 l 3.4175,-17.99375 c 0.0413,-0.24125 0.0588,-0.4725 0.0588,-0.69125 -0.007,-1.8425 -1.345,-2.9575 -2.9775,-3.06 l -12.155,0 c 0.295,0.8825 0.5125,1.89375 0.5125,3.24125 0,0.81625 -0.08,1.7575 -0.26,2.8775 -0.0162,0.145 -0.05,0.33625 -0.115,0.74375 -0.0713,0.44875 -0.17625,1.08 -0.3,1.83875 -0.24875,1.51875 -0.58125,3.5525 -0.91125,5.67375 -0.66125,4.23 -1.32375,8.85375 -1.32,10.27 -10e-4,0.14625 0.009,0.25375 0.0162,0.28625 0.725,3.2175 2.97,5.02125 7.72375,5.0575 m -8.59125,-4.8775 0.4325,-0.0937 -0.435,0.0863 c -0.0263,-0.14125 -0.0325,-0.2825 -0.0325,-0.45875 0.006,-3.0225 2.49625,-17.48125 2.64875,-18.59125 l 0.004,-0.004 0,-0.002 0.005,-0.07 c 0.175,-1.0825 0.24875,-1.97625 0.24875,-2.73625 -0.002,-1.54875 -0.295,-2.5425 -0.66875,-3.525 -0.0525,-0.13625 -0.0337,-0.29 0.0487,-0.41 0.0812,-0.12 0.21875,-0.19125 0.365,-0.19125 l 12.8075,0 c 2.03625,0.09 3.84875,1.61125 3.84125,3.945 0,0.27125 -0.0238,0.55125 -0.0738,0.8475 l -3.42125,18.00375 c -0.0662,0.35 -0.0987,0.64625 -0.0987,0.89 0.007,0.51125 0.1175,0.71625 0.3225,0.87 0.2125,0.1625 0.6625,0.2775 1.37875,0.275 l 5.565,0 c 0.89375,0 1.43125,-0.1575 1.785,-0.46125 0.35625,-0.30125 0.61625,-0.83 0.7875,-1.74 l 3.63875,-19.22 c 0.52625,-2.745 2.39,-3.46375 3.68125,-3.4225 0.11875,0 0.23125,0.006 0.30625,0.0125 l 12.3075,0 c 0.13125,0 0.2575,0.0587 0.34,0.16 0.085,0.10125 0.11875,0.235 0.095,0.36625 l -4.51625,23.78 c -0.2925,1.53 -0.40375,2.65375 -0.40375,3.53125 0.004,1.5375 0.32875,2.30375 0.7175,3.32125 0.0512,0.13625 0.0337,0.2875 -0.0488,0.40875 -0.0825,0.12125 -0.21875,0.1925 -0.36375,0.1925 l -32.6725,0 c -0.0412,0 -0.0825,0.001 -0.125,0.001 -4.89375,-0.001 -7.72125,-2.16625 -8.46625,-5.765" />
    <path
       d="m 388.94245,450.27948 64.05125,0 0,-36.0225 -64.05125,0 0,36.0225 z"
       style="fill:#100f0d;fill-opacity:1;fill-rule:nonzero;stroke:none"
       id="path186"
       inkscape:connector-curvature="0" />
    <path
       inkscape:connector-curvature="0"
       id="path198"
       style="fill:#ffffff;fill-opacity:1;fill-rule:nonzero;stroke:none"
       d="m 404.19532,419.05261 c -2.5875,4.205 -5.6925,7.9425 -9.13,11.275 0.305,-3.51 1.19875,-7.60875 1.775,-11.275 l 7.355,0 z" />
    <path
       d="m 398.11995,419.05948 55.07625,0 0,-4.86875 -55.07625,0 0,4.86875 z"
       style="fill:#000000;fill-opacity:1;fill-rule:nonzero;stroke:none"
       id="path200"
       inkscape:connector-curvature="0" />
    <path
       inkscape:connector-curvature="0"
       id="path204"
       style="fill:#000000;fill-opacity:1;fill-rule:nonzero;stroke:none"
       d="m 375.17982,450.23248 2.305,-13.00125 -0.035,0 2.1625,-11.3825 2.21625,-11.6575 19.17,0 -1.49875,7.8775 -1.48,7.80125 -0.002,0 -1.09125,5.7475 -0.3075,1.61375 -6.04,0 -0.63125,3.32 6.06,0 -1.53375,8.075 -0.28375,1.61375 -19.01,-0.007 z" />
    <path
       inkscape:connector-curvature="0"
       id="path216"
       style="fill:#ffffff;fill-opacity:1;fill-rule:nonzero;stroke:none"
       d="m 440.1247,436.96536 c -4.345,-6.58125 -16.855,-3.675 -22.06625,-0.13 -2.92875,1.995 -4.4875,5.7725 -6.50875,8.2925 l 6.41125,0 c 1.94625,-5.5425 11.56125,-9.80875 17.62,-6.255 0.6575,0.3925 2.56375,1.56375 1.375,3.38 -0.0613,0.1725 -0.11875,0.27625 -0.11875,0.27625 0.0487,-0.095 0.08,-0.185 0.11875,-0.27625 0.21625,-0.6075 0.5875,-2.425 -1.65875,-3.18625 -2.8575,-0.4425 -4.15,4.80125 -1.51375,5.915 5.17125,2.18625 9.5925,-3.595 6.34125,-8.01625" />
    <path
       inkscape:connector-curvature="0"
       id="path220"
       style="fill:#ffffff;fill-opacity:1;fill-rule:nonzero;stroke:none"
       d="m 427.9642,444.80911 4.75875,0 c -1.5925,-2.78875 -4.03375,-7.79375 -8.19625,-4.86875 -0.41625,0.29125 -1.86375,2.5525 -0.25375,4.13625 1.725,1.6975 3.34375,-0.5275 2.52125,-2.01 -0.009,-0.0113 -0.0188,-0.0175 -0.025,-0.03 -0.35,-0.5875 -1.0575,0.2 -1.0575,0.2 0.5775,-1.36 1.83125,0.37 1.83125,0.37 l -0.015,-0.004 c 0.34,0.53625 0.4625,1.29625 0.43625,2.20625" />
    <path
       d="m 390.9262,450.24073 62.27,0 0,-5.1425 -62.27,0 0,5.1425 z"
       style="fill:#000000;fill-opacity:1;fill-rule:nonzero;stroke:none"
       id="path222"
       inkscape:connector-curvature="0" />
    <path
       inkscape:connector-curvature="0"
       id="path234"
       style="fill:#ffffff;fill-opacity:1;fill-rule:nonzero;stroke:none"
       d="m 379.43395,435.28523 1.56625,-8.24375 9.29,-1.27 0.007,-0.0437 -8.77,-1.4625 1.52875,-8.0525 15.13125,0 -0.91,4.78875 -11.5275,0 -0.007,0.0425 11.10125,2.2475 -0.935,4.91625 -11.95375,2.245 -0.007,0.0425 11.5275,0 -0.91125,4.79 -15.13,0 z m 12.67875,12.90375 1.08625,-5.72 -6.06,0 1.05,-5.5325 -3.22125,0 -1.04875,5.5325 -2.24875,0 1.145,-6.01875 -3.6025,0 -2.08,11.7325 c 10e-4,-0.002 14.98,0.006 14.98,0.006" />
    <path
       inkscape:connector-curvature="0"
       id="path238"
       style="fill:#ffffff;fill-opacity:1;fill-rule:nonzero;stroke:none"
       d="m 453.24557,427.19836 0,12.67 c -11.4475,-4.60375 -24.19375,-10.62 -39.8775,-10.66 -4.71625,-0.0125 -8.36625,3.75 -4.82,7.7575 -3.42875,-5.385 1.88375,-6.91125 3.265,-6.0325 9.07,5.0125 -1.71875,18.9625 -9.86,10.81625 -5.115,-5.77 -3.13,-15.2375 1.9025,-19.39375 6.67875,-5.515 23.96,-3.90125 30.1025,-1.74375 6.14375,2.155 12.76375,4.1975 19.2275,6.5275" />
    <path
       inkscape:connector-curvature="0"
       id="path242"
       style="fill:#e41b2f;fill-opacity:1;fill-rule:nonzero;stroke:none"
       d="m 452.07807,444.86823 1.05125,0 0,-1.0475 c -0.15,0.51125 -0.3425,0.8025 -1.05125,1.0475 m -2.91125,0 1.46625,0 c 2.92125,-0.6475 2.91375,-4.76 -0.39125,-5.1025 1.68,1.57125 0.5525,4.33375 -1.075,5.1025 m -2.3025,0 0.49875,0 c 3.69,-0.39625 3.67,-5.8575 0.09,-6.38625 2.20875,1.51125 1.2375,5.1925 -0.58875,6.38625 m -2.89625,0 1.155,0 c 3.74625,-0.65625 3.75,-6.98375 -0.08,-7.0275 2.94375,1.535 1.1525,6.03625 -1.075,7.0275 m -2.89625,0 1.05625,0 c 4.17625,-0.53625 5.06,-6.1075 1.3925,-7.81375 -0.88875,-0.29375 -0.90125,-0.545 -1.92375,-0.7625 3.51375,1.83 2.82875,7.50375 -0.525,8.57625 m -1.735,-9.21125 c 2.30625,2.09625 3.11,6.6375 0.5225,9.10375 5.425,-1.2375 3.86,-7.96125 -0.5225,-9.10375 m -7.22875,7.4475 c -1.07,-3.33125 2.23,-4.485 2.23,-4.485 -3.04,-0.27375 -3.92875,3.43625 -2.23,4.485 m -1.685,-2.54 0.0487,0.0587 c 0.0538,0.055 -0.01,-0.015 -0.0487,-0.0587 m -1.3075,-1.35375 c -0.1475,-0.45375 -0.12125,-0.81625 0.4375,-1.26375 0,0 -1.62875,0.64875 -2.2225,0.74 0.615,0.10125 1.33,-0.0113 1.785,0.52375 m -1.9525,4.15125 c 0.1,0.8225 -0.34125,1.0975 -0.65125,1.50625 l 1.09,0 c 0.0138,-0.3275 0.0312,-1.50375 -0.43875,-1.50625 m -3.47375,1.50625 0.99625,0 c -0.2675,-0.14125 -2.3875,-1.63 -1.015,-4.27375 0.0137,-0.15625 0.28875,-0.52 0.55625,-0.69625 0.43125,-0.3775 1.17125,-0.435 0.52625,-0.5175 -0.43375,-0.0425 -1.41125,0.49375 -1.52125,0.89875 -1.035,1.41125 -0.91,3.87125 0.4575,4.58875 m -1.5425,0 0.95,0 c -0.32125,-0.27875 -1.435,-0.82875 -0.87875,-3.305 -1.4225,0.42875 -1.63625,2.7125 -0.0712,3.305 m -1.57875,-2.2775 c -0.255,0.54 -0.97,1.43875 -0.28375,2.2775 l 0.8975,0 c -0.545,-0.8875 -0.8025,-1.26375 -0.61375,-2.2775 m -1.72875,2.2775 0.89,0 c -0.13,-0.21 0.005,-1.01125 -0.2025,-0.91375 -0.59375,0.28125 -0.66,0.725 -0.6875,0.91375 m -26.2975,-4.65125 1.39625,0 c -0.0437,-0.77 -0.49625,-1.83125 -0.38125,-2.7625 l -1.015,0 c -0.315,0.6425 0.11125,1.9475 0,2.7625 m -1.585,-2.69875 c -0.2425,0.76625 -0.4775,2.0725 -0.58125,2.7625 l 1.65875,-0.0638 c -0.015,-0.75125 -0.29375,-1.94875 -0.2525,-2.7625 l -0.825,0.0638 z m 4.30875,-0.03 -1.20125,-0.0337 c 0.1325,1.04125 0.3875,2.0125 0.75625,2.88125 l 1.4425,0 -0.35,1.83875 c 1.01375,1.22875 2.4225,2.005 4.2375,2.08625 -2.745,-1.06375 -3.9675,-4.13 -4.885,-6.7725 m 0.30125,6.5075 c 0.79875,0.3825 1.855,0.5625 2.80875,0.64875 -0.96625,-0.54 -1.755,-1.25875 -2.55875,-1.965 l -0.25,1.31625 z m -0.0975,0.52125 0.2425,0 c 0,0 -0.0925,-0.0238 -0.23,-0.07 l -0.0125,0.07 z m 9.50125,-0.25625 c -5.83375,-2.03125 -7.8875,-8.865 -5.83375,-16.05 -0.24875,0.175 -0.47875,0.37 -0.6975,0.57375 l -0.165,0.86875 -0.002,0.001 -1.39875,7.71375 -0.75625,0 c 0.695,4.5775 3.9725,8.335 8.85375,6.8925 m 6.84875,-13.74 c 2.355,1.29625 3.84875,3.465 3.8025,7.19125 1.255,-3.2425 -1.00125,-6.69625 -3.8025,-7.19125 m 0.2525,-0.77 c 2.8,1.0475 4.61875,3.66875 4.56375,7.19 2.79625,-2.83 -0.2025,-8.13625 -4.56375,-7.19 m 3.93125,0.25625 c 1.65125,1.15375 2.64125,2.97625 2.40875,6.035 2.785,-1.3275 1.21625,-6.6975 -2.40875,-6.035 m 2.53625,0 c 1.3475,0.84125 2.23,2.8575 1.64875,4.88 2.8375,-0.9925 1.39125,-5.65625 -1.64875,-4.88 m 2.91625,0.38625 c 0.9125,0.5025 1.0925,2.325 0.63375,3.4675 2.0025,-0.345 0.97625,-3.91875 -0.63375,-3.4675 m 1.7525,0.18 c 0.27375,0.90375 0.9,1.9875 0.27625,3.03 2.0775,-0.3025 2.26875,-3.10875 -0.27625,-3.03 m 2.30625,0.4625 0.0475,0.002 c -0.0225,-0.06 -0.0337,-0.12625 -0.0588,-0.1825 l 0.0113,0.18 z m 1.25625,0.715 c -0.0113,-0.3875 -0.1775,-0.545 -0.5975,-0.67125 l -0.61125,-0.0412 c 0.2675,0.7375 0.2725,1.6075 -0.175,2.05125 0.78,-0.195 1.42,-0.31875 1.38375,-1.33875 m 3.56125,0.44 c -0.71375,-0.4225 -2.1975,-0.58625 -3.275,-0.95875 0.4475,0.3525 0.81375,0.9425 -0.0213,1.60125 1.32625,0.035 2.9175,-0.11875 3.29625,-0.6425 m 1.53875,5.85625 c -1.335,-0.16875 -3.5025,-0.21875 -1.82625,2.0825 -0.345,-0.37875 0.0825,-2.0375 1.82625,-2.0825 m 1.42625,0.2875 c 0,0 -4.6225,-0.46875 -2.2625,2.9975 0,0 -0.54875,-2.445 2.2625,-2.9975 m 9.845,-18.97875 c -2.565,0.10125 -10.175,-0.0225 -10.175,-0.0225 0,0 6.28125,2.2475 10.0475,3.68625 -0.9225,-0.93125 -1.23,-3.04625 0.1275,-3.66375 m 4.18375,0 c -5.70625,-0.97875 -4.5325,4.81125 -0.76,4.71125 -1.79125,-1.04 -1.1975,-4.37625 0.76,-4.71125 m 3.2975,0 c -5.45375,-0.81875 -5.44,4.98875 -1.2675,5.7575 -1.8975,-1.645 -1.5,-5.48875 1.2675,-5.7575 m 2.53625,0.13125 c -4.7375,-0.89875 -5.62125,6.015 -1.015,6.28 -2.35,-1.51875 -1.0025,-5.5525 1.015,-6.28 m 0,0.80125 c -2.0175,0.535 -2.395,5.06 0.0712,5.66625 -0.0512,-2.08125 0.0263,-4.52 -0.0712,-5.66625 m 0,-0.0163 0,0.0163 c 0.0312,-0.009 0.0575,-0.0238 0.0888,-0.03 l -0.0888,0.0138 z" />
  </g>
</svg>
