<?xml version="1.0" encoding="UTF-8"?>
<!-- Created with Inkscape (http://www.inkscape.org/) -->
<svg id="svg5239" width="68.761mm" height="13.339mm" version="1.1" viewBox="0 0 243.64 47.264" xmlns="http://www.w3.org/2000/svg" xmlns:cc="http://creativecommons.org/ns#" xmlns:dc="http://purl.org/dc/elements/1.1/" xmlns:rdf="http://www.w3.org/1999/02/22-rdf-syntax-ns#">
 <metadata id="metadata5244">
  <rdf:RDF>
   <cc:Work rdf:about="">
    <dc:format>image/svg+xml</dc:format>
    <dc:type rdf:resource="http://purl.org/dc/dcmitype/StillImage"/>
    <dc:title/>
   </cc:Work>
  </rdf:RDF>
 </metadata>
 <g id="layer1" transform="translate(-209.61 -403.02)">
  <path id="path176" d="m269.88 434.67-0.34875 1.8875c-0.18375 1.0425-0.3725 1.7788-0.53625 2.2125-0.115 0.31375-0.21125 0.46-0.24125 0.49875-0.1125 0.0387-0.595 0.13125-1.4975 0.11875h-3.72c-0.1275-5e-3 -0.24625-9e-3 -0.355-0.015l0.6925-3.8825c0.0612-0.3525 0.1325-0.58375 0.17875-0.70625 0.0475-0.01 0.1125-0.0238 0.1975-0.0362 0.23125-0.035 0.58875-0.0625 1.05-0.0775h4.58zm1.1812 2.2688 0.73875-3.8825h-6.2562c-1.16 0.0275-1.9188 0.1425-2.3688 0.435-0.445 0.28-0.7425 0.7625-0.95125 1.8362l-0.67375 3.5538c-0.0675 0.35-0.0987 0.6425-0.0987 0.87625 0.0225 0.605 0.1375 0.755 0.45375 0.93875 0.33875 0.18 1.0112 0.27 1.95 0.2925h3.565c1.4588 1e-3 2.125-0.13375 2.525-0.58125 0.43625-0.45125 0.75125-1.5 1.1162-3.4688m108.52-20.435c0.0838 0.10125 0.1175 0.23625 0.0937 0.36625l-4.5162 23.781c-0.29125 1.53-0.40375 2.6538-0.40375 3.5312 5e-3 1.5362 0.32875 2.3038 0.7175 3.32 0.0513 0.1375 0.0338 0.28875-0.0487 0.41s-0.21875 0.1925-0.365 0.1925h-32.671-0.125c-4.8938 0-7.72-2.165-8.4662-5.765l0.4325-0.0925-0.43375 0.0863c-0.0275-0.14125-0.0338-0.28375-0.0338-0.45875 6e-3 -3.0225 2.4975-17.482 2.6488-18.591l4e-3 -4e-3v-2e-3l5e-3 -0.07c0.175-1.0838 0.25-1.9775 0.25-2.7375-4e-3 -1.5475-0.295-2.5425-0.67-3.525-0.0525-0.135-0.0338-0.29 0.0475-0.40875 0.0837-0.12125 0.22125-0.1925 0.36625-0.1925l12.808 1e-3c2.0375 0.0888 3.8488 1.6112 3.8412 3.9438 0 0.27125-0.0237 0.55125-0.0737 0.84875l-3.42 18.004c-0.0688 0.34875-0.1 0.64625-0.1 0.88875 9e-3 0.5125 0.1175 0.7175 0.32125 0.87125 0.2125 0.16125 0.66375 0.2775 1.38 0.27375h5.5662c0.89125 0 1.43-0.1575 1.7838-0.46125 0.35625-0.29875 0.61625-0.82875 0.7875-1.74l3.6388-19.219c0.52625-2.7462 2.3912-3.4638 3.6812-3.4238 0.11875 0 0.23125 6e-3 0.30625 0.0125h12.308c0.13125 0 0.2575 0.06 0.34125 0.16m-44.934 7.7138c0 0.37875-0.0425 0.78625-0.125 1.245l-0.43125-0.0762 0.43 0.08c-0.12125 0.64375-3.4012 21.282-3.56 22.094-0.04 0.2075-0.22375 0.3575-0.43375 0.3575l-15.339 4e-3c-0.13375 0-0.26-0.0613-0.34375-0.16375-0.085-0.10375-0.11875-0.23875-0.0913-0.36875l2.9712-14.416c0.0325-0.16625 0.0475-0.3275 0.0475-0.48125 1e-3 -0.86125-0.475-1.6088-1.1825-2.1662-0.70125-0.5525-1.6262-0.8725-2.355-0.87125-0.1325 0-0.25375 0.0113-0.36875 0.03-2.385 0.39125-3.8612 0.68125-4.7338 1.245-0.85875 0.54875-1.2938 1.3675-1.6438 3.1775l-2.7425 13.841c-0.0412 0.2075-0.2225 0.3575-0.43375 0.3575h-15.006c-0.13125 0-0.255-0.0587-0.33875-0.16-0.085-0.1-0.12-0.2325-0.0962-0.36125l7.02-39.035c0.5475-2.6188 2.2138-3.4262 3.9062-3.3738 5e-3 0 0.025 0 0.055 1e-3v-1e-3h12.655c0.13125 0 0.25625 0.06 0.34125 0.1625 0.0812 0.1 0.11625 0.23375 0.0925 0.3625l-3.6752 19.609c0.49125-0.82375 1.1638-1.6775 2.2562-2.4562 2.1962-1.565 5.9862-2.8212 13.321-3.3012 0.75625-0.0487 1.4725-0.0763 2.15-0.0763 3.06 4e-3 5.36 0.5325 6.7338 2.1412 0.57 0.75 0.92625 1.5488 0.92 2.6012m-43.592-1.0812-7e-3 0.0812-4.3588 24.521c-0.0387 0.2125-0.22125 0.36625-0.43625 0.36625h-33.482-0.12625c-4.1725 0-6.5912-1.1712-7.4075-3.7288-0.26-0.83375-0.33-1.7675-0.33125-2.5462 0-0.3575 0.0137-0.6825 0.0375-0.94375 0.0588-0.81 0.185-1.6875 0.365-2.635l0.42375-2.2338c0.61875-3.2562 1.565-5.6875 3.3038-7.3188 1.7425-1.6312 4.2175-2.3725 7.7012-2.3688h13.91c1.0362 1e-3 1.62-0.14 1.9225-0.3625 0.3-0.2125 0.4725-0.55875 0.605-1.2488 0.045-0.23625 0.0675-0.4375 0.0675-0.59875-0.0175-0.37-0.0675-0.46125-0.275-0.6-0.22125-0.14-0.7325-0.2525-1.5725-0.24625h-15.204c-1.83 4e-3 -3.0462-0.525-3.775-1.3462-0.72625-0.82-0.92625-1.8525-0.92625-2.7588 3e-3 -1.3675 0.44625-2.5112 0.455-2.5412 0.065-0.17 0.23-0.28375 0.41375-0.28375h27.82c4.8338 1e-3 7.5712 1.2075 9.0975 2.7 1.525 1.4938 1.775 3.2138 1.78 4.0925m91.314-8.9425h-15.35c-0.13625-9e-3 -0.26625-0.0112-0.38875-0.0112-0.9425-4e-3 -2.2288 0.20875-3.41 1.0862-1.1888 0.8725-2.0312 2.325-2.3712 4.05l-6e-3 0.0312-3.6388 19.232c-0.0362 0.19-0.0737 0.33875-0.1075 0.44125-0.0887 9e-3 -0.21 0.015-0.35875 0.015h-4.9638l3.3362-17.569v2e-3c0.0637-0.3925 0.0987-0.7875 0.0987-1.1862 0.0125-1.6988-0.6875-3.3-1.8075-4.3612-1.115-1.0738-2.5712-1.65-4.0688-1.7275l-0.0588-4e-3h-16.621l1.3438 3.5125c0.21125 0.56625 0.365 1.0225 0.45 1.6175-0.84625-0.68375-1.835-1.1512-2.8525-1.445-1.4162-0.41125-2.9338-0.54875-4.595-0.55125-0.73625 0-1.4988 0.03-2.2938 0.08-5.7488 0.38375-9.5388 1.21-12.232 2.445l3.1538-16.834h-15.772-0.0588c-1.0739-4e-3 -2.4502 0.19245-3.6714 1.1074-1.225 0.91625-1.965 2.34-2.3212 3.9325l-0.0125 0.0525-1.9238 10.706c-0.29625-0.44375-0.65625-0.88375-1.09-1.3088-2.0525-2.0112-5.4338-3.3212-10.598-3.315h-29.601l-0.63625 1.6625c-0.05 0.1625-0.58125 1.4712-0.59625 3.31 0 1.2 0.25625 2.805 1.47 4.185 0.455 0.52 1.0162 0.94375 1.6538 1.2688-1.9012 0.445-3.5525 1.25-4.8988 2.5138-2.255 2.135-3.2862 5.0562-3.9462 8.49l-0.42375 2.235c-0.03 0.16125-0.06 0.32125-0.0875 0.47875-2.2138-1e-3 -8.9138-1e-3 -8.9175-1e-3 -0.60875-0.015-0.75375-0.16-0.8725-0.2625-0.1075-0.11-0.195-0.295-0.19625-0.555 0-0.07 6e-3 -0.13625 0.0175-0.1925l-2.1062-0.41125c-0.0375 0.1975-0.0563 0.3975-0.0563 0.5975 0.0238 1.535 1.0362 2.9412 3.2138 2.9588 0 0 8.54 0 9.5162 5e-3 0.1425 0 0.275 0.0663 0.35875 0.18125 0.0825 0.115 0.105 0.2625 0.0613 0.3975l-2.2062 6.7438c-0.0613 0.1825-0.23125 0.30625-0.4225 0.30625h-19.15c-2.1175-2e-3 -4.095-0.36125-5.5838-1.4538-1.4938-1.095-2.405-2.935-2.3962-5.6225 0-0.92625 0.10375-1.9588 0.3225-3.1062l2.7812-14.649h-2.0138c-2.0875-4e-3 -3.7112-1.5988-3.7038-3.8212 0-0.3225 0.0325-0.6575 0.0987-0.9975l0.3325-1.7512c0.0387-0.20875 0.2225-0.36 0.435-0.36h6.17l1.0538-5.3788c0.44625-2.185 1.8575-3.47 3.8875-3.4375 0.0925 0 0.18625 2e-3 0.245 6e-3l12.199-0.3125c0.13625-4e-3 0.26375 0.0537 0.35 0.15625 0.0875 0.1025 0.1225 0.2375 0.0975 0.37l-1.6625 8.5962h11.624c0.1325 0 0.25875 0.06 0.34125 0.16 0.085 0.10125 0.11875 0.23625 0.095 0.36625l-0.54875 2.89c-0.42 2.2575-1.99 3.5512-4.2725 3.5112l-5e-3 2e-3h-8.5512l-2.6088 13.632c0 2e-3 0 5e-3 -1e-3 6e-3l2.1088 0.40375 2.275-11.901h6.7775 5e-3c1.4738 0.01 3.0038-0.3875 4.2038-1.38 1.2025-0.9875 1.8838-2.4038 2.1725-3.8512l1.1362-5.99h-12.151l1.7788-9.2112-15.331 0.39375c-0.0863-2e-3 -0.1775-6e-3 -0.275-6e-3 -1.3875-0.015-2.8788 0.43625-3.9725 1.4325-1.1012 0.98625-1.7062 2.31-2.0112 3.685l-4e-3 0.0188-0.72125 3.6875h-6.5475l-0.73 3.8575c-0.0888 0.455-0.1375 0.9275-0.1375 1.3975-9e-3 1.6038 0.5875 3.1575 1.6762 4.255 0.95 0.9725 2.2438 1.5588 3.6012 1.6862l-2.3038 12.139c-0.23875 1.2588-0.36 2.42-0.36125 3.5075-0.0463 3.1288 1.1588 5.84 3.2675 7.3512 2.08 1.5088 4.51 1.8638 6.86 1.875h21.026l0.98625-3.0138c0.645 0.80875 1.475 1.4788 2.4175 1.9162 1.715 0.8225 3.6638 1.09 5.9875 1.0975h33.442 20.228l3.1538-15.936c0.15-0.80625 0.3175-1.2788 0.43-1.485 0.19375-0.28125 0.0613-0.21375 0.64375-0.48125 0.57-0.2275 1.7775-0.46875 3.5512-0.75625l7e-3 -1e-3h9e-3c0.14375-0.0213 0.72125 0.1475 1.035 0.41625 0.3475 0.28625 0.3625 0.44375 0.35875 0.4775 0 0.0162-1e-3 0.0375-7e-3 0.0712l-3.6062 17.511 20.646-4e-3 0.40875-2.0925c0.035-0.19125 0.1225-0.71 0.25-1.5062 0.54125 0.73 1.1975 1.3775 1.97 1.9038 1.9212 1.3212 4.3275 1.8812 7.1 1.8825h36.446l-1.36-3.52c-0.39875-1.07-0.54875-1.3312-0.57375-2.55 0-0.69 0.0913-1.69 0.3675-3.1338l5.0975-26.865z" fill="#fff"/>
  <path id="path180" d="m374.28 440.48c-0.3 1.5675-0.41875 2.7462-0.41875 3.6975-5e-3 1.335 0.2475 2.225 0.54375 3.0362h-32.028c-4.755-0.0362-6.9988-1.84-7.7238-5.0575h1e-3c-9e-3 -0.0325-0.0175-0.14-0.0175-0.285-5e-3 -1.4188 0.6575-6.0425 1.32-10.271 0.33125-2.1212 0.66125-4.155 0.91125-5.675 0.12375-0.7575 0.22875-1.3888 0.30125-1.8375 0.0625-0.4075 0.0988-0.6 0.11375-0.74375 0.18-1.1212 0.26-2.0612 0.26-2.8788 0-1.3475-0.2175-2.3588-0.51125-3.2412h12.155c1.6312 0.1025 2.97 1.2188 2.9775 3.06 0 0.22-0.0188 0.45-0.0588 0.6925l-3.4188 17.992c-0.075 0.38875-0.11625 0.7375-0.11625 1.0575-7e-3 0.64875 0.19875 1.24 0.69 1.5875 0.48125 0.3425 1.105 0.44 1.8975 0.4425h5.5662c0.98 0 1.7662-0.16875 2.3575-0.6725 0.59-0.50375 0.89625-1.2575 1.085-2.25l3.6362-19.212c0.525-2.375 1.7662-2.6675 2.8125-2.7088 0.0913 0 0.185 4e-3 0.2725 0.01l11.805 1e-3 -4.4138 23.256zm-40.529-16.268c-5e-3 -0.8625-0.24-1.39-0.72625-2.05-1.0538-1.2588-3.0612-1.8088-6.0412-1.8062-0.65375 0-1.3512 0.0263-2.0925 0.075-7.26 0.47-10.895 1.7238-12.864 3.1362-1.9675 1.41-2.365 2.985-3.1775 4.4712-0.0775 0.14-0.225 0.22875-0.38625 0.22875h-0.13125c-0.13 0-0.25625-0.0587-0.34-0.15875-0.0838-0.10125-0.12-0.23625-0.095-0.365l4.065-21.686h-12.12l-0.04-1e-3h-0.015c-1.4875 0.0525-2.4575 0.37-3.0388 2.6662l-6.9238 38.491h14.114l2.67-13.482c0.34625-1.8638 0.89625-3.035 2.04-3.755 1.1312-0.71 2.6762-0.96875 5.0575-1.3675 0.17125-0.0312 0.34375-0.0437 0.51875-0.0437 1.9 0.0175 4.375 1.4975 4.4238 3.9212 0 0.21375-0.02 0.43-0.065 0.655l-2.8625 13.889 14.422-3e-3c0.47875-2.8675 3.37-21.042 3.4975-21.728h-1e-3c0.0775-0.42 0.11125-0.7775 0.11125-1.0875m-61.084 8.115c-0.0838-0.10125-0.21-0.16125-0.34125-0.16125h-6.8038c-1.2 0.0362-2.1 0.12-2.8275 0.57-0.73375 0.4575-1.1338 1.2588-1.3488 2.4212l-0.67625 3.5538c-0.0725 0.38625-0.11375 0.73125-0.11375 1.0412-0.0213 0.775 0.31625 1.435 0.93875 1.7288 0.6025 0.2975 1.3525 0.355 2.34 0.38875h3.5762c1.4575-1e-3 2.455-0.0962 3.1775-0.8675 0.685-0.76625 0.94875-1.9212 1.3338-3.9012l0.83875-4.41c0.0238-0.12875-0.01-0.26375-0.0937-0.36375m13.204 14.886h-33.111c-4.1712-0.0238-6.01-1.0325-6.6912-3.11-0.21625-0.69125-0.29-1.5562-0.28875-2.2788 0-0.3325 0.015-0.63375 0.0362-0.8725 0.0538-0.7725 0.17375-1.6175 0.35-2.5425l0.42375-2.2312c0.60375-3.1825 1.5138-5.415 3.04-6.8375 1.5225-1.425 3.7212-2.1288 7.0962-2.1312h13.91c1.0975-4e-3 1.8588-0.12375 2.435-0.525 0.57875-0.41125 0.82125-1.0525 0.96375-1.8062 0.05-0.27125 0.0813-0.5225 0.0813-0.76375 0.0175-0.5275-0.205-1.08-0.7075-1.3625-0.48875-0.28125-1.1212-0.365-2.025-0.37h-15.204c-1.675-2e-3 -2.5888-0.46125-3.1125-1.0475-0.52625-0.59-0.70375-1.3862-0.7025-2.17-1e-3 -0.5875 0.0987-1.1512 0.19875-1.5638 0.0363-0.1475 0.0725-0.275 0.1025-0.3775h27.501c4.6975 6e-3 7.1712 1.1688 8.4775 2.4488 1.2825 1.2575 1.5 2.68 1.5138 3.4262l-4.2875 24.115zm-50.229-39.098-11.684 0.29875c-0.08-4e-3 -0.15625-6e-3 -0.2325-6e-3 -1.6588 0.0325-2.5538 0.805-3.0212 2.7325l-1.12 5.725c-0.04 0.2075-0.2225 0.3575-0.43375 0.3575h-6.17l-0.26375 1.3938c-0.0562 0.29125-0.0837 0.5675-0.0837 0.83 0.0175 1.7912 1.1862 2.9088 2.8212 2.935h2.5462c0.1325 0 0.25625 0.0588 0.34125 0.16125 0.0825 0.1 0.1175 0.23625 0.0925 0.365l-2.88 15.175c-0.21 1.1038-0.30625 2.08-0.30625 2.94 8e-3 2.5088 0.795 3.9862 2.0362 4.91 1.2438 0.92375 3.035 1.2812 5.0575 1.28l18.829-1e-3 1.9188-5.8575c-2.21-1e-3 -8.8962-2e-3 -8.905-1e-3 -1.3025 1e-3 -2.3475-0.4575-3.0475-1.1812s-1.0525-1.6875-1.0525-2.665c0-0.2575 0.0238-0.5175 0.0737-0.77375h1e-3l2.6762-13.991c0.0387-0.20875 0.22125-0.36 0.43375-0.36l8.9188 1e-3 5e-3 -1e-3c1.9762-0.0388 2.9662-0.8525 3.405-2.8l0.445-2.3588h-11.625c-0.1325 0-0.2575-0.0575-0.3425-0.16-0.0837-0.1025-0.1175-0.235-0.0937-0.365l1.66-8.5825z" fill="#e41b2f"/>
  <path id="path184" d="m263.17 433.49c-0.445 0.28125-0.7425 0.7625-0.95125 1.8362l-0.675 3.555c-0.0663 0.35-0.0987 0.64125-0.0987 0.875 0.0238 0.605 0.13875 0.75625 0.455 0.94 0.33875 0.18 1.0112 0.27 1.95 0.29125h3.565c1.4588 2e-3 2.125-0.13375 2.5238-0.58125 0.4375-0.45125 0.7525-1.4988 1.1175-3.4675l0.73875-3.8825h-6.2575c-1.1588 0.0275-1.9175 0.1425-2.3675 0.43375m0.6675 8.3838c-0.98625-0.0337-1.7375-0.0913-2.3388-0.38875-0.62125-0.29375-0.96125-0.95375-0.93875-1.7288 0-0.31 0.04-0.655 0.115-1.0412l0.67375-3.5525c0.21625-1.1625 0.61625-1.9638 1.35-2.4225 0.7275-0.45 1.6275-0.5325 2.8275-0.56875h6.8025v0.4425-0.4425c0.13125 0 0.25875 0.0587 0.3425 0.15875 0.0825 0.1025 0.1175 0.2375 0.0937 0.365l-0.83875 4.41c-0.385 1.98-0.64875 3.135-1.335 3.9012-0.72125 0.77125-1.7188 0.86625-3.1762 0.8675h-3.5775zm-51.116-23.252c-0.0575 0.29125-0.0825 0.56875-0.0825 0.83 0.0162 1.7912 1.185 2.91 2.82 2.935h2.5462c0.13125 0 0.25625 0.0588 0.34125 0.16125 0.0825 0.1 0.1175 0.23625 0.0925 0.365l-2.88 15.175c-0.21125 1.1038-0.3075 2.08-0.3075 2.94 9e-3 2.5088 0.79625 3.9862 2.0362 4.9088 1.245 0.92375 3.0362 1.2825 5.0588 1.2812h18.829l1.9188-5.8588c-2.21-1e-3 -8.8962-2e-3 -8.905-1e-3 -1.3025 1e-3 -2.3475-0.4575-3.0475-1.1812-0.7-0.7225-1.0525-1.6888-1.0525-2.665 0-0.2575 0.0238-0.5175 0.0737-0.7725l2.6762-13.992c0.04-0.20875 0.22375-0.36 0.435-0.36l8.9188 1e-3 5e-3 -1e-3c1.9762-0.0375 2.9662-0.8525 3.4038-2.8l0.4475-2.3575h-11.626c-0.13375 0-0.25875-0.0588-0.3425-0.16125-0.0838-0.1025-0.11875-0.235-0.0925-0.365l1.6588-8.5825-11.685 0.29875c-0.0788-4e-3 -0.155-6e-3 -0.23125-6e-3 -1.6588 0.0325-2.555 0.805-3.0212 2.7338l-1.12 5.725c-0.0412 0.2075-0.2225 0.3575-0.43375 0.3575h-6.17l-0.26375 1.3925zm9.625 29.482c-2.1188-1e-3 -4.095-0.36125-5.585-1.4538-1.4925-1.095-2.4038-2.9338-2.395-5.6225 0-0.92625 0.10375-1.9575 0.3225-3.105l2.78-14.649h-2.0125c-2.0875-5e-3 -3.7112-1.6-3.705-3.8225 0-0.3225 0.0337-0.6575 0.1-0.9975l0.33125-1.75c0.04-0.20875 0.2225-0.36 0.43625-0.36h6.17l1.0525-5.38c0.4475-2.1838 1.8588-3.47 3.8888-3.4375 0.0913 0 0.185 2e-3 0.245 7e-3l12.199-0.31375c0.13625-4e-3 0.26375 0.0537 0.35 0.15625 0.0875 0.10375 0.1225 0.23875 0.0975 0.37l-1.6625 8.5975h11.624c0.1325 0 0.25875 0.0588 0.34125 0.16 0.0837 0.10125 0.11875 0.235 0.095 0.36625l-0.54875 2.89c-0.42 2.2562-1.99 3.5512-4.2725 3.5112l-5e-3 2e-3h-8.5525l-2.6075 13.632c-0.0387 0.2-0.0588 0.4025-0.0588 0.605 0.0238 1.5362 1.0375 2.9412 3.215 2.96 0 0 8.5388 0 9.5162 5e-3 0.1425 0 0.275 0.0662 0.3575 0.18 0.0825 0.11625 0.105 0.2625 0.0625 0.3975l-2.2075 6.745c-0.06 0.18-0.23 0.305-0.42125 0.305h-19.15zm74.406-39.378-6.9238 38.491h14.114l2.67-13.481c0.34625-1.8638 0.895-3.0362 2.04-3.7562 1.1312-0.70875 2.6762-0.96875 5.0575-1.3675 0.17-0.0312 0.34375-0.045 0.51875-0.045 1.8988 0.0188 4.3738 1.4988 4.4225 3.9225 0 0.2125-0.0187 0.43-0.0637 0.655l-2.8625 13.89 14.422-4e-3c0.47875-2.8662 3.37-21.042 3.4975-21.728h-1e-3c0.0763-0.42 0.11125-0.7775 0.11125-1.0875-5e-3 -0.8625-0.24-1.3888-0.7275-2.05-1.0525-1.2588-3.06-1.8088-6.04-1.805-0.65375 0-1.3525 0.025-2.0925 0.0738-7.26 0.47-10.895 1.725-12.865 3.1362-1.9662 1.41-2.365 2.985-3.1762 4.4712-0.0775 0.14125-0.22625 0.22875-0.38625 0.22875h-0.13c-0.13125 0-0.2575-0.0575-0.34125-0.15875-0.0837-0.10125-0.11875-0.23625-0.095-0.365l4.065-21.686h-12.12l-0.04-1e-3h-0.015c-1.4875 0.0537-2.4588 0.37-3.0388 2.6662m-7.4525 39.378c-0.1325 0-0.255-0.0587-0.33875-0.15875-0.085-0.10125-0.12125-0.23375-0.0962-0.3625l7.02-39.034c0.5475-2.62 2.2138-3.4262 3.9062-3.3738 4e-3 0 0.025-1e-3 0.055 1e-3v-1e-3h12.655c0.13125 0 0.25625 0.0587 0.34 0.16125 0.0825 0.1 0.1175 0.235 0.0937 0.3625l-3.6765 19.61c0.4925-0.825 1.165-1.6775 2.2562-2.4575 2.1975-1.565 5.9862-2.8212 13.322-3.3 0.755-0.0488 1.4725-0.0763 2.15-0.0763 3.06 4e-3 5.3588 0.53125 6.7338 2.14 0.57 0.75 0.92625 1.55 0.92 2.6012 0 0.37875-0.0425 0.7875-0.125 1.245l-0.435-0.0775 0.43375 0.0825c-0.12 0.6425-3.4025 21.282-3.56 22.092-0.0413 0.2075-0.22375 0.3575-0.43375 0.3575l-15.34 5e-3c-0.1325 0-0.25875-0.0613-0.3425-0.16375-0.085-0.10375-0.11875-0.24-0.0913-0.37l2.9712-14.416c0.0325-0.165 0.0475-0.325 0.0475-0.48125 1e-3 -0.86125-0.475-1.6088-1.1825-2.165-0.7025-0.5525-1.6275-0.87375-2.355-0.87125-0.1325 0-0.25375 0.01-0.36875 0.03-2.3838 0.39125-3.8612 0.68125-4.7338 1.2438-0.85875 0.55-1.295 1.3675-1.6438 3.1775l-2.7412 13.841c-0.0425 0.2075-0.22375 0.3575-0.435 0.3575h-15.006zm-44.07-3.7275c-0.26125-0.835-0.33-1.7688-0.33125-2.5475 0-0.35625 0.0137-0.68125 0.0375-0.94375 0.0575-0.81 0.185-1.6875 0.36375-2.6338l0.425-2.2338c0.61875-3.2562 1.565-5.6888 3.3038-7.32 1.7425-1.6312 4.2175-2.3725 7.7-2.3688h13.91c1.0375 2e-3 1.6212-0.14 1.9238-0.3625 0.29875-0.2125 0.47125-0.55875 0.605-1.2475 0.045-0.2375 0.0675-0.43875 0.0675-0.6-0.0175-0.37-0.0675-0.46125-0.275-0.6-0.22125-0.14-0.7325-0.25125-1.5725-0.245h-15.204c-1.83 2e-3 -3.0475-0.525-3.7762-1.3462-0.72625-0.82-0.925-1.8525-0.925-2.7588 2e-3 -1.3675 0.445-2.5125 0.455-2.5412 0.0637-0.17125 0.23-0.28375 0.4125-0.28375h27.821v0.4425 0.4425h-27.501c-0.0312 0.10125-0.0662 0.22875-0.1025 0.3775-0.1 0.41125-0.2 0.975-0.19875 1.5625-1e-3 0.78375 0.17625 1.5812 0.7025 2.1712 0.52375 0.58625 1.4362 1.0438 3.1125 1.0462h15.204c0.90375 5e-3 1.5362 0.09 2.0238 0.37 0.50375 0.2825 0.72625 0.835 0.70875 1.3625 0 0.24-0.0325 0.4925-0.0813 0.76375-0.1425 0.755-0.385 1.395-0.96375 1.8075-0.57625 0.4-1.3375 0.52-2.4362 0.52375h-13.91c-3.3738 2e-3 -5.5725 0.7075-7.095 2.1312-1.5262 1.4225-2.4362 3.655-3.04 6.8375l-0.42375 2.2325c-0.17625 0.925-0.295 1.7688-0.35125 2.5412-0.0213 0.23875-0.035 0.54125-0.035 0.8725-1e-3 0.7225 0.0725 1.5875 0.28875 2.2775 0.68125 2.0788 2.52 3.0888 6.6912 3.1112h33.11l4.2888-24.115c-0.0138-0.74625-0.23125-2.1688-1.5138-3.4262-1.3062-1.2788-3.78-2.4425-8.4775-2.4475v-0.4425-0.4425c4.8338 0 7.5712 1.2062 9.0975 2.7 1.5238 1.4938 1.7738 3.2138 1.7788 4.0925l-6e-3 0.08-4.3588 24.521c-0.0387 0.2125-0.22125 0.36625-0.4375 0.36625h-33.481-0.12625c-4.1725 0-6.5925-1.17-7.4075-3.7275m97.151 2.8412h32.029c-0.29875-0.81-0.55-1.7012-0.54625-3.0362 0-0.95125 0.12-2.13 0.42-3.6975l4.4138-23.255-11.806-1e-3c-0.0875-8e-3 -0.18-0.0113-0.27125-0.0113-1.0462 0.0412-2.2875 0.33375-2.8125 2.7088l-3.6362 19.212c-0.18875 0.99375-0.495 1.7462-1.085 2.2512-0.59125 0.5025-1.3775 0.67125-2.3588 0.67125h-5.565c-0.7925-2e-3 -1.4162-0.1-1.8988-0.44125-0.49-0.34875-0.69625-0.94-0.68875-1.5888 0-0.31875 0.0425-0.66875 0.11625-1.0562l3.4175-17.994c0.0413-0.24125 0.0588-0.4725 0.0588-0.69125-7e-3 -1.8425-1.345-2.9575-2.9775-3.06h-12.155c0.295 0.8825 0.5125 1.8938 0.5125 3.2412 0 0.81625-0.08 1.7575-0.26 2.8775-0.0162 0.145-0.05 0.33625-0.115 0.74375-0.0713 0.44875-0.17625 1.08-0.3 1.8388-0.24875 1.5188-0.58125 3.5525-0.91125 5.6738-0.66125 4.23-1.3238 8.8538-1.32 10.27-1e-3 0.14625 9e-3 0.25375 0.0162 0.28625 0.725 3.2175 2.97 5.0212 7.7238 5.0575m-8.5912-4.8775 0.4325-0.0937-0.435 0.0863c-0.0263-0.14125-0.0325-0.2825-0.0325-0.45875 6e-3 -3.0225 2.4962-17.481 2.6488-18.591l4e-3 -4e-3v-2e-3l5e-3 -0.07c0.175-1.0825 0.24875-1.9762 0.24875-2.7362-2e-3 -1.5488-0.295-2.5425-0.66875-3.525-0.0525-0.13625-0.0337-0.29 0.0487-0.41 0.0812-0.12 0.21875-0.19125 0.365-0.19125h12.808c2.0362 0.09 3.8488 1.6112 3.8412 3.945 0 0.27125-0.0238 0.55125-0.0738 0.8475l-3.4212 18.004c-0.0662 0.35-0.0987 0.64625-0.0987 0.89 7e-3 0.51125 0.1175 0.71625 0.3225 0.87 0.2125 0.1625 0.6625 0.2775 1.3788 0.275h5.565c0.89375 0 1.4312-0.1575 1.785-0.46125 0.35625-0.30125 0.61625-0.83 0.7875-1.74l3.6388-19.22c0.52625-2.745 2.39-3.4638 3.6812-3.4225 0.11875 0 0.23125 6e-3 0.30625 0.0125h12.308c0.13125 0 0.2575 0.0587 0.34 0.16 0.085 0.10125 0.11875 0.235 0.095 0.36625l-4.5162 23.78c-0.2925 1.53-0.40375 2.6538-0.40375 3.5312 4e-3 1.5375 0.32875 2.3038 0.7175 3.3212 0.0512 0.13625 0.0337 0.2875-0.0488 0.40875s-0.21875 0.1925-0.36375 0.1925h-32.672c-0.0412 0-0.0825 1e-3 -0.125 1e-3 -4.8938-1e-3 -7.7212-2.1662-8.4662-5.765" fill="#100f0d"/>
  <path id="path186" d="m388.94 450.28h64.051v-36.022h-64.051v36.022z" fill="#100f0d"/>
  <path id="path198" d="m404.2 419.05c-2.5875 4.205-5.6925 7.9425-9.13 11.275 0.305-3.51 1.1988-7.6088 1.775-11.275h7.355z" fill="#fff"/>
  <path id="path200" d="m398.12 419.06h55.076v-4.8688h-55.076v4.8688z" fill="#fff"/>
  <path id="path204" d="m375.18 450.23 2.305-13.001h-0.035l2.1625-11.382 2.2162-11.658h19.17l-1.4988 7.8775-1.48 7.8012h-2e-3l-1.0912 5.7475-0.3075 1.6138h-6.04l-0.63125 3.32h6.06l-1.5338 8.075-0.28375 1.6138-19.01-7e-3z" fill="#fff"/>
  <path id="path216" d="m440.12 436.97c-4.345-6.5812-16.855-3.675-22.066-0.13-2.9288 1.995-4.4875 5.7725-6.5088 8.2925h6.4112c1.9462-5.5425 11.561-9.8088 17.62-6.255 0.6575 0.3925 2.5638 1.5638 1.375 3.38-0.0613 0.1725-0.11875 0.27625-0.11875 0.27625 0.0487-0.095 0.08-0.185 0.11875-0.27625 0.21625-0.6075 0.5875-2.425-1.6588-3.1862-2.8575-0.4425-4.15 4.8012-1.5138 5.915 5.1712 2.1862 9.5925-3.595 6.3412-8.0162" fill="#fff"/>
  <path id="path220" d="m427.96 444.81h4.7588c-1.5925-2.7888-4.0338-7.7938-8.1962-4.8688-0.41625 0.29125-1.8638 2.5525-0.25375 4.1362 1.725 1.6975 3.3438-0.5275 2.5212-2.01-9e-3 -0.0113-0.0188-0.0175-0.025-0.03-0.35-0.5875-1.0575 0.2-1.0575 0.2 0.5775-1.36 1.8312 0.37 1.8312 0.37l-0.015-4e-3c0.34 0.53625 0.4625 1.2962 0.43625 2.2062" fill="#fff"/>
  <path id="path222" d="m390.93 450.24h62.27v-5.1425h-62.27v5.1425z" fill="#fff"/>
  <path id="path234" d="m379.43 435.29 1.5662-8.2438 9.29-1.27 7e-3 -0.0437-8.77-1.4625 1.5288-8.0525h15.131l-0.91 4.7888h-11.528l-7e-3 0.0425 11.101 2.2475-0.935 4.9162-11.954 2.245-7e-3 0.0425h11.528l-0.91125 4.79h-15.13zm12.679 12.904 1.0862-5.72h-6.06l1.05-5.5325h-3.2212l-1.0488 5.5325h-2.2488l1.145-6.0188h-3.6025l-2.08 11.732c1e-3 -2e-3 14.98 6e-3 14.98 6e-3" fill="#100f0d"/>
  <path id="path238" d="m453.25 427.2v12.67c-11.448-4.6038-24.194-10.62-39.878-10.66-4.7162-0.0125-8.3662 3.75-4.82 7.7575-3.4288-5.385 1.8838-6.9112 3.265-6.0325 9.07 5.0125-1.7188 18.962-9.86 10.816-5.115-5.77-3.13-15.238 1.9025-19.394 6.6788-5.515 23.96-3.9012 30.102-1.7438 6.1438 2.155 12.764 4.1975 19.228 6.5275" fill="#fff"/>
  <path id="path242" d="m452.08 444.87h1.0512v-1.0475c-0.15 0.51125-0.3425 0.8025-1.0512 1.0475m-2.9112 0h1.4662c2.9212-0.6475 2.9138-4.76-0.39125-5.1025 1.68 1.5712 0.5525 4.3338-1.075 5.1025m-2.3025 0h0.49875c3.69-0.39625 3.67-5.8575 0.09-6.3862 2.2088 1.5112 1.2375 5.1925-0.58875 6.3862m-2.8962 0h1.155c3.7462-0.65625 3.75-6.9838-0.08-7.0275 2.9438 1.535 1.1525 6.0362-1.075 7.0275m-2.8962 0h1.0562c4.1762-0.53625 5.06-6.1075 1.3925-7.8138-0.88875-0.29375-0.90125-0.545-1.9238-0.7625 3.5138 1.83 2.8288 7.5038-0.525 8.5762m-1.735-9.2112c2.3062 2.0962 3.11 6.6375 0.5225 9.1038 5.425-1.2375 3.86-7.9612-0.5225-9.1038m-7.2288 7.4475c-1.07-3.3312 2.23-4.485 2.23-4.485-3.04-0.27375-3.9288 3.4362-2.23 4.485m-1.685-2.54 0.0487 0.0587c0.0538 0.055-0.01-0.015-0.0487-0.0587m-1.3075-1.3538c-0.1475-0.45375-0.12125-0.81625 0.4375-1.2638 0 0-1.6288 0.64875-2.2225 0.74 0.615 0.10125 1.33-0.0113 1.785 0.52375m-1.9525 4.1512c0.1 0.8225-0.34125 1.0975-0.65125 1.5062h1.09c0.0138-0.3275 0.0312-1.5038-0.43875-1.5062m-3.4738 1.5062h0.99625c-0.2675-0.14125-2.3875-1.63-1.015-4.2738 0.0137-0.15625 0.28875-0.52 0.55625-0.69625 0.43125-0.3775 1.1712-0.435 0.52625-0.5175-0.43375-0.0425-1.4112 0.49375-1.5212 0.89875-1.035 1.4112-0.91 3.8712 0.4575 4.5888m-1.5425 0h0.95c-0.32125-0.27875-1.435-0.82875-0.87875-3.305-1.4225 0.42875-1.6362 2.7125-0.0712 3.305m-1.5788-2.2775c-0.255 0.54-0.97 1.4388-0.28375 2.2775h0.8975c-0.545-0.8875-0.8025-1.2638-0.61375-2.2775m-1.7288 2.2775h0.89c-0.13-0.21 5e-3 -1.0112-0.2025-0.91375-0.59375 0.28125-0.66 0.725-0.6875 0.91375m-26.298-4.6512h1.3962c-0.0437-0.77-0.49625-1.8312-0.38125-2.7625h-1.015c-0.315 0.6425 0.11125 1.9475 0 2.7625m-1.585-2.6988c-0.2425 0.76625-0.4775 2.0725-0.58125 2.7625l1.6588-0.0638c-0.015-0.75125-0.29375-1.9488-0.2525-2.7625l-0.825 0.0638zm4.3088-0.03-1.2012-0.0337c0.1325 1.0412 0.3875 2.0125 0.75625 2.8812h1.4425l-0.35 1.8388c1.0138 1.2288 2.4225 2.005 4.2375 2.0862-2.745-1.0638-3.9675-4.13-4.885-6.7725m0.30125 6.5075c0.79875 0.3825 1.855 0.5625 2.8088 0.64875-0.96625-0.54-1.755-1.2588-2.5588-1.965l-0.25 1.3162zm-0.0975 0.52125h0.2425s-0.0925-0.0238-0.23-0.07l-0.0125 0.07zm9.5012-0.25625c-5.8338-2.0312-7.8875-8.865-5.8338-16.05-0.24875 0.175-0.47875 0.37-0.6975 0.57375l-0.165 0.86875-2e-3 1e-3 -1.3988 7.7138h-0.75625c0.695 4.5775 3.9725 8.335 8.8538 6.8925m6.8488-13.74c2.355 1.2962 3.8488 3.465 3.8025 7.1912 1.255-3.2425-1.0012-6.6962-3.8025-7.1912m0.2525-0.77c2.8 1.0475 4.6188 3.6688 4.5638 7.19 2.7962-2.83-0.2025-8.1362-4.5638-7.19m3.9312 0.25625c1.6512 1.1538 2.6412 2.9762 2.4088 6.035 2.785-1.3275 1.2162-6.6975-2.4088-6.035m2.5362 0c1.3475 0.84125 2.23 2.8575 1.6488 4.88 2.8375-0.9925 1.3912-5.6562-1.6488-4.88m2.9162 0.38625c0.9125 0.5025 1.0925 2.325 0.63375 3.4675 2.0025-0.345 0.97625-3.9188-0.63375-3.4675m1.7525 0.18c0.27375 0.90375 0.9 1.9875 0.27625 3.03 2.0775-0.3025 2.2688-3.1088-0.27625-3.03m2.3062 0.4625 0.0475 2e-3c-0.0225-0.06-0.0337-0.12625-0.0588-0.1825l0.0113 0.18zm1.2562 0.715c-0.0113-0.3875-0.1775-0.545-0.5975-0.67125l-0.61125-0.0412c0.2675 0.7375 0.2725 1.6075-0.175 2.0512 0.78-0.195 1.42-0.31875 1.3838-1.3388m3.5612 0.44c-0.71375-0.4225-2.1975-0.58625-3.275-0.95875 0.4475 0.3525 0.81375 0.9425-0.0213 1.6012 1.3262 0.035 2.9175-0.11875 3.2962-0.6425m1.5388 5.8562c-1.335-0.16875-3.5025-0.21875-1.8262 2.0825-0.345-0.37875 0.0825-2.0375 1.8262-2.0825m1.4262 0.2875s-4.6225-0.46875-2.2625 2.9975c0 0-0.54875-2.445 2.2625-2.9975m9.845-18.979c-2.565 0.10125-10.175-0.0225-10.175-0.0225s6.2812 2.2475 10.048 3.6862c-0.9225-0.93125-1.23-3.0462 0.1275-3.6638m4.1838 0c-5.7062-0.97875-4.5325 4.8112-0.76 4.7112-1.7912-1.04-1.1975-4.3762 0.76-4.7112m3.2975 0c-5.4538-0.81875-5.44 4.9888-1.2675 5.7575-1.8975-1.645-1.5-5.4888 1.2675-5.7575m2.5362 0.13125c-4.7375-0.89875-5.6212 6.015-1.015 6.28-2.35-1.5188-1.0025-5.5525 1.015-6.28m0 0.80125c-2.0175 0.535-2.395 5.06 0.0712 5.6662-0.0512-2.0812 0.0263-4.52-0.0712-5.6662m0-0.0163v0.0163c0.0312-9e-3 0.0575-0.0238 0.0888-0.03l-0.0888 0.0138z" fill="#e41b2f"/>
 </g>
</svg>
