<?xml version="1.0" encoding="UTF-8"?>
<svg id="svg2" width="1652.8pt" height="790pt" version="1.1" viewBox="0 0 1652.8 790" xmlns="http://www.w3.org/2000/svg" xmlns:cc="http://creativecommons.org/ns#" xmlns:dc="http://purl.org/dc/elements/1.1/" xmlns:rdf="http://www.w3.org/1999/02/22-rdf-syntax-ns#">
 <metadata id="metadata21">
  <rdf:RDF>
   <cc:Work rdf:about="">
    <dc:format>image/svg+xml</dc:format>
    <dc:type rdf:resource="http://purl.org/dc/dcmitype/StillImage"/>
    <dc:title/>
   </cc:Work>
  </rdf:RDF>
 </metadata>
 <g id="#ec2563ff" fill="#db3468">
  <path id="path5" d="m811.76 0h0.17c0.03 204.23 0.01 408.47 0 612.7-26.27-14.62-52.51-29.3-78.78-43.92-22.5 18.22-48.68 32.34-77.06 38.66-21.63 4.92-43.95 5.82-66.06 5.43-22.9-0.71-45.69-5.51-66.86-14.3-32-13.18-59.92-35.38-81.19-62.55-19.79-25.01-33.84-54.71-39.34-86.19-6.99-38.77-1.01-79.18 14.01-115.39 6.26-15.18 13.85-29.88 23.61-43.12 24.3-33.22 59.03-58.59 97.86-72.11 34.79-12.26 72.98-14 108.93-6.06 18.73 4.12 36.75 11.01 53.94 19.44 0.02-60.92 0.01-121.85 0.01-182.77 36.91-16.62 73.86-33.18 110.76-49.82m-219.28 318.79c-22.69 2.82-43.92 14.74-58.66 32.14-11.53 13.49-19.1 30.35-21.32 47.97-2.57 19.93 1.5 40.66 11.47 58.12 10.75 19 28.33 34.16 48.97 41.44 14.07 5.17 29.38 5.6 44.16 4.15 21.15-2.59 41.04-13.36 55.18-29.25 24.24-26.6 30.3-67.64 15.64-100.37-7.89-17.99-21.76-33.24-38.87-42.87-17.02-9.65-37.15-13.73-56.57-11.33z"/>
  <path id="path7" d="m201.94 14.19c54.83-0.01 109.66 0 164.49 0 0 15.14 0.04 30.28-0.02 45.43 9.21-8.55 22.27-11.6 34.55-11.34 11.95 0.23 24.31 4.16 32.74 12.96 9.44 9.67 13.18 23.54 13.27 36.77 0.06 26.93 0.02 53.87 0.02 80.81-12.97-0.01-25.95 0-38.93-0.01-0.03-24.61 0.04-49.21-0.03-73.82-0.02-6.94-2.66-14.45-8.79-18.26-6.39-3.86-14.82-4.12-21.54-0.96-7.17 3.43-11.27 11.43-11.26 19.19-0.02 24.62 0.02 49.24-0.02 73.87-13-0.04-25.99 0-38.98-0.02 0-44.37 0-88.75-0.01-133.12-12.91-0.01-25.82-0.01-38.74 0-0.01 44.38 0 88.75 0 133.12-13.5 0.01-27 0.01-40.5 0-0.01-44.37 0-88.74-0.01-133.12-15.41-0.01-30.83 0.01-46.24 0v-31.5z"/>
  <path id="path9" d="m492.59 57.64c15.48-9.64 34.85-11.79 52.44-7.65 14.83 3.32 28.25 12.78 35.88 26 8.45 14.61 11.37 32.23 9.03 48.87-30.09 0.04-60.19 0-90.28 0.03 1 9.63 7.96 17.9 16.83 21.46 12.78 5.63 28.7 2.23 38.15-8.03 10.19 5.08 20.38 10.14 30.54 15.24-8.98 13.34-23.53 22.31-39.01 26.09-14.49 3.63-29.99 2.16-43.94-2.95-13.8-5.07-26.04-14.87-33.02-27.92-8.28-15.25-9.27-33.61-5.52-50.32 3.75-16.7 14.17-31.94 28.9-40.82m21.81 23.92c-6.45 4.19-10.84 11.04-12.93 18.36 17.39 0.03 34.79 0.03 52.18 0-1.34-8.17-6.32-15.96-13.94-19.54-7.92-3.69-17.88-3.72-25.31 1.18z"/>
  <path id="path11" d="m1154.2 242.72c31.43-13.98 62.86-27.99 94.3-41.96-0.07 124.78-0.06 249.55 0.05 374.33 0.06 24.36-3.55 48.72-10.67 72.02-10.01 33.05-27.4 64.27-52.51 88.23-21.61 20.86-48.91 35.19-77.64 43.51-22.18 6.4-45.13 10.28-68.21 11.15h-13.82c-26.39-0.94-52.69-5.91-77.4-15.28-30.76-11.8-59.82-29.43-82.1-53.95-9.34-10.09-18.11-20.77-25.4-32.46 35.75-16.75 71.5-33.52 107.25-50.25 22.77 29.41 61.35 44.25 98.01 41.6 19.48-1.23 39.05-6.37 55.61-16.95 15.24-9.76 27.68-24.58 32.74-42.13 3.09-10.38 3.33-21.32 2.94-32.06-47.42 26.74-105.94 31.84-157.8 15.97-27.3-8.42-52.37-23.43-73.4-42.69-22.09-20.25-40.93-44.47-52.85-72.09-13.53-30.88-17.83-65.31-14.64-98.74 1.88-21.97 7.29-43.68 16.58-63.71 14.09-30.75 36.83-56.92 63.28-77.73 22.56-17.98 49.23-30.81 77.51-36.69 31.75-6.6 65.07-6.36 96.52 1.77 21.98 5.68 43.05 15.06 61.65 28.11m-125.58 76.11c-13.43 1.74-26.41 6.65-37.75 14.04-23.5 15.11-39.74 41.15-42.19 69.07-2.28 23.43 4.7 47.61 19.18 66.18 16.85 22.02 44.19 36.16 72.13 35.14 21.76 0.76 43.55-7.11 60.02-21.3 17.67-14.95 29.15-36.85 31.67-59.84 3.15-25.67-4.68-52.59-21.78-72.1-19.67-23.05-51.23-35.15-81.28-31.19z"/>
  <path id="path13" d="m89.86 240.78c28.81-18.97 62.75-29.79 97.15-31.7 36.98-2.09 75.17 4.7 107.41 23.52 24.44 14.1 44.61 35.21 58.05 59.99 12.71 23.26 20.08 49.19 23.37 75.41 3.27 26.27 2.38 52.89-0.78 79.12-85.25 0.02-170.51-0.02-255.76 0.02 6.21 26.11 26.88 47 51.12 57.41 19.94 8.82 42.77 9.58 63.81 4.59 17.85-4.32 35.04-12.95 47.64-26.52 31.32 17.45 62.62 34.92 93.93 52.39-15.25 21.54-35.71 39.24-58.88 51.81-33.51 18.28-71.88 26.64-109.9 26.9-39 0.23-78.59-8.55-112.33-28.53-30.95-18.22-55.81-45.88-72.55-77.49-14.87-28.31-21.14-60.39-22.14-92.15v-12.92c0.96-25.71 6.31-51.33 16.74-74.9 15.35-35.2 40.89-65.98 73.12-86.95m63.67 76.76c-17.33 11.34-29.8 29.49-35.05 49.45 48.85 0.02 97.71 0.01 146.56 0.01 0.08-14.82-4.82-29.97-15.24-40.74-12.12-12.67-29.31-20.07-46.76-20.9-17.16-0.74-35.06 2.43-49.51 12.18z"/>
  <path id="path15" d="m1382.4 230.49c36.55-18.92 78.99-25.23 119.67-20.05 32.07 4 63.53 16.11 88.41 37.01 25.01 20.64 42.25 49.54 51.64 80.35 12.05 38.47 12.66 79.58 7.81 119.32-85.24 0.01-170.49 0-255.73 0 3.56 15.33 12.37 29.11 23.86 39.73 16.72 15.52 39.11 24.84 61.95 25.37 25.44 1.2 52.52-5.77 71-24.08 30.55 16.68 61.09 33.39 91.63 50.09-18.82 25.93-45 46.25-74.49 58.68-41.07 17.39-87.34 20.88-131.03 12.98-35.39-6.34-69.52-21.57-96.32-45.77-26.39-23.94-46.92-54.81-56.92-89.14-6.11-20.75-8.79-42.41-9.01-64.01-0.41-35.47 8.44-71.08 26.1-101.91 18.73-33.36 47.34-61.14 81.43-78.57m65.55 78.05c-27.04 7.76-47.64 31.6-54.59 58.46h146.58c-0.11-10.52-2.29-21.19-7.57-30.37-6.93-12.22-18.71-21.12-31.59-26.33-16.75-6.69-35.59-6.22-52.83-1.76z"/>
 </g>
</svg>
