<svg height="450.547pt" viewBox="0 0 372.42847 450.547" width="372.42847pt" xmlns="http://www.w3.org/2000/svg"><path d="m126.9576 9.5189904c18.87-6.09 38.63-9.93 58.52-9.47 20.49-.52 40.93 3.13 60.36 9.5 1.12.6099996 3.37.6399996 3.25 2.3699996l.08 111.3896c.76442 72.6437-58.94694 127.41883-125.58 124.8504h-112.42c-13.981611-42.901-14.071916-83.552-.21-124.83l112.8704-.0204v-111.4c-.15-1.72 2.0196-1.8096 3.1296-2.3895996z" fill="#bf1e2e"/><g fill="#a8a9ac"><path d="m249.1676 123.30859h111.14c4.94507 3.25615 9.40763 31.16039 10.14 36.4904 2.55 14.13 2.13 28.58 1.51 42.86-1.98 15.68-4.45 30.82-10.52 45.5h-111.85l-.47 113.32c-13.66 5.17-28.04 8.43-42.56 9.89-8.26 1.69-16.72.86-25.09 1.05-7.4.22-14.76-.58-22.06-1.71-12.07-2.15-24.19-4.63-35.6-9.21l-.22-113.34c72.02569-2.96221 125.75758-55.37897 125.58-124.8504z"/><path d="m262.6576 262.06859 19.86.0604c-5.45491 7.82711-12.41191 15.9209-19.86 20.68z"/><path d="m304.0176 262.06859h15.38c-13.54917 25.96762-32.04634 43.80925-56.74 56.6304v-15.55c17.90434-9.14113 33.95042-24.81189 41.36-41.0804z"/><path d="m340.7376 262.06859h14.74c-17.90955 39.89866-60.12384 77.22067-92.82 93.5504v-15.53c32.98372-20.51984 61.99103-50.08786 78.08-78.0204z"/></g><g fill="#bf1e2e" transform="translate(-568.24088 34.88778)"><path d="m581.45779 414.72802v-36.19631h-13.21691v-8.53091h37.66818v8.53091h-13.21691v36.19631z"/><path d="m636.35915 415.53906q-5.13657 0-9.04156-.99127-3.87496-.99128-7.20924-2.46315v-10.63361h1.02131q3.36431 2.85366 7.4195 4.38561 4.05518 1.53196 7.87008 1.53196.96122 0 2.52321-.21026 1.59205-.21028 2.55328-.66085 1.17149-.51066 1.98253-1.41181.81103-.93118.81103-2.43311 0-1.68215-1.32168-2.73349-1.32169-1.05135-3.15404-1.53196-2.28293-.60078-4.89626-1.14147-2.58331-.54069-4.83618-1.32168-5.19665-1.83235-7.44955-4.92632-2.25288-3.09395-2.25288-7.7499 0-6.27803 5.31682-10.15299 5.31678-3.905 13.27698-3.905 3.99511 0 7.93014.81104 3.96507.81103 7.08907 2.1928v10.21307h-.99127q-2.49319-2.13272-6.0978-3.60461-3.57458-1.47188-7.35942-1.47188-1.47188 0-2.64338.21026-1.1715.21028-2.46315.81105-1.05135.48061-1.83235 1.44184-.75096.93118-.75096 2.10269 0 1.71218 1.20154 2.7335 1.23158.99127 4.71604 1.8023 2.25288.51065 4.32553.99127 2.10269.48061 4.47573 1.32169 4.65596 1.68216 6.90883 4.5358 2.28293 2.82361 2.28293 7.47956 0 6.66854-5.25673 10.72372-5.22669 4.0552-14.14811 4.0552z"/><path d="m688.67721 415.65921q-9.01153 0-13.87775-4.35557-4.83619-4.35558-4.83619-12.7363v-28.56654h11.23437v27.9057q0 4.65595 1.74224 6.93888 1.77226 2.28291 5.73733 2.28291 3.87496 0 5.67725-2.1928 1.83235-2.19281 1.83235-7.02899v-27.9057h11.23437v28.53651q0 8.26056-4.74606 12.70625-4.71604 4.41565-13.99791 4.41565z"/><path d="m759.94951 414.72802h-10.81382l-17.24207-31.17989v31.17989h-10.27315v-44.72722h13.78765l14.26826 25.62278v-25.62278h10.27313z"/><path d="m774.14882 414.72802 15.10932-44.72722h12.25568l15.10932 44.72722h-11.56478l-2.79358-9.13169h-14.05799l-2.79357 9.13169zm25.65281-17.24206-4.56585-14.74886-4.56584 14.74886z"/><path d="m870.77354 392.40946q0 6.248-2.73351 11.20434-2.73349 4.9263-6.90884 7.56967-3.48445 2.25289-7.59973 2.91373-4.08522.63082-8.71112.63082h-13.99792v-44.72722h13.87776q4.71603 0 8.83128.60077 4.11528.60077 7.71988 2.91373 4.41565 2.82361 6.96892 7.62975 2.55328 4.77611 2.55328 11.26441zm-11.53476-.0901q0-4.41565-1.53196-7.53964-1.50192-3.15404-4.65596-4.92629-2.28292-1.26163-4.80615-1.38178-2.49319-.1201-5.97765-.1201h-.21027v27.9958h.21027q3.78484 0 6.36816-.12011 2.61333-.15019 4.95633-1.62208 2.76353-1.74223 4.20537-4.80615 1.44186-3.0639 1.44186-7.47956z"/><path d="m928.31844 392.37942q0 10.84387-5.79743 17.06183-5.79745 6.21796-15.89038 6.21796-10.12299 0-15.89039-6.27803-5.7674-6.30807-5.7674-17.00176 0-10.78379 5.7674-17.03179 5.7674-6.27802 15.89039-6.27802 10.09293 0 15.89038 6.248 5.79743 6.21794 5.79743 17.06181zm-11.59488-.03q0-3.99511-.84108-6.78869-.81102-2.8236-2.19281-4.62591-1.44184-1.83235-3.27419-2.61334-1.80232-.81104-3.75483-.81104-2.07265 0-3.75479.75095-1.68217.72093-3.24418 2.61335-1.38178 1.74224-2.25288 4.62593-.84108 2.88368-.84108 6.87878 0 4.11527.81104 6.84878.81104 2.70345 2.22285 4.5358 1.44185 1.86237 3.27421 2.67341 1.83234.78099 3.78483.78099 1.98256 0 3.84493-.84107 1.8624-.87111 3.21413-2.67342 1.44187-1.9525 2.22285-4.5358.781-2.61334.781-6.81872z"/></g></svg>