<?xml version="1.0" encoding="UTF-8" standalone="no"?>
<svg
   xmlns:dc="http://purl.org/dc/elements/1.1/"
   xmlns:cc="http://creativecommons.org/ns#"
   xmlns:rdf="http://www.w3.org/1999/02/22-rdf-syntax-ns#"
   xmlns:svg="http://www.w3.org/2000/svg"
   xmlns="http://www.w3.org/2000/svg"
   xmlns:sodipodi="http://sodipodi.sourceforge.net/DTD/sodipodi-0.dtd"
   xmlns:inkscape="http://www.inkscape.org/namespaces/inkscape"
   width="372.42847pt"
   height="450.547pt"
   viewBox="0 0 372.42847 450.547"
   version="1.1"
   id="svg2"
   inkscape:version="0.91 r13725"
   sodipodi:docname="Tsunado.svg">
  <metadata
     id="metadata43">
    <rdf:RDF>
      <cc:Work
         rdf:about="">
        <dc:format>image/svg+xml</dc:format>
        <dc:type
           rdf:resource="http://purl.org/dc/dcmitype/StillImage" />
        <dc:title></dc:title>
      </cc:Work>
    </rdf:RDF>
  </metadata>
  <defs
     id="defs41" />
  <sodipodi:namedview
     pagecolor="#ffffff"
     bordercolor="#666666"
     borderopacity="1"
     objecttolerance="10"
     gridtolerance="10"
     guidetolerance="10"
     inkscape:pageopacity="0"
     inkscape:pageshadow="2"
     inkscape:window-width="1920"
     inkscape:window-height="1017"
     id="namedview39"
     showgrid="false"
     fit-margin-top="0"
     fit-margin-left="0"
     fit-margin-right="0"
     fit-margin-bottom="0"
     inkscape:zoom="0.37312253"
     inkscape:cx="-392.16719"
     inkscape:cy="415.70711"
     inkscape:window-x="-8"
     inkscape:window-y="-8"
     inkscape:window-maximized="1"
     inkscape:current-layer="svg2" />
  <path
     style="opacity:1;fill:#bf1e2e"
     inkscape:connector-curvature="0"
     id="path14"
     d="m 126.9576,9.5189904 c 18.87,-6.09 38.63,-9.93 58.52,-9.47 20.49,-0.52 40.93,3.13 60.36,9.5 1.12,0.6099996 3.37,0.6399996 3.25,2.3699996 l 0.08,111.3896 c 0.76442,72.6437 -58.94694,127.41883 -125.58,124.8504 l -112.42,0 c -13.981611,-42.901 -14.071916,-83.552 -0.21,-124.83 l 112.8704,-0.0204 0,-111.4 c -0.15,-1.72 2.0196,-1.8096 3.1296,-2.3895996 z"
     sodipodi:nodetypes="ccccccccccc" />
  <path
     style="opacity:1;fill:#a8a9ac"
     inkscape:connector-curvature="0"
     id="path31"
     d="m 249.1676,123.30859 111.14,0 c 4.94507,3.25615 9.40763,31.16039 10.14,36.4904 2.55,14.13 2.13,28.58 1.51,42.86 -1.98,15.68 -4.45,30.82 -10.52,45.5 l -111.85,0 -0.47,113.32 c -13.66,5.17 -28.04,8.43 -42.56,9.89 -8.26,1.69 -16.72,0.86 -25.09,1.05 -7.4,0.22 -14.76,-0.58 -22.06,-1.71 -12.07,-2.15 -24.19,-4.63 -35.6,-9.21 l -0.22,-113.34 c 72.02569,-2.96221 125.75758,-55.37897 125.58,-124.8504 z"
     sodipodi:nodetypes="ccccccccccccc" />
  <path
     style="opacity:1;fill:#a8a9ac"
     inkscape:connector-curvature="0"
     id="path33"
     d="m 262.6576,262.06859 19.86,0.0604 c -5.45491,7.82711 -12.41191,15.9209 -19.86,20.68 z"
     sodipodi:nodetypes="cccc" />
  <path
     style="opacity:1;fill:#a8a9ac"
     inkscape:connector-curvature="0"
     id="path35"
     d="m 304.0176,262.06859 15.38,0 c -13.54917,25.96762 -32.04634,43.80925 -56.74,56.6304 l 0,-15.55 c 17.90434,-9.14113 33.95042,-24.81189 41.36,-41.0804 z"
     sodipodi:nodetypes="ccccc" />
  <path
     style="opacity:1;fill:#a8a9ac"
     inkscape:connector-curvature="0"
     id="path37"
     d="m 340.7376,262.06859 14.74,0 c -17.90955,39.89866 -60.12384,77.22067 -92.82,93.5504 l 0,-15.53 c 32.98372,-20.51984 61.99103,-50.08786 78.08,-78.0204 z"
     sodipodi:nodetypes="ccccc" />
  <g
     id="g4870"
     transform="translate(-568.24088,34.88778)"
     style="fill:#bf1e2e;fill-opacity:1">
    <path
       inkscape:connector-curvature="0"
       d="m 581.45779,414.72802 0,-36.19631 -13.21691,0 0,-8.53091 37.66818,0 0,8.53091 -13.21691,0 0,36.19631 -11.23436,0 z"
       id="path4259-0"
       style="font-variant:normal;font-weight:bold;font-stretch:normal;font-size:medium;font-family:Tahoma;-inkscape-font-specification:Tahoma-Bold;writing-mode:lr-tb;fill:#bf1e2e;fill-opacity:1;fill-rule:nonzero;stroke:none" />
    <path
       inkscape:connector-curvature="0"
       d="m 636.35915,415.53906 q -5.13657,0 -9.04156,-0.99127 -3.87496,-0.99128 -7.20924,-2.46315 l 0,-10.63361 1.02131,0 q 3.36431,2.85366 7.4195,4.38561 4.05518,1.53196 7.87008,1.53196 0.96122,0 2.52321,-0.21026 1.59205,-0.21028 2.55328,-0.66085 1.17149,-0.51066 1.98253,-1.41181 0.81103,-0.93118 0.81103,-2.43311 0,-1.68215 -1.32168,-2.73349 -1.32169,-1.05135 -3.15404,-1.53196 -2.28293,-0.60078 -4.89626,-1.14147 -2.58331,-0.54069 -4.83618,-1.32168 -5.19665,-1.83235 -7.44955,-4.92632 -2.25288,-3.09395 -2.25288,-7.7499 0,-6.27803 5.31682,-10.15299 5.31678,-3.905 13.27698,-3.905 3.99511,0 7.93014,0.81104 3.96507,0.81103 7.08907,2.1928 l 0,10.21307 -0.99127,0 q -2.49319,-2.13272 -6.0978,-3.60461 -3.57458,-1.47188 -7.35942,-1.47188 -1.47188,0 -2.64338,0.21026 -1.1715,0.21028 -2.46315,0.81105 -1.05135,0.48061 -1.83235,1.44184 -0.75096,0.93118 -0.75096,2.10269 0,1.71218 1.20154,2.7335 1.23158,0.99127 4.71604,1.8023 2.25288,0.51065 4.32553,0.99127 2.10269,0.48061 4.47573,1.32169 4.65596,1.68216 6.90883,4.5358 2.28293,2.82361 2.28293,7.47956 0,6.66854 -5.25673,10.72372 -5.22669,4.0552 -14.14811,4.0552 z"
       id="path4261-9"
       style="font-variant:normal;font-weight:bold;font-stretch:normal;font-size:medium;font-family:Tahoma;-inkscape-font-specification:Tahoma-Bold;writing-mode:lr-tb;fill:#bf1e2e;fill-opacity:1;fill-rule:nonzero;stroke:none" />
    <path
       inkscape:connector-curvature="0"
       d="m 688.67721,415.65921 q -9.01153,0 -13.87775,-4.35557 -4.83619,-4.35558 -4.83619,-12.7363 l 0,-28.56654 11.23437,0 0,27.9057 q 0,4.65595 1.74224,6.93888 1.77226,2.28291 5.73733,2.28291 3.87496,0 5.67725,-2.1928 1.83235,-2.19281 1.83235,-7.02899 l 0,-27.9057 11.23437,0 0,28.53651 q 0,8.26056 -4.74606,12.70625 -4.71604,4.41565 -13.99791,4.41565 z"
       id="path4263-0"
       style="font-variant:normal;font-weight:bold;font-stretch:normal;font-size:medium;font-family:Tahoma;-inkscape-font-specification:Tahoma-Bold;writing-mode:lr-tb;fill:#bf1e2e;fill-opacity:1;fill-rule:nonzero;stroke:none" />
    <path
       inkscape:connector-curvature="0"
       d="m 759.94951,414.72802 -10.81382,0 -17.24207,-31.17989 0,31.17989 -10.27315,0 0,-44.72722 13.78765,0 14.26826,25.62278 0,-25.62278 10.27313,0 0,44.72722 z"
       id="path4265-2"
       style="font-variant:normal;font-weight:bold;font-stretch:normal;font-size:medium;font-family:Tahoma;-inkscape-font-specification:Tahoma-Bold;writing-mode:lr-tb;fill:#bf1e2e;fill-opacity:1;fill-rule:nonzero;stroke:none" />
    <path
       inkscape:connector-curvature="0"
       d="m 774.14882,414.72802 15.10932,-44.72722 12.25568,0 15.10932,44.72722 -11.56478,0 -2.79358,-9.13169 -14.05799,0 -2.79357,9.13169 -11.2644,0 z m 25.65281,-17.24206 -4.56585,-14.74886 -4.56584,14.74886 9.13169,0 z"
       id="path4267-2"
       style="font-variant:normal;font-weight:bold;font-stretch:normal;font-size:medium;font-family:Tahoma;-inkscape-font-specification:Tahoma-Bold;writing-mode:lr-tb;fill:#bf1e2e;fill-opacity:1;fill-rule:nonzero;stroke:none" />
    <path
       inkscape:connector-curvature="0"
       d="m 870.77354,392.40946 q 0,6.248 -2.73351,11.20434 -2.73349,4.9263 -6.90884,7.56967 -3.48445,2.25289 -7.59973,2.91373 -4.08522,0.63082 -8.71112,0.63082 l -13.99792,0 0,-44.72722 13.87776,0 q 4.71603,0 8.83128,0.60077 4.11528,0.60077 7.71988,2.91373 4.41565,2.82361 6.96892,7.62975 2.55328,4.77611 2.55328,11.26441 z m -11.53476,-0.0901 q 0,-4.41565 -1.53196,-7.53964 -1.50192,-3.15404 -4.65596,-4.92629 -2.28292,-1.26163 -4.80615,-1.38178 -2.49319,-0.1201 -5.97765,-0.1201 l -0.21027,0 0,27.9958 0.21027,0 q 3.78484,0 6.36816,-0.12011 2.61333,-0.15019 4.95633,-1.62208 2.76353,-1.74223 4.20537,-4.80615 1.44186,-3.0639 1.44186,-7.47956 z"
       id="path4269-3"
       style="font-variant:normal;font-weight:bold;font-stretch:normal;font-size:medium;font-family:Tahoma;-inkscape-font-specification:Tahoma-Bold;writing-mode:lr-tb;fill:#bf1e2e;fill-opacity:1;fill-rule:nonzero;stroke:none" />
    <path
       inkscape:connector-curvature="0"
       d="m 928.31844,392.37942 q 0,10.84387 -5.79743,17.06183 -5.79745,6.21796 -15.89038,6.21796 -10.12299,0 -15.89039,-6.27803 -5.7674,-6.30807 -5.7674,-17.00176 0,-10.78379 5.7674,-17.03179 5.7674,-6.27802 15.89039,-6.27802 10.09293,0 15.89038,6.248 5.79743,6.21794 5.79743,17.06181 z m -11.59488,-0.03 q 0,-3.99511 -0.84108,-6.78869 -0.81102,-2.8236 -2.19281,-4.62591 -1.44184,-1.83235 -3.27419,-2.61334 -1.80232,-0.81104 -3.75483,-0.81104 -2.07265,0 -3.75479,0.75095 -1.68217,0.72093 -3.24418,2.61335 -1.38178,1.74224 -2.25288,4.62593 -0.84108,2.88368 -0.84108,6.87878 0,4.11527 0.81104,6.84878 0.81104,2.70345 2.22285,4.5358 1.44185,1.86237 3.27421,2.67341 1.83234,0.78099 3.78483,0.78099 1.98256,0 3.84493,-0.84107 1.8624,-0.87111 3.21413,-2.67342 1.44187,-1.9525 2.22285,-4.5358 0.781,-2.61334 0.781,-6.81872 z"
       id="path4271-4"
       style="font-variant:normal;font-weight:bold;font-stretch:normal;font-size:medium;font-family:Tahoma;-inkscape-font-specification:Tahoma-Bold;writing-mode:lr-tb;fill:#bf1e2e;fill-opacity:1;fill-rule:nonzero;stroke:none" />
  </g>
</svg>
