<?xml version="1.0" encoding="UTF-8"?>
<svg id="svg2" width="372.43pt" height="450.55pt" version="1.1" viewBox="0 0 372.43 450.55" xmlns="http://www.w3.org/2000/svg" xmlns:cc="http://creativecommons.org/ns#" xmlns:dc="http://purl.org/dc/elements/1.1/" xmlns:rdf="http://www.w3.org/1999/02/22-rdf-syntax-ns#">
 <metadata id="metadata43">
  <rdf:RDF>
   <cc:Work rdf:about="">
    <dc:format>image/svg+xml</dc:format>
    <dc:type rdf:resource="http://purl.org/dc/dcmitype/StillImage"/>
    <dc:title/>
   </cc:Work>
  </rdf:RDF>
 </metadata>
 <path id="path14" d="m126.96 9.519c18.87-6.09 38.63-9.93 58.52-9.47 20.49-0.52 40.93 3.13 60.36 9.5 1.12 0.61 3.37 0.64 3.25 2.37l0.08 111.39c0.76442 72.644-58.947 127.42-125.58 124.85h-112.42c-13.982-42.901-14.072-83.552-0.21-124.83l112.87-0.0204v-111.4c-0.15-1.72 2.0196-1.8096 3.1296-2.3896z" fill="#bf1e2e"/>
 <path id="path31" d="m249.17 123.31h111.14c4.9451 3.2562 9.4076 31.16 10.14 36.49 2.55 14.13 2.13 28.58 1.51 42.86-1.98 15.68-4.45 30.82-10.52 45.5h-111.85l-0.47 113.32c-13.66 5.17-28.04 8.43-42.56 9.89-8.26 1.69-16.72 0.86-25.09 1.05-7.4 0.22-14.76-0.58-22.06-1.71-12.07-2.15-24.19-4.63-35.6-9.21l-0.22-113.34c72.026-2.9622 125.76-55.379 125.58-124.85z" fill="#a8a9ac"/>
 <path id="path33" d="m262.66 262.07 19.86 0.0604c-5.4549 7.8271-12.412 15.921-19.86 20.68z" fill="#a8a9ac"/>
 <path id="path35" d="m304.02 262.07h15.38c-13.549 25.968-32.046 43.809-56.74 56.63v-15.55c17.904-9.1411 33.95-24.812 41.36-41.08z" fill="#a8a9ac"/>
 <path id="path37" d="m340.74 262.07h14.74c-17.91 39.899-60.124 77.221-92.82 93.55v-15.53c32.984-20.52 61.991-50.088 78.08-78.02z" fill="#a8a9ac"/>
 <g id="g4870" transform="translate(-568.24 34.888)" fill="#bf1e2e">
  <path id="path4259-0" d="m581.46 414.73v-36.196h-13.217v-8.5309h37.668v8.5309h-13.217v36.196h-11.234z"/>
  <path id="path4261-9" d="m636.36 415.54q-5.1366 0-9.0416-0.99127-3.875-0.99128-7.2092-2.4632v-10.634h1.0213q3.3643 2.8537 7.4195 4.3856 4.0552 1.532 7.8701 1.532 0.96122 0 2.5232-0.21026 1.592-0.21028 2.5533-0.66085 1.1715-0.51066 1.9825-1.4118 0.81103-0.93118 0.81103-2.4331 0-1.6822-1.3217-2.7335-1.3217-1.0514-3.154-1.532-2.2829-0.60078-4.8963-1.1415-2.5833-0.54069-4.8362-1.3217-5.1966-1.8324-7.4496-4.9263-2.2529-3.094-2.2529-7.7499 0-6.278 5.3168-10.153 5.3168-3.905 13.277-3.905 3.9951 0 7.9301 0.81104 3.9651 0.81103 7.0891 2.1928v10.213h-0.99127q-2.4932-2.1327-6.0978-3.6046-3.5746-1.4719-7.3594-1.4719-1.4719 0-2.6434 0.21026-1.1715 0.21028-2.4632 0.81105-1.0514 0.48061-1.8324 1.4418-0.75096 0.93118-0.75096 2.1027 0 1.7122 1.2015 2.7335 1.2316 0.99127 4.716 1.8023 2.2529 0.51065 4.3255 0.99127 2.1027 0.48061 4.4757 1.3217 4.656 1.6822 6.9088 4.5358 2.2829 2.8236 2.2829 7.4796 0 6.6685-5.2567 10.724-5.2267 4.0552-14.148 4.0552z"/>
  <path id="path4263-0" d="m688.68 415.66q-9.0115 0-13.878-4.3556-4.8362-4.3556-4.8362-12.736v-28.567h11.234v27.906q0 4.656 1.7422 6.9389 1.7723 2.2829 5.7373 2.2829 3.875 0 5.6772-2.1928 1.8324-2.1928 1.8324-7.029v-27.906h11.234v28.537q0 8.2606-4.7461 12.706-4.716 4.4156-13.998 4.4156z"/>
  <path id="path4265-2" d="m759.95 414.73h-10.814l-17.242-31.18v31.18h-10.273v-44.727h13.788l14.268 25.623v-25.623h10.273v44.727z"/>
  <path id="path4267-2" d="m774.15 414.73 15.109-44.727h12.256l15.109 44.727h-11.565l-2.7936-9.1317h-14.058l-2.7936 9.1317h-11.264zm25.653-17.242-4.5658-14.749-4.5658 14.749h9.1317z"/>
  <path id="path4269-3" d="m870.77 392.41q0 6.248-2.7335 11.204-2.7335 4.9263-6.9088 7.5697-3.4844 2.2529-7.5997 2.9137-4.0852 0.63082-8.7111 0.63082h-13.998v-44.727h13.878q4.716 0 8.8313 0.60077 4.1153 0.60077 7.7199 2.9137 4.4156 2.8236 6.9689 7.6298 2.5533 4.7761 2.5533 11.264zm-11.535-0.0901q0-4.4156-1.532-7.5396-1.5019-3.154-4.656-4.9263-2.2829-1.2616-4.8062-1.3818-2.4932-0.1201-5.9776-0.1201h-0.21027v27.996h0.21027q3.7848 0 6.3682-0.12011 2.6133-0.15019 4.9563-1.6221 2.7635-1.7422 4.2054-4.8062 1.4419-3.0639 1.4419-7.4796z"/>
  <path id="path4271-4" d="m928.32 392.38q0 10.844-5.7974 17.062-5.7974 6.218-15.89 6.218-10.123 0-15.89-6.278-5.7674-6.3081-5.7674-17.002 0-10.784 5.7674-17.032 5.7674-6.278 15.89-6.278 10.093 0 15.89 6.248 5.7974 6.2179 5.7974 17.062zm-11.595-0.03q0-3.9951-0.84108-6.7887-0.81102-2.8236-2.1928-4.6259-1.4418-1.8324-3.2742-2.6133-1.8023-0.81104-3.7548-0.81104-2.0726 0-3.7548 0.75095-1.6822 0.72093-3.2442 2.6134-1.3818 1.7422-2.2529 4.6259-0.84108 2.8837-0.84108 6.8788 0 4.1153 0.81104 6.8488 0.81104 2.7034 2.2228 4.5358 1.4418 1.8624 3.2742 2.6734 1.8323 0.78099 3.7848 0.78099 1.9826 0 3.8449-0.84107 1.8624-0.87111 3.2141-2.6734 1.4419-1.9525 2.2228-4.5358 0.781-2.6133 0.781-6.8187z"/>
 </g>
</svg>
