<svg id="a" enable-background="new 0 0 527.244 297.479" version="1.0" viewBox="0 0 527.24 301" xml:space="preserve" xmlns="http://www.w3.org/2000/svg"><path id="b" d="m36.372 300.77h-9.067l-17.567-49.395h8.783l10.392 30.439c1.022 2.854 2.193 6.363 3.141 10.025h0.082c0.867-3.439 1.758-6.51 3.205-10.535l10.622-29.93h8.186l-17.777 49.396z" fill="#b4b9c1"/><path id="c" d="m87.517 281.89c0-12.803-6.869-18.223-16.607-18.223-11.048 0-18.144 8.42-18.144 19.395 0 10.623 4.529 16.307 11.836 17.941h9.237c8.305-1.969 13.678-9.521 13.678-19.113zm-8.046 0.515c0 8.414-4.242 12.363-9.289 12.363-6.076 0-9.296-4.33-9.296-12.521 0-8.326 4.611-11.988 9.362-11.988 6.223 0 9.223 4.383 9.223 12.146z" fill="#b4b9c1"/><path id="d" d="m102.74 300.77h-7.825v-36.369h7.825v36.369zm-3.876-41.784c-2.78 0-5.054-2.197-5.054-4.898 0-2.713 2.273-4.904 5.054-4.904 2.714 0 4.972 2.127 4.972 4.904 0 2.701-2.257 4.898-4.972 4.898z" fill="#b4b9c1"/><path id="e" d="m122.52 301c-7.16-1.283-12.026-6.264-12.026-17.215 0-11.555 5.922-19.969 18.441-19.969 2.706 0 5.477 0.369 7.898 1.096l-0.803 6.803c-2.199-0.803-4.685-1.389-7.317-1.389-6.665 0-10.025 4.904-10.025 12.58 0 6.662 2.413 11.719 9.649 11.719 2.788 0 5.789-0.662 7.907-1.764l0.671 6.65c-1.494 0.592-3.507 1.148-5.771 1.488h-8.624v1e-3z" fill="#b4b9c1"/><path id="f" d="m172.97 279.4c0-8.631-4.456-15.732-14.848-15.732-10.607 0-16.608 8.197-16.608 19.172 0 10.664 4.307 16.5 12.287 18.164h11.316c2.333-0.393 4.557-1.014 6.546-1.846l-0.737-6.217c-3.001 1.459-6.877 2.344-10.614 2.344-7.244 0-10.972-3.814-10.752-12.223h23.188c0.158-1.394 0.222-2.636 0.222-3.662zm-7.832-1.828h-15.429c0.653-4.904 3.737-8.115 8.127-8.115 4.595 0 7.457 3.147 7.302 8.115z" fill="#b4b9c1"/><path id="g" d="m229.46 281.89c0-12.803-6.876-18.223-16.607-18.223-11.055 0-18.145 8.42-18.145 19.395 0 10.623 4.531 16.307 11.837 17.941h9.237c8.306-1.969 13.678-9.521 13.678-19.113zm-8.054 0.515c0 8.414-4.236 12.363-9.289 12.363-6.067 0-9.29-4.33-9.29-12.521 0-8.326 4.613-11.988 9.363-11.988 6.224 0 9.216 4.383 9.216 12.146z" fill="#b4b9c1"/><path id="h" d="m259.53 253.94c-1.611-0.51-3.36-0.738-4.98-0.738-4.685 0-6.803 2.561-6.803 8.268v2.93h9.444v6.076h-9.444v30.293h-7.752v-30.293h-6.958v-6.076h6.958v-2.777c0-9.955 4.758-14.777 14.196-14.777 2.043 0 4.014 0.217 5.919 0.65l-0.58 6.444z" fill="#b4b9c1"/><path id="i" d="m319.08 300.77-17.915-49.395h-8.865l-17.701 49.395h8.054l3.794-10.91h19.975l3.803 10.91h8.855zm-14.774-17.274h-15.809l5.569-15.293c0.949-2.637 1.743-5.326 2.259-7.816h0.155c0.586 2.695 1.242 5.045 2.188 7.6l5.638 15.509z" fill="#b4b9c1"/><path id="j" d="m369.93 300.77v-23.197c0-4.541-1.096-7.395-5.273-7.395-4.676 0-9.363 5.197-9.363 13.172v17.42h-7.676v-23.273c0-4.096-0.885-7.318-5.268-7.318-4.978 0-9.287 5.572-9.287 13.172v17.42h-7.843v-36.369h7.465c0 1.904-0.141 4.969-0.507 7.102l0.146 0.07c2.127-4.828 6.656-7.904 12.29-7.904 7.172 0 9.51 4.617 10.099 7.834 1.538-3.516 5.561-7.834 12.152-7.834 6.94 0 10.825 3.732 10.825 12v25.102h-7.76v-2e-3z" fill="#b4b9c1"/><path id="k" d="m416.54 279.4c0-8.631-4.465-15.732-14.848-15.732-10.614 0-16.608 8.197-16.608 19.172 0 10.664 4.307 16.5 12.287 18.164h11.309c2.332-0.393 4.556-1.014 6.545-1.846l-0.729-6.217c-3.009 1.459-6.885 2.344-10.611 2.344-7.245 0-10.975-3.814-10.752-12.223h23.197c0.137-1.394 0.21-2.636 0.21-3.662zm-7.825-1.828h-15.445c0.662-4.904 3.735-8.115 8.127-8.115 4.611 0 7.459 3.147 7.318 8.115z" fill="#b4b9c1"/><path id="l" d="m443.6 271.35c-7.239-1.324-10.755 3.721-10.755 14.631v14.783h-7.825v-36.369h7.459c0 2.051-0.214 5.268-0.729 8.039h0.146c1.614-4.887 5.268-9.422 12.079-8.771l-0.375 7.687z" fill="#b4b9c1"/><path id="m" d="m458.83 300.77h-7.834v-36.369h7.834v36.369zm-3.876-41.784c-2.78 0-5.057-2.197-5.057-4.898 0-2.713 2.276-4.904 5.057-4.904 2.704 0 4.978 2.127 4.978 4.904 0 2.701-2.274 4.898-4.978 4.898z" fill="#b4b9c1"/><path id="n" d="m477.88 301c-7.157-1.283-12.029-6.264-12.029-17.215 0-11.555 5.93-19.969 18.439-19.969 2.704 0 5.484 0.369 7.907 1.096l-0.812 6.803c-2.197-0.803-4.693-1.389-7.318-1.389-6.653 0-10.022 4.904-10.022 12.58 0 6.662 2.411 11.719 9.653 11.719 2.792 0 5.783-0.662 7.901-1.764l0.671 6.65c-1.488 0.592-3.498 1.148-5.766 1.488h-8.624v1e-3z" fill="#b4b9c1"/><path id="o" d="m527.24 300.77c-0.155-3.082-0.22-6.803-0.22-9.949v-14.859c0-7.459-3.076-12.293-14.197-12.293-4.685 0-9.214 1.031-12.812 2.414l0.744 6.668c3.064-1.91 7.456-2.924 10.825-2.924 5.698 0 7.605 2.332 7.605 6.873v2.332c-13.09 0-21.439 4.834-21.439 13.172 0 4.506 2.399 7.635 6.404 8.801h7.6c3.917-1.066 6.891-3.732 8.244-7.037l0.064 0.07c-0.275 1.975-0.366 4.389-0.366 6.732h7.548zm-8.054-15.733c0 5.197-3.583 10.318-8.938 10.318-3.059 0-4.954-1.764-4.954-4.465 0-3.146 2.484-6.586 13.893-6.586v0.733h-1e-3z" fill="#b4b9c1"/><path id="p" d="m152.54 0.025391-35.881 133.91-35.664-133.11h-80.992l77.652 219.61h80.379l15.289-47.074a109.23 109.23 0 0 1-19.699-62.361 109.23 109.23 0 0 1 73.422-103.06l2.5723-7.9199h-77.078z" fill="#d41010" fill-rule="evenodd"/><path id="q" d="m372.81-3.0639e-4 -18.18 52.002a109.23 109.23 0 0 1 17.441 59 109.23 109.23 0 0 1-74.184 103.31l-2.7285 7.8047h80.99l35.666-135.61 35.881 133.91h77.076l-71.584-220.41h-80.379z" fill="#1330bf" fill-rule="evenodd"/><path id="r" d="m314.21 111.59a50.775 50.775 0 1 1-101.55 0 50.775 50.775 0 1 1 101.55 0z" fill="#999"/></svg>
