<?xml version="1.0" encoding="UTF-8" standalone="no"?>
<!-- Generator: Adobe Illustrator 13.0.2, SVG Export Plug-In . SVG Version: 6.00 Build 14948)  -->

<svg
   xmlns:dc="http://purl.org/dc/elements/1.1/"
   xmlns:cc="http://creativecommons.org/ns#"
   xmlns:rdf="http://www.w3.org/1999/02/22-rdf-syntax-ns#"
   xmlns:svg="http://www.w3.org/2000/svg"
   xmlns="http://www.w3.org/2000/svg"
   xmlns:sodipodi="http://sodipodi.sourceforge.net/DTD/sodipodi-0.dtd"
   xmlns:inkscape="http://www.inkscape.org/namespaces/inkscape"
   version="1.0"
   id="Ebene_1"
   x="0px"
   y="0px"
   width="527.24402"
   height="301.00192"
   viewBox="0 0 527.244 301.00192"
   enable-background="new 0 0 527.244 297.479"
   xml:space="preserve"
   inkscape:version="0.91 r13725"
   sodipodi:docname="Voice of America.svg"><metadata
     id="metadata41"><rdf:RDF><cc:Work
         rdf:about=""><dc:format>image/svg+xml</dc:format><dc:type
           rdf:resource="http://purl.org/dc/dcmitype/StillImage" /><dc:title /></cc:Work></rdf:RDF></metadata><defs
     id="defs39" /><sodipodi:namedview
     pagecolor="#ffffff"
     bordercolor="#666666"
     borderopacity="1"
     objecttolerance="10"
     gridtolerance="10"
     guidetolerance="10"
     inkscape:pageopacity="0"
     inkscape:pageshadow="2"
     inkscape:window-width="1920"
     inkscape:window-height="1017"
     id="namedview37"
     showgrid="false"
     fit-margin-top="0"
     fit-margin-left="0"
     fit-margin-right="0"
     fit-margin-bottom="0"
     inkscape:zoom="2.1849465"
     inkscape:cx="267.24726"
     inkscape:cy="166.64485"
     inkscape:window-x="-8"
     inkscape:window-y="-8"
     inkscape:window-maximized="1"
     inkscape:current-layer="Ebene_1" /><path
     d="m 36.372,300.76693 -9.067,0 -17.567,-49.395 8.783,0 10.392,30.439 c 1.022,2.854 2.193,6.363 3.141,10.025 l 0.082,0 c 0.867,-3.439 1.758,-6.51 3.205,-10.535 l 10.622,-29.93 8.186,0 -17.777,49.396 0,0 z"
     id="path3"
     inkscape:connector-curvature="0"
     style="fill:#b4b9c1" /><path
     d="m 87.517,281.88793 c 0,-12.803 -6.869,-18.223 -16.607,-18.223 -11.048,0 -18.144,8.42 -18.144,19.395 0,10.623 4.529,16.307 11.836,17.941 l 9.237,0 c 8.305,-1.969 13.678,-9.521 13.678,-19.113 l 0,0 0,0 z m -8.046,0.515 c 0,8.414 -4.242,12.363 -9.289,12.363 -6.076,0 -9.296,-4.33 -9.296,-12.521 0,-8.326 4.611,-11.988 9.362,-11.988 6.223,0 9.223,4.383 9.223,12.146 l 0,0 z"
     id="path5"
     inkscape:connector-curvature="0"
     style="fill:#b4b9c1" /><path
     d="m 102.735,300.76693 -7.825,0 0,-36.369 7.825,0 0,36.369 0,0 0,0 z m -3.876,-41.784 c -2.78,0 -5.054,-2.197 -5.054,-4.898 0,-2.713 2.273,-4.904 5.054,-4.904 2.714,0 4.972,2.127 4.972,4.904 0,2.701 -2.257,4.898 -4.972,4.898 l 0,0 z"
     id="path7"
     inkscape:connector-curvature="0"
     style="fill:#b4b9c1" /><path
     d="m 122.52,301.00093 c -7.16,-1.283 -12.026,-6.264 -12.026,-17.215 0,-11.555 5.922,-19.969 18.441,-19.969 2.706,0 5.477,0.369 7.898,1.096 l -0.803,6.803 c -2.199,-0.803 -4.685,-1.389 -7.317,-1.389 -6.665,0 -10.025,4.904 -10.025,12.58 0,6.662 2.413,11.719 9.649,11.719 2.788,0 5.789,-0.662 7.907,-1.764 l 0.671,6.65 c -1.494,0.592 -3.507,1.148 -5.771,1.488 l -8.624,0 0,10e-4 z"
     id="path9"
     inkscape:connector-curvature="0"
     style="fill:#b4b9c1" /><path
     d="m 172.973,279.39693 c 0,-8.631 -4.456,-15.732 -14.848,-15.732 -10.607,0 -16.608,8.197 -16.608,19.172 0,10.664 4.307,16.5 12.287,18.164 l 11.316,0 c 2.333,-0.393 4.557,-1.014 6.546,-1.846 l -0.737,-6.217 c -3.001,1.459 -6.877,2.344 -10.614,2.344 -7.244,0 -10.972,-3.814 -10.752,-12.223 l 23.188,0 c 0.158,-1.394 0.222,-2.636 0.222,-3.662 l 0,0 0,0 z m -7.832,-1.828 -15.429,0 c 0.653,-4.904 3.737,-8.115 8.127,-8.115 4.595,0 7.457,3.147 7.302,8.115 l 0,0 z"
     id="path11"
     inkscape:connector-curvature="0"
     style="fill:#b4b9c1" /><path
     d="m 229.459,281.88793 c 0,-12.803 -6.876,-18.223 -16.607,-18.223 -11.055,0 -18.145,8.42 -18.145,19.395 0,10.623 4.531,16.307 11.837,17.941 l 9.237,0 c 8.306,-1.969 13.678,-9.521 13.678,-19.113 l 0,0 0,0 z m -8.054,0.515 c 0,8.414 -4.236,12.363 -9.289,12.363 -6.067,0 -9.29,-4.33 -9.29,-12.521 0,-8.326 4.613,-11.988 9.363,-11.988 6.224,0 9.216,4.383 9.216,12.146 l 0,0 z"
     id="path13"
     inkscape:connector-curvature="0"
     style="fill:#b4b9c1" /><path
     d="m 259.526,253.93893 c -1.611,-0.51 -3.36,-0.738 -4.98,-0.738 -4.685,0 -6.803,2.561 -6.803,8.268 l 0,2.93 9.444,0 0,6.076 -9.444,0 0,30.293 -7.752,0 0,-30.293 -6.958,0 0,-6.076 6.958,0 0,-2.777 c 0,-9.955 4.758,-14.777 14.196,-14.777 2.043,0 4.014,0.217 5.919,0.65 l -0.58,6.444 0,0 z"
     id="path15"
     inkscape:connector-curvature="0"
     style="fill:#b4b9c1" /><path
     d="m 319.078,300.76693 -17.915,-49.395 -8.865,0 -17.701,49.395 8.054,0 3.794,-10.91 19.975,0 3.803,10.91 8.855,0 0,0 0,0 z m -14.774,-17.274 -15.809,0 5.569,-15.293 c 0.949,-2.637 1.743,-5.326 2.259,-7.816 l 0.155,0 c 0.586,2.695 1.242,5.045 2.188,7.6 l 5.638,15.509 0,0 z"
     id="path17"
     inkscape:connector-curvature="0"
     style="fill:#b4b9c1" /><path
     d="m 369.929,300.76693 0,-23.197 c 0,-4.541 -1.096,-7.395 -5.273,-7.395 -4.676,0 -9.363,5.197 -9.363,13.172 l 0,17.42 -7.676,0 0,-23.273 c 0,-4.096 -0.885,-7.318 -5.268,-7.318 -4.978,0 -9.287,5.572 -9.287,13.172 l 0,17.42 -7.843,0 0,-36.369 7.465,0 c 0,1.904 -0.141,4.969 -0.507,7.102 l 0.146,0.07 c 2.127,-4.828 6.656,-7.904 12.29,-7.904 7.172,0 9.51,4.617 10.099,7.834 1.538,-3.516 5.561,-7.834 12.152,-7.834 6.94,0 10.825,3.732 10.825,12 l 0,25.102 -7.76,0 0,-0.002 z"
     id="path19"
     inkscape:connector-curvature="0"
     style="fill:#b4b9c1" /><path
     d="m 416.537,279.39693 c 0,-8.631 -4.465,-15.732 -14.848,-15.732 -10.614,0 -16.608,8.197 -16.608,19.172 0,10.664 4.307,16.5 12.287,18.164 l 11.309,0 c 2.332,-0.393 4.556,-1.014 6.545,-1.846 l -0.729,-6.217 c -3.009,1.459 -6.885,2.344 -10.611,2.344 -7.245,0 -10.975,-3.814 -10.752,-12.223 l 23.197,0 c 0.137,-1.394 0.21,-2.636 0.21,-3.662 l 0,0 0,0 z m -7.825,-1.828 -15.445,0 c 0.662,-4.904 3.735,-8.115 8.127,-8.115 4.611,0 7.459,3.147 7.318,8.115 l 0,0 z"
     id="path21"
     inkscape:connector-curvature="0"
     style="fill:#b4b9c1" /><path
     d="m 443.604,271.35293 c -7.239,-1.324 -10.755,3.721 -10.755,14.631 l 0,14.783 -7.825,0 0,-36.369 7.459,0 c 0,2.051 -0.214,5.268 -0.729,8.039 l 0.146,0 c 1.614,-4.887 5.268,-9.422 12.079,-8.771 l -0.375,7.687 0,0 z"
     id="path23"
     inkscape:connector-curvature="0"
     style="fill:#b4b9c1" /><path
     d="m 458.83,300.76693 -7.834,0 0,-36.369 7.834,0 0,36.369 0,0 0,0 z m -3.876,-41.784 c -2.78,0 -5.057,-2.197 -5.057,-4.898 0,-2.713 2.276,-4.904 5.057,-4.904 2.704,0 4.978,2.127 4.978,4.904 0,2.701 -2.274,4.898 -4.978,4.898 l 0,0 z"
     id="path25"
     inkscape:connector-curvature="0"
     style="fill:#b4b9c1" /><path
     d="m 477.882,301.00093 c -7.157,-1.283 -12.029,-6.264 -12.029,-17.215 0,-11.555 5.93,-19.969 18.439,-19.969 2.704,0 5.484,0.369 7.907,1.096 l -0.812,6.803 c -2.197,-0.803 -4.693,-1.389 -7.318,-1.389 -6.653,0 -10.022,4.904 -10.022,12.58 0,6.662 2.411,11.719 9.653,11.719 2.792,0 5.783,-0.662 7.901,-1.764 l 0.671,6.65 c -1.488,0.592 -3.498,1.148 -5.766,1.488 l -8.624,0 0,10e-4 z"
     id="path27"
     inkscape:connector-curvature="0"
     style="fill:#b4b9c1" /><path
     d="m 527.244,300.76693 c -0.155,-3.082 -0.22,-6.803 -0.22,-9.949 l 0,-14.859 c 0,-7.459 -3.076,-12.293 -14.197,-12.293 -4.685,0 -9.214,1.031 -12.812,2.414 l 0.744,6.668 c 3.064,-1.91 7.456,-2.924 10.825,-2.924 5.698,0 7.605,2.332 7.605,6.873 l 0,2.332 c -13.09,0 -21.439,4.834 -21.439,13.172 0,4.506 2.399,7.635 6.404,8.801 l 7.6,0 c 3.917,-1.066 6.891,-3.732 8.244,-7.037 l 0.064,0.07 c -0.275,1.975 -0.366,4.389 -0.366,6.732 l 7.548,0 0,0 0,0 z m -8.054,-15.733 c 0,5.197 -3.583,10.318 -8.938,10.318 -3.059,0 -4.954,-1.764 -4.954,-4.465 0,-3.146 2.484,-6.586 13.893,-6.586 l 0,0.733 -10e-4,0 z"
     id="path29"
     inkscape:connector-curvature="0"
     style="fill:#b4b9c1" /><path
     style="fill:#d41010;fill-opacity:1;fill-rule:evenodd;stroke:none;stroke-width:1px;stroke-linecap:butt;stroke-linejoin:miter;stroke-opacity:1"
     d="M 152.53711 0.025390625 L 116.65625 133.93164 L 80.992188 0.82617188 L 0 0.82617188 L 77.652344 220.4375 L 158.03125 220.4375 L 173.32031 173.36328 A 109.22543 109.22543 0 0 1 153.62109 111.00195 A 109.22543 109.22543 0 0 1 227.04297 7.9453125 L 229.61523 0.025390625 L 152.53711 0.025390625 z "
     id="path2253" /><path
     inkscape:connector-curvature="0"
     style="fill:#1330bf;fill-opacity:1;fill-rule:evenodd;stroke:none;stroke-width:1px;stroke-linecap:butt;stroke-linejoin:miter;stroke-opacity:1"
     d="M 372.81039,-3.0639258e-4 354.6307,52.001647 a 109.22543,109.22543 0 0 1 17.44141,58.999993 109.22543,109.22543 0 0 1 -74.1836,103.3086 l -2.72851,7.80468 80.99023,0 35.66602,-135.61132 35.88086,133.9082 77.07617,0 -71.58399,-220.41210639258 -80.3789,0 z"
     id="path3229" /><path
     d="m 314.21112,111.59178 a 50.775061,50.775061 0 1 1 -101.55012,0 50.775061,50.775061 0 1 1 101.55012,0 z"
     style="fill:#999999;fill-opacity:1"
     id="path2249"
     inkscape:connector-curvature="0" /></svg>