<svg enable-background="new 0 0 800 600.02" version="1.1" viewBox="0 0 498.6 316.92" xml:space="preserve" xmlns="http://www.w3.org/2000/svg">
<g transform="translate(-150.72 435.36)" fill="#fff">
		<polygon points="372.69 -192.9 420.89 -119.81 382.52 -119.81 354.34 -163.72 324.57 -119.81 288.52 -119.81 288.52 -294.2 323.92 -294.2 323.92 -177.5 377.28 -258.46 414.66 -258.46"/>
		<path d="m528.39-135.51c-13.782 11.082-29.641 16.326-47.602 16.326-33.092 0-54.713-15.417-54.713-56.712v-118.3h35.402v35.74h40.698l10.953 31.097h-51.651v52.455c0 12.795 6.879 24.268 20.323 24.268 13.186 0 27.305-5.893 35.429-16.559l11.161 31.688z"/>
		<polygon points="562.55 -119.81 600.47 -119.81 649.32 -258.46 611.4 -258.46 581.52 -173.64 551.62 -258.46 513.73 -258.46"/>
		<path d="m241.56-119.76v-11.471c-8.851 8.514-21.647 12.795-35.74 12.795-36.726 0-55.103-20.998-55.103-56.088v-83.938h35.429v83.289c0 13.782 10.174 23.931 25.566 23.931 7.89 0 22.97-1.973 29.848-11.81v-95.411h35.428v138.7h-35.428z"/>
	</g><g transform="translate(-150.72 435.36)" fill="#e3102e">
		<path d="m426.08-322.95h119.32v-112.41h-119.32zm95.67-22.217s-24.527 14.562-52.922 3.349c0 0-23.879-8.721-24.787-37.349 0 0-0.986-29.407 30.86-39.167 0 0 8.487-3.27 23.775-1.816 0 0 9.136 0.909 22.347 6.411v14.924s-14.561-8.955-30.653-9.136c0 0-30.056-0.571-31.405 28.781 0 0-1.09 27.048 31.042 28.577 0 0 13.471 1.635 31.743-10.044z"/>
		<path d="m357.37-397.37s0.441-8.953-11.576-9.576h-11.575v20.894h9.862s13.289-0.183 13.289-11.318"/>
		<path d="m349.41-373.29h-15.184v22.063h15.184s15.21 0.727 15.21-11.498c0-1e-3 0.441-10.669-15.21-10.565"/>
		<path d="m288.52-322.94h119.29v-112.41h-119.29zm90.921-38.597c0 22.894-27.149 22.815-27.149 22.815h-32.47v-80.798h28.343c25.54 2.335 23.956 21.621 23.956 21.621 0.078 11.756-10.33 16.194-10.33 16.194 18.298 4.621 17.65 20.168 17.65 20.168"/>
		<path d="m150.96-322.94h119.29v-112.41h-119.29zm90.972-38.597c0 22.894-27.149 22.815-27.149 22.815h-32.47v-80.798h28.317c25.54 2.335 23.957 21.621 23.957 21.621 0.104 11.756-10.304 16.194-10.304 16.194 18.272 4.621 17.649 20.168 17.649 20.168"/>
		<path d="m211.89-373.29h-15.184v22.063h15.184s15.209 0.727 15.209-11.498c0-1e-3 0.441-10.669-15.209-10.565"/>
		<path d="m219.85-397.37s0.441-8.953-11.576-9.576h-11.576v20.894h9.863s13.289-0.183 13.289-11.318"/>
	</g>
</svg>
