<svg width="600pt" height="169.75pt" version="1.1" viewBox="0 0 600 169.75" xmlns="http://www.w3.org/2000/svg">
 <g transform="matrix(.64808 0 0 .64808 -57.305 -122.5)" fill="#00b7af" stop-color="#000000" style="font-variation-settings:normal">
  <path d="m88.59 189.06h54.41c17.098 0 26.355 4.19 35.148 14.627 5.9417 7.1684 8.916 14.966 8.916 23.423 0.25687 9.0943-3.2512 18.237-10.504 24.055 3.5225 2.5125 6.7243 5.5628 9.273 9.0608 4.5488 5.6458 6.3984 11.392 6.3984 19.994 0 11.616-3.5299 21.252-10.566 28.743-10.535 10.544-23.328 13.247-38.665 13.247h-54.42zm38.055 33.045v16.68h17.145c4.2728 0 7.8774-3.8829 7.8774-8.3401 0-4.6826-3.9146-8.3399-7.8774-8.3399zm0 45.68v20.33h17.445c5.6821 0 10.107-4.584 10.107-10.165 0-4.8302-4.9883-10.166-10.107-10.166z" stop-color="#000000" stroke-width="5.1883" style="font-variation-settings:normal"/>
  <path transform="scale(.75)" d="m265.59 252.07s3.4e-4 118.37 0.0137 177.53h51.646c-9e-5 -18.22-0.25753-37.181 0-54.9 13.253 18.387 27.646 36.647 41.1 54.9h58.834l0.39258-5.7539c-14.84-18.013-29.013-36.547-43.773-54.613 8.0533-3.5866 14.363-8.6224 20.121-16.627 7.68-11.533 10.719-23.782 10.719-39.359 0-18.861-5.825-35.321-19.238-46.641-13.025-9.7057-26.683-14.539-44.014-14.539-25.267-0.0267-50.534 0.0133-75.801 0zm51.66 47.75h22.236c8.5578-6.1e-4 15.496 6.9367 15.496 15.494 6e-4 8.5585-6.9376 15.496-15.496 15.496h-22.236z" stop-color="#000000" stroke-width="6.9178" style="font-variation-settings:normal"/>
  <path d="m414.82 189.02c31.5 0.08 63 0 94.51 0.04-0.04 12.02 0.01 24.04-0.02 36.06-18.69 0.04-37.38-0.01-56.06 0.03 0.02 4.56 0.01 9.12 0 13.69 17.21 0.02 34.42-0.01 51.63 0.01 0 11.27 0.01 22.53-0.01 33.8-17.21 0-34.41-0.03-51.62 0.01 0.02 4.38 0.01 8.76 0.01 13.14 18.68 0.03 37.37-0.01 56.06 0.02 0 12.11-0.01 24.23 0.01 36.34-31.51 0.04-63.02 0-94.52 0.02 0.01-44.39-0.01-88.77 0.01-133.16z" stop-color="#000000" stroke-width="5.1883" style="font-variation-settings:normal"/>
  <path d="m516.14 189.06h110.36l-48.33 97.855 47.96-0.3v35.595h-113.81l49.88-97.337h-46.06z" stop-color="#000000" stroke-width="5.1883" style="font-variation-settings:normal"/>
  <path d="m632.78 189.06h94.815v35.812l-56.425-1.6e-4v13.968h52.03v33.83h-52.03v13.115l56.38-0.02v36.445l-94.77-2e-5z" stop-color="#000000" stroke-width="5.1883" style="font-variation-settings:normal"/>
  <path transform="scale(.75)" d="m1018.9 252.08v47.744h45.275v129.78h51.227v-129.78h45.277v-47.744z" stop-color="#000000" stroke-width="6.9178" style="font-variation-settings:normal"/>
  <path transform="scale(.75)" d="m1170.1 252.07 91.127 186.95 91.127-186.95h-58.96l-32.167 70.44-32.167-70.44z" stop-color="#000000" stroke-width="6.9178" style="font-variation-settings:normal"/>
  <g transform="matrix(4.8074 0 0 5.5871 87.231 194.78)" fill-rule="evenodd" stop-color="#000000" stroke-width="1.0011" style="font-variation-settings:normal">
   <path d="m178.69 36.567s-14.797 7.7166-44.959 9.1664c-28.987 1.3934-57.47-10.077-84.685-9.0561s-42.868 8.4042-44.993 8.6069c-1.477 0.14146-2.6044-0.42092-3.4237-1.8989-0.62749-1.1307-0.49744-2.9915 0.51425-4.1074 1.2856-1.4181 14.572-10.335 48.53-10.439 30.68-0.09398 49.583 8.461 76.441 10.3 27.958 1.9152 52.575-2.572 52.575-2.572z" fill="#00b7af" stop-color="#000000" stroke-width="1.0011" style="font-variation-settings:normal"/>
  </g>
  <path d="m414.66 189.06h94.815v35.812h-56.425v13.968h52.03v33.83h-52.03v13.115l56.38-0.02v36.445h-94.77z" stop-color="#000000" stroke-width="5.1883" style="font-variation-settings:normal"/>
  <path d="m312.88 189.06h94.815v35.812h-56.425v13.967h52.03v33.83h-52.03v13.115l56.38-0.02v36.445h-94.77z" stop-color="#000000" stroke-width="5.1883" style="font-variation-settings:normal"/>
 </g>
</svg>
