<svg width="193" height="162" version="1.1" viewBox="0 0 51.065 42.862" xmlns="http://www.w3.org/2000/svg" xmlns:xlink="http://www.w3.org/1999/xlink">
 <defs>
  <clipPath id="i">
   <path d="m480.61 378.42h82.8v24.803h-82.8z"/>
  </clipPath>
  <linearGradient id="e" x2="1" gradientTransform="matrix(16.679 -46.525 46.525 16.679 33.273 49.01)" gradientUnits="userSpaceOnUse">
   <stop stop-color="#00adef" offset="0"/>
   <stop stop-color="#1c63b7" offset="1"/>
  </linearGradient>
  <linearGradient id="f" x2="1" gradientTransform="matrix(16.758 45.42 -45.42 16.758 22.489 3.2077)" gradientUnits="userSpaceOnUse">
   <stop stop-color="#00a99f" offset="0"/>
   <stop stop-color="#66ccce" offset="1"/>
  </linearGradient>
  <linearGradient id="g" x2="1" gradientTransform="matrix(-1.98e-6 -41.508 41.508 -1.98e-6 14.332 47.711)" gradientUnits="userSpaceOnUse">
   <stop stop-color="#cce310" offset="0"/>
   <stop stop-color="#80cc28" offset="1"/>
  </linearGradient>
  <linearGradient id="a" x2="1" gradientTransform="matrix(10.616 0 0 -10.616 535.43 393.91)" gradientUnits="userSpaceOnUse">
   <stop stop-color="#7fcc28" offset="0"/>
   <stop stop-color="#00a99f" offset="1"/>
  </linearGradient>
  <linearGradient id="c" x1="-45.06" x2="-36.73" y1="20.575" y2="20.575" gradientTransform="translate(55.248,-6.0283)" gradientUnits="userSpaceOnUse">
   <stop stop-color="#0cb04b" offset="0"/>
   <stop stop-color="#02af4b" offset="1"/>
  </linearGradient>
  <linearGradient id="b" x1="-34.136" x2="-22.815" y1="20.575" y2="20.575" gradientTransform="translate(55.248 -6.0283)" gradientUnits="userSpaceOnUse">
   <stop stop-color="#00a96c" offset="0"/>
   <stop stop-color="#00aa76" offset="1"/>
  </linearGradient>
  <linearGradient id="h" x1="-22.796" x2="-15.065" y1="42.699" y2="42.699" gradientTransform="translate(55.248 -6.0292)" gradientUnits="userSpaceOnUse">
   <stop stop-color="#00a5a5" offset="0"/>
   <stop stop-color="#00a1a6" offset="1"/>
  </linearGradient>
  <linearGradient id="linearGradient957" x2="1" gradientTransform="matrix(42.038 0 0 42.038 -4.0027 14.527)" gradientUnits="userSpaceOnUse" xlink:href="#a"/>
  <linearGradient id="linearGradient959" x2="1" gradientTransform="matrix(42.038 0 0 42.038 -3.9745 14.561)" gradientUnits="userSpaceOnUse" xlink:href="#a"/>
  <linearGradient id="linearGradient961" x2="1" gradientTransform="matrix(42.038 0 0 42.038 -4.0019 14.573)" gradientUnits="userSpaceOnUse" xlink:href="#a"/>
 </defs>
 <path d="m10.186 10.681h8.3317v32.182h-8.3317z" fill="#fff"/>
 <path d="m21.111 10.679h8.8662l10.209 32.182h-7.7337z" fill="#fff" stroke-width="3.9599"/>
 <path d="m51.064 10.679h-8.7237l-9.8918 32.182h7.7337z" fill="#fff" stroke-width="3.9599"/>
 <path d="m29.976 10.679 2.4551 7.7337h-32.432l2.7759-7.7337z" fill="#fff" stroke-width="3.9599"/>
 <path d="m10.174 42.841h8.3296v-24.448c-2.6678-1.6315-5.3283-3.3717-8.3296 0z" fill="url(#g)" stroke-width="3.9599"/>
 <path d="m23.836 18.414 8.6128 24.448c4.7908-1.9059 3.8891-7.4036 3.8094-12.383l-3.8292-12.066c-3.0179-1.1727-6.0348-2.3378-8.593 0z" fill="url(#f)" stroke-width="3.9599"/>
 <path d="m42.341 10.678-6.0824 19.8c-0.3161 5.1372-0.17246 9.9885 3.9243 12.383l10.882-32.183z" fill="url(#e)" stroke-width="3.9599"/>
 <path d="m29.973 10.647 2.4512 7.7337h4e-3z" fill="url(#linearGradient957)" stroke-width="3.9599"/>
 <path d="m18.518 10.68c-0.39278 2.6152-2.0654 5.3522 0 7.7333h5.3181c2.6312-1.9685-0.316-4.8973-2.7244-7.7333z" fill="url(#linearGradient959)" stroke-width="3.9599"/>
 <path d="m-0.002427 18.414h10.188c3.3209-2.1626 1.3341-4.9888 0-7.7333h-7.4125z" fill="url(#linearGradient961)" stroke-width="3.9599"/>
 <g transform="matrix(1.1458 0 0 -1.1458 -563.28 452.67)" clip-path="url(#i)" fill="#fff">
  <g transform="translate(495.4,389.36)" fill="#fff">
   <g fill="#fff">
    <path transform="translate(11.852,-2.792)" d="m0 0c-1.615 0-2.935 1.142-2.935 2.922v5.404h1.909v-5.236c0-0.754 0.393-1.187 1.026-1.187s1.048 0.433 1.048 1.187v5.236h1.909v-5.404c0-1.78-1.342-2.922-2.957-2.922"/>
    <path transform="translate(6.1595 .2977)" d="m0 0c0-0.753-0.415-1.187-1.048-1.187s-1.026 0.434-1.026 1.187v2.334c0 0.753 0.393 1.187 1.026 1.187s1.048-0.434 1.048-1.187zm-1.048 5.423c-1.615 0-2.935-1.141-2.935-2.922v-2.668c0-1.781 1.32-2.923 2.935-2.923s2.958 1.142 2.958 2.923v2.668c0 1.781-1.343 2.922-2.958 2.922"/>
    <path transform="translate(20.23,-2.5935)" d="m0 0-2.489 4.151v-4.151h-1.909v8.127h1.67l2.487-4.151v4.151h1.911v-8.127z"/>
    <path transform="translate(26.24,3.6309)" d="m0 0v-6.224h-1.91v6.224h-1.91v1.903h5.729v-1.903z"/>
    <path transform="translate(31.598,3.6309)" d="m0 0h-0.972v-1.533h0.972c0.524 0 0.765 0.367 0.765 0.789 0 0.423-0.241 0.744-0.765 0.744m0.818-6.224-1.083 2.856-0.707-1e-3v-2.855h-1.91v8.127h3.072c1.724 0 2.482-1.15 2.482-2.486 0-1.107-0.392-1.904-1.065-2.338l1.307-3.303z"/>
    <path transform="translate(38.432 -.3472)" d="m0 0v-2.246h-1.909v2.246l-2.347 5.881h2.084l1.223-3.588 1.211 3.588h2.085z"/>
    <path d="m0 0c-0.092-0.569-0.391-0.889-0.91-0.889-0.603 0-0.977 0.433-0.977 1.187v2.333c0 0.754 0.374 1.187 0.977 1.187 0.507 0 0.8-0.306 0.903-0.851l1.668 0.814c-0.374 1.207-1.436 1.939-2.664 1.939-1.533 0-2.786-1.14-2.786-2.921v-2.669c0-1.78 1.253-2.922 2.786-2.922 1.241 0 2.312 0.748 2.675 1.977z"/>
   </g>
  </g>
 </g>
 <path d="m23.836 18.414h8.597l-2.4563-7.7334h-8.865z" fill="url(#b)" style="paint-order:stroke fill markers"/>
 <path d="m10.188 18.414h8.3297v-7.7334h-8.3297z" fill="url(#c)" style="paint-order:stroke fill markers"/>
 <path d="m32.452 42.861h7.7309l-3.9243-12.382z" fill="url(#h)" style="paint-order:stroke fill markers"/>
</svg>
