<svg width="662.03" height="800" space="preserve" version="1.1" viewBox="0 0 662.03 800" xmlns="http://www.w3.org/2000/svg">
 <g transform="matrix(1.293 0 0 1.293 0 -2.7844e-5)" fill="#fff">
  <path d="m191.8 316.4h23.8v-42.5l-23.8-20zm61-41.2h19.9l5.4-4.5v-16.8zm-1.9-246.4-15.9 16.8-43.1-45.4 54.7 24zm232.2 88.6v-117.4l28.9 17.4v64.3c-7.1 7.4-21.9 25.4-28.9 35.7m28.9 23.4v175.6h-28.9v-128.5c6.2-13.3 21.1-36.8 28.9-47.1m-150.7 175.6c-0.9-7.9-2.1-19.3-2.1-29.3 0-6.2 0.8-31.2 0.8-51.4 0-17-3.7-47.2-3.7-63.6 0-9.9 0.7-23.3-0.4-28 7.9-5.1 14.8-8.4 36.5-21.5 7-4.3 20.5-11.5 20.5-20.1 0-3.8-1-6.3-6.5-10.8-3.8-3-7.9-3.9-12.5-3.9-11.1 0-16.1 11.1-25.3 16.8-14.2 8.6-21.6 12.9-24.6 14.5-4.2-2.3-8.9-3.4-13.7-3.4-8.1 0-17.5 3.6-17.5 14.1 0 4.8 1.5 10-4.9 13.4-3.6 2.3-21.2 12.3-39.9 23.6-15.8 9.5-23.1 8.8-29.8 12.8-6.2 3.7-7.8 8.3-7.8 12.4 0 3.6 2.2 8.1 3 9.1 4.2 5.4 8.1 8.4 14.7 8.4 11.3 0 20.7-9.9 38.2-22.3 10.9-7.8 20.9-15.8 26.7-15.8 5.2 0 8.9 3.9 8.9 20.2 0 54.3-3.3 62.9-3.3 100.5 0 6.8 0.3 19.3 0.5 24.5h-28.8v-88.9l-55.3 46.5-55.4-46.7v88.9h-179.6v-316.4h174.8l60.2 63.3 60.1-63.3h175.7v135.3c-5.6 8.6-22.5 37.7-34 67.4-3.7 9.7-5.5 16.7-10.4 16.7-5.4 0-5.9-5.3-6.4-10.1-1.1-10.4-3.4-29.8-4.5-37-2.1-13.8-4.8-28.5-20.3-28.5-11.4 0-23.4 6.3-23.4 23.4 0 9.7 4.9 26.5 13.3 48.7 3.3 8.7 20.9 54.9 23.4 61.5 4.6 12.3 11.1 15.6 21.2 15.6 12.9 0 17.3-4.7 22.6-22.8 4.5-15.4 12.1-40.5 18.5-56.2v102.3h-109.5z" fill="#fff"/>
  <rect y="365.7" width="512" height="253"/>
 </g>
 <g transform="matrix(1.293 0 0 1.293 0 -2.7844e-5)">
  <path class="st0" d="m137 443.1h22.9v35.8h0.3c3.5-7.1 12.9-11.6 21.3-11.6 23.3 0 25.2 17 25.2 27.1v44.8h-22.9v-33.8c0-9.6 1.1-19.2-11.4-19.2-8.6 0-12.4 7.3-12.4 14.9v38.1h-23z"/>
  <path class="st0" d="m244.2 460.6h-22.9v-17.5h22.9zm-22.9 8.8h22.9v69.9h-22.9z"/>
  <path class="st0" d="m301.1 484.2h-14.1v31.8c0 5.5 3.2 6.7 8.2 6.7 1.9 0 3.9-0.3 5.9-0.3v16.8c-4.2 0.1-8.3 0.7-12.5 0.7-19.5 0-24.5-5.7-24.5-24.6v-31.1h-11.6v-14.8h11.6v-21.1h22.9v21.1h14.1z"/>
  <path class="st0" d="m329.1 516.2c0 3.5 1.5 6.1 3.8 7.8 2.2 1.6 5.2 2.4 8.5 2.4 4.4 0 10.8-1.9 10.8-7.4 0-5.4-7.1-6.5-11.2-7.4-14.4-3.6-32.4-4-32.4-22.9 0-16.8 18.2-21.4 31.9-21.4 15.3 0 31.4 4.4 32.2 22.6h-21.1c0-3-1.1-4.8-3-6.1-1.9-1.2-4.4-1.7-7.3-1.7-3.8 0-9.8 0.4-9.8 5.2 0 6.6 15.3 7.8 25.8 10.1 14.1 2.8 17.8 13.1 17.8 18.8 0 18.7-17.8 24.9-33.5 24.9-16.6 0-33.5-5.5-34.2-25h21.7z"/>
 </g>
</svg>
