<svg width="663.65" height="800" version="1.1" viewBox="0 0 175.59 211.67" xmlns="http://www.w3.org/2000/svg">
 <defs>
  <clipPath id="a">
   <path d="m149.2 187.53h15.939v10.938h-15.939z"/>
  </clipPath>
 </defs>
 <g transform="translate(-120.57 29.431)">
  <g transform="matrix(21.209 0 0 -21.209 -3050.9 4168.3)">
   <g clip-path="url(#a)">
    <g transform="translate(155.38 192.8)">
     <path d="m0 0c-0.015 0.128-0.034 0.312-0.034 0.474 0 0.101 0.014 0.505 0.014 0.831 0 0.275-0.059 0.764-0.059 1.029 0 0.159 0.012 0.376-6e-3 0.452 0.127 0.083 0.239 0.136 0.59 0.348 0.113 0.069 0.33 0.185 0.33 0.325 0 0.062-0.016 0.103-0.105 0.175-0.061 0.05-0.127 0.064-0.202 0.064-0.179 0-0.26-0.18-0.41-0.271-0.229-0.14-0.35-0.209-0.397-0.235-0.019 9e-3 -0.096 0.055-0.222 0.055-0.13 0-0.283-0.059-0.283-0.229 0-0.078 0.025-0.162-0.079-0.216-0.058-0.037-0.343-0.2-0.646-0.383-0.255-0.154-0.374-0.141-0.481-0.206-0.1-0.06-0.126-0.135-0.126-0.2 0-0.058 0.037-0.13 0.049-0.146 0.069-0.088 0.13-0.136 0.238-0.136 0.183 0 0.335 0.16 0.618 0.361 0.176 0.126 0.338 0.256 0.432 0.256 0.085 0 0.144-0.064 0.144-0.326 0-0.878-0.054-1.017-0.054-1.625 0-0.11 5e-3 -0.313 8e-3 -0.397h-0.465v1.438l-0.896-0.755-0.896 0.755v-1.438h-2.903v5.116h2.826l0.973-1.023 0.973 1.023h2.841v-2.187c-0.09-0.139-0.364-0.609-0.549-1.09-0.061-0.156-0.089-0.269-0.168-0.269-0.088 0-0.095 0.085-0.103 0.163-0.018 0.168-0.056 0.483-0.074 0.598-0.033 0.224-0.077 0.461-0.327 0.461-0.185 0-0.38-0.102-0.38-0.379 0-0.156 0.08-0.429 0.216-0.787 0.053-0.142 0.338-0.888 0.379-0.996 0.075-0.198 0.179-0.252 0.342-0.252 0.207 0 0.28 0.077 0.365 0.369 0.073 0.248 0.196 0.653 0.299 0.907v-1.654zm2.437 2.839v-2.839h-0.467v2.077c0.1 0.217 0.341 0.596 0.467 0.762m-0.467 0.379v1.898l0.467-0.281v-1.039c-0.115-0.12-0.354-0.412-0.467-0.578m-3.754 1.432-0.258-0.27-0.697 0.733 0.885-0.389zm0.031-3.984h0.322l0.087 0.073v0.272zm-0.987-0.666h0.385v0.688l-0.385 0.323z" fill="#231f20"/>
    </g>
    <path d="m157.81 187.94h-8.279v4.074h8.279z" fill="#231f20" fill-rule="evenodd"/>
    <g transform="translate(150.59 190.54)">
     <path d="m0 0h0.359v-0.154h4e-3c0.067 0.113 0.187 0.187 0.324 0.187 0.141 0 0.267-0.046 0.328-0.183 0.089 0.12 0.2 0.183 0.352 0.183 0.358 0 0.398-0.272 0.398-0.487v-0.674h-0.37v0.663c0 0.122-0.059 0.193-0.154 0.193-0.159 0-0.174-0.121-0.174-0.304v-0.552h-0.369v0.641c0 0.133-0.04 0.215-0.14 0.215-0.132 0-0.189-0.076-0.189-0.306v-0.55h-0.369z" fill="#fff"/>
    </g>
    <g transform="translate(153.68 189.41)">
     <path d="m0 0h-0.359v0.154h-4e-3c-0.069-0.115-0.213-0.187-0.343-0.187-0.324 0-0.417 0.187-0.417 0.483v0.678h0.369v-0.654c0-0.15 0.065-0.202 0.182-0.202 0.081 0 0.203 0.052 0.203 0.252v0.604h0.369z" fill="#fff"/>
    </g>
    <g transform="translate(154.17 189.78)">
     <path d="m0 0c0-0.056 0.024-0.098 0.061-0.126 0.035-0.026 0.085-0.039 0.137-0.039 0.071 0 0.174 0.03 0.174 0.119 0 0.087-0.116 0.105-0.181 0.12-0.232 0.059-0.523 0.065-0.523 0.369 0 0.272 0.293 0.346 0.514 0.346 0.248 0 0.507-0.072 0.52-0.365h-0.341c0 0.048-0.018 0.078-0.048 0.098-0.03 0.019-0.072 0.028-0.117 0.028-0.061 0-0.159-7e-3 -0.159-0.085 0-0.106 0.248-0.126 0.417-0.163 0.228-0.046 0.287-0.211 0.287-0.304 0-0.302-0.287-0.402-0.541-0.402-0.267 0-0.541 0.089-0.552 0.404z" fill="#fff"/>
    </g>
    <path d="m155.06 190.54h0.369v-1.128h-0.369zm0.369 0.141h-0.369v0.282h0.369z" fill="#fff"/>
    <g transform="translate(156.39 190.12)">
     <path d="m0 0c-2e-3 0.096-0.087 0.163-0.18 0.163-0.207 0-0.239-0.176-0.239-0.333 0-0.145 0.063-0.295 0.219-0.295 0.128 0 0.193 0.074 0.211 0.193h0.358c-0.032-0.302-0.267-0.476-0.567-0.476-0.339 0-0.591 0.233-0.591 0.578 0 0.359 0.228 0.615 0.591 0.615 0.281 0 0.53-0.147 0.556-0.445z" fill="#fff"/>
    </g>
   </g>
  </g>
 </g>
</svg>
