<svg width="800" height="137.57" enable-background="new 0 0 1000 166.25" version="1.1" viewBox="0 0 800 137.57" xml:space="preserve" xmlns="http://www.w3.org/2000/svg">
<g transform="matrix(.82746 0 0 .82746 0 1.4295e-6)" fill="#ff6700">
		<path d="m234.83 127.9c-2.522 4.613-5.777 7.35-9.576 7.369-3.81-0.025-7.054-2.756-9.575-7.369-2.482-4.685-3.955-10.723-3.965-17.807 9e-3 -7.073 1.483-13.121 3.965-17.795 2.521-4.611 5.776-7.349 9.575-7.371 3.799 0.025 7.054 2.76 9.576 7.371 1.833 3.475 3.12 7.698 3.666 12.537h42.722c-1.256-13.325-7.238-25.412-16.207-34.32-10.123-10.087-24.302-16.392-39.757-16.392s-29.644 6.305-39.756 16.392c-10.143 10.066-16.475 24.191-16.464 39.578-9e-3 15.387 6.321 29.512 16.464 39.579v0.072c10.112 10.097 24.301 16.4 39.756 16.392 15.456 9e-3 29.634-6.295 39.757-16.392v-0.072c8.968-8.908 14.951-20.994 16.207-34.311h-42.722c-0.546 4.829-1.833 9.053-3.666 12.539"/>
		<path d="m158.37 40.431c4.294-4.274 6.951-10.18 6.951-16.699 0-6.529-2.656-12.424-6.951-16.708-4.293-4.265-10.225-6.91-16.773-6.91s-12.479 2.645-16.773 6.92c-4.293 4.274-6.961 10.168-6.961 16.698 0 6.52 2.667 12.424 6.961 16.699l5.242 5.218c8.743 8.713 9.37 11.02 1.051 19.291l-4.768 4.747c-3.902 3.885-6.312 9.256-6.312 15.181v76.707h43.134v-76.708c0-5.925-2.42-11.296-6.323-15.181l-4.767-4.736c-8.319-8.271-7.702-10.589 1.05-19.302l5.242-5.219z"/>
		<path d="m385.8 85.554c5.983-10.097 2.615-23.126-7.537-29.08-10.153-5.966-23.229-2.604-29.223 7.503l-19.328 34.381v-22.92c0-11.728-9.555-21.24-21.335-21.24-11.79 0-21.346 9.512-21.346 21.24v86.137h42.681v-33.899l22.613 34.618s27.41-0.019 35.246-0.019c6.239 0 9.123-6.23 4.015-13.879l-21.974-33.592 16.187-29.245z"/>
		<path d="m56.222 54.187c-15.456 0-29.645 6.304-39.756 16.392-10.133 10.055-16.466 24.191-16.466 39.567v51.429h42.681v-50.546c8e-3 -6.13 1.482-11.358 3.975-15.419 2.512-3.996 5.755-6.363 9.565-6.385 3.809 0.024 7.063 2.389 9.575 6.385 2.482 4.061 3.955 9.289 3.965 15.419v50.546h42.67v-51.429c0.017-15.376-6.321-29.512-16.455-39.567-10.109-10.088-24.299-16.392-39.754-16.392"/>
	</g><g transform="matrix(.82746 0 0 .82746 0 1.4295e-6)" fill="#6a439b">
		<path d="m920.39 127.97c-2.512 4.604-5.772 7.348-9.56 7.353-3.813-5e-3 -7.056-2.749-9.594-7.353-2.46-4.695-3.961-10.724-3.961-17.824 0-7.074 1.501-13.108 3.961-17.804 2.538-4.612 5.781-7.354 9.594-7.376 3.787 0.021 7.048 2.766 9.56 7.376 1.839 3.48 3.137 7.705 3.679 12.545h42.739c-1.25-13.324-7.232-25.423-16.214-34.321-10.102-10.105-24.326-16.427-39.764-16.412-15.494-0.015-29.689 6.307-39.784 16.412-10.158 10.044-16.489 24.189-16.468 39.58-0.021 15.404 6.31 29.536 16.468 39.6 7.795 7.76 21.351 16.392 39.784 16.392 13.836 0 26.646-5.06 36.443-13.354 7.127-6.028 17.728-18.14 19.534-37.354h-42.739c-0.542 4.834-1.84 9.065-3.678 12.54"/>
		<path d="m843.86 40.317c4.294-4.274 6.951-10.179 6.951-16.698 0-6.53-2.656-12.424-6.951-16.71-4.292-4.263-10.224-6.909-16.774-6.909-6.548 0-12.479 2.646-16.773 6.919-4.292 4.275-6.959 10.169-6.959 16.7 0 6.52 2.666 12.423 6.959 16.698l5.243 5.218c8.741 8.713 9.369 11.02 1.049 19.292l-4.768 4.746c-3.902 3.885-6.312 9.256-6.312 15.181v76.707h43.133v-76.707c0-5.926-2.421-11.297-6.321-15.182l-4.768-4.735c-8.321-8.271-7.703-10.59 1.05-19.303z"/>
		<path d="m766.81 101.07c-16.098-7.11-24.581-9.77-24.859-15.573-0.248-5.159 5.355-6.104 7.326-6.104 11.351 0 12.218 11.443 12.218 14.075h34.623c0-19.593-17.737-39.779-48.059-39.769-26.057-8e-3 -43.701 17.671-43.701 34.406 0 6.339 2.879 19.004 31.051 31.456 16.088 7.1 24.581 9.761 24.858 15.563 0.249 5.168-5.354 6.628-7.325 6.628-11.354 0-12.22-11.958-12.22-14.589h-34.621c0 19.592 17.737 39.099 48.058 39.088 26.056 8e-3 43.703-17.002 43.703-33.736-1e-3 -6.336-2.88-18.992-31.052-31.445"/>
		<path d="m641.53 166.25c15.45 6e-3 29.642-4.306 39.763-14.384 10.146-10.082 15.479-22.703 15.459-38.092v-55.63l-41.667-0.057v50.835c-0.036 6.112-1.494 13.357-3.983 17.407-2.53 4-5.781 6.366-9.571 6.38-3.806-0.014-7.063-2.382-9.566-6.38-2.509-4.05-3.961-11.295-3.976-17.407v-50.842h-41.699v55.692c-9e-3 15.391 5.32 28.012 15.469 38.093 10.114 10.079 24.306 14.391 39.771 14.385"/>
		<path d="m561.64 70.411c-10.136-10.109-24.129-16.76-39.618-16.76-13.144 0-22.259 4.814-31.849 12.37-9.63-7.588-18.59-12.267-31.791-12.267-15.556 0-30.43 6.345-40.607 16.498-10.197 10.12-16.458 24.347-16.458 39.823v52.012h41.829v-51.123c0-6.171 1.354-11.433 3.85-15.518 2.53-4.023 7.684-6.403 11.519-6.428 3.834 0.021 8.245 2.404 10.773 6.428 2.507 4.085 2.816 9.347 2.816 15.518v51.123h33.783v-51.137c0-6.145 1.88-11.383 4.376-15.451 2.519-4.006 7.97-6.38 11.789-6.399 3.817 0.024 8.497 2.394 11.016 6.399 2.487 4.068 3.387 9.307 3.387 15.451v51.138h40.219v-52.021c0-15.411-4.879-29.578-15.034-39.656z"/>
	</g>
</svg>
