<svg width="800pt" height="330.16pt" version="1.1" viewBox="0 0 800 330.16" xmlns="http://www.w3.org/2000/svg">
 <g transform="matrix(.8697 0 0 .8697 264.52 370.67)" fill="#fff">
  <path d="m-19.742-417.78c17.34 9.37 29.86 26.92 33.36 46.29 2.41 13.87 0.58 28.56-5.79 41.18-9.97 20.96-32.065 36.85-55 36.85-12.058 0-23.13-1.8-33.74-6.22-17.27-7.33-32.87-18.65-45.15-32.84-9.26-11.15-17.06-25.01-15.99-39.98 0.63-13.71 9.81-25.42 20.52-33.25 16.22-11.77 36.06-17.8 55.83-19.91 15.61-1.61 32.07 0.11 45.96 7.88z"/>
  <path d="m-186.43-322.21c10.42 9.07 15.46 22.73 17.74 36.03 3.13 19.92 0.97 40.62-5.8 59.59-4.68 12.94-12.52 24.99-23.79 33.09-11.42 8.44-23.164 12.85-39.91 12.85-15.311 0-28.74-4.92-40.15-13.62-13.02-9.96-21.95-24.98-24.77-41.1-3.07-16.5 0.82-34.01 10.05-47.96 8.26-12.5 19.55-22.76 31.9-31.12 11.67-7.68 24.63-13.84 38.49-16.13 12.48-2.24 26.46-0.21 36.24 8.37z"/>
  <path d="m-146.95-274.07h202.8c29.152 0 40.269 13.522 49.2 40.64l40.7 128.96 54.37-169.6h56.51l-73.89 225.41-79.5-2.93e-4 -57.07-175.36h-64.785v175.36h-62.265v-175.36h-66.065z"/>
 </g>
 <g transform="matrix(.8697 0 0 .8697 264.52 370.67)" stroke-width="12.089">
  <path d="m-81.05-368.48a16.233 16.233 0 0 1-16.233 16.233 16.233 16.233 0 0 1-16.233-16.233 16.233 16.233 0 0 1 16.233-16.233 16.233 16.233 0 0 1 16.233 16.233z" stop-color="#000000" style="paint-order:stroke markers fill"/>
  <path d="m-198.33-287.08a16.233 16.233 0 0 1-16.233 16.233 16.233 16.233 0 0 1-16.233-16.233 16.233 16.233 0 0 1 16.233-16.233 16.233 16.233 0 0 1 16.233 16.233z" stop-color="#000000" style="paint-order:stroke markers fill"/>
 </g>
 <g transform="matrix(.8697 0 0 .8697 -156.59 -391.55)" fill="#2fb295">
  <path d="m797.44 607.47c12.317-4.736 25.556-6.0836 38.69-6.0639 23.141 0 43.085 7.2308 56.54 17.904 15.861 12.81 24.768 33.093 24.768 53.335 0 8.8209-1.5398 17.625-4.9077 25.805-9.5553 23.773-27.024 43.038-45.349 60.556l-19.571 18.229h69.805v50.525h-159.6v-34.567c24.44-20.11 50.44-41.113 72.62-63.753 8.38-8.75 16.33-18.03 22.54-28.47 5.24-9.1 9.07-19.86 6.68-30.44-4.5175-16.443-15.847-22.262-31.397-22.262-18.796 0-31.552 12.016-41.963 20.872l-31.47-32.12c12.04-12.53 26.17-23.53 42.62-29.55z"/>
  <path d="m1009.9 603.35c15.156 0.0127 30.29 3.614 43.448 11.212 12.73 7.11 23.22 17.93 30.57 30.46 11.82 20.49 15.94 43.545 15.94 67.98 0 22.633-3.12 40.95-11.16 59.73-7.27 17.26-19.34 32.67-35.11 42.91-14.36 9.29-31.5 14.52-48.64 14.18-17.87 0.32-35.75-4.08-51.63-12.23-7.66-4.25-15.21-9.04-21.29-15.42l30.92-34.79c7 5.72 14.91 10.44 23.65 12.98 12.41 3.88 26.74 2.22 37.48-5.3 11.83-8.49 17.75-22.86 20.15-36.8 2.54-15.01 2.6-30.37 1.02-45.49-1.49-11.78-4.11-23.97-11.46-33.6-5.8431-8.1151-13.428-11.685-22.762-11.685-8.0362-0.0362-16.431 2.6115-21.618 8.9649-5.23 6.24-6.29 14.415-6.29 22.6 0 7.5101 2.59 15.48 8.87 19.95 4.9759 3.5595 9.9979 4.799 17.068 4.8251 11.361 0 20.16-4.9364 27.092-10.375 1.5687 14.163 1.7506 26.02-0.02 37.37-12.955 8.6981-25.494 14.237-39.481 14.377-20.528-2e-3 -42.082-8.8744-53.049-21.817-10.684-13.784-14.371-21.82-14.371-45.599 0-26.07 8.6818-42.463 26.496-56.734 16.329-11.997 34.472-17.699 54.178-17.699z"/>
 </g>
</svg>
