<svg width="800" height="606.13" version="1.1" viewBox="0 0 800 606.13" xmlns="http://www.w3.org/2000/svg" xmlns:xlink="http://www.w3.org/1999/xlink">
 <defs>
  <linearGradient id="linear-gradient" x1="368.01" x2="494.27" y1="485.58" y2="315.3" gradientTransform="matrix(1.8086 0 0 1.8086 -468.19 -203.32)" gradientUnits="userSpaceOnUse">
   <stop stop-color="#fff" offset="0"/>
   <stop stop-color="#fff" stop-opacity=".45" offset=".27"/>
   <stop stop-color="#fff" stop-opacity="0" offset=".47"/>
  </linearGradient>
  <linearGradient id="linear-gradient-2" x1="424.02" x2="505.02" y1="134.78" y2="401.83" gradientTransform="matrix(1.8086 0 0 1.8086 -468.19 -203.32)" gradientUnits="userSpaceOnUse">
   <stop stop-color="#fff" offset="0"/>
   <stop stop-color="#fff" stop-opacity=".45" offset=".27"/>
   <stop stop-color="#fff" stop-opacity="0" offset=".47"/>
   <stop stop-color="#1e1e1e" stop-opacity=".2" offset="1"/>
  </linearGradient>
  <linearGradient id="linear-gradient-3" x1="329.48" x2="637.33" y1="502.41" y2="135.52" gradientTransform="matrix(1.8086 0 0 1.8086 -468.19 -203.32)" gradientUnits="userSpaceOnUse">
   <stop stop-color="#1e1e1e" offset="0"/>
   <stop stop-color="#1e1e1e" stop-opacity=".58" offset=".13"/>
   <stop stop-color="#1e1e1e" stop-opacity=".15" offset=".32"/>
   <stop stop-color="#1e1e1e" stop-opacity="0" offset=".5"/>
   <stop stop-color="#1e1e1e" stop-opacity=".14" offset=".68"/>
   <stop stop-color="#1e1e1e" stop-opacity=".56" offset=".87"/>
   <stop stop-color="#1e1e1e" offset="1"/>
  </linearGradient>
  <linearGradient id="linear-gradient-4" x1="421.98" x2="502.72" y1="125.29" y2="426.64" gradientTransform="matrix(1.8086 0 0 1.8086 -468.19 -203.32)" gradientUnits="userSpaceOnUse">
   <stop stop-color="#fff" offset="0"/>
   <stop stop-color="#fff" stop-opacity=".96" offset=".01"/>
   <stop stop-color="#fff" stop-opacity=".78" offset=".03"/>
   <stop stop-color="#fff" stop-opacity=".61" offset=".06"/>
   <stop stop-color="#fff" stop-opacity=".47" offset=".1"/>
   <stop stop-color="#fff" stop-opacity=".34" offset=".13"/>
   <stop stop-color="#fff" stop-opacity=".23" offset=".17"/>
   <stop stop-color="#fff" stop-opacity=".15" offset=".22"/>
   <stop stop-color="#fff" stop-opacity=".08" offset=".27"/>
   <stop stop-color="#fff" stop-opacity=".03" offset=".34"/>
   <stop stop-color="#fff" stop-opacity=".01" offset=".43"/>
   <stop stop-color="#fff" stop-opacity="0" offset=".69"/>
   <stop stop-color="#fff" stop-opacity=".01" offset=".8"/>
   <stop stop-color="#fff" stop-opacity=".03" offset=".85"/>
   <stop stop-color="#fff" stop-opacity=".08" offset=".88"/>
   <stop stop-color="#fff" stop-opacity=".15" offset=".9"/>
   <stop stop-color="#fff" stop-opacity=".23" offset=".92"/>
   <stop stop-color="#fff" stop-opacity=".34" offset=".94"/>
   <stop stop-color="#fff" stop-opacity=".47" offset=".96"/>
   <stop stop-color="#fff" stop-opacity=".61" offset=".97"/>
   <stop stop-color="#fff" stop-opacity=".78" offset=".99"/>
   <stop stop-color="#fff" stop-opacity=".96" offset="1"/>
   <stop stop-color="#fff" offset="1"/>
  </linearGradient>
  <linearGradient id="linear-gradient-5" x1="655.36" x2="655.36" y1="296.37" y2="247.53" gradientUnits="userSpaceOnUse">
   <stop stop-color="#1e1e1e" stop-opacity="0" offset="0"/>
   <stop stop-color="#1e1e1e" stop-opacity=".31" offset=".07"/>
   <stop stop-color="#1e1e1e" stop-opacity=".71" offset=".23"/>
   <stop stop-color="#1e1e1e" stop-opacity=".94" offset=".44"/>
   <stop stop-color="#1e1e1e" offset="1"/>
  </linearGradient>
  <linearGradient id="linear-gradient-6" x1="585.61" x2="585.61" y1="295.28" y2="247.53" xlink:href="#linear-gradient-5"/>
  <linearGradient id="linear-gradient-7" x1="525.76" x2="525.76" y1="295.28" y2="248.61" xlink:href="#linear-gradient-5"/>
  <linearGradient id="linear-gradient-8" x1="-4894.6" x2="-4894.6" y1="-5613.2" y2="-5601.6" gradientTransform="rotate(180 -2308.2 -2736.4)" xlink:href="#linear-gradient-5"/>
  <linearGradient id="linear-gradient-9" x1="490.49" x2="490.49" y1="295.28" y2="247.8" xlink:href="#linear-gradient-5"/>
  <linearGradient id="linear-gradient-10" x1="438.67" x2="438.67" y1="295.28" y2="230.49" xlink:href="#linear-gradient-5"/>
  <radialGradient id="radial-gradient-3" cx="524.43" cy="123.55" r="68.15" gradientTransform="matrix(.78 0 0 .07 -131.9 15.89)" gradientUnits="userSpaceOnUse">
   <stop stop-color="#fff" offset=".23"/>
   <stop stop-color="#fff" stop-opacity=".68" offset=".43"/>
   <stop stop-color="#fff" stop-opacity=".39" offset=".64"/>
   <stop stop-color="#fff" stop-opacity=".18" offset=".81"/>
   <stop stop-color="#fff" stop-opacity=".05" offset=".93"/>
   <stop stop-color="#fff" stop-opacity="0" offset="1"/>
  </radialGradient>
  <radialGradient id="radial-gradient-4" cx="526.5" cy="369.28" r="49.66" gradientTransform="matrix(1.682 0 0 .090429 -404.63 436.21)" xlink:href="#radial-gradient-3"/>
  <style>.cls-17{fill:#fff}</style>
  <linearGradient id="linearGradient1011" x1="655.36" x2="655.36" y1="296.37" y2="247.53" gradientUnits="userSpaceOnUse" xlink:href="#linear-gradient-5"/>
  <radialGradient id="radialGradient1013" cx="524.43" cy="123.55" r="68.15" gradientTransform="matrix(1.4107 0 0 .1266 -258.01 9.1695)" gradientUnits="userSpaceOnUse" xlink:href="#radial-gradient-3"/>
  <clipPath id="clipPath1466">
   <path d="m1437.3 10.837h-88.65a37.65 37.65 0 0 0-33.21 19.84l-180 311.74h158.55v-0.05a35.1 35.1 0 0 0 30.59-19.22l24.13-41.79h88.32a135.25 135.25 0 0 0 0.22-270.5z" fill="#f8961e" style="isolation:isolate"/>
  </clipPath>
 </defs>
 <g transform="matrix(.99994 0 0 .99994 0 3.3646e-5)">
  <path d="m551.6 3.2554h-160.33a68.093 68.093 0 0 0-60.063 35.882l-325.54 563.81h286.75v-0.0904a63.481 63.481 0 0 0 55.324-34.761l43.641-75.581h159.73a244.61 244.61 0 0 0 0.39789-489.22z" fill="#f8961e" stroke-width="1.8086" style="isolation:isolate"/>
  <path d="m551.15 470.76h-171.11l-49.501 89.253a40.512 40.512 0 0 1-35.322 22.209h-254l308.34-533.93 0.18085-0.30746 0.16278-0.32554a45.215 45.215 0 0 1 39.174-23.837h162.36a223.49 223.49 0 0 1 221.68 223.49c0 122.4-99.562 222.64-221.97 223.45z" fill="url(#linear-gradient)" opacity=".2" stroke-width="1.8086" style="isolation:isolate"/>
  <path d="m551.15 470.76h-171.11l-49.501 89.253a40.512 40.512 0 0 1-35.322 22.209h-254l308.34-533.93 0.18085-0.30746 0.16278-0.32554a45.215 45.215 0 0 1 39.174-23.837h162.36a223.49 223.49 0 0 1 221.68 223.49c0 122.4-99.562 222.64-221.97 223.45z" fill="url(#linear-gradient-2)" opacity=".6" stroke-width="1.8086" style="isolation:isolate"/>
  <path d="m546.53 6.4747h5.0278a241.39 241.39 0 0 1-0.3798 482.78h-161.61l-0.92237 1.6096-43.641 75.581a60.262 60.262 0 0 1-52.449 33.007h-281.29l322.74-558.62a64.892 64.892 0 0 1 57.223-34.363h155.36m5.1002-3.2193h-160.42a68.093 68.093 0 0 0-60.063 35.882l-325.54 563.81h286.75v-0.0904a63.481 63.481 0 0 0 55.324-34.761l43.641-75.581h159.73a244.61 244.61 0 0 0 0.39789-489.22z" fill="url(#linear-gradient-3)" opacity=".5" stroke-width="1.8086" style="isolation:isolate"/>
  <path d="m392.15 3.2193h159.44a244.61 244.61 0 0 1-0.39789 489.22h-159.77l-43.641 75.581a63.481 63.481 0 0 1-55.324 34.761v0.0904h-286.8l325.54-563.73a68.093 68.093 0 0 1 60.009-35.918h0.88621m-1.7182-3.2193a71.348 71.348 0 0 0-62.034 37.564l-325.54 563.77-2.8033 4.8289h294.15l0.0904-0.14469a66.719 66.719 0 0 0 56.392-36.389l42.664-73.899h159.7a247.78 247.78 0 0 0-1.4107-495.55h-159.46z" fill="url(#linear-gradient-4)" stroke-width="1.8086" style="isolation:isolate"/>
  <g transform="matrix(1.8086 0 0 1.8086 0 -10.173)">
   <g transform="translate(-10.76 -5.1949)" opacity=".2" style="isolation:isolate;mix-blend-mode:multiply">
    <path transform="translate(-248.11,-101.6)" d="m676.15 282.68c-1.35-2.59-3.65-3.88-6.38-2.87a24.14 24.14 0 0 1-8.39 1.43c-3.4 0-5.91-0.65-7.35-2.3a2.27 2.27 0 0 1 1.82-3.68h22.73a2.28 2.28 0 0 0 2.28-2.13c0.1-1.43 0.21-3.3 0.21-4.67 0-11.33-7.16-20.93-23.92-20.93-17.81 0-27.51 10.87-27.51 24.37 0 12.42 8.2 24.47 29.86 24.47a46.11 46.11 0 0 0 14.69-2.21c3.91-1.31 5-5.71 3.07-9.37z" fill="url(#linearGradient1011)"/>
    <path transform="translate(-248.11,-101.6)" d="m546.12 295.28h18.79a2.29 2.29 0 0 0 2.29-2.28v-21a9.85 9.85 0 0 1 0.56-3.53c0.57-1.45 1.51-2.63 3.2-2.63s2.26 1 2.26 3.44v23.72a2.29 2.29 0 0 0 2.29 2.28h20.2a2.29 2.29 0 0 0 2.29-2.28v-21a9.26 9.26 0 0 1 0.85-4.07 3.22 3.22 0 0 1 2.92-2.09c1.69 0 2.26 1 2.26 3.44v23.72a2.28 2.28 0 0 0 2.28 2.28h18.79a2.28 2.28 0 0 0 2.29-2.28v-28.89c0-12.42-9.74-16.58-19.25-16.58-8.29 0-10.8 4.35-13 7.61l-35.93 0.28s-0.12-2.09-0.12-3.63v-0.89a2.29 2.29 0 0 0-2.29-2.29h-10.68a2.29 2.29 0 0 0-2.28 2.29v42.1a2.28 2.28 0 0 0 2.28 2.28z" fill="url(#linear-gradient-6)"/>
    <path transform="translate(-248.11,-101.6)" d="m516.36 295.28h18.79a2.29 2.29 0 0 0 2.29-2.28v-44.39h-21.08a2.29 2.29 0 0 0-2.28 2.29v42.1a2.28 2.28 0 0 0 2.28 2.28z" fill="url(#linear-gradient-7)"/>
    <rect x="266.8" y="125.29" width="22.98" height="15.41" rx="2.29" fill="url(#linear-gradient-8)"/>
    <path transform="translate(-248.11,-101.6)" d="m474.41 295.28h18.79a2.28 2.28 0 0 0 2.28-2.28v-14.94a9.24 9.24 0 0 1 1.23-4.89c1.41-2.36 4.14-4.17 8.85-4.17a19.44 19.44 0 0 1 3.3 0.27v-21.47h-2.26c-5.84 0-16.79 4.65-18.06 4.65h-14.13a2.3 2.3 0 0 0-2.29 2.29v38.26a2.29 2.29 0 0 0 2.29 2.28z" fill="url(#linear-gradient-9)"/>
    <path transform="translate(-248.11,-101.6)" d="m441 230.49h-29.48a2.28 2.28 0 0 0-2.28 2.29v60.22a2.28 2.28 0 0 0 2.28 2.28h19.92a2.29 2.29 0 0 0 2.29-2.28v-12.2a2.28 2.28 0 0 1 2.28-2.28h5c16.2 0 27.13-9 27.13-23.93-0.03-14.13-10.96-24.1-27.14-24.1zm-2.92 30.45h-2.08a2.29 2.29 0 0 1-2.28-2.29v-8.47a2.28 2.28 0 0 1 2.28-2.29h2.33c3.68 0 5.47 2.72 5.47 6.52s-1.88 6.53-5.74 6.53z" fill="url(#linear-gradient-10)"/>
   </g>
  </g>
  <g transform="matrix(1.8086 0 0 1.8086 0 -10.173)">
   <path class="cls-17" d="m411.21 164.29s-4.42 3.8-12.8 3.8c-5.27 0-8.38-1.54-8.76-6h28.06s0.38-4.26 0.38-6.8c0-11.32-7.16-20.92-23.92-20.92-17.79 0-27.49 10.87-27.49 24.37 0 12.4 8.19 24.45 29.85 24.45 14.68 0 21.65-5.61 21.65-5.61zm-16.76-17.93c2.26 0 4.43 1.44 4.62 5.52h-9.23c0.38-3.99 2.29-5.52 4.61-5.52zm-115.64 35.77h23.32v-23.28a9.88 9.88 0 0 1 0.57-3.53c0.56-1.45 1.5-2.62 3.2-2.62s2.26 1 2.26 3.44v26h24.76v-23.29a9.31 9.31 0 0 1 0.85-4.07 3.22 3.22 0 0 1 2.92-2.08c1.69 0 2.26 1 2.26 3.44v26h23.38v-31.17c0-12.4-9.73-16.57-19.24-16.57-8.29 0-10.8 4.35-13 7.61h-0.38c-2.64-5.53-10.48-7.61-17-7.61-7.72 0-10 4.35-12 7.61h-0.19s0.19-1.81 0.19-3.35v-3.17h-21.9z" style="isolation:isolate"/>
   <path class="cls-17" d="m249.88 135.48h23.35v46.65h-23.35zm0.19-21.28h22.97v15.4h-22.97z" style="isolation:isolate"/>
   <path class="cls-17" d="m208.67 182.13h23.35v-17.21a9.23 9.23 0 0 1 1.22-4.89c1.41-2.35 4.14-4.16 8.85-4.16a19.58 19.58 0 0 1 3.3 0.27v-21.2a9 9 0 0 0-2.26-0.27c-5.84 0-11 5.07-12.52 10h-0.29a30 30 0 0 0 0.29-3.62v-5.61h-21.94zm-31.41-64.76h-31.73v64.76h24.48v-16.75h7.25c16.19 0 27.11-9 27.11-23.92 0-14.13-10.92-24.09-27.11-24.09zm-2.92 30.43h-4.33v-13h4.61c3.67 0 5.46 2.72 5.46 6.52s-1.88 6.48-5.74 6.48z" style="isolation:isolate"/>
  </g>
  <ellipse cx="479.15" cy="24.235" rx="104.36" ry="12.913" fill="url(#radialGradient1013)" stroke-width="1.8086" style="isolation:isolate"/>
  <ellipse cx="476.85" cy="470.63" rx="90.556" ry="7.1801" fill="url(#radial-gradient-4)" stroke-width="1.8086" style="isolation:isolate"/>
  <image transform="matrix(1.8086 0 0 1.8086 -2047.9 -16.345)" x="1121.6" y="-1.7827" width="467.52" height="361.92" clip-path="url(#clipPath1466)" opacity=".4" style="isolation:isolate;mix-blend-mode:multiply"/>
 </g>
 <g transform="matrix(1.5394 0 0 1.5394 403.32 513.85)" fill="#f9961f">
  <path d="m31.04 4.195c4.47-0.05 9.01 1.415 12.36 4.415 7.2 6.51 6.73 19.84-1.54 25.26-4.65 3.23-10.494 2.99-15.91 2.99v11.38h-16.12v-44.045zm-5.09 11.735v8.9498h2.2252c2.9011 0 4.4258-1.7326 4.4198-4.475 0-3.0982-1.623-4.4518-4.4198-4.4747z"/>
  <path d="m52.275 4.195h16.025v30.87h16.44v13.175h-32.465z"/>
  <path transform="scale(.75)" d="m116.15 5.5938v38.42c0 13.801 12.94 21.262 27.432 21.262 14.381 0 27.672-7.055 27.414-21.262v-38.42h-21.359v35.355c0 3.3433-2.7114 6.0547-6.0546 6.0547-3.3433-4e-6 -6.0528-2.7095-6.0528-6.0527v-35.357z" stroke-width="1.3333"/>
  <path d="m139 5.94c8.41-4.19 18.91-3 26.81 1.83l-3.95 11.85c-3.65-2.16-7.73-4.12-12.08-3.81-1.7 0.29-2.17 2.22-0.49 2.95 4.32 1.86 9.25 2.69 12.82 6.02 5.14 4.18 5.91 12.3 2.23 17.68-2.3 3.44-6.26 5.42-10.26 6.09-7.91 1.23-16.42-0.34-22.88-5.23l5.11-11.19c3.74 2.58 8.13 5 12.83 4.36 2.41-0.27 1.56-3.08-0.28-3.35-5.05-1.85-10.7-3.45-14.11-7.93-4.65-5.99-2.66-15.89 4.25-19.27z"/>
  <path d="m186.02 4.17h20.22v31.51h8.54v12.58h-33.095v-12.58h9.355v-18.52h-12.48z"/>
 </g>
</svg>
