<svg width="17.981mm" height="7.0474mm" version="1.1" viewBox="0 0 63.714 24.971" xmlns="http://www.w3.org/2000/svg">
 <defs>
  <clipPath id="c">
   <path d="m480.61 539.12h82.8v24.803h-82.8v-24.803z"/>
  </clipPath>
  <linearGradient id="a" x2="1" gradientTransform="matrix(8.0712 8.374 8.374 -8.0712 500.34 537.86)" gradientUnits="userSpaceOnUse">
   <stop stop-color="#b1a38a" offset="0"/>
   <stop stop-color="#a19173" offset=".18719"/>
   <stop stop-color="#795e38" offset="1"/>
  </linearGradient>
  <linearGradient id="b" x2="1" gradientTransform="matrix(14.928 15.488 15.488 -14.928 492.59 545.33)" gradientUnits="userSpaceOnUse">
   <stop stop-color="#795e38" offset="0"/>
   <stop stop-color="#795e38" offset=".066326"/>
   <stop stop-color="#b1a38a" offset="1"/>
  </linearGradient>
 </defs>
 <g transform="translate(-379.57 -528.45)">
  <g transform="matrix(1.25 0 0 -1.25 -241.09 1230.3)">
   <path d="m498.62 561.42c-0.722-0.046-1.417-0.1-2.087-0.163v-19.719l6.646 4.774 2.581 1.807-0.98 2.927 2.578-1.806c1.086 0.738 1.945 1.425 2.552 2.408 0.606 0.984 0.927 2.076 0.927 3.29 0 0.902-0.165 1.755-0.492 2.557-0.328 0.803-0.852 1.503-1.573 2.098-0.721 0.596-1.642 1.065-2.765 1.408-1.125 0.343-2.491 0.514-4.102 0.514-1.217 0-2.312-0.032-3.285-0.095" fill="url(#b)"/>
  </g>
  <g transform="matrix(1.25 0 0 -1.25 -241.09 1230.3)">
   <path d="m503.18 546.31-6.646-4.774h14.71v1e-3l-2.897 4.768-0.991-2.925-0.989 2.93h-3.187z" fill="url(#a)"/>
  </g>
  <g transform="matrix(1.25 0 0 -1.25 -241.09 1230.3)">
   <g clip-path="url(#c)">
    <g transform="translate(518.08 552.9)">
     <path d="m0 0c0 0.413-0.148 0.735-0.445 0.964-0.296 0.229-0.692 0.343-1.186 0.343-0.18 0-0.333-4e-3 -0.458-0.013-0.126-9e-3 -0.27-0.027-0.432-0.054v-2.723c0.153-0.018 0.279-0.029 0.378-0.034 0.098-4e-3 0.215-6e-3 0.35-6e-3 0.548 0 0.984 0.128 1.308 0.384 0.323 0.256 0.485 0.636 0.485 1.139m0.404-6.592-1.685 3.222c-0.072-9e-3 -0.137-0.014-0.195-0.014h-0.196c-0.17 0-0.314 2e-3 -0.431 7e-3 -0.117 4e-3 -0.256 0.011-0.418 0.02v-3.235h-2.291v9.787c0.422 0.045 0.867 0.083 1.334 0.114 0.467 0.032 0.993 0.048 1.577 0.048 0.773 0 1.429-0.086 1.968-0.256 0.54-0.171 0.982-0.405 1.328-0.702 0.346-0.296 0.598-0.644 0.755-1.044s0.236-0.825 0.236-1.274c0-0.593-0.148-1.139-0.445-1.638-0.296-0.499-0.714-0.906-1.253-1.22l2.318-3.815h-2.602z" fill="#9a9fa2"/>
    </g>
    <path d="m523.48 546.31h-2.165v7.24h2.165v-7.24zm0 8.01h-2.165v1.644h2.165v-1.644z" fill="#9a9fa2"/>
    <g transform="translate(528.02 548.08)">
     <path d="m0 0c1.357 0 1.813 1.148 1.813 1.852 0 0.874-0.6 1.84-1.826 1.84-1.239 0-1.787-1.044-1.787-1.866 0-0.678 0.495-1.826 1.8-1.826m3.979-1.774h-2.166v0.782h-0.026c-0.365-0.704-1.265-1.03-2.113-1.03-2.296 0-3.64 1.8-3.64 3.874 0 2.375 1.709 3.862 3.64 3.862 1.187 0 1.852-0.574 2.113-1.018h0.026v0.77h2.166v-7.24z" fill="#9a9fa2"/>
    </g>
    <path d="m532.97 555.96h2.165v-9.653h-2.165v9.653z" fill="#9a9fa2"/>
    <g transform="translate(538.82 553.55)">
     <path d="m0 0h1.044v-1.644h-1.044v-5.596h-2.165v5.596h-1.07v1.644h1.07v2.413h2.165v-2.413z" fill="#9a9fa2"/>
    </g>
    <g transform="translate(543.6 548.11)">
     <path d="m0 0c0.939 0 1.735 0.77 1.735 1.826 0 1.057-0.796 1.827-1.735 1.827s-1.735-0.77-1.735-1.827c0-1.056 0.796-1.826 1.735-1.826m0 5.675c2.635 0 3.901-2.074 3.901-3.849 0-1.774-1.266-3.848-3.901-3.848s-3.9 2.074-3.9 3.848c0 1.775 1.265 3.849 3.9 3.849" fill="#9a9fa2"/>
    </g>
   </g>
  </g>
 </g>
</svg>
