<svg width="60.932mm" height="18.909mm" version="1.1" viewBox="0 0 215.9 67" xmlns="http://www.w3.org/2000/svg">
 <g transform="translate(-352.33 -579.46)" fill="#be1e24">
  <path d="m450.52 606.69c1.9549 0 3.5747-0.6293 4.8594-1.8916 1.2847-1.2586 1.9289-2.7816 1.9289-4.569 0-1.7836-0.64419-3.3215-1.9289-4.6136-1.2847-1.2921-2.9045-1.9363-4.8594-1.9363h-8.3485v13.01h8.3485zm-8.3485 39.039-14.764-14.768v-50.757h24.733c2.6438 0 5.1498 0.51015 7.5218 1.523 2.3682 1.0166 4.4423 2.4167 6.2297 4.2003 1.7836 1.7836 3.1837 3.8614 4.1966 6.2297 1.0166 2.3683 1.523 4.8743 1.523 7.5218 0 2.0294-0.29045 3.9843-0.87506 5.8573-0.58462 1.8805-1.4299 3.6157-2.5396 5.2169-1.1059 1.5975-2.4316 2.9976-3.9694 4.1966-0.66654 0.52131-1.3666 0.99794-2.1002 1.4336-0.17874 0.10054-1.173 0.66654-1.173 0.66654l28.631 28.68h-20.223l-26.915-26.58h-0.27555v26.58z"/>
  <path d="m506.78 594.79v50.94l-15.044-15.088v-35.852h-15.595v-14.582h46.237v14.582h-15.598z"/>
  <path d="m553.93 607.34c4.5503 2.0294 8.0729 4.6769 10.568 7.9351 2.4911 3.2619 3.7348 7.1681 3.7348 11.722 0 2.9529-0.52132 5.6302-1.5677 8.0282s-2.4911 4.4461-4.3381 6.1366c-1.8432 1.6943-4.0439 3.0013-6.5984 3.921-2.5544 0.92347-5.336 1.3852-8.3522 1.3852-5.2913 0-9.9645-1.0761-14.027-3.2284-4.0588-2.1523-7.2276-5.3546-9.5028-9.5996l11.164-9.1379c1.415 2.2789 3.2172 4.2003 5.3993 5.7717 2.1858 1.5677 4.4126 2.3534 6.6914 2.3534 4.1817 0 6.2744-1.5714 6.2744-4.7104 0-1.4746-0.58461-2.7518-1.7538-3.8279-1.1692-1.0761-3.1353-2.2305-5.9057-3.4593l-3.6902-1.6608c-4.9823-2.2156-8.7841-5.094-11.398-8.6315-2.614-3.5375-3.921-7.5218-3.921-11.949 0-2.83 0.5511-5.4142 1.6608-7.7527 1.1059-2.3385 2.5842-4.3381 4.4312-5.9988 1.8432-1.6608 3.9657-2.938 6.3675-3.8279 2.398-0.89368 4.8892-1.3405 7.4734-1.3405 3.6306 0 6.9074 0.56972 9.8268 1.7092 2.9231 1.1394 5.7717 3.3066 8.5384 6.5052l-9.9683 10.519c-1.6608-2.0294-3.0906-3.3513-4.2897-3.9657-1.199-0.6144-2.5693-0.92347-4.1072-0.92347-1.2325 0-2.3869 0.38354-3.4593 1.1506-1.0799 0.7708-1.6161 1.8954-1.6161 3.3699 0 1.7241 0.72239 3.139 2.1672 4.245 1.4448 1.1097 3.6753 2.3385 6.6914 3.6939l3.5077 1.5677z"/>
  <path d="m417.75 645.8v-65.611l-65.421 65.522 20.48 0.0112 29.801-29.894v14.895l15.14 15.077z"/>
 </g>
</svg>
