<svg width="600pt" height="140.31pt" version="1.1" viewBox="0 0 600 140.31" xmlns="http://www.w3.org/2000/svg">
 <g transform="matrix(.81697 0 0 .81697 -65.448 -27.969)" fill="#fff">
  <path d="m121.23 34.235h99.69l-1.79 9.88h-85.9l-17.24 70.835c-0.81 2.47 1.4 5.2 3.95 5.12h43.08c7.29 0.18 14.73 1.92 20.88 5.97 6.77 4.26 11.08 11.92 11.78 19.82 0.88 9.68-1.73 19.62-7.02 27.75-6.9569 10.086-18.256 16.481-30.237 18.499-3.7641 0.50427-7.1313 0.83075-10.623 0.7922-11.882-0.15188-23.059-6.1242-31.79-13.931-6.54-5.65-11.42-13.18-13.8-21.5l19.18-10.21c2.14 7.08 7.26 13.54 14.55 15.66 9.1 2.61 20.47 1.55 26.92-6.09 3.84-4.87 5.31-12.24 2.15-17.81-2.52-4.01-7.45-5.795-12-5.935h-42.11c-6.92 0.17-12.69-7.205-10.66-13.875z"/>
  <path d="m142.39 55.36h74.76l-3.24 17.36c-1.09 4.96-5.62 9.115-10.84 8.895h-48.48l-2.66 11.615c9.85 0.1 20-0.11 29.32 3.63 12.88 4.8 24.01 15.49 27.41 29.06 3.58 12.4 1.01 25.4-2.17 37.59 1.34-9.63 2.92-19.86-0.96-29.14-6.23-15.41-22.72-25.09-38.94-25.89h-36.92z"/>
  <path d="m80.11 168.88 11.69-6.01c3.52 13.62 13.85 24.47 25.38 31.97 7.19 4.6 15.27 8.03 23.78 9.12 6.77 0.84 13.669 0.12806 20.35-0.17-6.8254 1.6133-14.12 2.1565-21.258 2.1871-8.6021 0.037-17.18-1.0772-25.372-3.8371-15.94-5.09-27.76-18.39-34.57-33.26z"/>
 </g>
 <g transform="matrix(3.4204 0 0 3.4204 -113.84 -2513.4)" fill="#fff" aria-label="POP-UP">
  <path d="m81.648 758.91-1.6406 9.7852h-7.7344l4.4531-26.66h8.8086q3.1055 0 4.5117 0.27344 1.4258 0.25391 2.9297 1.2695 1.5234 0.99609 2.4023 2.6953 0.89844 1.6797 0.89844 3.6133 0 3.75-2.4414 6.3867t-6.9922 2.6367zm0.95703-5.7031h1.8359q4.1992 0 4.1992-2.8516 0-2.5586-3.5156-2.5586h-1.6211z"/>
  <path d="m108.86 769.36q-4.7266 0-8.2031-3.0859-3.4766-3.1055-3.4766-8.8867 0-6.6992 3.8867-11.367 3.8867-4.6875 10.156-4.6875 5.0195 0 8.2422 3.2812 3.2226 3.2617 3.2226 8.5547 0 6.7578-3.8281 11.484-3.8281 4.707-10 4.707zm0.0586-6.2109q2.0703 0 3.1445-1.7383 1.0742-1.7578 1.6992-5.1367t0.625-4.5703q0-2.0508-0.95703-3.1055-0.9375-1.0547-2.5-1.0547-2.9883 0-4.1992 4.1602t-1.2109 7.3633q0 4.082 3.3984 4.082z"/>
  <path d="m133.13 758.91-1.6406 9.7852h-7.7344l4.4531-26.66h8.8086q3.1055 0 4.5117 0.27344 1.4258 0.25391 2.9297 1.2695 1.5234 0.99609 2.4023 2.6953 0.89844 1.6797 0.89844 3.6133 0 3.75-2.4414 6.3867t-6.9922 2.6367zm0.95703-5.7031h1.8359q4.1992 0 4.1992-2.8516 0-2.5586-3.5156-2.5586h-1.6211z"/>
  <path d="m157.21 761.76h-10l0.97657-5.8594h10z"/>
  <path d="m184.83 742.04-2.7344 16.406c-0.46875 2.7865-1.0872 4.8503-1.8555 6.1914-0.76823 1.3281-2.0313 2.4089-3.7891 3.2422-1.7578 0.82031-3.8542 1.2305-6.2891 1.2305-3.151 0-5.6055-0.67057-7.3633-2.0117-1.7578-1.3542-2.6367-3.2747-2.6367-5.7617 0-0.84635 0.0911-1.8099 0.27344-2.8906l2.7539-16.406h7.1601l-2.7344 16.406c-0.15625 0.89844-0.23437 1.5625-0.23437 1.9922 0 0.82031 0.32552 1.4648 0.97656 1.9336 0.66406 0.46875 1.4583 0.70313 2.3828 0.70313 1.1588 0 2.0378-0.28646 2.6367-0.85938 0.59896-0.58593 1.0417-1.7513 1.3281-3.4961l2.793-16.68z"/>
  <path d="m194.07 758.91-1.6406 9.7852h-7.7344l4.4531-26.66h8.8086q3.1055 0 4.5117 0.27344 1.4258 0.25391 2.9297 1.2695 1.5234 0.99609 2.4023 2.6953 0.89844 1.6797 0.89844 3.6133 0 3.75-2.4414 6.3867t-6.9922 2.6367zm0.95703-5.7031h1.8359q4.1992 0 4.1992-2.8516 0-2.5586-3.5156-2.5586h-1.6211z"/>
 </g>
</svg>
