<svg width="491.93pt" height="600pt" version="1.1" viewBox="0 0 491.93 600" xmlns="http://www.w3.org/2000/svg">
 <g transform="matrix(3.4936 0 0 3.4936 -279.87 -119.6)" fill="#24a5df">
  <path d="m121.23 34.235h99.69l-1.79 9.88h-85.9l-17.24 70.835c-0.81 2.47 1.4 5.2 3.95 5.12h43.08c7.29 0.18 14.73 1.92 20.88 5.97 6.77 4.26 11.08 11.92 11.78 19.82 0.88 9.68-1.73 19.62-7.02 27.75-6.9569 10.086-18.256 16.481-30.237 18.499-3.7641 0.50427-7.1313 0.83075-10.623 0.7922-11.882-0.15188-23.059-6.1242-31.79-13.931-6.54-5.65-11.42-13.18-13.8-21.5l19.18-10.21c2.14 7.08 7.26 13.54 14.55 15.66 9.1 2.61 20.47 1.55 26.92-6.09 3.84-4.87 5.31-12.24 2.15-17.81-2.52-4.01-7.45-5.795-12-5.935h-42.11c-6.92 0.17-12.69-7.205-10.66-13.875z"/>
  <path d="m142.39 55.36h74.76l-3.24 17.36c-1.09 4.96-5.62 9.115-10.84 8.895h-48.48l-2.66 11.615c9.85 0.1 20-0.11 29.32 3.63 12.88 4.8 24.01 15.49 27.41 29.06 3.58 12.4 1.01 25.4-2.17 37.59 1.34-9.63 2.92-19.86-0.96-29.14-6.23-15.41-22.72-25.09-38.94-25.89h-36.92z"/>
  <path d="m80.11 168.88 11.69-6.01c3.52 13.62 13.85 24.47 25.38 31.97 7.19 4.6 15.27 8.03 23.78 9.12 6.77 0.84 13.669 0.12806 20.35-0.17-6.8254 1.6133-14.12 2.1565-21.258 2.1871-8.6021 0.037-17.18-1.0772-25.372-3.8371-15.94-5.09-27.76-18.39-34.57-33.26z"/>
 </g>
</svg>
