<svg width="800" height="398.5" version="1.1" viewBox="0 0 750 373.6" xmlns="http://www.w3.org/2000/svg">
 <defs>
  <clipPath id="a">
   <path d="m390.96 699.87h82.8v24.803h-82.8z"/>
  </clipPath>
 </defs>
 <g transform="matrix(13.971 0 0 -13.971 -5665.3 10072)">
  <g clip-path="url(#a)">
   <g transform="translate(452.65,707.05)">
    <path d="m0 0c-1.734 0-1.965 1.711-1.965 2.983 0 1.271 0.231 2.959 1.965 2.959s1.965-1.688 1.965-2.959c0-1.272-0.231-2.983-1.965-2.983m-26.564 0c-1.734 0-1.965 1.711-1.965 2.983 0 1.271 0.231 2.959 1.965 2.959s1.965-1.688 1.965-2.959c0-1.272-0.231-2.983-1.965-2.983m26.564 9.271c-2.958 0-4.851-1.273-5.803-3.089v7.297h-5.086v-5.734h-4.763v5.734h-5.086v-7.344c-0.944 1.841-2.843 3.136-5.826 3.136-3.724 0-5.759-2.02-6.354-4.599-0.854 1.288-2.412 1.922-3.981 2.357-2.335 0.647-4.693 0.901-4.786 2.08 0 0.925 1.133 1.11 1.827 1.11 0.509 0 1.087-0.115 1.503-0.416 0.416-0.277 0.693-0.694 0.601-1.318h4.809c-0.139 4.023-3.306 5.387-6.89 5.387-3.398 0-6.658-1.641-6.658-5.456 0-3.329 2.982-4.046 5.595-4.786 2.843-0.809 3.56-1.04 3.56-1.896 0-1.225-1.271-1.503-2.103-1.503-0.949 0-2.058 0.209-2.428 1.203-0.116 0.3-0.185 0.67-0.185 1.086h-5.087c0.047-5.271 5.387-5.942 7.26-5.942 3.032 0 6.251 0.947 7.286 3.69 0.858-2.078 2.814-3.597 6.031-3.597 2.983 0 4.882 1.306 5.826 3.153v-2.853h5.086v6.543h4.763v-6.543h5.086v2.806c0.952-1.823 2.845-3.106 5.803-3.106 4.508 0 6.543 2.982 6.543 6.312 0 3.329-2.035 6.288-6.543 6.288" fill="#231f20"/>
   </g>
  </g>
 </g>
 <g transform="matrix(2.4669 0 0 2.4669 186.04 -387.62)" fill="#231f20" style="shape-inside:url(#rect2139);white-space:pre" aria-label="POP-UP">
  <path d="m8.9184 299.23v8.82h-7.6v-28h12.48q2.66 0 4.7 0.69999 2.04 0.7 3.4 1.98t2.06 3.06 0.7 3.94q0 2.12-0.7 3.88-0.68 1.74-2.04 3-1.36 1.24-3.38 1.94-2 0.68-4.64 0.68zm0-12.36v5.7h4.8q0.7 0 1.3-0.18 0.6-0.2 1.02-0.56 0.44-0.35999 0.68-0.88 0.26-0.53999 0.26-1.22t-0.26-1.2q-0.24-0.54-0.68-0.90001-0.42-0.38-1.02-0.56-0.6-0.19999-1.3-0.19999z"/>
  <path d="m41.498 279.53q3.24 0 5.96 1.1 2.72 1.08 4.68 3.02 1.98 1.94 3.06 4.6 1.1 2.66 1.1 5.8t-1.1 5.8q-1.08 2.66-3.06 4.6-1.96 1.94-4.68 3.04-2.72 1.08-5.96 1.08t-5.96-1.08q-2.72-1.1-4.7-3.04-1.96-1.94-3.06-4.6-1.08-2.66-1.08-5.8t1.08-5.8q1.1-2.66 3.06-4.6 1.98-1.94 4.7-3.02 2.72-1.1 5.96-1.1zm0 7.28q-1.54 0-2.8 0.54-1.26 0.52-2.18 1.48-0.92 0.96001-1.42 2.3-0.5 1.32-0.5 2.92t0.5 2.94q0.5 1.32 1.42 2.28t2.18 1.5q1.26 0.52 2.8 0.52 1.52 0 2.78-0.52 1.28-0.54 2.2-1.5t1.42-2.28q0.5-1.34 0.5-2.94t-0.5-2.92q-0.5-1.34-1.42-2.3-0.92-0.95999-2.2-1.48-1.26-0.54-2.78-0.54z"/>
  <path d="m66.898 299.23v8.82h-7.6v-28h12.48q2.66 0 4.7 0.69999 2.04 0.7 3.4 1.98t2.06 3.06 0.7 3.94q0 2.12-0.7 3.88-0.68 1.74-2.04 3-1.36 1.24-3.38 1.94-2 0.68-4.64 0.68zm0-12.36v5.7h4.8q0.7 0 1.3-0.18 0.6-0.2 1.02-0.56 0.44-0.35999 0.68-0.88 0.26-0.53999 0.26-1.22t-0.26-1.2q-0.24-0.54-0.68-0.90001-0.42-0.38-1.02-0.56-0.6-0.19999-1.3-0.19999z"/>
  <path d="m96.778 300.43h-12.2v-6h12.2z"/>
  <path d="m124.78 296.63q0 2.86-0.82 5.08-0.8 2.22-2.38 3.76-1.56 1.52-3.88 2.32-2.3 0.77999-5.32 0.77999t-5.34-0.77999q-2.3-0.8-3.88-2.32-1.56-1.54-2.38-3.76-0.8-2.22-0.8-5.08v-16.58h7.62v16.36q0 2.42 1.28 3.66 1.28 1.22 3.5 1.22t3.5-1.22q1.28-1.24 1.28-3.66v-16.36h7.62z"/>
  <path d="m136.18 299.23v8.82h-7.6v-28h12.48q2.66 0 4.7 0.69999 2.04 0.7 3.4 1.98t2.06 3.06 0.7 3.94q0 2.12-0.7 3.88-0.68 1.74-2.04 3-1.36 1.24-3.38 1.94-2 0.68-4.64 0.68zm0-12.36v5.7h4.8q0.7 0 1.3-0.18 0.6-0.2 1.02-0.56 0.44-0.35999 0.68-0.88 0.26-0.53999 0.26-1.22t-0.26-1.2q-0.24-0.54-0.68-0.90001-0.42-0.38-1.02-0.56-0.6-0.19999-1.3-0.19999z"/>
 </g>
</svg>
