<svg width="464.31pt" height="433.74pt" version="1.1" viewBox="0 0 464.31 433.74" xmlns="http://www.w3.org/2000/svg">
 <defs>
  <linearGradient id="a" x1="354.59" x2="354.59" y1="363.15" y2="53.072" gradientUnits="userSpaceOnUse">
   <stop stop-color="#0b2362" offset="0"/>
   <stop stop-color="#00064a" offset=".38472"/>
   <stop stop-color="#00084b" offset=".56357"/>
   <stop stop-color="#010e50" offset=".6811"/>
   <stop stop-color="#0e2968" offset="1"/>
  </linearGradient>
 </defs>
 <g transform="translate(-123.2 -.26)" fill="#fcd81d">
  <path d="m404.15 0.26h146.84l-0.01 64.34c-5.12-2.07-10.05-4.58-15.3-6.31-19.8-6.81-40.97-8.06-61.74-8.34-23.63-1.02-47.58 1.71-69.9 9.76z"/>
  <path d="m470.38 103.52c5.52-1.35 12.72-0.04 15.82 5.19 2.98 6.31 3.26 13.44 3.31 20.3l0.13 60.76c-0.59 5.53-0.99 11.72-4.85 16.08-6.5 5.84-17.27 4.67-23.24-1.34-2.82-4.46-3.47-9.94-3.98-15.09l-0.34-47.4c0.25-9.89-0.02-19.92 2.44-29.59 1.5-4.74 6.13-7.67 10.71-8.91z"/>
  <path d="m437.01 263c17.89 0.44 37.03-2.69 51.08-14.59 0.32 14.92 0.15 29.86 0.1 44.79-0.61 5.35 0.69 12.16-4.18 15.9-5.99 4.39-14.66 3.82-20.61-0.38-2.51-1.79-3.7-4.88-3.84-7.87-0.49-7.33-0.64-14.67-0.55-22.02 0.02-2.05-0.19-5.33-2.98-5.25-17.25-0.19-34.52-0.02-51.78-0.08l0.05-14.19c10.7 2.59 21.68 4.11 32.71 3.69z"/>
  <path d="m460.98 366.75c30.95 1.41 63.41-1.14 91.26-15.86l0.02 26.31h-148.01l0.03-20.2c18.14 6.54 37.45 9.55 56.7 9.75z"/>
  <path d="m404.25 383.5 148-0.25v15.5h-148z"/>
  <path d="m404.04 403.23 147.92 0.09 0.04 9.6297h-148z"/>
  <path d="m404.26 417.25h147.75l-0.06 7.0095h-147.71z"/>
  <path d="m404.27 428.25h147.72l0.02 5.7502h-147.76z"/>
 </g>
 <g transform="translate(-123.2 -.26)" fill="url(#a)">
  <path d="m153.95 65.9c19.37-8.88 40.95-10.91 61.98-11.85 26.28-0.5 53.04 0.09 78.5 7.32 15.54 4.29 30.16 13.46 38.86 27.29 12.94 20.05 14.24 45.58 8.67 68.28-1.98 8.13-7.57 14.93-14.3 19.71-6.54 4.87-13.88 8.54-21.32 11.82 7.8 3.02 15.91 5.63 22.86 10.41 8.91 6.01 14.54 16.05 16.12 26.59 2.48 13.71 3.33 27.67 3.18 41.59 0.2 12.72-0.81 25.52-3.77 37.92-2.24 9.53-6.02 18.85-12.25 26.5-8.86 11.12-21.68 18.3-34.95 22.88-18.47 6.25-38.1 8.09-57.5 8.4-15.25 0.16-30.54-0.72-45.58-3.28-13.89-2.44-27.61-6.81-39.65-14.26-6.68-4.07-13.19-8.73-17.93-15.05-5.08-6.41-8.19-14.2-9.7-22.2-4.1-21.41-3.9698-43.32-3.9398-65.04v-3.98l95.77 0.05c0.17 18.33-0.37 36.67 0.34 54.98 0.41 5.75 0.09 11.78 2.46 17.16 2.47 4.72 8.45 5.51 13.24 5.64 5.64-0.11 12.74-1.68 14.93-7.62 3.35-12.1 2.83-24.77 3.29-37.19-0.3-11.92 0.68-24.17-2.61-35.77-2.03-7.59-8.21-13.84-15.84-15.8-12.55-3.26-25.64-2.5-38.46-3.43l-0.3-42.94c13.14-0.94 26.42-0.03 39.51-1.81 6.15-0.64 11.97-4.39 14.41-10.19 4.19-9.78 2.77-20.66 3.04-31-0.46-8.3 0.62-17.1-3.14-24.81-2.94-5.1-9.43-6.48-14.89-6.3-5.01 0.2-11.05 1.72-13.2 6.81-2.02 5.85-2.65 12.12-2.56 18.29-0.41 8.91-0.15 17.82-0.23 26.73l-95.35 0.01c-0.79-5.22-0.23-10.52-0.4-15.78 0-16.7 0.43-34.22 8.46-49.32 4.77-9.23 12.82-16.5 22.25-20.76z"/>
  <path d="m411.32 62.27c25.98-8.52 53.81-9.29 80.86-7.34 21.82 1.58 44.11 6.26 62.72 18.29 16.34 10.55 28.71 27.99 30.82 47.59 1.41 16.01 1.36 32.11 1.79 48.17-0.08 34.36 0.27 68.71-0.7 103.05-0.28 11.89-0.13 24.02-3.43 35.55-3.84 12.26-12.31 22.53-21.99 30.72-14.55 11.95-32.95 18.03-51.24 21.34-23.85 4.11-48.31 3.96-72.27 0.93-19.84-2.74-39.84-9.09-55.62-21.8-17.7-14.56-24.33-38.61-23.55-60.77h95.29c-0.01 7.34 0.25 14.68 0.46 22.02-0.03 5.26 2.04 10.94 6.85 13.61 6.1 3.33 13.66 4.11 20.27 1.9 5.49-1.54 9.83-6.6 9.87-12.41 0.77-22.42 0.57-44.86 0.49-67.3-4.73 6.7-10.92 12.42-18.42 15.85-15.04 7-32.12 7.84-48.42 6.6-17.98-1.34-35.63-8.23-49.38-19.97-6.65-5.86-11.44-13.75-13.54-22.36-3.19-13.38-3.85-27.22-3.68-40.92 0.08-21.77-0.41-43.68 3.09-65.24 2.03-10.62 8.06-20.1 15.64-27.66 9.35-9.51 21.55-15.65 34.09-19.85m57.04 38.3c-5.99 1.56-11.07 6.42-12.54 12.48-1.35 5.54-1.66 11.27-1.82 16.95v58.04c0.15 5.48 0.73 11.1 2.98 16.17 2.5 5 8.18 7.36 13.41 8.22 6.4 0.94 14.05-0.58 17.72-6.43 3.02-5.07 3.62-11.16 3.88-16.94l0.01-53.08c0.05-8.35 0.22-16.87-2.06-24.99-1.11-3.95-3.72-7.66-7.59-9.3-4.37-1.87-9.38-2.23-13.99-1.12z"/>
 </g>
</svg>
