<!DOCTYPE svg  PUBLIC '-//W3C//DTD SVG 1.1//EN'  'http://www.w3.org/Graphics/SVG/1.1/DTD/svg11.dtd' [
	<!ENTITY ns_flows "http://ns.adobe.com/Flows/1.0/">
]>
<svg width="567px" height="364px" enable-background="new -0.155 -0.242 567 364" overflow="visible" version="1.1" viewBox="-.155 -.242 567 364" xml:space="preserve" xmlns="http://www.w3.org/2000/svg">
<path d="m194.35 23.771c3.838-5.51 31.296-18.271 51.783-21.815 123.71-21.369 192.36 137.98 82.404 201.47-58.517 33.791-134.38-2.596-144.69-70.143-3.202-20.979 7.407-49.141 27.541-62.293 24.248-17.422 47.386-15.531 64.05-2.875 12.583 9.572 29.772 36.682 15.02 49.773-3.541 3.123-7.861 4.648-12.141 3.816-16.957-3.287-10.429-34.574-36.419-30.74-4.976 0.725-12.463 4.738-15.654 9.385-3.751 5.461-4.127 12.854-2.946 20.301 3.699 23.869 23.521 44.359 46.979 47.754 16.621 2.406 32.298-1.002 47.21-11.42 84.435-61.915-28.574-189.08-123.14-133.21z" fill="#008A5E"/>
<path d="m514.56 258.7c-28.922 0-52.369 23.39-52.369 52.243 0 28.854 23.447 52.245 52.369 52.245 28.924 0 52.371-23.391 52.371-52.245 0-28.853-23.447-52.243-52.371-52.243zm0 86.926c-19.199 0-34.764-15.527-34.764-34.683 0-19.154 15.564-34.681 34.764-34.681 19.201 0 34.764 15.526 34.764 34.681 0 19.156-15.563 34.683-34.764 34.683z" fill="#008A5E"/>
<path d="m82.932 274.4h-22.349c-3.771 0-5.925 1.738-5.925 4.773v76.372c0 3.038-2.152 4.772-5.922 4.772h-8.617c-3.77 0-5.924-1.734-5.924-4.772v-76.372c0-3.035-2.154-4.773-5.924-4.773h-22.347c-3.771 0-5.924-1.734-5.924-4.773v-4.771c0-3.037 2.153-4.772 5.924-4.772h77.008c3.77 0 5.925 1.735 5.925 4.772v4.771c-1e-3 3.039-2.156 4.773-5.925 4.773z" fill="#008A5E"/>
<path d="m328.21 360.32h-8.885c-3.771 0-5.922-1.734-5.922-4.772v-18.442c0-9.763-8.617-19.743-23.695-19.743h-17.774c-3.769 0-5.922 1.735-5.922 4.772v33.413c0 3.038-2.155 4.772-5.925 4.772h-8.885c-3.769 0-5.924-1.734-5.924-4.772v-62.486c0-18.659 17.772-35.145 44.429-35.145 25.309 0 44.424 11.496 44.424 30.806 0 12.148-8.611 17.357-12.115 19.527-2.152 1.301-2.152 3.037 0 4.558 5.926 4.121 12.115 10.847 12.115 24.298v18.442c1e-3 3.038-2.149 4.772-5.921 4.772zm-38.502-87.002c-15.081 0-23.696 9.981-23.696 19.743v5.208c0 3.038 2.153 4.773 5.922 4.773h17.774c7 0 23.695-2.172 23.695-14.32 1e-3 -10.413-11.038-15.404-23.695-15.404z" fill="#008A5E"/>
<path d="m187.7 336.66-6.194-3.471c-2.962-1.52-5.654-1.085-8.078 1.735-2.961 3.254-8.076 12.149-23.156 12.149-16.646 0-24.962-8.344-31.298-19.729 0 0-6.065-9.995 1.831-9.995h39.162c3.77 0 5.924-1.735 5.924-4.773v-4.772c0-3.037-2.154-4.773-5.924-4.773h-39.162c-7.375 0-1.831-9.938-1.831-9.938 4.703-9.851 15.245-19.785 31.298-19.785 15.08 0 20.734 9.546 23.156 12.585 2.155 2.603 5.116 2.82 8.078 1.083l6.463-3.688c3.232-1.735 2.692-4.558 1.615-6.511-2.154-3.904-12.654-18.875-39.312-18.875-7.54 0-14.367 1.32-20.282 3.636-18.751 7.012-31.905 23.964-31.905 48.609 0 23.44 11.861 39.898 29.117 47.493 6.525 3.05 14.314 4.837 23.07 4.837 26.658 0 36.89-14.536 39.852-19.309 1.615-2.386 1.077-4.556-2.424-6.508z" fill="#008A5E"/>
<path d="m446.68 336.66-6.191-3.471c-2.963-1.52-5.654-1.085-8.078 1.735-2.963 3.254-8.078 12.149-23.156 12.149-16.648 0-24.963-8.344-31.299-19.729 0 0-6.062-9.995 1.832-9.995h39.16c3.77 0 5.924-1.735 5.924-4.773v-4.772c0-3.037-2.154-4.773-5.924-4.773h-39.16c-7.377 0-1.832-9.938-1.832-9.938 4.703-9.851 15.244-19.785 31.299-19.785 15.078 0 20.732 9.546 23.156 12.585 2.154 2.603 5.115 2.82 8.078 1.083l6.463-3.688c3.23-1.735 2.691-4.558 1.615-6.511-2.154-3.904-12.656-18.875-39.312-18.875-7.541 0-14.367 1.32-20.283 3.636-18.75 7.012-31.904 23.964-31.904 48.609 0 23.44 11.861 39.898 29.117 47.493 6.523 3.05 14.312 4.837 23.07 4.837 26.656 0 36.889-14.536 39.85-19.309 1.616-2.386 1.077-4.556-2.425-6.508z" fill="#008A5E"/>
</svg>
