<svg version="1.1" viewBox="0 0 521 760" xmlns="http://www.w3.org/2000/svg" xmlns:xlink="http://www.w3.org/1999/xlink">
 <defs>
  <linearGradient id="f" x1="451.91" x2="401.13" y1="498.02" y2="466.54" gradientUnits="userSpaceOnUse">
   <stop stop-color="#808285" offset="0"/>
   <stop stop-color="#231F20" offset=".9946"/>
  </linearGradient>
  <clipPath id="a">
   <use width="1003.5" height="592" xlink:href="#b"/>
  </clipPath>
  <linearGradient id="e" x1="416.47" x2="447.48" y1="461.38" y2="497.43" gradientUnits="userSpaceOnUse">
   <stop stop-color="#808285" offset="0"/>
   <stop stop-color="#231F20" offset=".9946"/>
  </linearGradient>
  <linearGradient id="d" x1="413.33" x2="445.38" y1="504.91" y2="472.86" gradientUnits="userSpaceOnUse">
   <stop stop-color="#808285" offset="0"/>
   <stop stop-color="#231F20" offset=".9946"/>
  </linearGradient>
  <linearGradient id="c" x1="439.69" x2="401.15" y1="497.92" y2="474.02" gradientUnits="userSpaceOnUse">
   <stop stop-color="#808285" offset="0"/>
   <stop stop-color="#231F20" offset=".9946"/>
  </linearGradient>
 </defs>
 <g transform="matrix(4.6428 0 0 4.6428 -615.8 -1561.9)" fill="#fff">
  <g fill="#fff">
   <path d="m244.7 490.7c-0.1-0.2-0.4-0.4-0.7-0.4h-13.7l12.5-13.8c1-1.1 1.5-2.4 1.5-3.9 0-3.2-2.6-5.8-5.8-5.8h-22.4c-0.1 0-0.2 0.1-0.2 0.2v4l-0.3-0.3c-0.5-0.5-1-1-1.6-1.5-1.5-1.1-3.2-2-5.2-2.6s-4.1-0.9-6.4-0.9-4.4 0.3-6.4 0.9-3.7 1.5-5.2 2.6c-0.6 0.4-1.1 0.9-1.6 1.5l-0.3 0.3v-4c0-0.1-0.1-0.2-0.2-0.2h-4.7c-0.1 0-3.4-0.1-5 3.8-1.6 4-7.8 17.2-7.8 17.4l-0.2 0.3-0.1-0.4c-0.1-0.1-5.8-14.4-6.9-17.4-1-2.8-4-3.8-4.9-3.8h-10.5v-7.5c0-0.5-0.4-0.8-0.8-0.8h-8.4c-0.5 0-0.8 0.4-0.8 0.8v7.5h-5.1c-0.3 0-0.5 0.1-0.7 0.4-0.2 0.2-0.2 0.5-0.1 0.8l3.4 7.3c0.2 0.4 0.6 0.7 1.1 0.7h1.4v12.6c0 3.5 1.1 6.4 3.4 8.4 2.2 2.1 5.4 3.2 9.4 3.2 1.4 0 2.8-0.1 4-0.4 1.3-0.3 2.5-0.6 3.5-1 0.6-0.2 1.1-0.4 1.5-0.6 0.2-0.1 0.4-0.3 0.5-0.6s0.1-0.5 0-0.8l-2.9-6.1c-0.1-0.2-0.4-0.3-0.6-0.3-1.1 0.4-2.4 0.6-3.6 0.6-0.6 0-1.2-0.1-1.8-0.2s-1.2-0.4-1.6-0.7c-0.5-0.4-0.9-0.8-1.2-1.4s-0.5-1.4-0.5-2.4v-10.2h6.6c0.1 0 0.1 0 0.6 0.9 0.3 0.5 0.6 1.3 1.1 2.2 0.8 1.7 1.9 4 3.3 7 2.4 5.1 5 10.6 6 12.7 0.1 0.3 0.4 0.5 0.7 0.5h8.3c0.3 0 0.6-0.2 0.7-0.5l10.5-22.3-0.1 1c-0.1 0.6-0.1 1.3-0.1 1.9v19c0 0.5 0.4 0.8 0.8 0.8h8.1c0.5 0 0.8-0.4 0.8-0.8v-16.6c0-4.6 2.1-6.9 6.2-6.9 2 0 3.5 0.6 4.6 1.7s1.6 2.9 1.6 5.2v16.6c0 0.5 0.4 0.8 0.8 0.8h31.2c0.4 0 0.9-0.3 1-0.7l3.3-7.1c0.2-0.2 0.2-0.5 0-0.7zm-26.6-14.7h13.5l-13.5 13.9z" fill="#fff"/>
  </g>
 </g>
 <g transform="matrix(8.7124 0 0 8.7124 -3455.3 -3941.5)">
  <path d="m432.4 481.9c-0.5-2.4-1.8-4.6-3.9-5.9-2.1-1.4-4.7-1.9-7.2-1.9h-7.1v16h5.4l-3.3 4.9h4.6c1.9 0 3.9-0.2 5.7-1 2.1-0.8 3.9-2.4 4.9-4.5 1.2-2.4 1.4-5.1 0.9-7.6zm-5.3 3.9c-0.2 1.3-1 2.6-2.2 3.3-1.6 0.9-3.5 0.9-5.2 0.9v-11c1.2 0 2.5 0 3.7 0.3 1.3 0.3 2.5 1 3.2 2.2 0.6 1.2 0.7 2.8 0.5 4.3z" fill="#fff"/>
  <defs>
   <path id="b" d="m426.5 452.4c-16.5 0-29.9 13.4-29.9 29.9s13.4 29.9 29.9 29.9 29.9-13.4 29.9-29.9-13.4-29.9-29.9-29.9zm-4.4 49.3c-9.6 0-17.4-7.8-17.4-17.4s7.8-17.4 17.4-17.4 17.4 7.8 17.4 17.4-7.8 17.4-17.4 17.4z"/>
  </defs>
  <clipPath>
   <use width="1003.5" height="592" xlink:href="#b"/>
  </clipPath>
  <path class="st89" d="m426.5 452.4c-16.5 0-29.9 13.4-29.9 29.9s13.4 29.9 29.9 29.9 29.9-13.4 29.9-29.9-13.4-29.9-29.9-29.9zm0.5 56.1c-13.9 0-25.3-11.3-25.3-25.3 0-13.9 11.3-25.3 25.3-25.3 13.9 0 25.3 11.3 25.3 25.3s-11.3 25.3-25.3 25.3z" clip-path="url(#a)" fill="url(#f)"/>
  <path class="st90" d="m432 455.6c-13.1 0-23.8 10.6-23.8 23.8 0 13.1 10.6 23.8 23.8 23.8 13.1 0 23.8-10.6 23.8-23.8 0-13.1-10.7-23.8-23.8-23.8zm1.1 43.5c-11.5 0-20.8-9.3-20.8-20.8s9.3-20.8 20.8-20.8 20.8 9.3 20.8 20.8-9.3 20.8-20.8 20.8z" clip-path="url(#a)" fill="url(#e)"/>
  <path class="st91" d="m429.4 466.2c-12.5 0-22.7 10.1-22.7 22.7 0 12.5 10.1 22.7 22.7 22.7 12.5 0 22.7-10.1 22.7-22.7-0.1-12.5-10.2-22.7-22.7-22.7zm-1.4 41.2c-10.8 0-19.6-8.8-19.6-19.6s8.8-19.6 19.6-19.6 19.6 8.8 19.6 19.6-8.8 19.6-19.6 19.6z" clip-path="url(#a)" fill="url(#d)"/>
  <path class="st92" d="m420.4 463.3c-12.5 0-22.7 10.2-22.7 22.7s10.2 22.7 22.7 22.7 22.7-10.2 22.7-22.7c0-12.6-10.2-22.7-22.7-22.7zm1.7 38.4c-9.6 0-17.4-7.8-17.4-17.4s7.8-17.4 17.4-17.4 17.4 7.8 17.4 17.4-7.8 17.4-17.4 17.4z" clip-path="url(#a)" fill="url(#c)"/>
 </g>
</svg>
