<?xml version="1.0" encoding="UTF-8"?>
<!-- Created with Inkscape (http://www.inkscape.org/) -->
<svg id="svg87795" width="14.93mm" height="7.2863mm" version="1.1" viewBox="0 0 52.902 25.818" xmlns="http://www.w3.org/2000/svg" xmlns:cc="http://creativecommons.org/ns#" xmlns:dc="http://purl.org/dc/elements/1.1/" xmlns:rdf="http://www.w3.org/1999/02/22-rdf-syntax-ns#">
 <metadata id="metadata87800">
  <rdf:RDF>
   <cc:Work rdf:about="">
    <dc:format>image/svg+xml</dc:format>
    <dc:type rdf:resource="http://purl.org/dc/dcmitype/StillImage"/>
    <dc:title/>
   </cc:Work>
  </rdf:RDF>
 </metadata>
 <g id="layer1" transform="translate(-67.834 -516.6)" fill="#91d100">
  <path id="path70942" d="m96.412 539.08 0.42875-3.4412 0.44375 3.4412zm-1.14-6.7225-1.8388 10.048h2.5638l0.1725-1.385h1.3662l0.1775 1.385h2.7287l-1.8487-10.048zm-4.5438 0h-2.7012v10.05h5.065v-2.1738h-2.3638zm23.747 2.0212h1.7775v8.0338h2.6863v-8.0338h1.7712v-2.0138h-6.235v2.0138zm-29.492 2.105c0 0.29-0.175 0.4025-0.46125 0.4025h-0.4325v-2.4875h0.4325c0.28625 0 0.46125 0.11375 0.46125 0.4025zm0.0125-4.1188h-3.5925v10.048h2.6862v-3.4912h0.90625c1.2875 0 2.5-0.80375 2.5-2.0862v-2.3862c0-1.2675-1.2125-2.0838-2.5-2.0838m26.381 5.8525h2.5575v-1.9088h-2.5575v-1.93h2.6187v-2.0138h-5.3075v10.048h5.375v-2.11h-2.6862v-2.085zm-5.65-1.0425-2.555-4.81h-2.3238v10.048h2.3975v-4.7225l2.6562 4.7225h2.2112v-10.048h-2.3862zm-15.981-5.525v-15.055h-4.0438l0.0012 15.055h4.0425zm-16.426 2.1475 0.96625-8.4838 0.64625 8.485-1.6125-1e-3zm-2.0675-17.202-3.4175 25.818h4.58l0.485-4.0325h2.3225l0.32375 4.0325h5.3538l-3.485-25.818zm46.65 12.098v-12.098h-3.3925v15.054h6.2275v-2.955l-2.835-1e-3zm-36.425 2.9575-0.0013-8.2312 1.8088 8.2312h1.4688l-0.0012-15.055h-1.45v8.35l-1.5062-8.35h-1.79l0.0012 15.055h1.47zm30.096-11.015 0.38999 6.38h-0.8425zm-0.60375 8.2838h1.125l0.16625 2.7312h1.7725l-1.42-15.055h-2.01l-1.4362 15.055h1.5988z"/>
  <path id="path70946" d="m108.69 522.75v-6.15h-18.048v3.6412l11.506 1e-3 -11.508 2.2562 0.0012 2.635 11.482 2.5075h-11.482v4.0138h18.048v-5.845l-8.2338-1.58 8.2338-1.48z"/>
 </g>
</svg>
