<svg height="7.286307mm" viewBox="0 0 52.902498 25.817624" width="14.930261mm" xmlns="http://www.w3.org/2000/svg"><g transform="translate(-67.834465 -516.59622)"><path d="m96.411965 539.08135.42875-3.44125.44375 3.44125zm-1.14-6.7225-1.83875 10.0475h2.56375l.1725-1.385h1.36625l.1775 1.385h2.728745l-1.848745-10.0475zm-4.54375 0h-2.70125v10.05h5.065v-2.17375h-2.36375zm23.747495 2.02125h1.7775v8.03375h2.68626v-8.03375h1.77124v-2.01375h-6.23499v2.01375zm-29.492495 2.105c0 .29-.175.4025-.46125.4025h-.4325v-2.4875h.4325c.28625 0 .46125.11375.46125.4025zm.0125-4.11875h-3.5925v10.0475h2.68625v-3.49125h.90625c1.2875 0 2.5-.80375 2.5-2.08625v-2.38625c0-1.2675-1.2125-2.08375-2.5-2.08375m26.381255 5.8525h2.55749v-1.90875h-2.55749v-1.93h2.61874v-2.01375h-5.30749v10.0475h5.37499v-2.11h-2.68625v-2.085zm-5.65001-1.0425-2.55499-4.81h-2.32376v10.0475h2.3975v-4.7225l2.65625 4.7225h2.21125v-10.0475h-2.38625zm-15.981245-5.525v-15.055h-4.04375l.0012 15.055h4.0425zm-16.42625 2.1475.96625-8.48375.64625 8.485-1.6125-.001zm-2.0675-17.2025-3.4175 25.8175h4.58l.485-4.0325h2.3225l.32375 4.0325h5.35375l-3.485-25.8175zm46.649995 12.0975v-12.0975h-3.3925v15.05375h6.2275v-2.955l-2.835-.001zm-36.424995 2.9575-.0013-8.23125 1.80875 8.23125h1.46875l-.0012-15.055h-1.45v8.35l-1.50625-8.35h-1.79l.0012 15.055h1.47zm30.096255-11.015.38999 6.38h-.8425zm-.60375 8.28375h1.125l.16625 2.73125h1.7725l-1.42001-15.055h-2.01l-1.43625 15.055h1.59876z" fill="#91d100"/><path d="m108.68697 522.74623v-6.15h-18.0475v3.64125l11.50625.001-11.5075 2.25625.0012 2.635 11.4825 2.5075h-11.4825v4.01375h18.0475v-5.845l-8.23375-1.58 8.23375-1.48z" fill="#91d100"/></g></svg>