<?xml version="1.0" encoding="UTF-8" standalone="no"?>
<svg
   xmlns:dc="http://purl.org/dc/elements/1.1/"
   xmlns:cc="http://creativecommons.org/ns#"
   xmlns:rdf="http://www.w3.org/1999/02/22-rdf-syntax-ns#"
   xmlns:svg="http://www.w3.org/2000/svg"
   xmlns="http://www.w3.org/2000/svg"
   xmlns:sodipodi="http://sodipodi.sourceforge.net/DTD/sodipodi-0.dtd"
   xmlns:inkscape="http://www.inkscape.org/namespaces/inkscape"
   width="400.3696pt"
   height="251.26482pt"
   viewBox="0 0 400.3696 251.26482"
   version="1.1"
   id="svg2"
   inkscape:version="0.91 r13725"
   sodipodi:docname="BBC UKTV - Dark.svg">
  <metadata
     id="metadata40">
    <rdf:RDF>
      <cc:Work
         rdf:about="">
        <dc:format>image/svg+xml</dc:format>
        <dc:type
           rdf:resource="http://purl.org/dc/dcmitype/StillImage" />
        <dc:title />
      </cc:Work>
    </rdf:RDF>
  </metadata>
  <defs
     id="defs38" />
  <sodipodi:namedview
     pagecolor="#ffffff"
     bordercolor="#666666"
     borderopacity="1"
     objecttolerance="10"
     gridtolerance="10"
     guidetolerance="10"
     inkscape:pageopacity="0"
     inkscape:pageshadow="2"
     inkscape:window-width="1920"
     inkscape:window-height="1017"
     id="namedview36"
     showgrid="false"
     fit-margin-top="0"
     fit-margin-left="0"
     fit-margin-right="0"
     fit-margin-bottom="0"
     inkscape:zoom="0.95800416"
     inkscape:cx="128.7217"
     inkscape:cy="290.21913"
     inkscape:window-x="-8"
     inkscape:window-y="-8"
     inkscape:window-maximized="1"
     inkscape:current-layer="svg2" />
  <g
     id="g4183"
     style="fill:#f11d34;fill-opacity:1"
     transform="translate(-40.44,-40.433593)">
    <path
       d="m 153.56,152.0904 28.12,0 0.24,91.6596 40.7,-63.37 29.62,0 -32.52,52.5 37.34,57.8296 -29.86,0 -22.44,-34.2696 -23.08,34.2696 -28.12,0 z"
       id="path28"
       inkscape:connector-curvature="0"
       style="opacity:1;fill:#f11d34;fill-opacity:1"
       sodipodi:nodetypes="cccccccccccc" />
    <path
       d="m 260.6304,152.0904 28.28,0 0,28.2896 32.2196,0 8.2004,24.8896 -40.42,0 0,38.7404 c -0.32898,29.56444 29.04734,23.1694 44.1056,9.118 l 8.834,24.942 c -13.53,11.57 -32.66,15.14 -49.89,11.92 -10.32,-1.35 -20.1,-7.36 -25.26,-16.51 -4.37,-8.09 -6.0596,-17.36 -6.0696,-26.49 z"
       id="path30"
       inkscape:connector-curvature="0"
       style="opacity:1;fill:#f11d34;fill-opacity:1"
       sodipodi:nodetypes="ccccccccccccc" />
    <path
       d="m 41.7,180.4704 28.1296,0 0,63.5696 c -0.25,4.56 0.6304,9.23 2.9504,13.2 4.06,6.24 12.1,8.81 19.27,8.09 7.46,-0.21 15.17,-2.43 20.61,-7.76 1.19,-1.2 1.03,-3 1.09,-4.54 l 4e-4,-72.5596 28.1,0 0,109.6696 -28.0104,0 0,-8.05 c -8.51,6.9 -19.92,10.13 -30.81,9.54 C 73.51,291.14 63.53,289.16 55.95,283 45.85,274.92 41.66,261.59 41.7,249.03 Z"
       id="path32"
       inkscape:connector-curvature="0"
       style="opacity:1;fill:#f11d34;fill-opacity:1"
       sodipodi:nodetypes="cccccccccccccccc" />
    <path
       d="m 333.24,180.42 30.08,0 23.71,66.4 23.6996,-66.4 30.08,0 -39.08,110.33 c -8.66,0.13 -20.7396,0.0404 -29.4096,-0.0596 z"
       id="path34"
       inkscape:connector-curvature="0"
       style="opacity:1;fill:#f11d34;fill-opacity:1"
       sodipodi:nodetypes="cccccccc" />
  </g>
  <g
     transform="matrix(1.0745109,0,0,1.0745109,-29.697547,-1012.4084)"
     id="g6"
     style="fill:#f11d34;fill-opacity:1">
    <g
       transform="matrix(0.82302261,0,0,-0.82302261,189.63913,997.27701)"
       style="fill:#f11d34;fill-opacity:1"
       id="g8">
      <path
         style="fill:#f11d34;fill-opacity:1;fill-rule:nonzero"
         d="m 0,0 c 0,-11.25 -14,-10.583 -14,-10.583 l -14,0 0,20.333 14,0 C 0.417,9.833 0,0 0,0 m -28,40.75 10.667,0 c 11.083,-0.584 10.666,-8.833 10.666,-8.833 0,-10.25 -12.25,-10.417 -12.25,-10.417 l -9.083,0 0,19.25 z M -2.583,17.5 c 0,0 9.583,4.083 9.5,14.917 0,0 1.457,17.749 -22.063,19.916 l -26.104,0 0,-74.416 29.917,0 c 0,0 25,-0.084 25,21 0,0 0.583,14.333 -16.25,18.583 m -67.545,49.4156 109.878,0 0,-103.544 -109.878,0 0,103.544 z"
         id="path10"
         inkscape:connector-curvature="0" />
    </g>
    <g
       transform="matrix(0.82302261,0,0,-0.82302261,85.355129,997.27701)"
       style="fill:#f11d34;fill-opacity:1"
       id="g12">
      <path
         d="m 0,0 c 0,-11.25 -14,-10.583 -14,-10.583 l -14,0 0,20.333 14,0 C 0.417,9.833 0,0 0,0 m -28,40.75 10.667,0 c 11.083,-0.584 10.666,-8.833 10.666,-8.833 0,-10.25 -12.25,-10.417 -12.25,-10.417 l -9.083,0 0,19.25 z M -2.583,17.5 c 0,0 9.583,4.083 9.5,14.917 0,0 1.457,17.749 -22.063,19.916 l -26.104,0 0,-74.416 29.917,0 c 0,0 25,-0.084 25,21 0,0 0.583,14.333 -16.25,18.583 m -67.545,49.4156 109.878,0 0,-103.544 -109.878,0 0,103.544 z"
         style="fill:#f11d34;fill-opacity:1;fill-rule:nonzero"
         id="path14-8"
         inkscape:connector-curvature="0" />
    </g>
    <g
       transform="matrix(0.82302261,0,0,-0.82302261,308.1885,958.5961)"
       style="fill:#f11d34;fill-opacity:1"
       id="g16">
      <path
         d="m 0,0 0,-13.75 c 0,0 -13.417,8.25 -28.25,8.417 0,0 -27.666,0.54 -28.916,-26.522 0,0 -1,-24.895 28.583,-26.312 0,0 12.417,-1.5 29.25,9.25 l 0,-14.25 c 0,0 -22.583,-13.416 -48.75,-3.083 0,0 -22,8.04 -22.834,34.395 0,0 -0.917,27.105 28.417,36.105 0,0 7.834,3 21.917,1.667 0,0 8.416,-0.834 20.583,-5.917 m -87.461,-83.627 109.878,0 0,103.544 -109.878,0 0,-103.544 z"
         style="fill:#f11d34;fill-opacity:1;fill-rule:nonzero"
         id="path18-8"
         inkscape:connector-curvature="0" />
    </g>
  </g>
</svg>
