<svg height="331pt" viewBox="0 0 481 331" width="481pt" xmlns="http://www.w3.org/2000/svg"><path d="m0 0h481v331h-481z" fill="#f11d34"/><g fill="#fff" transform="translate(0 -.000013)"><path d="m153.56 152.0904h28.12l.24 91.6596 40.7-63.37h29.62l-32.52 52.5 37.34 57.8296h-29.86l-22.44-34.2696-23.08 34.2696h-28.12z"/><path d="m260.6304 152.0904h28.28v28.2896h32.2196l8.2004 24.8896h-40.42v38.7404c-.32898 29.56444 29.04734 23.1694 44.1056 9.118l8.834 24.942c-13.53 11.57-32.66 15.14-49.89 11.92-10.32-1.35-20.1-7.36-25.26-16.51-4.37-8.09-6.0596-17.36-6.0696-26.49z"/><path d="m41.7 180.4704h28.1296v63.5696c-.25 4.56.6304 9.23 2.9504 13.2 4.06 6.24 12.1 8.81 19.27 8.09 7.46-.21 15.17-2.43 20.61-7.76 1.19-1.2 1.03-3 1.09-4.54l.0004-72.5596h28.1v109.6696h-28.0104v-8.05c-8.51 6.9-19.92 10.13-30.81 9.54-9.52-.49-19.5-2.47-27.08-8.63-10.1-8.08-14.29-21.41-14.25-33.97z"/><path d="m333.24 180.42h30.08l23.71 66.4 23.6996-66.4h30.08l-39.08 110.33c-8.66.13-20.7396.0404-29.4096-.0596z"/></g><g fill="#fff" transform="matrix(1.0745109 0 0 1.0745109 10.742453 -971.97482)"><path d="m0 0c0-11.25-14-10.583-14-10.583h-14v20.333h14c14.417.083 14-9.75 14-9.75m-28 40.75h10.667c11.083-.584 10.666-8.833 10.666-8.833 0-10.25-12.25-10.417-12.25-10.417h-9.083zm25.417-23.25s9.583 4.083 9.5 14.917c0 0 1.457 17.749-22.063 19.916h-26.104v-74.416h29.917s25-.084 25 21c0 0 .583 14.333-16.25 18.583m-67.545 49.4156h109.878v-103.544h-109.878z" transform="matrix(.82302261 0 0 -.82302261 189.63913 997.27701)"/><path d="m0 0c0-11.25-14-10.583-14-10.583h-14v20.333h14c14.417.083 14-9.75 14-9.75m-28 40.75h10.667c11.083-.584 10.666-8.833 10.666-8.833 0-10.25-12.25-10.417-12.25-10.417h-9.083zm25.417-23.25s9.583 4.083 9.5 14.917c0 0 1.457 17.749-22.063 19.916h-26.104v-74.416h29.917s25-.084 25 21c0 0 .583 14.333-16.25 18.583m-67.545 49.4156h109.878v-103.544h-109.878z" transform="matrix(.82302261 0 0 -.82302261 85.355129 997.27701)"/><path d="m0 0v-13.75s-13.417 8.25-28.25 8.417c0 0-27.666.54-28.916-26.522 0 0-1-24.895 28.583-26.312 0 0 12.417-1.5 29.25 9.25v-14.25s-22.583-13.416-48.75-3.083c0 0-22 8.04-22.834 34.395 0 0-.917 27.105 28.417 36.105 0 0 7.834 3 21.917 1.667 0 0 8.416-.834 20.583-5.917m-87.461-83.627h109.878v103.544h-109.878z" transform="matrix(.82302261 0 0 -.82302261 308.1885 958.5961)"/></g></svg>