<svg height="79.137657" width="233" xmlns="http://www.w3.org/2000/svg" xmlns:xlink="http://www.w3.org/1999/xlink"><radialGradient id="a" cx="686.13849" cy="1060.9825" gradientTransform="matrix(1 0 0 .998531 0 1.55859)" gradientUnits="userSpaceOnUse" r="21.994459" spreadMethod="pad"><stop offset="0" stop-color="#f58220"/><stop offset=".015873" stop-color="#f58220"/><stop offset=".031746" stop-color="#f58220"/><stop offset=".047619" stop-color="#f58220"/><stop offset=".0634921" stop-color="#f58220"/><stop offset=".0793651" stop-color="#f58320"/><stop offset=".0952381" stop-color="#f58320"/><stop offset=".111111" stop-color="#f58320"/><stop offset=".126984" stop-color="#f58320"/><stop offset=".142857" stop-color="#f58320"/><stop offset=".15873" stop-color="#f58320"/><stop offset=".174603" stop-color="#f58320"/><stop offset=".190476" stop-color="#f58420"/><stop offset=".206349" stop-color="#f58420"/><stop offset=".222222" stop-color="#f68520"/><stop offset=".238095" stop-color="#f68520"/><stop offset=".253968" stop-color="#f68621"/><stop offset=".26984099" stop-color="#f68620"/><stop offset=".285714" stop-color="#f68620"/><stop offset=".30158699" stop-color="#f68720"/><stop offset=".31746" stop-color="#f68821"/><stop offset=".33333299" stop-color="#f68821"/><stop offset=".349206" stop-color="#f68921"/><stop offset=".36507899" stop-color="#f68921"/><stop offset=".380952" stop-color="#f68a21"/><stop offset=".39682499" stop-color="#f68a21"/><stop offset=".412698" stop-color="#f68b21"/><stop offset=".42857099" stop-color="#f68c22"/><stop offset=".444444" stop-color="#f78d22"/><stop offset=".46031699" stop-color="#f78d22"/><stop offset=".47619" stop-color="#f78f23"/><stop offset=".49206299" stop-color="#f78f22"/><stop offset=".50793701" stop-color="#f79023"/><stop offset=".52381003" stop-color="#f79123"/><stop offset=".53968298" stop-color="#f79224"/><stop offset=".555556" stop-color="#f79324"/><stop offset=".57142901" stop-color="#f79324"/><stop offset=".58730203" stop-color="#f89525"/><stop offset=".60317498" stop-color="#f89624"/><stop offset=".619048" stop-color="#f89725"/><stop offset=".63492101" stop-color="#f89825"/><stop offset=".65079403" stop-color="#f89926"/><stop offset=".66666698" stop-color="#f89a26"/><stop offset=".68254" stop-color="#f99b27"/><stop offset=".69841301" stop-color="#f99d28"/><stop offset=".71428603" stop-color="#f99d28"/><stop offset=".73015898" stop-color="#f99f29"/><stop offset=".746032" stop-color="#f9a028"/><stop offset=".76190501" stop-color="#faa229"/><stop offset=".77777803" stop-color="#faa32a"/><stop offset=".79365098" stop-color="#faa42a"/><stop offset=".809524" stop-color="#faa52b"/><stop offset=".82539701" stop-color="#faa72b"/><stop offset=".84127003" stop-color="#faa82c"/><stop offset=".85714298" stop-color="#fbaa2d"/><stop offset=".873016" stop-color="#fbab2d"/><stop offset=".88888901" stop-color="#fbad2e"/><stop offset=".90476203" stop-color="#fbaf2f"/><stop offset=".92063498" stop-color="#fcb030"/><stop offset=".936508" stop-color="#fcb230"/><stop offset=".95238101" stop-color="#fcb331"/><stop offset=".96825403" stop-color="#fdb632"/><stop offset=".98412699" stop-color="#fdb733"/><stop offset="1" stop-color="#fdb934"/></radialGradient><g transform="matrix(.29419193 0 0 .29419193 -7.073964 -268.38907)"><path d="m0 0c .083.028.165.071.227.133l.06.075c.051.083.064.165.068.213l.001.033v.025c0 .019-.003.057-.014.098-.012.049-.035.105-.077.156l-.026.031-.059.051c-.036.026-.079.051-.123.07-.061.026-.128.043-.201.058-.038.008-.078.013-.118.017-.027.002-.051.005-.078.006l-.07.004h-.644v-1.028h.667l.035.003c.023 0 .054.002.094.004.071.007.166.02.258.051m-.68 1.556.071.003c.068.006.158.015.251.04l.053.017c.071.025.14.064.194.116.043.042.07.09.09.134.023.056.031.109.033.146.003.035.003.055.003.055v.041c-.003.043-.012.111-.045.179-.015.031-.038.061-.068.092-.037.034-.08.062-.127.084-.091.039-.194.055-.282.062-.039.002-.073.002-.102.002h-.445v-.972h.322s.023 0 .052.001m-1.047 1.558h1.221c.656 0 .947-.344.947-.344s.265-.229.265-.627c0-.396-.18-.56-.231-.611-.109-.107-.25-.175-.25-.175s.312-.065.556-.309c.289-.287.266-.66.266-.66s.023-.36-.288-.669c-.38-.381-1.072-.363-1.072-.363h-1.414zm-1.453-4.485h5.542v5.216h-5.542zm17.218 1.022-.037-.019c-.027-.013-.057-.027-.084-.04-.03-.013-.06-.026-.087-.039-.047-.018-.086-.033-.119-.047-.026-.01-.048-.018-.064-.024l-.031-.01c-.032-.012-.067-.023-.101-.035-.033-.008-.062-.018-.094-.026-.042-.011-.088-.024-.135-.032-.033-.007-.063-.014-.096-.019-.053-.009-.106-.018-.165-.026-.036-.002-.074-.008-.114-.01l-.019-.002c-.1-.008-.21-.014-.325-.014l-.047.001c-.031 0-.063.001-.094.003-.065.004-.128.01-.188.016-.062.006-.122.017-.178.028-.07.013-.138.03-.201.048-.039.012-.074.022-.108.035-.036.012-.07.023-.103.037-.09.036-.171.076-.243.116-.038.021-.073.041-.106.063-.031.022-.061.04-.088.061l-.067.051-.065.053c-.03.026-.054.049-.079.073l-.016.016c-.03.029-.058.059-.086.093-.025.026-.049.056-.074.086-.021.029-.044.058-.065.091-.016.023-.032.047-.049.074-.019.029-.038.063-.057.096-.031.058-.06.121-.087.185-.017.039-.031.08-.046.122-.012.036-.021.071-.033.107-.007.027-.013.054-.019.084l-.009.039c-.007.036-.011.07-.016.105l-.003.021c-.003.029-.005.061-.007.089-.003.029-.003.06-.003.089 0 .039.003.078.004.116.003.051.009.101.016.148.02.155.057.3.109.435.041.107.093.209.149.303l.032.047.046.069c.022.03.043.061.068.087.02.026.043.051.065.076l.067.072c.027.027.058.054.086.08.032.028.066.055.101.082l.052.039.06.042c.036.024.076.047.114.07.041.024.084.048.128.067.051.026.108.051.167.073.111.043.233.082.366.109l.063.014.048.008.037.004.031.006.025.002c.033.005.065.009.098.012l.07.004c.038.003.079.005.12.007h.06c.049 0 .101-.002.153-.005.028-.002.06-.003.09-.006.041-.004.086-.01.127-.014l.029-.006c.027-.004.053-.008.075-.011.031-.006.06-.011.091-.017.027-.008.054-.014.082-.018l.049-.011c.027-.008.052-.014.078-.021l.064-.018.018-.006.064-.017c.027-.009.056-.02.082-.028l.068-.022c.029-.011.055-.02.081-.028.043-.015.081-.03.115-.043.076-.03.12-.048.12-.048v-.698l-.073.041c-.027.014-.06.032-.098.051l-.072.037c-.031.016-.064.032-.098.046-.042.019-.085.039-.13.057-.033.014-.068.027-.104.04 0 0-.021.008-.06.02-.022.009-.052.019-.087.028-.023.008-.047.016-.076.023-.041.01-.088.022-.138.032-.033.006-.07.013-.106.018-.041.007-.084.012-.129.016l-.07.005c-.037.002-.074.004-.11.005h-.048c-.049 0-.102-.003-.154-.007-.027-.002-.053-.005-.081-.009-.027-.002-.055-.007-.082-.012l-.076-.016-.074-.018c-.026-.006-.054-.015-.079-.026l-.073-.027-.072-.028c-.151-.069-.298-.167-.428-.296l-.025-.027-.049-.056-.034-.044c-.03-.038-.056-.078-.08-.119l-.03-.056-.035-.071-.021-.054-.025-.076c-.01-.029-.018-.056-.024-.082-.01-.041-.017-.079-.02-.113-.011-.061-.014-.112-.016-.153v-.045c0-.017 0-.044.002-.074l.004-.059c.005-.058.013-.126.033-.203.006-.023.015-.051.023-.078.011-.033.023-.07.04-.103l.027-.065.041-.075.032-.051.036-.052.041-.054c.028-.033.058-.066.09-.097l.009-.008.005-.006.014-.013.022-.02.055-.045.062-.045.051-.034.049-.029c.034-.019.07-.038.104-.055l.05-.021.029-.012.045-.017c.1-.035.204-.064.307-.08.062-.012.126-.018.188-.021.052-.004.105-.006.155-.006.024 0 .048 0 .077.002.04.002.086.004.136.01.032.003.065.007.099.013l.045.007c.125.023.267.058.422.113.083.029.168.064.256.106.049.022.099.051.151.077.046.025.092.053.141.082l.051.029.025.017v-.711zm-4.444-1.022h5.543v5.216h-5.543zm-4.932 4.485h1.219c.656 0 .947-.344.947-.344s.265-.229.265-.627c0-.396-.18-.56-.23-.611-.109-.107-.25-.175-.25-.175s.311-.065.558-.309c.285-.287.263-.66.263-.66s.022-.36-.287-.669c-.381-.381-1.071-.363-1.071-.363h-1.414zm-1.455-4.485h5.545v5.216h-5.545zm3.181 1.371c.083.028.164.071.226.133l.061.075c.052.083.064.165.067.213l.001.033v.025c-.001.019-.002.057-.013.098-.013.049-.035.105-.078.156l-.024.031-.061.051c-.036.026-.077.051-.123.07-.061.026-.128.043-.201.058-.038.008-.078.013-.117.017-.025.002-.052.005-.079.006l-.069.004h-.644v-1.028h.666l.036.003c.022 0 .053.002.092.004.073.007.167.02.26.051m-.681 1.556.072.003c.067.006.157.015.25.04l.053.017c.072.025.143.064.195.116.043.042.07.09.089.134.023.056.03.109.033.146.005.035.004.055.004.055l-.001.041c-.003.043-.01.111-.044.179-.015.031-.038.061-.069.092-.035.034-.079.062-.126.084-.091.039-.195.055-.283.062-.037.002-.071.002-.101.002h-.445v-.972h.322s.023 0 .051.001" transform="matrix(10.768403 0 0 -10.768403 121.1279421126 953.696950062501)"/><path d="m682.34265 1039.0204c-10.34844 1.8522-18.1986 10.9084-18.1986 21.7845 0 12.2329 9.90693 22.1398 22.1506 22.1398 11.01608 0 20.14768-8.0548 21.83832-18.6078v-7.0748c-1.48604-9.2501-8.71164-16.5941-17.90785-18.2417z" fill="url(#a)"/><path d="m0 0c-.7.47-.91.695-.948 1.444-.003.055-.014.173-.173.173h-1.943c-.096 0-.174-.078-.174-.173v-.521c0-.868.294-1.447 1.17-2.11.577-.438 1.157-.728 1.157-1.469 0-.564-.419-.905-.939-.905-.796 0-1.2.489-1.244 1.276l-.016.282h-2.296c-.183 0-.214-.141-.211-.21.114-2.214 1.595-3.484 3.782-3.484 1.807 0 3.614.979 3.614 3.026 0 1.44-.679 1.959-1.779 2.671m4.406 5.679c.142.901.716 1.518 1.576 1.518.816 0 1.404-.687 1.447-1.518zm5.464-1.124c.023 2.409-1.307 4.29-3.888 4.29-2.192 0-4.012-1.634-4.012-3.911 0-2.494 1.648-3.954 4.069-3.954 1.596 0 3.126.687 3.638 2.263.007.023.059.201-.086.201h-2.134c-.229-.544-.802-.818-1.389-.818-1.032 0-1.619.674-1.662 1.691h5.257c.228 0 .207.16.207.238m-29.976 1.124c.142.901.715 1.518 1.576 1.518.816 0 1.404-.687 1.447-1.518zm1.576 3.166c-2.192 0-4.012-1.634-4.012-3.911 0-2.494 1.648-3.954 4.069-3.954 1.596 0 3.126.687 3.637 2.263.008.023.06.201-.085.201h-2.134c-.229-.544-.802-.818-1.39-.818-1.031 0-1.618.674-1.661 1.691h5.258c.227 0 .206.16.206.238.023 2.409-1.308 4.29-3.888 4.29m8.329-6.003c-1.119 0-1.49 1.131-1.49 2.148 0 .946.371 1.992 1.49 1.992 1.059 0 1.447-.988 1.447-2.063 0-.946-.259-2.077-1.447-2.077m3.623 8.581h-2.088c-.096 0-.174-.078-.174-.174v-3.417s-.013-.004-.03-.004c-.501.673-1.203 1.017-2.12 1.017-2.106 0-3.137-1.835-3.137-3.768 0-2.092.988-4.097 3.324-4.097 1.387 0 2.055 1.073 2.063 1.073.007 0 .014-.078.014-.173v-.513c0-.095.078-.173.174-.173h1.974c.095 0 .172.078.172.173v9.882c0 .096-.077.174-.172.174m-16.711 0h-2.089c-.096 0-.174-.078-.174-.174v-9.882c0-.095.078-.173.174-.173h2.089c.095 0 .173.078.173.173v9.882c0 .096-.078.174-.173.174m-2.908-2.794h-2.132c-.096 0-.193-.075-.216-.168l-1.133-4.463c-.023-.093-.049-.168-.057-.168-.007 0-.031.076-.052.169l-1.013 4.461c-.021.093-.116.169-.211.169h-1.974c-.096 0-.19-.076-.211-.169l-.985-4.474c-.021-.094-.044-.17-.052-.17s-.034.076-.058.168l-1.16 4.478c-.024.092-.121.167-.216.167h-2.117c-.095 0-.15-.074-.122-.165l2.217-7.105c.029-.09.13-.165.225-.165h2.119c.095 0 .191.076.212.169l1.081 4.605c.021.093.046.169.054.169s.033-.076.054-.169l1.095-4.605c.022-.093.118-.169.214-.169h2.117c.096 0 .197.075.225.165l2.218 7.105c.028.091-.027.165-.122.165m-15.312-5.787c-1.131 0-1.475 1.117-1.475 2.062 0 .946.344 2.078 1.475 2.078 1.133 0 1.49-1.132 1.49-2.078 0-.945-.357-2.062-1.49-2.062m0 6.003c-2.306 0-3.91-1.706-3.91-3.941s1.604-3.924 3.91-3.924c2.307 0 3.926 1.689 3.926 3.924s-1.619 3.941-3.926 3.941m-7.155 0c-1.578 0-2.342-1.233-2.35-1.233s-.014.003-.014.003v.841c0 .095-.078.173-.173.173h-2.017c-.095 0-.174-.078-.174-.173v-7.089c0-.095.079-.173.174-.173h2.088c.095 0 .174.078.174.173v3.882c0 .816.401 1.59 1.318 1.59.959 0 1.217-.479 1.217-1.653v-3.819c0-.095.079-.173.174-.173h2.088c.096 0 .174.078.174.173v4.597c0 1.076-.201 2.881-2.679 2.881m-9.456-1.445 3.664 3.896c.066.07.041.127-.054.127h-2.963c-.095 0-.224-.059-.286-.132l-3.207-3.728-.047-.004v3.69c0 .096-.078.174-.173.174h-2.319c-.095 0-.173-.078-.173-.174v-9.882c0-.095.078-.173.173-.173h2.319c.095 0 .173.078.173.173v2.806c0 .138.003.183.119.3l.971 1.014 2.655-4.147c.052-.081.172-.146.267-.146h2.963c.095 0 .129.064.075.143z" transform="matrix(10.768403 0 0 -10.768403 709.7557711001 1119.944939778)"/></g><g transform="matrix(1.6831475 0 0 1.6831475 -454.92836 -663.86798)"><path d="m273.70181 435.7676c.18625 0 .36125-.0375.52375-.11.16125-.0738.30125-.175.41875-.3025.11875-.1275.21125-.2725.28-.435.0688-.16125.10375-.33125.10375-.5075 0-.35375-.12625-.665-.37625-.93625-.25-.26875-.56625-.405-.95-.405h-1.06v2.69625zm-3.4175-4.905h3.44625c.51125 0 .985.0937 1.4225.28.43625.18625.815.43875 1.13375.75875.32.31875.57.69375.75125 1.12625.1825.4325.2725.89375.2725 1.385s-.09.9525-.2725 1.38375c-.18125.4325-.43125.80875-.75125 1.1275-.31875.31875-.6975.5725-1.13375.75875-.4375.18625-.91125.28-1.4225.28h-1.08875v3.35875h-2.3575z"/><path d="m283.35044 439.17022c.4225 0 .815-.0812 1.17875-.24375.3625-.16125.6775-.3825.9425-.6625.265-.27875.47375-.60625.62625-.97875.15125-.37375.2275-.77125.2275-1.19375s-.0763-.82-.2275-1.1925c-.1525-.37375-.36125-.7-.62625-.98s-.58-.50125-.9425-.6625c-.36375-.1625-.75625-.24375-1.17875-.24375s-.815.0813-1.17875.24375c-.36375.16125-.6775.3825-.9425.6625s-.47375.60625-.62625.98c-.1525.3725-.22875.77-.22875 1.1925s.0763.82.22875 1.19375c.1525.3725.36125.7.62625.97875.265.28.57875.50125.9425.6625.36375.1625.75625.24375 1.17875.24375m0 2.2675c-.73625 0-1.42875-.13875-2.0775-.41875-.6475-.28-1.215-.66375-1.70125-1.14875-.485-.48625-.86875-1.05375-1.14875-1.70125-.28-.64875-.42-1.34125-.42-2.0775s.14-1.42875.42-2.0775c.28-.6475.66375-1.215 1.14875-1.7.48625-.48625 1.05375-.87 1.70125-1.15.64875-.28 1.34125-.42 2.0775-.42s1.42875.14 2.0775.42c.6475.28 1.215.66375 1.7 1.15.48625.485.87 1.0525 1.15 1.7.27875.64875.42 1.34125.42 2.0775s-.14125 1.42875-.42 2.0775c-.28.6475-.66375 1.215-1.15 1.70125-.485.485-1.0525.86875-1.7 1.14875-.64875.28-1.34125.41875-2.0775.41875"/><path d="m293.60219 435.7676c.18625 0 .36125-.0375.52375-.11.16125-.0738.30125-.175.41875-.3025.11875-.1275.21125-.2725.28-.435.0688-.16125.10375-.33125.10375-.5075 0-.35375-.12625-.665-.37625-.93625-.25-.26875-.5675-.405-.95-.405h-1.06v2.69625zm-3.4175-4.905h3.44625c.51125 0 .985.0937 1.4225.28.43625.18625.815.43875 1.13375.75875.32.31875.57.69375.75125 1.12625s.2725.89375.2725 1.385-.0913.9525-.2725 1.38375c-.18125.4325-.43125.80875-.75125 1.1275-.31875.31875-.6975.5725-1.13375.75875-.4375.18625-.91125.28-1.4225.28h-1.08875v3.35875h-2.3575z"/><path d="m298.03619 436.1061h4.1825v2.12125h-4.1825z"/><path d="m308.02319 441.43822c-.62875 0-1.205-.10375-1.73125-.30875-.525-.20625-.97625-.50125-1.35375-.88375-.37875-.38375-.67375-.84125-.885-1.3775-.21125-.535-.31625-1.13125-.31625-1.79v-6.21625h2.35625v6.24625c0 .6375.1775 1.14125.53 1.50875.35375.36875.82.55375 1.4.55375.57875 0 1.04625-.185 1.39875-.55375.35375-.3675.53125-.87125.53125-1.50875v-6.24625h2.35625v6.21625c0 .65875-.105 1.255-.31625 1.79-.2125.53625-.50625.99375-.885 1.3775-.3775.3825-.82875.6775-1.35375.88375-.525.205-1.1025.30875-1.73125.30875"/><path d="m317.59731 435.7676c.1875 0 .36125-.0375.5225-.11.16375-.0738.3025-.175.42125-.3025.1175-.1275.21125-.2725.27875-.435.0687-.16125.10375-.33125.10375-.5075 0-.35375-.125-.665-.37625-.93625-.25-.26875-.56625-.405-.95-.405h-1.06125v2.69625zm-3.4175-4.905h3.4475c.51125 0 .98375.0937 1.42.28.43875.18625.81625.43875 1.13625.75875.31875.31875.56875.69375.75 1.12625.1825.4325.27375.89375.27375 1.385s-.0913.9525-.27375 1.38375c-.18125.4325-.43125.80875-.75 1.1275-.32.31875-.6975.5725-1.13625.75875-.43625.18625-.90875.28-1.42.28h-1.09125v3.35875h-2.35625z"/></g></svg>