<?xml version="1.0" encoding="UTF-8"?>
<svg id="svg61" width="726.47pt" height="262.78pt" version="1.1" viewBox="0 0 726.47 262.78" xmlns="http://www.w3.org/2000/svg" xmlns:cc="http://creativecommons.org/ns#" xmlns:dc="http://purl.org/dc/elements/1.1/" xmlns:rdf="http://www.w3.org/1999/02/22-rdf-syntax-ns#">
 <metadata id="metadata67">
  <rdf:RDF>
   <cc:Work rdf:about="">
    <dc:format>image/svg+xml</dc:format>
    <dc:type rdf:resource="http://purl.org/dc/dcmitype/StillImage"/>
    <dc:title/>
   </cc:Work>
  </rdf:RDF>
 </metadata>
 <g id="g3868" transform="matrix(11.868 0 0 -11.868 -1957.3 2517.9)">
  <g id="g3870" transform="translate(172.94,208.31)">
   <path id="path3872" d="m0 0c0.083 0.028 0.165 0.071 0.227 0.133l0.06 0.075c0.051 0.083 0.064 0.165 0.068 0.213l1e-3 0.033v0.025c0 0.019-3e-3 0.057-0.014 0.098-0.012 0.049-0.035 0.105-0.077 0.156l-0.026 0.031-0.059 0.051c-0.036 0.026-0.079 0.051-0.123 0.07-0.061 0.026-0.128 0.043-0.201 0.058-0.038 8e-3 -0.078 0.013-0.118 0.017-0.027 2e-3 -0.051 5e-3 -0.078 6e-3l-0.07 4e-3h-0.644v-1.028h0.667l0.035 3e-3c0.023 0 0.054 2e-3 0.094 4e-3 0.071 7e-3 0.166 0.02 0.258 0.051m-0.68 1.556 0.071 3e-3c0.068 6e-3 0.158 0.015 0.251 0.04l0.053 0.017c0.071 0.025 0.14 0.064 0.194 0.116 0.043 0.042 0.07 0.09 0.09 0.134 0.023 0.056 0.031 0.109 0.033 0.146 3e-3 0.035 3e-3 0.055 3e-3 0.055v0.041c-3e-3 0.043-0.012 0.111-0.045 0.179-0.015 0.031-0.038 0.061-0.068 0.092-0.037 0.034-0.08 0.062-0.127 0.084-0.091 0.039-0.194 0.055-0.282 0.062-0.039 2e-3 -0.073 2e-3 -0.102 2e-3h-0.445v-0.972h0.322s0.023 0 0.052 1e-3m-1.047 1.558h1.221c0.656 0 0.947-0.344 0.947-0.344s0.265-0.229 0.265-0.627c0-0.396-0.18-0.56-0.231-0.611-0.109-0.107-0.25-0.175-0.25-0.175s0.312-0.065 0.556-0.309c0.289-0.287 0.266-0.66 0.266-0.66s0.023-0.36-0.288-0.669c-0.38-0.381-1.072-0.363-1.072-0.363h-1.414zm-1.453-4.485h5.542v5.216h-5.542zm17.218 1.022-0.037-0.019c-0.027-0.013-0.057-0.027-0.084-0.04-0.03-0.013-0.06-0.026-0.087-0.039-0.047-0.018-0.086-0.033-0.119-0.047-0.026-0.01-0.048-0.018-0.064-0.024l-0.031-0.01c-0.032-0.012-0.067-0.023-0.101-0.035-0.033-8e-3 -0.062-0.018-0.094-0.026-0.042-0.011-0.088-0.024-0.135-0.032-0.033-7e-3 -0.063-0.014-0.096-0.019-0.053-9e-3 -0.106-0.018-0.165-0.026-0.036-2e-3 -0.074-8e-3 -0.114-0.01l-0.019-2e-3c-0.1-8e-3 -0.21-0.014-0.325-0.014l-0.047 1e-3c-0.031 0-0.063 1e-3 -0.094 3e-3 -0.065 4e-3 -0.128 0.01-0.188 0.016-0.062 6e-3 -0.122 0.017-0.178 0.028-0.07 0.013-0.138 0.03-0.201 0.048-0.039 0.012-0.074 0.022-0.108 0.035-0.036 0.012-0.07 0.023-0.103 0.037-0.09 0.036-0.171 0.076-0.243 0.116-0.038 0.021-0.073 0.041-0.106 0.063-0.031 0.022-0.061 0.04-0.088 0.061l-0.067 0.051-0.065 0.053c-0.03 0.026-0.054 0.049-0.079 0.073l-0.016 0.016c-0.03 0.029-0.058 0.059-0.086 0.093-0.025 0.026-0.049 0.056-0.074 0.086-0.021 0.029-0.044 0.058-0.065 0.091-0.016 0.023-0.032 0.047-0.049 0.074-0.019 0.029-0.038 0.063-0.057 0.096-0.031 0.058-0.06 0.121-0.087 0.185-0.017 0.039-0.031 0.08-0.046 0.122-0.012 0.036-0.021 0.071-0.033 0.107-7e-3 0.027-0.013 0.054-0.019 0.084l-9e-3 0.039c-7e-3 0.036-0.011 0.07-0.016 0.105l-3e-3 0.021c-3e-3 0.029-5e-3 0.061-7e-3 0.089-3e-3 0.029-3e-3 0.06-3e-3 0.089 0 0.039 3e-3 0.078 4e-3 0.116 3e-3 0.051 9e-3 0.101 0.016 0.148 0.02 0.155 0.057 0.3 0.109 0.435 0.041 0.107 0.093 0.209 0.149 0.303l0.032 0.047 0.046 0.069c0.022 0.03 0.043 0.061 0.068 0.087 0.02 0.026 0.043 0.051 0.065 0.076l0.067 0.072c0.027 0.027 0.058 0.054 0.086 0.08 0.032 0.028 0.066 0.055 0.101 0.082l0.052 0.039 0.06 0.042c0.036 0.024 0.076 0.047 0.114 0.07 0.041 0.024 0.084 0.048 0.128 0.067 0.051 0.026 0.108 0.051 0.167 0.073 0.111 0.043 0.233 0.082 0.366 0.109l0.063 0.014 0.048 8e-3 0.037 4e-3 0.031 6e-3 0.025 2e-3c0.033 5e-3 0.065 9e-3 0.098 0.012l0.07 4e-3c0.038 3e-3 0.079 5e-3 0.12 7e-3h0.06c0.049 0 0.101-2e-3 0.153-5e-3 0.028-2e-3 0.06-3e-3 0.09-6e-3 0.041-4e-3 0.086-0.01 0.127-0.014l0.029-6e-3c0.027-4e-3 0.053-8e-3 0.075-0.011 0.031-6e-3 0.06-0.011 0.091-0.017 0.027-8e-3 0.054-0.014 0.082-0.018l0.049-0.011c0.027-8e-3 0.052-0.014 0.078-0.021l0.064-0.018 0.018-6e-3 0.064-0.017c0.027-9e-3 0.056-0.02 0.082-0.028l0.068-0.022c0.029-0.011 0.055-0.02 0.081-0.028 0.043-0.015 0.081-0.03 0.115-0.043 0.076-0.03 0.12-0.048 0.12-0.048v-0.698l-0.073 0.041c-0.027 0.014-0.06 0.032-0.098 0.051l-0.072 0.037c-0.031 0.016-0.064 0.032-0.098 0.046-0.042 0.019-0.085 0.039-0.13 0.057-0.033 0.014-0.068 0.027-0.104 0.04 0 0-0.021 8e-3 -0.06 0.02-0.022 9e-3 -0.052 0.019-0.087 0.028-0.023 8e-3 -0.047 0.016-0.076 0.023-0.041 0.01-0.088 0.022-0.138 0.032-0.033 6e-3 -0.07 0.013-0.106 0.018-0.041 7e-3 -0.084 0.012-0.129 0.016l-0.07 5e-3c-0.037 2e-3 -0.074 4e-3 -0.11 5e-3h-0.048c-0.049 0-0.102-3e-3 -0.154-7e-3 -0.027-2e-3 -0.053-5e-3 -0.081-9e-3 -0.027-2e-3 -0.055-7e-3 -0.082-0.012l-0.076-0.016-0.074-0.018c-0.026-6e-3 -0.054-0.015-0.079-0.026l-0.073-0.027-0.072-0.028c-0.151-0.069-0.298-0.167-0.428-0.296l-0.025-0.027-0.049-0.056-0.034-0.044c-0.03-0.038-0.056-0.078-0.08-0.119l-0.03-0.056-0.035-0.071-0.021-0.054-0.025-0.076c-0.01-0.029-0.018-0.056-0.024-0.082-0.01-0.041-0.017-0.079-0.02-0.113-0.011-0.061-0.014-0.112-0.016-0.153v-0.045c0-0.017 0-0.044 2e-3 -0.074l4e-3 -0.059c5e-3 -0.058 0.013-0.126 0.033-0.203 6e-3 -0.023 0.015-0.051 0.023-0.078 0.011-0.033 0.023-0.07 0.04-0.103l0.027-0.065 0.041-0.075 0.032-0.051 0.036-0.052 0.041-0.054c0.028-0.033 0.058-0.066 0.09-0.097l9e-3 -8e-3 5e-3 -6e-3 0.014-0.013 0.022-0.02 0.055-0.045 0.062-0.045 0.051-0.034 0.049-0.029c0.034-0.019 0.07-0.038 0.104-0.055l0.05-0.021 0.029-0.012 0.045-0.017c0.1-0.035 0.204-0.064 0.307-0.08 0.062-0.012 0.126-0.018 0.188-0.021 0.052-4e-3 0.105-6e-3 0.155-6e-3 0.024 0 0.048 0 0.077 2e-3 0.04 2e-3 0.086 4e-3 0.136 0.01 0.032 3e-3 0.065 7e-3 0.099 0.013l0.045 7e-3c0.125 0.023 0.267 0.058 0.422 0.113 0.083 0.029 0.168 0.064 0.256 0.106 0.049 0.022 0.099 0.051 0.151 0.077 0.046 0.025 0.092 0.053 0.141 0.082l0.051 0.029 0.025 0.017zm-4.444-1.022h5.543v5.216h-5.543zm-4.932 4.485h1.219c0.656 0 0.947-0.344 0.947-0.344s0.265-0.229 0.265-0.627c0-0.396-0.18-0.56-0.23-0.611-0.109-0.107-0.25-0.175-0.25-0.175s0.311-0.065 0.558-0.309c0.285-0.287 0.263-0.66 0.263-0.66s0.022-0.36-0.287-0.669c-0.381-0.381-1.071-0.363-1.071-0.363h-1.414zm-1.455-4.485h5.545v5.216h-5.545zm3.181 1.371c0.083 0.028 0.164 0.071 0.226 0.133l0.061 0.075c0.052 0.083 0.064 0.165 0.067 0.213l1e-3 0.033v0.025c-1e-3 0.019-2e-3 0.057-0.013 0.098-0.013 0.049-0.035 0.105-0.078 0.156l-0.024 0.031-0.061 0.051c-0.036 0.026-0.077 0.051-0.123 0.07-0.061 0.026-0.128 0.043-0.201 0.058-0.038 8e-3 -0.078 0.013-0.117 0.017-0.025 2e-3 -0.052 5e-3 -0.079 6e-3l-0.069 4e-3h-0.644v-1.028h0.666l0.036 3e-3c0.022 0 0.053 2e-3 0.092 4e-3 0.073 7e-3 0.167 0.02 0.26 0.051m-0.681 1.556 0.072 3e-3c0.067 6e-3 0.157 0.015 0.25 0.04l0.053 0.017c0.072 0.025 0.143 0.064 0.195 0.116 0.043 0.042 0.07 0.09 0.089 0.134 0.023 0.056 0.03 0.109 0.033 0.146 5e-3 0.035 4e-3 0.055 4e-3 0.055l-1e-3 0.041c-3e-3 0.043-0.01 0.111-0.044 0.179-0.015 0.031-0.038 0.061-0.069 0.092-0.035 0.034-0.079 0.062-0.126 0.084-0.091 0.039-0.195 0.055-0.283 0.062-0.037 2e-3 -0.071 2e-3 -0.101 2e-3h-0.445v-0.972h0.322s0.023 0 0.051 1e-3"/>
  </g>
 </g>
 <path id="path2379" d="m603.88 132.14c-9.4922 1.699-16.694 10.006-16.694 19.982 0 11.221 9.0876 20.309 20.319 20.309 10.105 0 18.482-7.3887 20.032-17.069v-6.4897c-1.3631-8.4851-7.9911-15.222-16.427-16.733h-7.2306z" fill="#f95e01" stroke-width=".9173"/>
 <path id="path3886" d="m628.98 206.51c-6.9142-4.6424-8.9885-6.8648-9.3638-14.263-0.0296-0.54326-0.13829-1.7088-1.7088-1.7088h-19.192c-0.94824 0-1.7187 0.77044-1.7187 1.7088v5.1462c0 8.5736 2.904 14.293 11.557 20.841 5.6993 4.3263 11.428 7.1908 11.428 14.51 0 5.5709-4.1387 8.9391-9.2749 8.9391-7.8625 0-11.853-4.8301-12.288-12.604l-0.15803-2.7854h-22.679c-1.8076 0-2.1138 1.3927-2.0841 2.0743 1.126 21.869 15.755 34.413 37.357 34.413 17.849 0 35.697-9.67 35.697-29.889 0-14.224-6.7068-19.35-17.572-26.383m43.52-56.094c1.4026-8.8996 7.0723-14.994 15.567-14.994 8.06 0 13.868 6.7858 14.293 14.994zm53.97 11.102c0.22718-23.795-12.91-42.374-38.404-42.374-21.651 0-39.628 16.14-39.628 38.631 0 24.634 16.278 39.056 40.191 39.056 15.764 0 30.877-6.7858 35.934-22.353 0.0691-0.22718 0.58277-1.9854-0.84947-1.9854h-21.079c-2.2619 5.3733-7.9217 8.0798-13.72 8.0798-10.194 0-15.992-6.6574-16.416-16.703h51.926c2.2521 0 2.0446-1.5804 2.0446-2.3508m-296.09-11.102c1.4026-8.8996 7.0624-14.994 15.567-14.994 8.06 0 13.868 6.7858 14.293 14.994zm15.567-31.272c-21.651 0-39.628 16.14-39.628 38.631 0 24.634 16.278 39.056 40.191 39.056 15.764 0 30.877-6.7858 35.924-22.353 0.079-0.22718 0.59265-1.9854-0.83958-1.9854h-21.079c-2.2619 5.3733-7.9217 8.0798-13.73 8.0798-10.184 0-15.982-6.6574-16.406-16.703h51.936c2.2422 0 2.0348-1.5804 2.0348-2.3508 0.22718-23.795-12.92-42.374-38.404-42.374m82.269 59.294c-11.053 0-14.717-11.171-14.717-21.217 0-9.3441 3.6645-19.676 14.717-19.676 10.46 0 14.293 9.7589 14.293 20.377 0 9.3441-2.5583 20.516-14.293 20.516m35.786-84.759h-20.624c-0.94824 0-1.7187 0.77044-1.7187 1.7187v33.751s-0.12841 0.0395-0.29633 0.0395c-4.9486-6.6475-11.883-10.045-20.94-10.045-20.802 0-30.986 18.125-30.986 37.218 0 20.664 9.7589 40.468 32.833 40.468 13.7 0 20.298-10.599 20.377-10.599 0.0691 0 0.13829 0.77044 0.13829 1.7088v5.0672c0 0.93836 0.77044 1.7088 1.7187 1.7088h19.498c0.93836 0 1.6989-0.77044 1.6989-1.7088v-97.609c0-0.94824-0.76056-1.7187-1.6989-1.7187m-165.06 0h-20.634c-0.94824 0-1.7187 0.77044-1.7187 1.7187v97.609c0 0.93836 0.77044 1.7088 1.7187 1.7088h20.634c0.93836 0 1.7088-0.77044 1.7088-1.7088v-97.609c0-0.94824-0.77044-1.7187-1.7088-1.7187m-28.724 27.598h-21.059c-0.94823 0-1.9064 0.74081-2.1335 1.6594l-11.191 44.083c-0.22719 0.91861-0.484 1.6594-0.56302 1.6594-0.0691 0-0.3062-0.75069-0.51363-1.6693l-10.006-44.063c-0.20742-0.91861-1.1458-1.6693-2.0841-1.6693h-19.498c-0.94824 0-1.8767 0.75069-2.0842 1.6693l-9.7293 44.192c-0.20742 0.92848-0.4346 1.6792-0.51362 1.6792-0.079 0-0.33584-0.75069-0.5729-1.6594l-11.458-44.231c-0.23706-0.90873-1.1952-1.6495-2.1335-1.6495h-20.911c-0.93836 0-1.4816 0.73094-1.2051 1.6298l21.898 70.179c0.28644 0.88897 1.2841 1.6298 2.2224 1.6298h20.93c0.93836 0 1.8866-0.75069 2.094-1.6693l10.678-45.486c0.20743-0.9186 0.45436-1.6693 0.53338-1.6693 0.079 0 0.32596 0.75069 0.53339 1.6693l10.816 45.486c0.2173 0.9186 1.1655 1.6693 2.1138 1.6693h20.911c0.94824 0 1.9459-0.74081 2.2224-1.6298l21.908-70.179c0.27657-0.89885-0.26669-1.6298-1.205-1.6298m-151.24 57.161c-11.171 0-14.569-11.033-14.569-20.367 0-9.3441 3.3978-20.525 14.569-20.525 11.191 0 14.717 11.181 14.717 20.525 0 9.3342-3.5263 20.367-14.717 20.367m0-59.294c-22.777 0-38.621 16.851-38.621 38.927s15.843 38.759 38.621 38.759c22.787 0 38.779-16.683 38.779-38.759s-15.992-38.927-38.779-38.927m-70.673 0c-15.587 0-23.133 12.179-23.212 12.179-0.079 0-0.13828-0.0296-0.13828-0.0296v-8.307c0-0.93836-0.77044-1.7088-1.7088-1.7088h-19.923c-0.93836 0-1.7187 0.77045-1.7187 1.7088v70.021c0 0.93836 0.78032 1.7088 1.7187 1.7088h20.624c0.93836 0 1.7187-0.77044 1.7187-1.7088v-38.344c0-8.06 3.9609-15.705 13.018-15.705 9.4725 0 12.021 4.7313 12.021 16.327v37.722c0 0.93836 0.78032 1.7088 1.7187 1.7088h20.624c0.94823 0 1.7187-0.77044 1.7187-1.7088v-45.407c0-10.628-1.9854-28.457-26.462-28.457m-93.401 14.273 36.191-38.483c0.65191-0.69143 0.40498-1.2544-0.53338-1.2544h-29.267c-0.93836 0-2.2126 0.58277-2.825 1.3038l-31.677 36.823-0.46424 0.0395v-36.448c0-0.94824-0.77044-1.7187-1.7088-1.7187h-22.906c-0.93836 0-1.7088 0.77044-1.7088 1.7187v97.609c0 0.93836 0.77044 1.7088 1.7088 1.7088h22.906c0.93836 0 1.7088-0.77044 1.7088-1.7088v-27.716c0-1.3631 0.02963-1.8076 1.1754-2.9632l9.591-10.016 26.225 40.962c0.51363 0.80007 1.6989 1.4421 2.6373 1.4421h29.267c0.93836 0 1.2742-0.63216 0.74081-1.4125z" stroke-width="9.8775"/>
</svg>
