<?xml version="1.0" encoding="UTF-8" standalone="no"?>
<svg
   xmlns:dc="http://purl.org/dc/elements/1.1/"
   xmlns:cc="http://creativecommons.org/ns#"
   xmlns:rdf="http://www.w3.org/1999/02/22-rdf-syntax-ns#"
   xmlns:svg="http://www.w3.org/2000/svg"
   xmlns="http://www.w3.org/2000/svg"
   xmlns:xlink="http://www.w3.org/1999/xlink"
   xmlns:sodipodi="http://sodipodi.sourceforge.net/DTD/sodipodi-0.dtd"
   xmlns:inkscape="http://www.inkscape.org/namespaces/inkscape"
   height="230.7"
   width="600"
   version="1.1"
   viewBox="0 0 158.75 61.038754"
   id="svg2"
   inkscape:version="0.91 r13725"
   sodipodi:docname="Bein Sports Pop-Up 1 - Dark.svg">
  <metadata
     id="metadata102">
    <rdf:RDF>
      <cc:Work
         rdf:about="">
        <dc:format>image/svg+xml</dc:format>
        <dc:type
           rdf:resource="http://purl.org/dc/dcmitype/StillImage" />
        <dc:title></dc:title>
      </cc:Work>
    </rdf:RDF>
  </metadata>
  <sodipodi:namedview
     pagecolor="#ffffff"
     bordercolor="#666666"
     borderopacity="1"
     objecttolerance="10"
     gridtolerance="10"
     guidetolerance="10"
     inkscape:pageopacity="0"
     inkscape:pageshadow="2"
     inkscape:window-width="1920"
     inkscape:window-height="1017"
     id="namedview100"
     showgrid="false"
     inkscape:zoom="0.67882251"
     inkscape:cx="237.50862"
     inkscape:cy="292.98213"
     inkscape:window-x="-8"
     inkscape:window-y="-8"
     inkscape:window-maximized="1"
     inkscape:current-layer="svg2" />
  <defs
     id="defs4">
    <linearGradient
       id="j"
       gradientUnits="userSpaceOnUse"
       gradientTransform="matrix(45.562,-26.307,26.307,45.562,127.55,39.49)"
       x1="0"
       x2="1"
       y1="0"
       y2="0">
      <stop
         stop-color="#572381"
         offset="0"
         id="stop7" />
      <stop
         stop-color="#111211"
         offset="1"
         id="stop9" />
    </linearGradient>
    <linearGradient
       id="i"
       gradientUnits="userSpaceOnUse"
       gradientTransform="matrix(35.781,-27.408,27.408,35.781,31.86,5.84)"
       x1="0"
       x2="1"
       y1="0"
       y2="0">
      <stop
         stop-color="#190031"
         offset="0"
         id="stop12" />
      <stop
         stop-color="#190031"
         offset=".0060577"
         id="stop14" />
      <stop
         stop-color="#5c2d91"
         offset="1"
         id="stop16" />
    </linearGradient>
    <linearGradient
       id="h"
       gradientUnits="userSpaceOnUse"
       gradientTransform="matrix(35.781,-27.408,27.408,35.781,48.86,28.05)"
       x1="0"
       x2="1"
       y1="0"
       y2="0">
      <stop
         stop-color="#190031"
         offset="0"
         id="stop19" />
      <stop
         stop-color="#190031"
         offset=".0060577"
         id="stop21" />
      <stop
         stop-color="#5c2d91"
         offset="1"
         id="stop23" />
    </linearGradient>
    <linearGradient
       id="g"
       gradientUnits="userSpaceOnUse"
       gradientTransform="matrix(35.781,-27.409,27.409,35.781,56.74,38.32)"
       x1="0"
       x2="1"
       y1="0"
       y2="0">
      <stop
         stop-color="#190031"
         offset="0"
         id="stop26" />
      <stop
         stop-color="#190031"
         offset=".0060577"
         id="stop28" />
      <stop
         stop-color="#5c2d91"
         offset="1"
         id="stop30" />
    </linearGradient>
    <linearGradient
       id="f"
       gradientUnits="userSpaceOnUse"
       gradientTransform="matrix(35.781,-27.408,27.408,35.781,67.15,51.91)"
       x1="0"
       x2="1"
       y1="0"
       y2="0">
      <stop
         stop-color="#190031"
         offset="0"
         id="stop33" />
      <stop
         stop-color="#190031"
         offset=".0060577"
         id="stop35" />
      <stop
         stop-color="#5c2d91"
         offset="1"
         id="stop37" />
    </linearGradient>
    <linearGradient
       id="e"
       gradientUnits="userSpaceOnUse"
       gradientTransform="matrix(35.781,-27.408,27.408,35.781,60.08,56.7)"
       x1="0"
       x2="1"
       y1="0"
       y2="0">
      <stop
         stop-color="#190031"
         offset="0"
         id="stop40" />
      <stop
         stop-color="#190031"
         offset=".0060577"
         id="stop42" />
      <stop
         stop-color="#5c2d91"
         offset="1"
         id="stop44" />
    </linearGradient>
    <linearGradient
       id="d"
       gradientUnits="userSpaceOnUse"
       gradientTransform="matrix(35.781,-27.408,27.408,35.781,66.31,64.83)"
       x1="0"
       x2="1"
       y1="0"
       y2="0">
      <stop
         stop-color="#190031"
         offset="0"
         id="stop47" />
      <stop
         stop-color="#190031"
         offset=".0060577"
         id="stop49" />
      <stop
         stop-color="#5c2d91"
         offset="1"
         id="stop51" />
    </linearGradient>
    <linearGradient
       id="c"
       gradientUnits="userSpaceOnUse"
       gradientTransform="matrix(35.781,-27.408,27.408,35.781,74.66,75.74)"
       x1="0"
       x2="1"
       y1="0"
       y2="0">
      <stop
         stop-color="#190031"
         offset="0"
         id="stop54" />
      <stop
         stop-color="#190031"
         offset=".0060577"
         id="stop56" />
      <stop
         stop-color="#5c2d91"
         offset="1"
         id="stop58" />
    </linearGradient>
    <linearGradient
       id="b"
       gradientUnits="userSpaceOnUse"
       gradientTransform="matrix(35.781,-27.408,27.408,35.781,56.7,52.28)"
       x1="0"
       x2="1"
       y1="0"
       y2="0">
      <stop
         stop-color="#190031"
         offset="0"
         id="stop61" />
      <stop
         stop-color="#190031"
         offset=".0060577"
         id="stop63" />
      <stop
         stop-color="#5c2d91"
         offset="1"
         id="stop65" />
    </linearGradient>
    <linearGradient
       id="a"
       gradientUnits="userSpaceOnUse"
       gradientTransform="matrix(35.781,-27.408,27.408,35.781,71.88,72.1)"
       x1="0"
       x2="1"
       y1="0"
       y2="0">
      <stop
         stop-color="#190031"
         offset="0"
         id="stop68" />
      <stop
         stop-color="#190031"
         offset=".0060577"
         id="stop70" />
      <stop
         stop-color="#5c2d91"
         offset="1"
         id="stop72" />
    </linearGradient>
    <linearGradient
       inkscape:collect="always"
       xlink:href="#j"
       id="linearGradient4310"
       x1="270.2843"
       y1="436.09109"
       x2="321.20731"
       y2="436.09109"
       gradientUnits="userSpaceOnUse" />
    <linearGradient
       inkscape:collect="always"
       xlink:href="#j"
       id="linearGradient4312"
       gradientUnits="userSpaceOnUse"
       x1="270.2843"
       y1="436.09109"
       x2="321.20731"
       y2="436.09109" />
    <linearGradient
       inkscape:collect="always"
       xlink:href="#j"
       id="linearGradient4314"
       gradientUnits="userSpaceOnUse"
       x1="270.2843"
       y1="436.09109"
       x2="321.20731"
       y2="436.09109" />
    <linearGradient
       inkscape:collect="always"
       xlink:href="#j"
       id="linearGradient4316"
       gradientUnits="userSpaceOnUse"
       x1="270.2843"
       y1="436.09109"
       x2="321.20731"
       y2="436.09109" />
    <linearGradient
       inkscape:collect="always"
       xlink:href="#j"
       id="linearGradient4318"
       gradientUnits="userSpaceOnUse"
       x1="270.2843"
       y1="436.09109"
       x2="321.20731"
       y2="436.09109" />
    <linearGradient
       inkscape:collect="always"
       xlink:href="#j"
       id="linearGradient4320"
       gradientUnits="userSpaceOnUse"
       x1="270.2843"
       y1="436.09109"
       x2="321.20731"
       y2="436.09109" />
    <linearGradient
       inkscape:collect="always"
       xlink:href="#j"
       id="linearGradient4322"
       gradientUnits="userSpaceOnUse"
       x1="270.2843"
       y1="436.09109"
       x2="321.20731"
       y2="436.09109" />
  </defs>
  <path
     d="m 0.007,1.18 c 0,0 -0.007,18 -0.007,26.18 0,8.18 6.76,15.87 16.32,15.87 9.56,0 16.32,-8.18 16.32,-16.47 0,-8.29 -6.59,-16.24 -16.32,-16.24 -9.74,0 -13.964,7.68 -13.964,7.68 l 0,-17.02 C 2.356,0.53 1.831,0 1.181,0 0.532,0 0.007,0.53 0.007,1.18 m 2.397,25.58 c 0,-7.7 6.216,-13.95 13.876,-13.95 7.66,0 13.88,6.25 13.88,13.95 0,7.71 -6.22,13.96 -13.88,13.96 -7.66,0 -13.876,-6.25 -13.876,-13.96"
     id="path78"
     style="fill:url(#i);stroke-width:0.28827"
     inkscape:connector-curvature="0" />
  <path
     d="m 34.14,26.8 c 0,9.03 7.32,16.36 16.36,16.36 5.88,0 11.04,-3.11 13.92,-7.77 0.37,-0.56 0.21,-1.32 -0.35,-1.69 -0.56,-0.37 -1.33,-0.22 -1.7,0.34 -2.44,4 -6.85,6.66 -11.87,6.66 -7.69,0 -13.91,-6.22 -13.91,-13.9 0,-7.68 6.22,-13.91 13.91,-13.91 7.25,0 13.2,5.55 13.84,12.64 l -16.2,0 c -0.68,0 -1.22,0.55 -1.22,1.23 0,0.68 0.55,1.24 1.24,1.24 l 17.46,0 c 0.92,0 1.23,-0.65 1.23,-1.2 0,-9.03 -7.32,-16.36 -16.35,-16.36 -9.04,0 -16.36,7.33 -16.36,16.36"
     id="path80"
     style="fill:url(#h);stroke-width:0.28827"
     inkscape:connector-curvature="0" />
  <path
     d="m 71.54,10.42 0.01,0 z m 0,0 c -1.58,0.01 -2.78,1.25 -2.87,2.38 l 0,28.37 c 0.09,1.13 1.29,2.38 2.87,2.38 1.59,0 2.79,-1.25 2.88,-2.38 l 0,-28.37 c -0.09,-1.13 -1.29,-2.37 -2.88,-2.38 z m 0,33.13 0.01,0 -0.01,0"
     id="path82"
     style="fill:url(#g);stroke-width:0.28827"
     inkscape:connector-curvature="0" />
  <path
     d="m 119.5,10.45 0.01,0 z m 0,0 c -1.56,0 -2.74,1.25 -2.82,2.36 l 0,20.9 c 0,0.76 -0.48,2.65 -2.28,3.51 -3.89,1.85 -5.88,-1.7 -5.88,-1.7 L 95.57,15.17 c -1.49,-2.6 -6.1,-6.32 -12.38,-3.98 -6.04,2.48 -6.12,8.77 -6.12,8.77 l 0,21.21 c 0.09,1.13 1.29,2.25 2.87,2.25 1.59,0 2.81,-1.27 2.81,-2.58 l 0,-20.3 c 0,0 -0.29,-4 4.31,-4.41 2.69,-0.16 4.02,2.63 4.02,2.63 0,0 11.77,18.57 12.97,20.42 1.19,1.85 6.02,6.01 12.3,3.45 6.35,-2.58 5.98,-8.94 5.98,-8.94 l 0,-20.89 c -0.09,-1.11 -1.27,-2.35 -2.83,-2.35 z m -39.56,32.97 0.01,0 z"
     id="path84"
     style="fill:url(#f);stroke-width:0.28827"
     inkscape:connector-curvature="0" />
  <path
     d="m 62.58,50.52 0.01,9.66 c 0,0.46 0.38,0.83 0.84,0.83 0.46,0 0.84,-0.37 0.84,-0.83 l 0,-4.25 3.71,0 c 2.99,0 5.41,-2.43 5.41,-5.42 0,-2.99 -2.42,-5.42 -5.41,-5.42 -3.31,0 -5.4,2.34 -5.4,5.43 m 1.68,-0.01 c 0,-2.17 1.38,-3.8 3.7,-3.8 2.09,0 3.79,1.7 3.79,3.79 0,2.1 -1.7,3.78 -3.79,3.78 l -3.69,0 z"
     id="path86"
     style="fill:url(#e);stroke-width:0.28827"
     inkscape:connector-curvature="0" />
  <path
     d="m 73.69,53.05 c 0,4.41 3.59,7.99 7.99,7.99 4.41,0 7.99,-3.58 7.99,-7.99 0,-4.4 -3.58,-7.99 -7.99,-7.99 -4.4,0 -7.99,3.59 -7.99,7.99 m 1.79,0 c 0,-3.42 2.79,-6.2 6.2,-6.2 3.42,0 6.2,2.78 6.2,6.2 0,3.42 -2.78,6.2 -6.2,6.2 -3.41,0 -6.2,-2.78 -6.2,-6.2"
     id="path88"
     style="fill:url(#d);stroke-width:0.28827"
     inkscape:connector-curvature="0" />
  <path
     d="m 101.78,45.66 c -0.49,0 -0.89,0.39 -0.89,0.86 0,0.48 0.4,0.86 0.89,0.86 l 3.55,0 0,12.65 c 0,0.48 0.39,0.88 0.86,0.88 0.47,0 0.86,-0.4 0.86,-0.88 l 0,-12.65 3.5,0 c 0.5,0 0.9,-0.38 0.9,-0.86 0,-0.47 -0.4,-0.86 -0.9,-0.86 z"
     id="path90"
     style="fill:url(#c);stroke-width:0.28827"
     inkscape:connector-curvature="0" />
  <path
     d="m 55.71,45.07 c -4.29,0 -5.21,3.15 -5.21,4.78 0,1.62 1.29,3.81 5.25,3.81 3.96,0 3.79,2.35 3.79,2.44 0,0.09 0.22,3.09 -3.78,3.07 -3.27,0 -3.65,-2.51 -3.61,-3.28 0,-0.45 -0.37,-0.81 -0.82,-0.81 -0.46,0 -0.83,0.36 -0.83,0.81 -0.07,2.74 2.09,4.94 5.23,4.94 3.95,0 5.48,-2.43 5.48,-4.71 0,-2.27 -1.81,-4.13 -5.46,-4.13 -3.67,0 -3.63,-2.1 -3.63,-2.1 0,0 -0.23,-3.21 3.63,-3.21 3.87,0 3.57,3.5 3.57,3.5 0,0.45 0.37,0.8 0.82,0.8 0.44,0 0.81,-0.35 0.81,-0.8 0,-5.01 -4.82,-5.11 -5.21,-5.11 l -0.03,0"
     id="path92"
     style="fill:url(#b);stroke-width:0.28827"
     inkscape:connector-curvature="0" />
  <path
     d="m 90.48,50.52 0,9.66 c 0,0.46 0.38,0.83 0.85,0.83 0.46,0 0.83,-0.37 0.83,-0.83 l 0,-4.25 3.64,0 2.84,4.62 c 0.23,0.4 0.75,0.55 1.16,0.31 0.4,-0.23 0.55,-0.75 0.31,-1.16 l -2.48,-4.07 c 2.13,-0.73 3.66,-2.74 3.66,-5.12 0,-2.99 -2.42,-5.42 -5.41,-5.42 -3.31,0 -5.4,2.34 -5.4,5.43 m 1.68,-0.01 c 0,-2.17 1.38,-3.8 3.7,-3.8 2.09,0 3.78,1.7 3.78,3.79 0,2.1 -1.69,3.78 -3.78,3.78 l -3.7,0 z"
     id="path94"
     style="fill:url(#a);stroke-width:0.28827"
     inkscape:connector-curvature="0" />
  <path
     d="m 120.41,50.29 c 0,0 0.3,-3.5 -3.57,-3.5 -3.86,0 -3.63,3.21 -3.63,3.21 0,0 -0.04,2.1 3.62,2.1 3.66,0 5.46,1.85 5.46,4.13 0,2.28 -1.52,4.71 -5.47,4.71 -3.14,0 -5.3,-2.2 -5.23,-4.94 0,-0.45 0.37,-0.81 0.82,-0.81 0.46,0 0.83,0.36 0.83,0.81 -0.04,0.77 0.34,3.27 3.61,3.28 4,0.01 3.78,-2.97 3.78,-3.07 0,-0.09 0.17,-2.44 -3.79,-2.44 -3.96,0 -5.26,-2.19 -5.26,-3.81 0,-1.63 0.93,-4.79 5.22,-4.79 0,0 5.23,-0.11 5.23,5.12 0,0.44 -0.36,0.8 -0.81,0.8 -0.45,0 -0.81,-0.36 -0.81,-0.8"
     id="path96"
     inkscape:connector-curvature="0"
     style="fill:#512c80;stroke-width:0.28827" />
  <path
     inkscape:connector-curvature="0"
     style="fill:url(#j);stroke-width:0.28819001"
     id="path98"
     d="m 128.25,10.489889 c -2.36,0.06 -2.38,2.380111 -2.38,2.380111 l -0.03,19.58 c 0,3.12 0.72,5.36 1.78,6.96 1,1.39 2.35,2.51 3.92,3.21 1.78,0.74 3.48,0.83 4.26,0.82 0.29,0 0.45,-0.01 0.45,-0.01 l 20.52,0 c 2.08,0 1.98,-2.24 1.98,-2.24 l 0,-28.47 c 0,-1.96 -1.76,-2.2 -2.01,-2.23 l -0.2,0 z m 10.87,4.160111 5.37,0 c 0,0 2.64,0.21 2.64,3.84 l 0,20.56 -4.29,0 0,-19.88 -5.38,0 z"
     sodipodi:nodetypes="cccccccscscccccsccccc" />
  <g
     id="g4314"
     transform="matrix(0.6462768,0,0,0.64627684,-48.838415,-276.42013)"
     style="fill:url(#linearGradient4310);fill-opacity:1">
    <path
       d="m 273.70181,435.7676 c 0.18625,0 0.36125,-0.0375 0.52375,-0.11 0.16125,-0.0738 0.30125,-0.175 0.41875,-0.3025 0.11875,-0.1275 0.21125,-0.2725 0.28,-0.435 0.0688,-0.16125 0.10375,-0.33125 0.10375,-0.5075 0,-0.35375 -0.12625,-0.665 -0.37625,-0.93625 -0.25,-0.26875 -0.56625,-0.405 -0.95,-0.405 l -1.06,0 0,2.69625 1.06,0 z m -3.4175,-4.905 3.44625,0 c 0.51125,0 0.985,0.0937 1.4225,0.28 0.43625,0.18625 0.815,0.43875 1.13375,0.75875 0.32,0.31875 0.57,0.69375 0.75125,1.12625 0.1825,0.4325 0.2725,0.89375 0.2725,1.385 0,0.49125 -0.09,0.9525 -0.2725,1.38375 -0.18125,0.4325 -0.43125,0.80875 -0.75125,1.1275 -0.31875,0.31875 -0.6975,0.5725 -1.13375,0.75875 -0.4375,0.18625 -0.91125,0.28 -1.4225,0.28 l -1.08875,0 0,3.35875 -2.3575,0 0,-10.45875 z"
       style="fill:url(#linearGradient4312);fill-opacity:1;fill-rule:nonzero;stroke:none"
       id="path72756"
       inkscape:connector-curvature="0" />
    <path
       d="m 283.35044,439.17022 c 0.4225,0 0.815,-0.0812 1.17875,-0.24375 0.3625,-0.16125 0.6775,-0.3825 0.9425,-0.6625 0.265,-0.27875 0.47375,-0.60625 0.62625,-0.97875 0.15125,-0.37375 0.2275,-0.77125 0.2275,-1.19375 0,-0.4225 -0.0763,-0.82 -0.2275,-1.1925 -0.1525,-0.37375 -0.36125,-0.7 -0.62625,-0.98 -0.265,-0.28 -0.58,-0.50125 -0.9425,-0.6625 -0.36375,-0.1625 -0.75625,-0.24375 -1.17875,-0.24375 -0.4225,0 -0.815,0.0813 -1.17875,0.24375 -0.36375,0.16125 -0.6775,0.3825 -0.9425,0.6625 -0.265,0.28 -0.47375,0.60625 -0.62625,0.98 -0.1525,0.3725 -0.22875,0.77 -0.22875,1.1925 0,0.4225 0.0763,0.82 0.22875,1.19375 0.1525,0.3725 0.36125,0.7 0.62625,0.97875 0.265,0.28 0.57875,0.50125 0.9425,0.6625 0.36375,0.1625 0.75625,0.24375 1.17875,0.24375 m 0,2.2675 c -0.73625,0 -1.42875,-0.13875 -2.0775,-0.41875 -0.6475,-0.28 -1.215,-0.66375 -1.70125,-1.14875 -0.485,-0.48625 -0.86875,-1.05375 -1.14875,-1.70125 -0.28,-0.64875 -0.42,-1.34125 -0.42,-2.0775 0,-0.73625 0.14,-1.42875 0.42,-2.0775 0.28,-0.6475 0.66375,-1.215 1.14875,-1.7 0.48625,-0.48625 1.05375,-0.87 1.70125,-1.15 0.64875,-0.28 1.34125,-0.42 2.0775,-0.42 0.73625,0 1.42875,0.14 2.0775,0.42 0.6475,0.28 1.215,0.66375 1.7,1.15 0.48625,0.485 0.87,1.0525 1.15,1.7 0.27875,0.64875 0.42,1.34125 0.42,2.0775 0,0.73625 -0.14125,1.42875 -0.42,2.0775 -0.28,0.6475 -0.66375,1.215 -1.15,1.70125 -0.485,0.485 -1.0525,0.86875 -1.7,1.14875 -0.64875,0.28 -1.34125,0.41875 -2.0775,0.41875"
       style="fill:url(#linearGradient4314);fill-opacity:1;fill-rule:nonzero;stroke:none"
       id="path72760"
       inkscape:connector-curvature="0" />
    <path
       d="m 293.60219,435.7676 c 0.18625,0 0.36125,-0.0375 0.52375,-0.11 0.16125,-0.0738 0.30125,-0.175 0.41875,-0.3025 0.11875,-0.1275 0.21125,-0.2725 0.28,-0.435 0.0688,-0.16125 0.10375,-0.33125 0.10375,-0.5075 0,-0.35375 -0.12625,-0.665 -0.37625,-0.93625 -0.25,-0.26875 -0.5675,-0.405 -0.95,-0.405 l -1.06,0 0,2.69625 1.06,0 z m -3.4175,-4.905 3.44625,0 c 0.51125,0 0.985,0.0937 1.4225,0.28 0.43625,0.18625 0.815,0.43875 1.13375,0.75875 0.32,0.31875 0.57,0.69375 0.75125,1.12625 0.18125,0.4325 0.2725,0.89375 0.2725,1.385 0,0.49125 -0.0913,0.9525 -0.2725,1.38375 -0.18125,0.4325 -0.43125,0.80875 -0.75125,1.1275 -0.31875,0.31875 -0.6975,0.5725 -1.13375,0.75875 -0.4375,0.18625 -0.91125,0.28 -1.4225,0.28 l -1.08875,0 0,3.35875 -2.3575,0 0,-10.45875 z"
       style="fill:url(#linearGradient4316);fill-opacity:1;fill-rule:nonzero;stroke:none"
       id="path72764"
       inkscape:connector-curvature="0" />
    <path
       inkscape:connector-curvature="0"
       id="path72766"
       style="fill:url(#linearGradient4318);fill-opacity:1;fill-rule:nonzero;stroke:none"
       d="m 298.03619,436.1061 4.1825,0 0,2.12125 -4.1825,0 0,-2.12125 z" />
    <path
       d="m 308.02319,441.43822 c -0.62875,0 -1.205,-0.10375 -1.73125,-0.30875 -0.525,-0.20625 -0.97625,-0.50125 -1.35375,-0.88375 -0.37875,-0.38375 -0.67375,-0.84125 -0.885,-1.3775 -0.21125,-0.535 -0.31625,-1.13125 -0.31625,-1.79 l 0,-6.21625 2.35625,0 0,6.24625 c 0,0.6375 0.1775,1.14125 0.53,1.50875 0.35375,0.36875 0.82,0.55375 1.4,0.55375 0.57875,0 1.04625,-0.185 1.39875,-0.55375 0.35375,-0.3675 0.53125,-0.87125 0.53125,-1.50875 l 0,-6.24625 2.35625,0 0,6.21625 c 0,0.65875 -0.105,1.255 -0.31625,1.79 -0.2125,0.53625 -0.50625,0.99375 -0.885,1.3775 -0.3775,0.3825 -0.82875,0.6775 -1.35375,0.88375 -0.525,0.205 -1.1025,0.30875 -1.73125,0.30875"
       style="fill:url(#linearGradient4320);fill-opacity:1;fill-rule:nonzero;stroke:none"
       id="path72770"
       inkscape:connector-curvature="0" />
    <path
       d="m 317.59731,435.7676 c 0.1875,0 0.36125,-0.0375 0.5225,-0.11 0.16375,-0.0738 0.3025,-0.175 0.42125,-0.3025 0.1175,-0.1275 0.21125,-0.2725 0.27875,-0.435 0.0687,-0.16125 0.10375,-0.33125 0.10375,-0.5075 0,-0.35375 -0.125,-0.665 -0.37625,-0.93625 -0.25,-0.26875 -0.56625,-0.405 -0.95,-0.405 l -1.06125,0 0,2.69625 1.06125,0 z m -3.4175,-4.905 3.4475,0 c 0.51125,0 0.98375,0.0937 1.42,0.28 0.43875,0.18625 0.81625,0.43875 1.13625,0.75875 0.31875,0.31875 0.56875,0.69375 0.75,1.12625 0.1825,0.4325 0.27375,0.89375 0.27375,1.385 0,0.49125 -0.0913,0.9525 -0.27375,1.38375 -0.18125,0.4325 -0.43125,0.80875 -0.75,1.1275 -0.32,0.31875 -0.6975,0.5725 -1.13625,0.75875 -0.43625,0.18625 -0.90875,0.28 -1.42,0.28 l -1.09125,0 0,3.35875 -2.35625,0 0,-10.45875 z"
       style="fill:url(#linearGradient4322);fill-opacity:1;fill-rule:nonzero;stroke:none"
       id="path72774"
       inkscape:connector-curvature="0" />
  </g>
</svg>
