<svg width="850.77" height="500" version="1.1" viewBox="0 0 225.1 132.29" xmlns="http://www.w3.org/2000/svg">
 <defs>
  <clipPath id="b">
   <rect class="cls-1" width="255.23" height="150"/>
  </clipPath>
  <clipPath id="a">
   <rect class="cls-1" width="255.23" height="150"/>
  </clipPath>
 </defs>
 <g class="cls-2" transform="scale(.88194)" clip-path="url(#b)">
  <path class="cls-3" d="m176.85 74.24h59.5a18.46 18.46 0 0 0 18.88-18.12v-53.34h-59.53a18.46 18.46 0 0 0-18.89 18.12v53.34z" fill="#5d2e8f"/>
  <path class="cls-4" d="m224.5 24c0-4.23-2.15-6.85-5.6-6.85h-8.34l-3 7.86h9.44v34.85h7.51z" fill="#fff"/>
 </g>
 <path class="cls-3" d="m0-3.962e-5v132.29h116.51c10.048 0.14544 19.708-3.8737 26.688-11.104 6.1874-6.434 9.6908-14.983 9.7984-23.909v-97.278z" fill="#5d2e8f" stroke-width=".88194"/>
 <path class="cls-4" d="m22.26 95.249c-2.196 0-3.7835-0.46743-4.7096-1.4023a2.5223 2.5223 0 0 1-0.78493-1.6933 4.7801 4.7801 0 0 1 1.173-3.2896 5.6444 5.6444 0 0 1 4.3303-1.5522 5.4416 5.4416 0 0 1 4.1892 1.5081 5.4945 5.4945 0 0 1 1.2347 3.7835 1.5875 1.5875 0 1 0 3.175 0c0-8.3255-8.2285-8.4225-8.5636-8.4225-8.352 0-8.5901 7.0555-8.5901 7.9375 0 2.3548 1.8168 6.3411 8.6607 6.3411 2.3107 0 3.9599 0.49389 4.9124 1.4817a2.981 2.981 0 0 1 0.88194 2.1696 4.3391 4.3391 0 0 1-1.1465 3.0692c-0.97895 1.0054-2.5135 1.5169-4.5684 1.5169a5.5386 5.5386 0 0 1-4.2333-1.5434 4.8948 4.8948 0 0 1-1.2612-3.4219 1.5875 1.5875 0 0 0-3.175 0 7.7346 7.7346 0 0 0 2.1696 5.618 8.89 8.89 0 0 0 6.447 2.54c6.6498 0 9.0046-4.1892 9.0046-7.7699 0-4.1628-3.5278-6.8527-9.0134-6.8527m107.22 0c-2.196 0-3.7835-0.46743-4.7096-1.4023a2.5753 2.5753 0 0 1-0.79374-1.6933 4.7889 4.7889 0 0 1 1.1818-3.2896 5.6444 5.6444 0 0 1 4.198-1.5699 5.4328 5.4328 0 0 1 4.1716 1.5169 5.4945 5.4945 0 0 1 1.2788 3.7747 1.5699 1.5699 0 1 0 3.1309 0c0-8.3255-8.2285-8.4225-8.5636-8.4225h-0.0441c-8.352 0-8.5901 7.0555-8.5901 7.9375 0 2.3548 1.8168 6.3411 8.6695 6.3411 2.293 0 3.9511 0.49389 4.9036 1.4905a2.9545 2.9545 0 0 1 0.88194 2.1607 4.3215 4.3215 0 0 1-1.1465 3.078c-0.97013 1.0054-2.5135 1.5169-4.5684 1.5169a5.5474 5.5474 0 0 1-4.2333-1.5434 4.9212 4.9212 0 0 1-1.2524-3.4219 1.5875 1.5875 0 0 0-3.175 0 7.6905 7.6905 0 0 0 2.1608 5.618 8.8988 8.8988 0 0 0 6.4558 2.54c6.641 0 8.9958-4.1892 8.9958-7.7699 0-4.1716-3.5278-6.8615-8.9958-6.8615m-86.43-11.086a8.2461 8.2461 0 0 0-8.5989 8.6254v14.993a1.6051 1.6051 0 0 0 3.2103 0v-6.3764h5.3887a8.6254 8.6254 0 0 0 0-17.242m0 14.111h-5.3798v-5.4592a5.1505 5.1505 0 0 1 5.3622-5.5209 5.4857 5.4857 0 0 1 0.30868 10.963h-0.32632zm23.892-14.111a12.841 12.841 0 1 0 12.868 12.832 12.832 12.832 0 0 0-12.868-12.832m0 22.534a9.7013 9.7013 0 1 1 9.7013-9.7013 9.7013 9.7013 0 0 1-9.7013 9.7013m27.137-5.8384a8.6607 8.6607 0 0 0-3.1838-16.757 8.3079 8.3079 0 0 0-8.6695 8.6606v14.905a1.614 1.614 0 0 0 3.2279 0v-6.2265h5.1241l4.2598 6.9673a1.6316 1.6316 0 1 0 2.8928-1.4993 0.56444 0.56444 0 0 0-0.07055-0.12348zm-8.5989-2.5576v-5.4945c0-3.3161 2.1696-5.5386 5.3975-5.5386a5.5209 5.5209 0 0 1 0.29104 11.033h-5.6532zm33.496-12.03a1.6051 1.6051 0 0 1-1.6051 1.6051h-5.5739v19.861a1.614 1.614 0 0 1-3.2279 0v-19.861h-5.5739a1.614 1.614 0 1 1 0-3.2191h14.376a1.6051 1.6051 0 0 1 1.6051 1.6051z" fill="#fff" stroke-width=".88194"/>
 <g class="cls-2" transform="matrix(.88194 0 0 .88194 0 -3.962e-5)" clip-path="url(#a)">
  <path class="cls-3" d="M 171.51,74.25 H 2 V 2 h 169.51 z" fill="#fff"/>
  <path class="cls-3" d="m34.08 24.73a18.74 18.74 0 0 0-15.08 7.53v-18.32a1.77 1.77 0 0 0-3.54 0v30.06a18.41 18.41 0 0 0 18.62 18.08c11.15 0 18.64-9.72 18.64-18.8 0-11.46-9.68-18.55-18.64-18.55m0 33.62a15.07 15.07 0 1 1 14.92-15.15v0.08a15.05 15.05 0 0 1-15 15.07m58.24-14.94a1.73 1.73 0 0 1-1.66 1.79h-19.58a1.84 1.84 0 0 1-1.75-1.93 1.86 1.86 0 0 1 1.75-1.76h17.47a15 15 0 1 0-2.07 9.7 1.81 1.81 0 0 1 1.17-0.79 1.75 1.75 0 0 1 1.37 0.28 1.83 1.83 0 0 1 0.53 2.52 18.69 18.69 0 1 1 2.78-9.83zm10.43 15.65a3.63 3.63 0 0 1-7.15 0v-31.21a3.63 3.63 0 0 1 7.15 0zm47.44 2a12.76 12.76 0 0 1-4.87 1 11.58 11.58 0 0 1-9.24-4.78c-1.34-2-13.88-21.83-14.41-22.71 0-0.07-1.4-2.88-4.08-2.73-4.65 0.42-4.43 4.31-4.43 4.47v22.49a3.59 3.59 0 0 1-7.1 0.4v-23.49c0-0.08 0.17-7.29 7-10.12a11.58 11.58 0 0 1 14.25 4.59l14.35 22.6a4.49 4.49 0 0 0 6 1.52 4.24 4.24 0 0 0 2.3-3.53v-23a3.58 3.58 0 0 1 3.54-3 3.53 3.53 0 0 1 3.54 3v23a10.91 10.91 0 0 1-6.87 10.31z" fill="#5d2e8f"/>
 </g>
</svg>
