<?xml version="1.0" encoding="UTF-8"?>
<svg id="svg897" width="887.98" height="500" version="1.1" viewBox="0 0 234.95 132.29" xmlns="http://www.w3.org/2000/svg" xmlns:cc="http://creativecommons.org/ns#" xmlns:dc="http://purl.org/dc/elements/1.1/" xmlns:rdf="http://www.w3.org/1999/02/22-rdf-syntax-ns#">
 <metadata id="metadata894">
  <rdf:RDF>
   <cc:Work rdf:about="">
    <dc:format>image/svg+xml</dc:format>
    <dc:type rdf:resource="http://purl.org/dc/dcmitype/StillImage"/>
    <dc:title/>
   </cc:Work>
  </rdf:RDF>
 </metadata>
 <g id="g864" stroke-width=".88194">
  <path id="path17-3" class="cls-3" d="m0-0.0015803v132.29h116.51c10.048 0.14544 19.708-3.8738 26.688-11.104 6.1874-6.434 9.6908-14.983 9.7984-23.909v-97.278z" fill="#5d2e8f"/>
  <path id="path21-4" class="cls-4" d="m22.26 95.248c-2.196 0-3.7835-0.46743-4.7096-1.4023a2.5223 2.5223 0 0 1-0.78493-1.6933 4.7801 4.7801 0 0 1 1.173-3.2896 5.6444 5.6444 0 0 1 4.3303-1.5522 5.4416 5.4416 0 0 1 4.1892 1.5081 5.4945 5.4945 0 0 1 1.2347 3.7835 1.5875 1.5875 0 1 0 3.175 0c0-8.3255-8.2285-8.4225-8.5636-8.4225-8.352 0-8.5901 7.0555-8.5901 7.9375 0 2.3548 1.8168 6.3411 8.6607 6.3411 2.3107 0 3.9599 0.49389 4.9124 1.4817a2.981 2.981 0 0 1 0.88194 2.1696 4.3391 4.3391 0 0 1-1.1465 3.0692c-0.97895 1.0054-2.5135 1.5169-4.5684 1.5169a5.5386 5.5386 0 0 1-4.2333-1.5434 4.8948 4.8948 0 0 1-1.2612-3.4219 1.5875 1.5875 0 0 0-3.175 0 7.7346 7.7346 0 0 0 2.1696 5.618 8.89 8.89 0 0 0 6.447 2.54c6.6498 0 9.0046-4.1892 9.0046-7.7699 0-4.1628-3.5278-6.8527-9.0134-6.8527m107.22 0c-2.196 0-3.7835-0.46743-4.7096-1.4023a2.5753 2.5753 0 0 1-0.79374-1.6933 4.7889 4.7889 0 0 1 1.1818-3.2896 5.6444 5.6444 0 0 1 4.198-1.5699 5.4328 5.4328 0 0 1 4.1716 1.5169 5.4945 5.4945 0 0 1 1.2788 3.7747 1.5699 1.5699 0 1 0 3.1309 0c0-8.3255-8.2285-8.4225-8.5636-8.4225h-0.0441c-8.352 0-8.5901 7.0555-8.5901 7.9375 0 2.3548 1.8168 6.3411 8.6695 6.3411 2.293 0 3.9511 0.49389 4.9036 1.4905a2.9545 2.9545 0 0 1 0.88194 2.1608 4.3215 4.3215 0 0 1-1.1465 3.078c-0.97013 1.0054-2.5135 1.5169-4.5684 1.5169a5.5474 5.5474 0 0 1-4.2333-1.5434 4.9212 4.9212 0 0 1-1.2524-3.4219 1.5875 1.5875 0 0 0-3.175 0 7.6905 7.6905 0 0 0 2.1608 5.618 8.8988 8.8988 0 0 0 6.4558 2.54c6.641 0 8.9958-4.1892 8.9958-7.7699 0-4.1716-3.5278-6.8615-8.9958-6.8615m-86.43-11.086a8.2461 8.2461 0 0 0-8.5989 8.6254v14.993a1.6051 1.6051 0 0 0 3.2103 0v-6.3764h5.3887a8.6254 8.6254 0 0 0 0-17.242m0 14.111h-5.3798v-5.4592a5.1505 5.1505 0 0 1 5.3622-5.5209 5.4857 5.4857 0 0 1 0.30868 10.963h-0.32632zm23.892-14.111a12.841 12.841 0 1 0 12.868 12.832 12.832 12.832 0 0 0-12.868-12.832m0 22.534a9.7013 9.7013 0 1 1 9.7013-9.7013 9.7013 9.7013 0 0 1-9.7013 9.7013m27.137-5.8384a8.6607 8.6607 0 0 0-3.1838-16.757 8.3079 8.3079 0 0 0-8.6695 8.6607v14.905a1.614 1.614 0 0 0 3.2279 0v-6.2265h5.1241l4.2598 6.9673a1.6316 1.6316 0 1 0 2.8928-1.4993 0.56444 0.56444 0 0 0-0.07055-0.12348zm-8.5989-2.5576v-5.4945c0-3.3161 2.1696-5.5386 5.3975-5.5386a5.5209 5.5209 0 0 1 0.29104 11.033h-5.6532zm33.496-12.03a1.6051 1.6051 0 0 1-1.6051 1.6051h-5.5739v19.861a1.614 1.614 0 0 1-3.2279 0v-19.861h-5.5739a1.614 1.614 0 1 1 0-3.2191h14.376a1.6051 1.6051 0 0 1 1.6051 1.6051z" fill="#fff"/>
  <path id="path17-1" class="cls-3" d="m151.26 65.482h-149.5v-63.72h149.5z" fill="#fff"/>
  <path id="path19-9" class="cls-3" d="m30.057 21.809a16.528 16.528 0 0 0-13.3 6.641v-16.157a1.561 1.561 0 0 0-3.1221 0v26.511a16.237 16.237 0 0 0 16.422 15.945c9.8336 0 16.439-8.5725 16.439-16.58 0-10.107-8.5372-16.36-16.439-16.36m0 29.651a13.291 13.291 0 1 1 13.159-13.361v0.07055a13.273 13.273 0 0 1-13.229 13.291m51.364-13.176a1.5258 1.5258 0 0 1-1.464 1.5787h-17.268a1.6228 1.6228 0 0 1-1.5434-1.7021 1.6404 1.6404 0 0 1 1.5434-1.5522h15.407a13.229 13.229 0 1 0-1.8256 8.5548 1.5963 1.5963 0 0 1 1.0319-0.69673 1.5434 1.5434 0 0 1 1.2083 0.24694 1.614 1.614 0 0 1 0.46743 2.2225 16.483 16.483 0 1 1 2.4518-8.6695zm9.1986 13.802a3.2014 3.2014 0 0 1-6.3059 0v-27.525a3.2014 3.2014 0 0 1 6.3059 0zm41.839 1.7639a11.254 11.254 0 0 1-4.295 0.88194 10.213 10.213 0 0 1-8.1491-4.2157c-1.1818-1.7639-12.241-19.253-12.709-20.029 0-0.06174-1.2347-2.54-3.5983-2.4077-4.101 0.37042-3.907 3.8012-3.907 3.9423v19.835a3.1662 3.1662 0 0 1-6.2618 0.35278v-20.717c0-0.07055 0.14993-6.4293 6.1736-8.9252a10.213 10.213 0 0 1 12.568 4.0481l12.656 19.932a3.9599 3.9599 0 0 0 5.2916 1.3405 3.7394 3.7394 0 0 0 2.0285-3.1132v-20.285a3.1573 3.1573 0 0 1 3.1221-2.6458 3.1132 3.1132 0 0 1 3.1221 2.6458v20.285a9.622 9.622 0 0 1-6.0589 9.0928z" fill="#5d2e8f"/>
 </g>
 <path id="path2" class="cls-1" d="m234.93 2.4651h-62.383c-9.0003-0.19324-16.447 6.9584-16.618 15.959v22.284h79.018v-38.262z" fill="#5d2e8f" stroke-width="1.4802"/>
 <g id="g933" transform="matrix(.90058 0 0 .90058 -72.199 12.777)" fill="#fff">
  <path id="path4" class="cls-2" d="m270.79 21.075h-4.2627v-22.215h4.2627zm12.129-22.231h-4.228v8.9065h-6.238v3.9333h6.238v9.3917h4.228zm11.228 22.231c6.082 0 10.033-4.3319 10.033-11.124s-3.8467-11.124-10.033-11.124h-7.9187v22.249h4.228v-18.28h3.6907c4.765 0 5.7874 3.8814 5.7874 7.1391 0 2.6858-0.7624 7.2082-5.7874 7.2082h-1.9926v3.9335h1.9926" stroke-width="1.4802"/>
  <path id="path16" class="cls-2" d="m319.51 22.126a8.2111 8.2111 0 0 1-8.173-7.3557h4.0865a4.1626 4.1626 0 0 0 8.2302-0.85539 4.2196 4.2196 0 0 0-3.9915-4.2006 2.1097 2.1097 0 0 1-1.6155-3.4782l3.8014-4.7708h-7.8499l-1.1214-4.0485h11.119a5.7021 5.7021 0 0 1 1.2545 0.13292 2.794 2.794 0 0 1 1.3305 0.60845 3.0032 3.0032 0 0 1 0.98835 2.1858 2.4139 2.4139 0 0 1-0.47486 1.5776l-3.6303 4.7138a8.2111 8.2111 0 0 1-3.8014 15.472z" stroke-width="1.9007"/>
 </g>
 <path id="path2-5" class="cls-1" d="m155.93 42.321h79.018v7.174c-0.16092 9.0148-7.6216 16.18-16.636 15.977h-62.383z" fill="#5d2e8f" stroke-width="1.4802"/>
 <g id="g1045" transform="translate(-48.704 166.17)" fill="#fff" stroke-width=".96652">
  <path id="path18-14-7-0" class="cls-1" d="m260.79-117.78c-0.41104 5e-3 -0.73993 0.34286-0.73455 0.75389v6.466c9.6e-4 0.25444-0.0315 0.50791-0.0967 0.75388-0.61084 2.199-3.7288 2.199-4.3397 0-0.0651-0.24597-0.0977-0.49944-0.0967-0.75388v-6.4467c0-0.98585-1.4788-0.98585-1.4788 0v6.4757c0 4.9872 7.4809 4.9872 7.4809 0v-6.4757c0.0218-0.41484-0.30011-0.76728-0.71523-0.78289z"/>
  <path id="path18-62-1" class="cls-1" d="m266.25-110.3h-2.2327v2.7642c0 0.95363-1.4304 0.95363-1.4304 0v-6.5723c-0.1117-2.1798 1.6863-3.9778 3.8661-3.8661 4.1535 0.10851 5.2351 5.7979 1.4111 7.4229-0.26242 0.10288-0.58527 0.2513-1.6141 0.2513zm0.14497-1.4111c3.2668 0 3.2668-4.9003 0-4.9003-1.3715-0.0609-2.4906 1.0853-2.397 2.455v2.4356z"/>
  <path id="path18-14-0-4" class="cls-1" d="m237.6-112.31c0.0345 5.0899-6.1092 7.6709-9.7203 4.0844-3.6109-3.5865-1.0719-9.7483 4.0182-9.7483 3.1343-7e-5 5.6807 2.5296 5.702 5.6638zm-1.3816 0c0-3.8407-4.6432-5.7634-7.3586-3.0479-2.7154 2.7154-0.79272 7.3586 3.0479 7.3586 2.3785-5e-3 4.3054-1.9322 4.3107-4.3107z"/>
  <path id="path18-7" class="cls-1" d="m241.75-110.3h-2.2327v2.7642c0 0.95363-1.4306 0.95363-1.4304 0l3.8e-4 -6.5723c-0.11171-2.1798 1.6859-3.9778 3.8657-3.8661 4.1535 0.10851 5.2351 5.7979 1.4111 7.4229-0.26242 0.10288-0.58529 0.2513-1.6141 0.2513zm0.14498-1.4111c3.2668 0 3.2668-4.9003 0-4.9003-1.3715-0.0609-2.4906 1.0853-2.397 2.455v2.4356z"/>
  <path id="path18-7-8" class="cls-1" d="m221.73-110.3h-2.2327v2.7642c0 0.95363-1.4306 0.95363-1.4304 0l3.7e-4 -6.5723c-0.11171-2.1798 1.6859-3.9778 3.8657-3.8661 4.1535 0.10851 5.235 5.7979 1.4111 7.4229-0.26241 0.10288-0.58528 0.2513-1.6141 0.2513zm0.14498-1.4111c3.2668 0 3.2668-4.9003 0-4.9003-1.3715-0.0609-2.4906 1.0853-2.397 2.455v2.4356z"/>
  <path id="path18-14-5" d="m247.62-113.04c-1.078-0.1251-1.078 1.5655 0 1.4403h4.5173c1.078 0.1251 1.078-1.5655 0-1.4403z"/>
 </g>
</svg>
