<?xml version="1.0" encoding="UTF-8"?>
<svg id="Layer_1" width="851.12" height="500.02" enable-background="new 0 0 595.281 841.891" version="1.1" viewBox="0 0 851.12 500.02" xml:space="preserve" xmlns="http://www.w3.org/2000/svg" xmlns:cc="http://creativecommons.org/ns#" xmlns:dc="http://purl.org/dc/elements/1.1/" xmlns:rdf="http://www.w3.org/1999/02/22-rdf-syntax-ns#"><metadata id="metadata28"><rdf:RDF><cc:Work rdf:about=""><dc:format>image/svg+xml</dc:format><dc:type rdf:resource="http://purl.org/dc/dcmitype/StillImage"/><dc:title>2</dc:title></cc:Work></rdf:RDF></metadata><title id="title2">2</title><g id="_2" transform="matrix(1.4298 0 0 1.4298 0 -351.87)"><g id="g18"><g id="g16"><path id="path4" d="m412.64 419.17h138.69c23.762 0.506 43.436-18.348 43.941-42.11 2e-3 -0.045 2e-3 -0.089 4e-3 -0.134v-124.35h-138.81c-23.762-0.558-43.477 18.253-44.035 42.015-2e-3 0.076-4e-3 0.152-4e-3 0.229v124.35h0.209z" fill="#5d2e8f"/><path id="path6" d="m477.78 361.5 0.957-0.746 33.082-25.901c2.844-2.331 9.488-8.393 9.488-16.949 0.152-8.715-6.791-15.903-15.506-16.056-0.35-6e-3 -0.699 0-1.047 0.017-10.561 0-17.111 6.877-17.111 17.858 0.318 6.695 4.746 12.495 11.119 14.57l-14.268 10.305c-8.93-5.735-13.73-14.897-13.73-26.554 0-20.749 18.23-31.939 35.365-31.939 17.404-0.335 31.785 13.503 32.121 30.907 4e-3 0.251 6e-3 0.501 4e-3 0.752 0 16.319-9.324 24.759-22.287 34.97l-21.961 17.112h43.807v15.83h-53.621c-9.162 0-14.688-4.477-14.688-11.937 0-5.688 2.961-8.021 8.299-12.263" fill="#fff"/></g></g></g><g id="g858" stroke-width="3.3335"><path id="path17" class="cls-3" d="m0 0v500.02h440.38c37.978 0.54972 74.49-14.642 100.87-41.968 23.387-24.319 36.628-56.632 37.035-90.37v-367.68z" fill="#5d2e8f"/><path id="path21" class="cls-4" d="m84.137 360.01c-8.3003 0-14.301-1.7667-17.801-5.3002a9.5337 9.5337 0 0 1-2.9668-6.4003 18.067 18.067 0 0 1 4.4335-12.434 21.334 21.334 0 0 1 16.367-5.8669 20.568 20.568 0 0 1 15.834 5.7002 20.768 20.768 0 0 1 4.6668 14.301 6.0002 6.0002 0 1 0 12 0c0-31.468-31.101-31.835-32.368-31.835-31.568 0-32.468 26.668-32.468 30.001 0 8.9004 6.8669 23.968 32.735 23.968 8.7337 0 14.967 1.8668 18.567 5.6002a11.267 11.267 0 0 1 3.3335 8.2003 16.401 16.401 0 0 1-4.3335 11.6c-3.7002 3.8002-9.5004 5.7336-17.267 5.7336a20.934 20.934 0 0 1-16.001-5.8336 18.501 18.501 0 0 1-4.7669-12.934 6.0002 6.0002 0 0 0-12 0 29.235 29.235 0 0 0 8.2003 21.234 33.601 33.601 0 0 0 24.368 9.6004c25.134 0 34.035-15.834 34.035-29.368 0-15.734-13.334-25.901-34.068-25.901m405.25 0c-8.3003 0-14.301-1.7667-17.801-5.3002a9.7337 9.7337 0 0 1-3.0001-6.4003 18.101 18.101 0 0 1 4.4668-12.434 21.334 21.334 0 0 1 15.867-5.9336 20.534 20.534 0 0 1 15.767 5.7336 20.768 20.768 0 0 1 4.8335 14.267 5.9336 5.9336 0 1 0 11.834 0c0-31.468-31.101-31.835-32.368-31.835h-0.16667c-31.568 0-32.468 26.668-32.468 30.001 0 8.9004 6.867 23.968 32.768 23.968 8.667 0 14.934 1.8668 18.534 5.6336a11.167 11.167 0 0 1 3.3335 8.167 16.334 16.334 0 0 1-4.3335 11.634c-3.6668 3.8002-9.5004 5.7336-17.267 5.7336a20.968 20.968 0 0 1-16.001-5.8336 18.601 18.601 0 0 1-4.7335-12.934 6.0002 6.0002 0 0 0-12 0 29.068 29.068 0 0 0 8.167 21.234 33.635 33.635 0 0 0 24.401 9.6004c25.101 0 34.001-15.834 34.001-29.368 0-15.767-13.334-25.934-34.001-25.934m-326.68-41.902a31.168 31.168 0 0 0-32.501 32.601v56.669a6.0669 6.0669 0 0 0 12.134 0v-24.101h20.367a32.601 32.601 0 0 0 0-65.169m0 53.336h-20.334v-20.634a19.467 19.467 0 0 1 20.267-20.868 20.734 20.734 0 0 1 1.1667 41.435h-1.2334zm90.304-53.336a48.535 48.535 0 1 0 48.635 48.502 48.502 48.502 0 0 0-48.635-48.502m0 85.17a36.668 36.668 0 1 1 36.668-36.668 36.668 36.668 0 0 1-36.668 36.668m102.57-22.068a32.735 32.735 0 0 0-12.034-63.336 31.401 31.401 0 0 0-32.768 32.735v56.336a6.1002 6.1002 0 0 0 12.2 0v-23.534h19.367l16.101 26.334a6.1669 6.1669 0 1 0 10.934-5.6669 2.1334 2.1334 0 0 0-0.26668-0.46668zm-32.501-9.6671v-20.768c0-12.534 8.2003-20.934 20.401-20.934a20.868 20.868 0 0 1 1.1 41.702h-21.368zm126.61-45.469a6.0669 6.0669 0 0 1-6.0669 6.0669h-21.068v75.07a6.1002 6.1002 0 0 1-12.2 0v-75.07h-21.068a6.1002 6.1002 0 1 1 0-12.167h54.336a6.0669 6.0669 0 0 1 6.0669 6.0669z" fill="#fff"/><path id="path17-1" class="cls-3" d="m571.72 247.51h-565.06v-240.84h565.06z" fill="#fff"/><path id="path19-9" class="cls-3" d="m113.6 82.437a62.469 62.469 0 0 0-50.269 25.101v-61.069a5.9002 5.9002 0 0 0-11.8 0v100.2a61.369 61.369 0 0 0 62.069 60.269c37.168 0 62.136-32.401 62.136-62.669 0-38.202-32.268-61.836-62.136-61.836m0 112.07a50.235 50.235 0 1 1 49.735-50.502v0.26668a50.169 50.169 0 0 1-50.002 50.235m194.14-49.802a5.7669 5.7669 0 0 1-5.5336 5.9669h-65.269a6.1336 6.1336 0 0 1-5.8336-6.4336 6.2003 6.2003 0 0 1 5.8336-5.8669h58.236a50.002 50.002 0 1 0-6.9003 32.335 6.0336 6.0336 0 0 1 3.9002-2.6334 5.8336 5.8336 0 0 1 4.5668 0.93337 6.1002 6.1002 0 0 1 1.7667 8.4003 62.303 62.303 0 1 1 9.267-32.768zm34.768 52.169a12.1 12.1 0 0 1-23.834 0v-104.04a12.1 12.1 0 0 1 23.834 0zm158.14 6.6669a42.535 42.535 0 0 1-16.234 3.3335 38.602 38.602 0 0 1-30.801-15.934c-4.4668-6.6669-46.269-72.77-48.035-75.703 0-0.23334-4.6669-9.6004-13.601-9.1004-15.501 1.4001-14.767 14.367-14.767 14.901v74.97a11.967 11.967 0 0 1-23.668 1.3334v-78.303c0-0.26667 0.56669-24.301 23.334-33.735a38.602 38.602 0 0 1 47.502 15.301l47.835 75.336a14.967 14.967 0 0 0 20.001 5.0669 14.134 14.134 0 0 0 7.667-11.767v-76.67a11.934 11.934 0 0 1 11.8-10 11.767 11.767 0 0 1 11.8 10v76.67a36.368 36.368 0 0 1-22.901 34.368z" fill="#5d2e8f"/></g></svg>
