<?xml version="1.0" encoding="UTF-8" standalone="no"?>
<svg
   xmlns:dc="http://purl.org/dc/elements/1.1/"
   xmlns:cc="http://creativecommons.org/ns#"
   xmlns:rdf="http://www.w3.org/1999/02/22-rdf-syntax-ns#"
   xmlns:svg="http://www.w3.org/2000/svg"
   xmlns="http://www.w3.org/2000/svg"
   xmlns:xlink="http://www.w3.org/1999/xlink"
   xmlns:sodipodi="http://sodipodi.sourceforge.net/DTD/sodipodi-0.dtd"
   xmlns:inkscape="http://www.inkscape.org/namespaces/inkscape"
   height="230.7"
   width="600"
   version="1.1"
   viewBox="0 0 158.75 61.03877"
   id="svg2"
   inkscape:version="0.91 r13725"
   sodipodi:docname="Bein Sports Pop-Up 3 - Dark.svg">
  <metadata
     id="metadata102">
    <rdf:RDF>
      <cc:Work
         rdf:about="">
        <dc:format>image/svg+xml</dc:format>
        <dc:type
           rdf:resource="http://purl.org/dc/dcmitype/StillImage" />
      </cc:Work>
    </rdf:RDF>
  </metadata>
  <sodipodi:namedview
     pagecolor="#ffffff"
     bordercolor="#666666"
     borderopacity="1"
     objecttolerance="10"
     gridtolerance="10"
     guidetolerance="10"
     inkscape:pageopacity="0"
     inkscape:pageshadow="2"
     inkscape:window-width="1920"
     inkscape:window-height="1017"
     id="namedview100"
     showgrid="false"
     inkscape:zoom="0.48"
     inkscape:cx="300"
     inkscape:cy="115.35"
     inkscape:window-x="-8"
     inkscape:window-y="-8"
     inkscape:window-maximized="1"
     inkscape:current-layer="svg2" />
  <defs
     id="defs4">
    <linearGradient
       id="i"
       gradientUnits="userSpaceOnUse"
       gradientTransform="matrix(35.781 -27.408 27.408 35.781 143.95 145.16)"
       x1="0"
       x2="1"
       y1="0"
       y2="0">
      <stop
         stop-color="#190031"
         offset="0"
         id="stop7" />
      <stop
         stop-color="#190031"
         offset=".0060577"
         id="stop9" />
      <stop
         stop-color="#5c2d91"
         offset="1"
         id="stop11" />
    </linearGradient>
    <linearGradient
       id="h"
       gradientUnits="userSpaceOnUse"
       gradientTransform="matrix(35.781 -27.408 27.408 35.781 160.96 167.37)"
       x1="0"
       x2="1"
       y1="0"
       y2="0">
      <stop
         stop-color="#190031"
         offset="0"
         id="stop14" />
      <stop
         stop-color="#190031"
         offset=".0060577"
         id="stop16" />
      <stop
         stop-color="#5c2d91"
         offset="1"
         id="stop18" />
    </linearGradient>
    <linearGradient
       id="g"
       gradientUnits="userSpaceOnUse"
       gradientTransform="matrix(35.781 -27.409 27.409 35.781 168.84 177.64)"
       x1="0"
       x2="1"
       y1="0"
       y2="0">
      <stop
         stop-color="#190031"
         offset="0"
         id="stop21" />
      <stop
         stop-color="#190031"
         offset=".0060577"
         id="stop23" />
      <stop
         stop-color="#5c2d91"
         offset="1"
         id="stop25" />
    </linearGradient>
    <linearGradient
       id="f"
       gradientUnits="userSpaceOnUse"
       gradientTransform="matrix(35.781 -27.408 27.408 35.781 179.25 191.23)"
       x1="0"
       x2="1"
       y1="0"
       y2="0">
      <stop
         stop-color="#190031"
         offset="0"
         id="stop28" />
      <stop
         stop-color="#190031"
         offset=".0060577"
         id="stop30" />
      <stop
         stop-color="#5c2d91"
         offset="1"
         id="stop32" />
    </linearGradient>
    <linearGradient
       id="e"
       gradientUnits="userSpaceOnUse"
       gradientTransform="matrix(35.781 -27.408 27.408 35.781 172.18 196.02)"
       x1="0"
       x2="1"
       y1="0"
       y2="0">
      <stop
         stop-color="#190031"
         offset="0"
         id="stop35" />
      <stop
         stop-color="#190031"
         offset=".0060577"
         id="stop37" />
      <stop
         stop-color="#5c2d91"
         offset="1"
         id="stop39" />
    </linearGradient>
    <linearGradient
       id="d"
       gradientUnits="userSpaceOnUse"
       gradientTransform="matrix(35.781 -27.408 27.408 35.781 178.4 204.15)"
       x1="0"
       x2="1"
       y1="0"
       y2="0">
      <stop
         stop-color="#190031"
         offset="0"
         id="stop42" />
      <stop
         stop-color="#190031"
         offset=".0060577"
         id="stop44" />
      <stop
         stop-color="#5c2d91"
         offset="1"
         id="stop46" />
    </linearGradient>
    <linearGradient
       id="c"
       gradientUnits="userSpaceOnUse"
       gradientTransform="matrix(35.781 -27.408 27.408 35.781 186.76 215.05)"
       x1="0"
       x2="1"
       y1="0"
       y2="0">
      <stop
         stop-color="#190031"
         offset="0"
         id="stop49" />
      <stop
         stop-color="#190031"
         offset=".0060577"
         id="stop51" />
      <stop
         stop-color="#5c2d91"
         offset="1"
         id="stop53" />
    </linearGradient>
    <linearGradient
       id="b"
       gradientUnits="userSpaceOnUse"
       gradientTransform="matrix(35.781 -27.408 27.408 35.781 168.79 191.6)"
       x1="0"
       x2="1"
       y1="0"
       y2="0">
      <stop
         stop-color="#190031"
         offset="0"
         id="stop56" />
      <stop
         stop-color="#190031"
         offset=".0060577"
         id="stop58" />
      <stop
         stop-color="#5c2d91"
         offset="1"
         id="stop60" />
    </linearGradient>
    <linearGradient
       id="a"
       gradientUnits="userSpaceOnUse"
       gradientTransform="matrix(35.781 -27.408 27.408 35.781 183.97 211.42)"
       x1="0"
       x2="1"
       y1="0"
       y2="0">
      <stop
         stop-color="#190031"
         offset="0"
         id="stop63" />
      <stop
         stop-color="#190031"
         offset=".0060577"
         id="stop65" />
      <stop
         stop-color="#5c2d91"
         offset="1"
         id="stop67" />
    </linearGradient>
    <linearGradient
       id="j"
       gradientUnits="userSpaceOnUse"
       gradientTransform="matrix(45.562 -26.307 26.307 45.562 239.65 178.81)"
       x1="0"
       x2="1"
       y1="0"
       y2="0">
      <stop
         stop-color="#572381"
         offset="0"
         id="stop70" />
      <stop
         stop-color="#111211"
         offset="1"
         id="stop72" />
    </linearGradient>
    <linearGradient
       inkscape:collect="always"
       xlink:href="#j-6"
       id="linearGradient4310"
       x1="270.2843"
       y1="436.09109"
       x2="321.20731"
       y2="436.09109"
       gradientUnits="userSpaceOnUse" />
    <linearGradient
       id="j-6"
       gradientUnits="userSpaceOnUse"
       gradientTransform="matrix(45.562,-26.307,26.307,45.562,127.55,39.49)"
       x1="0"
       x2="1"
       y1="0"
       y2="0">
      <stop
         stop-color="#572381"
         offset="0"
         id="stop7-9" />
      <stop
         stop-color="#111211"
         offset="1"
         id="stop9-2" />
    </linearGradient>
    <linearGradient
       inkscape:collect="always"
       xlink:href="#j-6"
       id="linearGradient4280"
       gradientUnits="userSpaceOnUse"
       x1="270.2843"
       y1="436.09109"
       x2="321.20731"
       y2="436.09109" />
    <linearGradient
       inkscape:collect="always"
       xlink:href="#j-6"
       id="linearGradient4282"
       gradientUnits="userSpaceOnUse"
       x1="270.2843"
       y1="436.09109"
       x2="321.20731"
       y2="436.09109" />
    <linearGradient
       inkscape:collect="always"
       xlink:href="#j-6"
       id="linearGradient4284"
       gradientUnits="userSpaceOnUse"
       x1="270.2843"
       y1="436.09109"
       x2="321.20731"
       y2="436.09109" />
    <linearGradient
       inkscape:collect="always"
       xlink:href="#j-6"
       id="linearGradient4286"
       gradientUnits="userSpaceOnUse"
       x1="270.2843"
       y1="436.09109"
       x2="321.20731"
       y2="436.09109" />
    <linearGradient
       inkscape:collect="always"
       xlink:href="#j-6"
       id="linearGradient4288"
       gradientUnits="userSpaceOnUse"
       x1="270.2843"
       y1="436.09109"
       x2="321.20731"
       y2="436.09109" />
    <linearGradient
       inkscape:collect="always"
       xlink:href="#j-6"
       id="linearGradient4290"
       gradientUnits="userSpaceOnUse"
       x1="270.2843"
       y1="436.09109"
       x2="321.20731"
       y2="436.09109" />
  </defs>
  <g
     transform="translate(-112.1 -139.32)"
     id="g74">
    <path
       stroke-width=".28819"
       fill="url(#j)"
       d="m240.34 149.81c-2.35 0.06-2.37 2.38-2.37 2.38l-0.04 19.58c0 3.12 0.73 5.36 1.79 6.96 0.99 1.39 2.34 2.5 3.92 3.21 1.78 0.73 3.48 0.82 4.26 0.82 0.29 0 0.45-0.02 0.45-0.02h20.51c2.09 0 1.99-2.24 1.99-2.24v-28.46c0-1.97-1.77-2.21-2.01-2.23h-0.2zm7.48 4.15h10.95c0.46 0 0.87 0.05 1.24 0.14 0.51 0.08 0.95 0.3 1.33 0.6 0.5 0.4 0.95 1.28 0.97 2.16 0.01 0.66-0.17 1.13-0.49 1.56h0.01l-3.65 4.68c2.55 1.36 4.28 4.05 4.28 7.15 0 4.49-3.62 8.12-8.09 8.12-4.19 0-7.63-3.19-8.05-7.28h4.03c0.39 1.88 2.04 3.28 4.02 3.28 2.27 0 4.1-1.84 4.1-4.12 0-2.25-1.61-3.79-4.05-4.11-1.15 0-2.09-0.94-2.09-2.09 0-0.5 0.19-0.98 0.49-1.33l3.69-4.72h-7.74z"
       id="path76" />
    <g
       stroke-width=".28827"
       id="g78">
      <path
         fill="url(#i)"
         d="m112.1 140.5v26.18c0 8.18 6.76 15.87 16.32 15.87s16.31-8.18 16.31-16.47-6.58-16.25-16.32-16.25c-9.73 0-13.96 7.69-13.96 7.69v-17.02c0-0.65-0.52-1.18-1.17-1.18s-1.18 0.53-1.18 1.18m2.4 25.58c0-7.71 6.21-13.95 13.88-13.95 7.66 0 13.87 6.24 13.87 13.95s-6.21 13.95-13.87 13.95c-7.67 0-13.88-6.24-13.88-13.95"
         id="path80" />
      <path
         fill="url(#h)"
         d="m146.23 166.12c0 9.03 7.33 16.36 16.36 16.36 5.89 0 11.04-3.11 13.93-7.77 0.37-0.56 0.2-1.32-0.36-1.69-0.55-0.37-1.32-0.22-1.69 0.34-2.45 3.99-6.85 6.66-11.88 6.66-7.68 0-13.9-6.22-13.9-13.9s6.22-13.91 13.9-13.91c7.25 0 13.21 5.55 13.85 12.63h-16.2c-0.68 0-1.22 0.56-1.22 1.24s0.55 1.23 1.23 1.23h17.47c0.91 0 1.23-0.64 1.23-1.19 0-9.04-7.32-16.36-16.36-16.36-9.03 0-16.36 7.32-16.36 16.36"
         id="path82" />
      <path
         fill="url(#g)"
         d="m183.64 149.74zc-1.59 0-2.79 1.25-2.87 2.38v28.37c0.08 1.13 1.28 2.38 2.87 2.38 1.58 0 2.79-1.25 2.87-2.38v-28.37c-0.08-1.13-1.29-2.38-2.87-2.38m-0.01 0h0.01zm0.01 33.13m-0.01 0h0.01-0.01"
         id="path84" />
      <path
         fill="url(#f)"
         d="m231.6 149.77zc-1.56 0-2.74 1.24-2.83 2.35v20.91c0 0.76-0.47 2.65-2.28 3.51-3.88 1.85-5.88-1.7-5.88-1.7l-12.94-20.35c-1.49-2.6-6.1-6.32-12.38-3.99-6.05 2.49-6.12 8.78-6.12 8.78v21.21c0.08 1.13 1.29 2.24 2.87 2.25 1.59-0.01 2.8-1.28 2.8-2.58v-20.3s-0.29-4 4.32-4.41c2.69-0.16 4.01 2.63 4.01 2.63s11.78 18.57 12.97 20.42c1.2 1.85 6.03 6 12.31 3.45 6.35-2.58 5.97-8.94 5.97-8.94l0.01-20.9c-0.09-1.11-1.27-2.34-2.83-2.34m-0.01 0h0.01zm-39.55 32.97h0.01zm-0.01 0h0.01z"
         id="path86" />
      <path
         fill="url(#e)"
         d="m174.68 189.83v9.67c0 0.46 0.38 0.83 0.84 0.83 0.47 0 0.85-0.37 0.85-0.83v-4.26h3.71c2.99 0 5.41-2.42 5.41-5.41s-2.42-5.42-5.41-5.42c-3.32 0-5.4 2.33-5.4 5.42m1.68 0c0-2.17 1.38-3.8 3.7-3.8 2.09 0 3.79 1.7 3.79 3.79s-1.7 3.77-3.79 3.77h-3.7z"
         id="path88" />
      <path
         fill="url(#d)"
         d="m185.79 192.37c0 4.41 3.58 7.99 7.99 7.99 4.4 0 7.99-3.58 7.99-7.99s-3.59-7.99-7.99-7.99c-4.41 0-7.99 3.58-7.99 7.99m1.79 0c0-3.42 2.78-6.2 6.2-6.2s6.2 2.78 6.2 6.2-2.78 6.2-6.2 6.2-6.2-2.78-6.2-6.2"
         id="path90" />
      <path
         fill="url(#c)"
         d="m213.88 184.98c-0.49 0-0.9 0.39-0.9 0.86s0.41 0.86 0.9 0.86h3.55v12.64c0 0.49 0.38 0.89 0.86 0.89 0.47 0 0.86-0.4 0.86-0.89v-12.64h3.5c0.49 0 0.89-0.39 0.89-0.86s-0.4-0.86-0.89-0.86z"
         id="path92" />
      <path
         fill="url(#b)"
         d="m167.81 184.38c-4.29 0-5.22 3.16-5.22 4.79 0 1.62 1.3 3.81 5.26 3.81s3.79 2.35 3.79 2.44 0.21 3.08-3.78 3.07c-3.27 0-3.66-2.51-3.62-3.28 0-0.46-0.36-0.81-0.82-0.81-0.45 0-0.82 0.35-0.82 0.81-0.07 2.74 2.09 4.94 5.23 4.94 3.94 0 5.47-2.43 5.47-4.71s-1.8-4.13-5.46-4.13-3.62-2.1-3.62-2.1-0.24-3.21 3.63-3.21 3.57 3.49 3.57 3.49c0 0.45 0.36 0.81 0.81 0.81s0.81-0.36 0.81-0.81c0-5-4.81-5.11-5.2-5.11h-0.03"
         id="path94" />
      <path
         fill="url(#a)"
         d="m202.57 189.83 0.01 9.67c0 0.46 0.38 0.83 0.84 0.83 0.47 0 0.84-0.37 0.84-0.83v-4.26h3.64l2.83 4.62c0.23 0.41 0.76 0.55 1.16 0.32 0.41-0.24 0.55-0.76 0.32-1.17l-2.48-4.06c2.12-0.74 3.66-2.75 3.66-5.12 0-2.99-2.43-5.42-5.42-5.42-3.3 0-5.4 2.33-5.4 5.42m1.68 0c0-2.17 1.39-3.8 3.7-3.8 2.1 0 3.79 1.7 3.79 3.79s-1.69 3.77-3.79 3.77h-3.69z"
         id="path96" />
      <path
         fill="#512c80"
         d="m232.5 189.6s0.3-3.49-3.56-3.49c-3.87 0-3.63 3.21-3.63 3.21s-0.04 2.1 3.62 2.1 5.46 1.85 5.46 4.13c0 2.27-1.53 4.7-5.47 4.7-3.15 0-5.31-2.19-5.24-4.93 0-0.46 0.38-0.81 0.83-0.81s0.82 0.35 0.82 0.81c-0.04 0.77 0.35 3.27 3.62 3.28 3.99 0.01 3.78-2.98 3.78-3.07s0.17-2.45-3.79-2.45-5.26-2.18-5.26-3.81c0-1.62 0.93-4.78 5.22-4.78 0 0 5.23-0.11 5.23 5.11 0 0.45-0.36 0.81-0.81 0.81s-0.82-0.36-0.82-0.81"
         id="path98" />
    </g>
  </g>
  <g
     id="g4314"
     transform="matrix(0.64627679,0,0,0.64627679,-48.838413,-276.4201)"
     style="fill:url(#linearGradient4310);fill-opacity:1">
    <path
       d="m 273.70181,435.7676 c 0.18625,0 0.36125,-0.0375 0.52375,-0.11 0.16125,-0.0738 0.30125,-0.175 0.41875,-0.3025 0.11875,-0.1275 0.21125,-0.2725 0.28,-0.435 0.0688,-0.16125 0.10375,-0.33125 0.10375,-0.5075 0,-0.35375 -0.12625,-0.665 -0.37625,-0.93625 -0.25,-0.26875 -0.56625,-0.405 -0.95,-0.405 l -1.06,0 0,2.69625 1.06,0 z m -3.4175,-4.905 3.44625,0 c 0.51125,0 0.985,0.0937 1.4225,0.28 0.43625,0.18625 0.815,0.43875 1.13375,0.75875 0.32,0.31875 0.57,0.69375 0.75125,1.12625 0.1825,0.4325 0.2725,0.89375 0.2725,1.385 0,0.49125 -0.09,0.9525 -0.2725,1.38375 -0.18125,0.4325 -0.43125,0.80875 -0.75125,1.1275 -0.31875,0.31875 -0.6975,0.5725 -1.13375,0.75875 -0.4375,0.18625 -0.91125,0.28 -1.4225,0.28 l -1.08875,0 0,3.35875 -2.3575,0 0,-10.45875 z"
       style="fill:url(#linearGradient4280);fill-opacity:1;fill-rule:nonzero;stroke:none"
       id="path72756"
       inkscape:connector-curvature="0" />
    <path
       d="m 283.35044,439.17022 c 0.4225,0 0.815,-0.0812 1.17875,-0.24375 0.3625,-0.16125 0.6775,-0.3825 0.9425,-0.6625 0.265,-0.27875 0.47375,-0.60625 0.62625,-0.97875 0.15125,-0.37375 0.2275,-0.77125 0.2275,-1.19375 0,-0.4225 -0.0763,-0.82 -0.2275,-1.1925 -0.1525,-0.37375 -0.36125,-0.7 -0.62625,-0.98 -0.265,-0.28 -0.58,-0.50125 -0.9425,-0.6625 -0.36375,-0.1625 -0.75625,-0.24375 -1.17875,-0.24375 -0.4225,0 -0.815,0.0813 -1.17875,0.24375 -0.36375,0.16125 -0.6775,0.3825 -0.9425,0.6625 -0.265,0.28 -0.47375,0.60625 -0.62625,0.98 -0.1525,0.3725 -0.22875,0.77 -0.22875,1.1925 0,0.4225 0.0763,0.82 0.22875,1.19375 0.1525,0.3725 0.36125,0.7 0.62625,0.97875 0.265,0.28 0.57875,0.50125 0.9425,0.6625 0.36375,0.1625 0.75625,0.24375 1.17875,0.24375 m 0,2.2675 c -0.73625,0 -1.42875,-0.13875 -2.0775,-0.41875 -0.6475,-0.28 -1.215,-0.66375 -1.70125,-1.14875 -0.485,-0.48625 -0.86875,-1.05375 -1.14875,-1.70125 -0.28,-0.64875 -0.42,-1.34125 -0.42,-2.0775 0,-0.73625 0.14,-1.42875 0.42,-2.0775 0.28,-0.6475 0.66375,-1.215 1.14875,-1.7 0.48625,-0.48625 1.05375,-0.87 1.70125,-1.15 0.64875,-0.28 1.34125,-0.42 2.0775,-0.42 0.73625,0 1.42875,0.14 2.0775,0.42 0.6475,0.28 1.215,0.66375 1.7,1.15 0.48625,0.485 0.87,1.0525 1.15,1.7 0.27875,0.64875 0.42,1.34125 0.42,2.0775 0,0.73625 -0.14125,1.42875 -0.42,2.0775 -0.28,0.6475 -0.66375,1.215 -1.15,1.70125 -0.485,0.485 -1.0525,0.86875 -1.7,1.14875 -0.64875,0.28 -1.34125,0.41875 -2.0775,0.41875"
       style="fill:url(#linearGradient4282);fill-opacity:1;fill-rule:nonzero;stroke:none"
       id="path72760"
       inkscape:connector-curvature="0" />
    <path
       d="m 293.60219,435.7676 c 0.18625,0 0.36125,-0.0375 0.52375,-0.11 0.16125,-0.0738 0.30125,-0.175 0.41875,-0.3025 0.11875,-0.1275 0.21125,-0.2725 0.28,-0.435 0.0688,-0.16125 0.10375,-0.33125 0.10375,-0.5075 0,-0.35375 -0.12625,-0.665 -0.37625,-0.93625 -0.25,-0.26875 -0.5675,-0.405 -0.95,-0.405 l -1.06,0 0,2.69625 1.06,0 z m -3.4175,-4.905 3.44625,0 c 0.51125,0 0.985,0.0937 1.4225,0.28 0.43625,0.18625 0.815,0.43875 1.13375,0.75875 0.32,0.31875 0.57,0.69375 0.75125,1.12625 0.18125,0.4325 0.2725,0.89375 0.2725,1.385 0,0.49125 -0.0913,0.9525 -0.2725,1.38375 -0.18125,0.4325 -0.43125,0.80875 -0.75125,1.1275 -0.31875,0.31875 -0.6975,0.5725 -1.13375,0.75875 -0.4375,0.18625 -0.91125,0.28 -1.4225,0.28 l -1.08875,0 0,3.35875 -2.3575,0 0,-10.45875 z"
       style="fill:url(#linearGradient4284);fill-opacity:1;fill-rule:nonzero;stroke:none"
       id="path72764"
       inkscape:connector-curvature="0" />
    <path
       inkscape:connector-curvature="0"
       id="path72766"
       style="fill:url(#linearGradient4286);fill-opacity:1;fill-rule:nonzero;stroke:none"
       d="m 298.03619,436.1061 4.1825,0 0,2.12125 -4.1825,0 0,-2.12125 z" />
    <path
       d="m 308.02319,441.43822 c -0.62875,0 -1.205,-0.10375 -1.73125,-0.30875 -0.525,-0.20625 -0.97625,-0.50125 -1.35375,-0.88375 -0.37875,-0.38375 -0.67375,-0.84125 -0.885,-1.3775 -0.21125,-0.535 -0.31625,-1.13125 -0.31625,-1.79 l 0,-6.21625 2.35625,0 0,6.24625 c 0,0.6375 0.1775,1.14125 0.53,1.50875 0.35375,0.36875 0.82,0.55375 1.4,0.55375 0.57875,0 1.04625,-0.185 1.39875,-0.55375 0.35375,-0.3675 0.53125,-0.87125 0.53125,-1.50875 l 0,-6.24625 2.35625,0 0,6.21625 c 0,0.65875 -0.105,1.255 -0.31625,1.79 -0.2125,0.53625 -0.50625,0.99375 -0.885,1.3775 -0.3775,0.3825 -0.82875,0.6775 -1.35375,0.88375 -0.525,0.205 -1.1025,0.30875 -1.73125,0.30875"
       style="fill:url(#linearGradient4288);fill-opacity:1;fill-rule:nonzero;stroke:none"
       id="path72770"
       inkscape:connector-curvature="0" />
    <path
       d="m 317.59731,435.7676 c 0.1875,0 0.36125,-0.0375 0.5225,-0.11 0.16375,-0.0738 0.3025,-0.175 0.42125,-0.3025 0.1175,-0.1275 0.21125,-0.2725 0.27875,-0.435 0.0687,-0.16125 0.10375,-0.33125 0.10375,-0.5075 0,-0.35375 -0.125,-0.665 -0.37625,-0.93625 -0.25,-0.26875 -0.56625,-0.405 -0.95,-0.405 l -1.06125,0 0,2.69625 1.06125,0 z m -3.4175,-4.905 3.4475,0 c 0.51125,0 0.98375,0.0937 1.42,0.28 0.43875,0.18625 0.81625,0.43875 1.13625,0.75875 0.31875,0.31875 0.56875,0.69375 0.75,1.12625 0.1825,0.4325 0.27375,0.89375 0.27375,1.385 0,0.49125 -0.0913,0.9525 -0.27375,1.38375 -0.18125,0.4325 -0.43125,0.80875 -0.75,1.1275 -0.32,0.31875 -0.6975,0.5725 -1.13625,0.75875 -0.43625,0.18625 -0.90875,0.28 -1.42,0.28 l -1.09125,0 0,3.35875 -2.35625,0 0,-10.45875 z"
       style="fill:url(#linearGradient4290);fill-opacity:1;fill-rule:nonzero;stroke:none"
       id="path72774"
       inkscape:connector-curvature="0" />
  </g>
</svg>
