<?xml version="1.0" encoding="UTF-8" standalone="no"?>
<svg
   xmlns:dc="http://purl.org/dc/elements/1.1/"
   xmlns:cc="http://creativecommons.org/ns#"
   xmlns:rdf="http://www.w3.org/1999/02/22-rdf-syntax-ns#"
   xmlns:svg="http://www.w3.org/2000/svg"
   xmlns="http://www.w3.org/2000/svg"
   xmlns:sodipodi="http://sodipodi.sourceforge.net/DTD/sodipodi-0.dtd"
   xmlns:inkscape="http://www.inkscape.org/namespaces/inkscape"
   height="230.7"
   width="600"
   version="1.1"
   viewBox="0 0 158.75 61.03877"
   id="svg2"
   inkscape:version="0.91 r13725"
   sodipodi:docname="Bein Sports Pop-Up 3.svg">
  <metadata
     id="metadata102">
    <rdf:RDF>
      <cc:Work
         rdf:about="">
        <dc:format>image/svg+xml</dc:format>
        <dc:type
           rdf:resource="http://purl.org/dc/dcmitype/StillImage" />
        <dc:title></dc:title>
      </cc:Work>
    </rdf:RDF>
  </metadata>
  <sodipodi:namedview
     pagecolor="#ffffff"
     bordercolor="#666666"
     borderopacity="1"
     objecttolerance="10"
     gridtolerance="10"
     guidetolerance="10"
     inkscape:pageopacity="0"
     inkscape:pageshadow="2"
     inkscape:window-width="1920"
     inkscape:window-height="1017"
     id="namedview100"
     showgrid="false"
     inkscape:zoom="0.48"
     inkscape:cx="300"
     inkscape:cy="115.35"
     inkscape:window-x="-8"
     inkscape:window-y="-8"
     inkscape:window-maximized="1"
     inkscape:current-layer="svg2" />
  <defs
     id="defs4">
    <linearGradient
       id="i"
       gradientUnits="userSpaceOnUse"
       gradientTransform="matrix(35.781 -27.408 27.408 35.781 143.95 145.16)"
       x1="0"
       x2="1"
       y1="0"
       y2="0">
      <stop
         stop-color="#190031"
         offset="0"
         id="stop7" />
      <stop
         stop-color="#190031"
         offset=".0060577"
         id="stop9" />
      <stop
         stop-color="#5c2d91"
         offset="1"
         id="stop11" />
    </linearGradient>
    <linearGradient
       id="h"
       gradientUnits="userSpaceOnUse"
       gradientTransform="matrix(35.781 -27.408 27.408 35.781 160.96 167.37)"
       x1="0"
       x2="1"
       y1="0"
       y2="0">
      <stop
         stop-color="#190031"
         offset="0"
         id="stop14" />
      <stop
         stop-color="#190031"
         offset=".0060577"
         id="stop16" />
      <stop
         stop-color="#5c2d91"
         offset="1"
         id="stop18" />
    </linearGradient>
    <linearGradient
       id="g"
       gradientUnits="userSpaceOnUse"
       gradientTransform="matrix(35.781 -27.409 27.409 35.781 168.84 177.64)"
       x1="0"
       x2="1"
       y1="0"
       y2="0">
      <stop
         stop-color="#190031"
         offset="0"
         id="stop21" />
      <stop
         stop-color="#190031"
         offset=".0060577"
         id="stop23" />
      <stop
         stop-color="#5c2d91"
         offset="1"
         id="stop25" />
    </linearGradient>
    <linearGradient
       id="f"
       gradientUnits="userSpaceOnUse"
       gradientTransform="matrix(35.781 -27.408 27.408 35.781 179.25 191.23)"
       x1="0"
       x2="1"
       y1="0"
       y2="0">
      <stop
         stop-color="#190031"
         offset="0"
         id="stop28" />
      <stop
         stop-color="#190031"
         offset=".0060577"
         id="stop30" />
      <stop
         stop-color="#5c2d91"
         offset="1"
         id="stop32" />
    </linearGradient>
    <linearGradient
       id="e"
       gradientUnits="userSpaceOnUse"
       gradientTransform="matrix(35.781 -27.408 27.408 35.781 172.18 196.02)"
       x1="0"
       x2="1"
       y1="0"
       y2="0">
      <stop
         stop-color="#190031"
         offset="0"
         id="stop35" />
      <stop
         stop-color="#190031"
         offset=".0060577"
         id="stop37" />
      <stop
         stop-color="#5c2d91"
         offset="1"
         id="stop39" />
    </linearGradient>
    <linearGradient
       id="d"
       gradientUnits="userSpaceOnUse"
       gradientTransform="matrix(35.781 -27.408 27.408 35.781 178.4 204.15)"
       x1="0"
       x2="1"
       y1="0"
       y2="0">
      <stop
         stop-color="#190031"
         offset="0"
         id="stop42" />
      <stop
         stop-color="#190031"
         offset=".0060577"
         id="stop44" />
      <stop
         stop-color="#5c2d91"
         offset="1"
         id="stop46" />
    </linearGradient>
    <linearGradient
       id="c"
       gradientUnits="userSpaceOnUse"
       gradientTransform="matrix(35.781 -27.408 27.408 35.781 186.76 215.05)"
       x1="0"
       x2="1"
       y1="0"
       y2="0">
      <stop
         stop-color="#190031"
         offset="0"
         id="stop49" />
      <stop
         stop-color="#190031"
         offset=".0060577"
         id="stop51" />
      <stop
         stop-color="#5c2d91"
         offset="1"
         id="stop53" />
    </linearGradient>
    <linearGradient
       id="b"
       gradientUnits="userSpaceOnUse"
       gradientTransform="matrix(35.781 -27.408 27.408 35.781 168.79 191.6)"
       x1="0"
       x2="1"
       y1="0"
       y2="0">
      <stop
         stop-color="#190031"
         offset="0"
         id="stop56" />
      <stop
         stop-color="#190031"
         offset=".0060577"
         id="stop58" />
      <stop
         stop-color="#5c2d91"
         offset="1"
         id="stop60" />
    </linearGradient>
    <linearGradient
       id="a"
       gradientUnits="userSpaceOnUse"
       gradientTransform="matrix(35.781 -27.408 27.408 35.781 183.97 211.42)"
       x1="0"
       x2="1"
       y1="0"
       y2="0">
      <stop
         stop-color="#190031"
         offset="0"
         id="stop63" />
      <stop
         stop-color="#190031"
         offset=".0060577"
         id="stop65" />
      <stop
         stop-color="#5c2d91"
         offset="1"
         id="stop67" />
    </linearGradient>
    <linearGradient
       id="j"
       gradientUnits="userSpaceOnUse"
       gradientTransform="matrix(45.562 -26.307 26.307 45.562 239.65 178.81)"
       x1="0"
       x2="1"
       y1="0"
       y2="0">
      <stop
         stop-color="#572381"
         offset="0"
         id="stop70" />
      <stop
         stop-color="#111211"
         offset="1"
         id="stop72" />
    </linearGradient>
    <linearGradient
       id="j-6"
       gradientUnits="userSpaceOnUse"
       gradientTransform="matrix(45.562,-26.307,26.307,45.562,127.55,39.49)"
       x1="0"
       x2="1"
       y1="0"
       y2="0">
      <stop
         stop-color="#572381"
         offset="0"
         id="stop7-9" />
      <stop
         stop-color="#111211"
         offset="1"
         id="stop9-2" />
    </linearGradient>
  </defs>
  <path
     inkscape:connector-curvature="0"
     style="fill:#ffffff;fill-opacity:1;stroke-width:0.28819001"
     id="path76"
     d="m 128.24,10.49 c -2.35,0.06 -2.37,2.38 -2.37,2.38 l -0.04,19.58 c 0,3.12 0.73,5.36 1.79,6.96 0.99,1.39 2.34,2.5 3.92,3.21 1.78,0.73 3.48,0.82 4.26,0.82 0.29,0 0.45,-0.02 0.45,-0.02 l 20.51,0 c 2.09,0 1.99,-2.24 1.99,-2.24 l 0,-28.46 c 0,-1.97 -1.77,-2.21 -2.01,-2.23 l -0.2,0 z m 7.48,4.15 10.95,0 c 0.46,0 0.87,0.05 1.24,0.14 0.51,0.08 0.95,0.3 1.33,0.6 0.5,0.4 0.95,1.28 0.97,2.16 0.01,0.66 -0.17,1.13 -0.49,1.56 l 0.01,0 -3.65,4.68 c 2.55,1.36 4.28,4.05 4.28,7.15 0,4.49 -3.62,8.12 -8.09,8.12 -4.19,0 -7.63,-3.19 -8.05,-7.28 l 4.03,0 c 0.39,1.88 2.04,3.28 4.02,3.28 2.27,0 4.1,-1.84 4.1,-4.12 0,-2.25 -1.61,-3.79 -4.05,-4.11 -1.15,0 -2.09,-0.94 -2.09,-2.09 0,-0.5 0.19,-0.98 0.49,-1.33 l 3.69,-4.72 -7.74,0 z" />
  <path
     d="m 0,1.18 0,26.18 c 0,8.18 6.76,15.87 16.32,15.87 9.56,0 16.31,-8.18 16.31,-16.47 0,-8.29 -6.58,-16.25 -16.32,-16.25 -9.73,0 -13.96,7.69 -13.96,7.69 l 0,-17.02 C 2.35,0.53 1.83,0 1.18,0 0.53,0 0,0.53 0,1.18 m 2.4,25.58 c 0,-7.71 6.21,-13.95 13.88,-13.95 7.66,0 13.87,6.24 13.87,13.95 0,7.71 -6.21,13.95 -13.87,13.95 C 8.61,40.71 2.4,34.47 2.4,26.76"
     id="path80"
     style="fill:#ffffff;fill-opacity:1;stroke-width:0.28827"
     inkscape:connector-curvature="0" />
  <path
     d="m 34.13,26.8 c 0,9.03 7.33,16.36 16.36,16.36 5.89,0 11.04,-3.11 13.93,-7.77 0.37,-0.56 0.2,-1.32 -0.36,-1.69 -0.55,-0.37 -1.32,-0.22 -1.69,0.34 -2.45,3.99 -6.85,6.66 -11.88,6.66 -7.68,0 -13.9,-6.22 -13.9,-13.9 0,-7.68 6.22,-13.91 13.9,-13.91 7.25,0 13.21,5.55 13.85,12.63 l -16.2,0 c -0.68,0 -1.22,0.56 -1.22,1.24 0,0.68 0.55,1.23 1.23,1.23 l 17.47,0 c 0.91,0 1.23,-0.64 1.23,-1.19 0,-9.04 -7.32,-16.36 -16.36,-16.36 -9.03,0 -16.36,7.32 -16.36,16.36"
     id="path82"
     style="fill:#ffffff;fill-opacity:1;stroke-width:0.28827"
     inkscape:connector-curvature="0" />
  <path
     d="m 71.54,10.42 z m 0,0 c -1.59,0 -2.79,1.25 -2.87,2.38 l 0,28.37 c 0.08,1.13 1.28,2.38 2.87,2.38 1.58,0 2.79,-1.25 2.87,-2.38 l 0,-28.37 c -0.08,-1.13 -1.29,-2.38 -2.87,-2.38 m -0.01,0 0.01,0 z m 0.01,33.13 m -0.01,0 0.01,0 -0.01,0"
     id="path84"
     style="fill:#ffffff;fill-opacity:1;stroke-width:0.28827"
     inkscape:connector-curvature="0" />
  <path
     d="m 119.5,10.45 z m 0,0 c -1.56,0 -2.74,1.24 -2.83,2.35 l 0,20.91 c 0,0.76 -0.47,2.65 -2.28,3.51 -3.88,1.85 -5.88,-1.7 -5.88,-1.7 L 95.57,15.17 c -1.49,-2.6 -6.1,-6.32 -12.38,-3.99 -6.05,2.49 -6.12,8.78 -6.12,8.78 l 0,21.21 c 0.08,1.13 1.29,2.24 2.87,2.25 1.59,-0.01 2.8,-1.28 2.8,-2.58 l 0,-20.3 c 0,0 -0.29,-4 4.32,-4.41 2.69,-0.16 4.01,2.63 4.01,2.63 0,0 11.78,18.57 12.97,20.42 1.2,1.85 6.03,6 12.31,3.45 6.35,-2.58 5.97,-8.94 5.97,-8.94 l 0.01,-20.9 c -0.09,-1.11 -1.27,-2.34 -2.83,-2.34 m -0.01,0 0.01,0 z m -39.55,32.97 0.01,0 z m -0.01,0 0.01,0 z"
     id="path86"
     style="fill:#ffffff;fill-opacity:1;stroke-width:0.28827"
     inkscape:connector-curvature="0" />
  <path
     d="m 62.58,50.51 0,9.67 c 0,0.46 0.38,0.83 0.84,0.83 0.47,0 0.85,-0.37 0.85,-0.83 l 0,-4.26 3.71,0 c 2.99,0 5.41,-2.42 5.41,-5.41 0,-2.99 -2.42,-5.42 -5.41,-5.42 -3.32,0 -5.4,2.33 -5.4,5.42 m 1.68,0 c 0,-2.17 1.38,-3.8 3.7,-3.8 2.09,0 3.79,1.7 3.79,3.79 0,2.09 -1.7,3.77 -3.79,3.77 l -3.7,0 z"
     id="path88"
     style="fill:#ffffff;fill-opacity:1;stroke-width:0.28827"
     inkscape:connector-curvature="0" />
  <path
     d="m 73.69,53.05 c 0,4.41 3.58,7.99 7.99,7.99 4.4,0 7.99,-3.58 7.99,-7.99 0,-4.41 -3.59,-7.99 -7.99,-7.99 -4.41,0 -7.99,3.58 -7.99,7.99 m 1.79,0 c 0,-3.42 2.78,-6.2 6.2,-6.2 3.42,0 6.2,2.78 6.2,6.2 0,3.42 -2.78,6.2 -6.2,6.2 -3.42,0 -6.2,-2.78 -6.2,-6.2"
     id="path90"
     style="fill:#ffffff;fill-opacity:1;stroke-width:0.28827"
     inkscape:connector-curvature="0" />
  <path
     d="m 101.78,45.66 c -0.49,0 -0.9,0.39 -0.9,0.86 0,0.47 0.41,0.86 0.9,0.86 l 3.55,0 0,12.64 c 0,0.49 0.38,0.89 0.86,0.89 0.47,0 0.86,-0.4 0.86,-0.89 l 0,-12.64 3.5,0 c 0.49,0 0.89,-0.39 0.89,-0.86 0,-0.47 -0.4,-0.86 -0.89,-0.86 z"
     id="path92"
     style="fill:#ffffff;fill-opacity:1;stroke-width:0.28827"
     inkscape:connector-curvature="0" />
  <path
     d="m 55.71,45.06 c -4.29,0 -5.22,3.16 -5.22,4.79 0,1.62 1.3,3.81 5.26,3.81 3.96,0 3.79,2.35 3.79,2.44 0,0.09 0.21,3.08 -3.78,3.07 -3.27,0 -3.66,-2.51 -3.62,-3.28 0,-0.46 -0.36,-0.81 -0.82,-0.81 -0.45,0 -0.82,0.35 -0.82,0.81 -0.07,2.74 2.09,4.94 5.23,4.94 3.94,0 5.47,-2.43 5.47,-4.71 0,-2.28 -1.8,-4.13 -5.46,-4.13 -3.66,0 -3.62,-2.1 -3.62,-2.1 0,0 -0.24,-3.21 3.63,-3.21 3.87,0 3.57,3.49 3.57,3.49 0,0.45 0.36,0.81 0.81,0.81 0.45,0 0.81,-0.36 0.81,-0.81 0,-5 -4.81,-5.11 -5.2,-5.11 l -0.03,0"
     id="path94"
     style="fill:#ffffff;fill-opacity:1;stroke-width:0.28827"
     inkscape:connector-curvature="0" />
  <path
     d="m 90.47,50.51 0.01,9.67 c 0,0.46 0.38,0.83 0.84,0.83 0.47,0 0.84,-0.37 0.84,-0.83 l 0,-4.26 3.64,0 2.83,4.62 c 0.23,0.41 0.76,0.55 1.16,0.32 0.41,-0.24 0.55,-0.76 0.32,-1.17 l -2.48,-4.06 c 2.12,-0.74 3.66,-2.75 3.66,-5.12 0,-2.99 -2.43,-5.42 -5.42,-5.42 -3.3,0 -5.4,2.33 -5.4,5.42 m 1.68,0 c 0,-2.17 1.39,-3.8 3.7,-3.8 2.1,0 3.79,1.7 3.79,3.79 0,2.09 -1.69,3.77 -3.79,3.77 l -3.69,0 z"
     id="path96"
     style="fill:#ffffff;fill-opacity:1;stroke-width:0.28827"
     inkscape:connector-curvature="0" />
  <path
     d="m 120.4,50.28 c 0,0 0.3,-3.49 -3.56,-3.49 -3.87,0 -3.63,3.21 -3.63,3.21 0,0 -0.04,2.1 3.62,2.1 3.66,0 5.46,1.85 5.46,4.13 0,2.27 -1.53,4.7 -5.47,4.7 -3.15,0 -5.31,-2.19 -5.24,-4.93 0,-0.46 0.38,-0.81 0.83,-0.81 0.45,0 0.82,0.35 0.82,0.81 -0.04,0.77 0.35,3.27 3.62,3.28 3.99,0.01 3.78,-2.98 3.78,-3.07 0,-0.09 0.17,-2.45 -3.79,-2.45 -3.96,0 -5.26,-2.18 -5.26,-3.81 0,-1.62 0.93,-4.78 5.22,-4.78 0,0 5.23,-0.11 5.23,5.11 0,0.45 -0.36,0.81 -0.81,0.81 -0.45,0 -0.82,-0.36 -0.82,-0.81"
     id="path98"
     style="fill:#ffffff;fill-opacity:1;stroke-width:0.28827"
     inkscape:connector-curvature="0" />
  <path
     inkscape:connector-curvature="0"
     id="path72756"
     style="fill:#ffffff;fill-opacity:1;fill-rule:nonzero;stroke:none"
     d="m 128.04871,5.2063857 c 0.12037,0 0.23347,-0.024235 0.33849,-0.07109 0.10421,-0.047695 0.19469,-0.1130985 0.27063,-0.1954988 0.0768,-0.0824 0.13653,-0.1761104 0.18096,-0.2811304 0.0445,-0.1042121 0.0671,-0.2140792 0.0671,-0.3279854 0,-0.2286205 -0.0816,-0.4297741 -0.24316,-0.6050767 -0.16157,-0.1736869 -0.36596,-0.2617421 -0.61397,-0.2617421 l -0.68505,0 0,1.7425238 0.68505,0 z m -2.20865,-3.1699876 2.22723,0 c 0.33041,0 0.63659,0.060556 0.91933,0.1809575 0.28194,0.120369 0.52672,0.2835539 0.73272,0.4903625 0.20681,0.2060007 0.36838,0.4483545 0.48552,0.7278692 0.11794,0.2795147 0.17611,0.5776099 0.17611,0.8950934 0,0.3174834 -0.0582,0.6155786 -0.17611,0.8942855 -0.11714,0.2795147 -0.27871,0.5226763 -0.48552,0.7286771 -0.206,0.2060007 -0.45078,0.3699934 -0.73272,0.4903625 -0.28274,0.120369 -0.58892,0.1809575 -0.91933,0.1809575 l -0.70363,0 0,2.1706821 -1.5236,0 0,-6.7592473 z" />
  <path
     inkscape:connector-curvature="0"
     id="path72760"
     style="fill:#ffffff;fill-opacity:1;fill-rule:nonzero;stroke:none"
     d="m 134.2844,7.40542 c 0.27305,0 0.52672,-0.052478 0.7618,-0.1575299 0.23427,-0.1042122 0.43785,-0.2472009 0.60911,-0.4281584 0.17127,-0.1801497 0.30618,-0.3918053 0.40474,-0.6325434 0.0977,-0.241546 0.14702,-0.498441 0.14702,-0.7714929 0,-0.273052 -0.0493,-0.529947 -0.14702,-0.7706851 -0.0986,-0.2415459 -0.23347,-0.4523937 -0.40474,-0.6333512 -0.17126,-0.1809575 -0.37484,-0.3239463 -0.60911,-0.4281584 -0.23508,-0.10502 -0.48875,-0.15753 -0.7618,-0.15753 -0.27305,0 -0.52672,0.052542 -0.7618,0.15753 -0.23508,0.1042121 -0.43785,0.2472009 -0.60911,0.4281584 -0.17127,0.1809575 -0.30618,0.3918053 -0.40474,0.6333512 -0.0985,0.2407381 -0.14783,0.4976331 -0.14783,0.7706851 0,0.2730519 0.0493,0.5299469 0.14783,0.7714929 0.0986,0.2407381 0.23347,0.4523937 0.40474,0.6325434 0.17126,0.1809575 0.37403,0.3239462 0.60911,0.4281584 0.23508,0.10502 0.48875,0.1575299 0.7618,0.1575299 m 0,1.4654327 c -0.47582,0 -0.92337,-0.089671 -1.34264,-0.2706284 -0.41846,-0.1809575 -0.78523,-0.4289663 -1.09948,-0.7424105 -0.31344,-0.3142521 -0.56145,-0.6810142 -0.74241,-1.0994784 -0.18096,-0.4192721 -0.27144,-0.8668187 -0.27144,-1.34264 0,-0.4758213 0.0905,-0.923368 0.27144,-1.3426401 0.18096,-0.4184642 0.42897,-0.7852263 0.74241,-1.0986705 0.31425,-0.3142521 0.68102,-0.5622608 1.09948,-0.7432183 0.41927,-0.1809575 0.86682,-0.2714363 1.34264,-0.2714363 0.47582,0 0.92337,0.090479 1.34264,0.2714363 0.41846,0.1809575 0.78523,0.4289662 1.09867,0.7432183 0.31425,0.3134442 0.56226,0.6802063 0.74322,1.0986705 0.18015,0.4192721 0.27143,0.8668188 0.27143,1.3426401 0,0.4758213 -0.0913,0.9233679 -0.27143,1.34264 -0.18096,0.4184642 -0.42897,0.7852263 -0.74322,1.0994784 -0.31344,0.3134442 -0.68021,0.561453 -1.09867,0.7424105 -0.41927,0.1809575 -0.86682,0.2706284 -1.34264,0.2706284" />
  <path
     inkscape:connector-curvature="0"
     id="path72764"
     style="fill:#ffffff;fill-opacity:1;fill-rule:nonzero;stroke:none"
     d="m 140.90987,5.2063857 c 0.12037,0 0.23347,-0.024235 0.33849,-0.07109 0.10421,-0.047695 0.19469,-0.1130985 0.27062,-0.1954988 0.0768,-0.0824 0.13653,-0.1761104 0.18096,-0.2811304 0.0445,-0.1042121 0.067,-0.2140792 0.067,-0.3279854 0,-0.2286205 -0.0816,-0.4297741 -0.24316,-0.6050767 -0.16157,-0.1736869 -0.36676,-0.2617421 -0.61396,-0.2617421 l -0.68506,0 0,1.7425238 0.68506,0 z m -2.20865,-3.1699876 2.22723,0 c 0.33041,0 0.63658,0.060556 0.91933,0.1809575 0.28194,0.120369 0.52671,0.2835539 0.73271,0.4903625 0.20681,0.2060007 0.36838,0.4483545 0.48552,0.7278692 0.11714,0.2795147 0.17611,0.5776099 0.17611,0.8950934 0,0.3174834 -0.059,0.6155786 -0.17611,0.8942855 -0.11714,0.2795147 -0.27871,0.5226763 -0.48552,0.7286771 -0.206,0.2060007 -0.45077,0.3699934 -0.73271,0.4903625 -0.28275,0.120369 -0.58892,0.1809575 -0.91933,0.1809575 l -0.70364,0 0,2.1706821 -1.52359,0 0,-6.7592473 z" />
  <path
     d="m 143.77546,5.4251504 2.70305,0 0,1.3709146 -2.70305,0 0,-1.3709146 z"
     style="fill:#ffffff;fill-opacity:1;fill-rule:nonzero;stroke:none"
     id="path72766"
     inkscape:connector-curvature="0" />
  <path
     inkscape:connector-curvature="0"
     id="path72770"
     style="fill:#ffffff;fill-opacity:1;fill-rule:nonzero;stroke:none"
     d="m 150.22983,8.8711758 c -0.40635,0 -0.77877,-0.067051 -1.11887,-0.199538 -0.3393,-0.1332945 -0.63093,-0.3239462 -0.8749,-0.5711471 -0.24478,-0.2480087 -0.43543,-0.5436803 -0.57195,-0.8902462 -0.13653,-0.3457581 -0.20439,-0.7311007 -0.20439,-1.1568355 l 0,-4.0174181 1.52279,0 0,4.0368064 c 0,0.4120015 0.11472,0.7375634 0.34253,0.9750701 0.22862,0.2383146 0.52994,0.3578758 0.90479,0.3578758 0.37403,0 0.67616,-0.1195612 0.90398,-0.3578758 0.22862,-0.2375067 0.34333,-0.5630686 0.34333,-0.9750701 l 0,-4.0368064 1.52279,0 0,4.0174181 c 0,0.4257348 -0.0679,0.8110774 -0.20439,1.1568355 -0.13733,0.3465659 -0.32717,0.6422375 -0.57195,0.8902462 -0.24397,0.2472009 -0.5356,0.4378526 -0.8749,0.5711471 -0.33929,0.1324868 -0.71252,0.199538 -1.11886,0.199538" />
  <path
     inkscape:connector-curvature="0"
     id="path72774"
     style="fill:#ffffff;fill-opacity:1;fill-rule:nonzero;stroke:none"
     d="m 156.41736,5.2063857 c 0.12117,0 0.23346,-0.024235 0.33768,-0.07109 0.10582,-0.047695 0.1955,-0.1130985 0.27224,-0.1954988 0.0759,-0.0824 0.13653,-0.1761104 0.18015,-0.2811304 0.0444,-0.1042121 0.0671,-0.2140792 0.0671,-0.3279854 0,-0.2286205 -0.0808,-0.4297741 -0.24316,-0.6050767 -0.16157,-0.1736869 -0.36595,-0.2617421 -0.61396,-0.2617421 l -0.68586,0 0,1.7425238 0.68586,0 z m -2.20865,-3.1699876 2.22804,0 c 0.3304,0 0.63577,0.060556 0.91771,0.1809575 0.28355,0.120369 0.52752,0.2835539 0.73433,0.4903625 0.206,0.2060007 0.36757,0.4483545 0.48471,0.7278692 0.11794,0.2795147 0.17692,0.5776099 0.17692,0.8950934 0,0.3174834 -0.059,0.6155786 -0.17692,0.8942855 -0.11714,0.2795147 -0.27871,0.5226763 -0.48471,0.7286771 -0.20681,0.2060007 -0.45078,0.3699934 -0.73433,0.4903625 -0.28194,0.120369 -0.58731,0.1809575 -0.91771,0.1809575 l -0.70525,0 0,2.1706821 -1.52279,0 0,-6.7592473 z" />
</svg>
