<?xml version="1.0" encoding="UTF-8" standalone="no"?>
<!-- Created with Inkscape (http://www.inkscape.org/) -->

<svg
   xmlns:dc="http://purl.org/dc/elements/1.1/"
   xmlns:cc="http://creativecommons.org/ns#"
   xmlns:rdf="http://www.w3.org/1999/02/22-rdf-syntax-ns#"
   xmlns:svg="http://www.w3.org/2000/svg"
   xmlns="http://www.w3.org/2000/svg"
   xmlns:sodipodi="http://sodipodi.sourceforge.net/DTD/sodipodi-0.dtd"
   xmlns:inkscape="http://www.inkscape.org/namespaces/inkscape"
   width="1066.6666"
   height="806.37042"
   id="svg2"
   version="1.1"
   inkscape:version="0.92.0 r15299"
   sodipodi:docname="Bravo.svg"
   viewBox="0 0 1000 755.97229">
  <defs
     id="defs4" />
  <sodipodi:namedview
     id="base"
     pagecolor="#ffffff"
     bordercolor="#666666"
     borderopacity="1.0"
     inkscape:pageopacity="0.0"
     inkscape:pageshadow="2"
     inkscape:zoom="0.80433396"
     inkscape:cx="106.10651"
     inkscape:cy="414.57532"
     inkscape:document-units="px"
     inkscape:current-layer="layer1"
     showgrid="false"
     fit-margin-left="0.5"
     fit-margin-bottom="0.5"
     fit-margin-top="0.5"
     fit-margin-right="0.5"
     inkscape:window-width="1920"
     inkscape:window-height="1017"
     inkscape:window-x="-8"
     inkscape:window-y="-8"
     inkscape:window-maximized="1">
    <inkscape:grid
       type="xygrid"
       id="grid2996"
       empspacing="5"
       visible="true"
       enabled="true"
       snapvisiblegridlinesonly="true"
       originx="-59.500002"
       originy="-83.771965"
       spacingx="1"
       spacingy="1" />
  </sodipodi:namedview>
  <metadata
     id="metadata7">
    <rdf:RDF>
      <cc:Work
         rdf:about="">
        <dc:format>image/svg+xml</dc:format>
        <dc:type
           rdf:resource="http://purl.org/dc/dcmitype/StillImage" />
        <dc:title />
      </cc:Work>
    </rdf:RDF>
  </metadata>
  <g
     inkscape:label="Layer 1"
     inkscape:groupmode="layer"
     id="layer1"
     transform="translate(-59.5,-212.61791)">
    <path
       style="fill:#ffffff;fill-opacity:1;stroke:none;stroke-width:1.0666666"
       d="M 0.53320312 0.53320312 L 0.53320312 805.83789 L 222.62305 595.67188 L 1066.1328 595.67188 L 1066.1328 0.53320312 L 0.53320312 0.53320312 z M 134.79883 140.14062 L 134.79883 247.76562 C 134.79883 247.76567 150.38645 222.625 189.01172 222.625 C 238.13606 222.625 275.89062 261.10454 275.89062 314 C 275.89062 362.36838 242.48037 405.07617 188.94531 405.07617 C 150.00004 405.07617 134.79883 379.90039 134.79883 379.90039 L 134.79883 400.67969 L 96.4375 400.67969 L 96.4375 175.30469 L 134.79883 140.14062 z M 390.00977 222.55273 C 406.73636 222.55273 418.85352 227.17578 418.85352 227.17578 L 410.2168 265.02148 C 410.2168 265.02148 397.33932 258.85352 381.69141 258.85352 C 351.92756 258.85352 339.92773 280.13016 339.92773 304.22852 L 339.92773 400.66602 L 301.56445 400.66602 L 301.56445 226.97266 L 339.39453 226.97266 L 339.39453 246.14844 C 339.39453 246.14844 352.11284 222.55273 390.00977 222.55273 z M 895.07031 222.55859 C 944.04744 222.55859 987.97852 257.67923 987.97852 313.86719 C 987.97852 364.63507 950.10522 405.10938 894.63867 405.10938 C 837.06458 405.10937 801.19922 362.14268 801.19922 313.80078 C 801.19922 265.02636 836.84879 222.55859 895.07031 222.55859 z M 506.19336 222.625 C 544.81863 222.625 560.40625 247.76565 560.40625 247.76562 L 560.40625 226.97266 L 598.76758 226.97266 L 598.76758 400.67969 L 560.40625 400.67969 L 560.40625 379.90039 C 560.40625 379.90039 545.20503 405.07617 506.25977 405.07617 C 452.72471 405.07617 419.31445 362.36838 419.31445 314 C 419.31445 261.10454 457.06902 222.625 506.19336 222.625 z M 617.10547 226.97266 L 658.54688 226.97266 L 709.79688 361.07227 L 760.89258 226.97266 L 801.26758 226.97266 L 731.86523 400.66602 L 686.7793 400.66602 L 617.10547 226.97266 z M 894.53906 258.25586 C 862.14697 258.25586 840.19336 283.80956 840.19336 313.80078 C 840.19336 345.78592 862.88521 369.44531 894.63867 369.44531 C 924.09032 369.44531 949.15039 347.05101 949.15039 314 C 949.15039 279.26321 923.7755 258.25586 894.53906 258.25586 z M 184.38281 258.28906 C 152.95253 258.28906 132.26758 282.4165 132.26758 313.76758 C 132.26758 348.91039 156.19651 369.27734 184.38281 369.27734 C 215.09803 369.27734 236.76367 346.53542 236.76367 313.66602 C 236.76367 280.28296 214.6175 258.28906 184.38281 258.28906 z M 510.82227 258.28906 C 480.58759 258.28906 458.44141 280.28296 458.44141 313.66602 C 458.44141 346.53542 480.10705 369.27734 510.82227 369.27734 C 539.00857 369.27734 562.9375 348.91039 562.9375 313.76758 C 562.9375 282.4165 542.25255 258.28906 510.82227 258.28906 z "
       transform="matrix(0.93750003,0,0,0.93750003,59.5,212.61791)"
       id="path3018" />
  </g>
</svg>
