<?xml version="1.0" encoding="UTF-8" standalone="no"?>
<svg
   xmlns:dc="http://purl.org/dc/elements/1.1/"
   xmlns:cc="http://creativecommons.org/ns#"
   xmlns:rdf="http://www.w3.org/1999/02/22-rdf-syntax-ns#"
   xmlns:svg="http://www.w3.org/2000/svg"
   xmlns="http://www.w3.org/2000/svg"
   xmlns:sodipodi="http://sodipodi.sourceforge.net/DTD/sodipodi-0.dtd"
   xmlns:inkscape="http://www.inkscape.org/namespaces/inkscape"
   width="445.76001pt"
   height="331.08304pt"
   viewBox="0 0 445.76001 331.08304"
   version="1.1"
   id="svg2"
   inkscape:version="0.91 r13725"
   sodipodi:docname="Bravo Plus 1 - Dark.svg">
  <metadata
     id="metadata45">
    <rdf:RDF>
      <cc:Work
         rdf:about="">
        <dc:format>image/svg+xml</dc:format>
        <dc:type
           rdf:resource="http://purl.org/dc/dcmitype/StillImage" />
        <dc:title />
      </cc:Work>
    </rdf:RDF>
  </metadata>
  <defs
     id="defs43" />
  <sodipodi:namedview
     pagecolor="#ffffff"
     bordercolor="#666666"
     borderopacity="1"
     objecttolerance="10"
     gridtolerance="10"
     guidetolerance="10"
     inkscape:pageopacity="0"
     inkscape:pageshadow="2"
     inkscape:window-width="1920"
     inkscape:window-height="1017"
     id="namedview41"
     showgrid="false"
     fit-margin-top="0"
     fit-margin-left="0"
     fit-margin-right="0"
     fit-margin-bottom="0"
     inkscape:zoom="1.06"
     inkscape:cx="137.72046"
     inkscape:cy="205.75001"
     inkscape:current-layer="svg2"
     inkscape:window-x="-8"
     inkscape:window-y="-8"
     inkscape:window-maximized="1" />
  <path
     style="opacity:1;fill:#000000;fill-opacity:1"
     inkscape:connector-curvature="0"
     id="path15"
     d="m 223.38656,259.77304 c 1.33,-0.93 3.07,-0.54 4.6,-0.67 70.99,0.07 141.99,0 212.98,0.04 2.52,-0.42 4.92,1.8 4.51,4.37 0.01,20.64 0.03,41.28 -0.01,61.92 0.24,2.41 -2.15,4.25 -4.42,3.92 -71.7,0 -143.4,0.02 -215.1,-0.01 -2.22,0.3 -4.44,-1.57 -4.27,-3.86 -0.07,-20.33 0.02,-40.66 -0.04,-60.99 -0.06,-1.73 0.06,-3.77 1.75,-4.72 m 14.46,12.17 c 0.07,14.74 0.02,29.48 0.02,44.23 4.03,0 8.06,-0.01 12.09,0.01 0.01,-4.79 0,-9.59 0,-14.38 6.42,-0.09 13.57,0.65 19.09,-3.3 5.56,-4.08 6.2,-12.13 4.16,-18.23 -1.96,-5.71 -8.32,-8.14 -13.89,-8.31 -7.16,-0.16 -14.32,-0.11 -21.47,-0.02 m 40.8,-0.05 c 0.03,14.76 0.01,29.52 0.02,44.29 10.68,-0.02 21.36,-0.01 32.04,-0.01 0,-3.54 -0.01,-7.09 0.02,-10.63 -6.53,-0.04 -13.05,0.01 -19.58,0.02 -0.13,-11.24 0.05,-22.47 -0.09,-33.7 -4.14,0.04 -8.27,-0.01 -12.41,0.03 m 34.14,-0.01 c 0.01,8.2 0.01,16.4 0,24.61 -0.06,4.73 0.66,9.73 3.52,13.65 2.89,4.08 7.87,6.14 12.73,6.58 5.86,0.54 12.31,-0.29 16.9,-4.28 4.23,-3.68 5.72,-9.49 5.73,-14.91 0.04,-8.55 0,-17.11 0.02,-25.66 -4.18,0.01 -8.36,0.01 -12.53,0 -0.22,9.56 0.44,19.18 -0.35,28.71 -0.46,4.54 -5.82,6.73 -9.69,4.82 -2.95,-1.35 -3.77,-4.9 -3.8,-7.85 -0.05,-8.56 0,-17.12 -0.01,-25.67 -4.17,-0.01 -8.35,-0.01 -12.52,0 m 45.53,9.49 c -1.2,4.58 -0.53,10.31 3.47,13.37 5.23,4.13 12.29,3.95 18.11,6.75 1.88,0.8 1.63,3.78 -0.31,4.31 -5.96,1.58 -12.09,-0.87 -17.17,-3.88 -2.03,3.19 -3.99,6.41 -5.99,9.62 8.62,5.19 19.7,7.13 29.24,3.44 8.11,-2.99 10.39,-14.77 4.73,-20.97 -5.03,-4.87 -12.43,-5.08 -18.64,-7.5 -2.1,-0.48 -2.27,-3.6 -0.24,-4.29 5.4,-1.49 10.99,0.76 15.51,3.67 1.97,-3.22 3.96,-6.42 5.96,-9.63 -6.66,-4.6 -15.19,-5.94 -23.07,-4.55 -5.15,0.95 -10.23,4.39 -11.6,9.66 m 62.97,-9.5 c -1.2,4.21 -5.36,6.08 -9.44,6.11 0.01,2.56 0.01,5.12 0.01,7.69 2.49,0 4.98,-0.01 7.48,0 -0.01,10.16 0,20.33 0,30.5 4.01,-0.01 8.03,0.01 12.06,-0.01 -0.02,-14.76 -0.02,-29.51 0,-44.27 -3.38,-0.02 -6.75,-0.03 -10.11,-0.02 z" />
  <path
     style="opacity:1;fill:#060000"
     inkscape:connector-curvature="0"
     id="path17"
     d="m 249.96656,281.89304 c 2.86,0.02 5.75,-0.22 8.6,0.18 4.45,0.65 4.7,8.19 0.52,9.4 -3,0.63 -6.09,0.24 -9.12,0.32 -0.01,-3.31 -0.01,-6.6 0,-9.9 z" />
  <path
     style="opacity:1;fill:#ffffff"
     inkscape:connector-curvature="0"
     id="path31"
     d="m 237.84656,271.94304 c 7.15,-0.09 14.31,-0.14 21.47,0.02 5.57,0.17 11.93,2.6 13.89,8.31 2.04,6.1 1.4,14.15 -4.16,18.23 -5.52,3.95 -12.67,3.21 -19.09,3.3 0,4.79 0.01,9.59 0,14.38 -4.03,-0.02 -8.06,-0.01 -12.09,-0.01 0,-14.75 0.05,-29.49 -0.02,-44.23 m 12.12,9.95 c -0.01,3.3 -0.01,6.59 0,9.9 3.03,-0.08 6.12,0.31 9.12,-0.32 4.18,-1.21 3.93,-8.75 -0.52,-9.4 -2.85,-0.4 -5.74,-0.16 -8.6,-0.18 z" />
  <path
     style="opacity:1;fill:#ffffff"
     inkscape:connector-curvature="0"
     id="path33"
     d="m 278.64656,271.89304 c 4.14,-0.04 8.27,0.01 12.41,-0.03 0.14,11.23 -0.04,22.46 0.09,33.7 6.53,-0.01 13.05,-0.06 19.58,-0.02 -0.03,3.54 -0.02,7.09 -0.02,10.63 -10.68,0 -21.36,-0.01 -32.04,0.01 -0.01,-14.77 0.01,-29.53 -0.02,-44.29 z" />
  <path
     style="opacity:1;fill:#ffffff"
     inkscape:connector-curvature="0"
     id="path35"
     d="m 312.78656,271.88304 c 4.17,-0.01 8.35,-0.01 12.52,0 0.01,8.55 -0.04,17.11 0.01,25.67 0.03,2.95 0.85,6.5 3.8,7.85 3.87,1.91 9.23,-0.28 9.69,-4.82 0.79,-9.53 0.13,-19.15 0.35,-28.71 4.17,0.01 8.35,0.01 12.53,0 -0.02,8.55 0.02,17.11 -0.02,25.66 -0.01,5.42 -1.5,11.23 -5.73,14.91 -4.59,3.99 -11.04,4.82 -16.9,4.28 -4.86,-0.44 -9.84,-2.5 -12.73,-6.58 -2.86,-3.92 -3.58,-8.92 -3.52,-13.65 0.01,-8.21 0.01,-16.41 0,-24.61 z" />
  <path
     style="opacity:1;fill:#ffffff"
     inkscape:connector-curvature="0"
     id="path37"
     d="m 358.31656,281.37304 c 1.37,-5.27 6.45,-8.71 11.6,-9.66 7.88,-1.39 16.41,-0.05 23.07,4.55 -2,3.21 -3.99,6.41 -5.96,9.63 -4.52,-2.91 -10.11,-5.16 -15.51,-3.67 -2.03,0.69 -1.86,3.81 0.24,4.29 6.21,2.42 13.61,2.63 18.64,7.5 5.66,6.2 3.38,17.98 -4.73,20.97 -9.54,3.69 -20.62,1.75 -29.24,-3.44 2,-3.21 3.96,-6.43 5.99,-9.62 5.08,3.01 11.21,5.46 17.17,3.88 1.94,-0.53 2.19,-3.51 0.31,-4.31 -5.82,-2.8 -12.88,-2.62 -18.11,-6.75 -4,-3.06 -4.67,-8.79 -3.47,-13.37 z" />
  <path
     style="opacity:1;fill:#ffffff"
     inkscape:connector-curvature="0"
     id="path39"
     d="m 421.28656,271.87304 c 3.36,-0.01 6.73,0 10.11,0.02 -0.02,14.76 -0.02,29.51 0,44.27 -4.03,0.02 -8.05,0 -12.06,0.01 0,-10.17 -0.01,-20.34 0,-30.5 -2.5,-0.01 -4.99,0 -7.48,0 0,-2.57 0,-5.13 -0.01,-7.69 4.08,-0.03 8.24,-1.9 9.44,-6.11 z" />
  <g
     transform="matrix(0.95105232,0,0,0.95105232,-118.87191,-374.33161)"
     id="layer1">
    <rect
       width="434.8743"
       height="256.79745"
       ry="0"
       x="124.98988"
       y="393.59729"
       id="rect4494"
       style="fill:#000000;fill-opacity:1;stroke:#ff0000;stroke-width:0;stroke-linejoin:miter;stroke-miterlimit:4;stroke-dasharray:none" />
    <rect
       width="61.906532"
       height="256.79745"
       ry="30.953266"
       x="531.78522"
       y="393.59729"
       id="rect4496"
       style="fill:#000000;fill-opacity:1;stroke:#ff0000;stroke-width:0;stroke-linejoin:miter;stroke-miterlimit:4;stroke-dasharray:none" />
    <path
       d="m 164.73234,648.8662 0,91.71338 94.77049,-94.00622 -45.09241,-29.04257 -49.67808,31.33541 z"
       id="path4500"
       style="fill:#000000;fill-rule:evenodd;stroke:#000000;stroke-width:0.95027035px;stroke-linecap:butt;stroke-linejoin:miter;stroke-opacity:1"
       inkscape:connector-curvature="0" />
    <rect
       width="57.320866"
       height="165.08409"
       ry="0"
       x="164.73235"
       y="437.16116"
       id="rect4502"
       style="fill:#00b8db;fill-opacity:1;stroke:#ff0000;stroke-width:0;stroke-linejoin:miter;stroke-miterlimit:4;stroke-dasharray:none" />
    <rect
       width="36.330795"
       height="72.170456"
       ry="16.864321"
       x="204.47481"
       y="442.72903"
       id="rect4504"
       style="fill:#00b8da;fill-opacity:1;stroke:#ff0000;stroke-width:0;stroke-linejoin:miter;stroke-miterlimit:4;stroke-dasharray:none" />
    <rect
       width="29.80685"
       height="139.86292"
       ry="0"
       x="256.44574"
       y="463.14661"
       id="rect4508"
       style="fill:#00b8db;fill-opacity:1;stroke:#ff0000;stroke-width:0;stroke-linejoin:miter;stroke-miterlimit:4;stroke-dasharray:none" />
    <path
       d="m 283.95975,478.43216 c 5.88376,-15.32787 16.1758,-15.22681 25.98545,-16.81412 l -1.52856,34.39252 c -9.22892,-0.2879 -18.01504,1.63816 -25.22118,11.46416 l 0.76429,-29.04256 z"
       id="path4510"
       style="fill:#00b8db;fill-opacity:1;fill-rule:evenodd;stroke:#000000;stroke-width:0;stroke-linecap:butt;stroke-linejoin:miter;stroke-miterlimit:4;stroke-dasharray:none;stroke-opacity:1"
       inkscape:connector-curvature="0" />
    <rect
       width="74.134987"
       height="142.15573"
       ry="29.99485"
       x="316.82373"
       y="462.38232"
       id="rect5021"
       style="fill:#00b8db;fill-opacity:1;stroke:#ff0000;stroke-width:0;stroke-linejoin:miter;stroke-miterlimit:4;stroke-dasharray:none" />
    <path
       d="m 314.53086,545.68864 c 2.55899,-12.71274 20.17795,-22.68731 45.09242,-31.33541 l 0,-23.47322 -14.07887,-0.004 -0.44242,18.89118 -29.80684,0 -5.34995,34.39251 4.58566,1.52856 z"
       id="path5023"
       style="fill:#000000;fill-rule:evenodd;stroke:#000000;stroke-width:0;stroke-linecap:butt;stroke-linejoin:miter;stroke-miterlimit:4;stroke-dasharray:none;stroke-opacity:1"
       inkscape:connector-curvature="0" />
    <rect
       width="26.83914"
       height="34.961224"
       ry="0"
       x="364.26138"
       y="569.43372"
       id="rect5027"
       style="fill:#00b8db;fill-opacity:1;stroke:#ff0000;stroke-width:0;stroke-linejoin:miter;stroke-miterlimit:4;stroke-dasharray:none" />
    <path
       d="m 341.28061,604.53806 c 13.24918,0.30673 16.69997,-5.86402 20.10435,-11.46418 l -0.23312,16.81413 -14.5213,2.29283 -5.34993,-7.64278 z"
       id="path5029"
       style="fill:#000000;fill-rule:evenodd;stroke:#000000;stroke-width:0.95027035px;stroke-linecap:butt;stroke-linejoin:miter;stroke-opacity:1"
       inkscape:connector-curvature="0" />
    <path
       d="m 357.90213,589.90436 a 22.519686,14.47694 0 1 1 -45.03937,0 22.519686,14.47694 0 1 1 45.03937,0 z"
       transform="matrix(0.9502703,0,0,1.6893696,19.519488,-415.72102)"
       id="path5031"
       style="fill:#00b8db;fill-opacity:1;stroke:#ff0000;stroke-width:0;stroke-linejoin:miter;stroke-miterlimit:4;stroke-dasharray:none"
       inkscape:connector-curvature="0" />
    <path
       d="m 361.02897,541.10296 0.12287,31.33541 c -0.12698,3.84124 -8.1459,11.24778 -14.5213,3.05711 -1.23056,-22.40216 -1.78592,-30.75149 14.39843,-34.39252 z"
       id="path5025"
       style="fill:#000000;fill-rule:evenodd;stroke:#000000;stroke-width:0;stroke-linecap:butt;stroke-linejoin:miter;stroke-miterlimit:4;stroke-dasharray:none;stroke-opacity:1"
       inkscape:connector-curvature="0" />
    <path
       d="m 221.74876,436.9193 c 9.31947,0.5414 18.71852,3.966 18.80272,19.20278 l -24.60357,-0.40006 5.80085,-18.80272 z"
       id="path5033"
       style="fill:#00b8da;fill-opacity:1;fill-rule:evenodd;stroke:#000000;stroke-width:0;stroke-linecap:butt;stroke-linejoin:miter;stroke-miterlimit:4;stroke-dasharray:none;stroke-opacity:1"
       inkscape:connector-curvature="0" />
    <path
       d="m 216.20548,436.8919 c 17.47506,0 28.81531,4.59155 28.38767,18.24922 l -0.50691,46.12997 c -1.27655,5.86175 -3.05783,14.52363 -16.72846,15.7146 6.26204,1.30182 15.07248,1.01396 18.75615,15.20768 l -0.50693,47.14381 c -0.0212,10.78741 -5.14078,24.5544 -23.31844,23.82536 l -24.3323,-0.50692 15.71461,-30.92228 1.01385,-75.53149 -48.66458,-58.80302 50.18534,-0.50693 z"
       id="path5035"
       style="fill:#00b8db;fill-opacity:1;fill-rule:evenodd;stroke:#000000;stroke-width:0;stroke-linecap:butt;stroke-linejoin:miter;stroke-miterlimit:4;stroke-dasharray:none;stroke-opacity:1"
       inkscape:connector-curvature="0" />
    <rect
       width="433.92581"
       height="21.797674"
       ry="0"
       x="152.33324"
       y="602.14868"
       id="rect5037"
       style="fill:#000000;fill-opacity:1;stroke:#ff0000;stroke-width:0;stroke-linejoin:miter;stroke-miterlimit:4;stroke-dasharray:none" />
    <rect
       width="28.544123"
       height="45.276886"
       ry="10.334942"
       x="184.87856"
       y="462.09137"
       id="rect5039"
       style="fill:#000000;fill-opacity:1;stroke:#ff0000;stroke-width:0;stroke-linejoin:miter;stroke-miterlimit:4;stroke-dasharray:none" />
    <rect
       width="28.544123"
       height="45.276886"
       ry="10.334942"
       x="185.37068"
       y="530.99097"
       id="rect5041"
       style="fill:#000000;fill-opacity:1;stroke:#ff0000;stroke-width:0;stroke-linejoin:miter;stroke-miterlimit:4;stroke-dasharray:none" />
    <rect
       width="27.559845"
       height="138.78349"
       ry="0"
       x="171.09863"
       y="454.21713"
       id="rect5043"
       style="fill:#00b9db;fill-opacity:1;stroke:#ff0000;stroke-width:0;stroke-linejoin:miter;stroke-miterlimit:4;stroke-dasharray:none" />
    <rect
       width="78.742416"
       height="143.7049"
       ry="39.371208"
       x="483.11542"
       y="462.09137"
       id="rect5045"
       style="fill:#00b9db;fill-opacity:1;stroke:#ff0000;stroke-width:0;stroke-linejoin:miter;stroke-miterlimit:4;stroke-dasharray:none" />
    <rect
       width="32.481243"
       height="132.87781"
       ry="0"
       x="559.88928"
       y="470.94992"
       id="rect5047"
       style="fill:#000000;fill-opacity:1;stroke:#ff0000;stroke-width:0;stroke-linejoin:miter;stroke-miterlimit:4;stroke-dasharray:none" />
    <rect
       width="34.449802"
       height="132.87781"
       ry="0"
       x="450.14206"
       y="465.53641"
       id="rect5049"
       style="fill:#000000;fill-opacity:1;stroke:#ff0000;stroke-width:0;stroke-linejoin:miter;stroke-miterlimit:4;stroke-dasharray:none" />
    <rect
       width="16.732761"
       height="90.553772"
       ry="8.3663807"
       x="512.6438"
       y="488.66696"
       id="rect5051"
       style="fill:#000000;fill-opacity:1;stroke:#ff0000;stroke-width:0;stroke-linejoin:miter;stroke-miterlimit:4;stroke-dasharray:none" />
    <rect
       width="34.646664"
       height="143.20734"
       ry="0"
       x="324.68872"
       y="467.88226"
       transform="matrix(1,0,0.1429608,0.9897284,0,0)"
       id="rect5053"
       style="fill:#00b8db;fill-opacity:1;stroke:#ff0000;stroke-width:0;stroke-linejoin:miter;stroke-miterlimit:4;stroke-dasharray:none" />
    <rect
       width="34.646664"
       height="143.20734"
       ry="0"
       x="-545.8949"
       y="467.88287"
       transform="matrix(-1,0,-0.1429608,0.9897284,0,0)"
       id="rect5055"
       style="fill:#00b8db;fill-opacity:1;stroke:#ff0000;stroke-width:0;stroke-linejoin:miter;stroke-miterlimit:4;stroke-dasharray:none" />
    <path
       d="m 419.13721,608.74912 -23.62272,-150.59486 -6.88997,6.88996 2.95285,146.65773 31.49697,1.96856 -3.93713,-4.92139 z"
       id="path5057"
       style="fill:#000000;fill-rule:evenodd;stroke:#000000;stroke-width:0;stroke-linecap:butt;stroke-linejoin:miter;stroke-miterlimit:4;stroke-dasharray:none;stroke-opacity:1"
       inkscape:connector-curvature="0" />
    <path
       d="m 455.55558,604.812 23.62272,-148.6263 8.85852,0 -4.9214,33.46553 0.98428,108.27081 -2.95285,35.43408 -27.55984,-19.68561 1.96857,-8.85851 z"
       id="path5059"
       style="fill:#000000;fill-rule:evenodd;stroke:#000000;stroke-width:0;stroke-linecap:butt;stroke-linejoin:miter;stroke-miterlimit:4;stroke-dasharray:none;stroke-opacity:1"
       inkscape:connector-curvature="0" />
    <path
       d="m 423.07434,462.09138 14.76419,94.49089 13.77992,-100.39657 -28.54411,5.90568 z"
       id="path5063"
       style="fill:#000000;fill-rule:evenodd;stroke:#000000;stroke-width:0;stroke-linecap:butt;stroke-linejoin:miter;stroke-miterlimit:4;stroke-dasharray:none;stroke-opacity:1"
       inkscape:connector-curvature="0" />
    <path
       d="m 316.50505,554.33736 c -2.04482,-21.79815 12.92253,-25.02728 23.88665,-32.55886 l -32.25458,6.08576 8.36793,26.4731 z"
       id="path5067"
       style="fill:#000000;fill-rule:evenodd;stroke:#000000;stroke-width:0;stroke-linecap:butt;stroke-linejoin:miter;stroke-miterlimit:4;stroke-dasharray:none;stroke-opacity:1"
       inkscape:connector-curvature="0" />
  </g>
</svg>
