<svg height="806.37042" viewBox="0 0 1000 755.97229" width="1066.6666" xmlns="http://www.w3.org/2000/svg"><path d="m .53320312.53320312v805.30468688l222.08984688-210.16601h843.50975v-595.13867688zm134.26562688 139.60741688v107.625c0 .00005 15.58762-25.14062 54.21289-25.14062 49.12434 0 86.8789 38.47954 86.8789 91.375 0 48.36838-33.41025 91.07617-86.94531 91.07617-38.94527 0-54.14648-25.17578-54.14648-25.17578v20.7793h-38.36133v-225.375zm255.21094 82.41211c16.72659 0 28.84375 4.62305 28.84375 4.62305l-8.63672 37.8457s-12.87748-6.16796-28.52539-6.16796c-29.76385 0-41.76368 21.27664-41.76368 45.375v96.4375h-38.36328v-173.69336h37.83008v19.17578s12.71831-23.59571 50.61524-23.59571zm505.06054.00586c48.97713 0 92.90821 35.12064 92.90821 91.3086 0 50.76788-37.8733 91.24219-93.33985 91.24219-57.57409-.00001-93.43945-42.9667-93.43945-91.3086 0-48.77442 35.64957-91.24219 93.87109-91.24219zm-388.87695.06641c38.62527 0 54.21289 25.14065 54.21289 25.14062v-20.79296h38.36133v173.70703h-38.36133v-20.7793s-15.20122 25.17578-54.14648 25.17578c-53.53506 0-86.94532-42.70779-86.94532-91.07617 0-52.89546 37.75457-91.375 86.87891-91.375zm110.91211 4.34766h41.44141l51.25 134.09961 51.0957-134.09961h40.375l-69.40235 173.69336h-45.08593zm277.43359 31.2832c-32.39209 0-54.3457 25.5537-54.3457 55.54492 0 31.98514 22.69185 55.64453 54.44531 55.64453 29.45165 0 54.51172-22.3943 54.51172-55.44531 0-34.73679-25.37489-55.74414-54.61133-55.74414zm-710.15625.0332c-31.43028 0-52.11523 24.12744-52.11523 55.47852 0 35.14281 23.92893 55.50976 52.11523 55.50976 30.71522 0 52.38086-22.74192 52.38086-55.61132 0-33.38306-22.14617-55.37696-52.38086-55.37696zm326.43946 0c-30.23468 0-52.38086 21.9939-52.38086 55.37696 0 32.8694 21.66564 55.61132 52.38086 55.61132 28.1863 0 52.11523-20.36695 52.11523-55.50976 0-31.35108-20.68495-55.47852-52.11523-55.47852z" fill="#fff" transform="scale(.93750003)"/></svg>