<svg height="355.50525pt" viewBox="0 0 462.31546 355.50525" width="462.31546pt" xmlns="http://www.w3.org/2000/svg"><path d="m0 0v349.38526l96.3547-91.18152h365.96077v-258.20374zm58.2518 60.56934v46.69362c0 .00002 6.7628-10.90738 23.5205-10.90738 21.3129 0 37.6928 16.69453 37.6928 39.64348 0 20.98485-14.4952 39.51382-37.7216 39.51382-16.8966 0-23.4917-10.92262-23.4917-10.92262v9.01519h-16.6432v-97.78001zm110.7245 35.75489c7.2569 0 12.514 2.00573 12.514 2.00573l-3.7471 16.41953s-5.587-2.676-12.3759-2.676c-12.9132 0-18.1194 9.23097-18.1194 19.68617v41.83986h-16.644v-75.35769h16.4127v8.3195s5.5179-10.2371 21.9597-10.2371zm219.12289.003c21.24897 0 40.30867 15.23725 40.30867 39.61467 0 22.02588-16.43151 39.58586-40.49594 39.58586-24.97882-.00001-40.53912-18.64131-40.53912-39.61467 0-21.16102 15.4667-39.58586 40.72639-39.58586zm-168.71609.0288c16.7577 0 23.5205 10.90739 23.5205 10.90738v-9.02142h16.6433v75.36362h-16.6433v-9.0152s-6.5951 10.92263-23.4917 10.92263c-23.2264 0-37.7216-18.52897-37.7216-39.51383 0-22.94894 16.3799-39.64347 37.6928-39.64347zm48.1197 1.88625h17.9796l22.235 58.17975 22.1681-58.17975h17.5169l-30.1105 75.35763h-19.5607zm120.36591 13.57237c-14.05347 0-23.57811 11.08659-23.57811 24.09842 0 13.8769 9.84493 24.14165 23.62132 24.14165 12.77774 0 23.65017-9.71588 23.65017-24.05522 0-15.07072-11.00901-24.18485-23.69338-24.18485zm-308.10471.0144c-13.6362 0-22.6104 10.4678-22.6104 24.06962 0 15.24687 10.3817 24.08317 22.6104 24.08317 13.326 0 22.7257-9.86669 22.7257-24.12723 0-14.48341-9.6082-24.02556-22.7257-24.02556zm141.6274 0c-13.1175 0-22.7257 9.54215-22.7257 24.02556 0 14.26054 9.3997 24.12723 22.7257 24.12723 12.2287 0 22.6104-8.8363 22.6104-24.08317 0-13.60182-8.9743-24.06962-22.6104-24.06962z" fill="#fff"/><g fill="#fff" transform="translate(-87.68703 -141.99474)"><path d="m349.21 407.47c66.92 0 133.83976.03 200.75976.00001v90.03h-200.76v-90.03m65.22024 9.63999-.00024 57.68976h9v-57.69h-9m105.15024 6.07024c-1.45 6.05-7.44999 9.69-13.41999 9.79v6.42976h12.21v35.4h9.17025v-51.6195h-7.96026m-139.6 17.91974c.03-1.7.05-3.38974.06-5.07974h-8.70975v53.9295h8.70975l.18-19.35c5.48 6.7 16.35999 6.71024 22.67999 1.23024 8-7.13 8.65-20.18 3.46-29.12-5.24-9.12-20.29-10.56-26.38-1.61m92.44-2.67c-4.78 3.95-5.67 11.88-1.21 16.4 3.88 4.23 10.09 3.81 15.06 5.81 2.88 1.19 2.99 5.57.37 7.11-4.56 2.7-11.09-.16-11.69-5.6l-7.89 2.38c2.29 11.64 18.79 15.24 26.77 7.3 4.45-4.36 4.62-12.4-.2-16.55-3.97-3.75-9.75-3.52-14.61-5.23-3.09-1.21-2.92-5.89-.03-7.24 4.11-2.29 9.6.36 10.39 5l7.55-2.24c-1.92999-10.8-16.92999-14.15-24.50999-7.14m-43.17-2.42c.01 7.99-.01 15.99 0 23.98-.07 3.75.85 7.61 3.13 10.64 4.99 6.96 16.98 7.18 21.96.11.07 1.35.15 2.70026.22 4.07026h8.65c-.72-12.92-.16-25.8705-.33-38.8005h-9.01c-.03 7.67.04 15.35024-.02 23.03024.06 3.23-1.39 6.92-4.65 8.09-2.72.91-6.06.79-8.29-1.19-1.99-1.7-2.63-4.42-2.64-6.93-.05-7.67.01-15.34024-.02-23.00024-3-.03-6-.0298-9 .00024z" fill="#fff"/><path d="m388.41 443.49c4.52-1.03 9.5 1.49 11.14 5.88 1.9 5.09 1.57 11.67-2.48 15.66-4.19 4.14-12.01 3.1-14.93-2.03-3.94-6.47-2.1-17.74 6.27-19.51z" fill="#fff"/></g></svg>