<?xml version="1.0" encoding="UTF-8" standalone="no"?>
<svg
   xmlns:dc="http://purl.org/dc/elements/1.1/"
   xmlns:cc="http://creativecommons.org/ns#"
   xmlns:rdf="http://www.w3.org/1999/02/22-rdf-syntax-ns#"
   xmlns:svg="http://www.w3.org/2000/svg"
   xmlns="http://www.w3.org/2000/svg"
   xmlns:sodipodi="http://sodipodi.sourceforge.net/DTD/sodipodi-0.dtd"
   xmlns:inkscape="http://www.inkscape.org/namespaces/inkscape"
   width="462.31546pt"
   height="355.50525pt"
   viewBox="0 0 462.31546 355.50525"
   version="1.1"
   id="svg15"
   sodipodi:docname="Bravo Plus 1 - Dark.svg"
   inkscape:version="0.92.0 r15299">
  <metadata
     id="metadata21">
    <rdf:RDF>
      <cc:Work
         rdf:about="">
        <dc:format>image/svg+xml</dc:format>
        <dc:type
           rdf:resource="http://purl.org/dc/dcmitype/StillImage" />
        <dc:title></dc:title>
      </cc:Work>
    </rdf:RDF>
  </metadata>
  <defs
     id="defs19" />
  <sodipodi:namedview
     pagecolor="#ffffff"
     bordercolor="#666666"
     borderopacity="1"
     objecttolerance="10"
     gridtolerance="10"
     guidetolerance="10"
     inkscape:pageopacity="0"
     inkscape:pageshadow="2"
     inkscape:window-width="1920"
     inkscape:window-height="1017"
     id="namedview17"
     showgrid="false"
     fit-margin-top="0"
     fit-margin-left="0"
     fit-margin-right="0"
     fit-margin-bottom="0"
     inkscape:zoom="0.39111844"
     inkscape:cx="145.73683"
     inkscape:cy="-42.365287"
     inkscape:window-x="-8"
     inkscape:window-y="-8"
     inkscape:window-maximized="1"
     inkscape:current-layer="svg15" />
  <path
     inkscape:connector-curvature="0"
     style="fill:#080006;fill-opacity:1;stroke:none;stroke-width:0.46277836"
     d="M 0,0 V 349.38526 L 96.3547,258.20374 H 462.31547 V 0 Z m 58.2518,60.56934 v 46.69362 c 0,2e-5 6.7628,-10.90738 23.5205,-10.90738 21.3129,0 37.6928,16.69453 37.6928,39.64348 0,20.98485 -14.4952,39.51382 -37.7216,39.51382 -16.8966,0 -23.4917,-10.92262 -23.4917,-10.92262 v 9.01519 H 41.6086 V 75.82544 Z m 110.7245,35.75489 c 7.2569,0 12.514,2.00573 12.514,2.00573 l -3.7471,16.41953 c 0,0 -5.587,-2.676 -12.3759,-2.676 -12.9132,0 -18.1194,9.23097 -18.1194,19.68617 v 41.83986 h -16.644 V 98.24183 h 16.4127 v 8.3195 c 0,0 5.5179,-10.2371 21.9597,-10.2371 z m 219.12289,0.003 c 21.24897,0 40.30867,15.23725 40.30867,39.61467 0,22.02588 -16.43151,39.58586 -40.49594,39.58586 -24.97882,-1e-5 -40.53912,-18.64131 -40.53912,-39.61467 0,-21.16102 15.4667,-39.58586 40.72639,-39.58586 z m -168.71609,0.0288 c 16.7577,0 23.5205,10.90739 23.5205,10.90738 v -9.02142 h 16.6433 v 75.36362 h -16.6433 v -9.0152 c 0,0 -6.5951,10.92263 -23.4917,10.92263 -23.2264,0 -37.7216,-18.52897 -37.7216,-39.51383 0,-22.94894 16.3799,-39.64347 37.6928,-39.64347 z m 48.1197,1.88625 h 17.9796 l 22.235,58.17975 22.1681,-58.17975 h 17.5169 l -30.1105,75.35763 h -19.5607 z m 120.36591,13.57237 c -14.05347,0 -23.57811,11.08659 -23.57811,24.09842 0,13.8769 9.84493,24.14165 23.62132,24.14165 12.77774,0 23.65017,-9.71588 23.65017,-24.05522 0,-15.07072 -11.00901,-24.18485 -23.69338,-24.18485 z M 79.764,111.82905 c -13.6362,0 -22.6104,10.4678 -22.6104,24.06962 0,15.24687 10.3817,24.08317 22.6104,24.08317 13.326,0 22.7257,-9.86669 22.7257,-24.12723 0,-14.48341 -9.6082,-24.02556 -22.7257,-24.02556 z m 141.6274,0 c -13.1175,0 -22.7257,9.54215 -22.7257,24.02556 0,14.26054 9.3997,24.12723 22.7257,24.12723 12.2287,0 22.6104,-8.8363 22.6104,-24.08317 0,-13.60182 -8.9743,-24.06962 -22.6104,-24.06962 z"
     id="path3018" />
  <g
     id="g4515"
     transform="translate(-87.68703,-141.99474)">
    <path
       d="m 349.21,407.47 c 66.92,0 133.83976,0.03 200.75976,10e-6 v 90.03 h -200.76 v -90.03 M 414.43,417.11 l -2.4e-4,57.68976 h 9 v -57.69 h -9 M 519.58,423.18 c -1.45,6.05 -7.44999,9.69 -13.41999,9.79 v 6.42976 h 12.21 v 35.4 h 9.17025 v -51.6195 H 519.58 M 379.98,441.1 c 0.03,-1.7 0.05,-3.38974 0.06,-5.07974 h -8.70975 v 53.9295 H 380.04 l 0.18,-19.35 c 5.48,6.7 16.35999,6.71024 22.67999,1.23024 8,-7.13 8.65,-20.18 3.46,-29.12 -5.24,-9.12 -20.29,-10.56 -26.38,-1.61 m 92.44,-2.67 c -4.78,3.95 -5.67,11.88 -1.21,16.4 3.88,4.23 10.09,3.81 15.06,5.81 2.88,1.19 2.99,5.57 0.37,7.11 -4.56,2.7 -11.09,-0.16 -11.69,-5.6 l -7.89,2.38 c 2.29,11.64 18.79,15.24 26.77,7.3 4.45,-4.36 4.62,-12.4 -0.2,-16.55 -3.97,-3.75 -9.75,-3.52 -14.61,-5.23 -3.09,-1.21 -2.92,-5.89 -0.03,-7.24 4.11,-2.29 9.6,0.36 10.39,5 l 7.55,-2.24 C 495,434.77 480,431.42 472.42,438.43 m -43.17,-2.42 c 0.01,7.99 -0.01,15.99 0,23.98 -0.07,3.75 0.85,7.61 3.13,10.64 4.99,6.96 16.98,7.18 21.96,0.11 0.07,1.35 0.15,2.70026 0.22,4.07026 h 8.65 c -0.72,-12.92 -0.16,-25.8705 -0.33,-38.8005 h -9.01 c -0.03,7.67 0.04,15.35024 -0.02,23.03024 0.06,3.23 -1.39,6.92 -4.65,8.09 -2.72,0.91 -6.06,0.79 -8.29,-1.19 -1.99,-1.7 -2.63,-4.42 -2.64,-6.93 -0.05,-7.67 0.01,-15.34024 -0.02,-23.00024 -3,-0.03 -6,-0.0298 -9,2.4e-4 z"
       id="path10"
       inkscape:connector-curvature="0"
       style="opacity:1;fill:#080006;fill-opacity:1"
       sodipodi:nodetypes="ccccccccccccccccccccccccccccccccccccccccscccccccccaccs" />
    <path
       d="m 388.41,443.49 c 4.52,-1.03 9.5,1.49 11.14,5.88 1.9,5.09 1.57,11.67 -2.48,15.66 -4.19,4.14 -12.01,3.1 -14.93,-2.03 -3.94,-6.47 -2.1,-17.74 6.27,-19.51 z"
       id="path12"
       style="opacity:1;fill:#080006;fill-opacity:1"
       inkscape:connector-curvature="0" />
  </g>
</svg>
