<?xml version="1.0" encoding="UTF-8"?>
<svg id="svg15" width="462.32pt" height="355.51pt" version="1.1" viewBox="0 0 462.32 355.51" xmlns="http://www.w3.org/2000/svg" xmlns:cc="http://creativecommons.org/ns#" xmlns:dc="http://purl.org/dc/elements/1.1/" xmlns:rdf="http://www.w3.org/1999/02/22-rdf-syntax-ns#">
 <metadata id="metadata21">
  <rdf:RDF>
   <cc:Work rdf:about="">
    <dc:format>image/svg+xml</dc:format>
    <dc:type rdf:resource="http://purl.org/dc/dcmitype/StillImage"/>
    <dc:title/>
   </cc:Work>
  </rdf:RDF>
 </metadata>
 <path id="path3018" d="m0 0v349.39l96.355-91.182h365.96v-258.2zm58.252 60.569v46.694c0 2e-5 6.7628-10.907 23.52-10.907 21.313 0 37.693 16.695 37.693 39.643 0 20.985-14.495 39.514-37.722 39.514-16.897 0-23.492-10.923-23.492-10.923v9.0152h-16.643v-97.78zm110.72 35.755c7.2569 0 12.514 2.0057 12.514 2.0057l-3.7471 16.42s-5.587-2.676-12.376-2.676c-12.913 0-18.119 9.231-18.119 19.686v41.84h-16.644v-75.358h16.413v8.3195s5.5179-10.237 21.96-10.237zm219.12 3e-3c21.249 0 40.309 15.237 40.309 39.615 0 22.026-16.432 39.586-40.496 39.586-24.979-1e-5 -40.539-18.641-40.539-39.615 0-21.161 15.467-39.586 40.726-39.586zm-168.72 0.0288c16.758 0 23.52 10.907 23.52 10.907v-9.0214h16.643v75.364h-16.643v-9.0152s-6.5951 10.923-23.492 10.923c-23.226 0-37.722-18.529-37.722-39.514 0-22.949 16.38-39.643 37.693-39.643zm48.12 1.8862h17.98l22.235 58.18 22.168-58.18h17.517l-30.11 75.358h-19.561zm120.37 13.572c-14.053 0-23.578 11.087-23.578 24.098 0 13.877 9.8449 24.142 23.621 24.142 12.778 0 23.65-9.7159 23.65-24.055 0-15.071-11.009-24.185-23.693-24.185zm-308.1 0.0144c-13.636 0-22.61 10.468-22.61 24.07 0 15.247 10.382 24.083 22.61 24.083 13.326 0 22.726-9.8667 22.726-24.127 0-14.483-9.6082-24.026-22.726-24.026zm141.63 0c-13.118 0-22.726 9.5422-22.726 24.026 0 14.261 9.3997 24.127 22.726 24.127 12.229 0 22.61-8.8363 22.61-24.083 0-13.602-8.9743-24.07-22.61-24.07z" fill="#080006"/>
 <g id="g4515" transform="translate(-87.687 -141.99)" fill="#080006">
  <path id="path10" d="m349.21 407.47c66.92 0 133.84 0.03 200.76 1e-5v90.03h-200.76v-90.03m65.22 9.64-2.4e-4 57.69h9v-57.69h-9m105.15 6.0702c-1.45 6.05-7.45 9.69-13.42 9.79v6.4298h12.21v35.4h9.1702v-51.62h-7.9603m-139.6 17.92c0.03-1.7 0.05-3.3897 0.06-5.0797h-8.7098v53.93h8.7098l0.18-19.35c5.48 6.7 16.36 6.7102 22.68 1.2302 8-7.13 8.65-20.18 3.46-29.12-5.24-9.12-20.29-10.56-26.38-1.61m92.44-2.67c-4.78 3.95-5.67 11.88-1.21 16.4 3.88 4.23 10.09 3.81 15.06 5.81 2.88 1.19 2.99 5.57 0.37 7.11-4.56 2.7-11.09-0.16-11.69-5.6l-7.89 2.38c2.29 11.64 18.79 15.24 26.77 7.3 4.45-4.36 4.62-12.4-0.2-16.55-3.97-3.75-9.75-3.52-14.61-5.23-3.09-1.21-2.92-5.89-0.03-7.24 4.11-2.29 9.6 0.36 10.39 5l7.55-2.24c-1.93-10.8-16.93-14.15-24.51-7.14m-43.17-2.42c0.01 7.99-0.01 15.99 0 23.98-0.07 3.75 0.85 7.61 3.13 10.64 4.99 6.96 16.98 7.18 21.96 0.11 0.07 1.35 0.15 2.7003 0.22 4.0703h8.65c-0.72-12.92-0.16-25.87-0.33-38.8h-9.01c-0.03 7.67 0.04 15.35-0.02 23.03 0.06 3.23-1.39 6.92-4.65 8.09-2.72 0.91-6.06 0.79-8.29-1.19-1.99-1.7-2.63-4.42-2.64-6.93-0.05-7.67 0.01-15.34-0.02-23-3-0.03-6-0.0298-9 2.4e-4z"/>
  <path id="path12" d="m388.41 443.49c4.52-1.03 9.5 1.49 11.14 5.88 1.9 5.09 1.57 11.67-2.48 15.66-4.19 4.14-12.01 3.1-14.93-2.03-3.94-6.47-2.1-17.74 6.27-19.51z"/>
 </g>
</svg>
