<?xml version="1.0" encoding="UTF-8" standalone="no"?>
<!-- Created with Inkscape (http://www.inkscape.org/) -->

<svg
   xmlns:dc="http://purl.org/dc/elements/1.1/"
   xmlns:cc="http://creativecommons.org/ns#"
   xmlns:rdf="http://www.w3.org/1999/02/22-rdf-syntax-ns#"
   xmlns:svg="http://www.w3.org/2000/svg"
   xmlns="http://www.w3.org/2000/svg"
   xmlns:sodipodi="http://sodipodi.sourceforge.net/DTD/sodipodi-0.dtd"
   xmlns:inkscape="http://www.inkscape.org/namespaces/inkscape"
   width="18.037704mm"
   height="2.6518307mm"
   viewBox="0 0 63.913126 9.3962504"
   id="svg81668"
   version="1.1"
   inkscape:version="0.91 r13725"
   sodipodi:docname="Brazzers TV.svg">
  <defs
     id="defs81670">
    <clipPath
       clipPathUnits="userSpaceOnUse"
       id="clipPath72170">
      <path
         d="m 480.614,219.444 82.8,0 0,21.146 -82.8,0 0,-21.146 z"
         id="path72172"
         inkscape:connector-curvature="0" />
    </clipPath>
  </defs>
  <sodipodi:namedview
     id="base"
     pagecolor="#ffffff"
     bordercolor="#666666"
     borderopacity="1.0"
     inkscape:pageopacity="0.0"
     inkscape:pageshadow="2"
     inkscape:zoom="0.35"
     inkscape:cx="-445.90058"
     inkscape:cy="-1.0161597"
     inkscape:document-units="px"
     inkscape:current-layer="layer1"
     showgrid="false"
     fit-margin-top="0"
     fit-margin-left="0"
     fit-margin-right="0"
     fit-margin-bottom="0"
     inkscape:window-width="1920"
     inkscape:window-height="1017"
     inkscape:window-x="-8"
     inkscape:window-y="-8"
     inkscape:window-maximized="1" />
  <metadata
     id="metadata81673">
    <rdf:RDF>
      <cc:Work
         rdf:about="">
        <dc:format>image/svg+xml</dc:format>
        <dc:type
           rdf:resource="http://purl.org/dc/dcmitype/StillImage" />
        <dc:title></dc:title>
      </cc:Work>
    </rdf:RDF>
  </metadata>
  <g
     inkscape:label="Layer 1"
     inkscape:groupmode="layer"
     id="layer1"
     transform="translate(-393.75772,-521.94979)">
    <g
       transform="matrix(1.25,0,0,-1.25,-226.73653,815.14242)"
       id="g72166">
      <g
         id="g72168"
         clip-path="url(#clipPath72170)">
        <g
           id="g72174"
           transform="translate(499.1364,230.3785)">
          <path
             d="m 0,0 -1.915,0 0,-0.918 1.915,0 c 0.159,0 0.266,0.024 0.322,0.071 0.056,0.048 0.084,0.132 0.084,0.253 l 0,0.273 C 0.406,-0.2 0.378,-0.117 0.322,-0.07 0.266,-0.023 0.159,0 0,0 m 0,1.454 -1.915,0 0,-0.86 1.915,0 c 0.145,0 0.246,0.019 0.302,0.058 0.056,0.039 0.084,0.106 0.084,0.201 l 0,0.342 C 0.386,1.288 0.358,1.354 0.302,1.394 0.246,1.434 0.145,1.454 0,1.454 m -2.741,-3.021 0,3.608 3.093,0 c 0.284,0 0.49,-0.056 0.617,-0.167 C 1.097,1.762 1.16,1.585 1.16,1.341 l 0,-0.44 C 1.16,0.728 1.107,0.59 1,0.486 0.893,0.383 0.739,0.319 0.539,0.293 0.746,0.266 0.906,0.192 1.018,0.072 c 0.113,-0.121 0.17,-0.278 0.17,-0.471 l 0,-0.461 C 1.188,-1.099 1.1,-1.276 0.925,-1.393 0.75,-1.509 0.483,-1.567 0.126,-1.567 l -2.867,0 z"
             style="fill:#ffffff;fill-opacity:1;fill-rule:nonzero;stroke:none"
             id="path72176"
             inkscape:connector-curvature="0" />
        </g>
        <g
           id="g72178"
           transform="translate(504.3116,231.7951)">
          <path
             d="m 0,0 -1.888,0 0,-1.004 1.888,0 c 0.146,0 0.245,0.021 0.299,0.064 0.053,0.041 0.08,0.116 0.08,0.223 l 0,0.433 c 0,0.105 -0.027,0.179 -0.08,0.221 C 0.245,-0.021 0.146,0 0,0 m -2.714,-2.983 0,3.607 3.086,0 c 0.287,0 0.494,-0.055 0.623,-0.165 0.128,-0.11 0.193,-0.289 0.193,-0.534 l 0,-0.847 C 1.188,-1.165 1.123,-1.343 0.995,-1.454 0.866,-1.565 0.659,-1.621 0.372,-1.621 l -0.471,0 1.665,-1.362 -1.204,0 -1.454,1.362 -0.796,0 0,-1.362 -0.826,0 z"
             style="fill:#ffffff;fill-opacity:1;fill-rule:nonzero;stroke:none"
             id="path72180"
             inkscape:connector-curvature="0" />
        </g>
        <g
           id="g72182"
           transform="translate(507.5933,230.7911)">
          <path
             d="m 0,0 0,0.72 c 0,0.105 0.027,0.178 0.08,0.22 0.052,0.041 0.147,0.061 0.283,0.063 l 1.541,0 c 0.147,0 0.245,-0.021 0.3,-0.062 C 2.256,0.898 2.283,0.825 2.283,0.719 L 2.283,0 0,0 Z M 3.061,1.179 C 3.03,1.298 2.979,1.395 2.899,1.463 2.77,1.573 2.564,1.629 2.277,1.629 l -2.269,0 c -0.287,0 -0.496,-0.056 -0.623,-0.166 0,0 -0.001,0 -0.001,0 0,0 0,0 0,0 C -0.669,1.417 -0.708,1.358 -0.739,1.29 -0.784,1.192 -0.809,1.074 -0.809,0.928 l 0,-2.907 0.826,0 0,1.361 2.249,0 0,-1.361 0.826,0 0,2.907 c 0,0.095 -0.012,0.177 -0.031,0.251"
             style="fill:#ffffff;fill-opacity:1;fill-rule:nonzero;stroke:none"
             id="path72184"
             inkscape:connector-curvature="0" />
        </g>
        <g
           id="g72186"
           transform="translate(511.9595,228.8119)">
          <path
             d="m 0,0 0,0.392 2.522,2.57 -2.269,0 0,0.646 3.621,0 0,-0.359 -2.56,-2.57 2.56,0 L 3.874,0 0,0 Z"
             style="fill:#e5b520;fill-opacity:1;fill-rule:nonzero;stroke:none"
             id="path72188"
             inkscape:connector-curvature="0" />
        </g>
        <g
           id="g72190"
           transform="translate(517.1077,228.8119)">
          <path
             d="m 0,0 0,0.392 2.522,2.57 -2.27,0 0,0.646 3.622,0 0,-0.359 -2.56,-2.57 2.56,0 L 3.874,0 0,0 Z"
             style="fill:#e5b520;fill-opacity:1;fill-rule:nonzero;stroke:none"
             id="path72192"
             inkscape:connector-curvature="0" />
        </g>
        <g
           id="g72194"
           transform="translate(522.2559,228.8119)">
          <path
             d="m 0,0 0,3.608 3.693,0 0,-0.615 -2.853,0 0,-0.805 1.665,0 0,-0.615 -1.665,0 0,-0.894 2.887,0 L 3.727,0 0,0 Z"
             style="fill:#ffffff;fill-opacity:1;fill-rule:nonzero;stroke:none"
             id="path72196"
             inkscape:connector-curvature="0" />
        </g>
        <g
           id="g72198"
           transform="translate(529.9701,231.7951)">
          <path
             d="m 0,0 -1.887,0 0,-1.004 1.887,0 c 0.146,0 0.246,0.021 0.299,0.064 0.053,0.041 0.08,0.116 0.08,0.223 l 0,0.433 c 0,0.105 -0.027,0.179 -0.08,0.221 C 0.246,-0.021 0.146,0 0,0 m -2.713,-2.983 0,3.607 3.085,0 c 0.287,0 0.495,-0.055 0.623,-0.165 0.129,-0.11 0.193,-0.289 0.193,-0.534 l 0,-0.847 C 1.188,-1.165 1.124,-1.343 0.995,-1.454 0.867,-1.565 0.659,-1.621 0.372,-1.621 l -0.471,0 1.666,-1.362 -1.205,0 -1.454,1.362 -0.795,0 0,-1.362 -0.826,0 z"
             style="fill:#ffffff;fill-opacity:1;fill-rule:nonzero;stroke:none"
             id="path72200"
             inkscape:connector-curvature="0" />
        </g>
        <g
           id="g72202"
           transform="translate(535.5299,231.7881)">
          <path
             d="m 0,0 -2.362,0 0,-0.775 2.249,0 c 0.353,0 0.591,-0.06 0.715,-0.181 0.124,-0.12 0.186,-0.344 0.186,-0.672 l 0,-0.495 c 0,-0.328 -0.062,-0.552 -0.186,-0.673 -0.124,-0.12 -0.362,-0.18 -0.715,-0.18 l -2.229,0 c -0.353,0 -0.591,0.06 -0.715,0.18 -0.124,0.121 -0.185,0.345 -0.185,0.673 l 0,0.145 0.74,0 0,-0.319 2.549,0 0,0.822 -2.249,0 c -0.35,0 -0.587,0.061 -0.71,0.182 -0.123,0.12 -0.184,0.344 -0.184,0.672 l 0,0.399 c 0,0.328 0.061,0.552 0.184,0.673 0.123,0.12 0.36,0.18 0.71,0.18 l 2.048,0 C 0.185,0.631 0.419,0.573 0.547,0.458 0.676,0.341 0.74,0.135 0.74,-0.16 l 0,-0.161 -0.74,0 L 0,0 Z"
             style="fill:#ffffff;fill-opacity:1;fill-rule:nonzero;stroke:none"
             id="path72204"
             inkscape:connector-curvature="0" />
        </g>
        <g
           id="g72206"
           transform="translate(544.9859,228.8101)">
          <path
             d="m 0,0 -1.038,0 -0.973,2.602 c -0.058,0.151 -0.236,0.275 -0.398,0.275 l -0.856,0 c -0.162,0 -0.294,-0.132 -0.294,-0.294 l 0,-2.583 -1.076,0 0,2.583 c 0,0.162 -0.132,0.294 -0.294,0.294 l -0.997,0 0,0.996 4.49,0 c 0,0 0.909,-2.634 0.926,-2.624 0.026,0.015 0.952,2.624 0.952,2.624 l 0.959,0 L 0,0 Z m 2.013,5.279 c 0,0 -1.458,0.465 -4.275,0.465 -2.817,0 -4.274,-0.465 -4.274,-0.465 -0.527,-0.62 -0.527,-3.293 -0.527,-3.293 0,0 0,-2.674 0.527,-3.294 0,0 1.457,-0.465 4.274,-0.465 2.817,0 4.275,0.465 4.275,0.465 0.527,0.62 0.527,3.294 0.527,3.294 0,0 0,2.673 -0.527,3.293"
             style="fill:#e5b520;fill-opacity:1;fill-rule:nonzero;stroke:none"
             id="path72208"
             inkscape:connector-curvature="0" />
        </g>
      </g>
    </g>
  </g>
</svg>
