<?xml version="1.0" encoding="UTF-8" standalone="no"?>
<svg
   xmlns:dc="http://purl.org/dc/elements/1.1/"
   xmlns:cc="http://creativecommons.org/ns#"
   xmlns:rdf="http://www.w3.org/1999/02/22-rdf-syntax-ns#"
   xmlns:svg="http://www.w3.org/2000/svg"
   xmlns="http://www.w3.org/2000/svg"
   xmlns:sodipodi="http://sodipodi.sourceforge.net/DTD/sodipodi-0.dtd"
   xmlns:inkscape="http://www.inkscape.org/namespaces/inkscape"
   width="461.70801pt"
   height="182.40961pt"
   viewBox="0 0 461.70801 182.40961"
   version="1.1"
   id="svg2"
   inkscape:version="0.91 r13725"
   sodipodi:docname="Canterbury Television - Dark.svg">
  <metadata
     id="metadata14">
    <rdf:RDF>
      <cc:Work
         rdf:about="">
        <dc:format>image/svg+xml</dc:format>
        <dc:type
           rdf:resource="http://purl.org/dc/dcmitype/StillImage" />
        <dc:title></dc:title>
      </cc:Work>
    </rdf:RDF>
  </metadata>
  <defs
     id="defs12" />
  <sodipodi:namedview
     pagecolor="#ffffff"
     bordercolor="#666666"
     borderopacity="1"
     objecttolerance="10"
     gridtolerance="10"
     guidetolerance="10"
     inkscape:pageopacity="0"
     inkscape:pageshadow="2"
     inkscape:window-width="1920"
     inkscape:window-height="1017"
     id="namedview10"
     showgrid="false"
     fit-margin-top="0"
     fit-margin-left="0"
     fit-margin-right="0"
     fit-margin-bottom="0"
     inkscape:zoom="1.18"
     inkscape:cx="248.98766"
     inkscape:cy="229.53119"
     inkscape:window-x="-8"
     inkscape:window-y="-8"
     inkscape:window-maximized="1"
     inkscape:current-layer="svg2" />
  <g
     id="#b81e24f7"
     transform="translate(-84.59199,-190)"
     style="fill:#be2026;fill-opacity:1">
    <path
       d="m 101.83,222.9 c 16.07,-20.83 42.44,-31.17 68.1,-32.9 l 69.19,0 0,54 -63.14,0 c -10.05,-0.11 -20.15,4.7 -25.88,13.05 -8.87,12.86 -8.28,30.81 -0.28,43.95 5.89,9.87 16.59,16.98 28.11,17.88 l 108.32,0 0.05,51.5 -125.19,0 C 143.49,368.59 126.77,360.24 114.18,347.86 95.4,329.44 84.92,303.2 84.61,277.01 84.23,257.77 89.86,238.13 101.83,222.9 Z"
       id="path5"
       inkscape:connector-curvature="0"
       style="opacity:0.97000002;fill:#be2026;fill-opacity:1"
       sodipodi:nodetypes="cccccccccccccc" />
  </g>
  <g
     id="#000000f7"
     transform="translate(-84.59199,-190)"
     style="fill:#000000;fill-opacity:1">
    <path
       d="m 248.76,190 201.68,0 18.59,125.15 19.81,-125.15 57.46,0 -36.03,182.4096 -81.99,0 L 401.71,244 354,244 l -0.14,126.38 -59.29,0 0.12,-126.38 -45.94,0 z"
       id="path8"
       inkscape:connector-curvature="0"
       style="opacity:0.97000002;fill:#000000;fill-opacity:1"
       sodipodi:nodetypes="cccccccccccccc" />
  </g>
</svg>
