<?xml version="1.0" encoding="UTF-8"?>
<svg id="svg2" width="980.44pt" height="393.66pt" version="1.1" viewBox="0 0 980.44 393.66" xmlns="http://www.w3.org/2000/svg" xmlns:cc="http://creativecommons.org/ns#" xmlns:dc="http://purl.org/dc/elements/1.1/" xmlns:rdf="http://www.w3.org/1999/02/22-rdf-syntax-ns#">
 <metadata id="metadata59">
  <rdf:RDF>
   <cc:Work rdf:about="">
    <dc:format>image/svg+xml</dc:format>
    <dc:type rdf:resource="http://purl.org/dc/dcmitype/StillImage"/>
    <dc:title/>
   </cc:Work>
  </rdf:RDF>
 </metadata>
 <g id="#1546d1ff" transform="translate(-1.26 -1.21)" fill="#1546d1">
  <path id="path5" d="m101.26 7.4c27.54-8.23 57.55-8.34 85.04 0.19 17.42 5.48 33.92 14.31 47.43 26.68-12.15 12.79-25.62 24.32-40.11 34.39-2.5 1.65-4.67 4.03-7.64 4.82-2.54-0.69-4.78-2.1-7.09-3.29-14.44-7.49-31.26-9.72-47.28-7.43-33.77 5.2-62.46 34.28-66.57 68.3-2.14 18.4 1.25 37.83 11.47 53.48 12.06 18.57 31.59 32.57 53.54 36.44 20.01 3.75 41.33-0.43 58.24-11.83 8.89 18.88 16.06 38.64 20.4 59.08-11.23 9.62-26.05 13.5-40.42 15.29-30.39 4.29-62.12-0.42-89.65-14.1-27.56-14.14-50.36-37.54-63.4-65.68-8.68-18.69-13.27-39.19-13.96-59.75 0.39-34 11.9-68.43 34.89-93.88 17.62-19.37 39.82-35.2 65.11-42.71z"/>
  <path id="path7" d="m483.36 15.32c8.39-0.47 17.23 0.43 24.65 4.64 2.81 2.3 6.31 4.96 6.13 9.01 0.39 4.18-2.33 8.65-6.6 9.45-4.98 1.05-9.71-1.58-14.53-2.38-5.88-1.41-12.6-0.37-17.06 3.92-6.17 5.91-8.38 14.77-8.62 23.05-0.02 7.4 1.34 15.46 6.72 20.95 5.83 6.51 15.78 8.14 23.74 4.91 3.88-1.13 7.78-4.08 11.97-2.66 4.6 1.88 6.9 7.89 4.71 12.38-1.92 4.88-6.79 7.66-11.46 9.41-5.99 2.59-12.66 2.45-19.04 2.11-9.72-0.7-19.41-4.71-25.89-12.15-9.09-10.26-13.08-24.5-11.9-38.06 0.56-12.82 5.06-26.16 15.05-34.69 6.21-5.27 13.94-9.21 22.13-9.89z"/>
  <path id="path9" d="m524.5 22.44c1.5-6.17 10.45-8.23 14.7-3.65 2.96 3.26 3.44 7.93 3.75 12.13 0.16 7.15 0 14.32 0.06 21.48 11.83 0.63 23.66 0.02 35.49 0.09 0.74-7.82-0.25-15.66 0.07-23.5 0.26-3.74 0.83-7.97 3.78-10.62 2.7-2.03 6.43-2.22 9.59-1.28 3.45 0.56 4.75 4.28 5.95 7.09 2.2 17.86 0.19 35.88 0.63 53.82 0.28 6.7-0.65 13.38-0.35 20.08 0.18 3.45-1.5 6.83-3.84 9.29-2.96 2-7.08 1.79-10.29 0.54-4.23-1.78-5.16-6.84-5.44-10.91-0.38-8.46 0.39-16.92 0.17-25.38-11.62-0.22-23.24-0.16-34.86-0.07l-0.62 0.69c-1.08 10.54 1.71 21.62-2.3 31.79-2.02 6.09-11.18 6.58-14.81 1.77-3.44-4.48-3.2-10.48-3.61-15.83-0.25-14 0.64-28-0.02-42-0.01-8.51-0.57-17.28 1.95-25.53z"/>
  <path id="path11" d="m632.99 22.01c2.06-3.55 6.3-5.01 10.13-5.71 6.86-0.74 12.98 4.41 15.13 10.67 6.7 19.64 13.2 39.36 19.86 59.01 1.87 5.4 4.52 11.13 2.99 16.95-1.54 7.57-13.66 8.54-16.95 1.84-2.34-4.32-3.39-9.16-4.98-13.78-10.46 0.01-20.92 0.03-31.37-0.01-2.24 5.51-3.09 11.98-7.45 16.35-2.89 3.03-7.61 2.05-10.87 0.23-2.68-2.35-3.74-6.11-3.72-9.57 1.2-7.73 5.4-14.57 6.97-22.2 4.87-11.51 8.18-23.63 12.63-35.32 2.34-6.22 3.98-12.82 7.63-18.46m0.7 49.89c6.53 0.36 13.06 0.37 19.6 0-2.82-10.98-5.8-21.94-9.78-32.56-3.1 10.91-7.42 21.46-9.82 32.56z"/>
  <path id="path13" d="m837.37 20.38c2.21-3.06 6.38-5.06 10.11-3.69 4.12 1.22 6.82 5.34 7.02 9.53 1.08 18.24 0.07 36.53 0.76 54.79 0.03 7.2 0.22 14.45-0.95 21.58-0.81 5.3-7.29 8.41-12.06 6.31-2.36-1.24-4.68-2.73-6.23-4.93-12.31-16.56-24.02-33.57-36.5-50.02-1.02 15.72 1.34 31.58-1.18 47.21-0.1 7.92-12.78 10.67-16.49 3.92-1.35-1.7-1.38-3.98-1.67-6.04-1.54-15.31-0.01-30.7-0.66-46.04 0.01-7.67-0.04-15.33 0.01-23 0.1-4.38 0.76-9.33 4.2-12.43 3.12-1.13 6.67-1.08 9.8 0.01 2.94 1.97 4.93 5.04 7.12 7.77 6.85 9.48 13.74 18.95 20.47 28.52 4.74 6.02 8.65 12.68 13.76 18.42 1.12-11.41-0.33-22.86-0.13-34.3 0.15-5.9-0.54-12.32 2.62-17.61z"/>
  <path id="path15" d="m932.1 22.12c2.12-5.46 10.02-7.94 14.47-3.7 4.51 4.22 4.32 10.9 4.2 16.59-0.01 17.91-0.03 35.83 0.02 53.75 8.06 0.89 16.31-0.95 24.27 1.03 5.17 1.38 7.52 7.87 5.09 12.49-1.81 3.7-6.11 5.56-10.08 5.47-10.54-0.14-21.13 0.87-31.63-0.42-2.47-0.76-5.43-1.77-6.41-4.41-1.55-4.12-1.26-8.61-1.28-12.92 0.55-16.66 0.17-33.33 0.28-50 0.11-5.96-0.51-12.06 1.07-17.88z"/>
  <path id="path17" d="m691.46 19.48c2.19-2.8 6.29-2.93 9.52-2.32 4.48 0.75 7.11 4.87 9.56 8.28 6.41 10.1 14.09 19.29 20.82 29.16 4.53 5.81 8.42 12.07 13 17.84 1.54-11.79-0.43-23.63-0.1-35.45-0.05-6.69-0.23-14.66 5.19-19.51 3.91-1.48 9.23-1.5 12.13 1.95 2.01 3.1 2.71 6.91 2.71 10.56-0.05 15.67-0.01 31.34-0.03 47.01 0 8.6 0.97 17.3-0.57 25.83-0.48 7.7-11.68 8.4-15.99 3.47-6.74-8.35-13.01-17.08-19.07-25.94-6.92-8.57-12.74-17.94-19.57-26.56-1.71 14.68 0.8 29.46-0.49 44.15-0.53 3.58-1.23 7.92-4.58 9.97-3.37 1.18-7.37 1.29-10.63-0.25-3.1-3.38-4.54-8.08-4.38-12.62 0.1-18.35 0.09-36.7-0.22-55.05 0.08-6.87-0.7-14.24 2.7-20.52z"/>
  <path id="path19" d="m870.41 26.18c0.66-3.45 2.99-7.25 6.77-7.79 7.52-1.53 15.22-0.48 22.83-0.89 5.11 0.14 10.59-0.19 15.26 2.25 3.9 2.05 4.99 7.14 3.94 11.12-1.51 3.81-5.88 5.17-9.6 5.61-6.69 0.66-13.44-0.12-20.13 0.62-0.35 5.22-0.08 10.45 0 15.67 7.5 0.27 15.25-0.93 22.54 1.34 6.15 1.79 6.58 10.65 3 14.9-7.66 4.65-17.05 2.26-25.51 3.31-0.28 5.46-0.28 10.93 0.01 16.39 7.9 0.84 15.93-0.45 23.78 0.86 7.03 0.64 9.12 11.58 3.76 15.46-1.6 1.78-4.05 2.14-6.28 2.44-4.92 0.51-9.87 0.62-14.8 0.39-6.12 0.02-12.31 0.58-18.36-0.59-1.94-0.47-4.01-1.09-5.42-2.55-1.78-2.88-2.27-6.35-2.2-9.67 0.26-22.96-0.88-45.93 0.41-68.87z"/>
  <path id="path21" d="m168.25 90.51c26.49-4.69 54.46-2.38 79.45 7.8 27.55 11.4 51.61 31.41 67.07 56.98 17.6 28.28 24.06 62.9 19.18 95.74-7.15 48.01-15.49 95.83-22.66 143.84-20.18-2.37-40.13-6.32-60.25-9.1 6.02-40.09 12.31-80.14 18.66-120.18 1.52-11.55 4.51-22.92 4.83-34.6 1.34-33.92-22.32-66.65-54.28-77.38-16.32-5.37-34.35-5.45-50.69-0.11-17.55 5.64-32.9 17.81-42.47 33.56-3.5 5.55-6.03 11.64-8.32 17.77-14.31-6.05-26.79-16.82-33.68-30.88-3.25-6.61-5.56-13.71-6.96-20.94-0.71-2.75 1.26-5.07 2.72-7.16 9.99-13.89 22.83-25.64 37.29-34.74 15.38-9.59 32.22-17.23 50.11-20.6z"/>
  <path id="path23" d="m618.38 145.36c7.96-0.17 16.22-0.64 23.81 2.2 12.99 3.64 23.85 13.08 30.61 24.58 4.03 6.75 6.58 14.24 8.39 21.85 1.77 10.83 1.68 21.91 0.3 32.78-0.6 5.07-2.59 9.81-4 14.68-3.84 10.2-11.1 18.67-19.2 25.78-10.72 7.74-24.2 11.42-37.37 10.46-9.07-0.04-17.87-2.77-25.92-6.78-6.81-4.31-13.06-9.66-17.45-16.49-6.22-8.33-9.09-18.49-11.27-28.49-1.76-15.15-1-30.89 4.3-45.3 2.98-5.3 5.19-11.15 9.42-15.64 6.02-6.41 12.51-12.96 20.99-15.92 5.47-2.42 11.46-3.3 17.39-3.71m1.02 27.27c-10.7 1.24-18.84 10.45-21.51 20.44-4.01 11.43-3.9 24.06-0.59 35.65 2.59 6.98 6.4 14.04 12.95 18.02 5.03 2.82 10.96 4.61 16.76 3.41 8.12-0.7 15.17-5.95 19.44-12.7 7.16-10.55 6.79-24.06 5.51-36.21-1.11-9.82-6-19.31-14.1-25.13-5.49-3.28-12.15-4.62-18.46-3.48z"/>
  <path id="path25" d="m453.03 148.16c4.59-1.77 10.35-1.8 14.25 1.53 3.81 3.28 6.19 7.81 9.42 11.6 5.01 7.01 10.17 13.91 14.89 21.12 10.74 13.97 20.47 28.67 31.01 42.79 1.68-20.74-1.66-41.55 0.41-62.26 0.95-5.51 1.99-12.69 7.88-15.05 3.44-1.65 7.6-1.34 11.11-0.01 5.42 2.27 7.68 8.56 7.99 14.03 0.04 26.7 0.01 53.4 0.01 80.09 0.06 8.05 0.98 16.22-0.65 24.17-0.82 4.14-3.16 8.57-7.53 9.77-5.96 2-12.38-0.85-16.21-5.51-5-6.1-9.06-12.9-13.93-19.09-3.36-4.09-6-8.69-9.15-12.92-7.54-10.73-15.88-20.87-23.04-31.86-1.85-2.79-3.88-5.47-6.09-7.98-1.03 18.12-0.02 36.27 0.11 54.41-0.15 7.46-0.72 16.41-7.17 21.32-4.69 1.81-10.52 1.81-14.9-0.83-2.96-3.39-5.17-7.81-4.99-12.42-0.34-13.02-0.52-26.04-0.44-39.06-0.2-6.66-0.44-13.33-0.04-19.98 0.08-14.59-0.01-29.19 0.65-43.77 0.97-3.81 2.15-8.76 6.41-10.09z"/>
  <path id="path27" d="m880.73 150.71c4.03-4.21 11.07-5.23 16.25-2.61 4.79 2.8 6.14 8.74 6.72 13.87 1.02 11.47-0.45 22.99 0.06 34.48 16.54 1.24 33.17 0.82 49.73 0.22 1.04-12.19-1.07-24.48 0.81-36.62 0.72-4.78 2.71-10.05 7.38-12.25 4.47-1.86 10-1.44 13.95 1.49 3.68 3.51 5.04 8.7 5.25 13.63 0.91 22.33-0.02 44.7 0.64 67.04 0.23 11.48 0.55 23.07-1.33 34.45-0.74 4.02-2.47 8.7-6.74 10.07-4.65 1.62-10.43 1.65-14.44-1.51-3.61-4.06-4.53-9.73-5.13-14.95-1.01-11.38 0.26-22.81-0.2-34.21-16.57-0.14-33.13-0.04-49.69-0.04-0.81 11.43 0.5 22.89-0.15 34.33-0.45 5.59-1.47 11.89-5.93 15.78-5.65 2.67-14.03 2.66-17.75-3.1-1.72-3.31-3.16-6.89-2.95-10.69-0.75-32.05-0.75-64.11-0.04-96.16-0.1-4.62 1.05-9.32 3.56-13.22z"/>
  <path id="path29" d="m710.96 148.81c12.01-0.42 24.07-1.1 36.07 0.07 12.8 1.69 25.53 8.6 31.97 20.1 6.37 14.02 5.7 32.9-6.05 43.96-5.02 4.68-11.57 7.19-18.08 9.01 4.42 5.61 9.64 10.55 13.9 16.29 5.36 6.64 12.03 12.67 14.84 20.96 1.23 5.39-0.27 12.05-5.19 15.18-3.87 2.67-9.39 2.99-13.45 0.63-6.02-5.37-11.17-11.65-15.68-18.32-8.35-10.14-15.61-21.11-24.04-31.18-1.17 9.45-0.02 18.97 0 28.45-0.19 6.1-0.48 12.8-4.59 17.71-4.01 4.32-10.91 4.84-16.13 2.66-3.21-2-4.78-5.76-5.71-9.27-1.47-6.56-1.37-13.36-1.08-20.04 0.11-26.35-0.09-52.7 0.1-79.05 0.63-5.07 0.53-11.74 5.68-14.51 2.21-1.46 4.72-2.64 7.44-2.65m14.05 25.97c0.01 10.15 0 20.31 0.01 30.46 7.99-0.49 16.98 1.84 23.95-3.27 7.45-4.9 7.18-16.42 1.84-22.76-7.17-6.28-17.1-4.42-25.8-4.43z"/>
  <path id="path31" d="m789.45 151.44c8.68-4.86 19.05-2.97 28.55-3.17 13.01 0.82 26.07-1.14 39.04 0.45 5.24 0.46 10.24 3.85 12.25 8.76 0.88 3.98 0.85 8.65-1.79 12-2.24 2.88-5.91 4.08-9.34 4.82-5.8 1.13-11.73 1.02-17.6 1.23-0.62 7.47-0.1 14.96-0.33 22.44-0.66 14.67 0.28 29.35 0.04 44.03-0.18 8.51 0.75 17.29-1.81 25.55-1.42 3.59-4.23 7.46-8.4 7.79-4.31 0.62-9.07-0.03-12.48-2.9-2.26-1.82-2.79-4.82-3.45-7.46-1.95-8.18-1.42-16.64-1.83-24.97 0.04-21.58 1.32-43.18 0.46-64.76-7.6-0.03-15.47 0.29-22.72-2.34-8.24-3.9-8.59-17.1-0.59-21.47z"/>
  <path id="path33" d="m42.4 259.7c16.57 13.82 35.46 25.35 56.44 31-3.44 25.14-7.06 50.26-10.98 75.33-19.91-3.14-39.84-6.13-59.72-9.48 4.49-32.32 9.12-64.63 14.26-96.85z"/>
  <path id="path35" d="m778.32 316.17c5.49-1.04 11.75-0.38 16.23 3.24 2.89 1.96 2.05 6.97-0.88 8.42-5.32 1.3-11.01-3.88-15.97-0.11-2.73 1.6-0.95 5.14 1.34 6.15 5.96 2.95 13.21 4.07 17.75 9.35 5.56 7.13 2.41 19.01-5.73 22.82-5.92 3.61-13.18 3.12-19.63 1.47-3.11-0.93-6.26-2.64-7.88-5.56-0.1-2.27-0.15-5.46 2.65-6.07 5.34-1.59 10.36 2.26 15.71 2.1 2.72-0.51 6.07-2.7 5.21-5.92-0.99-4.47-6.21-5.19-9.86-6.39-4.02-1.62-8.72-2.89-11.13-6.83-3.22-4.04-2.29-9.74-0.46-14.17 2.14-5.04 7.57-7.51 12.65-8.5z"/>
  <path id="path37" d="m824.02 321.97c-0.3-4.66 6.98-7.77 9.93-3.89 2.34 3.49 2.02 7.93 2.06 11.94-0.47 8.66-0.27 17.33 0.03 25.98-0.19 3.52 0.27 7.82-2.57 10.45-1.84 1.88-4.63 1.13-6.95 1.18-1.19-2.04-2.8-4.07-2.52-6.57 0.05-13.03 0-26.06 0.02-39.09z"/>
  <path id="path39" d="m878.41 316.6c7.95-2.18 16.82-0.43 23.26 4.73 10.49 9.87 11.7 27.94 2.78 39.2-4.75 5.52-12.19 8.88-19.49 8.23-7.13-0.19-14.61-2.87-18.98-8.75-4.71-6.26-5.62-14.43-5.2-22.03 0.9-9.76 7.78-19.15 17.63-21.38m2.88 10.66c-4.02 1.44-6.29 5.6-7.38 9.51-1.54 6.21-0.83 13.65 4.14 18.2 2.69 3.33 7.51 3.24 11.31 2.28 4.44-1.28 6.71-5.85 7.71-10.03 1.66-6.21 0.15-13.28-4.23-18.04-2.92-3.09-7.75-2.62-11.55-1.92z"/>
  <path id="path41" d="m453.62 317.7c6.72-1.36 13.61-0.34 20.4-0.82 3.87-0.13 8.68-0.72 11.43 2.66 2.16 2.12 1.64 6.51-1.43 7.45-3.11 1.11-6.49 0.68-9.72 0.84-0.85 11.71 0.65 23.46-0.53 35.15-0.1 1.77-1.27 3.18-2.09 4.68-2.33-0.13-5.28 0.74-7.02-1.31-1.96-1.96-2.15-4.93-2.36-7.53-0.19-10.23 0.04-20.45 0.3-30.66-3.43-0.31-7.05-0.04-10.25-1.48-3.77-1.75-2.88-8.45 1.27-8.98z"/>
  <path id="path43" d="m508.14 322.93c-0.35-3.66 3.61-6 6.88-5.76 6.33 0.11 12.86-1.01 19.04 0.83 3.48 0.84 2.57 5.09 2.65 7.75-5.25 3.15-11.55 1.55-17.31 2.4-0.07 2.67 0 5.35 0.08 8.02 4.55 0.55 9.39-0.15 13.69 1.75 3.21 1.21 3.39 6.13 0.98 8.13-4.56 2.05-9.75 1.01-14.59 1.14-0.04 3.04-0.05 6.07-0.07 9.1 4.98 0.46 10.19-0.41 14.99 1.33 3.8 1.14 4.02 7.97-0.16 8.65-6.98 1.76-14.38 1.86-21.48 0.87-3-0.3-5.34-3.09-5.06-6.09 0.18-12.71-0.42-25.43 0.36-38.12z"/>
  <path id="path45" d="m562.45 320.35c1.2-4.79 9.6-5.51 10.64-0.22 1.35 12.08 0.1 24.24 0.44 36.36 5.01 0.22 10.19-0.61 15.06 0.92 3.79 0.88 3.82 6.38 1.3 8.58-2.67 1.51-5.86 1.53-8.83 1.73-4.49 0.02-9.01 0.29-13.46-0.4-2.16-0.46-5.16-1.5-5.03-4.2-0.77-9.68 0.09-19.41-0.5-29.1-0.18-4.55-0.75-9.2 0.38-13.67z"/>
  <path id="path47" d="m612.88 329.98c-0.15-4.59-0.53-11.56 5.29-12.74 6.94 0.11 14.06-1.1 20.88 0.62 4.43 0.76 4.5 8.28 0.3 9.46-4.7 1.35-9.62 0.16-14.42 0.43-0.06 2.9 0.03 5.8 0.2 8.71 4.62 0.19 9.53-0.39 13.88 1.5 3.82 1.71 2.48 7.92-1.32 8.75-4.14 1-8.46 0.4-12.67 0.51-0.01 3.09-0.01 6.19 0.07 9.29 4.61 0.12 9.28-0.4 13.85 0.4 4.46 0.52 5.07 7.48 1.37 9.44-2.88 1.34-6.16 1.25-9.25 1.4-5.67-0.05-11.65 0.64-16.88-2.04-1.88-11.82-0.24-23.84-1.3-35.73z"/>
  <path id="path49" d="m662.66 319.6c1.65-2.96 5.22-3.23 8.24-2.74 5.54 10.21 8.05 21.76 13.09 32.2 2.41-4.92 3.79-10.24 5.69-15.35 2.39-5.38 3.07-11.58 6.8-16.32 2.71-1.3 6.87-1.14 8.37 1.94 0.67 4.42-1 8.75-2.82 12.69-4.78 11.9-9.14 23.99-14.5 35.65-2.65 0.27-5.87 0.89-7.87-1.37-2.74-3.11-3.32-7.37-4.86-11.07-3.1-6.73-5.49-13.75-8.46-20.53-1.61-4.92-5.47-9.66-3.68-15.1z"/>
  <path id="path51" d="m730.28 317.12c2.25-0.93 6.04-1.28 6.98 1.61 2.15 5.49 1.38 11.52 1.47 17.28-0.5 7.35 0.21 14.7 0.26 22.04-0.17 3.13-0.07 6.94-2.8 9.07-2.05 1.3-5.2 1.45-6.94-0.46-2.06-1.56-1.55-4.4-1.8-6.65-0.37-12.68-0.09-25.38-0.17-38.07-0.32-2.15 1.07-4.02 3-4.82z"/>
  <path id="path53" d="m935.79 319.85c-0.05-2.65 3.13-3.22 5.2-3.3 2.92-0.27 4.46 2.46 6.13 4.36 7.1 8.61 13.12 18.11 20.67 26.35 1-8.94-1.52-18.04 0.65-26.87 0.55-2.98 3.67-4.62 6.52-3.78 3.3 0.01 3.63 3.94 4.18 6.39 1 8.32-0.09 16.71 0.35 25.05-0.02 5.36 0.81 10.82-0.37 16.11-1.03 4.46-7.43 5.06-10.15 1.9-7.5-9.29-14.28-19.15-21.91-28.32-1.17 8.69 0.79 17.59-1.09 26.2-0.57 5.91-10.92 4.7-10.61-0.99-0.52-14.35-1.31-28.8 0.43-43.1z"/>
 </g>
</svg>
