<svg height="125.64844pt" viewBox="0 0 595.64142 125.64844" width="595.64142pt" xmlns="http://www.w3.org/2000/svg"><g fill="#4ab2d5" transform="translate(-21.998598 -256.86616)"><path d="m340.42 257.12c6.38.36 14.33-2.08 19.27 3.23 4.62 4.69 2.3 11.76 2.9 17.6-7.39.02-14.8.21-22.18-.1.15-6.9.13-13.82.01-20.73z"/><path d="m71.52 259.7c11.73-2.49 24.17-1.65 35.4 2.58 14.18 5.25 26.28 15.83 33.42 29.15 2.76 5.44.08 12.65-5.43 15.14-5.23 2.69-12.12.61-15.12-4.41-2.8-4.67-6.19-9.06-10.56-12.38-9.81-7.78-23.42-10.39-35.43-6.86-10.76 3.05-20.07 10.9-24.79 21.06-4.81 10.05-4.87 22.2-.2 32.31 4.85 10.75 14.8 19.01 26.25 21.82 14.66 3.9 31.23-1.62 40.62-13.54 3.18-3.57 4.53-8.89 9.18-10.99 5.65-2.99 13.38-.29 15.86 5.61 1.71 3.66 1.12 8.07-1.08 11.39-7.58 13.31-20.14 23.7-34.68 28.54-15.54 5.26-33.13 4.14-47.86-3.09-13.25-6.41-24.12-17.64-29.99-31.15-6.47-14.65-6.81-31.87-.95-46.77 7.4-19.36 25.09-34.22 45.36-38.41z"/><path d="m153.81 261.53c4.66.21 9.43-.52 14.01.5 4.17 1.37 7.44 5.48 7.32 9.95.04 11.22 0 22.45.02 33.68 2.35-3.76 4.45-7.79 7.77-10.82 6.57-6.36 16.26-8.42 25.14-7.59 10.7 1.02 20.29 7.68 26.19 16.48 4.44 6.86 5.64 15.26 5.68 23.28-.01 17.91.01 35.83-.01 53.74-6.99 0-13.97-.01-20.96 0-.14-16.92.11-33.85-.13-50.77-.12-7.28-2.68-14.7-8.09-19.72-8.61-7.9-24.26-6.1-30.59 3.84-3.92 5.81-5.03 13.01-5 19.88-.01 15.59.01 31.18-.01 46.77-7.11 0-14.22 0-21.33 0-.02-39.74 0-79.48-.01-119.22z"/><path d="m536.81 263.82c1.78-2.09 4.7-1.76 7.16-1.77 13.16.15 26.34-.24 39.5.14 3.58 12.07 6.99 24.23 11.06 36.13 3.31-10.81 6.66-21.62 10.01-32.42.37-1.76 1.65-3.33 3.49-3.65 3.19-.39 6.41-.19 9.61-.08-6.21 16.23-11.9 32.66-17.89 48.98-3.47.01-6.93.02-10.39-.01-5.06-13.46-9.74-27.07-15.07-40.41-4.17.17-8.34.04-12.5.09-.02 13.44 0 26.89-.01 40.33-3.61.01-7.21.01-10.81 0-.01-13.44.01-26.89-.01-40.34-5.17-.01-10.34.01-15.5-.01.1-2.34-.52-5.14 1.35-6.98z"/><path d="m281.58 287.73c11.65-1.61 24.48-.64 34.36 6.34 9.33 6.48 14.38 17.51 16.38 28.41 2.02 13.1 1.26 27.12-4.69 39.16-4.5 9.4-13.3 16.75-23.52 19.03-11.92 3.35-25.04 1.93-36.03-3.73-7.54-3.9-13.36-10.85-16-18.91-4.79-14.49-5.24-30.57-.49-45.14 4.05-13.27 16.19-23.52 29.99-25.16m3.95 17.88c-9.95 1.92-14.87 12.24-15.67 21.46-.7 9.2-.16 18.83 3.41 27.45 4.58 11.36 21.58 14.78 30.13 5.93 7.01-6.43 8.28-16.48 8.52-25.48.06-8.36-1.05-17.57-7.07-23.91-4.59-5.52-12.54-7.56-19.32-5.45z"/><path d="m380.71 300.62c6.33-7.93 16.2-12.42 26.2-13.24 11.14-.95 23.09.7 32.37 7.34 6.93 4.75 11.12 12.46 13.79 20.23-7.39.04-14.77.02-22.16.01-5.51-11.97-23.67-13.76-32.33-4.41-5.58 6.75-6.49 15.98-6.55 24.42.13 7.91.98 16.54 6.13 22.95 6.14 8.14 18.42 8.8 27.02 4.48 4.15-1.77 5.86-7.36 10.78-7.62 5.94-.29 11.91-.06 17.86-.11-2.38 7.69-6.88 14.89-13.51 19.62-9.69 7.31-22.47 9.15-34.29 7.83-9.35-1.01-18.47-5.32-24.55-12.61-7.98-9.15-10.58-21.68-10.78-33.51-.25-12.36 1.99-25.55 10.02-35.38z"/><path d="m469.57 300.55c6.17-7.67 15.67-12.14 25.37-13.08 11.43-1.14 23.77.48 33.29 7.35 6.8 4.76 11.2 12.27 13.59 20.1 2.51 8.04 2.88 16.55 2.7 24.92-20.89.01-41.78 0-62.67.01-.01 7.88 1.95 16.63 8.65 21.57 6.88 4.73 16.49 4.6 23.78.83 3.83-1.71 5.22-6.84 9.7-7.36 6.2-.52 12.43-.11 18.65-.23-2.37 7.69-6.87 14.87-13.46 19.6-9.94 7.5-23.1 9.28-35.18 7.75-9.31-1.16-18.26-5.69-24.18-13.04-7.87-9.41-10.26-22.11-10.32-34.07-.11-12.04 2.25-24.82 10.08-34.35m21.85 6.75c-6.94 3.82-9.69 12.11-9.58 19.63 13.35 0 26.7.02 40.05-.01-.42-5.57-1.32-11.5-4.92-15.99-6.08-7.21-17.59-7.99-25.55-3.63z"/><path d="m340.45 289.31c5.14.2 10.5-.81 15.49.71 3.92 1.61 6.83 5.66 6.62 9.98.01 26.91 0 53.83 0 80.74-7.36-.02-14.73.07-22.1-.04.05-30.47.08-60.93-.01-91.39z"/><path d="m79.41 304.65c7.42-2.64 16.41.74 20.12 7.72 3.95 6.8 2.02 16.21-4.25 20.94-6.01 4.88-15.36 4.78-21.26-.24-5.45-4.38-7.51-12.38-4.82-18.84 1.77-4.49 5.62-8.08 10.21-9.58z"/></g></svg>