<svg height="197.61603" width="210.04526" xmlns="http://www.w3.org/2000/svg"><path d="m97.932446 4.0910203c-31.498432 0-58.917346 17.4703597-73.097046 43.2478227l15.85506 8.498238c11.16915-19.975776 32.530799-33.484218 57.043482-33.484218 36.067448 0 65.306008 29.23849 65.306008 65.305971 0 36.067516-29.23856 65.306016-65.306008 65.306016-24.826046 0-46.418382-13.85591-57.465272-34.25341l-15.6814 8.41139c14.10581 26.02827 41.660583 43.70683 73.345176 43.70683 46.043614 0 83.369324-37.3257 83.369324-83.369294 0-46.043629-37.32571-83.3693457-83.369324-83.3693457zm-.19835 43.2726357c-22.25438 0-40.295176 18.040759-40.295176 40.295178 0 22.254416 18.040796 40.295186 40.295176 40.295186 15.391374 0 28.769844-8.62934 35.556034-21.31375l-16.41331-8.795962c-3.67751 7.041452-11.04569 11.847862-19.5397 11.847862-12.168669 0-22.033331-9.864665-22.033331-22.033336 0-12.16867 9.864662-22.033334 22.033331-22.033334 8.1846 0 15.3184 4.466346 19.11784 11.091106l16.41337-8.808345c-6.90879-12.263493-20.05557-20.544605-35.134234-20.544605z"/><path d="m35.72498 183.74373c-.21489.01-.44233.13523-.49154.42471l-2.13918 12.58332c-.0582.34302.12104.62918.37753.62918h2.17062c.25674 0 .42675-.28616.47188-.62918l.75498-5.74115 3.27168 6.2445c.16773.31997.83409.31997 1.00669 0l3.31099-6.1344.76286 5.63105c.0465.34302.0717.62918.43256.62918h2.32791c.19649 0 .30702-.28619.24775-.62918l-2.17455-12.58332c-.0888-.51368-.73773-.51411-.88085-.2517l-4.53002 8.30502-4.53-8.30502c-.0626-.11488-.22216-.17964-.38931-.17291zm-28.86703.0471c-3.76251-.0173-6.81822 3.02996-6.85795 6.78325v.14948c.0396 3.75333 3.09544 6.79961 6.85795 6.78328 1.57183-.006 3.35885-.5413 4.72662-1.8875.12662-.12448.12489-.24485-.008-.37751l-1.76167-1.76168c-.11566-.1156-.23897-.11245-.3657 0-.62956.55812-1.59152.97489-2.59139 1.00665-2.0934.0665-3.79848-1.67677-3.83794-3.76321 0-.0513 0-.10156 0-.14948.0392-2.08644 1.74454-3.82969 3.83794-3.7632.99987.0317 1.96183.44855 2.59139 1.00666.12681.11245.25004.1156.3657 0l1.76167-1.76167c.13276-.13279.1345-.25297.008-.37748-1.36777-1.34626-3.15479-1.8807-4.72662-1.88755zm15.35169 0c-3.78752 0-6.85793 3.0704-6.85793 6.85795 0 3.78753 3.07041 6.85796 6.85793 6.85796 3.78755 0 6.85795-3.07043 6.85795-6.85796 0-3.78755-3.0704-6.85795-6.85795-6.85795zm31.44272.12591c-.23528 0-.4247.18945-.4247.4247v12.61481c0 .23532.18943.4247.4247.4247h7.83313c.23529 0 .42469-.18943.42469-.4247v-2.0448c0-.23526-.18943-.42468-.42469-.42468h-5.23782v-2.51668h4.35701c.23526 0 .42466-.18943.42466-.42466v-2.04482c0-.23524-.18944-.4247-.42466-.4247h-4.35701v-2.26497h5.23782c.23529 0 .42469-.18945.42469-.4247v-2.0448c0-.2353-.18943-.4247-.42469-.4247zm13.825986 0c-.286559 0-.519071.23253-.519071.51907v12.42606c0 .28658.232512.51908.519071.51908h4.435627.424678c.05591 0 .10702-.0115.157352-.0276 3.445191-.29542 6.150133-3.18287 6.150133-6.70458 0-3.52169-2.704942-6.40918-6.150133-6.7046-.05034-.0173-.101447-.0275-.157352-.0275h-.424678-4.435627zm14.234914 0c-.344024 0-.465603.23253-.275243.51907l3.409282 5.13557.711756 1.06961.133721.20053v5.91811c0 .34405.277278.62132.62132.62132h1.903216c.344022 0 .621301-.27727.621301-.62132v-5.8945l.149475-.22414.692101-1.046.0196-.0236 3.409302-5.13558c.190398-.28655.06493-.51904-.2792-.51904h-2.186352c-.344004 0-.773063.23249-.963423.51904l-2.40655 3.62167-2.406569-3.62167c-.190399-.28655-.623339-.51904-.967362-.51904h-2.186353zm-59.50362 2.8942c2.11965 0 3.83796 1.71828 3.83796 3.83791 0 2.11962-1.71831 3.83792-3.83796 3.83792-2.1196 0-3.83789-1.7183-3.83789-3.83792 0-2.11963 1.71829-3.83791 3.83789-3.83791zm47.753912 0h1.698771c2.119627 0 3.8379 1.71828 3.8379 3.83791 0 2.11962-1.718273 3.83792-3.8379 3.83792h-1.698771z"/><path d="m159.11542 183.73584c-.35021-.0115-.84547.20602-.84547.46402v12.55976c0 .34404.2773.62132.62132.62132h1.90326c.34399 0 .62127-.27728.62127-.62132v-6.59051l7.43205 7.29836c.24545.24103 1.12465-.0255 1.12465-.36966v-12.55976c0-.34401-.27729-.62131-.62133-.62131h-1.90321c-.34402 0-.62131.2773-.62131.62131v6.82645l-7.43207-7.53429c-.0603-.0613-.16252-.0905-.27916-.0945zm33.92396.0551c-1.57184.006-3.35884.54124-4.72661 1.8875-.12663.12448-.12491.24481.007.37751l1.76166 1.76168c.1156.1156.23896.11244.36571 0 .62955-.55814 1.59154-.97494 2.5914-1.00671 2.0934-.0665 3.79866 1.67677 3.83791 3.76321.001.0477.001.098 0 .14948-.0394 2.08641-1.74451 3.82969-3.83791 3.76321-.99986-.0316-1.96185-.44857-2.5914-1.00668-.12678-.11244-.25007-.1156-.36571 0l-1.76166 1.76171c-.1325.1325-.13451.25294-.007.37748 1.36777 1.34622 3.15477 1.88065 4.72661 1.88749 3.76252.0173 6.81834-3.02997 6.85794-6.78321v-.14948c-.0398-3.75324-3.09542-6.79954-6.85794-6.78319zm-90.85587.12591c-.22874 0-.4129.18406-.4129.41287v2.0684c0 .22875.18426.41287.4129.41287h4.49465v10.15716c0 .22872.18426.41287.41286.41287h2.3201c.22875 0 .41286-.18407.41286-.41287 0-3.04593.00006-8.5481 0-12.63843.0153-.22821-.18406-.41287-.41286-.41287zm11.84412 0c-.25224 0-.36984.18406-.26345.41287l6.0636 13.0513c.14564.31335.68401.31335.82973 0l6.06752-13.0513c.10643-.22872-.0115-.41287-.26343-.41287h-2.15885c-.25227 0-.54246.18406-.64885.41287l-.74319 1.60043h-5.31648l-.74319-1.60043c-.10644-.22872-.39264-.41287-.64491-.41287zm16.33871 0c-.28653 0-.40729.20388-.27134.45614l2.70546 5.02154c-1.64897.52721-2.84307 2.07304-2.84307 3.89692 0 2.25861 1.83099 4.08957 4.0896 4.08957h5.70967c.28657 0 .51907-.23251.51907-.51904v-12.42609c0-.28653-.2325-.51904-.51907-.51904h-1.98188c-.28651 0-.51904.23251-.51904.51904v4.76595h-1.17181l-2.60319-4.82885c-.13609-.25226-.47633-.45614-.76288-.45614zm17.87229 0c-.2287 0-.41285.18406-.41285.41287v10.15716h-2.73297c-.22875 0-.41288.18406-.41288.41287v2.0684c0 .22872.18406.41287.41288.41287h8.48591c.22875 0 .41288-.18407.41288-.41287v-2.0684c0-.22875-.18406-.41287-.41288-.41287h-2.73294v-10.15716c0-.22872-.18406-.41287-.41288-.41287zm27.19189 0c-.23525 0-.42469.18945-.42469.42464v2.04482c0 .23528.18944.42468.42469.42468h5.23784v2.51667h-4.35698c-.2353 0-.4247.18944-.4247.42472v2.04478c0 .23531.18943.42469.4247.42469h4.35698v2.26503h-5.23784c-.23525 0-.42469.18944-.42469.42468v2.04479c0 .23528.18944.42467.42469.42467h7.83314c.23529 0 .42469-.18945.42469-.42467v-12.61486c0-.23525-.18944-.42464-.42469-.42464zm-56.6055 4.65581h2.8549l-1.42745 3.07115zm15.66239 3.02003h2.76833v3.01999h-2.76833c-.83396 0-1.51003-.67604-1.51003-1.50998 0-.83393.67607-1.51001 1.51003-1.51001z"/></svg>