<?xml version="1.0" encoding="UTF-8" standalone="no"?>
<svg
   xmlns:dc="http://purl.org/dc/elements/1.1/"
   xmlns:cc="http://creativecommons.org/ns#"
   xmlns:rdf="http://www.w3.org/1999/02/22-rdf-syntax-ns#"
   xmlns:svg="http://www.w3.org/2000/svg"
   xmlns="http://www.w3.org/2000/svg"
   xmlns:sodipodi="http://sodipodi.sourceforge.net/DTD/sodipodi-0.dtd"
   xmlns:inkscape="http://www.inkscape.org/namespaces/inkscape"
   xml:space="preserve"
   height="153.58412"
   viewBox="0 0 587.6817 153.58681"
   width="587.6817"
   version="1.1"
   id="svg2"
   inkscape:version="0.91 r13725"
   sodipodi:docname="daystartv.light.svg"><metadata
     id="metadata62"><rdf:RDF><cc:Work
         rdf:about=""><dc:format>image/svg+xml</dc:format><dc:type
           rdf:resource="http://purl.org/dc/dcmitype/StillImage" /><dc:title></dc:title></cc:Work></rdf:RDF></metadata><defs
     id="defs60" /><sodipodi:namedview
     pagecolor="#ffffff"
     bordercolor="#666666"
     borderopacity="1"
     objecttolerance="10"
     gridtolerance="10"
     guidetolerance="10"
     inkscape:pageopacity="0"
     inkscape:pageshadow="2"
     inkscape:window-width="1920"
     inkscape:window-height="1017"
     id="namedview58"
     showgrid="false"
     fit-margin-top="0"
     fit-margin-left="0"
     fit-margin-right="0"
     fit-margin-bottom="0"
     inkscape:zoom="1.92"
     inkscape:cx="121.24302"
     inkscape:cy="-18.220156"
     inkscape:window-x="-8"
     inkscape:window-y="-8"
     inkscape:window-maximized="1"
     inkscape:current-layer="svg2" /><g
     id="g4181"><path
       d="m 52.033542,97.664225 c -8.719782,3.306585 -15.946268,3.839905 -27.079323,3.839905 l -4.346558,0 0,-51.572045 3.906569,0 c 12.919677,0 23.759406,1.06664 32.332525,6.613168 7.213153,4.466555 11.879703,11.706374 11.879703,19.386182 0,8.413123 -5.719857,17.479563 -16.692916,21.73279 z M 70.979735,39.985667 C 64.526563,35.33245 52.633527,29.172604 25.260878,29.172604 l -25.26603556,0 0,93.096346 25.71935756,0 c 12.479688,0 26.772664,-1.2573 36.999075,-6.03186 16.239594,-7.42647 26.626001,-23.532741 26.626001,-40.265656 0,-14.586302 -7.826471,-28.425956 -18.359541,-35.985767"
       id="path6"
       inkscape:connector-curvature="0"
       style="fill:#ffffff" /><path
       d="m 529.20828,49.3321 -51.83871,0 C 476.3296,46.118847 461.34331,0 461.34331,0 c 0,0 -14.98629,46.118847 -16.01293,49.3321 l -51.86537,0 51.59871,26.612668 -18.37288,-14.492971 28.13263,0 c 0,0 4.34656,-13.372999 6.51984,-20.079498 2.06661,6.359841 6.51984,20.079498 6.51984,20.079498 l 25.46603,0 -20.90615,14.172979 1.2933,3.879903 c 1.17331,3.586577 4.43989,13.612993 5.25321,16.13293 -6.49318,-4.719882 -17.83956,-12.959676 -17.83956,-12.959676 l -74.31814,70.908887 c 0.54665,-0.43199 64.83838,-47.40281 74.57147,-54.935953 2.77326,2.026613 41.91895,30.467233 41.91895,30.467233 L 487.24933,79.758006 c 2.14661,-1.546628 1.97328,-1.413298 41.95895,-30.425906"
       id="path8"
       inkscape:connector-curvature="0"
       style="fill:#fcd13b" /><path
       inkscape:connector-curvature="0"
       id="path12"
       d="m 557.46091,87.917802 c 5.55986,-1.133305 11.8797,-2.39994 18.49287,-7.679808 7.97313,-6.426506 10.67973,-16.119597 10.67973,-22.26611 0,-10.693066 -6.75983,-18.239544 -13.07967,-22.519437 -6.31985,-4.279893 -14.29298,-6.293176 -27.07933,-6.293176 l -34.14581,0 0,16.119597 33.83915,-0.01333 c 16.10627,0 19.86617,8.93311 19.86617,14.079648 0,4.919877 -2.86659,14.346308 -19.86617,14.346308 l -13.22633,0 0,-22.319442 -20.61282,14.959626 0,55.926602 20.61282,0 0,-35.967101 29.77259,35.967101 24.97271,0 -30.22591,-34.340475"
       style="fill:#ffffff" /><path
       inkscape:connector-curvature="0"
       id="path14"
       d="m 210.21625,87.904469 -36.54575,-58.745198 22.55944,0 24.21273,42.772264 24.35939,-42.772264 22.57276,0 -36.54575,58.745198 0,34.343151 -20.61282,0 0,-34.343151"
       style="fill:#ffffff" /><path
       inkscape:connector-curvature="0"
       id="path16"
       d="m 287.22766,94.784297 c 1.05331,8.959773 8.42646,11.999693 14.7463,11.999693 8.1198,0 15.33295,-4.49322 15.33295,-11.266378 0,-9.213103 -7.35982,-10.906394 -21.19947,-15.159621 -8.57312,-2.6666 -26.47934,-6.906494 -26.47934,-25.799355 0,-14.292976 13.83966,-25.572694 32.65252,-25.572694 12.93301,0 31.8792,7.279818 32.93251,25.572694 l -21.06614,0 c -0.89331,-7.9998 -6.9065,-10.053082 -12.47969,-10.053082 -6.4665,0 -11.42638,3.759906 -11.42638,9.093106 0,7.746473 7.22649,9.439764 18.5062,12.479688 9.15977,2.413273 29.17261,8.106464 29.17261,27.612643 0,19.386179 -18.65287,28.595279 -36.09243,28.595279 -14.29298,0 -35.05246,-7.75581 -36.25243,-27.501973 l 21.65279,0"
       style="fill:#ffffff" /><path
       inkscape:connector-curvature="0"
       id="path18"
       d="m 367.81231,45.265535 -20.61281,0 0,-16.106264 61.97178,0 0,16.106264 -20.75948,0 0,77.016745 -20.59949,0 0,-77.016745"
       style="fill:#ffffff" /><path
       inkscape:connector-curvature="0"
       id="path20"
       d="m 126.51168,81.984617 25.55936,0 -12.78635,-28.865945 z m 4.81321,-52.825346 16.09293,0 46.6255,93.106999 -22.71943,0 -11.8797,-24.042059 -39.85234,0 -11.8797,24.042059 -22.719432,0 46.332172,-93.106999"
       style="fill:#ffffff" /></g></svg>