<?xml version="1.0" encoding="UTF-8"?>
<svg id="svg2" width="587.68" height="153.58" version="1.1" viewBox="0 0 587.68 153.59" xml:space="preserve" xmlns="http://www.w3.org/2000/svg" xmlns:cc="http://creativecommons.org/ns#" xmlns:dc="http://purl.org/dc/elements/1.1/" xmlns:rdf="http://www.w3.org/1999/02/22-rdf-syntax-ns#"><metadata id="metadata62"><rdf:RDF><cc:Work rdf:about=""><dc:format>image/svg+xml</dc:format><dc:type rdf:resource="http://purl.org/dc/dcmitype/StillImage"/><dc:title/></cc:Work></rdf:RDF></metadata><g id="g4181"><path id="path6" d="m52.034 97.664c-8.7198 3.3066-15.946 3.8399-27.079 3.8399h-4.3466v-51.572h3.9066c12.92 0 23.759 1.0666 32.333 6.6132 7.2132 4.4666 11.88 11.706 11.88 19.386 0 8.4131-5.7199 17.48-16.693 21.733zm18.946-57.679c-6.4532-4.6532-18.346-10.813-45.719-10.813h-25.266v93.096h25.719c12.48 0 26.773-1.2573 36.999-6.0319 16.24-7.4265 26.626-23.533 26.626-40.266 0-14.586-7.8265-28.426-18.36-35.986" fill="#3d659c"/><path id="path8" d="m529.21 49.332h-51.839c-1.04-3.2133-16.026-49.332-16.026-49.332s-14.986 46.119-16.013 49.332h-51.865l51.599 26.613-18.373-14.493h28.133s4.3466-13.373 6.5198-20.079c2.0666 6.3598 6.5198 20.079 6.5198 20.079h25.466l-20.906 14.173 1.2933 3.8799c1.1733 3.5866 4.4399 13.613 5.2532 16.133-6.4932-4.7199-17.84-12.96-17.84-12.96l-74.318 70.909c0.54665-0.43199 64.838-47.403 74.571-54.936 2.7733 2.0266 41.919 30.467 41.919 30.467l-16.053-49.36c2.1466-1.5466 1.9733-1.4133 41.959-30.426" fill="#fcd13b"/><path id="path12" d="m557.46 87.918c5.5599-1.1333 11.88-2.3999 18.493-7.6798 7.9731-6.4265 10.68-16.12 10.68-22.266 0-10.693-6.7598-18.24-13.08-22.519-6.3198-4.2799-14.293-6.2932-27.079-6.2932h-34.146v16.12l33.839-0.01333c16.106 0 19.866 8.9331 19.866 14.08 0 4.9199-2.8666 14.346-19.866 14.346h-13.226v-22.319l-20.613 14.96v55.927h20.613v-35.967l29.773 35.967h24.973l-30.226-34.34" fill="#3d659c"/><path id="path14" d="m210.22 87.904-36.546-58.745h22.559l24.213 42.772 24.359-42.772h22.573l-36.546 58.745v34.343h-20.613v-34.343" fill="#3d659c"/><path id="path16" d="m287.23 94.784c1.0533 8.9598 8.4265 12 14.746 12 8.1198 0 15.333-4.4932 15.333-11.266 0-9.2131-7.3598-10.906-21.199-15.16-8.5731-2.6666-26.479-6.9065-26.479-25.799 0-14.293 13.84-25.573 32.653-25.573 12.933 0 31.879 7.2798 32.933 25.573h-21.066c-0.89331-7.9998-6.9065-10.053-12.48-10.053-6.4665 0-11.426 3.7599-11.426 9.0931 0 7.7465 7.2265 9.4398 18.506 12.48 9.1598 2.4133 29.173 8.1065 29.173 27.613 0 19.386-18.653 28.595-36.092 28.595-14.293 0-35.052-7.7558-36.252-27.502h21.653" fill="#3d659c"/><path id="path18" d="m367.81 45.266h-20.613v-16.106h61.972v16.106h-20.759v77.017h-20.599v-77.017" fill="#3d659c"/><path id="path20" d="m126.51 81.985h25.559l-12.786-28.866zm4.8132-52.825h16.093l46.626 93.107h-22.719l-11.88-24.042h-39.852l-11.88 24.042h-22.719l46.332-93.107" fill="#3d659c"/></g></svg>
