<svg height="153.58412" viewBox="0 0 587.6817 153.58681" width="587.6817" xmlns="http://www.w3.org/2000/svg"><path d="m52.033542 97.664225c-8.719782 3.306585-15.946268 3.839905-27.079323 3.839905h-4.346558v-51.572045h3.906569c12.919677 0 23.759406 1.06664 32.332525 6.613168 7.213153 4.466555 11.879703 11.706374 11.879703 19.386182 0 8.413123-5.719857 17.479563-16.692916 21.73279zm18.946193-57.678558c-6.453172-4.653217-18.346208-10.813063-45.718857-10.813063h-25.26603556v93.096346h25.71935756c12.479688 0 26.772664-1.2573 36.999075-6.03186 16.239594-7.42647 26.626001-23.532741 26.626001-40.265656 0-14.586302-7.826471-28.425956-18.359541-35.985767" fill="#3d659c"/><path d="m529.20828 49.3321h-51.83871c-1.03997-3.213253-16.02626-49.3321-16.02626-49.3321s-14.98629 46.118847-16.01293 49.3321h-51.86537l51.59871 26.612668-18.37288-14.492971h28.13263s4.34656-13.372999 6.51984-20.079498c2.06661 6.359841 6.51984 20.079498 6.51984 20.079498h25.46603l-20.90615 14.172979 1.2933 3.879903c1.17331 3.586577 4.43989 13.612993 5.25321 16.13293-6.49318-4.719882-17.83956-12.959676-17.83956-12.959676l-74.31814 70.908887c.54665-.43199 64.83838-47.40281 74.57147-54.935953 2.77326 2.026613 41.91895 30.467233 41.91895 30.467233l-16.05293-49.360094c2.14661-1.546628 1.97328-1.413298 41.95895-30.425906" fill="#fcd13b"/><g fill="#3d659c"><path d="m557.46091 87.917802c5.55986-1.133305 11.8797-2.39994 18.49287-7.679808 7.97313-6.426506 10.67973-16.119597 10.67973-22.26611 0-10.693066-6.75983-18.239544-13.07967-22.519437-6.31985-4.279893-14.29298-6.293176-27.07933-6.293176h-34.14581v16.119597l33.83915-.01333c16.10627 0 19.86617 8.93311 19.86617 14.079648 0 4.919877-2.86659 14.346308-19.86617 14.346308h-13.22633v-22.319442l-20.61282 14.959626v55.926602h20.61282v-35.967101l29.77259 35.967101h24.97271l-30.22591-34.340475"/><path d="m210.21625 87.904469-36.54575-58.745198h22.55944l24.21273 42.772264 24.35939-42.772264h22.57276l-36.54575 58.745198v34.343151h-20.61282z"/><path d="m287.22766 94.784297c1.05331 8.959773 8.42646 11.999693 14.7463 11.999693 8.1198 0 15.33295-4.49322 15.33295-11.266378 0-9.213103-7.35982-10.906394-21.19947-15.159621-8.57312-2.6666-26.47934-6.906494-26.47934-25.799355 0-14.292976 13.83966-25.572694 32.65252-25.572694 12.93301 0 31.8792 7.279818 32.93251 25.572694h-21.06614c-.89331-7.9998-6.9065-10.053082-12.47969-10.053082-6.4665 0-11.42638 3.759906-11.42638 9.093106 0 7.746473 7.22649 9.439764 18.5062 12.479688 9.15977 2.413273 29.17261 8.106464 29.17261 27.612643 0 19.386179-18.65287 28.595279-36.09243 28.595279-14.29298 0-35.05246-7.75581-36.25243-27.501973z"/><path d="m367.81231 45.265535h-20.61281v-16.106264h61.97178v16.106264h-20.75948v77.016745h-20.59949z"/><path d="m126.51168 81.984617h25.55936l-12.78635-28.865945zm4.81321-52.825346h16.09293l46.6255 93.106999h-22.71943l-11.8797-24.042059h-39.85234l-11.8797 24.042059h-22.719432z"/></g></svg>