<?xml version="1.0" encoding="UTF-8" standalone="no"?>
<!-- Created with Inkscape (http://www.inkscape.org/) -->

<svg
   xmlns:dc="http://purl.org/dc/elements/1.1/"
   xmlns:cc="http://creativecommons.org/ns#"
   xmlns:rdf="http://www.w3.org/1999/02/22-rdf-syntax-ns#"
   xmlns:svg="http://www.w3.org/2000/svg"
   xmlns="http://www.w3.org/2000/svg"
   xmlns:xlink="http://www.w3.org/1999/xlink"
   xmlns:sodipodi="http://sodipodi.sourceforge.net/DTD/sodipodi-0.dtd"
   xmlns:inkscape="http://www.inkscape.org/namespaces/inkscape"
   width="712.08502"
   height="89.713005"
   id="svg2"
   sodipodi:version="0.32"
   inkscape:version="0.91 r13725"
   version="1.0"
   inkscape:output_extension="org.inkscape.output.svg.inkscape"
   sodipodi:docname="ESPN 2 HD.svg">
  <metadata
     id="metadata4111">
    <rdf:RDF>
      <cc:Work
         rdf:about="">
        <dc:format>image/svg+xml</dc:format>
        <dc:type
           rdf:resource="http://purl.org/dc/dcmitype/StillImage" />
        <dc:title></dc:title>
      </cc:Work>
    </rdf:RDF>
  </metadata>
  <defs
     id="defs4109" />
  <sodipodi:namedview
     pagecolor="#ffffff"
     bordercolor="#666666"
     borderopacity="1"
     objecttolerance="10"
     gridtolerance="10"
     guidetolerance="10"
     inkscape:pageopacity="0"
     inkscape:pageshadow="2"
     inkscape:window-width="1920"
     inkscape:window-height="1017"
     id="namedview4107"
     showgrid="false"
     inkscape:zoom="1.1612648"
     inkscape:cx="528.47277"
     inkscape:cy="212.40509"
     inkscape:window-x="-8"
     inkscape:window-y="-8"
     inkscape:window-maximized="1"
     inkscape:current-layer="layer1"
     fit-margin-top="0"
     fit-margin-left="0"
     fit-margin-right="0"
     fit-margin-bottom="0" />
  <g
     inkscape:label="Layer 1"
     inkscape:groupmode="layer"
     id="layer1"
     transform="translate(1.6269837,-935.44292)">
    <g
       id="g3766"
       clip-path="url(#id36)"
       transform="matrix(1,0,0,-1,-102.54795,1791.004)">
      <g
         id="g3768"
         clip-path="url(#id37)">
        <g
           id="g3770"
           transform="matrix(5.0401,0,0,4.9633,536.9738,923.9075)">
          <use
             id="use3772"
             xlink:href="#id38"
             x="0"
             y="0"
             width="744.09448"
             height="1052.3622" />
        </g>
      </g>
    </g>
    <g
       id="g4260"
       transform="matrix(1.2938148,0,0,1.2938148,0.47803185,-301.20595)">
      <path
         id="path3808"
         d="m 66.071501,975.45607 2.355103,-19.64008 -62.7313607,0 -2.041088,19.64008 62.4173457,0"
         style="fill:#ef2c2f;fill-opacity:1;fill-rule:nonzero;stroke:none"
         inkscape:connector-curvature="0" />
      <path
         id="path3810"
         d="m 206.76388,975.45607 c 0.35684,-2.926 1.14187,-10.61933 -0.3711,-13.28844 -2.09819,-3.72535 -4.62457,-5.92344 -9.3205,-6.35164 l -114.572157,0 c -4.410464,0.34256 -6.865479,1.94117 -10.119802,5.98053 -2.497836,3.09732 -3.24005,10.74785 -3.439877,13.65955 l 137.823436,0"
         style="fill:#ef2c2f;fill-opacity:1;fill-rule:nonzero;stroke:none"
         inkscape:connector-curvature="0" />
      <path
         id="path3812"
         d="m 139.52215,982.39297 -4.43902,42.76293 23.9935,0 2.59775,-26.71973 32.94288,0 c 7.62197,-1.099 10.87629,-9.7344 10.99048,-16.0432 l -66.08559,0"
         style="fill:#ef2c2f;fill-opacity:1;fill-rule:nonzero;stroke:none"
         inkscape:connector-curvature="0" />
      <path
         id="path3814"
         d="m 279.10121,975.45607 0.0428,-11.7041 c -0.57094,-4.7673 -4.1821,-7.50778 -9.67733,-7.93598 l -58.33517,0 -2.02682,19.64008 69.9965,0"
         style="fill:#ef2c2f;fill-opacity:1;fill-rule:nonzero;stroke:none"
         inkscape:connector-curvature="0" />
      <path
         id="path3816"
         d="m 253.36636,982.39297 -4.43901,42.76293 23.80794,0 5.15268,-42.76293 -24.52161,0"
         style="fill:#ef2c2f;fill-opacity:1;fill-rule:nonzero;stroke:none"
         inkscape:connector-curvature="0" />
      <path
         id="path3818"
         d="m 208.26258,982.39297 -4.43901,42.76293 23.80795,0 5.15267,-42.76293 -24.52161,0"
         style="fill:#ef2c2f;fill-opacity:1;fill-rule:nonzero;stroke:none"
         inkscape:connector-curvature="0" />
      <path
         id="path3820"
         d="m 129.38807,982.39297 -61.332573,0 c -0.271194,1.7842 -0.528114,5.4952 0.713667,10.0484 1.869808,6.9083 9.192035,6.5229 9.192035,6.5229 l 33.570911,-0.3853 -1.15614,6.93683 -44.647029,0.1427 -2.012542,19.4974 c 0,0 55.109391,0 56.636641,0 4.39619,0 10.19117,-3.4541 13.00302,-11.6898 0.4282,-1.7414 2.34083,-19.71153 2.31228,-20.95333 -0.11419,-4.6388 -2.74048,-8.3356 -6.28027,-10.1198"
         style="fill:#ef2c2f;fill-opacity:1;fill-rule:nonzero;stroke:none"
         inkscape:connector-curvature="0" />
      <path
         id="path3822"
         d="m 63.017005,999.73507 2.083909,-17.3421 -62.2888867,0 -4.439011,42.76293 61.5752197,0 2.369375,-19.6401 -37.039336,0 0.856401,-5.78073 36.882329,0"
         style="fill:#ef2c2f;fill-opacity:1;fill-rule:nonzero;stroke:none"
         inkscape:connector-curvature="0" />
      <path
         id="path3824"
         stroke-miterlimit="4"
         d="m 306.62022,956.7723 49.30014,-0.12846 c 0,0 10.71928,-0.52811 9.93425,8.23572 l -2.48356,25.36371 c 0,0 -1.04196,7.5792 -8.23573,7.5792 l -29.36027,0 -0.8564,8.12153 36.88233,0 -1.84126,17.5134 -61.18984,0 3.79671,-31.64403 c 0,0 0.38538,-9.1492 8.6211,-9.1492 l 29.16045,0 0.65657,-7.9788 -36.48267,0 2.09818,-17.91307 z"
         style="fill:#ef2c2f;fill-opacity:1;fill-rule:nonzero;stroke:none;stroke-width:2.95458293;stroke-linecap:butt;stroke-linejoin:miter;stroke-miterlimit:4"
         inkscape:connector-curvature="0" />
    </g>
    <g
       id="g9522"
       clip-path="url(#id123)"
       transform="matrix(1,0,0,-1,-102.54795,1791.004)">
      <g
         id="g9524"
         transform="matrix(2.98877,-5.627914,-2.368079,-1.2576,127.81424,907.27368)">
        <g
           id="g9526"
           clip-path="url(#id124)">
          <g
             id="g9528"
             transform="matrix(0.461702,0,0,-0.928993,-0.09701,0.964531)">
            <use
               id="use9530"
               xlink:href="#id125"
               x="0"
               y="0"
               width="744.09448"
               height="1052.3622" />
          </g>
        </g>
      </g>
    </g>
    <g
       id="g9532"
       clip-path="url(#id126)"
       transform="matrix(1,0,0,-1,-102.54795,1791.004)">
      <g
         id="g9534"
         transform="matrix(2.98877,-5.627914,-1.607287,-0.853574,125.84421,906.22748)">
        <g
           id="g9536"
           clip-path="url(#id127)">
          <g
             id="g9538"
             transform="matrix(0.592333,0,0,-1.611694,0.256922,1.09642)">
            <use
               id="use9540"
               xlink:href="#id128"
               x="0"
               y="0"
               width="744.09448"
               height="1052.3622" />
          </g>
        </g>
      </g>
    </g>
    <g
       id="g9542"
       clip-path="url(#id129)"
       transform="matrix(1,0,0,-1,-102.54795,1791.004)">
      <g
         id="g9544"
         transform="matrix(2.98877,-5.627914,-3.64952,-1.938136,130.57352,908.73907)">
        <g
           id="g9546"
           clip-path="url(#id130)">
          <g
             id="g9548"
             transform="matrix(0.953197,0,0,-1.019833,0.156406,1.042942)">
            <use
               id="use9550"
               xlink:href="#id131"
               x="0"
               y="0"
               width="744.09448"
               height="1052.3622" />
          </g>
        </g>
      </g>
    </g>
    <g
       id="g9552"
       clip-path="url(#id132)"
       transform="matrix(1,0,0,-1,-102.54795,1791.004)">
      <g
         id="g9554"
         transform="matrix(3.04801,0,0,-0.767771,128.26166,907.26373)">
        <g
           id="g9556"
           clip-path="url(#id133)">
          <g
             id="g9558"
             transform="matrix(0.999985,0,0,-0.751587,-0.003304,0.875854)">
            <use
               id="use9560"
               xlink:href="#id134"
               x="0"
               y="0"
               width="744.09448"
               height="1052.3622" />
          </g>
        </g>
      </g>
    </g>
    <g
       id="g9570"
       clip-path="url(#id138)"
       transform="matrix(1,0,0,-1,-102.54795,1791.004)">
      <g
         id="g9572"
         transform="matrix(0,7.154098,7.154098,0,128.10525,898.52161)">
        <g
           id="g9574"
           clip-path="url(#id139)">
          <g
             id="g9576"
             transform="matrix(0.095924,0,0,-0.481243,0.755779,0.228798)">
            <use
               id="use9578"
               xlink:href="#id140"
               x="0"
               y="0"
               width="744.09448"
               height="1052.3622" />
          </g>
        </g>
      </g>
    </g>
    <g
       id="g9580"
       clip-path="url(#id141)"
       transform="matrix(1,0,0,-1,-102.54795,1791.004)">
      <g
         id="g9582"
         transform="matrix(-1.303587,5.850471,2.852159,0.635516,124.5257,901.55084)">
        <g
           id="g9584"
           clip-path="url(#id142)">
          <g
             id="g9586"
             transform="matrix(1.042439,0,0,-0.977676,-0.134702,1.010315)">
            <use
               id="use9588"
               xlink:href="#id143"
               x="0"
               y="0"
               width="744.09448"
               height="1052.3622" />
          </g>
        </g>
      </g>
    </g>
    <g
       id="g9590"
       clip-path="url(#id144)"
       transform="matrix(1,0,0,-1,-102.54795,1791.004)">
      <g
         id="g9592"
         transform="matrix(3.042443,0,0,-0.767953,124.73013,907.26392)">
        <g
           id="g9594"
           clip-path="url(#id145)">
          <g
             id="g9596"
             transform="matrix(0.999992,0,0,-0.751556,-0.003273,0.875916)">
            <use
               id="use9598"
               xlink:href="#id146"
               x="0"
               y="0"
               width="744.09448"
               height="1052.3622" />
          </g>
        </g>
      </g>
    </g>
    <g
       id="g9600"
       clip-path="url(#id147)"
       transform="matrix(1,0,0,-1,-102.54795,1791.004)">
      <g
         id="g9602"
         transform="matrix(1.094848,0,0,-0.767569,126.25134,901.79102)">
        <g
           id="g9604"
           clip-path="url(#id148)">
          <g
             id="g9606"
             transform="matrix(2.778687,0,0,-0.751404,-1.398529,0.875854)">
            <use
               id="use9608"
               xlink:href="#id149"
               x="0"
               y="0"
               width="744.09448"
               height="1052.3622" />
          </g>
        </g>
      </g>
    </g>
    <g
       id="g9610"
       clip-path="url(#id150)"
       transform="matrix(1,0,0,-1,-102.54795,1791.004)">
      <g
         id="g9612"
         transform="matrix(-4.419651,4.419651,1.202455,1.202455,130.80536,903.25671)">
        <g
           id="g9614"
           clip-path="url(#id151)">
          <g
             id="g9616"
             transform="matrix(0.45751,0,0,-1.68158,0.273922,1.18438)">
            <use
               id="use9618"
               xlink:href="#id152"
               x="0"
               y="0"
               width="744.09448"
               height="1052.3622" />
          </g>
        </g>
      </g>
    </g>
    <g
       id="g9620"
       clip-path="url(#id153)"
       transform="matrix(1,0,0,-1,-102.54795,1791.004)">
      <g
         id="g9622"
         transform="matrix(-4.419651,4.419651,2.627123,2.627123,128.393,900.84448)">
        <g
           id="g9624"
           clip-path="url(#id154)">
          <g
             id="g9626"
             transform="matrix(0.563894,0,0,-0.948647,-0.121582,0.974327)">
            <use
               id="use9628"
               xlink:href="#id155"
               x="0"
               y="0"
               width="744.09448"
               height="1052.3622" />
          </g>
        </g>
      </g>
    </g>
    <g
       id="g9630"
       clip-path="url(#id156)"
       transform="matrix(1,0,0,-1,-102.54795,1791.004)">
      <g
         id="g9632"
         transform="matrix(1.098599,0,0,-0.772229,129.78348,901.79553)">
        <g
           id="g9634"
           clip-path="url(#id157)">
          <g
             id="g9636"
             transform="matrix(2.772614,0,0,-0.75296,-1.392609,0.876465)">
            <use
               id="use9638"
               xlink:href="#id158"
               x="0"
               y="0"
               width="744.09448"
               height="1052.3622" />
          </g>
        </g>
      </g>
    </g>
    <g
       id="g10128"
       clip-path="url(#id189)"
       transform="matrix(1,0,0,-1,-102.54795,1791.004)">
      <g
         id="g10130"
         clip-path="url(#id190)">
        <g
           id="g10132"
           transform="matrix(5.0395,0,0,4.8479,279.143,797.9768)">
          <use
             id="use10134"
             xlink:href="#id191"
             x="0"
             y="0"
             width="744.09448"
             height="1052.3622" />
        </g>
      </g>
    </g>
    <g
       id="g10492"
       clip-path="url(#id223)"
       transform="matrix(1,0,0,-1,-102.54795,1791.004)">
      <g
         id="g10494"
         clip-path="url(#id224)">
        <g
           id="g10496"
           clip-path="url(#id225)">
          <g
             id="g10498"
             transform="matrix(40.0893,0,0,20.0998,350.61,945.9702)">
            <use
               id="use10500"
               xlink:href="#id226"
               x="0"
               y="0"
               width="744.09448"
               height="1052.3622" />
          </g>
        </g>
      </g>
    </g>
    <g
       id="g10728"
       clip-path="url(#id242)"
       transform="matrix(1,0,0,-1,-102.54795,1791.004)">
      <g
         id="g10730"
         transform="matrix(8.3998,0,0,8.3914,437.8569,826.4144)">
        <use
           id="use10732"
           xlink:href="#id243"
           x="0"
           y="0"
           width="744.09448"
           height="1052.3622" />
      </g>
    </g>
    <g
       id="g11250"
       clip-path="url(#id290)"
       transform="matrix(1,0,0,-1,-102.54795,1791.004)">
      <g
         id="g11252"
         transform="matrix(-8.678422,12.388888,14.344501,10.039913,421.36868,789.32349)">
        <g
           id="g11254"
           clip-path="url(#id291)">
          <g
             id="g11256"
             transform="matrix(1.090526,0,0,-1.094668,-0.100624,0.99128)">
            <use
               id="use11258"
               xlink:href="#id292"
               x="0"
               y="0"
               width="744.09448"
               height="1052.3622" />
          </g>
        </g>
      </g>
    </g>
    <g
       id="g11322"
       clip-path="url(#id299)"
       transform="matrix(1,0,0,-1,-102.54795,1791.004)">
      <g
         id="g11324"
         transform="matrix(9.419251,-9.498138,-6.989892,-7.048432,211.69089,779.40576)">
        <g
           id="g11326"
           clip-path="url(#id300)">
          <g
             id="g11328"
             transform="matrix(1.151451,0,0,-1.551641,-0.017009,1.202825)">
            <use
               id="use11330"
               xlink:href="#id301"
               x="0"
               y="0"
               width="744.09448"
               height="1052.3622" />
          </g>
        </g>
      </g>
    </g>
    <g
       id="g11332"
       clip-path="url(#id302)"
       transform="matrix(1,0,0,-1,-102.54795,1791.004)">
      <g
         id="g11334"
         transform="matrix(-11.075449,-2.992517,-3.116866,11.729728,221.5865,769.21942)">
        <g
           id="g11336"
           clip-path="url(#id303)">
          <g
             id="g11338"
             transform="matrix(1.081403,0,0,-1.085418,-0.040782,1.040157)">
            <use
               id="use11340"
               xlink:href="#id304"
               x="0"
               y="0"
               width="744.09448"
               height="1052.3622" />
          </g>
        </g>
      </g>
    </g>
    <g
       id="g12370"
       clip-path="url(#id349)"
       transform="matrix(1,0,0,-1,-102.54795,1791.004)">
      <g
         id="g12372"
         transform="matrix(14.425248,-14.425248,-14.425597,-14.425597,186.89969,834.87714)">
        <g
           id="g12374"
           clip-path="url(#id350)">
          <g
             id="g12376"
             transform="matrix(0.969971,0,0,-0.969947,0.014997,0.984974)">
            <use
               id="use12378"
               xlink:href="#id351"
               x="0"
               y="0"
               width="744.09448"
               height="1052.3622" />
          </g>
        </g>
      </g>
    </g>
    <g
       id="g12380"
       clip-path="url(#id352)"
       transform="matrix(1,0,0,-1,-102.54795,1791.004)">
      <g
         id="g12382"
         transform="matrix(0,6.514376,6.637661,0,171.65855,818.68323)">
        <g
           id="g12384"
           clip-path="url(#id353)">
          <g
             id="g12386"
             transform="matrix(0.90596,0,0,-0.907677,0.046989,0.953827)">
            <use
               id="use12388"
               xlink:href="#id354"
               x="0"
               y="0"
               width="744.09448"
               height="1052.3622" />
          </g>
        </g>
      </g>
    </g>
    <g
       id="g12390"
       clip-path="url(#id355)"
       transform="matrix(1,0,0,-1,-102.54795,1791.004)">
      <g
         id="g12392"
         transform="matrix(0,6.514376,6.637967,0,195.49745,818.6828)">
        <g
           id="g12394"
           clip-path="url(#id356)">
          <g
             id="g12396"
             transform="matrix(0.90596,0,0,-0.907642,0.047058,0.953825)">
            <use
               id="use12398"
               xlink:href="#id357"
               x="0"
               y="0"
               width="744.09448"
               height="1052.3622" />
          </g>
        </g>
      </g>
    </g>
    <g
       id="g14230"
       transform="matrix(21.8228,0,0,-14.534,215.43205,795.368)">
      <use
         id="use14232"
         xlink:href="#id399"
         x="0"
         y="0"
         width="744.09448"
         height="1052.3622" />
    </g>
    <g
       id="g14242"
       clip-path="url(#id403)"
       transform="matrix(1,0,0,-1,-102.54795,1791.004)">
      <g
         id="g14244"
         transform="matrix(5.761,0,0,8.0655,152.7613,996.3373)">
        <use
           id="use14246"
           xlink:href="#id404"
           x="0"
           y="0"
           width="744.09448"
           height="1052.3622" />
      </g>
    </g>
    <g
       id="g14288"
       clip-path="url(#id408)"
       transform="matrix(1,0,0,-1,-102.54795,1791.004)">
      <g
         id="g14290"
         clip-path="url(#id409)">
        <g
           id="g14292"
           clip-path="url(#id410)">
          <g
             id="g14294"
             transform="matrix(29.7555,0,0,24.7666,179.53,993.2234)">
            <use
               id="use14296"
               xlink:href="#id411"
               x="0"
               y="0"
               width="744.09448"
               height="1052.3622" />
          </g>
        </g>
      </g>
    </g>
    <g
       id="g14298"
       clip-path="url(#id412)"
       transform="matrix(1,0,0,-1,-102.54795,1791.004)">
      <g
         id="g14300"
         clip-path="url(#id413)">
        <g
           id="g14302"
           clip-path="url(#id414)">
          <g
             id="g14304"
             transform="matrix(30.4652,0,0,18.219,221.58,994.991)">
            <use
               id="use14306"
               xlink:href="#id415"
               x="0"
               y="0"
               width="744.09448"
               height="1052.3622" />
          </g>
        </g>
      </g>
    </g>
    <g
       id="g14356"
       transform="matrix(38.1582,0,0,-10.6474,293.15205,793.7114)">
      <use
         id="use14358"
         xlink:href="#id416"
         x="0"
         y="0"
         width="744.09448"
         height="1052.3622" />
    </g>
    <g
       transform="translate(110.46392,935.44834)"
       id="g4168">
      <path
         d="m 541.06911,69.82079 -17.424,0 6.485,-48.379 c 0,0 5.23129,-0.2594 13.22899,-0.2594 9.7709,0 19.58501,4.8421 19.58501,19.974 0,12.711 -7.6956,28.664 -21.876,28.664 m 12.062,-69.823 c -25.897,0 -55.772,0.0432 -55.772,0.0432 l -12.279,89.667 61.089,0 c 44.358,0 53.826,-29.399 53.826,-52.831 0,-27.929 -17.207,-36.878 -46.865,-36.878"
         id="path10"
         inkscape:connector-curvature="0"
         style="fill:#000000;fill-rule:nonzero" />
      <path
         d="m 450.6591,0.11079 -4.453,32.901 -35.452,0 4.453,-32.901 -35.409,0 -12.149,89.58 35.409,0 4.5395,-33.377 35.452,0 -4.5395,33.377 35.452,0 12.149,-89.58 -35.452,0 z"
         id="path12"
         inkscape:connector-curvature="0"
         style="fill:#000000;fill-rule:nonzero" />
    </g>
  </g>
</svg>
