<svg id="a" version="1.0" viewBox="0 0 712.09 89.713" xmlns="http://www.w3.org/2000/svg" xmlns:xlink="http://www.w3.org/1999/xlink">
 <g id="b" transform="translate(1.627 -935.44)">
  <g id="c" transform="matrix(1 0 0 -1 -102.55 1791)" clip-path="url(#id36)">
   <g id="d" clip-path="url(#id37)">
    <g id="e" transform="matrix(5.0401 0 0 4.9633 536.97 923.91)">
     <use id="f" width="744.09448" height="1052.3622" xlink:href="#id38"/>
    </g>
   </g>
  </g>
  <g id="g" transform="matrix(1.2938 0 0 1.2938 .47803 -301.21)" fill="#ef2c2f">
   <path id="h" d="m66.072 975.46 2.3551-19.64h-62.731l-2.0411 19.64h62.417"/>
   <path id="i" d="m206.76 975.46c0.35684-2.926 1.1419-10.619-0.3711-13.288-2.0982-3.7254-4.6246-5.9234-9.3205-6.3516h-114.57c-4.4105 0.34256-6.8655 1.9412-10.12 5.9805-2.4978 3.0973-3.24 10.748-3.4399 13.66h137.82"/>
   <path id="j" d="m139.52 982.39-4.439 42.763h23.994l2.5978-26.72h32.943c7.622-1.099 10.876-9.7344 10.99-16.043h-66.086"/>
   <path id="k" d="m279.1 975.46 0.0428-11.704c-0.57094-4.7673-4.1821-7.5078-9.6773-7.936h-58.335l-2.0268 19.64h69.996"/>
   <path id="l" d="m253.37 982.39-4.439 42.763h23.808l5.1527-42.763h-24.522"/>
   <path id="m" d="m208.26 982.39-4.439 42.763h23.808l5.1527-42.763h-24.522"/>
   <path id="n" d="m129.39 982.39h-61.333c-0.27119 1.7842-0.52811 5.4952 0.71367 10.048 1.8698 6.9083 9.192 6.5229 9.192 6.5229l33.571-0.3853-1.1561 6.9368-44.647 0.1427-2.0125 19.497h56.637c4.3962 0 10.191-3.4541 13.003-11.69 0.4282-1.7414 2.3408-19.712 2.3123-20.953-0.11419-4.6388-2.7405-8.3356-6.2803-10.12"/>
   <path id="o" d="m63.017 999.74 2.0839-17.342h-62.289l-4.439 42.763h61.575l2.3694-19.64h-37.039l0.8564-5.7807h36.882"/>
   <path id="p" d="m306.62 956.77 49.3-0.12846s10.719-0.52811 9.9342 8.2357l-2.4836 25.364s-1.042 7.5792-8.2357 7.5792h-29.36l-0.8564 8.1215h36.882l-1.8413 17.513h-61.19l3.7967-31.644s0.38538-9.1492 8.6211-9.1492h29.16l0.65657-7.9788h-36.483l2.0982-17.913z"/>
  </g>
  <g id="q" transform="matrix(1 0 0 -1 -102.55 1791)" clip-path="url(#id123)">
   <g id="r" transform="matrix(2.9888 -5.6279 -2.3681 -1.2576 127.81 907.27)">
    <g id="s" clip-path="url(#id124)">
     <g id="t" transform="matrix(.4617 0 0 -.92899 -.09701 .96453)">
      <use id="u" width="744.09448" height="1052.3622" xlink:href="#id125"/>
     </g>
    </g>
   </g>
  </g>
  <g id="v" transform="matrix(1 0 0 -1 -102.55 1791)" clip-path="url(#id126)">
   <g id="w" transform="matrix(2.9888 -5.6279 -1.6073 -.85357 125.84 906.23)">
    <g id="x" clip-path="url(#id127)">
     <g id="y" transform="matrix(.59233 0 0 -1.6117 .25692 1.0964)">
      <use id="z" width="744.09448" height="1052.3622" xlink:href="#id128"/>
     </g>
    </g>
   </g>
  </g>
  <g id="aa" transform="matrix(1 0 0 -1 -102.55 1791)" clip-path="url(#id129)">
   <g id="ab" transform="matrix(2.9888 -5.6279 -3.6495 -1.9381 130.57 908.74)">
    <g id="ac" clip-path="url(#id130)">
     <g id="ad" transform="matrix(.9532 0 0 -1.0198 .15641 1.0429)">
      <use id="ae" width="744.09448" height="1052.3622" xlink:href="#id131"/>
     </g>
    </g>
   </g>
  </g>
  <g id="af" transform="matrix(1 0 0 -1 -102.55 1791)" clip-path="url(#id132)">
   <g id="ag" transform="matrix(3.048 0 0 -.76777 128.26 907.26)">
    <g id="ah" clip-path="url(#id133)">
     <g id="ai" transform="matrix(.99998 0 0 -.75159 -.003304 .87585)">
      <use id="aj" width="744.09448" height="1052.3622" xlink:href="#id134"/>
     </g>
    </g>
   </g>
  </g>
  <g id="ak" transform="matrix(1 0 0 -1 -102.55 1791)" clip-path="url(#id138)">
   <g id="al" transform="matrix(0 7.1541 7.1541 0 128.11 898.52)">
    <g id="am" clip-path="url(#id139)">
     <g id="an" transform="matrix(.095924 0 0 -.48124 .75578 .2288)">
      <use id="ao" width="744.09448" height="1052.3622" xlink:href="#id140"/>
     </g>
    </g>
   </g>
  </g>
  <g id="ap" transform="matrix(1 0 0 -1 -102.55 1791)" clip-path="url(#id141)">
   <g id="aq" transform="matrix(-1.3036 5.8505 2.8522 .63552 124.53 901.55)">
    <g id="ar" clip-path="url(#id142)">
     <g id="as" transform="matrix(1.0424 0 0 -.97768 -.1347 1.0103)">
      <use id="at" width="744.09448" height="1052.3622" xlink:href="#id143"/>
     </g>
    </g>
   </g>
  </g>
  <g id="au" transform="matrix(1 0 0 -1 -102.55 1791)" clip-path="url(#id144)">
   <g id="av" transform="matrix(3.0424 0 0 -.76795 124.73 907.26)">
    <g id="aw" clip-path="url(#id145)">
     <g id="ax" transform="matrix(.99999 0 0 -.75156 -.003273 .87592)">
      <use id="ay" width="744.09448" height="1052.3622" xlink:href="#id146"/>
     </g>
    </g>
   </g>
  </g>
  <g id="az" transform="matrix(1 0 0 -1 -102.55 1791)" clip-path="url(#id147)">
   <g id="ba" transform="matrix(1.0948 0 0 -.76757 126.25 901.79)">
    <g id="bb" clip-path="url(#id148)">
     <g id="bc" transform="matrix(2.7787 0 0 -.7514 -1.3985 .87585)">
      <use id="bd" width="744.09448" height="1052.3622" xlink:href="#id149"/>
     </g>
    </g>
   </g>
  </g>
  <g id="be" transform="matrix(1 0 0 -1 -102.55 1791)" clip-path="url(#id150)">
   <g id="bf" transform="matrix(-4.4197 4.4197 1.2025 1.2025 130.81 903.26)">
    <g id="bg" clip-path="url(#id151)">
     <g id="bh" transform="matrix(.45751 0 0 -1.6816 .27392 1.1844)">
      <use id="bi" width="744.09448" height="1052.3622" xlink:href="#id152"/>
     </g>
    </g>
   </g>
  </g>
  <g id="bj" transform="matrix(1 0 0 -1 -102.55 1791)" clip-path="url(#id153)">
   <g id="bk" transform="matrix(-4.4197 4.4197 2.6271 2.6271 128.39 900.84)">
    <g id="bl" clip-path="url(#id154)">
     <g id="bm" transform="matrix(.56389 0 0 -.94865 -.12158 .97433)">
      <use id="bn" width="744.09448" height="1052.3622" xlink:href="#id155"/>
     </g>
    </g>
   </g>
  </g>
  <g id="bo" transform="matrix(1 0 0 -1 -102.55 1791)" clip-path="url(#id156)">
   <g id="bp" transform="matrix(1.0986 0 0 -.77223 129.78 901.8)">
    <g id="bq" clip-path="url(#id157)">
     <g id="br" transform="matrix(2.7726 0 0 -.75296 -1.3926 .87646)">
      <use id="bs" width="744.09448" height="1052.3622" xlink:href="#id158"/>
     </g>
    </g>
   </g>
  </g>
  <g id="bt" transform="matrix(1 0 0 -1 -102.55 1791)" clip-path="url(#id189)">
   <g id="bu" clip-path="url(#id190)">
    <g id="bv" transform="matrix(5.0395 0 0 4.8479 279.14 797.98)">
     <use id="bw" width="744.09448" height="1052.3622" xlink:href="#id191"/>
    </g>
   </g>
  </g>
  <g id="bx" transform="matrix(1 0 0 -1 -102.55 1791)" clip-path="url(#id223)">
   <g id="by" clip-path="url(#id224)">
    <g id="bz" clip-path="url(#id225)">
     <g id="ca" transform="matrix(40.089 0 0 20.1 350.61 945.97)">
      <use id="cb" width="744.09448" height="1052.3622" xlink:href="#id226"/>
     </g>
    </g>
   </g>
  </g>
  <g id="cc" transform="matrix(1 0 0 -1 -102.55 1791)" clip-path="url(#id242)">
   <g id="cd" transform="matrix(8.3998 0 0 8.3914 437.86 826.41)">
    <use id="ce" width="744.09448" height="1052.3622" xlink:href="#id243"/>
   </g>
  </g>
  <g id="cf" transform="matrix(1 0 0 -1 -102.55 1791)" clip-path="url(#id290)">
   <g id="cg" transform="matrix(-8.6784 12.389 14.345 10.04 421.37 789.32)">
    <g id="ch" clip-path="url(#id291)">
     <g id="ci" transform="matrix(1.0905 0 0 -1.0947 -.10062 .99128)">
      <use id="cj" width="744.09448" height="1052.3622" xlink:href="#id292"/>
     </g>
    </g>
   </g>
  </g>
  <g id="ck" transform="matrix(1 0 0 -1 -102.55 1791)" clip-path="url(#id299)">
   <g id="cl" transform="matrix(9.4193 -9.4981 -6.9899 -7.0484 211.69 779.41)">
    <g id="cm" clip-path="url(#id300)">
     <g id="cn" transform="matrix(1.1515 0 0 -1.5516 -.017009 1.2028)">
      <use id="co" width="744.09448" height="1052.3622" xlink:href="#id301"/>
     </g>
    </g>
   </g>
  </g>
  <g id="cp" transform="matrix(1 0 0 -1 -102.55 1791)" clip-path="url(#id302)">
   <g id="cq" transform="matrix(-11.075 -2.9925 -3.1169 11.73 221.59 769.22)">
    <g id="cr" clip-path="url(#id303)">
     <g id="cs" transform="matrix(1.0814 0 0 -1.0854 -.040782 1.0402)">
      <use id="ct" width="744.09448" height="1052.3622" xlink:href="#id304"/>
     </g>
    </g>
   </g>
  </g>
  <g id="cu" transform="matrix(1 0 0 -1 -102.55 1791)" clip-path="url(#id349)">
   <g id="cv" transform="matrix(14.425 -14.425 -14.426 -14.426 186.9 834.88)">
    <g id="cw" clip-path="url(#id350)">
     <g id="cx" transform="matrix(.96997 0 0 -.96995 .014997 .98497)">
      <use id="cy" width="744.09448" height="1052.3622" xlink:href="#id351"/>
     </g>
    </g>
   </g>
  </g>
  <g id="cz" transform="matrix(1 0 0 -1 -102.55 1791)" clip-path="url(#id352)">
   <g id="da" transform="matrix(0 6.5144 6.6377 0 171.66 818.68)">
    <g id="db" clip-path="url(#id353)">
     <g id="dc" transform="matrix(.90596 0 0 -.90768 .046989 .95383)">
      <use id="dd" width="744.09448" height="1052.3622" xlink:href="#id354"/>
     </g>
    </g>
   </g>
  </g>
  <g id="de" transform="matrix(1 0 0 -1 -102.55 1791)" clip-path="url(#id355)">
   <g id="df" transform="matrix(0 6.5144 6.638 0 195.5 818.68)">
    <g id="dg" clip-path="url(#id356)">
     <g id="dh" transform="matrix(.90596 0 0 -.90764 .047058 .95382)">
      <use id="di" width="744.09448" height="1052.3622" xlink:href="#id357"/>
     </g>
    </g>
   </g>
  </g>
  <g id="dj" transform="matrix(21.823 0 0 -14.534 215.43 795.37)">
   <use id="dk" width="744.09448" height="1052.3622" xlink:href="#id399"/>
  </g>
  <g id="dl" transform="matrix(1 0 0 -1 -102.55 1791)" clip-path="url(#id403)">
   <g id="dm" transform="matrix(5.761 0 0 8.0655 152.76 996.34)">
    <use id="dn" width="744.09448" height="1052.3622" xlink:href="#id404"/>
   </g>
  </g>
  <g id="do" transform="matrix(1 0 0 -1 -102.55 1791)" clip-path="url(#id408)">
   <g id="dp" clip-path="url(#id409)">
    <g id="dq" clip-path="url(#id410)">
     <g id="dr" transform="matrix(29.756 0 0 24.767 179.53 993.22)">
      <use id="ds" width="744.09448" height="1052.3622" xlink:href="#id411"/>
     </g>
    </g>
   </g>
  </g>
  <g id="dt" transform="matrix(1 0 0 -1 -102.55 1791)" clip-path="url(#id412)">
   <g id="du" clip-path="url(#id413)">
    <g id="dv" clip-path="url(#id414)">
     <g id="dw" transform="matrix(30.465 0 0 18.219 221.58 994.99)">
      <use id="dx" width="744.09448" height="1052.3622" xlink:href="#id415"/>
     </g>
    </g>
   </g>
  </g>
  <g id="dy" transform="matrix(38.158 0 0 -10.647 293.15 793.71)">
   <use id="dz" width="744.09448" height="1052.3622" xlink:href="#id416"/>
  </g>
  <g id="ea" transform="translate(110.46 935.45)">
   <path id="eb" d="m541.07 69.821h-17.424l6.485-48.379s5.2313-0.2594 13.229-0.2594c9.7709 0 19.585 4.8421 19.585 19.974 0 12.711-7.6956 28.664-21.876 28.664m12.062-69.823c-25.897 0-55.772 0.0432-55.772 0.0432l-12.279 89.667h61.089c44.358 0 53.826-29.399 53.826-52.831 0-27.929-17.207-36.878-46.865-36.878"/>
   <path id="ec" d="m450.66 0.11079-4.453 32.901h-35.452l4.453-32.901h-35.409l-12.149 89.58h35.409l4.5395-33.377h35.452l-4.5395 33.377h35.452l12.149-89.58h-35.452z"/>
  </g>
 </g>
</svg>
