<svg id="a" version="1.0" viewBox="0 0 369 70" xmlns="http://www.w3.org/2000/svg" xmlns:xlink="http://www.w3.org/1999/xlink">
 <g id="b" transform="translate(1.627 -955.16)">
  <g id="c" transform="matrix(1 0 0 -1 -102.55 1791)" clip-path="url(#id36)">
   <g id="d" clip-path="url(#id37)">
    <g id="e" transform="matrix(5.0401 0 0 4.9633 536.97 923.91)">
     <use id="f" width="744.09448" height="1052.3622" xlink:href="#id38"/>
    </g>
   </g>
  </g>
  <path id="g" d="m66.072 975.46 2.3551-19.64h-62.731l-2.0411 19.64h62.417" fill="#ef2c2f"/>
  <path id="h" d="m206.76 975.46c0.35684-2.926 1.1419-10.619-0.3711-13.288-2.0982-3.7254-4.6246-5.9234-9.3205-6.3516h-114.57c-4.4105 0.34256-6.8655 1.9412-10.12 5.9805-2.4978 3.0973-3.24 10.748-3.4399 13.66h137.82" fill="#ef2c2f"/>
  <path id="i" d="m139.52 982.39-4.439 42.763h23.994l2.5978-26.72h32.943c7.622-1.099 10.876-9.7344 10.99-16.043h-66.086" fill="#ef2c2f"/>
  <path id="j" d="m279.1 975.46 0.0428-11.704c-0.57094-4.7673-4.1821-7.5078-9.6773-7.936h-58.335l-2.0268 19.64h69.996" fill="#ef2c2f"/>
  <path id="k" d="m253.37 982.39-4.439 42.763h23.808l5.1527-42.763h-24.522" fill="#ef2c2f"/>
  <path id="l" d="m208.26 982.39-4.439 42.763h23.808l5.1527-42.763h-24.522" fill="#ef2c2f"/>
  <path id="m" d="m129.39 982.39h-61.333c-0.27119 1.7842-0.52811 5.4952 0.71367 10.048 1.8698 6.9083 9.192 6.5229 9.192 6.5229l33.571-0.3853-1.1561 6.9368-44.647 0.1427-2.0125 19.497h56.637c4.3962 0 10.191-3.4541 13.003-11.69 0.4282-1.7414 2.3408-19.712 2.3123-20.953-0.11419-4.6388-2.7405-8.3356-6.2803-10.12" fill="#ef2c2f"/>
  <path id="n" d="m63.017 999.74 2.0839-17.342h-62.289l-4.439 42.763h61.575l2.3694-19.64h-37.039l0.8564-5.7807h36.882" fill="#ef2c2f"/>
  <path id="o" d="m306.62 956.77 49.3-0.12846s10.719-0.52811 9.9342 8.2357l-2.4836 25.364s-1.042 7.5792-8.2357 7.5792h-29.36l-0.8564 8.1215h36.882l-1.8413 17.513h-61.19l3.7967-31.644s0.38538-9.1492 8.6211-9.1492h29.16l0.65657-7.9788h-36.483l2.0982-17.913z" fill="#ef2c2f"/>
  <g id="p" transform="matrix(1 0 0 -1 -102.55 1791)" clip-path="url(#id123)">
   <g id="q" transform="matrix(2.9888 -5.6279 -2.3681 -1.2576 127.81 907.27)">
    <g id="r" clip-path="url(#id124)">
     <g id="s" transform="matrix(.4617 0 0 -.92899 -.09701 .96453)">
      <use id="t" width="744.09448" height="1052.3622" xlink:href="#id125"/>
     </g>
    </g>
   </g>
  </g>
  <g id="u" transform="matrix(1 0 0 -1 -102.55 1791)" clip-path="url(#id126)">
   <g id="v" transform="matrix(2.9888 -5.6279 -1.6073 -.85357 125.84 906.23)">
    <g id="w" clip-path="url(#id127)">
     <g id="x" transform="matrix(.59233 0 0 -1.6117 .25692 1.0964)">
      <use id="y" width="744.09448" height="1052.3622" xlink:href="#id128"/>
     </g>
    </g>
   </g>
  </g>
  <g id="z" transform="matrix(1 0 0 -1 -102.55 1791)" clip-path="url(#id129)">
   <g id="aa" transform="matrix(2.9888 -5.6279 -3.6495 -1.9381 130.57 908.74)">
    <g id="ab" clip-path="url(#id130)">
     <g id="ac" transform="matrix(.9532 0 0 -1.0198 .15641 1.0429)">
      <use id="ad" width="744.09448" height="1052.3622" xlink:href="#id131"/>
     </g>
    </g>
   </g>
  </g>
  <g id="ae" transform="matrix(1 0 0 -1 -102.55 1791)" clip-path="url(#id132)">
   <g id="af" transform="matrix(3.048 0 0 -.76777 128.26 907.26)">
    <g id="ag" clip-path="url(#id133)">
     <g id="ah" transform="matrix(.99998 0 0 -.75159 -.003304 .87585)">
      <use id="ai" width="744.09448" height="1052.3622" xlink:href="#id134"/>
     </g>
    </g>
   </g>
  </g>
  <g id="aj" transform="matrix(1 0 0 -1 -102.55 1791)" clip-path="url(#id138)">
   <g id="ak" transform="matrix(0 7.1541 7.1541 0 128.11 898.52)">
    <g id="al" clip-path="url(#id139)">
     <g id="am" transform="matrix(.095924 0 0 -.48124 .75578 .2288)">
      <use id="an" width="744.09448" height="1052.3622" xlink:href="#id140"/>
     </g>
    </g>
   </g>
  </g>
  <g id="ao" transform="matrix(1 0 0 -1 -102.55 1791)" clip-path="url(#id141)">
   <g id="ap" transform="matrix(-1.3036 5.8505 2.8522 .63552 124.53 901.55)">
    <g id="aq" clip-path="url(#id142)">
     <g id="ar" transform="matrix(1.0424 0 0 -.97768 -.1347 1.0103)">
      <use id="as" width="744.09448" height="1052.3622" xlink:href="#id143"/>
     </g>
    </g>
   </g>
  </g>
  <g id="at" transform="matrix(1 0 0 -1 -102.55 1791)" clip-path="url(#id144)">
   <g id="au" transform="matrix(3.0424 0 0 -.76795 124.73 907.26)">
    <g id="av" clip-path="url(#id145)">
     <g id="aw" transform="matrix(.99999 0 0 -.75156 -.003273 .87592)">
      <use id="ax" width="744.09448" height="1052.3622" xlink:href="#id146"/>
     </g>
    </g>
   </g>
  </g>
  <g id="ay" transform="matrix(1 0 0 -1 -102.55 1791)" clip-path="url(#id147)">
   <g id="az" transform="matrix(1.0948 0 0 -.76757 126.25 901.79)">
    <g id="ba" clip-path="url(#id148)">
     <g id="bb" transform="matrix(2.7787 0 0 -.7514 -1.3985 .87585)">
      <use id="bc" width="744.09448" height="1052.3622" xlink:href="#id149"/>
     </g>
    </g>
   </g>
  </g>
  <g id="bd" transform="matrix(1 0 0 -1 -102.55 1791)" clip-path="url(#id150)">
   <g id="be" transform="matrix(-4.4197 4.4197 1.2025 1.2025 130.81 903.26)">
    <g id="bf" clip-path="url(#id151)">
     <g id="bg" transform="matrix(.45751 0 0 -1.6816 .27392 1.1844)">
      <use id="bh" width="744.09448" height="1052.3622" xlink:href="#id152"/>
     </g>
    </g>
   </g>
  </g>
  <g id="bi" transform="matrix(1 0 0 -1 -102.55 1791)" clip-path="url(#id153)">
   <g id="bj" transform="matrix(-4.4197 4.4197 2.6271 2.6271 128.39 900.84)">
    <g id="bk" clip-path="url(#id154)">
     <g id="bl" transform="matrix(.56389 0 0 -.94865 -.12158 .97433)">
      <use id="bm" width="744.09448" height="1052.3622" xlink:href="#id155"/>
     </g>
    </g>
   </g>
  </g>
  <g id="bn" transform="matrix(1 0 0 -1 -102.55 1791)" clip-path="url(#id156)">
   <g id="bo" transform="matrix(1.0986 0 0 -.77223 129.78 901.8)">
    <g id="bp" clip-path="url(#id157)">
     <g id="bq" transform="matrix(2.7726 0 0 -.75296 -1.3926 .87646)">
      <use id="br" width="744.09448" height="1052.3622" xlink:href="#id158"/>
     </g>
    </g>
   </g>
  </g>
  <g id="bs" transform="matrix(1 0 0 -1 -102.55 1791)" clip-path="url(#id189)">
   <g id="bt" clip-path="url(#id190)">
    <g id="bu" transform="matrix(5.0395 0 0 4.8479 279.14 797.98)">
     <use id="bv" width="744.09448" height="1052.3622" xlink:href="#id191"/>
    </g>
   </g>
  </g>
  <g id="bw" transform="matrix(1 0 0 -1 -102.55 1791)" clip-path="url(#id223)">
   <g id="bx" clip-path="url(#id224)">
    <g id="by" clip-path="url(#id225)">
     <g id="bz" transform="matrix(40.089 0 0 20.1 350.61 945.97)">
      <use id="ca" width="744.09448" height="1052.3622" xlink:href="#id226"/>
     </g>
    </g>
   </g>
  </g>
  <g id="cb" transform="matrix(1 0 0 -1 -102.55 1791)" clip-path="url(#id242)">
   <g id="cc" transform="matrix(8.3998 0 0 8.3914 437.86 826.41)">
    <use id="cd" width="744.09448" height="1052.3622" xlink:href="#id243"/>
   </g>
  </g>
  <g id="ce" transform="matrix(1 0 0 -1 -102.55 1791)" clip-path="url(#id290)">
   <g id="cf" transform="matrix(-8.6784 12.389 14.345 10.04 421.37 789.32)">
    <g id="cg" clip-path="url(#id291)">
     <g id="ch" transform="matrix(1.0905 0 0 -1.0947 -.10062 .99128)">
      <use id="ci" width="744.09448" height="1052.3622" xlink:href="#id292"/>
     </g>
    </g>
   </g>
  </g>
  <g id="cj" transform="matrix(1 0 0 -1 -102.55 1791)" clip-path="url(#id299)">
   <g id="ck" transform="matrix(9.4193 -9.4981 -6.9899 -7.0484 211.69 779.41)">
    <g id="cl" clip-path="url(#id300)">
     <g id="cm" transform="matrix(1.1515 0 0 -1.5516 -.017009 1.2028)">
      <use id="cn" width="744.09448" height="1052.3622" xlink:href="#id301"/>
     </g>
    </g>
   </g>
  </g>
  <g id="co" transform="matrix(1 0 0 -1 -102.55 1791)" clip-path="url(#id302)">
   <g id="cp" transform="matrix(-11.075 -2.9925 -3.1169 11.73 221.59 769.22)">
    <g id="cq" clip-path="url(#id303)">
     <g id="cr" transform="matrix(1.0814 0 0 -1.0854 -.040782 1.0402)">
      <use id="cs" width="744.09448" height="1052.3622" xlink:href="#id304"/>
     </g>
    </g>
   </g>
  </g>
  <g id="ct" transform="matrix(1 0 0 -1 -102.55 1791)" clip-path="url(#id349)">
   <g id="cu" transform="matrix(14.425 -14.425 -14.426 -14.426 186.9 834.88)">
    <g id="cv" clip-path="url(#id350)">
     <g id="cw" transform="matrix(.96997 0 0 -.96995 .014997 .98497)">
      <use id="cx" width="744.09448" height="1052.3622" xlink:href="#id351"/>
     </g>
    </g>
   </g>
  </g>
  <g id="cy" transform="matrix(1 0 0 -1 -102.55 1791)" clip-path="url(#id352)">
   <g id="cz" transform="matrix(0 6.5144 6.6377 0 171.66 818.68)">
    <g id="da" clip-path="url(#id353)">
     <g id="db" transform="matrix(.90596 0 0 -.90768 .046989 .95383)">
      <use id="dc" width="744.09448" height="1052.3622" xlink:href="#id354"/>
     </g>
    </g>
   </g>
  </g>
  <g id="dd" transform="matrix(1 0 0 -1 -102.55 1791)" clip-path="url(#id355)">
   <g id="de" transform="matrix(0 6.5144 6.638 0 195.5 818.68)">
    <g id="df" clip-path="url(#id356)">
     <g id="dg" transform="matrix(.90596 0 0 -.90764 .047058 .95382)">
      <use id="dh" width="744.09448" height="1052.3622" xlink:href="#id357"/>
     </g>
    </g>
   </g>
  </g>
  <g id="di" transform="matrix(21.823 0 0 -14.534 215.43 795.37)">
   <use id="dj" width="744.09448" height="1052.3622" xlink:href="#id399"/>
  </g>
  <g id="dk" transform="matrix(1 0 0 -1 -102.55 1791)" clip-path="url(#id403)">
   <g id="dl" transform="matrix(5.761 0 0 8.0655 152.76 996.34)">
    <use id="dm" width="744.09448" height="1052.3622" xlink:href="#id404"/>
   </g>
  </g>
  <g id="dn" transform="matrix(1 0 0 -1 -102.55 1791)" clip-path="url(#id408)">
   <g id="do" clip-path="url(#id409)">
    <g id="dp" clip-path="url(#id410)">
     <g id="dq" transform="matrix(29.756 0 0 24.767 179.53 993.22)">
      <use id="dr" width="744.09448" height="1052.3622" xlink:href="#id411"/>
     </g>
    </g>
   </g>
  </g>
  <g id="ds" transform="matrix(1 0 0 -1 -102.55 1791)" clip-path="url(#id412)">
   <g id="dt" clip-path="url(#id413)">
    <g id="du" clip-path="url(#id414)">
     <g id="dv" transform="matrix(30.465 0 0 18.219 221.58 994.99)">
      <use id="dw" width="744.09448" height="1052.3622" xlink:href="#id415"/>
     </g>
    </g>
   </g>
  </g>
  <g id="dx" transform="matrix(38.158 0 0 -10.647 293.15 793.71)">
   <use id="dy" width="744.09448" height="1052.3622" xlink:href="#id416"/>
  </g>
 </g>
</svg>
