<svg height="89.713005" width="712.08502" xmlns="http://www.w3.org/2000/svg"><g fill="#ef2c2f" transform="matrix(1.2938148 0 0 1.2938148 2.105016 -1236.64887)"><path d="m66.071501 975.45607 2.355103-19.64008h-62.7313607l-2.041088 19.64008z"/><path d="m206.76388 975.45607c.35684-2.926 1.14187-10.61933-.3711-13.28844-2.09819-3.72535-4.62457-5.92344-9.3205-6.35164h-114.572157c-4.410464.34256-6.865479 1.94117-10.119802 5.98053-2.497836 3.09732-3.24005 10.74785-3.439877 13.65955z"/><path d="m139.52215 982.39297-4.43902 42.76293h23.9935l2.59775-26.71973h32.94288c7.62197-1.099 10.87629-9.7344 10.99048-16.0432z"/><path d="m279.10121 975.45607.0428-11.7041c-.57094-4.7673-4.1821-7.50778-9.67733-7.93598h-58.33517l-2.02682 19.64008h69.9965"/><path d="m253.36636 982.39297-4.43901 42.76293h23.80794l5.15268-42.76293z"/><path d="m208.26258 982.39297-4.43901 42.76293h23.80795l5.15267-42.76293z"/><path d="m129.38807 982.39297h-61.332573c-.271194 1.7842-.528114 5.4952.713667 10.0484 1.869808 6.9083 9.192035 6.5229 9.192035 6.5229l33.570911-.3853-1.15614 6.93683-44.647029.1427-2.012542 19.4974h56.636641c4.39619 0 10.19117-3.4541 13.00302-11.6898.4282-1.7414 2.34083-19.71153 2.31228-20.95333-.11419-4.6388-2.74048-8.3356-6.28027-10.1198"/><path d="m63.017005 999.73507 2.083909-17.3421h-62.2888867l-4.439011 42.76293h61.5752197l2.369375-19.6401h-37.039336l.856401-5.78073z"/><path d="m306.62022 956.7723 49.30014-.12846s10.71928-.52811 9.93425 8.23572l-2.48356 25.36371s-1.04196 7.5792-8.23573 7.5792h-29.36027l-.8564 8.12153h36.88233l-1.84126 17.5134h-61.18984l3.79671-31.64403s.38538-9.1492 8.6211-9.1492h29.16045l.65657-7.9788h-36.48267z"/></g><g transform="translate(112.090904 .00542)"><path d="m541.06911 69.82079h-17.424l6.485-48.379s5.23129-.2594 13.22899-.2594c9.7709 0 19.58501 4.8421 19.58501 19.974 0 12.711-7.6956 28.664-21.876 28.664m12.062-69.823c-25.897 0-55.772.0432-55.772.0432l-12.279 89.667h61.089c44.358 0 53.826-29.399 53.826-52.831 0-27.929-17.207-36.878-46.865-36.878"/><path d="m450.6591.11079-4.453 32.901h-35.452l4.453-32.901h-35.409l-12.149 89.58h35.409l4.5395-33.377h35.452l-4.5395 33.377h35.452l12.149-89.58h-35.452z"/></g></svg>