<?xml version="1.0" encoding="UTF-8"?>
<!-- Created with Inkscape (http://www.inkscape.org/) -->
<svg id="svg84443" width="17.702mm" height="4.9071mm" version="1.1" viewBox="0 0 62.725 17.388" xmlns="http://www.w3.org/2000/svg" xmlns:cc="http://creativecommons.org/ns#" xmlns:dc="http://purl.org/dc/elements/1.1/" xmlns:rdf="http://www.w3.org/1999/02/22-rdf-syntax-ns#">
 <defs id="defs84445">
  <clipPath id="clipPath67322">
   <path id="path67324" d="m134.64 338.29h57.459v24.803h-57.459v-24.803z"/>
  </clipPath>
  <clipPath id="clipPath67274">
   <path id="path67276" d="m134.64 338.29h57.459v24.803h-57.459v-24.803z"/>
  </clipPath>
  <clipPath id="clipPath67226">
   <path id="path67228" d="m134.64 338.29h57.459v24.803h-57.459v-24.803z"/>
  </clipPath>
  <clipPath id="clipPath67178">
   <path id="path67180" d="m134.64 338.29h57.459v24.803h-57.459v-24.803z"/>
  </clipPath>
 </defs>
 <metadata id="metadata84448">
  <rdf:RDF>
   <cc:Work rdf:about="">
    <dc:format>image/svg+xml</dc:format>
    <dc:type rdf:resource="http://purl.org/dc/dcmitype/StillImage"/>
    <dc:title/>
   </cc:Work>
  </rdf:RDF>
 </metadata>
 <g id="layer1" transform="translate(-110.94 -291.56)">
  <g id="g67174" transform="matrix(1.25 0 0 -1.25 -61.166 739.31)">
   <g id="g67176" clip-path="url(#clipPath67178)">
    <g id="g67182" transform="translate(187.86 351.25)">
     <path id="path67184" d="m0 0c0-3.841-3.114-6.955-6.955-6.955s-6.955 3.114-6.955 6.955 3.114 6.955 6.955 6.955 6.955-3.114 6.955-6.955" fill="#26537b"/>
    </g>
   </g>
  </g>
  <g id="g67222" transform="matrix(1.25 0 0 -1.25 -61.166 739.31)">
   <g id="g67224" clip-path="url(#clipPath67226)">
    <g id="g67230" transform="translate(175.77 351.25)">
     <path id="path67232" d="m0 0c0-3.841-3.114-6.955-6.955-6.955s-6.955 3.114-6.955 6.955 3.114 6.955 6.955 6.955 6.955-3.114 6.955-6.955" fill="#3e8acb"/>
    </g>
   </g>
  </g>
  <g id="g67270" transform="matrix(1.25 0 0 -1.25 -61.166 739.31)">
   <g id="g67272" clip-path="url(#clipPath67274)">
    <g id="g67278" transform="translate(163.68 351.25)">
     <path id="path67280" d="m0 0c0-3.841-3.114-6.955-6.955-6.955s-6.955 3.114-6.955 6.955 3.114 6.955 6.955 6.955 6.955-3.114 6.955-6.955" fill="#40b2a9"/>
    </g>
   </g>
  </g>
  <g id="g67318" transform="matrix(1.25 0 0 -1.25 -61.166 739.31)">
   <g id="g67320" clip-path="url(#clipPath67322)">
    <g id="g67326" transform="translate(151.59 351.25)">
     <path id="path67328" d="m0 0c0-3.841-3.114-6.955-6.955-6.955s-6.955 3.114-6.955 6.955 3.114 6.955 6.955 6.955 6.955-3.114 6.955-6.955" fill="#2e9c4b"/>
    </g>
    <g id="g67330" transform="translate(147.31 353.34)">
     <path id="path67332" d="m0 0h-3.133v-1.267h2.904v-1.317h-2.904v-2.909h-1.747v6.81h4.88v-1.317z" fill="#fff"/>
    </g>
    <g id="g67334" transform="translate(157.52 350.47)">
     <path id="path67336" d="m0 0-0.838 2.44-0.838-2.44h1.676zm2.71-2.625h-1.814l-0.474 1.376h-2.52l-0.474-1.376h-1.77l2.516 6.81h2.021l2.515-6.81z" fill="#fff"/>
    </g>
    <g id="g67338" transform="translate(169.4 347.72)">
     <path id="path67340" d="m0 0c-0.506 0-0.973 0.075-1.402 0.224-0.428 0.149-0.796 0.372-1.104 0.668-0.308 0.295-0.547 0.664-0.716 1.107-0.169 0.442-0.254 0.952-0.254 1.532 0 0.539 0.081 1.029 0.243 1.468 0.161 0.439 0.396 0.815 0.704 1.129 0.296 0.302 0.662 0.535 1.1 0.7 0.437 0.165 0.915 0.247 1.434 0.247 0.286 0 0.545-0.016 0.775-0.048s0.443-0.074 0.638-0.126c0.204-0.058 0.389-0.123 0.555-0.194 0.167-0.072 0.312-0.138 0.437-0.199v-1.651h-0.201c-0.085 0.073-0.193 0.159-0.323 0.259-0.129 0.1-0.276 0.199-0.441 0.296-0.167 0.097-0.349 0.179-0.544 0.246-0.195 0.066-0.404 0.1-0.627 0.1-0.247 0-0.481-0.039-0.704-0.117-0.222-0.077-0.428-0.206-0.617-0.385-0.18-0.174-0.326-0.403-0.437-0.689s-0.167-0.633-0.167-1.041c0-0.426 0.06-0.782 0.181-1.068 0.12-0.286 0.272-0.511 0.455-0.675 0.186-0.168 0.393-0.287 0.622-0.359 0.228-0.071 0.454-0.107 0.677-0.107 0.213 0 0.424 0.032 0.633 0.096 0.209 0.063 0.402 0.15 0.578 0.259 0.15 0.088 0.289 0.182 0.417 0.282s0.233 0.187 0.315 0.26h0.183v-1.629c-0.171-0.076-0.334-0.148-0.489-0.215-0.156-0.067-0.319-0.125-0.49-0.173-0.222-0.064-0.431-0.113-0.626-0.147-0.195-0.033-0.464-0.05-0.805-0.05" fill="#fff"/>
    </g>
    <g id="g67342" transform="translate(183.66 347.85)">
     <path id="path67344" d="m0 0h-4.925v6.81h4.925v-1.317h-3.178v-1.176h2.949v-1.317h-2.949v-1.683h3.178v-1.317z" fill="#fff"/>
    </g>
   </g>
  </g>
 </g>
</svg>
