<?xml version="1.0" encoding="UTF-8" standalone="no"?>
<!-- Created with Inkscape (http://www.inkscape.org/) -->

<svg
   xmlns:dc="http://purl.org/dc/elements/1.1/"
   xmlns:cc="http://creativecommons.org/ns#"
   xmlns:rdf="http://www.w3.org/1999/02/22-rdf-syntax-ns#"
   xmlns:svg="http://www.w3.org/2000/svg"
   xmlns="http://www.w3.org/2000/svg"
   xmlns:sodipodi="http://sodipodi.sourceforge.net/DTD/sodipodi-0.dtd"
   xmlns:inkscape="http://www.inkscape.org/namespaces/inkscape"
   width="17.702389mm"
   height="4.9071388mm"
   viewBox="0 0 62.724999 17.3875"
   id="svg84443"
   version="1.1"
   inkscape:version="0.91 r13725"
   sodipodi:docname="Face TV2.svg">
  <defs
     id="defs84445">
    <clipPath
       clipPathUnits="userSpaceOnUse"
       id="clipPath67322">
      <path
         d="m 134.645,338.287 57.459,0 0,24.803 -57.459,0 0,-24.803 z"
         id="path67324"
         inkscape:connector-curvature="0" />
    </clipPath>
    <clipPath
       clipPathUnits="userSpaceOnUse"
       id="clipPath67274">
      <path
         d="m 134.645,338.287 57.459,0 0,24.803 -57.459,0 0,-24.803 z"
         id="path67276"
         inkscape:connector-curvature="0" />
    </clipPath>
    <clipPath
       clipPathUnits="userSpaceOnUse"
       id="clipPath67226">
      <path
         d="m 134.645,338.287 57.459,0 0,24.803 -57.459,0 0,-24.803 z"
         id="path67228"
         inkscape:connector-curvature="0" />
    </clipPath>
    <clipPath
       clipPathUnits="userSpaceOnUse"
       id="clipPath67178">
      <path
         d="m 134.645,338.287 57.459,0 0,24.803 -57.459,0 0,-24.803 z"
         id="path67180"
         inkscape:connector-curvature="0" />
    </clipPath>
  </defs>
  <sodipodi:namedview
     id="base"
     pagecolor="#ffffff"
     bordercolor="#666666"
     borderopacity="1.0"
     inkscape:pageopacity="0.0"
     inkscape:pageshadow="2"
     inkscape:zoom="15.839192"
     inkscape:cx="22.621791"
     inkscape:cy="15.264161"
     inkscape:document-units="px"
     inkscape:current-layer="layer1"
     showgrid="false"
     fit-margin-top="0"
     fit-margin-left="0"
     fit-margin-right="0"
     fit-margin-bottom="0"
     inkscape:window-width="1920"
     inkscape:window-height="1017"
     inkscape:window-x="-8"
     inkscape:window-y="-8"
     inkscape:window-maximized="1" />
  <metadata
     id="metadata84448">
    <rdf:RDF>
      <cc:Work
         rdf:about="">
        <dc:format>image/svg+xml</dc:format>
        <dc:type
           rdf:resource="http://purl.org/dc/dcmitype/StillImage" />
        <dc:title></dc:title>
      </cc:Work>
    </rdf:RDF>
  </metadata>
  <g
     inkscape:label="Layer 1"
     inkscape:groupmode="layer"
     id="layer1"
     transform="translate(-110.93627,-291.56126)">
    <g
       transform="matrix(1.25,0,0,-1.25,-61.165732,739.31226)"
       id="g67174">
      <g
         id="g67176"
         clip-path="url(#clipPath67178)">
        <g
           id="g67182"
           transform="translate(187.8616,351.2458)">
          <path
             d="m 0,0 c 0,-3.841 -3.114,-6.955 -6.955,-6.955 -3.841,0 -6.955,3.114 -6.955,6.955 0,3.841 3.114,6.955 6.955,6.955 C -3.114,6.955 0,3.841 0,0"
             style="fill:#26537b;fill-opacity:1;fill-rule:nonzero;stroke:none"
             id="path67184"
             inkscape:connector-curvature="0" />
        </g>
      </g>
    </g>
    <g
       transform="matrix(1.25,0,0,-1.25,-61.165732,739.31226)"
       id="g67222">
      <g
         id="g67224"
         clip-path="url(#clipPath67226)">
        <g
           id="g67230"
           transform="translate(175.7716,351.2458)">
          <path
             d="m 0,0 c 0,-3.841 -3.114,-6.955 -6.955,-6.955 -3.841,0 -6.955,3.114 -6.955,6.955 0,3.841 3.114,6.955 6.955,6.955 C -3.114,6.955 0,3.841 0,0"
             style="fill:#3e8acb;fill-opacity:1;fill-rule:nonzero;stroke:none"
             id="path67232"
             inkscape:connector-curvature="0" />
        </g>
      </g>
    </g>
    <g
       transform="matrix(1.25,0,0,-1.25,-61.165732,739.31226)"
       id="g67270">
      <g
         id="g67272"
         clip-path="url(#clipPath67274)">
        <g
           id="g67278"
           transform="translate(163.6816,351.2458)">
          <path
             d="m 0,0 c 0,-3.841 -3.114,-6.955 -6.955,-6.955 -3.841,0 -6.955,3.114 -6.955,6.955 0,3.841 3.114,6.955 6.955,6.955 C -3.114,6.955 0,3.841 0,0"
             style="fill:#40b2a9;fill-opacity:1;fill-rule:nonzero;stroke:none"
             id="path67280"
             inkscape:connector-curvature="0" />
        </g>
      </g>
    </g>
    <g
       transform="matrix(1.25,0,0,-1.25,-61.165732,739.31226)"
       id="g67318">
      <g
         id="g67320"
         clip-path="url(#clipPath67322)">
        <g
           id="g67326"
           transform="translate(151.5916,351.2458)">
          <path
             d="m 0,0 c 0,-3.841 -3.114,-6.955 -6.955,-6.955 -3.841,0 -6.955,3.114 -6.955,6.955 0,3.841 3.114,6.955 6.955,6.955 C -3.114,6.955 0,3.841 0,0"
             style="fill:#2e9c4b;fill-opacity:1;fill-rule:nonzero;stroke:none"
             id="path67328"
             inkscape:connector-curvature="0" />
        </g>
        <g
           id="g67330"
           transform="translate(147.307,353.3412)">
          <path
             d="m 0,0 -3.133,0 0,-1.267 2.904,0 0,-1.317 -2.904,0 0,-2.909 -1.747,0 0,6.81 4.88,0 L 0,0 Z"
             style="fill:#ffffff;fill-opacity:1;fill-rule:nonzero;stroke:none"
             id="path67332"
             inkscape:connector-curvature="0" />
        </g>
        <g
           id="g67334"
           transform="translate(157.5183,350.4737)">
          <path
             d="M 0,0 -0.838,2.44 -1.676,0 0,0 Z m 2.71,-2.625 -1.814,0 -0.474,1.376 -2.52,0 -0.474,-1.376 -1.77,0 2.516,6.81 2.021,0 2.515,-6.81 z"
             style="fill:#ffffff;fill-opacity:1;fill-rule:nonzero;stroke:none"
             id="path67336"
             inkscape:connector-curvature="0" />
        </g>
        <g
           id="g67338"
           transform="translate(169.3985,347.716)">
          <path
             d="m 0,0 c -0.506,0 -0.973,0.075 -1.402,0.224 -0.428,0.149 -0.796,0.372 -1.104,0.668 -0.308,0.295 -0.547,0.664 -0.716,1.107 -0.169,0.442 -0.254,0.952 -0.254,1.532 0,0.539 0.081,1.029 0.243,1.468 0.161,0.439 0.396,0.815 0.704,1.129 0.296,0.302 0.662,0.535 1.1,0.7 0.437,0.165 0.915,0.247 1.434,0.247 C 0.291,7.075 0.55,7.059 0.78,7.027 1.01,6.995 1.223,6.953 1.418,6.901 1.622,6.843 1.807,6.778 1.973,6.707 2.14,6.635 2.285,6.569 2.41,6.508 l 0,-1.651 -0.201,0 C 2.124,4.93 2.016,5.016 1.886,5.116 1.757,5.216 1.61,5.315 1.445,5.412 1.278,5.509 1.096,5.591 0.901,5.658 0.706,5.724 0.497,5.758 0.274,5.758 0.027,5.758 -0.207,5.719 -0.43,5.641 -0.652,5.564 -0.858,5.435 -1.047,5.256 -1.227,5.082 -1.373,4.853 -1.484,4.567 -1.595,4.281 -1.651,3.934 -1.651,3.526 c 0,-0.426 0.06,-0.782 0.181,-1.068 0.12,-0.286 0.272,-0.511 0.455,-0.675 0.186,-0.168 0.393,-0.287 0.622,-0.359 0.228,-0.071 0.454,-0.107 0.677,-0.107 0.213,0 0.424,0.032 0.633,0.096 0.209,0.063 0.402,0.15 0.578,0.259 0.15,0.088 0.289,0.182 0.417,0.282 0.128,0.1 0.233,0.187 0.315,0.26 l 0.183,0 0,-1.629 C 2.239,0.509 2.076,0.437 1.921,0.37 1.765,0.303 1.602,0.245 1.431,0.197 1.209,0.133 1,0.084 0.805,0.05 0.61,0.017 0.341,0 0,0"
             style="fill:#ffffff;fill-opacity:1;fill-rule:nonzero;stroke:none"
             id="path67340"
             inkscape:connector-curvature="0" />
        </g>
        <g
           id="g67342"
           transform="translate(183.6572,347.8486)">
          <path
             d="m 0,0 -4.925,0 0,6.81 4.925,0 0,-1.317 -3.178,0 0,-1.176 2.949,0 0,-1.317 -2.949,0 0,-1.683 L 0,1.317 0,0 Z"
             style="fill:#ffffff;fill-opacity:1;fill-rule:nonzero;stroke:none"
             id="path67344"
             inkscape:connector-curvature="0" />
        </g>
      </g>
    </g>
  </g>
</svg>
