<svg height="4.907139mm" viewBox="0 0 62.724999 17.3875" width="17.702389mm" xmlns="http://www.w3.org/2000/svg" xmlns:xlink="http://www.w3.org/1999/xlink"><clipPath id="a"><path d="m134.645 338.287h57.459v24.803h-57.459z"/></clipPath><clipPath id="b"><path d="m134.645 338.287h57.459v24.803h-57.459z"/></clipPath><clipPath id="c"><path d="m134.645 338.287h57.459v24.803h-57.459z"/></clipPath><clipPath id="d"><path d="m134.645 338.287h57.459v24.803h-57.459z"/></clipPath><g clip-path="url(#d)" transform="matrix(1.25 0 0 -1.25 -172.102002 447.751)"><g transform="translate(187.8616 351.2458)"><path d="m0 0c0-3.841-3.114-6.955-6.955-6.955s-6.955 3.114-6.955 6.955 3.114 6.955 6.955 6.955 6.955-3.114 6.955-6.955" fill="#26537b"/></g></g><g clip-path="url(#c)" transform="matrix(1.25 0 0 -1.25 -172.102002 447.751)"><g transform="translate(175.7716 351.2458)"><path d="m0 0c0-3.841-3.114-6.955-6.955-6.955s-6.955 3.114-6.955 6.955 3.114 6.955 6.955 6.955 6.955-3.114 6.955-6.955" fill="#3e8acb"/></g></g><g clip-path="url(#b)" transform="matrix(1.25 0 0 -1.25 -172.102002 447.751)"><g transform="translate(163.6816 351.2458)"><path d="m0 0c0-3.841-3.114-6.955-6.955-6.955s-6.955 3.114-6.955 6.955 3.114 6.955 6.955 6.955 6.955-3.114 6.955-6.955" fill="#40b2a9"/></g></g><g clip-path="url(#a)" transform="matrix(1.25 0 0 -1.25 -172.102002 447.751)"><g transform="translate(151.5916 351.2458)"><path d="m0 0c0-3.841-3.114-6.955-6.955-6.955s-6.955 3.114-6.955 6.955 3.114 6.955 6.955 6.955 6.955-3.114 6.955-6.955" fill="#2e9c4b"/></g><g transform="translate(147.307 353.3412)"><path d="m0 0h-3.133v-1.267h2.904v-1.317h-2.904v-2.909h-1.747v6.81h4.88z" fill="#fff"/></g><g transform="translate(157.5183 350.4737)"><path d="m0 0-.838 2.44-.838-2.44zm2.71-2.625h-1.814l-.474 1.376h-2.52l-.474-1.376h-1.77l2.516 6.81h2.021z" fill="#fff"/></g><g transform="translate(169.3985 347.716)"><path d="m0 0c-.506 0-.973.075-1.402.224-.428.149-.796.372-1.104.668-.308.295-.547.664-.716 1.107-.169.442-.254.952-.254 1.532 0 .539.081 1.029.243 1.468.161.439.396.815.704 1.129.296.302.662.535 1.1.7.437.165.915.247 1.434.247.286 0 .545-.016.775-.048s.443-.074.638-.126c.204-.058.389-.123.555-.194.167-.072.312-.138.437-.199v-1.651h-.201c-.085.073-.193.159-.323.259-.129.1-.276.199-.441.296-.167.097-.349.179-.544.246-.195.066-.404.1-.627.1-.247 0-.481-.039-.704-.117-.222-.077-.428-.206-.617-.385-.18-.174-.326-.403-.437-.689s-.167-.633-.167-1.041c0-.426.06-.782.181-1.068.12-.286.272-.511.455-.675.186-.168.393-.287.622-.359.228-.071.454-.107.677-.107.213 0 .424.032.633.096.209.063.402.15.578.259.15.088.289.182.417.282s.233.187.315.26h.183v-1.629c-.171-.076-.334-.148-.489-.215-.156-.067-.319-.125-.49-.173-.222-.064-.431-.113-.626-.147-.195-.033-.464-.05-.805-.05" fill="#fff"/></g><g transform="translate(183.6572 347.8486)"><path d="m0 0h-4.925v6.81h4.925v-1.317h-3.178v-1.176h2.949v-1.317h-2.949v-1.683h3.178z" fill="#fff"/></g></g></svg>