<svg height="6.016625mm" viewBox="0 0 72.246624 21.31875" width="20.389603mm" xmlns="http://www.w3.org/2000/svg" xmlns:xlink="http://www.w3.org/1999/xlink"><clipPath id="a"><path d="m480.614 659.622h82.8v24.803h-82.8z"/></clipPath><g clip-path="url(#a)" transform="matrix(1.25 0 0 -1.25 -616.3945 850.68912)"><g transform="translate(493.1156 671.9023)"><path d="m0 0h1.668c.078 0 .152-.034.201-.093.051-.059.071-.138.058-.214l-1.371-8.099c4.344.049 4.766 2.085 4.77 2.106l.99 6.084c.022.125.131.216.259.216h2.156l.525 2.994h-2.131c-.077 0-.15.033-.201.092-.05.059-.071.136-.058.212l.044.262c.095.504.257.923.482 1.25.257.372.693.561 1.296.561.193 0 .386-.02.572-.06.063-.014.123-.029.181-.045l.68 3.149c-.219.07-.482.123-.783.16-.413.049-.787.074-1.112.074-1.002 0-1.85-.137-2.52-.406-.664-.268-1.214-.635-1.632-1.092-.423-.461-.754-1.002-.983-1.608-.235-.625-.42-1.293-.548-1.986l-.066-.35c-.024-.124-.133-.213-.259-.213h-1.693z" fill="#ebebeb"/></g><g transform="translate(530.9932 667.0455)"><path d="m0 0c-.646 0-1.151.19-1.502.564-.346.368-.521.824-.521 1.356 0 .378.056.734.168 1.056.112.327.28.623.498.881.223.261.493.467.805.614s.668.221 1.058.221c.63 0 1.127-.185 1.478-.55.347-.362.524-.823.524-1.37 0-.363-.061-.716-.181-1.048-.12-.335-.292-.634-.508-.889-.221-.26-.487-.466-.791-.613-.306-.147-.652-.222-1.028-.222m-.11 8.079c-.88 0-1.707-.182-2.461-.542-.757-.362-1.417-.855-1.963-1.466-.549-.614-.984-1.347-1.293-2.178-.31-.833-.467-1.732-.467-2.671 0-.653.095-1.272.283-1.84.186-.56.468-1.055.839-1.47.368-.414.831-.744 1.373-.983.543-.239 1.185-.36 1.907-.36.779 0 1.463.135 2.033.402.568.265 1.012.602 1.323 1.003.05.065.126.102.208.102h.044c.092 0 .176-.046.224-.123.005-.008.763-1.093 3.758-1.1l2.835 15.986c-4.362-.017-4.74-2.084-4.754-2.172l-.637-3.638c-.022-.125-.132-.216-.259-.216h-.045c-.086 0-.166.042-.215.112-.115.164-.273.32-.468.462-.201.147-.427.272-.672.374-.246.102-.511.181-.787.236-.275.055-.547.082-.806.082" fill="#ebebeb"/></g><g transform="translate(518.7696 667.0455)"><path d="m0 0c-.631 0-1.125.186-1.469.553-.338.36-.51.82-.51 1.367 0 .363.057.714.168 1.044.112.336.281.634.502.886.219.249.483.453.782.606.308.157.656.236 1.033.236.647 0 1.149-.19 1.493-.565.338-.369.509-.825.509-1.355 0-.376-.057-.731-.168-1.056-.113-.326-.276-.621-.486-.877-.214-.262-.482-.47-.795-.617-.314-.148-.67-.222-1.059-.222m.661 8.167c-1.104 0-2.095-.181-2.946-.537-.85-.355-1.575-.846-2.156-1.456-.582-.613-1.034-1.34-1.342-2.161-.31-.825-.467-1.714-.467-2.639 0-.785.153-1.488.456-2.088.303-.601.729-1.115 1.267-1.526.544-.415 1.188-.73 1.915-.939.736-.21 1.54-.317 2.392-.317 1.119 0 2.125.18 2.991.537.865.356 1.601.846 2.188 1.456.589.613 1.044 1.339 1.352 2.161.311.825.468 1.713.468 2.638 0 .784-.157 1.486-.467 2.087-.31.602-.741 1.116-1.279 1.527-.543.415-1.193.73-1.935.939-.751.21-1.571.318-2.437.318" fill="#ebebeb"/></g><g transform="translate(506.4733 667.0455)"><path d="m0 0c-.631 0-1.126.186-1.469.553-.338.361-.51.821-.51 1.367 0 .361.056.713.167 1.044.113.336.282.634.503.886.219.249.482.453.782.606.308.157.655.236 1.033.236.646 0 1.148-.19 1.493-.565.337-.369.509-.825.509-1.355 0-.377-.057-.732-.169-1.056-.112-.326-.275-.622-.485-.878-.214-.261-.482-.469-.795-.616-.313-.148-.67-.222-1.059-.222m.66 8.167c-1.103 0-2.094-.181-2.945-.537-.85-.355-1.575-.845-2.156-1.456-.582-.612-1.033-1.339-1.342-2.161-.31-.825-.467-1.713-.467-2.639 0-.785.153-1.488.456-2.088.303-.602.729-1.115 1.267-1.526.544-.415 1.188-.73 1.915-.939.735-.21 1.54-.317 2.392-.317 1.118 0 2.125.18 2.991.537.865.356 1.601.846 2.188 1.456.589.613 1.044 1.339 1.352 2.161.31.825.468 1.713.468 2.638 0 .784-.157 1.486-.467 2.087-.31.602-.741 1.116-1.279 1.527-.543.415-1.194.731-1.936.939-.75.21-1.57.318-2.437.318" fill="#ebebeb"/></g><g transform="translate(544.7989 675.2075)"><path d="m0 0c-1.102 0-2.093-.18-2.944-.536-.849-.355-1.573-.845-2.153-1.456-.582-.612-1.033-1.339-1.342-2.16-.31-.825-.467-1.712-.467-2.637 0-.785.154-1.487.457-2.087.302-.601.728-1.114 1.266-1.525.543-.415 1.186-.73 1.913-.939.735-.21 1.539-.317 2.39-.317 1.118 0 2.124.181 2.99.537.863.356 1.599.846 2.185 1.456.589.612 1.043 1.338 1.352 2.159.31.825.467 1.712.467 2.637 0 .784-.157 1.486-.466 2.085-.31.603-.74 1.116-1.278 1.527-.543.415-1.193.73-1.935.938-.749.211-1.569.318-2.435.318" fill="#37b63f"/></g><g transform="translate(548.3582 671.7034)"><path d="m0 0-2.232-3.9-.625 3.9h-.389-2.529l.29 1.674h-1.754l-.289-1.674h-.999l-.267-1.496h1.023l-.455-2.45c-.026-.117-.045-.245-.058-.385-.012-.136-.018-.262-.018-.379 0-.445.148-.811.439-1.086.294-.277.759-.412 1.423-.412.145 0 .306.015.481.045.178.03.334.072.464.124l.101.04.112 1.415-.238-.062c-.075-.019-.156-.035-.241-.047-.251-.037-.521-.019-.663.072-.026.017-.106.068-.106.282 0 .09.011.191.033.301l.479 2.542h1.612l.906-4.592h1.762l3.642 6.088z" fill="#fff"/></g></g></svg>