<?xml version="1.0" encoding="UTF-8"?>
<!-- Created with Inkscape (http://www.inkscape.org/) -->
<svg id="svg310038" width="20.39mm" height="6.0166mm" version="1.1" viewBox="0 0 72.247 21.319" xmlns="http://www.w3.org/2000/svg" xmlns:cc="http://creativecommons.org/ns#" xmlns:dc="http://purl.org/dc/elements/1.1/" xmlns:rdf="http://www.w3.org/1999/02/22-rdf-syntax-ns#">
 <defs id="defs310040">
  <clipPath id="clipPath71528">
   <path id="path71530" d="m480.61 659.62h82.8v24.803h-82.8v-24.803z"/>
  </clipPath>
 </defs>
 <metadata id="metadata310043">
  <rdf:RDF>
   <cc:Work rdf:about="">
    <dc:format>image/svg+xml</dc:format>
    <dc:type rdf:resource="http://purl.org/dc/dcmitype/StillImage"/>
    <dc:title/>
   </cc:Work>
  </rdf:RDF>
 </metadata>
 <g id="layer1" transform="translate(-395.31 -387.42)">
  <g id="g71524" transform="matrix(1.25 0 0 -1.25 -221.09 1238.1)">
   <g id="g71526" clip-path="url(#clipPath71528)">
    <g id="g71532" transform="translate(493.12 671.9)">
     <path id="path71534" d="m0 0h1.668c0.078 0 0.152-0.034 0.201-0.093 0.051-0.059 0.071-0.138 0.058-0.214l-1.371-8.099c4.344 0.049 4.766 2.085 4.77 2.106l0.99 6.084c0.022 0.125 0.131 0.216 0.259 0.216h2.156l0.525 2.994h-2.131c-0.077 0-0.15 0.033-0.201 0.092-0.05 0.059-0.071 0.136-0.058 0.212l0.044 0.262c0.095 0.504 0.257 0.923 0.482 1.25 0.257 0.372 0.693 0.561 1.296 0.561 0.193 0 0.386-0.02 0.572-0.06 0.063-0.014 0.123-0.029 0.181-0.045l0.68 3.149c-0.219 0.07-0.482 0.123-0.783 0.16-0.413 0.049-0.787 0.074-1.112 0.074-1.002 0-1.85-0.137-2.52-0.406-0.664-0.268-1.214-0.635-1.632-1.092-0.423-0.461-0.754-1.002-0.983-1.608-0.235-0.625-0.42-1.293-0.548-1.986l-0.066-0.35c-0.024-0.124-0.133-0.213-0.259-0.213h-1.693l-0.525-2.994z" fill="#ebebeb"/>
    </g>
    <g id="g71536" transform="translate(530.99 667.05)">
     <path id="path71538" d="m0 0c-0.646 0-1.151 0.19-1.502 0.564-0.346 0.368-0.521 0.824-0.521 1.356 0 0.378 0.056 0.734 0.168 1.056 0.112 0.327 0.28 0.623 0.498 0.881 0.223 0.261 0.493 0.467 0.805 0.614s0.668 0.221 1.058 0.221c0.63 0 1.127-0.185 1.478-0.55 0.347-0.362 0.524-0.823 0.524-1.37 0-0.363-0.061-0.716-0.181-1.048-0.12-0.335-0.292-0.634-0.508-0.889-0.221-0.26-0.487-0.466-0.791-0.613-0.306-0.147-0.652-0.222-1.028-0.222m-0.11 8.079c-0.88 0-1.707-0.182-2.461-0.542-0.757-0.362-1.417-0.855-1.963-1.466-0.549-0.614-0.984-1.347-1.293-2.178-0.31-0.833-0.467-1.732-0.467-2.671 0-0.653 0.095-1.272 0.283-1.84 0.186-0.56 0.468-1.055 0.839-1.47 0.368-0.414 0.831-0.744 1.373-0.983 0.543-0.239 1.185-0.36 1.907-0.36 0.779 0 1.463 0.135 2.033 0.402 0.568 0.265 1.012 0.602 1.323 1.003 0.05 0.065 0.126 0.102 0.208 0.102h0.044c0.092 0 0.176-0.046 0.224-0.123 5e-3 -8e-3 0.763-1.093 3.758-1.1l2.835 15.986c-4.362-0.017-4.74-2.084-4.754-2.172l-0.637-3.638c-0.022-0.125-0.132-0.216-0.259-0.216h-0.045c-0.086 0-0.166 0.042-0.215 0.112-0.115 0.164-0.273 0.32-0.468 0.462-0.201 0.147-0.427 0.272-0.672 0.374-0.246 0.102-0.511 0.181-0.787 0.236-0.275 0.055-0.547 0.082-0.806 0.082" fill="#ebebeb"/>
    </g>
    <g id="g71540" transform="translate(518.77 667.05)">
     <path id="path71542" d="m0 0c-0.631 0-1.125 0.186-1.469 0.553-0.338 0.36-0.51 0.82-0.51 1.367 0 0.363 0.057 0.714 0.168 1.044 0.112 0.336 0.281 0.634 0.502 0.886 0.219 0.249 0.483 0.453 0.782 0.606 0.308 0.157 0.656 0.236 1.033 0.236 0.647 0 1.149-0.19 1.493-0.565 0.338-0.369 0.509-0.825 0.509-1.355 0-0.376-0.057-0.731-0.168-1.056-0.113-0.326-0.276-0.621-0.486-0.877-0.214-0.262-0.482-0.47-0.795-0.617-0.314-0.148-0.67-0.222-1.059-0.222m0.661 8.167c-1.104 0-2.095-0.181-2.946-0.537-0.85-0.355-1.575-0.846-2.156-1.456-0.582-0.613-1.034-1.34-1.342-2.161-0.31-0.825-0.467-1.714-0.467-2.639 0-0.785 0.153-1.488 0.456-2.088 0.303-0.601 0.729-1.115 1.267-1.526 0.544-0.415 1.188-0.73 1.915-0.939 0.736-0.21 1.54-0.317 2.392-0.317 1.119 0 2.125 0.18 2.991 0.537 0.865 0.356 1.601 0.846 2.188 1.456 0.589 0.613 1.044 1.339 1.352 2.161 0.311 0.825 0.468 1.713 0.468 2.638 0 0.784-0.157 1.486-0.467 2.087-0.31 0.602-0.741 1.116-1.279 1.527-0.543 0.415-1.193 0.73-1.935 0.939-0.751 0.21-1.571 0.318-2.437 0.318" fill="#ebebeb"/>
    </g>
    <g id="g71544" transform="translate(506.47 667.05)">
     <path id="path71546" d="m0 0c-0.631 0-1.126 0.186-1.469 0.553-0.338 0.361-0.51 0.821-0.51 1.367 0 0.361 0.056 0.713 0.167 1.044 0.113 0.336 0.282 0.634 0.503 0.886 0.219 0.249 0.482 0.453 0.782 0.606 0.308 0.157 0.655 0.236 1.033 0.236 0.646 0 1.148-0.19 1.493-0.565 0.337-0.369 0.509-0.825 0.509-1.355 0-0.377-0.057-0.732-0.169-1.056-0.112-0.326-0.275-0.622-0.485-0.878-0.214-0.261-0.482-0.469-0.795-0.616-0.313-0.148-0.67-0.222-1.059-0.222m0.66 8.167c-1.103 0-2.094-0.181-2.945-0.537-0.85-0.355-1.575-0.845-2.156-1.456-0.582-0.612-1.033-1.339-1.342-2.161-0.31-0.825-0.467-1.713-0.467-2.639 0-0.785 0.153-1.488 0.456-2.088 0.303-0.602 0.729-1.115 1.267-1.526 0.544-0.415 1.188-0.73 1.915-0.939 0.735-0.21 1.54-0.317 2.392-0.317 1.118 0 2.125 0.18 2.991 0.537 0.865 0.356 1.601 0.846 2.188 1.456 0.589 0.613 1.044 1.339 1.352 2.161 0.31 0.825 0.468 1.713 0.468 2.638 0 0.784-0.157 1.486-0.467 2.087-0.31 0.602-0.741 1.116-1.279 1.527-0.543 0.415-1.194 0.731-1.936 0.939-0.75 0.21-1.57 0.318-2.437 0.318" fill="#ebebeb"/>
    </g>
    <g id="g71548" transform="translate(544.8 675.21)">
     <path id="path71550" d="m0 0c-1.102 0-2.093-0.18-2.944-0.536-0.849-0.355-1.573-0.845-2.153-1.456-0.582-0.612-1.033-1.339-1.342-2.16-0.31-0.825-0.467-1.712-0.467-2.637 0-0.785 0.154-1.487 0.457-2.087 0.302-0.601 0.728-1.114 1.266-1.525 0.543-0.415 1.186-0.73 1.913-0.939 0.735-0.21 1.539-0.317 2.39-0.317 1.118 0 2.124 0.181 2.99 0.537 0.863 0.356 1.599 0.846 2.185 1.456 0.589 0.612 1.043 1.338 1.352 2.159 0.31 0.825 0.467 1.712 0.467 2.637 0 0.784-0.157 1.486-0.466 2.085-0.31 0.603-0.74 1.116-1.278 1.527-0.543 0.415-1.193 0.73-1.935 0.938-0.749 0.211-1.569 0.318-2.435 0.318" fill="#37b63f"/>
    </g>
    <g id="g71552" transform="translate(548.36 671.7)">
     <path id="path71554" d="m0 0-2.232-3.9-0.625 3.9h-0.389-2.529l0.29 1.674h-1.754l-0.289-1.674h-0.999l-0.267-1.496h1.023l-0.455-2.45c-0.026-0.117-0.045-0.245-0.058-0.385-0.012-0.136-0.018-0.262-0.018-0.379 0-0.445 0.148-0.811 0.439-1.086 0.294-0.277 0.759-0.412 1.423-0.412 0.145 0 0.306 0.015 0.481 0.045 0.178 0.03 0.334 0.072 0.464 0.124l0.101 0.04 0.112 1.415-0.238-0.062c-0.075-0.019-0.156-0.035-0.241-0.047-0.251-0.037-0.521-0.019-0.663 0.072-0.026 0.017-0.106 0.068-0.106 0.282 0 0.09 0.011 0.191 0.033 0.301l0.479 2.542h1.612l0.906-4.592h1.762l3.642 6.088h-1.904z" fill="#fff"/>
    </g>
   </g>
  </g>
 </g>
</svg>
