<?xml version="1.0" encoding="UTF-8" standalone="no"?>
<!-- Created with Inkscape (http://www.inkscape.org/) -->

<svg
   xmlns:dc="http://purl.org/dc/elements/1.1/"
   xmlns:cc="http://creativecommons.org/ns#"
   xmlns:rdf="http://www.w3.org/1999/02/22-rdf-syntax-ns#"
   xmlns:svg="http://www.w3.org/2000/svg"
   xmlns="http://www.w3.org/2000/svg"
   xmlns:sodipodi="http://sodipodi.sourceforge.net/DTD/sodipodi-0.dtd"
   xmlns:inkscape="http://www.inkscape.org/namespaces/inkscape"
   width="19.929699mm"
   height="4.4139514mm"
   viewBox="0 0 70.617043 15.639985"
   id="svg85253"
   version="1.1"
   inkscape:version="0.91 r13725"
   sodipodi:docname="Garage.svg">
  <defs
     id="defs85255">
    <clipPath
       clipPathUnits="userSpaceOnUse"
       id="clipPath3050">
      <path
         d="m 400.394,378.425 63.921,0 0,24.803 -63.921,0 0,-24.803 z"
         id="path3052"
         inkscape:connector-curvature="0" />
    </clipPath>
    <clipPath
       clipPathUnits="userSpaceOnUse"
       id="clipPath3030">
      <path
         d="m 404.113,382.985 56.488,0 0,15.683 -56.488,0 0,-15.683 z"
         id="path3032"
         inkscape:connector-curvature="0" />
    </clipPath>
    <clipPath
       clipPathUnits="userSpaceOnUse"
       id="clipPath3010">
      <path
         d="m 400.394,378.425 63.921,0 0,24.803 -63.921,0 0,-24.803 z"
         id="path3012"
         inkscape:connector-curvature="0" />
    </clipPath>
    <clipPath
       clipPathUnits="userSpaceOnUse"
       id="clipPath2966">
      <path
         d="m 404.113,382.985 56.488,0 0,15.683 -56.488,0 0,-15.683 z"
         id="path2968"
         inkscape:connector-curvature="0" />
    </clipPath>
    <clipPath
       clipPathUnits="userSpaceOnUse"
       id="clipPath2954">
      <path
         d="m 400.394,378.425 63.921,0 0,24.803 -63.921,0 0,-24.803 z"
         id="path2956"
         inkscape:connector-curvature="0" />
    </clipPath>
    <clipPath
       clipPathUnits="userSpaceOnUse"
       id="clipPath2934">
      <path
         d="m 404.113,382.985 56.488,0 0,15.683 -56.488,0 0,-15.683 z"
         id="path2936"
         inkscape:connector-curvature="0" />
    </clipPath>
  </defs>
  <sodipodi:namedview
     id="base"
     pagecolor="#ffffff"
     bordercolor="#666666"
     borderopacity="1.0"
     inkscape:pageopacity="0.0"
     inkscape:pageshadow="2"
     inkscape:zoom="11.2"
     inkscape:cx="11.880322"
     inkscape:cy="12.407503"
     inkscape:document-units="px"
     inkscape:current-layer="layer1"
     showgrid="false"
     fit-margin-top="0"
     fit-margin-left="0"
     fit-margin-right="0"
     fit-margin-bottom="0"
     inkscape:window-width="1920"
     inkscape:window-height="1017"
     inkscape:window-x="-8"
     inkscape:window-y="-8"
     inkscape:window-maximized="1" />
  <metadata
     id="metadata85258">
    <rdf:RDF>
      <cc:Work
         rdf:about="">
        <dc:format>image/svg+xml</dc:format>
        <dc:type
           rdf:resource="http://purl.org/dc/dcmitype/StillImage" />
        <dc:title />
      </cc:Work>
    </rdf:RDF>
  </metadata>
  <g
     inkscape:label="Layer 1"
     inkscape:groupmode="layer"
     id="layer1"
     transform="translate(-310.40235,-408.27327)">
    <g
       id="g2938"
       transform="matrix(1.25,0,0,-1.25,338.28929,412.86112)"
       style="fill:#ffffff;fill-opacity:1">
      <path
         d="m 0,0 c 0,-0.413 0.006,-0.827 -0.003,-1.24 -0.004,-0.167 0.051,-0.225 0.218,-0.223 0.512,0.008 1.024,-0.009 1.535,0.006 0.649,0.018 1.026,0.304 1.198,0.892 C 3.054,-0.203 3.072,0.17 2.994,0.54 2.861,1.166 2.477,1.479 1.832,1.487 1.301,1.493 0.769,1.479 0.238,1.493 0.036,1.498 -0.009,1.426 -0.004,1.24 0.008,0.827 0,0.413 0,0 m -2.114,-2.589 c 0,1.823 0,3.647 0,5.47 0,0.451 0.098,0.549 0.559,0.549 1.212,10e-4 2.425,0.003 3.637,0 C 4.325,3.425 5.336,1.816 5.169,-0.116 5.095,-0.961 4.737,-1.684 4.022,-2.192 3.928,-2.258 3.836,-2.326 3.989,-2.433 4.674,-2.909 4.831,-3.64 4.899,-4.395 5.004,-5.539 4.999,-6.699 5.274,-7.819 5.43,-8.454 5.338,-8.626 4.625,-8.585 4.291,-8.566 3.954,-8.573 3.62,-8.585 3.389,-8.594 3.257,-8.5 3.169,-8.29 c -0.273,0.65 -0.303,1.34 -0.332,2.027 -0.025,0.609 -0.028,1.22 -0.103,1.824 -0.087,0.705 -0.408,1.008 -1.116,1.055 -0.481,0.031 -0.965,0.003 -1.448,0.015 -0.216,0.005 -0.173,-0.137 -0.173,-0.258 -0.001,-1.468 0,-2.937 -0.001,-4.405 0,-0.499 -0.053,-0.55 -0.563,-0.55 -0.355,0 -0.71,-10e-4 -1.065,0 -0.385,0.001 -0.482,0.099 -0.482,0.494 -0.001,1.478 0,2.957 0,4.435 0,0.355 0,0.709 0,1.064"
         style="fill:#ffffff;fill-opacity:1;fill-rule:nonzero;stroke:none"
         id="path2940"
         inkscape:connector-curvature="0" />
    </g>
    <g
       id="g2942"
       transform="matrix(1.25,0,0,-1.25,369.67479,418.98899)"
       style="fill:#ffffff;fill-opacity:1">
      <path
         d="m 0,0 c 0,-0.828 -0.008,-1.656 0.004,-2.483 0.005,-0.337 -0.117,-0.534 -0.432,-0.683 -1.344,-0.633 -2.747,-0.902 -4.22,-0.693 -1.609,0.227 -2.563,1.153 -2.898,2.757 -0.12,0.579 -0.182,1.165 -0.182,1.758 0,1.33 -0.006,2.66 0.003,3.991 0.005,0.746 0.159,1.465 0.516,2.128 0.468,0.872 1.19,1.421 2.154,1.644 1.019,0.237 2.035,0.196 3.032,-0.104 C -0.753,7.931 -0.058,7.022 0.018,5.691 0.032,5.465 0.023,5.238 0.028,5.012 0.033,4.769 -0.102,4.631 -0.325,4.622 -0.807,4.604 -1.29,4.599 -1.772,4.616 -2.027,4.624 -2.143,4.798 -2.15,5.054 -2.161,5.459 -2.201,5.857 -2.457,6.201 -2.536,6.308 -2.627,6.393 -2.734,6.459 -3.931,7.192 -5.412,6.483 -5.539,5.097 -5.664,3.732 -5.566,2.361 -5.59,0.993 c -0.01,-0.542 0.022,-1.082 0.114,-1.616 0.181,-1.044 0.586,-1.416 1.639,-1.436 0.509,-0.01 1.02,0.049 1.502,0.251 0.156,0.065 0.225,0.148 0.222,0.327 -0.01,0.808 -0.009,1.616 0,2.424 10e-4,0.18 -0.051,0.241 -0.235,0.236 C -2.82,1.168 -3.293,1.173 -3.766,1.177 -4.097,1.18 -4.214,1.296 -4.218,1.619 c -0.003,0.354 -0.005,0.709 0.001,1.064 0.005,0.292 0.122,0.422 0.411,0.423 1.133,0.007 2.266,0.007 3.399,0 0.285,-10e-4 0.405,-0.17 0.406,-0.534 C 0.002,1.715 0,0.857 0,0"
         style="fill:#ffffff;fill-opacity:1;fill-rule:nonzero;stroke:none"
         id="path2944"
         inkscape:connector-curvature="0" />
    </g>
    <g
       id="g2946"
       transform="matrix(1.25,0,0,-1.25,320.02617,418.99274)"
       style="fill:#ffffff;fill-opacity:1">
      <path
         d="m 0,0 c 0,-0.867 -0.003,-1.734 0.002,-2.602 0.001,-0.192 -0.039,-0.355 -0.219,-0.446 -1.637,-0.831 -3.349,-1.158 -5.139,-0.638 -1.235,0.359 -1.877,1.295 -2.158,2.507 -0.132,0.567 -0.187,1.143 -0.185,1.727 0.006,1.399 -0.002,2.798 0.004,4.198 0.004,0.919 0.249,1.763 0.804,2.51 0.545,0.734 1.304,1.091 2.173,1.235 0.986,0.164 1.963,0.092 2.91,-0.238 C -0.557,7.817 -0.071,6.841 0.038,5.601 0.12,4.674 0.066,4.61 -0.87,4.61 -1.136,4.61 -1.402,4.603 -1.668,4.612 -2.007,4.623 -2.12,4.747 -2.133,5.084 -2.139,5.221 -2.149,5.359 -2.172,5.494 -2.297,6.227 -2.605,6.559 -3.338,6.652 -3.98,6.733 -4.624,6.736 -5.109,6.179 -5.422,5.819 -5.551,5.387 -5.555,4.927 -5.565,3.32 -5.567,1.714 -5.553,0.108 c 0.003,-0.452 0.082,-0.901 0.254,-1.327 0.184,-0.457 0.506,-0.732 1.006,-0.794 0.675,-0.084 1.331,-0.034 1.971,0.21 0.14,0.054 0.196,0.124 0.195,0.279 -0.007,0.827 -0.01,1.655 10e-4,2.483 0.003,0.194 -0.069,0.227 -0.24,0.223 -0.463,-0.01 -0.926,-0.007 -1.389,-0.002 -0.326,0.004 -0.444,0.125 -0.446,0.446 -0.002,0.345 -0.003,0.689 0,1.034 0.004,0.335 0.112,0.449 0.442,0.451 1.103,0.003 2.207,0.004 3.311,0 C -0.125,3.11 -0.002,2.984 -0.001,2.661 0.002,1.774 0,0.887 0,0"
         style="fill:#ffffff;fill-opacity:1;fill-rule:nonzero;stroke:none"
         id="path2948"
         inkscape:connector-curvature="0" />
    </g>
    <g
       id="g2958"
       transform="matrix(1.25,0,0,-1.25,327.87479,412.23962)"
       style="fill:#ffffff;fill-opacity:1">
      <path
         d="m 0,0 c -0.022,0.004 -0.044,0.007 -0.066,0.011 -0.435,-1.481 -0.869,-2.961 -1.311,-4.47 0.845,0 1.65,0.008 2.456,-0.005 0.246,-0.003 0.245,0.085 0.185,0.276 C 1.02,-3.402 0.785,-2.614 0.547,-1.826 0.364,-1.217 0.182,-0.609 0,0 m 3.801,-9.079 c -0.226,0 -0.454,0.012 -0.679,-0.003 -0.265,-0.018 -0.393,0.107 -0.464,0.35 -0.204,0.698 -0.427,1.391 -0.627,2.091 -0.056,0.197 -0.144,0.257 -0.349,0.255 -1.133,-0.011 -2.266,-0.008 -3.399,-0.002 -0.17,0.001 -0.256,-0.035 -0.309,-0.22 -0.202,-0.698 -0.438,-1.387 -0.642,-2.086 -0.082,-0.283 -0.234,-0.402 -0.529,-0.389 -0.404,0.016 -0.808,0.002 -1.212,0.005 -0.353,0.002 -0.482,0.173 -0.377,0.506 0.78,2.465 1.562,4.93 2.343,7.395 0.389,1.228 0.787,2.453 1.161,3.685 0.098,0.325 0.277,0.439 0.599,0.429 C -0.19,2.923 0.303,2.929 0.795,2.935 1.058,2.938 1.206,2.828 1.289,2.572 2.494,-1.142 3.706,-4.853 4.914,-8.566 5.025,-8.906 4.901,-9.072 4.54,-9.078 4.294,-9.082 4.048,-9.079 3.801,-9.079"
         style="fill:#ffffff;fill-opacity:1;fill-rule:nonzero;stroke:none"
         id="path2960"
         inkscape:connector-curvature="0" />
    </g>
    <g
       id="g2970"
       transform="matrix(1.25,0,0,-1.25,352.38154,412.23974)"
       style="fill:#ffffff;fill-opacity:1">
      <path
         d="m 0,0 c -0.051,-0.044 -0.085,-0.058 -0.091,-0.081 -0.41,-1.39 -0.815,-2.782 -1.227,-4.172 -0.059,-0.197 0.027,-0.209 0.182,-0.208 0.738,0.005 1.476,0.011 2.213,-0.002 0.23,-0.004 0.259,0.059 0.194,0.266 C 0.97,-3.234 0.682,-2.267 0.39,-1.301 0.261,-0.874 0.134,-0.448 0,0 m 0.025,2.934 c 0.227,0 0.453,0 0.68,-0.001 0.411,0 0.486,-0.054 0.614,-0.447 C 2.126,0.009 2.932,-2.468 3.738,-4.946 4.125,-6.133 4.511,-7.32 4.896,-8.507 5.03,-8.92 4.916,-9.078 4.484,-9.079 4.031,-9.08 3.577,-9.07 3.124,-9.083 2.865,-9.09 2.731,-8.984 2.659,-8.737 c -0.203,0.709 -0.427,1.412 -0.633,2.12 -0.048,0.167 -0.121,0.232 -0.305,0.231 -1.143,-0.009 -2.286,-0.009 -3.429,0 -0.195,0.001 -0.273,-0.07 -0.327,-0.249 -0.208,-0.697 -0.439,-1.388 -0.646,-2.085 -0.076,-0.257 -0.211,-0.373 -0.485,-0.363 -0.403,0.015 -0.807,0.002 -1.211,0.004 -0.409,0.002 -0.523,0.144 -0.402,0.531 0.36,1.155 0.728,2.307 1.094,3.46 0.812,2.558 1.625,5.115 2.435,7.674 0.076,0.243 0.226,0.354 0.477,0.349 0.266,-0.006 0.532,-10e-4 0.798,-10e-4"
         style="fill:#ffffff;fill-opacity:1;fill-rule:nonzero;stroke:none"
         id="path2972"
         inkscape:connector-curvature="0" />
    </g>
    <g
       id="g2974"
       transform="matrix(1.25,0,0,-1.25,372.75454,416.11312)"
       style="fill:#ffffff;fill-opacity:1">
      <path
         d="m 0,0 c 0,1.823 0,3.646 0,5.47 0,0.457 0.101,0.562 0.55,0.562 1.813,0.001 3.626,0.001 5.44,0 C 6.423,6.031 6.524,5.926 6.525,5.487 6.525,5.172 6.529,4.857 6.524,4.541 6.518,4.209 6.409,4.101 6.075,4.101 4.853,4.099 3.631,4.092 2.409,4.106 2.156,4.109 2.1,4.034 2.105,3.793 2.121,2.995 2.119,2.197 2.106,1.399 2.102,1.182 2.153,1.116 2.38,1.118 3.474,1.131 4.568,1.125 5.662,1.124 6.118,1.123 6.197,1.045 6.197,0.593 6.198,0.277 6.199,-0.038 6.197,-0.353 6.195,-0.699 6.087,-0.806 5.734,-0.807 4.63,-0.809 3.526,-0.819 2.423,-0.801 2.15,-0.796 2.101,-0.881 2.105,-1.131 c 0.015,-0.897 0.012,-1.794 10e-4,-2.69 -0.002,-0.21 0.059,-0.264 0.265,-0.262 1.251,0.009 2.503,0.005 3.754,0.004 0.404,0 0.483,-0.079 0.486,-0.483 0.002,-0.345 0,-0.69 0,-1.035 0,-0.252 -0.121,-0.384 -0.379,-0.384 C 4.281,-5.98 2.329,-5.982 0.378,-5.979 0.113,-5.978 0.002,-5.839 0.001,-5.529 -0.002,-4.79 0,-4.05 0,-3.311 0,-2.208 0,-1.104 0,0"
         style="fill:#ffffff;fill-opacity:1;fill-rule:nonzero;stroke:none"
         id="path2976"
         inkscape:connector-curvature="0" />
    </g>
  </g>
</svg>
