<svg height="149.49937" width="286.46594" xmlns="http://www.w3.org/2000/svg"><g fill="#00aad4" transform="translate(-255.73998 -471.32449)"><path d="m351.04314 471.32449-95.30316 60.37634h190.34122z"/><path d="m328.15404 618.85772h-20.65565v-33.43564h-30.81778v33.43564h-20.65564v-80.43552h20.65564v28.84059h30.81778v-28.84059h20.65565z"/><path d="m374.57401 620.82387c-26.15645 0-44.41516-17.34191-44.41516-42.18391s18.25871-42.18391 44.41516-42.18391c14.11653 0 25.11815 3.47943 32.69557 10.34991l1.14876 1.04936-14.53627 15.45307-1.17086-1.19295c-4.69446-4.79387-10.11795-6.84839-18.1372-6.84839-13.80725 0-23.08572 9.38893-23.08572 23.37291 0 13.97294 9.27847 23.37291 23.08572 23.37291 7.04722 0 12.12829-1.85569 14.90078-3.21433v-10.09586h-14.23803v-18.81099h34.21989v42.90188l-.83948.43079c-9.93018 5.03688-21.38467 7.59951-34.04316 7.59951"/><path d="m508.15172 618.85748h-16.14896l-25.54894-62.27622h-14.0613v62.27622h-20.65564v-62.27622h-22.65494v-18.1593h73.31097l18.65636 48.18178 18.97668-48.18178h22.17997z"/></g></svg>