<?xml version="1.0" encoding="UTF-8" standalone="no"?>
<!-- Created with Inkscape (http://www.inkscape.org/) -->

<svg
   xmlns:dc="http://purl.org/dc/elements/1.1/"
   xmlns:cc="http://creativecommons.org/ns#"
   xmlns:rdf="http://www.w3.org/1999/02/22-rdf-syntax-ns#"
   xmlns:svg="http://www.w3.org/2000/svg"
   xmlns="http://www.w3.org/2000/svg"
   xmlns:sodipodi="http://sodipodi.sourceforge.net/DTD/sodipodi-0.dtd"
   xmlns:inkscape="http://www.inkscape.org/namespaces/inkscape"
   width="286.46594"
   height="149.49937"
   id="svg442563"
   version="1.1"
   inkscape:version="0.91 r13725"
   sodipodi:docname="HGTV.svg">
  <defs
     id="defs442565">
    <clipPath
       clipPathUnits="userSpaceOnUse"
       id="clipPath135632">
      <path
         inkscape:connector-curvature="0"
         d="m 794.856,444.411 25.929,0 0,13.531 -25.929,0 0,-13.531 z"
         id="path135634" />
    </clipPath>
  </defs>
  <sodipodi:namedview
     id="base"
     pagecolor="#ffffff"
     bordercolor="#666666"
     borderopacity="1.0"
     inkscape:pageopacity="0.0"
     inkscape:pageshadow="2"
     inkscape:zoom="2.8284271"
     inkscape:cx="217.52841"
     inkscape:cy="24.100045"
     inkscape:document-units="px"
     inkscape:current-layer="layer1"
     showgrid="false"
     fit-margin-top="0"
     fit-margin-left="0"
     fit-margin-bottom="0"
     fit-margin-right="0"
     inkscape:window-width="1920"
     inkscape:window-height="1017"
     inkscape:window-x="-8"
     inkscape:window-y="-8"
     inkscape:window-maximized="1" />
  <metadata
     id="metadata442568">
    <rdf:RDF>
      <cc:Work
         rdf:about="">
        <dc:format>image/svg+xml</dc:format>
        <dc:type
           rdf:resource="http://purl.org/dc/dcmitype/StillImage" />
        <dc:title></dc:title>
      </cc:Work>
    </rdf:RDF>
  </metadata>
  <g
     inkscape:label="Layer 1"
     inkscape:groupmode="layer"
     id="layer1"
     transform="translate(-255.73998,-471.32449)">
    <path
       id="path135642"
       style="fill:#00aad4;fill-opacity:1;fill-rule:nonzero;stroke:none"
       d="m 351.04314,471.32449 -95.30316,60.37634 190.34122,0 -95.03806,-60.37634 z"
       inkscape:connector-curvature="0" />
    <path
       id="path135646"
       style="fill:#00aad4;fill-opacity:1;fill-rule:nonzero;stroke:none"
       d="m 328.15404,618.85772 -20.65565,0 0,-33.43564 -30.81778,0 0,33.43564 -20.65564,0 0,-80.43552 20.65564,0 0,28.84059 30.81778,0 0,-28.84059 20.65565,0 0,80.43552 z"
       inkscape:connector-curvature="0" />
    <path
       id="path135650"
       style="fill:#00aad4;fill-opacity:1;fill-rule:nonzero;stroke:none"
       d="m 374.57401,620.82387 c -26.15645,0 -44.41516,-17.34191 -44.41516,-42.18391 0,-24.842 18.25871,-42.18391 44.41516,-42.18391 14.11653,0 25.11815,3.47943 32.69557,10.34991 l 1.14876,1.04936 -14.53627,15.45307 -1.17086,-1.19295 c -4.69446,-4.79387 -10.11795,-6.84839 -18.1372,-6.84839 -13.80725,0 -23.08572,9.38893 -23.08572,23.37291 0,13.97294 9.27847,23.37291 23.08572,23.37291 7.04722,0 12.12829,-1.85569 14.90078,-3.21433 l 0,-10.09586 -14.23803,0 0,-18.81099 34.21989,0 0,42.90188 -0.83948,0.43079 c -9.93018,5.03688 -21.38467,7.59951 -34.04316,7.59951"
       inkscape:connector-curvature="0" />
    <path
       id="path135654"
       style="fill:#00aad4;fill-opacity:1;fill-rule:nonzero;stroke:none"
       d="m 508.15172,618.85748 -16.14896,0 -25.54894,-62.27622 -14.0613,0 0,62.27622 -20.65564,0 0,-62.27622 -22.65494,0 0,-18.1593 73.31097,0 18.65636,48.18178 18.97668,-48.18178 22.17997,0 -34.0542,80.43552 z"
       inkscape:connector-curvature="0" />
  </g>
</svg>
