<?xml version="1.0" encoding="UTF-8"?>
<svg id="svg33" width="600pt" height="572.36pt" version="1.1" viewBox="0 0 600 572.36" xmlns="http://www.w3.org/2000/svg" xmlns:cc="http://creativecommons.org/ns#" xmlns:dc="http://purl.org/dc/elements/1.1/" xmlns:rdf="http://www.w3.org/1999/02/22-rdf-syntax-ns#">
 <metadata id="metadata39">
  <rdf:RDF>
   <cc:Work rdf:about="">
    <dc:format>image/svg+xml</dc:format>
    <dc:type rdf:resource="http://purl.org/dc/dcmitype/StillImage"/>
    <dc:title/>
   </cc:Work>
  </rdf:RDF>
 </metadata>
 <g id="g72519" transform="matrix(21.486 0 0 -21.486 -5822.6 4998.5)">
  <g id="g70394" transform="translate(297.48 219.32)">
   <path id="path70396" d="m0 0c0-7.352-5.929-13.313-13.241-13.313-7.314 0-13.242 5.961-13.242 13.313 0 1.823 0.364 3.561 1.024 5.143l11.814 8.164c0.134 4e-3 0.269 6e-3 0.404 6e-3 7.312 0 13.241-5.96 13.241-13.313" fill="#342b76"/>
  </g>
  <g id="g70398" transform="translate(296.46 219.32)">
   <path id="path70400" d="m0 0c0-6.786-5.472-12.287-12.221-12.287-6.75 0-12.221 5.501-12.221 12.287 0 1.81 0.454 3.618 1.152 5.165l10.125 7.113c0.229 0.013 0.711 9e-3 0.944 9e-3 6.749 0 12.221-5.501 12.221-12.287z" fill="none" stroke="#fff" stroke-miterlimit="10" stroke-width="1.024"/>
  </g>
  <g id="g70444" transform="translate(283.78 232.54)">
   <path id="path70446" d="m0 0s-3.501-2.271-11.647-8.067c0 0 9.444-2.882 11.647 8.067" fill="#fff"/>
  </g>
  <g id="g70448" transform="translate(283.78 232.54)">
   <path id="path70450" d="m0 0s-3.501-2.271-11.647-8.067c0 0 9.444-2.882 11.647 8.067z" fill="none" stroke="#fff" stroke-miterlimit="10" stroke-width=".096"/>
  </g>
  <g id="g70452" transform="translate(275.77 214.35)">
   <path id="path70454" d="m0 0c-0.191-0.052-0.347-0.03-0.468 0.065s-0.174 0.239-0.159 0.43l0.079 1.021 0.68 0.185-0.079-1.02 1.36 0.369 0.317 4.083 0.68 0.184-0.317-4.082c-0.015-0.191-0.095-0.371-0.239-0.539-0.142-0.167-0.306-0.275-0.494-0.326z" fill="#fff"/>
  </g>
  <g id="g70456" transform="translate(280.58 216.33)">
   <path id="path70458" d="m0 0 0.264 3.402-1.36-0.37-0.264-3.402zm-1.413-1.05c-0.191-0.053-0.347-0.031-0.468 0.065-0.12 0.095-0.174 0.239-0.159 0.43l0.264 3.403c0.015 0.187 0.093 0.364 0.234 0.531 0.142 0.17 0.308 0.281 0.499 0.334l1.36 0.369c0.187 0.051 0.342 0.027 0.462-0.071 0.125-0.095 0.179-0.237 0.165-0.424l-0.264-3.402c-0.015-0.192-0.095-0.372-0.24-0.539-0.141-0.167-0.305-0.276-0.493-0.327z" fill="#fff"/>
  </g>
  <g id="g70460" transform="translate(281.89 216.02)">
   <path id="path70462" d="M 0,0 0.37,4.763 1.049,4.947 2.485,2.008 2.75,5.409 3.429,5.595 3.06,0.832 2.379,0.646 0.944,3.587 0.68,0.185 Z" fill="#fff"/>
  </g>
  <g id="g70464" transform="translate(285.63 217.04)">
   <path id="path70466" d="m0 0 0.37 4.763 2.719 0.739-0.052-0.68-2.04-0.554-0.106-1.362 1.36 0.37-0.053-0.68-1.36-0.369-0.105-1.362 2.039 0.555-0.052-0.681z" fill="#fff"/>
  </g>
  <g id="g70468" transform="translate(289.71 218.14)">
   <path id="path70470" d="m0 0c-0.191-0.052-0.347-0.03-0.468 0.065-0.121 0.096-0.174 0.24-0.159 0.43l0.053 0.681 0.679 0.185-0.052-0.68 1.36 0.369 0.106 1.361-1.36-0.37c-0.192-0.052-0.348-0.03-0.469 0.065-0.121 0.096-0.173 0.24-0.159 0.431l0.106 1.36c0.015 0.188 0.092 0.366 0.234 0.533 0.141 0.17 0.308 0.281 0.499 0.333l1.359 0.37c0.188 0.051 0.342 0.026 0.463-0.072 0.124-0.095 0.179-0.236 0.165-0.424l-0.053-0.68-0.68-0.186 0.053 0.681-1.36-0.37-0.106-1.36 1.36 0.37c0.188 0.051 0.342 0.026 0.463-0.072 0.124-0.095 0.179-0.236 0.164-0.424l-0.105-1.361c-0.015-0.191-0.095-0.371-0.24-0.539-0.141-0.167-0.306-0.275-0.493-0.326z" fill="#fff"/>
  </g>
  <g id="g70472" transform="translate(292.53 220.25)">
   <path id="path70474" d="m0 0 0.264 3.401 0.68 0.186-0.264-3.402zm-0.105-1.361 0.052 0.68 0.68 0.185-0.053-0.68z" fill="#fff"/>
  </g>
  <g id="g70476" transform="translate(275.03 220.48)">
   <path id="path70478" d="m0 0v-0.34l4e-3 -0.013 18.588 5.159v0.355z" fill="#fff"/>
  </g>
  <g id="g70480" transform="translate(287.12 216.19)">
   <path id="path70482" d="m0 0-12.037-3.34v-0.338l5e-3 -0.015 12.032 3.339z" fill="#fff"/>
  </g>
  <g id="g70484" transform="translate(292.11 217.57)">
   <path id="path70486" d="m0 0v-0.354l1.569 0.435v0.356z" fill="#fff"/>
  </g>
  <g id="g70488" transform="translate(287.12 216.19)">
   <path id="path70490" d="m0 0-12.037-3.34v-0.338l5e-3 -0.015 12.032 3.339z" fill="#fff"/>
  </g>
  <g id="g70492" transform="translate(292.11 217.57)">
   <path id="path70494" d="m0 0v-0.354l1.569 0.435v0.356z" fill="#fff"/>
  </g>
  <g id="g70504" transform="translate(296.18 210.95)">
   <path id="path70506" d="m0 0h-1e-3c-0.885-0.234-1.481-0.034-1.826 0.175l-0.128 0.077-0.09-0.118c-0.415-0.543-0.985-0.933-1.603-1.099-0.481-0.128-0.923-0.142-1.312-0.045l-0.086 0.022-0.066-0.06c-0.332-0.3-0.718-0.51-1.148-0.625-0.562-0.148-1.083-0.079-1.506 0.201-0.3 0.2-0.68 0.595-0.788 1.354-0.03 0.213-0.036 0.45-0.018 0.746l0.076 0.995-0.533-0.143 0.151 2.471 0.566 0.151 0.108 1.335 3.279 0.913-0.11-1.382 0.583 0.154 0.015 8e-3c0.199 0.099 0.412 0.18 0.631 0.238 0.766 0.203 1.296 7e-3 1.605-0.193 0.021-0.014 0.043-0.029 0.064-0.044l0.13-0.093 0.098 0.126c0.449 0.579 1.057 0.983 1.759 1.172 0.827 0.219 1.377-0.017 1.693-0.252 0.554-0.414 0.838-1.127 0.869-2.181 0.076-1.927-0.893-3.496-2.412-3.903m2.744 3.914c-0.034 1.161-0.362 1.958-1.002 2.437-0.375 0.279-1.022 0.558-1.978 0.306-0.723-0.194-1.356-0.596-1.839-1.17-0.371 0.225-0.974 0.425-1.816 0.202-0.236-0.063-0.465-0.148-0.679-0.254l-0.097-0.026 0.11 1.388-3.959-1.103-0.108-1.332-0.571-0.152-0.194-3.169 0.526 0.14-0.04-0.531c-0.02-0.32-0.014-0.58 0.02-0.815 0.125-0.881 0.577-1.347 0.934-1.583 0.333-0.222 0.715-0.334 1.126-0.334 0.209 0 0.427 0.029 0.648 0.088 0.454 0.122 0.864 0.338 1.22 0.642 0.422-0.089 0.89-0.067 1.392 0.066 0.646 0.173 1.241 0.562 1.692 1.104 0.411-0.212 1.057-0.377 1.955-0.139h1e-3c1.673 0.448 2.742 2.151 2.659 4.235" fill="#402c91"/>
  </g>
  <g id="g70508" transform="translate(298.3 214.84)">
   <path id="path70510" d="m0 0c-0.028 0.962-0.274 1.603-0.754 1.961-0.265 0.197-0.732 0.393-1.448 0.204-0.742-0.198-1.359-0.655-1.784-1.32l-0.102-0.16-0.131 0.137c-0.079 0.083-0.168 0.157-0.263 0.219-0.261 0.169-0.711 0.333-1.375 0.157-0.19-0.051-0.374-0.119-0.549-0.204l-0.026-0.01-1.045-0.28 0.108 1.366-2.692-0.75-0.108-1.338-0.563-0.149-0.114-1.87 0.539 0.143-0.106-1.39c-0.017-0.276-0.012-0.495 0.016-0.688 0.093-0.654 0.412-0.99 0.663-1.156 0.353-0.234 0.794-0.291 1.274-0.164 0.437 0.117 0.822 0.343 1.145 0.672l0.066 0.066 0.089-0.03c0.375-0.131 0.816-0.131 1.312 0 0.659 0.177 1.216 0.602 1.611 1.228l0.092 0.147 0.132-0.114c0.05-0.044 0.103-0.084 0.157-0.12 0.301-0.201 0.834-0.393 1.656-0.175 1.387 0.371 2.271 1.825 2.2 3.618" fill="#342b76"/>
  </g>
  <g id="g70512" transform="translate(296.14 212.82)">
   <path id="path70514" d="m0 0c-0.242-0.063-0.348-0.042-0.423 0.48-0.116 0.812 0.215 2.317 0.714 2.45 0.133 0.035 0.215 7e-3 0.281-0.277 0.053-0.137 0.098-0.685 0.083-0.886-9e-3 -0.962-0.339-1.683-0.655-1.767m-3.655-0.967c-0.242-0.064-0.349-0.043-0.423 0.48-0.116 0.811 0.214 2.317 0.714 2.449 0.133 0.035 0.215 7e-3 0.281-0.275-0.146-0.131-0.222-0.327-0.189-0.551 0.021-0.153 0.087-0.311 0.272-0.337-0.01-0.961-0.339-1.683-0.655-1.766m3.787 4.53c-0.915-0.243-1.436-0.919-1.711-1.648-0.215-0.154-0.425-0.269-0.602-0.315l-8e-3 -2e-3c-0.135 0.823-0.577 1.198-1.335 0.998-1.798-0.477-2.078-2.636-1.947-3.56 2e-3 -0.011 4e-3 -0.021 6e-3 -0.032-0.116-0.29-0.299-0.487-0.494-0.539-0.2-0.053-0.265-0.021-0.29 0.148-8e-3 0.065-0.012 0.148-1e-3 0.25l0.183 2.484 0.831 0.22 0.031 0.509-0.832-0.221 0.109 1.364-1.365-0.381-0.109-1.344-0.554-0.147-0.03-0.509 0.553 0.147-0.175-2.29c-0.013-0.212-0.013-0.394 0.01-0.555 0.102-0.716 0.574-0.933 1.123-0.787 0.343 0.09 0.859 0.328 1.244 1.026 0.291-0.404 0.793-0.471 1.369-0.318 1.073 0.284 1.779 1.462 1.718 2.973 0.13 0.058 0.255 0.123 0.375 0.194-0.088-0.474-0.09-0.917-0.046-1.224 0.139-0.973 0.8-1.19 1.608-0.976 1.074 0.285 1.779 1.463 1.719 2.973-0.042 1.45-0.623 1.762-1.38 1.562" fill="#fff"/>
  </g>
  <g id="g70516" transform="translate(294.46 211.42)">
   <path id="path70518" d="m0 0c-0.053 0.035-0.105 0.075-0.154 0.118l-0.155 0.134-0.109-0.173c-0.391-0.621-0.943-1.041-1.595-1.216-0.491-0.13-0.926-0.131-1.296-2e-3l-0.105 0.037-0.078-0.079c-0.32-0.325-0.701-0.548-1.133-0.664-0.473-0.125-0.906-0.069-1.252 0.16-0.247 0.164-0.56 0.494-0.652 1.137-0.028 0.192-0.033 0.409-0.015 0.683l0.109 1.427-0.541-0.143 0.112 1.813 0.562 0.15 0.108 1.339 2.638 0.734-0.109-1.365 1.084 0.29 0.029 0.011c0.172 0.084 0.355 0.152 0.543 0.202 0.655 0.174 1.098 0.012 1.354-0.154 0.093-0.06 0.18-0.132 0.259-0.214l0.154-0.163 0.12 0.189c0.422 0.66 1.033 1.112 1.768 1.31 0.707 0.186 1.165-6e-3 1.426-0.201 0.472-0.353 0.716-0.987 0.743-1.94 0.071-1.779-0.805-3.224-2.18-3.592-0.812-0.215-1.338-0.025-1.635 0.172m4.167 3.433c-0.032 1.064-0.321 1.787-0.885 2.209-0.323 0.24-0.884 0.48-1.726 0.258-0.753-0.202-1.394-0.646-1.856-1.287-0.053 0.044-0.108 0.084-0.164 0.12-0.315 0.205-0.855 0.406-1.635 0.2-0.205-0.055-0.404-0.129-0.589-0.218l-0.587-0.157 0.108 1.37-3.357-0.935-0.108-1.335-0.568-0.151-0.154-2.515-2e-3 -0.037 0.533 0.142-0.072-0.938c-0.018-0.301-0.013-0.54 0.018-0.756 0.11-0.773 0.499-1.177 0.805-1.381 0.285-0.188 0.61-0.284 0.967-0.284 0.184 0 0.376 0.027 0.57 0.077 0.459 0.123 0.868 0.353 1.216 0.682 0.411-0.119 0.881-0.11 1.397 0.026 0.666 0.179 1.266 0.608 1.693 1.207l0.036-0.023c0.357-0.236 0.98-0.467 1.918-0.218 1.538 0.411 2.519 1.996 2.442 3.944" fill="#fff"/>
  </g>
 </g>
</svg>
