<svg height="378.66504pt" viewBox="0 0 375.19193 378.66504" width="375.19193pt" xmlns="http://www.w3.org/2000/svg" xmlns:xlink="http://www.w3.org/1999/xlink"><radialGradient id="a" cx="16.516418" cy="181.04576" gradientTransform="matrix(.0002493 1.3856814 -1.9990136 .00035965 376.48474 -22.731018)" gradientUnits="userSpaceOnUse" r="83.895256"><stop offset="0" stop-color="#fff"/><stop offset=".99852401" stop-opacity=".137255"/><stop offset="1" stop-opacity=".137255"/></radialGradient><g fill="#fff" transform="matrix(.51588046 0 0 .51588046 -111.48606 -12.170807)"><path d="m324.26026 357.33 510.96976-141.91v9.78l-510.96976 141.81z"/><path d="m812.39 270.21 18.5-5-7.28 93.67-18.37 5.02z"/><path d="m740.56 289.84 36.4-9.82c7.38-2.02 15.69 4.24 15.39 11.99l-1.62 20.9-18.57 5.04 1.32-18.66-37.15 10.14-2.96 37.3 36.69-9.97c2.58-.61 5.3-1.33 7.96-.64 5.17.89 9.74 5.48 9.76 10.89l-2.98416 42.06336c-.18618 2.62435-1.1328 5.01018-2.21607 7.18988-3.63087 7.30587-10.20324 13.31462-18.16977 15.33676l-38.41 10.4c-7.59 2.53-16.56-3.75-15.77-11.94l1.32-20.64 18.91-5.29-1.3 18.68 37.2-10.3 2.53-37.12-37.04 10.13c-4.22 1.27-9.14 1.17-12.75-1.62-3.7-2.7-5.01-7.54-4.56-11.92l2.81-36.05c.47-12.64 10.94-23.77 23.21-26.09z"/><path d="m625.47 321.28 74.91-20.32-1.5 18.65-56.13 15.26-2.65 37.21 37.31-9.86-1.73 18.72-37.07 9.94-3.05 37.52 56.06-15.36-1.31 18.59-74.8 20.5z"/><path d="m587.84 331.7 18.93-5.51-10.22 130.79-18.57 5.37-39.31-80.44-7.38 92.7-18.79 5.51 10.05-130.83 18.98-5.18 39.47 80.05z"/><path d="m485.31 359.28c4.19-1.24 9.09-1.08 12.62 1.77 3.79 2.62 5.26 7.47 4.73 11.91l-7.25 93.95c-1.38 11.56-11.02 21.66-22.38 23.99l-34.1 9.29c-3.52.96-7.39 1.63-10.88.21-4.34-1.54-7.18-5.92-7.47-10.42-.17-2.67.14-5.34.41-7.98l6.44-82.91c.24-5.01.52-10.25 3.01-14.74 3.73-6.95 9.96-12.92 17.73-14.94zm-38.76 29.01-7.11 93.4 37.18-10.2 7.19-93.37z"/><path d="m803.47 382.61 18.98-5.22-1.77 18.95-18.41 5.02z"/><path d="m391.83 384.83 18.89-5.25-7.65 99.52c-.98 7.18-.02 14.88-3.47 21.53-3.74 7.03-10.04 13.08-17.89 15.15l-31.82 8.66c-4.2 1.11-8.47 2.72-12.89 2.06-5.82-.86-10.26-6.6-9.76-12.45l2.19-29.86 18.79-5.14-2.08 27.92 37.08-9.89z"/><path d="m835.23977 427.15v9.31l-510.84976 142.3v-9.99z"/></g><path d="m187.59522 0c-1.77132.03815928-3.542.10164222-5.31153.1904297-.0266.29539623-.0448.44696579-.0806.69140623-14.35396 91.11834107-80.2033 136.76880407-167.362757 115.67871407-.103035-.0213-.236003-.06105-.347168-.08789-9.5525474 23.08188-14.4784725 47.84543-14.493165 72.85987.00006 104.56531 83.98921 189.33229 187.59522 189.33252 103.60659.0006 187.59664-84.76661 187.59672-189.33252-.00008-104.565915-83.99013-189.33313199-187.59672-189.33253z" fill="#23b375"/><path d="m187.59669 7.258301c-2.19126.069821-4.38107.1792139-6.56837.3281247-.95823 5.0385373-2.07681 9.9316313-3.35596 14.6704103 3.3039-.215289 6.61347-.332528 9.92433-.351562 92.46747.000091 167.42714 74.959779 167.42722 167.427256-.00008 92.46747-74.95975 167.42716-167.42722 167.42725-92.46749-.00008-167.427179-74.95977-167.427254-167.42725.05422-23.80806 5.185462-47.33077 15.05127-68.99854-4.86858-.61779-9.819735-1.4634-14.843265-2.52686-9.733306 22.59332-14.7871584 46.92477-14.8564434 71.5254-.00045 100.55781 81.5178774 182.07613 182.0756924 182.07568 100.55723-.00037 182.07464-81.51846 182.07419-182.07568-.00037-100.556663-81.51753-182.0738562-182.07419-182.074229z" fill="#fff"/><g fill="#fff" transform="matrix(.51588046 0 0 .51588046 -111.48606 -12.170845)"><path d="m324.26026 357.33 510.96976-141.91v9.78l-510.96976 141.81z"/><path d="m812.39 270.21 18.5-5-7.28 93.67-18.37 5.02z"/><path d="m740.56 289.84 36.4-9.82c7.38-2.02 15.69 4.24 15.39 11.99l-1.62 20.9-18.57 5.04 1.32-18.66-37.15 10.14-2.96 37.3 36.69-9.97c2.58-.61 5.3-1.33 7.96-.64 5.17.89 9.74 5.48 9.76 10.89l-2.98416 42.06336c-.18618 2.62435-1.1328 5.01018-2.21607 7.18988-3.63087 7.30587-10.20324 13.31462-18.16977 15.33676l-38.41 10.4c-7.59 2.53-16.56-3.75-15.77-11.94l1.32-20.64 18.91-5.29-1.3 18.68 37.2-10.3 2.53-37.12-37.04 10.13c-4.22 1.27-9.14 1.17-12.75-1.62-3.7-2.7-5.01-7.54-4.56-11.92l2.81-36.05c.47-12.64 10.94-23.77 23.21-26.09z"/><path d="m625.47 321.28 74.91-20.32-1.5 18.65-56.13 15.26-2.65 37.21 37.31-9.86-1.73 18.72-37.07 9.94-3.05 37.52 56.06-15.36-1.31 18.59-74.8 20.5z"/><path d="m587.84 331.7 18.93-5.51-10.22 130.79-18.57 5.37-39.31-80.44-7.38 92.7-18.79 5.51 10.05-130.83 18.98-5.18 39.47 80.05z"/><path d="m485.31 359.28c4.19-1.24 9.09-1.08 12.62 1.77 3.79 2.62 5.26 7.47 4.73 11.91l-7.25 93.95c-1.38 11.56-11.02 21.66-22.38 23.99l-34.1 9.29c-3.52.96-7.39 1.63-10.88.21-4.34-1.54-7.18-5.92-7.47-10.42-.17-2.67.14-5.34.41-7.98l6.44-82.91c.24-5.01.52-10.25 3.01-14.74 3.73-6.95 9.96-12.92 17.73-14.94zm-38.76 29.01-7.11 93.4 37.18-10.2 7.19-93.37z"/><path d="m803.47 382.61 18.98-5.22-1.77 18.95-18.41 5.02z"/><path d="m391.83 384.83 18.89-5.25-7.65 99.52c-.98 7.18-.02 14.88-3.47 21.53-3.74 7.03-10.04 13.08-17.89 15.15l-31.82 8.66c-4.2 1.11-8.47 2.72-12.89 2.06-5.82-.86-10.26-6.6-9.76-12.45l2.19-29.86 18.79-5.14-2.08 27.92 37.08-9.89z"/><path d="m835.23977 427.15v9.31l-510.84976 142.3v-9.99z"/></g><path d="m14.493168 116.47266c.11741.0247.27806.0768.39551.10107 92.582682 25.54033 162.005612-15.22096 167.351002-115.64354914.0153-.24088469.0173-.38072367.044-.73975117-55.56171 38.40829631-111.953462 77.56658931-167.790512 116.28223031z" fill="url(#a)"/><path d="m182.2837.19042969-167.790532 116.28223031c.11741.0247.27806.0768.39551.10107 87.159462 21.09009 152.971512-24.560371 167.325512-115.67871098.026-.17212305.0477-.40863131.0695-.70458933z" fill="#fff"/></svg>