<?xml version="1.0" encoding="UTF-8"?>
<svg id="svg33" width="596.5pt" height="600pt" version="1.1" viewBox="0 0 596.5 600" xmlns="http://www.w3.org/2000/svg" xmlns:cc="http://creativecommons.org/ns#" xmlns:dc="http://purl.org/dc/elements/1.1/" xmlns:rdf="http://www.w3.org/1999/02/22-rdf-syntax-ns#">
 <metadata id="metadata39">
  <rdf:RDF>
   <cc:Work rdf:about="">
    <dc:format>image/svg+xml</dc:format>
    <dc:type rdf:resource="http://purl.org/dc/dcmitype/StillImage"/>
    <dc:title/>
   </cc:Work>
  </rdf:RDF>
 </metadata>
 <g id="g72547" transform="matrix(22.249 0 0 -22.249 -4218.1 5179.8)">
  <g id="g70520" transform="translate(216.39 219.32)">
   <path id="path70522" d="m0 0c0-7.442-6.001-13.477-13.405-13.477-7.403 0-13.405 6.035-13.405 13.477 0 1.846 0.369 3.604 1.037 5.206l11.96 8.265c0.135 4e-3 0.271 6e-3 0.408 6e-3 7.404 0 13.405-6.034 13.405-13.477" fill="#3dba6b"/>
  </g>
  <g id="g70524" transform="translate(215.36 219.32)">
   <path id="path70526" d="m0 0c0-6.869-5.54-12.438-12.372-12.438-6.833 0-12.372 5.569-12.372 12.438 0 1.832 0.459 3.663 1.167 5.229l10.249 7.201c0.233 0.012 0.72 8e-3 0.956 8e-3 6.832 0 12.372-5.568 12.372-12.438z" fill="none" stroke="#fff" stroke-miterlimit="10" stroke-width="1.036"/>
  </g>
  <g id="g70578" transform="translate(202.52 232.7)">
   <path id="path70580" d="m0 0s-3.544-2.3-11.791-8.167c0 0 9.561-2.918 11.791 8.167" fill="#fff"/>
  </g>
  <g id="g70582" transform="translate(202.52 232.7)">
   <path id="path70584" d="m0 0s-3.544-2.3-11.791-8.167c0 0 9.561-2.918 11.791 8.167z" fill="none" stroke="#fff" stroke-miterlimit="10" stroke-width=".097"/>
  </g>
  <g id="g70586" transform="translate(194.41 214.29)">
   <path id="path70588" d="m0 0c-0.193-0.053-0.352-0.03-0.474 0.066-0.122 0.097-0.176 0.243-0.161 0.436l0.08 1.033 0.689 0.188-0.08-1.034 1.376 0.374 0.321 4.133 0.688 0.187-0.32-4.132c-0.015-0.194-0.097-0.376-0.243-0.546-0.143-0.169-0.309-0.279-0.499-0.33z" fill="#fff"/>
  </g>
  <g id="g70590" transform="translate(199.28 216.29)">
   <path id="path70592" d="m0 0 0.268 3.444-1.377-0.375-0.267-3.443zm-1.43-1.062c-0.194-0.053-0.352-0.032-0.474 0.065s-0.176 0.242-0.161 0.435l0.268 3.445c0.014 0.189 0.093 0.369 0.236 0.538 0.144 0.173 0.312 0.285 0.505 0.338l1.377 0.374c0.19 0.052 0.346 0.027 0.468-0.073 0.126-0.096 0.182-0.239 0.167-0.429l-0.268-3.444c-0.015-0.194-0.095-0.375-0.242-0.544-0.143-0.169-0.309-0.28-0.499-0.331z" fill="#fff"/>
  </g>
  <g id="g70594" transform="translate(200.61 215.98)">
   <path id="path70596" d="m0 0 0.375 4.821 0.687 0.188 1.454-2.976 0.267 3.444 0.689 0.187-0.375-4.821-0.688-0.188-1.453 2.976-0.268-3.444z" fill="#fff"/>
  </g>
  <g id="g70598" transform="translate(204.39 217.01)">
   <path id="path70600" d="m0 0 0.375 4.822 2.752 0.748-0.053-0.688-2.065-0.562-0.107-1.378 1.377 0.375-0.053-0.689-1.377-0.374-0.107-1.378 2.065 0.561-0.054-0.688z" fill="#fff"/>
  </g>
  <g id="g70602" transform="translate(208.52 218.13)">
   <path id="path70604" d="m0 0c-0.194-0.053-0.352-0.03-0.474 0.066-0.122 0.097-0.176 0.243-0.161 0.436l0.053 0.688 0.689 0.188-0.054-0.689 1.377 0.374 0.107 1.377-1.377-0.374c-0.193-0.052-0.351-0.03-0.473 0.067-0.123 0.096-0.176 0.242-0.162 0.435l0.107 1.377c0.015 0.191 0.094 0.37 0.237 0.539 0.143 0.172 0.312 0.286 0.505 0.337l1.377 0.375c0.19 0.052 0.346 0.028 0.468-0.073 0.126-0.096 0.181-0.238 0.167-0.429l-0.054-0.688-0.688-0.188 0.053 0.689-1.376-0.374-0.107-1.378 1.376 0.375c0.19 0.052 0.347 0.027 0.469-0.073 0.126-0.096 0.181-0.239 0.166-0.429l-0.107-1.377c-0.015-0.194-0.096-0.376-0.242-0.546-0.143-0.169-0.31-0.279-0.5-0.33z" fill="#fff"/>
  </g>
  <g id="g70606" transform="translate(211.38 220.26)">
   <path id="path70608" d="m0 0 0.268 3.443 0.688 0.188-0.268-3.444zm-0.107-1.378 0.054 0.689 0.688 0.187-0.053-0.688z" fill="#fff"/>
  </g>
  <g id="g70610" transform="translate(193.66 220.5)">
   <path id="path70612" d="m0 0v-0.344l4e-3 -0.013 18.819 5.222v0.359z" fill="#fff"/>
  </g>
  <g id="g70614" transform="translate(212.54 217.99)">
   <path id="path70616" d="m0 0-18.827-5.225v-0.341l4e-3 -0.016 18.823 5.224z" fill="#fff"/>
  </g>
  <g id="g70618" transform="translate(212.54 217.99)">
   <path id="path70620" d="m0 0-18.827-5.225v-0.341l4e-3 -0.016 18.823 5.224z" fill="#fff"/>
  </g>
 </g>
</svg>
