<?xml version="1.0" encoding="UTF-8"?>
<svg id="svg33" width="375.19pt" height="378.67pt" version="1.1" viewBox="0 0 375.19 378.67" xmlns="http://www.w3.org/2000/svg" xmlns:cc="http://creativecommons.org/ns#" xmlns:dc="http://purl.org/dc/elements/1.1/" xmlns:rdf="http://www.w3.org/1999/02/22-rdf-syntax-ns#" xmlns:xlink="http://www.w3.org/1999/xlink">
 <metadata id="metadata39">
  <rdf:RDF>
   <cc:Work rdf:about="">
    <dc:format>image/svg+xml</dc:format>
    <dc:type rdf:resource="http://purl.org/dc/dcmitype/StillImage"/>
    <dc:title/>
   </cc:Work>
  </rdf:RDF>
 </metadata>
 <defs id="defs37">
  <radialGradient id="radialGradient4511" cx="16.516" cy="181.05" r="83.895" gradientTransform="matrix(.0002493 1.3857 -1.999 .00035965 376.48 -22.731)" gradientUnits="userSpaceOnUse">
   <stop id="stop4505" stop-color="#fff" offset="0"/>
   <stop id="stop4515" stop-opacity=".13725" offset=".99852"/>
   <stop id="stop4507" stop-opacity=".13725" offset="1"/>
  </radialGradient>
 </defs>
 <g id="g4541">
  <g id="#ffffffff" transform="matrix(.51588 0 0 .51588 -111.49 -12.171)" fill="#fff">
   <path id="path7-3" d="m324.26 357.33 510.97-141.91v9.78l-510.97 141.81z"/>
   <path id="path9-2" d="m812.39 270.21 18.5-5-7.28 93.67-18.37 5.02z"/>
   <path id="path11-9" d="m740.56 289.84 36.4-9.82c7.38-2.02 15.69 4.24 15.39 11.99l-1.62 20.9-18.57 5.04 1.32-18.66-37.15 10.14-2.96 37.3 36.69-9.97c2.58-0.61 5.3-1.33 7.96-0.64 5.17 0.89 9.74 5.48 9.76 10.89l-2.9842 42.063c-0.18618 2.6244-1.1328 5.0102-2.2161 7.1899-3.6309 7.3059-10.203 13.315-18.17 15.337l-38.41 10.4c-7.59 2.53-16.56-3.75-15.77-11.94l1.32-20.64 18.91-5.29-1.3 18.68 37.2-10.3 2.53-37.12-37.04 10.13c-4.22 1.27-9.14 1.17-12.75-1.62-3.7-2.7-5.01-7.54-4.56-11.92l2.81-36.05c0.47-12.64 10.94-23.77 23.21-26.09z"/>
   <path id="path13-1" d="m625.47 321.28 74.91-20.32-1.5 18.65-56.13 15.26-2.65 37.21 37.31-9.86-1.73 18.72-37.07 9.94-3.05 37.52 56.06-15.36-1.31 18.59-74.8 20.5z"/>
   <path id="path15-4" d="m587.84 331.7 18.93-5.51-10.22 130.79-18.57 5.37-39.31-80.44-7.38 92.7-18.79 5.51 10.05-130.83 18.98-5.18 39.47 80.05z"/>
   <path id="path17-7" d="m485.31 359.28c4.19-1.24 9.09-1.08 12.62 1.77 3.79 2.62 5.26 7.47 4.73 11.91l-7.25 93.95c-1.38 11.56-11.02 21.66-22.38 23.99l-34.1 9.29c-3.52 0.96-7.39 1.63-10.88 0.21-4.34-1.54-7.18-5.92-7.47-10.42-0.17-2.67 0.14-5.34 0.41-7.98l6.44-82.91c0.24-5.01 0.52-10.25 3.01-14.74 3.73-6.95 9.96-12.92 17.73-14.94l37.14-10.13m-38.76 29.01-7.11 93.4 37.18-10.2 7.19-93.37z"/>
   <path id="path19-6" d="m803.47 382.61 18.98-5.22-1.77 18.95-18.41 5.02z"/>
   <path id="path21-1" d="m391.83 384.83 18.89-5.25-7.65 99.52c-0.98 7.18-0.02 14.88-3.47 21.53-3.74 7.03-10.04 13.08-17.89 15.15l-31.82 8.66c-4.2 1.11-8.47 2.72-12.89 2.06-5.82-0.86-10.26-6.6-9.76-12.45l2.19-29.86 18.79-5.14-2.08 27.92 37.08-9.89z"/>
   <path id="path23-0" d="m835.24 427.15v9.31l-510.85 142.3v-9.99z"/>
  </g>
  <path id="path4516-9-7" d="m187.6 0c-1.7713 0.038159-3.542 0.10164-5.3115 0.19043-0.0266 0.2954-0.0448 0.44697-0.0806 0.69141-14.354 91.118-80.203 136.77-167.36 115.68-0.10304-0.0213-0.236-0.06105-0.34717-0.08789-9.5525 23.082-14.478 47.845-14.493 72.86 6e-5 104.57 83.989 189.33 187.6 189.33 103.61 6e-4 187.6-84.767 187.6-189.33-8e-5 -104.57-83.99-189.33-187.6-189.33z" fill="#23b375"/>
  <path id="path4531-2-1" d="m187.6 7.2583c-2.1913 0.069821-4.3811 0.17921-6.5684 0.32812-0.95823 5.0385-2.0768 9.9316-3.356 14.67 3.3039-0.21529 6.6135-0.33253 9.9243-0.35156 92.467 9.1e-5 167.43 74.96 167.43 167.43-8e-5 92.467-74.96 167.43-167.43 167.43-92.467-8e-5 -167.43-74.96-167.43-167.43 0.05422-23.808 5.1855-47.331 15.051-68.999-4.8686-0.61779-9.8197-1.4634-14.843-2.5269-9.7333 22.593-14.787 46.925-14.856 71.525-4.5e-4 100.56 81.518 182.08 182.08 182.08 100.56-3.7e-4 182.07-81.518 182.07-182.08-3.7e-4 -100.56-81.518-182.07-182.07-182.07z" fill="#fff"/>
  <g id="#ffffffff-7-8" transform="matrix(.51588 0 0 .51588 -111.49 -12.171)" fill="#fff">
   <path id="path7-3-6-8" d="m324.26 357.33 510.97-141.91v9.78l-510.97 141.81z"/>
   <path id="path9-2-4-0" d="m812.39 270.21 18.5-5-7.28 93.67-18.37 5.02z"/>
   <path id="path11-9-7-0" d="m740.56 289.84 36.4-9.82c7.38-2.02 15.69 4.24 15.39 11.99l-1.62 20.9-18.57 5.04 1.32-18.66-37.15 10.14-2.96 37.3 36.69-9.97c2.58-0.61 5.3-1.33 7.96-0.64 5.17 0.89 9.74 5.48 9.76 10.89l-2.9842 42.063c-0.18618 2.6244-1.1328 5.0102-2.2161 7.1899-3.6309 7.3059-10.203 13.315-18.17 15.337l-38.41 10.4c-7.59 2.53-16.56-3.75-15.77-11.94l1.32-20.64 18.91-5.29-1.3 18.68 37.2-10.3 2.53-37.12-37.04 10.13c-4.22 1.27-9.14 1.17-12.75-1.62-3.7-2.7-5.01-7.54-4.56-11.92l2.81-36.05c0.47-12.64 10.94-23.77 23.21-26.09z"/>
   <path id="path13-1-2-1" d="m625.47 321.28 74.91-20.32-1.5 18.65-56.13 15.26-2.65 37.21 37.31-9.86-1.73 18.72-37.07 9.94-3.05 37.52 56.06-15.36-1.31 18.59-74.8 20.5z"/>
   <path id="path15-4-1-1" d="m587.84 331.7 18.93-5.51-10.22 130.79-18.57 5.37-39.31-80.44-7.38 92.7-18.79 5.51 10.05-130.83 18.98-5.18 39.47 80.05z"/>
   <path id="path17-7-3-6" d="m485.31 359.28c4.19-1.24 9.09-1.08 12.62 1.77 3.79 2.62 5.26 7.47 4.73 11.91l-7.25 93.95c-1.38 11.56-11.02 21.66-22.38 23.99l-34.1 9.29c-3.52 0.96-7.39 1.63-10.88 0.21-4.34-1.54-7.18-5.92-7.47-10.42-0.17-2.67 0.14-5.34 0.41-7.98l6.44-82.91c0.24-5.01 0.52-10.25 3.01-14.74 3.73-6.95 9.96-12.92 17.73-14.94l37.14-10.13m-38.76 29.01-7.11 93.4 37.18-10.2 7.19-93.37z"/>
   <path id="path19-6-9-4" d="m803.47 382.61 18.98-5.22-1.77 18.95-18.41 5.02z"/>
   <path id="path21-1-3-3" d="m391.83 384.83 18.89-5.25-7.65 99.52c-0.98 7.18-0.02 14.88-3.47 21.53-3.74 7.03-10.04 13.08-17.89 15.15l-31.82 8.66c-4.2 1.11-8.47 2.72-12.89 2.06-5.82-0.86-10.26-6.6-9.76-12.45l2.19-29.86 18.79-5.14-2.08 27.92 37.08-9.89z"/>
   <path id="path23-0-6-6" d="m835.24 427.15v9.31l-510.85 142.3v-9.99z"/>
  </g>
  <path id="path4516-2-1" d="m14.493 116.47c0.11741 0.0247 0.27806 0.0768 0.39551 0.10107 92.583 25.54 162.01-15.221 167.35-115.64 0.0153-0.24088 0.0173-0.38072 0.044-0.73975-55.562 38.408-111.95 77.567-167.79 116.28z" fill="url(#radialGradient4511)"/>
  <path id="path4516-2" d="m182.28 0.19043-167.79 116.28c0.11741 0.0247 0.27806 0.0768 0.39551 0.10107 87.159 21.09 152.97-24.56 167.33-115.68 0.026-0.17212 0.0477-0.40863 0.0695-0.70459z" fill="#fff"/>
 </g>
</svg>
