<?xml version="1.0" encoding="UTF-8" standalone="no"?>
<svg
   xmlns:dc="http://purl.org/dc/elements/1.1/"
   xmlns:cc="http://creativecommons.org/ns#"
   xmlns:rdf="http://www.w3.org/1999/02/22-rdf-syntax-ns#"
   xmlns:svg="http://www.w3.org/2000/svg"
   xmlns="http://www.w3.org/2000/svg"
   xmlns:sodipodi="http://sodipodi.sourceforge.net/DTD/sodipodi-0.dtd"
   xmlns:inkscape="http://www.inkscape.org/namespaces/inkscape"
   width="878.34998pt"
   height="259.08029pt"
   viewBox="0 0 878.34998 259.08029"
   version="1.1"
   id="svg2"
   inkscape:version="0.91 r13725"
   sodipodi:docname="Kordia.svg">
  <metadata
     id="metadata39">
    <rdf:RDF>
      <cc:Work
         rdf:about="">
        <dc:format>image/svg+xml</dc:format>
        <dc:type
           rdf:resource="http://purl.org/dc/dcmitype/StillImage" />
        <dc:title></dc:title>
      </cc:Work>
    </rdf:RDF>
  </metadata>
  <defs
     id="defs37" />
  <sodipodi:namedview
     pagecolor="#ffffff"
     bordercolor="#666666"
     borderopacity="1"
     objecttolerance="10"
     gridtolerance="10"
     guidetolerance="10"
     inkscape:pageopacity="0"
     inkscape:pageshadow="2"
     inkscape:window-width="686"
     inkscape:window-height="480"
     id="namedview35"
     showgrid="false"
     fit-margin-top="0"
     fit-margin-left="0"
     fit-margin-right="0"
     fit-margin-bottom="0"
     inkscape:zoom="0.192"
     inkscape:cx="538.1375"
     inkscape:cy="113.17079"
     inkscape:window-x="0"
     inkscape:window-y="0"
     inkscape:window-maximized="0"
     inkscape:current-layer="svg2" />
  <g
     id="#ffffffff"
     transform="translate(-169.49,-170.45635)" />
  <g
     id="#636363ff"
     transform="translate(-169.49,-170.45635)">
    <path
       d="m 175.24,177.24 c 3.29,-4.11 8.5,-6.46 13.74,-6.49 9.58,-0.03 19.17,0.04 28.75,-0.03 0.05,46.97 0.04,93.94 0,140.91 20.47,-22.95 40.81,-46 61.33,-68.9 19.8,0.06 39.6,-0.01 59.39,0.03 -26.64,30.11 -53.28,60.23 -79.87,90.38 27.34,30.81 54.88,61.45 82.13,92.33 -21.15,-0.04 -42.32,0.22 -63.46,-0.13 -19.63,-22.67 -39.63,-45.03 -59.47,-67.52 -0.07,22.57 0.02,45.13 -0.04,67.7 -9.56,-0.11 -19.12,0.12 -28.67,-0.11 -5.81,-0.1 -11.53,-2.99 -14.78,-7.85 -4.06,-6 -4.69,-13.48 -4.8,-20.52 0.01,-66.05 0,-132.1 0.01,-198.14 0.11,-7.5 0.91,-15.58 5.74,-21.66 z"
       id="path6"
       inkscape:connector-curvature="0"
       style="opacity:1;fill:#636363" />
    <path
       d="m 751.74,170.75 c 10.07,0.08 20.15,-0.14 30.22,0.09 7.78,0.37 14.29,6.55 16.26,13.9 1.86,5.87 1.86,12.09 1.78,18.19 0,60.68 0,121.35 0,182.02 -0.28,9.95 1.23,20.5 -3.13,29.83 -2.75,6.22 -9.17,10.44 -15.96,10.62 -9.14,0.25 -18.28,0.04 -27.42,0.08 0,-3.92 0.01,-7.83 -0.01,-11.74 -13.76,10.51 -31.04,17 -48.51,15.61 -31.18,-1.69 -60.33,-21.53 -73.94,-49.53 -8.9,-18.04 -11.46,-38.75 -9.27,-58.61 2.28,-20.67 11.02,-40.85 25.65,-55.78 12.2,-12.52 28.25,-21.15 45.37,-24.62 19.66,-4.27 40.57,-1.96 58.99,6.05 -0.05,-25.37 0,-50.74 -0.03,-76.11 m -73.11,132.82 c -8.7,12.89 -10.85,29.47 -7.6,44.51 2.2,10.33 7.61,20.2 16.05,26.74 9.99,7.95 23.46,10.78 35.97,8.94 11.55,-2.07 21.98,-9.27 28.6,-18.87 0.26,-22.92 -0.01,-45.87 0.13,-68.8 -10.92,-9.83 -26.37,-13.85 -40.81,-12.18 -12.98,1.41 -25.09,8.81 -32.34,19.66 z"
       id="path8"
       inkscape:connector-curvature="0"
       style="opacity:1;fill:#636363" />
    <path
       d="m 840.29,171.44 c 12.51,-3.81 27,3.83 30.88,16.32 4.52,12.29 -2.44,27.17 -14.7,31.69 -8.01,3.25 -17.65,1.96 -24.53,-3.28 -8.16,-5.91 -12.02,-17.05 -9.31,-26.76 2.13,-8.58 9.15,-15.64 17.66,-17.97 z"
       id="path10"
       inkscape:connector-curvature="0"
       style="opacity:1;fill:#636363" />
    <path
       d="m 893.19,255.5 c 17.6,-11.6 38.98,-16.12 59.8,-16.75 17.19,-0.63 35.1,2.85 49.36,12.92 11.57,8 19.83,20.34 23.42,33.89 2.07,7.63 2.82,15.57 2.74,23.46 -0.04,21.68 0.02,43.36 -0.03,65.03 -0.13,5.31 1.36,10.71 4.54,15 3.44,4.98 9.03,7.84 14.82,9.15 -2.92,10.21 -8.23,20.28 -17.06,26.54 -7.47,5.31 -17.68,6.1 -26.04,2.51 -6.46,-2.92 -11.09,-8.71 -14.24,-14.9 -9.11,10.51 -22.87,15.9 -36.53,16.84 -16.72,1.6 -34.54,-2.48 -47.4,-13.7 -22.44,-18.87 -26.8,-55.1 -10.17,-79.06 10.98,-15.3 29.25,-24.04 47.61,-26.42 12.41,-1.36 24.87,-2.22 37.29,-3.57 0,-5.85 -0.17,-12.59 -4.83,-16.82 -6.07,-5.39 -14.71,-5.92 -22.43,-6.05 -9.6,0.24 -19.08,2.22 -28.18,5.18 -5.61,1.93 -11.99,2.27 -17.51,-0.12 -4.92,-2.08 -9.02,-6.4 -10.12,-11.72 -1.58,-7.16 -3.61,-14.22 -5.04,-21.41 m 62.77,95.58 c -5.54,0.49 -11.15,1.88 -15.75,5.11 -4.25,2.89 -7.17,7.64 -7.81,12.74 -0.86,5.71 2.21,11.62 7.05,14.64 4.59,2.94 10.38,3.5 15.65,2.41 9.75,-1.7 18.12,-8.61 22.68,-17.26 3.34,-6.04 3.72,-13.11 3.46,-19.85 -8.44,0.7 -16.86,1.46 -25.28,2.21 z"
       id="path12"
       inkscape:connector-curvature="0"
       style="opacity:1;fill:#636363" />
    <path
       d="m 564.74,259.35 c 8.7,-9.42 20.38,-16.26 33.15,-18.15 12.84,-2.11 26.07,0.69 37.54,6.63 -6.89,15.02 -14,29.94 -20.94,44.94 -11.93,-3.53 -25.83,-1.97 -35.71,5.94 -10.2,8.11 -13.68,21.75 -14.02,34.24 -0.04,30.85 0.02,61.71 -0.03,92.56 -9.25,-0.05 -18.5,0.04 -27.75,-0.04 -5.59,-0.02 -11.34,-2.15 -14.86,-6.63 -4.14,-5.31 -5.47,-12.24 -5.62,-18.82 0,-44.01 -0.01,-88.02 0.01,-132.03 0.22,-7 1.64,-14.56 6.65,-19.8 3.51,-3.77 8.77,-5.47 13.84,-5.44 9.24,-0.03 18.49,0.04 27.73,-0.02 0.03,5.54 0.02,11.08 0.01,16.62 z"
       id="path14"
       inkscape:connector-curvature="0"
       style="opacity:1;fill:#636363" />
    <path
       d="m 829.27,248.33 c 3.45,-3.84 8.69,-5.6 13.76,-5.58 9.4,-0.02 18.8,0.03 28.21,-0.02 0.03,60.92 0,121.84 0.01,182.76 -9.39,-0.01 -18.78,0.06 -28.17,-0.02 -5.33,-0.08 -10.83,-2 -14.34,-6.16 -4.51,-5.32 -5.83,-12.55 -5.99,-19.33 0.01,-44 -0.01,-88 0,-132 0.18,-6.95 1.63,-14.4 6.52,-19.65 z"
       id="path16"
       inkscape:connector-curvature="0"
       style="opacity:1;fill:#636363" />
  </g>
  <g
     id="#028e8fff"
     transform="translate(-169.49,-170.45635)">
    <path
       d="m 341.24,268.4 c 16.51,-17.34 39.84,-28.09 63.8,-28.99 26.97,-1.55 54.37,9.31 72.9,28.97 -24.31,-3.64 -50.38,3.52 -68.39,20.53 -17.87,-17.14 -44.06,-24.14 -68.31,-20.51 z"
       id="path19"
       inkscape:connector-curvature="0"
       style="opacity:1;fill:#028e8f" />
    <path
       d="m 334.9,276.06 c 9.31,-3.28 19.49,-2.95 29.18,-1.94 15.31,2.04 30.39,8.19 41.59,19.03 -14,14.61 -29.97,27.36 -47.42,37.62 -12.93,-7.3 -26.87,-13.38 -41.68,-15.46 3.17,-14.16 8.9,-28.12 18.33,-39.25 z"
       id="path21"
       inkscape:connector-curvature="0"
       style="opacity:1;fill:#028e8f" />
    <path
       d="m 419.23,288.3 c 11.75,-8.87 26.28,-13.58 40.86,-14.7 7.72,-0.31 15.61,-0.31 23.06,1.98 2.1,0.4 2.96,2.59 4.17,4.11 7.5,10.64 12.65,22.86 15.29,35.59 -14.78,2.17 -28.69,8.19 -41.63,15.49 -17.36,-10.12 -33.02,-22.93 -47.15,-37.17 1.21,-2.29 3.41,-3.75 5.4,-5.3 z"
       id="path23"
       inkscape:connector-curvature="0"
       style="opacity:1;fill:#028e8f" />
    <path
       d="m 315.68,321.15 c 12.96,1.46 25.18,6.78 36.57,12.9 -11.34,6.27 -23.61,11.18 -36.48,13.12 -1.34,-8.63 -1.27,-17.38 -0.09,-26.02 z"
       id="path25"
       inkscape:connector-curvature="0"
       style="opacity:1;fill:#028e8f" />
    <path
       d="m 466.97,334.06 c 11.4,-6.12 23.62,-11.43 36.59,-12.92 1.15,8.61 1.2,17.35 -0.07,25.95 -12.92,-1.74 -25.15,-6.85 -36.52,-13.03 z"
       id="path27"
       inkscape:connector-curvature="0"
       style="opacity:1;fill:#028e8f" />
    <path
       d="m 316.6,352.79 c 14.8,-2 28.67,-8.18 41.6,-15.4 17.55,10.16 33.46,23.04 47.5,37.65 -12.25,11.65 -28.84,17.97 -45.53,19.39 -8.53,0.73 -17.22,0.23 -25.45,-2.23 -9,-11.49 -15.15,-25.12 -18.12,-39.41 z"
       id="path29"
       inkscape:connector-curvature="0"
       style="opacity:1;fill:#028e8f" />
    <path
       d="m 413.59,375.03 c 13.98,-14.63 29.92,-27.4 47.37,-37.66 12.97,7.17 26.82,13.44 41.64,15.41 -2.83,14.29 -9.12,27.84 -18.01,39.37 -13.94,4.17 -29.02,3.01 -42.85,-1.04 -10.43,-3.17 -20.26,-8.51 -28.15,-16.08 z"
       id="path31"
       inkscape:connector-curvature="0"
       style="opacity:1;fill:#028e8f" />
    <path
       d="m 341.18,399.82 c 24.36,3.49 50.55,-3.49 68.5,-20.69 17.82,17.31 44.09,24.14 68.38,20.67 -10.39,10.59 -23.11,18.97 -37.17,23.8 -23.2,8.07 -49.62,6.83 -71.8,-3.82 -10.45,-4.85 -19.81,-11.81 -27.91,-19.96 z"
       id="path33"
       inkscape:connector-curvature="0"
       style="opacity:1;fill:#028e8f" />
  </g>
</svg>
