<svg id="a" data-name="Layer 1" version="1.1" viewBox="0 0 616.52 181.59" xmlns="http://www.w3.org/2000/svg">
 <path id="b" class="cls-1" d="m233.91 102.39a4.7 4.7 0 0 0-0.51-0.14c-5.25-0.9-14.78 5.05-24.74 12.3h0.06c8.38 6.82 19.48 15.85 24.5 15.18a66.24 66.24 0 0 0 0.69-27.38" fill="#00a0af"/>
 <path id="c" class="cls-2" d="m205.62 118.4-1-0.85c-4.6 3.33-9.7 7.35-15.1 11.62s-10.94 8.65-16.79 12.95c24.15 16.88 38 17.07 43 16.29a13.61 13.61 0 0 0 3.65-1.09 66.48 66.48 0 0 0 12.54-22.67c-7.14-0.7-16.81-8.56-26.26-16.25" fill="#00b0be"/>
 <path id="d" class="cls-1" d="m168.52 83.69c19.87-13.12 34.15-19.06 45-18.3a66.56 66.56 0 0 0-90 0c10.71-0.82 25 5.12 45 18.3" fill="#00a0af"/>
 <path id="e" class="cls-2" d="m172.76 86.73c11.32 8.45 20.16 15.14 31.95 24.62 12.41-9.11 21.29-14.37 28.06-14.08a66.37 66.37 0 0 0-13-25.27c-7.61-3.93-20.24-2.66-47 14.73" fill="#00b0be"/>
 <path id="f" class="cls-2" d="m132.32 111.3c11.8-9.49 20.64-16.18 31.89-24.58-27-17.56-39.59-18.7-47.18-14.62a66.42 66.42 0 0 0-12.94 25.18c6.79-0.43 15.7 4.82 28.24 14" fill="#00b0be"/>
 <path id="g" class="cls-1" d="m212.32 163.57c-11.54 0-27.13-6.53-43.77-18.38-16.64 11.86-32.23 18.38-43.77 18.38h-1.33a66.57 66.57 0 0 0 90 0h-1.08" fill="#00a0af"/>
 <path id="h" class="cls-2" d="m164.36 142.12c-5.85-4.35-11.39-8.72-16.75-13s-10.56-8.34-15.15-11.66l-1.1 0.9c-9.5 7.73-19.22 15.63-26.37 16.26a66.44 66.44 0 0 0 12.41 22.52 13.42 13.42 0 0 0 4 1.23c4.94 0.78 18.8 0.6 43-16.29" fill="#00b0be"/>
 <path id="i" class="cls-1" d="m128.25 114.6 0.12-0.1c-10-7.23-19.4-13.14-24.68-12.25a4.89 4.89 0 0 0-0.76 0.21 66.22 66.22 0 0 0 0.69 27.27c5 0.85 16.17-8.26 24.62-15.14" fill="#00a0af"/>
 <path id="j" class="cls-3" d="m326.9 54.25-4.38-1.93-2.48-1c-3.37-1.34-9.53-2.18-13.31-2.18a39.47 39.47 0 0 0-29.45 13.48v-11.9h-19.52a12.93 12.93 0 0 0-9.44 3.78c-3.29 3.38-4.87 8.83-4.71 16.19v88.16c-0.16 7.32 1.42 12.77 4.71 16.16a13 13 0 0 0 9.43 3.78h19.52v-62.84c0-28.5 18.59-31.57 26.58-31.57a26.93 26.93 0 0 1 6.88 0.87l1.49 0.38c0.05 0 14.67-31.38 14.67-31.38m-264.67 59.83 56-63.36h-41.41l-43.12 48.5v-99.12h-19.52a12.94 12.94 0 0 0-9.45 3.78c-3.28 3.38-4.87 8.83-4.71 16.2v138.74c-0.16 7.32 1.43 12.77 4.71 16.16a13 13 0 0 0 9.44 3.84h19.52v-47.72l42.07 47.66h44.09zm552.4 45.22c-7-1.88-11.7-8.31-11.7-16v-47.72c0-14.79-5-27.08-14.46-35.55-8.94-7.97-21.32-12.21-35.88-12.21-16.57 0-32.79 4.17-43.41 11.17l-1.1 0.73s2.4 9.63 3.62 15a11.65 11.65 0 0 0 5.76 7.36 16 16 0 0 0 13 0.89 67.43 67.43 0 0 1 20.86-3.77c16.67 0 18.6 7.55 18.6 13.23v3l-23.75 2.18c-11.47 1-22 5.38-29.78 12.2-8.64 7.62-13 17.9-13 30.56a42 42 0 0 0 10.77 28.08c5.47 6 15.4 13.13 31.71 13.13 13.34 0 23.82-4.22 30.58-12.23 4 8.19 9.84 12.19 17.73 12.19 15.81 0 21.58-19.16 21.82-20l0.53-1.83zm-44.74-29.31c0 10.21-9.4 21.62-22 21.62-8.12 0-12.5-5.63-12.5-10.93 0-6.12 4.36-13 16.58-14.08l17.91-1.6zm-97.09-79.29a12.92 12.92 0 0 0-9.44 3.78c-3.29 3.34-4.83 8.84-4.71 16.19v88.15c-0.16 7.32 1.42 12.77 4.7 16.16a13 13 0 0 0 9.44 3.78h19.78v-128.04zm-35-46.82a12.92 12.92 0 0 0-9.45-3.78h-19.54v53.6a69.24 69.24 0 0 0-26.85-5.88c-37.63 0-64.94 28.19-64.94 67 0 25.45 11.06 41.17 20.34 49.87a61.83 61.83 0 0 0 41.73 16.9c13.52 0 23.81-5.86 31-11.22v8.35h18.26a13 13 0 0 0 9.45-3.78c3.29-3.39 4.87-8.84 4.71-16.2v-138.71c0.16-7.32-1.42-12.77-4.71-16.15m-29 132.64c-3.92 5.29-12.13 13.6-25.12 13.6-19.58 0-32.74-14.06-32.74-35s14-36 33.36-36c13.51 0 21.65 6.18 24.5 8.8zm66.9-136.52a17.69 17.69 0 1 0 17.69 17.69 17.72 17.72 0 0 0-17.69-17.69" fill="#fff"/>
</svg>
