<svg width="600pt" height="130.78pt" version="1.1" viewBox="0 0 600 130.78" xmlns="http://www.w3.org/2000/svg">
 <g transform="matrix(.81465 0 0 .81465 -400.42 -160.59)" fill="#01bacc" stroke-width=".75">
  <path class="cls-1" d="m666.95 273.91a3.525 3.525 0 0 0-0.3825-0.105c-3.9375-0.675-11.085 3.7875-18.555 9.225h0.045c6.285 5.115 14.61 11.888 18.375 11.385a49.68 49.68 0 0 0 0.5175-20.535"/>
  <path class="cls-2" d="m645.73 285.92-0.75-0.6375c-3.45 2.4975-7.275 5.5125-11.325 8.715-4.05 3.2025-8.205 6.4875-12.593 9.7125 18.112 12.66 28.5 12.802 32.25 12.218a10.208 10.208 0 0 0 2.7375-0.8175 49.86 49.86 0 0 0 9.405-17.002c-5.355-0.525-12.608-6.42-19.695-12.188"/>
  <path class="cls-1" d="m617.91 259.89c14.903-9.84 25.613-14.295 33.75-13.725a49.92 49.92 0 0 0-67.5 0c8.0325-0.615 18.75 3.84 33.75 13.725"/>
  <path class="cls-2" d="m621.09 262.17c8.49 6.3375 15.12 11.355 23.963 18.465 9.3075-6.8325 15.968-10.778 21.045-10.56a49.778 49.778 0 0 0-9.75-18.952c-5.7075-2.9475-15.18-1.995-35.25 11.048"/>
  <path class="cls-2" d="m590.76 280.6c8.85-7.1175 15.48-12.135 23.918-18.435-20.25-13.17-29.693-14.025-35.385-10.965a49.815 49.815 0 0 0-9.705 18.885c5.0925-0.3225 11.775 3.615 21.18 10.5"/>
  <path class="cls-1" d="m650.76 319.8c-8.655 0-20.348-4.8975-32.828-13.785-12.48 8.895-24.172 13.785-32.828 13.785h-0.9975a49.928 49.928 0 0 0 67.5 0h-0.81"/>
  <path class="cls-2" d="m614.79 303.71c-4.3875-3.2625-8.5425-6.54-12.562-9.75-4.02-3.21-7.92-6.255-11.363-8.745l-0.825 0.675c-7.125 5.7975-14.415 11.722-19.778 12.195a49.83 49.83 0 0 0 9.3075 16.89 10.065 10.065 0 0 0 3 0.9225c3.705 0.585 14.1 0.45 32.25-12.218"/>
  <path class="cls-1" d="m587.7 283.07 0.09-0.075c-7.5-5.4225-14.55-9.855-18.51-9.1875a3.6675 3.6675 0 0 0-0.57 0.1575 49.665 49.665 0 0 0 0.5175 20.452c3.75 0.6375 12.128-6.195 18.465-11.355"/>
 </g>
 <g transform="matrix(.66231 0 0 .66231 -125.13 -358.61)" fill="#fff">
  <path d="m834.94 548h3.505v190.91h-3.505z"/>
  <path transform="scale(.75)" d="m1215.9 782.75v39.08h31.5v123.17h49.08v-123.17h31.5v-39.08z" stroke-width="1.3333"/>
  <path d="m1001.8 587.06h37.38l10.43 69.305 9.71-69.305h35.54l-28.68 121.68h-36.62z"/>
  <g stroke-width=".92251">
   <path class="cls-3" d="m755.93 688.41c-6.4576-1.7343-10.793-7.666-10.793-14.76v-44.022c0-13.644-4.6126-24.982-13.34-32.795-8.2472-7.3524-19.668-11.264-33.1-11.264-15.286 0-30.249 3.8469-40.046 10.304l-1.0148 0.67343s2.214 8.8838 3.3395 13.838c0.74599 2.9056 2.6725 5.3672 5.3137 6.7897 3.7 1.9628 8.0596 2.2613 11.993 0.82102 6.191-2.1666 12.686-3.3404 19.244-3.4779 15.378 0 17.159 6.965 17.159 12.205v2.7675l-21.91 2.0111c-10.581 0.92251-20.295 4.9631-27.472 11.255-7.9705 7.0295-11.993 16.513-11.993 28.192 8.2e-4 9.5651 3.5397 18.792 9.9354 25.904 5.0461 5.5351 14.207 12.113 29.253 12.113 12.306 0 21.974-3.893 28.21-11.282 3.69 7.5554 9.0775 11.245 16.356 11.245 14.585 0 19.908-17.675 20.129-18.45l0.48892-1.6882zm-41.273-27.039c0 9.4188-8.6716 19.945-20.295 19.945-7.4908 0-11.531-5.1937-11.531-10.083 0-5.6458 4.0222-11.993 15.295-12.989l16.522-1.476z"/>
   <path d="m194.57 541.55c-3.8087 0-5.6221 2.8274-5.6221 5.7935l-0.0103 153.29c0 2.9661 1.8134 5.7935 5.6221 5.7935h19.815c3.9215 0 5.6323-2.4681 5.6323-5.7935l3e-3 -38.121 34.655 39.13c2.21 2.75 6.4509 4.907 9.9009 4.727h29.09c2.06-0.07 2.8901-3.347 1.6201-4.727l-48.94-54.94 47.271-53.629c1.69-1.58 0.26922-5.0608-2.0508-4.8208h-26.94c-3.37-0.12-6.9582 2.2708-9.0982 4.8208l-35.506 39.959 6e-3 -85.688c0-3.3254-1.7108-5.7935-5.6323-5.7935z"/>
   <path d="m617.76 588.22c-3.8087 0-5.6221 2.8274-5.6221 5.7935v106.56c0 2.9661 1.8134 5.7934 5.6221 5.7934h19.816c3.9215 0 5.6323-2.4681 5.6323-5.7934v-106.56c0-3.3253-1.7108-5.7935-5.6323-5.7935z"/>
   <path d="m571.71 541.55c-3.8087 0-5.6221 2.8274-5.6221 5.7935l-0.0278 43.655c-7.811-3.4452-16.233-5.2896-24.769-5.4243-34.714 0-59.909 26.006-59.909 61.809 0 23.478 10.204 37.979 18.765 46.005 10.417 9.8501 24.161 15.416 38.496 15.59 12.472 0 21.965-5.4059 28.598-10.351v7.7036h16.844c3.259 0.0708 6.4076-1.1889 8.7188-3.4878 3.0351-3.1273 4.4923-8.1547 4.3447-14.944l0.0103-140.56c0-3.3254-1.7108-5.7935-5.6323-5.7935zm-28.261 72.899c12.463 0 19.972 5.7012 22.601 8.1182v44.834c-3.6162 4.8801-11.189 12.546-23.172 12.546-18.063 0-30.204-12.971-30.204-32.288 0-19.317 12.915-33.211 30.775-33.211z"/>
   <path class="cls-3" d="m490.5 591.5-4.0406-1.7804-2.2878-0.9225c-3.1089-1.2362-8.7915-2.0111-12.279-2.0111-10.418 0.0676-20.308 4.5945-27.168 12.435v-10.978h-18.007c-3.2572-0.0758-6.4037 1.1842-8.7085 3.4871-3.035 3.1181-4.4926 8.1458-4.345 14.935v81.328c-0.1476 6.7528 1.31 11.78 4.345 14.908 2.3067 2.2942 5.4466 3.5528 8.6993 3.4871h18.007v-57.97c0-26.292 17.149-29.124 24.52-29.124 2.1414-7e-3 4.2747 0.26263 6.3469 0.80258l1.3745 0.35056c0.0461 0 13.533-28.948 13.533-28.948"/>
   <path class="cls-3" d="m627.76 541.46c-14.54 0-21.819 17.578-11.539 27.858s27.858 3.001 27.858-11.539c-0.0152-9.0065-7.3127-16.304-16.319-16.319"/>
  </g>
 </g>
</svg>
