<svg height="7.316576mm" viewBox="0 0 66.735374 25.924875" width="18.834206mm" xmlns="http://www.w3.org/2000/svg" xmlns:xlink="http://www.w3.org/1999/xlink"><clipPath id="a"><path d="m403.937 659.622h56.835v24.803h-56.835z"/></clipPath><g clip-path="url(#a)" transform="matrix(1.25 0 0 -1.25 -507.075499 852.99188)"><g transform="translate(407.926 661.6536)"><path d="m0 0c-.726 0-1.268.566-1.268 1.286 0 .712.531 1.292 1.286 1.292.459 0 .737-.16.975-.388l-.281-.324c-.199.185-.413.31-.698.31-.477 0-.822-.392-.822-.883 0-.492.345-.891.822-.891.306 0 .502.125.716.325l.281-.285c-.26-.271-.544-.442-1.011-.442" fill="#f9d008"/></g><g transform="translate(411.5793 662.7469)"><path d="m0 0v-1.051h-.438v2.493h.438v-1.036h1.189v1.036h.438v-2.493h-.438v1.051z" fill="#f9d008"/></g><g transform="translate(416.6672 663.6835)"><path d="m0 0-.427-.997h.858zm1.307-1.987h-.463l-.253.602h-1.179l-.256-.602h-.449l1.097 2.51h.406z" fill="#f9d008"/></g><g transform="translate(421.885 664.1891)"><path d="m0 0h .431v-2.493h-.367l-1.375 1.774v-1.774h-.43v2.493h.406l1.335-1.724z" fill="#f9d008"/></g><g transform="translate(426.4831 664.1891)"><path d="m0 0h .431v-2.493h-.367l-1.375 1.774v-1.774h-.43v2.493h.406l1.335-1.724z" fill="#f9d008"/></g><g transform="translate(431.1882 663.7974)"><path d="m0 0h-1.41v-.648h1.25v-.392h-1.25v-.669h1.428v-.392h-1.866v2.493h1.848z" fill="#f9d008"/></g><g transform="translate(433.5072 664.1891)"><path d="m0 0h .438v-2.094h1.31v-.399h-1.748z" fill="#f9d008"/></g><g transform="translate(410.3864 668.4835)"><path d="m0 0c0-1.016 1.202-.622 1.202-1.057 0-.104-.041-.207-.228-.207h-5.472c-.187 0-.228.103-.228.207 0 .435 1.202.041 1.202 1.057v11.464c0 1.036-.042 1.099 3.524 2.446z" fill="#f9d008"/></g><g transform="translate(414.1088 682.2274)"><path d="m0 0c1.161 0 2.073-.912 2.073-2.073s-.912-2.073-2.073-2.073-2.073.912-2.073 2.073.912 2.073 2.073 2.073m1.762-13.744c0-1.016 1.202-.622 1.202-1.057 0-.103-.041-.207-.228-.207h-5.472c-.187 0-.228.104-.228.207 0 .435 1.202.041 1.202 1.057v5.929c0 1.41-.062 1.513 3.524 2.425z" fill="#f9d008"/></g><g transform="translate(426.9487 676.771)"><path d="m0 0h-3.234c-.207 0-.27-.02-.27-.166 0-.393 1.161.052 1.161-1.793 0-.497-.298-1.535-.526-2.053l-.788-1.733-1.762 3.859c-.124.27-.332.645-.332.914 0 .56.664.445.664.756 0 .166-.125.216-.332.216h-4.671l4.484-9.316c.104-.228.208-.346.415-.346s.311.096.415.325l3.138 6.854c1.182 2.57 1.907 1.987 1.907 2.402 0 .125-.124.081-.269.081" fill="#f9d008"/></g><g transform="translate(429.11 682.2274)"><path d="m0 0c1.161 0 2.073-.912 2.073-2.073s-.912-2.073-2.073-2.073-2.073.912-2.073 2.073.912 2.073 2.073 2.073m2.748-15.008h-5.484c-.187 0-.228.104-.228.207 0 .435 1.202.041 1.202 1.057v5.929c0 1.41-.062 1.513 3.524 2.425v-8.354c0-1.016 1.202-.622 1.202-1.057 0-.103-.041-.207-.228-.207" fill="#f9d008"/></g><g transform="translate(432.8325 674.4126)"><path d="m0 0c0 1.41-.062 1.513 3.524 2.425v-1.43c1.451 1.119 2.28 1.43 3.42 1.43 2.073 0 2.633-1.285 2.633-3.089v-5.265c0-1.016 1.203-.622 1.203-1.057 0-.104-.042-.207-.229-.207h-5.306c-.187 0-.228.103-.228.207 0 .435 1.036.041 1.036 1.057v5.825c0 .912-.477 1.244-.974 1.244-.539 0-1.12-.394-1.555-.809v-6.26c0-1.016 1.037-.622 1.037-1.057 0-.104-.042-.207-.228-.207h-5.307c-.187 0-.228.103-.228.207 0 .435 1.202.041 1.202 1.057z" fill="#f9d008"/></g><g transform="translate(448.5335 668.3414)"><path d="m0 0c-.151-.107-.363-.084-.483.057-.358.422-.435 1.109-.435 1.662 0 1.43.875 5.033 2.446 6.087.132.089.311.085.433-.019.334-.287.498-.748.498-1.286 0-1.459-.824-5.343-2.459-6.501m6.532 8.43h-3.129c-.333 0-.314-.561-.369-.61-.328.336-1.033.707-2.278.707-3.099 0-5.747-3.061-5.747-6.037 0-1.909 1.149-3.649 3.243-3.649 1.806 0 2.571.705 2.922 1.021-.084-.393-.16-.882-.243-1.302h-.002c-.533-2.31-.759-4.635-3.55-4.635-.373 0-.801.042-1.07.253.597.355.99 1.007.99 1.765 0 1.149-.903 2.052-2.052 2.052s-2.052-.902-2.052-2.051c0-.801.438-1.482 1.093-1.821.858-.531 2.081-.728 2.865-.728.136 0 .269.003.399.008.001-.005.005-.008.016-.008 5.069 0 7.137 4.727 7.466 6.471l.739 3.81 1.046 4.46c.062.226-.061.294-.287.294" fill="#f9d008"/></g><g transform="translate(456.9757 671.3384)"><path d="m0 0c1.161 0 2.073-.912 2.073-2.073s-.912-2.073-2.073-2.073-2.073.912-2.073 2.073.912 2.073 2.073 2.073" fill="#f9d008"/></g></g></svg>