<?xml version="1.0" encoding="UTF-8" standalone="no"?>
<!-- Created with Inkscape (http://www.inkscape.org/) -->

<svg
   xmlns:dc="http://purl.org/dc/elements/1.1/"
   xmlns:cc="http://creativecommons.org/ns#"
   xmlns:rdf="http://www.w3.org/1999/02/22-rdf-syntax-ns#"
   xmlns:svg="http://www.w3.org/2000/svg"
   xmlns="http://www.w3.org/2000/svg"
   xmlns:sodipodi="http://sodipodi.sourceforge.net/DTD/sodipodi-0.dtd"
   xmlns:inkscape="http://www.inkscape.org/namespaces/inkscape"
   width="18.834206mm"
   height="7.316576mm"
   viewBox="0 0 66.735374 25.924875"
   id="svg309398"
   version="1.1"
   inkscape:version="0.91 r13725"
   sodipodi:docname="Living.svg">
  <defs
     id="defs309400">
    <clipPath
       clipPathUnits="userSpaceOnUse"
       id="clipPath2628">
      <path
         d="m 403.937,659.622 56.835,0 0,24.803 -56.835,0 0,-24.803 z"
         id="path2630"
         inkscape:connector-curvature="0" />
    </clipPath>
  </defs>
  <sodipodi:namedview
     id="base"
     pagecolor="#ffffff"
     bordercolor="#666666"
     borderopacity="1.0"
     inkscape:pageopacity="0.0"
     inkscape:pageshadow="2"
     inkscape:zoom="0.35"
     inkscape:cx="-467.3466"
     inkscape:cy="-101.3233"
     inkscape:document-units="px"
     inkscape:current-layer="layer1"
     showgrid="false"
     fit-margin-top="0"
     fit-margin-left="0"
     fit-margin-right="0"
     fit-margin-bottom="0"
     inkscape:window-width="1920"
     inkscape:window-height="1017"
     inkscape:window-x="-8"
     inkscape:window-y="-8"
     inkscape:window-maximized="1" />
  <metadata
     id="metadata309403">
    <rdf:RDF>
      <cc:Work
         rdf:about="">
        <dc:format>image/svg+xml</dc:format>
        <dc:type
           rdf:resource="http://purl.org/dc/dcmitype/StillImage" />
        <dc:title></dc:title>
      </cc:Work>
    </rdf:RDF>
  </metadata>
  <g
     inkscape:label="Layer 1"
     inkscape:groupmode="layer"
     id="layer1"
     transform="translate(-415.20374,-405.11402)">
    <g
       transform="matrix(1.25,0,0,-1.25,-91.871759,1258.1059)"
       id="g2624">
      <g
         id="g2626"
         clip-path="url(#clipPath2628)">
        <g
           id="g2632"
           transform="translate(407.926,661.6536)">
          <path
             d="m 0,0 c -0.726,0 -1.268,0.566 -1.268,1.286 0,0.712 0.531,1.292 1.286,1.292 0.459,0 0.737,-0.16 0.975,-0.388 L 0.712,1.866 c -0.199,0.185 -0.413,0.31 -0.698,0.31 -0.477,0 -0.822,-0.392 -0.822,-0.883 0,-0.492 0.345,-0.891 0.822,-0.891 0.306,0 0.502,0.125 0.716,0.325 L 1.011,0.442 C 0.751,0.171 0.467,0 0,0"
             style="fill:#f9d008;fill-opacity:1;fill-rule:nonzero;stroke:none"
             id="path2634"
             inkscape:connector-curvature="0" />
        </g>
        <g
           id="g2636"
           transform="translate(411.5793,662.7469)">
          <path
             d="m 0,0 0,-1.051 -0.438,0 0,2.493 0.438,0 0,-1.036 1.189,0 0,1.036 0.438,0 0,-2.493 -0.438,0 L 1.189,0 0,0 Z"
             style="fill:#f9d008;fill-opacity:1;fill-rule:nonzero;stroke:none"
             id="path2638"
             inkscape:connector-curvature="0" />
        </g>
        <g
           id="g2640"
           transform="translate(416.6672,663.6835)">
          <path
             d="m 0,0 -0.427,-0.997 0.858,0 L 0,0 Z m 1.307,-1.987 -0.463,0 -0.253,0.602 -1.179,0 -0.256,-0.602 -0.449,0 1.097,2.51 0.406,0 1.097,-2.51 z"
             style="fill:#f9d008;fill-opacity:1;fill-rule:nonzero;stroke:none"
             id="path2642"
             inkscape:connector-curvature="0" />
        </g>
        <g
           id="g2644"
           transform="translate(421.885,664.1891)">
          <path
             d="m 0,0 0.431,0 0,-2.493 -0.367,0 -1.375,1.774 0,-1.774 -0.43,0 0,2.493 0.406,0 L 0,-1.724 0,0 Z"
             style="fill:#f9d008;fill-opacity:1;fill-rule:nonzero;stroke:none"
             id="path2646"
             inkscape:connector-curvature="0" />
        </g>
        <g
           id="g2648"
           transform="translate(426.4831,664.1891)">
          <path
             d="m 0,0 0.431,0 0,-2.493 -0.367,0 -1.375,1.774 0,-1.774 -0.43,0 0,2.493 0.406,0 L 0,-1.724 0,0 Z"
             style="fill:#f9d008;fill-opacity:1;fill-rule:nonzero;stroke:none"
             id="path2650"
             inkscape:connector-curvature="0" />
        </g>
        <g
           id="g2652"
           transform="translate(431.1882,663.7974)">
          <path
             d="m 0,0 -1.41,0 0,-0.648 1.25,0 0,-0.392 -1.25,0 0,-0.669 1.428,0 0,-0.392 -1.866,0 0,2.493 L 0,0.392 0,0 Z"
             style="fill:#f9d008;fill-opacity:1;fill-rule:nonzero;stroke:none"
             id="path2654"
             inkscape:connector-curvature="0" />
        </g>
        <g
           id="g2656"
           transform="translate(433.5072,664.1891)">
          <path
             d="m 0,0 0.438,0 0,-2.094 1.31,0 0,-0.399 L 0,-2.493 0,0 Z"
             style="fill:#f9d008;fill-opacity:1;fill-rule:nonzero;stroke:none"
             id="path2658"
             inkscape:connector-curvature="0" />
        </g>
        <g
           id="g2660"
           transform="translate(410.3864,668.4835)">
          <path
             d="m 0,0 c 0,-1.016 1.202,-0.622 1.202,-1.057 0,-0.104 -0.041,-0.207 -0.228,-0.207 l -5.472,0 c -0.187,0 -0.228,0.103 -0.228,0.207 0,0.435 1.202,0.041 1.202,1.057 l 0,11.464 c 0,1.036 -0.042,1.099 3.524,2.446 L 0,0 Z"
             style="fill:#f9d008;fill-opacity:1;fill-rule:nonzero;stroke:none"
             id="path2662"
             inkscape:connector-curvature="0" />
        </g>
        <g
           id="g2664"
           transform="translate(414.1088,682.2274)">
          <path
             d="m 0,0 c 1.161,0 2.073,-0.912 2.073,-2.073 0,-1.161 -0.912,-2.073 -2.073,-2.073 -1.161,0 -2.073,0.912 -2.073,2.073 C -2.073,-0.912 -1.161,0 0,0 m 1.762,-13.744 c 0,-1.016 1.202,-0.622 1.202,-1.057 0,-0.103 -0.041,-0.207 -0.228,-0.207 l -5.472,0 c -0.187,0 -0.228,0.104 -0.228,0.207 0,0.435 1.202,0.041 1.202,1.057 l 0,5.929 c 0,1.41 -0.062,1.513 3.524,2.425 l 0,-8.354 z"
             style="fill:#f9d008;fill-opacity:1;fill-rule:nonzero;stroke:none"
             id="path2666"
             inkscape:connector-curvature="0" />
        </g>
        <g
           id="g2668"
           transform="translate(426.9487,676.771)">
          <path
             d="m 0,0 -3.234,0 c -0.207,0 -0.27,-0.02 -0.27,-0.166 0,-0.393 1.161,0.052 1.161,-1.793 0,-0.497 -0.298,-1.535 -0.526,-2.053 l -0.788,-1.733 -1.762,3.859 c -0.124,0.27 -0.332,0.645 -0.332,0.914 0,0.56 0.664,0.445 0.664,0.756 C -5.087,-0.05 -5.212,0 -5.419,0 l -4.671,0 4.484,-9.316 c 0.104,-0.228 0.208,-0.346 0.415,-0.346 0.207,0 0.311,0.096 0.415,0.325 l 3.138,6.854 c 1.182,2.57 1.907,1.987 1.907,2.402 C 0.269,0.044 0.145,0 0,0"
             style="fill:#f9d008;fill-opacity:1;fill-rule:nonzero;stroke:none"
             id="path2670"
             inkscape:connector-curvature="0" />
        </g>
        <g
           id="g2672"
           transform="translate(429.11,682.2274)">
          <path
             d="m 0,0 c 1.161,0 2.073,-0.912 2.073,-2.073 0,-1.161 -0.912,-2.073 -2.073,-2.073 -1.161,0 -2.073,0.912 -2.073,2.073 C -2.073,-0.912 -1.161,0 0,0 m 2.748,-15.008 -5.484,0 c -0.187,0 -0.228,0.104 -0.228,0.207 0,0.435 1.202,0.041 1.202,1.057 l 0,5.929 c 0,1.41 -0.062,1.513 3.524,2.425 l 0,-8.354 c 0,-1.016 1.202,-0.622 1.202,-1.057 0,-0.103 -0.041,-0.207 -0.228,-0.207"
             style="fill:#f9d008;fill-opacity:1;fill-rule:nonzero;stroke:none"
             id="path2674"
             inkscape:connector-curvature="0" />
        </g>
        <g
           id="g2676"
           transform="translate(432.8325,674.4126)">
          <path
             d="m 0,0 c 0,1.41 -0.062,1.513 3.524,2.425 l 0,-1.43 c 1.451,1.119 2.28,1.43 3.42,1.43 2.073,0 2.633,-1.285 2.633,-3.089 l 0,-5.265 c 0,-1.016 1.203,-0.622 1.203,-1.057 0,-0.104 -0.042,-0.207 -0.229,-0.207 l -5.306,0 c -0.187,0 -0.228,0.103 -0.228,0.207 0,0.435 1.036,0.041 1.036,1.057 l 0,5.825 C 6.053,0.808 5.576,1.14 5.079,1.14 4.54,1.14 3.959,0.746 3.524,0.331 l 0,-6.26 c 0,-1.016 1.037,-0.622 1.037,-1.057 0,-0.104 -0.042,-0.207 -0.228,-0.207 l -5.307,0 c -0.187,0 -0.228,0.103 -0.228,0.207 0,0.435 1.202,0.041 1.202,1.057 L 0,0 Z"
             style="fill:#f9d008;fill-opacity:1;fill-rule:nonzero;stroke:none"
             id="path2678"
             inkscape:connector-curvature="0" />
        </g>
        <g
           id="g2680"
           transform="translate(448.5335,668.3414)">
          <path
             d="m 0,0 c -0.151,-0.107 -0.363,-0.084 -0.483,0.057 -0.358,0.422 -0.435,1.109 -0.435,1.662 0,1.43 0.875,5.033 2.446,6.087 C 1.66,7.895 1.839,7.891 1.961,7.787 2.295,7.5 2.459,7.039 2.459,6.501 2.459,5.042 1.635,1.158 0,0 m 6.532,8.43 -3.129,0 C 3.07,8.43 3.089,7.869 3.034,7.82 2.706,8.156 2.001,8.527 0.756,8.527 c -3.099,0 -5.747,-3.061 -5.747,-6.037 0,-1.909 1.149,-3.649 3.243,-3.649 1.806,0 2.571,0.705 2.922,1.021 C 1.09,-0.531 1.014,-1.02 0.931,-1.44 l -0.002,0 c -0.533,-2.31 -0.759,-4.635 -3.55,-4.635 -0.373,0 -0.801,0.042 -1.07,0.253 0.597,0.355 0.99,1.007 0.99,1.765 0,1.149 -0.903,2.052 -2.052,2.052 -1.149,0 -2.052,-0.902 -2.052,-2.051 0,-0.801 0.438,-1.482 1.093,-1.821 0.858,-0.531 2.081,-0.728 2.865,-0.728 0.136,0 0.269,0.003 0.399,0.008 10e-4,-0.005 0.005,-0.008 0.016,-0.008 5.069,0 7.137,4.727 7.466,6.471 l 0.739,3.81 1.046,4.46 C 6.881,8.362 6.758,8.43 6.532,8.43"
             style="fill:#f9d008;fill-opacity:1;fill-rule:nonzero;stroke:none"
             id="path2682"
             inkscape:connector-curvature="0" />
        </g>
        <g
           id="g2684"
           transform="translate(456.9757,671.3384)">
          <path
             d="m 0,0 c 1.161,0 2.073,-0.912 2.073,-2.073 0,-1.161 -0.912,-2.073 -2.073,-2.073 -1.161,0 -2.073,0.912 -2.073,2.073 C -2.073,-0.912 -1.161,0 0,0"
             style="fill:#f9d008;fill-opacity:1;fill-rule:nonzero;stroke:none"
             id="path2686"
             inkscape:connector-curvature="0" />
        </g>
      </g>
    </g>
  </g>
</svg>
