<?xml version="1.0" encoding="UTF-8"?>
<!-- Created with Inkscape (http://www.inkscape.org/) -->
<svg id="svg309398" width="18.834mm" height="7.3166mm" version="1.1" viewBox="0 0 66.735 25.925" xmlns="http://www.w3.org/2000/svg" xmlns:cc="http://creativecommons.org/ns#" xmlns:dc="http://purl.org/dc/elements/1.1/" xmlns:rdf="http://www.w3.org/1999/02/22-rdf-syntax-ns#">
 <defs id="defs309400">
  <clipPath id="clipPath2628">
   <path id="path2630" d="m403.94 659.62h56.835v24.803h-56.835v-24.803z"/>
  </clipPath>
 </defs>
 <metadata id="metadata309403">
  <rdf:RDF>
   <cc:Work rdf:about="">
    <dc:format>image/svg+xml</dc:format>
    <dc:type rdf:resource="http://purl.org/dc/dcmitype/StillImage"/>
    <dc:title/>
   </cc:Work>
  </rdf:RDF>
 </metadata>
 <g id="layer1" transform="translate(-415.2 -405.11)">
  <g id="g2624" transform="matrix(1.25 0 0 -1.25 -91.872 1258.1)">
   <g id="g2626" clip-path="url(#clipPath2628)">
    <g id="g2632" transform="translate(407.93 661.65)">
     <path id="path2634" d="m0 0c-0.726 0-1.268 0.566-1.268 1.286 0 0.712 0.531 1.292 1.286 1.292 0.459 0 0.737-0.16 0.975-0.388l-0.281-0.324c-0.199 0.185-0.413 0.31-0.698 0.31-0.477 0-0.822-0.392-0.822-0.883 0-0.492 0.345-0.891 0.822-0.891 0.306 0 0.502 0.125 0.716 0.325l0.281-0.285c-0.26-0.271-0.544-0.442-1.011-0.442" fill="#f9d008"/>
    </g>
    <g id="g2636" transform="translate(411.58 662.75)">
     <path id="path2638" d="m0 0v-1.051h-0.438v2.493h0.438v-1.036h1.189v1.036h0.438v-2.493h-0.438v1.051h-1.189z" fill="#f9d008"/>
    </g>
    <g id="g2640" transform="translate(416.67 663.68)">
     <path id="path2642" d="m0 0-0.427-0.997h0.858l-0.431 0.997zm1.307-1.987h-0.463l-0.253 0.602h-1.179l-0.256-0.602h-0.449l1.097 2.51h0.406l1.097-2.51z" fill="#f9d008"/>
    </g>
    <g id="g2644" transform="translate(421.88 664.19)">
     <path id="path2646" d="m0 0h0.431v-2.493h-0.367l-1.375 1.774v-1.774h-0.43v2.493h0.406l1.335-1.724v1.724z" fill="#f9d008"/>
    </g>
    <g id="g2648" transform="translate(426.48 664.19)">
     <path id="path2650" d="m0 0h0.431v-2.493h-0.367l-1.375 1.774v-1.774h-0.43v2.493h0.406l1.335-1.724v1.724z" fill="#f9d008"/>
    </g>
    <g id="g2652" transform="translate(431.19 663.8)">
     <path id="path2654" d="m0 0h-1.41v-0.648h1.25v-0.392h-1.25v-0.669h1.428v-0.392h-1.866v2.493h1.848v-0.392z" fill="#f9d008"/>
    </g>
    <g id="g2656" transform="translate(433.51 664.19)">
     <path id="path2658" d="m0 0h0.438v-2.094h1.31v-0.399h-1.748v2.493z" fill="#f9d008"/>
    </g>
    <g id="g2660" transform="translate(410.39 668.48)">
     <path id="path2662" d="m0 0c0-1.016 1.202-0.622 1.202-1.057 0-0.104-0.041-0.207-0.228-0.207h-5.472c-0.187 0-0.228 0.103-0.228 0.207 0 0.435 1.202 0.041 1.202 1.057v11.464c0 1.036-0.042 1.099 3.524 2.446v-13.91z" fill="#f9d008"/>
    </g>
    <g id="g2664" transform="translate(414.11 682.23)">
     <path id="path2666" d="m0 0c1.161 0 2.073-0.912 2.073-2.073s-0.912-2.073-2.073-2.073-2.073 0.912-2.073 2.073 0.912 2.073 2.073 2.073m1.762-13.744c0-1.016 1.202-0.622 1.202-1.057 0-0.103-0.041-0.207-0.228-0.207h-5.472c-0.187 0-0.228 0.104-0.228 0.207 0 0.435 1.202 0.041 1.202 1.057v5.929c0 1.41-0.062 1.513 3.524 2.425v-8.354z" fill="#f9d008"/>
    </g>
    <g id="g2668" transform="translate(426.95 676.77)">
     <path id="path2670" d="m0 0h-3.234c-0.207 0-0.27-0.02-0.27-0.166 0-0.393 1.161 0.052 1.161-1.793 0-0.497-0.298-1.535-0.526-2.053l-0.788-1.733-1.762 3.859c-0.124 0.27-0.332 0.645-0.332 0.914 0 0.56 0.664 0.445 0.664 0.756 0 0.166-0.125 0.216-0.332 0.216h-4.671l4.484-9.316c0.104-0.228 0.208-0.346 0.415-0.346s0.311 0.096 0.415 0.325l3.138 6.854c1.182 2.57 1.907 1.987 1.907 2.402 0 0.125-0.124 0.081-0.269 0.081" fill="#f9d008"/>
    </g>
    <g id="g2672" transform="translate(429.11 682.23)">
     <path id="path2674" d="m0 0c1.161 0 2.073-0.912 2.073-2.073s-0.912-2.073-2.073-2.073-2.073 0.912-2.073 2.073 0.912 2.073 2.073 2.073m2.748-15.008h-5.484c-0.187 0-0.228 0.104-0.228 0.207 0 0.435 1.202 0.041 1.202 1.057v5.929c0 1.41-0.062 1.513 3.524 2.425v-8.354c0-1.016 1.202-0.622 1.202-1.057 0-0.103-0.041-0.207-0.228-0.207" fill="#f9d008"/>
    </g>
    <g id="g2676" transform="translate(432.83 674.41)">
     <path id="path2678" d="m0 0c0 1.41-0.062 1.513 3.524 2.425v-1.43c1.451 1.119 2.28 1.43 3.42 1.43 2.073 0 2.633-1.285 2.633-3.089v-5.265c0-1.016 1.203-0.622 1.203-1.057 0-0.104-0.042-0.207-0.229-0.207h-5.306c-0.187 0-0.228 0.103-0.228 0.207 0 0.435 1.036 0.041 1.036 1.057v5.825c0 0.912-0.477 1.244-0.974 1.244-0.539 0-1.12-0.394-1.555-0.809v-6.26c0-1.016 1.037-0.622 1.037-1.057 0-0.104-0.042-0.207-0.228-0.207h-5.307c-0.187 0-0.228 0.103-0.228 0.207 0 0.435 1.202 0.041 1.202 1.057v5.929z" fill="#f9d008"/>
    </g>
    <g id="g2680" transform="translate(448.53 668.34)">
     <path id="path2682" d="m0 0c-0.151-0.107-0.363-0.084-0.483 0.057-0.358 0.422-0.435 1.109-0.435 1.662 0 1.43 0.875 5.033 2.446 6.087 0.132 0.089 0.311 0.085 0.433-0.019 0.334-0.287 0.498-0.748 0.498-1.286 0-1.459-0.824-5.343-2.459-6.501m6.532 8.43h-3.129c-0.333 0-0.314-0.561-0.369-0.61-0.328 0.336-1.033 0.707-2.278 0.707-3.099 0-5.747-3.061-5.747-6.037 0-1.909 1.149-3.649 3.243-3.649 1.806 0 2.571 0.705 2.922 1.021-0.084-0.393-0.16-0.882-0.243-1.302h-2e-3c-0.533-2.31-0.759-4.635-3.55-4.635-0.373 0-0.801 0.042-1.07 0.253 0.597 0.355 0.99 1.007 0.99 1.765 0 1.149-0.903 2.052-2.052 2.052s-2.052-0.902-2.052-2.051c0-0.801 0.438-1.482 1.093-1.821 0.858-0.531 2.081-0.728 2.865-0.728 0.136 0 0.269 3e-3 0.399 8e-3 1e-3 -5e-3 5e-3 -8e-3 0.016-8e-3 5.069 0 7.137 4.727 7.466 6.471l0.739 3.81 1.046 4.46c0.062 0.226-0.061 0.294-0.287 0.294" fill="#f9d008"/>
    </g>
    <g id="g2684" transform="translate(456.98 671.34)">
     <path id="path2686" d="m0 0c1.161 0 2.073-0.912 2.073-2.073s-0.912-2.073-2.073-2.073-2.073 0.912-2.073 2.073 0.912 2.073 2.073 2.073" fill="#f9d008"/>
    </g>
   </g>
  </g>
 </g>
</svg>
