<?xml version="1.0" encoding="utf-8"?>
<!-- Generator: Adobe Illustrator 15.1.0, SVG Export Plug-In  -->
<!DOCTYPE svg PUBLIC "-//W3C//DTD SVG 1.1//EN" "http://www.w3.org/Graphics/SVG/1.1/DTD/svg11.dtd" [
	<!ENTITY ns_flows "http://ns.adobe.com/Flows/1.0/">
]>
<svg version="1.1"
	 xmlns="http://www.w3.org/2000/svg" xmlns:xlink="http://www.w3.org/1999/xlink" xmlns:a="http://ns.adobe.com/AdobeSVGViewerExtensions/3.0/"
	 x="0px" y="0px" width="439px" height="173px" viewBox="0 0 439 173"
	 overflow="visible" enable-background="new 0 0 439 173" xml:space="preserve">
<defs>
</defs>
<path fill="#CB4E27" d="M71.204,115.387h-6.412c-3.203,0-5.037-1.467-5.037-4.029V67.044c0-1.466-2.289-1.832-3.203,0L46.023,86.088
	c-1.605,2.928-4.121,5.129-7.557,5.129c-3.431,0-5.949-2.017-7.551-5.129L20.385,67.044c-1.143-1.832-3.205-1.466-3.205,0v44.314
	c0,2.562-1.831,4.029-5.034,4.029h-6.41c-3.207,0-5.035-1.467-5.035-4.029V34.816c0-2.563,1.828-4.029,5.035-4.029h8.93
	c3.204,0,5.491,1.831,6.634,4.029l15.105,29.479c0.463,0.917,1.149,1.834,2.062,1.834c0.916,0,1.604-0.918,2.059-1.834
	l15.112-29.479c1.141-2.198,3.432-4.029,6.635-4.029h8.931c3.203,0,5.031,1.465,5.031,4.029v76.542
	C76.234,113.92,74.406,115.387,71.204,115.387z"/>
<path fill="#CB4E27" d="M176.952,115.387h-7.557c-3.203,0-5.037-1.467-5.037-4.029V83.158c0-2.563-1.828-4.026-5.031-4.026h-30.216
	c-3.205,0-5.039,1.463-5.039,4.026v28.201c0,2.562-1.828,4.029-5.035,4.029h-7.551c-3.205,0-5.039-1.467-5.039-4.029V58.622
	c0-15.749,15.109-29.667,37.77-29.667s37.77,13.919,37.77,29.667v52.736C181.986,113.92,180.154,115.387,176.952,115.387z
	 M164.358,58.622c0-8.241-7.321-16.663-20.142-16.663c-12.818,0-20.145,8.421-20.145,16.663v4.394c0,2.562,1.834,4.028,5.039,4.028
	h30.216c3.203,0,5.031-1.466,5.031-4.028V58.622z"/>
<path fill="#CB4E27" d="M388.459,115.387h-7.56c-3.202,0-5.03-1.467-5.03-4.029V95.794c0-8.24-7.329-16.663-20.146-16.663h-15.102
	c-3.216,0-5.039,1.463-5.039,4.026v28.201c0,2.562-1.833,4.029-5.039,4.029h-7.553c-3.205,0-5.038-1.467-5.038-4.029V58.622
	c0-15.749,15.109-29.667,37.771-29.667c21.517,0,37.766,9.706,37.766,26.006c0,10.252-7.317,14.649-10.295,16.479
	c-1.833,1.101-1.833,2.561,0,3.848c5.035,3.478,10.295,9.151,10.295,20.507v15.564C393.489,113.92,391.661,115.387,388.459,115.387z
	 M355.724,41.959c-12.817,0-20.141,8.421-20.141,16.663v4.394c0,2.562,1.823,4.028,5.039,4.028h15.102
	c5.951,0,20.146-1.832,20.146-12.084C375.869,46.169,366.481,41.959,355.724,41.959z"/>
<path fill="#CB4E27" d="M438.171,73.233V34.439c0-2.562-1.824-4.031-5.034-4.031h-7.553c-3.202,0-5.037,1.469-5.037,4.031V72.58
	l0.003,0.001v38.794c0,2.563,1.832,4.027,5.034,4.027h7.553c3.21,0,5.038-1.464,5.038-4.027V73.233H438.171z"/>
<path fill="#CB4E27" d="M122.309,17.096c1.518-0.346,2.637-0.895,4.014-1.258c5.512-1.464,11.559-2.068,17.402-2.111
	c5.859,0.039,11.92,0.646,17.443,2.111c1.374,0.367,2.499,0.912,4.012,1.258c3.987,0.908,8.999-9.88,2.33-12.803
	c-1.419-0.621-2.901-1.168-4.439-1.64c-5.659-1.737-11.999-2.48-18.174-2.6C144.715,0.039,144.549,0,144.355,0
	c-0.208,0-0.421,0.017-0.631,0.017C143.53,0.017,143.33,0,143.134,0c-0.182,0-0.339,0.039-0.514,0.049
	c-6.18,0.121-12.532,0.859-18.202,2.604c-1.535,0.472-3.021,1.017-4.439,1.64C113.311,7.215,118.328,18.003,122.309,17.096z"/>
<path fill="#5A595A" d="M27.763,141.879H19.3v28.012c0,0.721-0.304,1.059-1.278,1.059H11.02c-1.096,0-1.4-0.338-1.4-1.154v-27.916
	H1.217c-0.852,0-1.217-0.289-1.217-0.963v-2.936c0-0.674,0.365-1.012,1.217-1.012h26.546c0.852,0,1.218,0.338,1.218,1.012v2.936
	C28.981,141.59,28.615,141.879,27.763,141.879z"/>
<path fill="#5A595A" d="M71.417,170.949H49.498c-0.852,0-1.278-0.338-1.278-1.01V137.98c0-0.674,0.426-1.012,1.278-1.012h21.918
	c0.853,0,1.218,0.338,1.218,1.012v2.936c0,0.674-0.365,0.963-1.218,0.963H57.9v9.145h11.385c0.853,0,1.218,0.336,1.218,1.012v2.84
	c0,0.672-0.365,0.961-1.218,0.961H57.9v10.061h13.516c0.853,0,1.218,0.336,1.218,1.01v3.033
	C72.634,170.611,72.269,170.949,71.417,170.949z"/>
<path fill="#5A595A" d="M115.313,170.949H94.491c-0.853,0-1.278-0.338-1.278-1.01V137.98c0-0.674,0.426-1.012,1.278-1.012h7.185
	c0.852,0,1.218,0.338,1.218,1.012v27.916h12.42c0.853,0,1.218,0.336,1.218,1.01v3.033
	C116.531,170.611,116.166,170.949,115.313,170.949z"/>
<path fill="#5A595A" d="M156.714,170.949h-21.917c-0.854,0-1.279-0.338-1.279-1.01V137.98c0-0.674,0.426-1.012,1.279-1.012h21.917
	c0.854,0,1.219,0.338,1.219,1.012v2.936c0,0.674-0.365,0.963-1.219,0.963h-13.516v9.145h11.386c0.852,0,1.217,0.336,1.217,1.012
	v2.84c0,0.672-0.365,0.961-1.217,0.961h-11.386v10.061h13.516c0.854,0,1.219,0.336,1.219,1.01v3.033
	C157.933,170.611,157.567,170.949,156.714,170.949z"/>
<path fill="#5A595A" d="M212.058,138.799l-14.003,31.188c-0.305,0.674-0.67,0.963-1.645,0.963h-5.298
	c-0.912,0-1.339-0.289-1.643-0.963l-13.943-31.188c-0.121-0.289-0.304-0.578-0.304-0.818c0-0.674,0.426-1.012,1.278-1.012h7.61
	c0.853,0,1.278,0.242,1.522,0.916l7.367,18.914c0.853,2.117,1.217,4.812,1.217,4.812h0.123c0,0,0.486-2.742,1.339-4.812l7.55-18.914
	c0.244-0.674,0.669-0.916,1.583-0.916h6.271c0.854,0,1.219,0.338,1.219,1.012C212.302,138.221,212.18,138.51,212.058,138.799z"/>
<path fill="#5A595A" d="M239.821,170.949h-7.185c-0.853,0-1.278-0.338-1.278-1.01V137.98c0-0.674,0.426-1.012,1.278-1.012h7.185
	c0.852,0,1.217,0.338,1.217,1.012v31.959C241.038,170.611,240.673,170.949,239.821,170.949z"/>
<path fill="#5A595A" d="M276.655,171.719c-9.376,0-14.916-4.859-14.916-8.375c0-2.068,1.947-3.271,4.383-3.271
	c2.253,0,3.775,1.01,4.445,2.357c0.913,1.83,2.861,4.332,6.454,4.332c3.409,0,5.357-1.828,5.357-4.188
	c0-7.604-19.909-5.824-19.909-16.797c0-6.113,6.271-9.578,14.612-9.578c9.741,0,13.882,4.572,13.882,7.123
	c0,2.021-1.826,3.178-4.263,3.178c-2.009,0-3.409-0.963-4.14-2.262c-0.975-1.637-2.375-3.516-5.602-3.516
	c-3.044,0-5.175,1.541-5.175,4.188c0,6.932,20.335,5.055,20.335,16.846C292.12,167.58,286.458,171.719,276.655,171.719z"/>
<path fill="#5A595A" d="M321.283,170.949H314.1c-0.853,0-1.279-0.338-1.279-1.01V137.98c0-0.674,0.427-1.012,1.279-1.012h7.184
	c0.853,0,1.218,0.338,1.218,1.012v31.959C322.501,170.611,322.136,170.949,321.283,170.949z"/>
<path fill="#5A595A" d="M362.563,171.719c-10.777,0-18.997-6.305-18.997-17.904c0-11.117,7.854-17.615,18.997-17.615
	c11.142,0,18.935,6.498,18.935,17.615C381.498,165.414,373.339,171.719,362.563,171.719z M362.441,140.965
	c-5.724,0-8.768,4.668-8.768,12.369c0,8.471,3.653,13.139,9.011,13.139c5.541,0,8.768-4.717,8.768-12.514
	C371.452,145.682,368.043,140.965,362.441,140.965z"/>
<path fill="#5A595A" d="M436.537,170.949h-5.784c-0.974,0-1.339-0.289-1.826-0.914l-15.221-18.531
	c-2.01-2.453-3.775-5.967-3.775-5.967h-0.122c0,0,0.427,3.609,0.427,6.354v18.049c0,0.672-0.427,1.01-1.278,1.01h-5.298
	c-0.853,0-1.217-0.338-1.217-1.01V137.98c0-0.674,0.364-1.012,1.217-1.012h7.185c0.914,0,1.34,0.289,1.826,0.916l13.761,16.652
	c2.131,2.551,3.896,6.064,3.896,6.064h0.121c0,0-0.486-3.707-0.486-6.594V137.98c0-0.674,0.426-1.012,1.278-1.012h5.297
	c0.853,0,1.218,0.338,1.218,1.012v31.959C437.755,170.611,437.39,170.949,436.537,170.949z"/>
<path fill="#CB4E27" d="M207.494,28.361c1.812-2.603,14.788-8.636,24.473-10.306c58.468-10.104,90.912,65.215,38.947,95.219
	c-27.663,15.968-63.515-1.227-68.386-33.144c-1.516-9.919,3.495-23.238,13.02-29.448c11.457-8.232,22.392-7.341,30.264-1.362
	c5.952,4.529,14.079,17.341,7.101,23.526c-1.67,1.477-3.711,2.202-5.732,1.806c-8.021-1.555-4.93-16.341-17.218-14.531
	c-2.354,0.348-5.89,2.238-7.396,4.437c-1.775,2.577-1.95,6.077-1.397,9.595c1.752,11.281,11.122,20.968,22.204,22.571
	c7.858,1.14,15.269-0.474,22.314-5.399C305.599,62.063,252.179,1.958,207.494,28.361z"/>
</svg>
