<!DOCTYPE svg  PUBLIC '-//W3C//DTD SVG 1.1//EN'  'http://www.w3.org/Graphics/SVG/1.1/DTD/svg11.dtd' [
	<!ENTITY ns_flows "http://ns.adobe.com/Flows/1.0/">
]>
<svg enable-background="new 0 0 439 173" overflow="visible" version="1.1" viewBox="0 0 439 173" xml:space="preserve" xmlns="http://www.w3.org/2000/svg">
<path d="m71.204 115.39h-6.412c-3.203 0-5.037-1.467-5.037-4.029v-44.314c0-1.466-2.289-1.832-3.203 0l-10.529 19.044c-1.605 2.928-4.121 5.129-7.557 5.129-3.431 0-5.949-2.017-7.551-5.129l-10.53-19.044c-1.143-1.832-3.205-1.466-3.205 0v44.314c0 2.562-1.831 4.029-5.034 4.029h-6.41c-3.207 0-5.035-1.467-5.035-4.029v-76.542c0-2.563 1.828-4.029 5.035-4.029h8.93c3.204 0 5.491 1.831 6.634 4.029l15.105 29.479c0.463 0.917 1.149 1.834 2.062 1.834 0.916 0 1.604-0.918 2.059-1.834l15.112-29.479c1.141-2.198 3.432-4.029 6.635-4.029h8.931c3.203 0 5.031 1.465 5.031 4.029v76.542c-1e-3 2.562-1.829 4.029-5.031 4.029z" fill="#CB4E27"/>
<path d="m176.95 115.39h-7.557c-3.203 0-5.037-1.467-5.037-4.029v-28.2c0-2.563-1.828-4.026-5.031-4.026h-30.216c-3.205 0-5.039 1.463-5.039 4.026v28.201c0 2.562-1.828 4.029-5.035 4.029h-7.551c-3.205 0-5.039-1.467-5.039-4.029v-52.737c0-15.749 15.109-29.667 37.77-29.667s37.77 13.919 37.77 29.667v52.736c-1e-3 2.562-1.833 4.029-5.035 4.029zm-12.594-56.765c0-8.241-7.321-16.663-20.142-16.663-12.818 0-20.145 8.421-20.145 16.663v4.394c0 2.562 1.834 4.028 5.039 4.028h30.216c3.203 0 5.031-1.466 5.031-4.028v-4.394z" fill="#CB4E27"/>
<path d="m388.46 115.39h-7.56c-3.202 0-5.03-1.467-5.03-4.029v-15.564c0-8.24-7.329-16.663-20.146-16.663h-15.102c-3.216 0-5.039 1.463-5.039 4.026v28.201c0 2.562-1.833 4.029-5.039 4.029h-7.553c-3.205 0-5.038-1.467-5.038-4.029v-52.736c0-15.749 15.109-29.667 37.771-29.667 21.517 0 37.766 9.706 37.766 26.006 0 10.252-7.317 14.649-10.295 16.479-1.833 1.101-1.833 2.561 0 3.848 5.035 3.478 10.295 9.151 10.295 20.507v15.564c0 2.561-1.828 4.028-5.03 4.028zm-32.735-73.428c-12.817 0-20.141 8.421-20.141 16.663v4.394c0 2.562 1.823 4.028 5.039 4.028h15.102c5.951 0 20.146-1.832 20.146-12.084-1e-3 -8.791-9.389-13.001-20.146-13.001z" fill="#CB4E27"/>
<path d="m438.17 73.233v-38.794c0-2.562-1.824-4.031-5.034-4.031h-7.553c-3.202 0-5.037 1.469-5.037 4.031v38.141l3e-3 1e-3v38.794c0 2.563 1.832 4.027 5.034 4.027h7.553c3.21 0 5.038-1.464 5.038-4.027v-38.142h-4e-3z" fill="#CB4E27"/>
<path d="m122.31 17.096c1.518-0.346 2.637-0.895 4.014-1.258 5.512-1.464 11.559-2.068 17.402-2.111 5.859 0.039 11.92 0.646 17.443 2.111 1.374 0.367 2.499 0.912 4.012 1.258 3.987 0.908 8.999-9.88 2.33-12.803-1.419-0.621-2.901-1.168-4.439-1.64-5.659-1.737-11.999-2.48-18.174-2.6-0.182-0.014-0.348-0.053-0.542-0.053-0.208 0-0.421 0.017-0.631 0.017-0.194 0-0.394-0.017-0.59-0.017-0.182 0-0.339 0.039-0.514 0.049-6.18 0.121-12.532 0.859-18.202 2.604-1.535 0.472-3.021 1.017-4.439 1.64-6.668 2.922-1.651 13.71 2.33 12.803z" fill="#CB4E27"/>
<path d="m27.763 141.88h-8.463v28.012c0 0.721-0.304 1.059-1.278 1.059h-7.002c-1.096 0-1.4-0.338-1.4-1.154v-27.916h-8.403c-0.852 0-1.217-0.289-1.217-0.963v-2.936c0-0.674 0.365-1.012 1.217-1.012h26.546c0.852 0 1.218 0.338 1.218 1.012v2.936c0 0.673-0.366 0.962-1.218 0.962z" fill="#fff"/>
<path d="m71.417 170.95h-21.919c-0.852 0-1.278-0.338-1.278-1.01v-31.959c0-0.674 0.426-1.012 1.278-1.012h21.918c0.853 0 1.218 0.338 1.218 1.012v2.936c0 0.674-0.365 0.963-1.218 0.963h-13.516v9.145h11.385c0.853 0 1.218 0.336 1.218 1.012v2.84c0 0.672-0.365 0.961-1.218 0.961h-11.385v10.061h13.516c0.853 0 1.218 0.336 1.218 1.01v3.033c0 0.67-0.365 1.008-1.217 1.008z" fill="#fff"/>
<path d="m115.31 170.95h-20.822c-0.853 0-1.278-0.338-1.278-1.01v-31.959c0-0.674 0.426-1.012 1.278-1.012h7.185c0.852 0 1.218 0.338 1.218 1.012v27.916h12.42c0.853 0 1.218 0.336 1.218 1.01v3.033c-1e-3 0.672-0.366 1.01-1.219 1.01z" fill="#fff"/>
<path d="m156.71 170.95h-21.917c-0.854 0-1.279-0.338-1.279-1.01v-31.959c0-0.674 0.426-1.012 1.279-1.012h21.917c0.854 0 1.219 0.338 1.219 1.012v2.936c0 0.674-0.365 0.963-1.219 0.963h-13.516v9.145h11.386c0.852 0 1.217 0.336 1.217 1.012v2.84c0 0.672-0.365 0.961-1.217 0.961h-11.386v10.061h13.516c0.854 0 1.219 0.336 1.219 1.01v3.033c0 0.67-0.366 1.008-1.219 1.008z" fill="#fff"/>
<path d="m212.06 138.8-14.003 31.188c-0.305 0.674-0.67 0.963-1.645 0.963h-5.298c-0.912 0-1.339-0.289-1.643-0.963l-13.943-31.188c-0.121-0.289-0.304-0.578-0.304-0.818 0-0.674 0.426-1.012 1.278-1.012h7.61c0.853 0 1.278 0.242 1.522 0.916l7.367 18.914c0.853 2.117 1.217 4.812 1.217 4.812h0.123s0.486-2.742 1.339-4.812l7.55-18.914c0.244-0.674 0.669-0.916 1.583-0.916h6.271c0.854 0 1.219 0.338 1.219 1.012 1e-3 0.24-0.121 0.529-0.243 0.818z" fill="#fff"/>
<path d="m239.82 170.95h-7.185c-0.853 0-1.278-0.338-1.278-1.01v-31.959c0-0.674 0.426-1.012 1.278-1.012h7.185c0.852 0 1.217 0.338 1.217 1.012v31.959c0 0.672-0.365 1.01-1.217 1.01z" fill="#fff"/>
<path d="m276.66 171.72c-9.376 0-14.916-4.859-14.916-8.375 0-2.068 1.947-3.271 4.383-3.271 2.253 0 3.775 1.01 4.445 2.357 0.913 1.83 2.861 4.332 6.454 4.332 3.409 0 5.357-1.828 5.357-4.188 0-7.604-19.909-5.824-19.909-16.797 0-6.113 6.271-9.578 14.612-9.578 9.741 0 13.882 4.572 13.882 7.123 0 2.021-1.826 3.178-4.263 3.178-2.009 0-3.409-0.963-4.14-2.262-0.975-1.637-2.375-3.516-5.602-3.516-3.044 0-5.175 1.541-5.175 4.188 0 6.932 20.335 5.055 20.335 16.846 2e-3 5.824-5.66 9.963-15.463 9.963z" fill="#fff"/>
<path d="m321.28 170.95h-7.183c-0.853 0-1.279-0.338-1.279-1.01v-31.959c0-0.674 0.427-1.012 1.279-1.012h7.184c0.853 0 1.218 0.338 1.218 1.012v31.959c-1e-3 0.672-0.366 1.01-1.219 1.01z" fill="#fff"/>
<path d="m362.56 171.72c-10.777 0-18.997-6.305-18.997-17.904 0-11.117 7.854-17.615 18.997-17.615 11.142 0 18.935 6.498 18.935 17.615 0 11.599-8.159 17.904-18.935 17.904zm-0.122-30.754c-5.724 0-8.768 4.668-8.768 12.369 0 8.471 3.653 13.139 9.011 13.139 5.541 0 8.768-4.717 8.768-12.514 0-8.277-3.409-12.994-9.011-12.994z" fill="#fff"/>
<path d="m436.54 170.95h-5.784c-0.974 0-1.339-0.289-1.826-0.914l-15.221-18.531c-2.01-2.453-3.775-5.967-3.775-5.967h-0.122s0.427 3.609 0.427 6.354v18.049c0 0.672-0.427 1.01-1.278 1.01h-5.298c-0.853 0-1.217-0.338-1.217-1.01v-31.96c0-0.674 0.364-1.012 1.217-1.012h7.185c0.914 0 1.34 0.289 1.826 0.916l13.761 16.652c2.131 2.551 3.896 6.064 3.896 6.064h0.121s-0.486-3.707-0.486-6.594v-16.026c0-0.674 0.426-1.012 1.278-1.012h5.297c0.853 0 1.218 0.338 1.218 1.012v31.959c-1e-3 0.672-0.366 1.01-1.219 1.01z" fill="#fff"/>
<path d="m207.49 28.361c1.812-2.603 14.788-8.636 24.473-10.306 58.468-10.104 90.912 65.215 38.947 95.219-27.663 15.968-63.515-1.227-68.386-33.144-1.516-9.919 3.495-23.238 13.02-29.448 11.457-8.232 22.392-7.341 30.264-1.362 5.952 4.529 14.079 17.341 7.101 23.526-1.67 1.477-3.711 2.202-5.732 1.806-8.021-1.555-4.93-16.341-17.218-14.531-2.354 0.348-5.89 2.238-7.396 4.437-1.775 2.577-1.95 6.077-1.397 9.595 1.752 11.281 11.122 20.968 22.204 22.571 7.858 1.14 15.269-0.474 22.314-5.399 39.911-29.262-13.509-89.367-58.194-62.964z" fill="#CB4E27"/>
</svg>
