<svg id="b" width="664.2" height="800.44" version="1.1" viewBox="0 0 175.73 211.79" xmlns="http://www.w3.org/2000/svg">
 <defs id="c">
  <clipPath id="a">
   <path id="d" d="m149.2 187.53h15.939v10.938h-15.939z"/>
  </clipPath>
 </defs>
 <path id="e" d="m-0.00172 125.17h175.73v86.608h-175.73v-86.608" fill="#fff" stroke-width=".20272"/>
 <g id="f" fill="#231f20">
  <path id="g" d="m40.354 148.66h7.6253v32.103h-7.6253z" stroke-width=".20272"/>
  <path id="h" d="m108.55 172.66c0 1.1586 0.49654 2.0276 1.262 2.6069 0.72413 0.53792 1.7586 0.80688 2.8344 0.80688 1.469 0 3.6-0.62068 3.6-2.462 0-1.8-2.4-2.1724-3.7448-2.4827-4.7999-1.2207-10.821-1.3448-10.821-7.6344 0-5.6275 6.062-7.1585 10.634-7.1585 5.131 0 10.49 1.4896 10.758 7.5516h-7.0551c0-0.99309-0.37241-1.6138-0.99309-2.0276-0.62068-0.39309-1.4896-0.5793-2.4207-0.5793-1.262 0-3.2896 0.14483-3.2896 1.7586 0 2.1931 5.131 2.6069 8.6275 3.3724 4.7172 0.95171 5.9379 4.3655 5.9379 6.2896 0 6.2482-5.9379 8.3171-11.193 8.3171-5.5241 0-11.193-1.8414-11.421-8.3585z" stroke-width="20.689"/>
  <path id="i" d="m62.186 176.62c3.6502-0.0206 4.8395-2.0917 4.6345-6.9107-1.0663 0.67671-3.0554 0.82026-4.7165 1.2919-1.702 0.41012-3.1375 1.1484-3.1375 2.9939 0.0205 1.8866 1.5175 2.6453 3.2195 2.6248m-9.9661-12.037c0.10253-3.0555 1.538-5.0446 3.6091-6.275 2.0506-1.1894 4.7575-1.661 7.4028-1.661 5.5367-0.041 10.889 1.1484 10.93 7.7514l0.0615 10.212c0.0205 1.9891 0.041 4.1423 0.9433 5.9879l-7.6899 0.041c-0.28708-0.71773-0.36911-1.4355-0.47164-2.1942-1.9686 2.0712-4.8806 2.8914-7.6694 2.9119-4.4499 0.041-7.977-2.1942-7.9975-7.0132-0.0615-7.6079 8.2231-7.0747 13.534-8.1821 1.2919-0.26658 2.0096-0.71773 2.0096-2.1737-0.0205-1.743-2.1327-2.4198-3.7117-2.3993-2.1122 0.0206-3.4656 0.96382-3.8142 2.9529z" stroke-width="20.506"/>
  <path id="j" d="m29.481 166.08c-0.0414-1.9867-1.8005-3.3733-3.7251-3.3733-4.2838 0-4.9461 3.6423-4.9461 6.8914 0 3.0008 1.3038 6.105 4.5322 6.105 2.649 0 3.9941-1.5314 4.3666-3.9941h7.4088c-0.66224 6.2499-5.5256 9.8508-11.734 9.8508-7.0156 0-12.231-4.8219-12.231-11.962 0-7.4295 4.7184-12.727 12.231-12.727 5.8153 0 10.968 3.0422 11.506 9.2092z" stroke-width="20.695"/>
  <g id="k" transform="matrix(.97675 0 0 .97675 -186.59 99.741)">
   <path id="l" d="m321.04 58.508h7.8262v23.924h-7.8262zm7.8262-2.9905h-7.8262v-5.981h7.8262z" fill="#231f20" stroke-width="21.209"/>
  </g>
  <path id="m" d="m84.379 172.66c0 1.1586 0.49654 2.0276 1.262 2.6069 0.72413 0.53792 1.7586 0.80688 2.8344 0.80688 1.469 0 3.6-0.62068 3.6-2.462 0-1.8-2.4-2.1724-3.7448-2.4827-4.7999-1.2207-10.821-1.3448-10.821-7.6344 0-5.6275 6.062-7.1585 10.634-7.1585 5.131 0 10.49 1.4896 10.758 7.5516h-7.0551c0-0.99309-0.37241-1.6138-0.99309-2.0276-0.62068-0.39309-1.4896-0.5793-2.4207-0.5793-1.262 0-3.2896 0.14483-3.2896 1.7586 0 2.1931 5.131 2.6069 8.6275 3.3724 4.7172 0.95171 5.9379 4.3655 5.9379 6.2896 0 6.2482-5.9379 8.3171-11.193 8.3171-5.5241 0-11.193-1.8414-11.421-8.3585z" stroke-width="20.689"/>
  <path id="n" d="m154.46 166.08c-0.0414-1.9867-1.8005-3.3733-3.7251-3.3733-4.2838 0-4.9461 3.6423-4.9461 6.8914 0 3.0008 1.3038 6.105 4.5322 6.105 2.649 0 3.9941-1.5314 4.3666-3.9941h7.4088c-0.66224 6.2499-5.5256 9.8508-11.734 9.8508-7.0156 0-12.231-4.8219-12.231-11.962 0-7.4295 4.7184-12.727 12.231-12.727 5.8153 0 10.968 3.0422 11.506 9.2092z" stroke-width="20.695"/>
 </g>
 <g id="o" transform="matrix(21.209 0 0 -21.209 -3171.4 4197.6)" clip-path="url(#a)" fill="#fff">
  <g id="p" transform="translate(155.38,192.8)" fill="#fff">
   <path id="q" d="m0 0c-0.015 0.128-0.034 0.312-0.034 0.474 0 0.101 0.014 0.505 0.014 0.831 0 0.275-0.059 0.764-0.059 1.029 0 0.159 0.012 0.376-6e-3 0.452 0.127 0.083 0.239 0.136 0.59 0.348 0.113 0.069 0.33 0.185 0.33 0.325 0 0.062-0.016 0.103-0.105 0.175-0.061 0.05-0.127 0.064-0.202 0.064-0.179 0-0.26-0.18-0.41-0.271-0.229-0.14-0.35-0.209-0.397-0.235-0.019 9e-3 -0.096 0.055-0.222 0.055-0.13 0-0.283-0.059-0.283-0.229 0-0.078 0.025-0.162-0.079-0.216-0.058-0.037-0.343-0.2-0.646-0.383-0.255-0.154-0.374-0.141-0.481-0.206-0.1-0.06-0.126-0.135-0.126-0.2 0-0.058 0.037-0.13 0.049-0.146 0.069-0.088 0.13-0.136 0.238-0.136 0.183 0 0.335 0.16 0.618 0.361 0.176 0.126 0.338 0.256 0.432 0.256 0.085 0 0.144-0.064 0.144-0.326 0-0.878-0.054-1.017-0.054-1.625 0-0.11 5e-3 -0.313 8e-3 -0.397h-0.465v1.438l-0.896-0.755-0.896 0.755v-1.438h-2.903v5.116h2.826l0.973-1.023 0.973 1.023h2.841v-2.187c-0.09-0.139-0.364-0.609-0.549-1.09-0.061-0.156-0.089-0.269-0.168-0.269-0.088 0-0.095 0.085-0.103 0.163-0.018 0.168-0.056 0.483-0.074 0.598-0.033 0.224-0.077 0.461-0.327 0.461-0.185 0-0.38-0.102-0.38-0.379 0-0.156 0.08-0.429 0.216-0.787 0.053-0.142 0.338-0.888 0.379-0.996 0.075-0.198 0.179-0.252 0.342-0.252 0.207 0 0.28 0.077 0.365 0.369 0.073 0.248 0.196 0.653 0.299 0.907v-1.654zm2.437 2.839v-2.839h-0.467v2.077c0.1 0.217 0.341 0.596 0.467 0.762m-0.467 0.379v1.898l0.467-0.281v-1.039c-0.115-0.12-0.354-0.412-0.467-0.578m-3.754 1.432-0.258-0.27-0.697 0.733 0.885-0.389zm0.031-3.984h0.322l0.087 0.073v0.272zm-0.987-0.666h0.385v0.688l-0.385 0.323z" fill="#fff"/>
  </g>
 </g>
</svg>
