<svg height="243.22833pt" viewBox="0 0 470.87399 243.22833" width="470.87399pt" xmlns="http://www.w3.org/2000/svg"><g fill="#fff"><path d="m136.57423 1.1483239c12.18-2.38 25.2-1.10000004 36.47 4.21 8.27 3.91 15.52 10.7900001 18.22 19.7100001 3.15 10.2.63 21.25-3.93 30.61-3.84 7.86-10.69 14.5-19.27 16.8-11.55 3.18-23.87-.36-33.91-6.3-10.47-6.31-19.65-15.65-23.77-27.35-2.84-7.94-2.2-17.34 2.84-24.27 5.45-7.5400001 14.44-11.6100001 23.35-13.4100001"/><path d="m42.494234 44.088324c7.79-1.47 16.38.1 22.5 5.34 6.4 5.41 9.5 13.73 10.47 21.86 1.45 13.36-1.7 27.26-9 38.569996-5.09 7.85-12.96 14.37-22.38 15.96-10.71 1.87-21.45-2.4-30.1-8.49-7.2000002-5.07-12.8400002-12.88-13.77000021-21.799996-1.34999999-11.62 3.84000001-22.97 11.07000021-31.79 7.96-9.58 18.81-17.31 31.21-19.65"/><path d="m92.684234 88.758334h101.359996c9.98-.01 20.98 5.04999 24.44 15.009986l18.6 59.54 23.05-74.549986h32.56l-38.53 103.730246h-34.87l-29.36-78.0405h-32.53024v78.0405h-32.05951v-78.0405h-32.660246z"/><path d="m126.07423 213.53808h10.27359c2.20718 0 4.4067.11957 6.58641.48024 7.24 1.92 7.96 13.4 1.5 16.74-2.21731 1.08246-4.64119 1.29576-7.08841 1.29576h-5.24159l-.01 11.1645h-6.02zm6.03001 5.07v8.37h3.79812c1.42232 0 2.83799-.11402 4.21187-.49976 3.21-1.06 3.34-6.22.14-7.38-1.25069-.37568-2.54193-.49024-3.84409-.49024z"/><path d="m160.00423 213.53808h6.41l11.84 29.6805h-6.62l-2.55-6.69h-11.81l-2.43 6.69h-6.43zm-.87 17.9505h8.01l-4.05-10.91026z"/><path d="m181.85399 213.53808h5.8905l12.09975 19.76024v-19.76024h5.54025v29.6805h-6.02026l-11.90999-19.29026v19.29026h-5.60025z"/><path d="m211.84424 213.53808h7.8933c2.8229 0 5.63845-.0116 8.41669.49024 6.21 1.51 8.81 8.49 8.58 14.3.34 5.89-2.41 13.01-8.76 14.41-2.4311.45326-4.8936.46976-7.36363.46976h-8.76636zm6.03 5.061v19.614h3.8601c1.61666 0 3.22649-.0731 4.78989-.48476 3.43-1.13 3.87-5.29 3.97-8.37.06-3.5-.01-8.06-3.53-9.95-1.56334-.66141-3.23123-.80924-4.91555-.80924z"/><path d="m280.21424 213.53808h23.60025v5.09025h-8.73v24.57h-6.03v-24.57h-8.84025z"/><path d="m306.18423 213.55833 6.57-.00001 7.45 21.81 7.23-21.80999h6.42l-10.55 29.67h-6.49z"/></g><g transform="translate(-82.995766 -191.63168)"><path d="m205.35 213.5c4.72-1.9 10.29 2.51 9.52 7.54-.27 5.49-7.63 8.51-11.7 4.81-4.32-3.22-2.96-10.78 2.18-12.35z"/><path d="m130.46 245.63c4.95-1.82 10.5 3.18 9.21 8.3-.8 5.21-7.88 7.64-11.72 4.03-4.29-3.34-2.73-10.94 2.51-12.33z"/></g><g transform="translate(-82.995766 -191.63168)"><path d="m393.37 285.35c9.39-4.92 20.37-5.36 30.73-4.75 8.9.65 18.56 2.59 24.96 9.32 6.83 6.62 8.9 17.61 4.97 26.27-2.57 5.56-7.51 9.57-12.73 12.54 8.02 1.5 15.58 6.69 18.39 14.55 5.04 14.64-2.15 32.38-15.92 39.45-10.03 5.25-21.79 5.35-32.82 4.6-8.23-.6-16.59-3-22.98-8.43-6.3-5.18-10.07-12.72-12.42-20.4l28.85-3.84c1.15 5 2.56 10.73 7.27 13.57 6.41 4 15.85 1.4 18.93-5.62 2.95-6.82 2.42-16.52-4.2-21.04-5.17-3.45-11.71-2.01-17.26-.48l1.48-20.51c4.7.73 10.01.09 13.42-3.55 4.7-4.28 4.95-12.94-.37-16.8-4.51-3.01-11.26-2.52-15.11 1.36-2.68 2.88-3.45 6.88-4.17 10.61l-27.26-4.91c2.29-9.04 7.86-17.51 16.24-21.94z" fill="#00a551"/><path d="m469.77001 282.18026h84.09975v19.48974c-23.89 21.11-35.95976 52.91026-37.86976 84.22026h-28.78c2.12-15.34 5.32-30.72026 11.7-44.91026 5.67-12.46 13.49-23.80974 22.03-34.46974h-51.17999z" fill="#00a551"/></g><path d="m249.52423 213.53808h6.41l11.84 29.6805h-6.62l-2.55-6.69h-11.81l-2.43 6.69h-6.43zm-.87 17.9505h8.01l-4.05-10.91026z" fill="#fff"/></svg>