<?xml version="1.0" encoding="UTF-8" standalone="no"?>
<svg
   xmlns:dc="http://purl.org/dc/elements/1.1/"
   xmlns:cc="http://creativecommons.org/ns#"
   xmlns:rdf="http://www.w3.org/1999/02/22-rdf-syntax-ns#"
   xmlns:svg="http://www.w3.org/2000/svg"
   xmlns="http://www.w3.org/2000/svg"
   xmlns:sodipodi="http://sodipodi.sourceforge.net/DTD/sodipodi-0.dtd"
   xmlns:inkscape="http://www.inkscape.org/namespaces/inkscape"
   width="470.87399pt"
   height="243.22833pt"
   viewBox="0 0 470.87399 243.22833"
   version="1.1"
   id="svg33"
   sodipodi:docname="Panda TV.svg"
   inkscape:version="0.92.1 r15371">
  <metadata
     id="metadata39">
    <rdf:RDF>
      <cc:Work
         rdf:about="">
        <dc:format>image/svg+xml</dc:format>
        <dc:type
           rdf:resource="http://purl.org/dc/dcmitype/StillImage" />
        <dc:title></dc:title>
      </cc:Work>
    </rdf:RDF>
  </metadata>
  <defs
     id="defs37" />
  <sodipodi:namedview
     pagecolor="#ffffff"
     bordercolor="#666666"
     borderopacity="1"
     objecttolerance="10"
     gridtolerance="10"
     guidetolerance="10"
     inkscape:pageopacity="0"
     inkscape:pageshadow="2"
     inkscape:window-width="1920"
     inkscape:window-height="1017"
     id="namedview35"
     showgrid="false"
     fit-margin-top="0"
     fit-margin-left="0"
     fit-margin-right="0"
     fit-margin-bottom="0"
     inkscape:zoom="1.10625"
     inkscape:cx="373.64795"
     inkscape:cy="202.70708"
     inkscape:window-x="-8"
     inkscape:window-y="-8"
     inkscape:window-maximized="1"
     inkscape:current-layer="svg33" />
  <path
     sodipodi:nodetypes="ccccccccc"
     style="opacity:1;fill:#ffffff;fill-opacity:1"
     inkscape:connector-curvature="0"
     id="path2"
     d="m 136.57423,1.1483239 c 12.18,-2.38 25.2,-1.10000004 36.47,4.21 8.27,3.91 15.52,10.7900001 18.22,19.7100001 3.15,10.2 0.63,21.25 -3.93,30.61 -3.84,7.86 -10.69,14.5 -19.27,16.8 -11.55,3.18 -23.87,-0.36 -33.91,-6.3 -10.47,-6.31 -19.65,-15.65 -23.77,-27.35 -2.84,-7.94 -2.2,-17.34 2.84,-24.27 5.45,-7.5400001 14.44,-11.6100001 23.35,-13.4100001" />
  <path
     sodipodi:nodetypes="ccccccccc"
     style="opacity:1;fill:#ffffff;fill-opacity:1"
     inkscape:connector-curvature="0"
     id="path4"
     d="m 42.494234,44.088324 c 7.79,-1.47 16.38,0.1 22.5,5.34 6.4,5.41 9.5,13.73 10.47,21.86 1.45,13.36 -1.7,27.26 -9,38.569996 -5.09,7.85 -12.96,14.37 -22.38,15.96 -10.71,1.87 -21.45,-2.4 -30.1,-8.49 -7.2000002,-5.07 -12.8400002,-12.88 -13.77000021,-21.799996 -1.34999999,-11.62 3.84000001,-22.97 11.07000021,-31.79 7.96,-9.58 18.81,-17.31 31.21,-19.65" />
  <path
     sodipodi:nodetypes="ccccccccccccccc"
     style="opacity:1;fill:#ffffff;fill-opacity:1"
     inkscape:connector-curvature="0"
     id="path6"
     d="M 92.684234,88.758334 H 194.04423 c 9.98,-0.01 20.98,5.04999 24.44,15.009986 l 18.6,59.54 23.05,-74.549986 h 32.56 l -38.53,103.730246 h -34.87 l -29.36,-78.0405 h -32.53024 v 78.0405 h -32.05951 v -78.0405 H 92.684234 Z" />
  <path
     sodipodi:nodetypes="csccsccccccsccsc"
     style="opacity:1;fill:#ffffff;fill-opacity:1"
     inkscape:connector-curvature="0"
     id="path8"
     d="m 126.07423,213.53808 h 10.27359 c 2.20718,0 4.4067,0.11957 6.58641,0.48024 7.24,1.92 7.96,13.4 1.5,16.74 -2.21731,1.08246 -4.64119,1.29576 -7.08841,1.29576 h -5.24159 l -0.01,11.1645 h -6.02 v -29.6805 m 6.03001,5.07 v 8.37 h 3.79812 c 1.42232,0 2.83799,-0.11402 4.21187,-0.49976 3.21,-1.06 3.34,-6.22 0.14,-7.38 -1.25069,-0.37568 -2.54193,-0.49024 -3.84409,-0.49024 z" />
  <path
     sodipodi:nodetypes="ccccccccccccc"
     style="opacity:1;fill:#ffffff;fill-opacity:1"
     inkscape:connector-curvature="0"
     id="path10"
     d="m 160.00423,213.53808 h 6.41 l 11.84,29.6805 h -6.62 l -2.55,-6.69 h -11.81 l -2.43,6.69 h -6.43 l 11.59,-29.6805 m -0.87,17.9505 h 8.01 l -4.05,-10.91026 z" />
  <path
     style="opacity:1;fill:#ffffff;fill-opacity:1"
     inkscape:connector-curvature="0"
     id="path12"
     d="m 181.85399,213.53808 h 5.8905 l 12.09975,19.76024 v -19.76024 h 5.54025 v 29.6805 h -6.02026 l -11.90999,-19.29026 v 19.29026 h -5.60025 z"
     sodipodi:nodetypes="ccccccccccc" />
  <path
     sodipodi:nodetypes="cscccsccccscccsc"
     style="opacity:1;fill:#ffffff;fill-opacity:1"
     inkscape:connector-curvature="0"
     id="path14"
     d="m 211.84424,213.53808 h 7.8933 c 2.8229,0 5.63845,-0.0116 8.41669,0.49024 6.21,1.51 8.81,8.49 8.58,14.3 0.34,5.89 -2.41,13.01 -8.76,14.41 -2.4311,0.45326 -4.8936,0.46976 -7.36363,0.46976 h -8.76636 v -29.67 m 6.03,5.061 v 19.614 h 3.8601 c 1.61666,0 3.22649,-0.0731 4.78989,-0.48476 3.43,-1.13 3.87,-5.29 3.97,-8.37 0.06,-3.5 -0.01,-8.06 -3.53,-9.95 -1.56334,-0.66141 -3.23123,-0.80924 -4.91555,-0.80924 z" />
  <path
     style="opacity:1;fill:#ffffff;fill-opacity:1"
     inkscape:connector-curvature="0"
     id="path18"
     d="m 280.21424,213.53808 h 23.60025 v 5.09025 h -8.73 v 24.57 h -6.03 v -24.57 h -8.84025 z"
     sodipodi:nodetypes="ccccccccc" />
  <path
     style="opacity:1;fill:#ffffff;fill-opacity:1"
     inkscape:connector-curvature="0"
     id="path20"
     d="m 306.18423,213.55833 6.57,-1e-5 7.45,21.81 7.23,-21.80999 h 6.42 l -10.55,29.67 h -6.49 z"
     sodipodi:nodetypes="cccccccc" />
  <g
     id="#ffffffff"
     transform="translate(-82.995766,-191.63168)"
     style="fill:#000000;fill-opacity:1">
    <path
       d="m 205.35,213.5 c 4.72,-1.9 10.29,2.51 9.52,7.54 -0.27,5.49 -7.63,8.51 -11.7,4.81 -4.32,-3.22 -2.96,-10.78 2.18,-12.35 z"
       id="path23"
       inkscape:connector-curvature="0"
       style="opacity:1;fill:#000000;fill-opacity:1" />
    <path
       d="m 130.46,245.63 c 4.95,-1.82 10.5,3.18 9.21,8.3 -0.8,5.21 -7.88,7.64 -11.72,4.03 -4.29,-3.34 -2.73,-10.94 2.51,-12.33 z"
       id="path25"
       inkscape:connector-curvature="0"
       style="opacity:1;fill:#000000;fill-opacity:1" />
  </g>
  <g
     id="#00a551ff"
     transform="translate(-82.995766,-191.63168)">
    <path
       d="m 393.37,285.35 c 9.39,-4.92 20.37,-5.36 30.73,-4.75 8.9,0.65 18.56,2.59 24.96,9.32 6.83,6.62 8.9,17.61 4.97,26.27 -2.57,5.56 -7.51,9.57 -12.73,12.54 8.02,1.5 15.58,6.69 18.39,14.55 5.04,14.64 -2.15,32.38 -15.92,39.45 -10.03,5.25 -21.79,5.35 -32.82,4.6 -8.23,-0.6 -16.59,-3 -22.98,-8.43 -6.3,-5.18 -10.07,-12.72 -12.42,-20.4 l 28.85,-3.84 c 1.15,5 2.56,10.73 7.27,13.57 6.41,4 15.85,1.4 18.93,-5.62 2.95,-6.82 2.42,-16.52 -4.2,-21.04 -5.17,-3.45 -11.71,-2.01 -17.26,-0.48 l 1.48,-20.51 c 4.7,0.73 10.01,0.09 13.42,-3.55 4.7,-4.28 4.95,-12.94 -0.37,-16.8 -4.51,-3.01 -11.26,-2.52 -15.11,1.36 -2.68,2.88 -3.45,6.88 -4.17,10.61 l -27.26,-4.91 c 2.29,-9.04 7.86,-17.51 16.24,-21.94 z"
       id="path28"
       inkscape:connector-curvature="0"
       style="opacity:1;fill:#00a551"
       sodipodi:nodetypes="cccccccccccccccccccccc" />
    <path
       d="m 469.77001,282.18026 h 84.09975 V 301.67 C 529.97976,322.78 517.91,354.58026 516,385.89026 h -28.78 c 2.12,-15.34 5.32,-30.72026 11.7,-44.91026 5.67,-12.46 13.49,-23.80974 22.03,-34.46974 h -51.17999 z"
       id="path30"
       inkscape:connector-curvature="0"
       style="opacity:1;fill:#00a551"
       sodipodi:nodetypes="ccccccccc" />
  </g>
  <path
     sodipodi:nodetypes="ccccccccccccc"
     style="opacity:1;fill:#ffffff;stroke-width:0.99999994;fill-opacity:1"
     inkscape:connector-curvature="0"
     id="path10-3"
     d="m 249.52423,213.53808 h 6.41 l 11.84,29.6805 h -6.62 l -2.55,-6.69 h -11.81 l -2.43,6.69 h -6.43 l 11.59,-29.6805 m -0.87,17.9505 h 8.01 l -4.05,-10.91026 z" />
</svg>
