<?xml version="1.0" encoding="UTF-8"?>
<svg id="svg33" width="470.87pt" height="243.23pt" version="1.1" viewBox="0 0 470.87 243.23" xmlns="http://www.w3.org/2000/svg" xmlns:cc="http://creativecommons.org/ns#" xmlns:dc="http://purl.org/dc/elements/1.1/" xmlns:rdf="http://www.w3.org/1999/02/22-rdf-syntax-ns#">
 <metadata id="metadata39">
  <rdf:RDF>
   <cc:Work rdf:about="">
    <dc:format>image/svg+xml</dc:format>
    <dc:type rdf:resource="http://purl.org/dc/dcmitype/StillImage"/>
    <dc:title/>
   </cc:Work>
  </rdf:RDF>
 </metadata>
 <path id="path2" d="m136.57 1.1483c12.18-2.38 25.2-1.1 36.47 4.21 8.27 3.91 15.52 10.79 18.22 19.71 3.15 10.2 0.63 21.25-3.93 30.61-3.84 7.86-10.69 14.5-19.27 16.8-11.55 3.18-23.87-0.36-33.91-6.3-10.47-6.31-19.65-15.65-23.77-27.35-2.84-7.94-2.2-17.34 2.84-24.27 5.45-7.54 14.44-11.61 23.35-13.41"/>
 <path id="path4" d="m42.494 44.088c7.79-1.47 16.38 0.1 22.5 5.34 6.4 5.41 9.5 13.73 10.47 21.86 1.45 13.36-1.7 27.26-9 38.57-5.09 7.85-12.96 14.37-22.38 15.96-10.71 1.87-21.45-2.4-30.1-8.49-7.2-5.07-12.84-12.88-13.77-21.8-1.35-11.62 3.84-22.97 11.07-31.79 7.96-9.58 18.81-17.31 31.21-19.65"/>
 <path id="path6" d="m92.684 88.758h101.36c9.98-0.01 20.98 5.05 24.44 15.01l18.6 59.54 23.05-74.55h32.56l-38.53 103.73h-34.87l-29.36-78.04h-32.53v78.04h-32.06v-78.04h-32.66z"/>
 <path id="path8" d="m126.07 213.54h10.274c2.2072 0 4.4067 0.11957 6.5864 0.48024 7.24 1.92 7.96 13.4 1.5 16.74-2.2173 1.0825-4.6412 1.2958-7.0884 1.2958h-5.2416l-0.01 11.164h-6.02v-29.68m6.03 5.07v8.37h3.7981c1.4223 0 2.838-0.11402 4.2119-0.49976 3.21-1.06 3.34-6.22 0.14-7.38-1.2507-0.37568-2.5419-0.49024-3.8441-0.49024z"/>
 <path id="path10" d="m160 213.54h6.41l11.84 29.68h-6.62l-2.55-6.69h-11.81l-2.43 6.69h-6.43l11.59-29.68m-0.87 17.95h8.01l-4.05-10.91z"/>
 <path id="path12" d="m181.85 213.54h5.8905l12.1 19.76v-19.76h5.5402v29.68h-6.0203l-11.91-19.29v19.29h-5.6002z"/>
 <path id="path14" d="m211.84 213.54h7.8933c2.8229 0 5.6384-0.0116 8.4167 0.49024 6.21 1.51 8.81 8.49 8.58 14.3 0.34 5.89-2.41 13.01-8.76 14.41-2.4311 0.45326-4.8936 0.46976-7.3636 0.46976h-8.7664v-29.67m6.03 5.061v19.614h3.8601c1.6167 0 3.2265-0.0731 4.7899-0.48476 3.43-1.13 3.87-5.29 3.97-8.37 0.06-3.5-0.01-8.06-3.53-9.95-1.5633-0.66141-3.2312-0.80924-4.9156-0.80924z"/>
 <path id="path18" d="m280.21 213.54h23.6v5.0902h-8.73v24.57h-6.03v-24.57h-8.8402z"/>
 <path id="path20" d="m306.18 213.56 6.57-1e-5 7.45 21.81 7.23-21.81h6.42l-10.55 29.67h-6.49z"/>
 <g id="#ffffffff" transform="translate(-82.996 -191.63)" fill="#fff">
  <path id="path23" d="m205.35 213.5c4.72-1.9 10.29 2.51 9.52 7.54-0.27 5.49-7.63 8.51-11.7 4.81-4.32-3.22-2.96-10.78 2.18-12.35z"/>
  <path id="path25" d="m130.46 245.63c4.95-1.82 10.5 3.18 9.21 8.3-0.8 5.21-7.88 7.64-11.72 4.03-4.29-3.34-2.73-10.94 2.51-12.33z"/>
 </g>
 <g id="#00a551ff" transform="translate(-82.996 -191.63)" fill="#00a551">
  <path id="path28" d="m393.37 285.35c9.39-4.92 20.37-5.36 30.73-4.75 8.9 0.65 18.56 2.59 24.96 9.32 6.83 6.62 8.9 17.61 4.97 26.27-2.57 5.56-7.51 9.57-12.73 12.54 8.02 1.5 15.58 6.69 18.39 14.55 5.04 14.64-2.15 32.38-15.92 39.45-10.03 5.25-21.79 5.35-32.82 4.6-8.23-0.6-16.59-3-22.98-8.43-6.3-5.18-10.07-12.72-12.42-20.4l28.85-3.84c1.15 5 2.56 10.73 7.27 13.57 6.41 4 15.85 1.4 18.93-5.62 2.95-6.82 2.42-16.52-4.2-21.04-5.17-3.45-11.71-2.01-17.26-0.48l1.48-20.51c4.7 0.73 10.01 0.09 13.42-3.55 4.7-4.28 4.95-12.94-0.37-16.8-4.51-3.01-11.26-2.52-15.11 1.36-2.68 2.88-3.45 6.88-4.17 10.61l-27.26-4.91c2.29-9.04 7.86-17.51 16.24-21.94z"/>
  <path id="path30" d="m469.77 282.18h84.1v19.49c-23.89 21.11-35.96 52.91-37.87 84.22h-28.78c2.12-15.34 5.32-30.72 11.7-44.91 5.67-12.46 13.49-23.81 22.03-34.47h-51.18z"/>
 </g>
 <path id="path10-3" d="m249.52 213.54h6.41l11.84 29.68h-6.62l-2.55-6.69h-11.81l-2.43 6.69h-6.43l11.59-29.68m-0.87 17.95h8.01l-4.05-10.91z"/>
</svg>
