<svg height="74.051704pt" viewBox="0 0 508.1597 74.051704" width="508.1597pt" xmlns="http://www.w3.org/2000/svg"><g transform="translate(-64.74 -260.9583)"><path d="m552.76 275.28c-2.81-6.3 2.27-14.25 9.17-14.29 6.07-.51 10.8 5.22 10.96 10.94.16 7.12-1.68 14.14-4.11 20.77-4.94 14.61-12.58 28.07-18.41 42.31-2.04 0-4.06-.02-6.07-.02-5.09-12.3-10.29-24.55-15.37-36.86-1.33-3.04-2.43-7.02-6.07-7.99-4.1-.81-8.33-.24-12.48-.38.03 12.71-.08 25.43.04 38.15-.26 3.76 4.35 3.27 6.83 3.55v3.54c-8.05-.01-16.11.01-24.16-.01.05-1.18.06-2.36.04-3.53 2.5-.31 6.85.24 6.75-3.43.29-12.75.03-25.52.12-38.28-5.33.18-10.72-.45-15.99.4-1.91.31-1.89 2.6-2.63 3.96-1.26 0-2.51 0-3.76.02 0-2.71 0-5.42 0-8.13h65.13c-.01 1.17.01 2.33.03 3.51-1.57.46-3.83.04-4.78 1.67-.01 1.91.76 3.7 1.4 5.47 2.81 7.29 5.48 14.64 8.22 21.97 3.81-8.09 8.18-15.9 12.04-23.97 1.95-4 3.28-8.27 3.98-12.66-4.49-.11-9.25-2.25-10.88-6.71z" fill="#2e9970"/><g fill="#fff"><path d="m64.74 278.88c7.75.01 15.49-.03 23.23-.01 5.58.06 11.53 1.55 15.53 5.66 4.84 5.03 4.69 13.38 1.1 19.07-4.18 6.67-13.81 9.32-20.75 5.62-2.91-1.73-1.21-6.75 2.16-6.22 2.85.09 3.14 3.32 3.15 5.49 2.28-.5 4.88-1.05 6.07-3.31 2.87-5.05 3.11-11.64.53-16.84-2.26-4.76-8.19-7.17-13.16-5.71-2.75 1.3-2.24 4.84-2.38 7.34.16 12.65-.18 25.32.16 37.96.08 3.12 3.82 2.83 6 3.18 0 .67-.02 1.99-.03 2.65-7.2-.03-14.4-.01-21.6-.01 0-.65 0-1.95.01-2.6 2.1-.37 5.63-.29 5.76-3.22.19-13.92.15-27.87.02-41.8.09-3.12-3.4-3.77-5.77-4.19-.01-.76-.02-2.3-.03-3.06z"/><path d="m184.88 281.99c4.81-.12 9.56-1 14.01-2.83-.06 14.92.03 29.85-.05 44.77.04 1.62-.04 3.3.45 4.87 1.07 1.94 3.67 1.59 5.51 2.15-.04.59-.13 1.77-.18 2.37-6.41-.13-12.83-.06-19.25-.06.03-.79.04-1.58.04-2.36 2.3-.43 6.22-.43 5.88-3.82.24-12.01-.02-24.03.12-36.05-.13-1.83.24-3.96-.97-5.5-1.66-1.03-3.72-.89-5.57-1.22 0-.58.01-1.74.01-2.32z"/><path d="m446.56 280.24c1.02.01 2.04.01 3.06.01 0 5.29 0 10.58.01 15.87 3.28 0 6.57 0 9.87.01.01.71.02 2.14.03 2.85-3.3.02-6.61.02-9.91.03.03 7.99-.05 15.97.01 23.96-.1 2.39.68 5.42 3.34 6.06 3.09.74 5.3-2 7.34-3.81.47.43 1.4 1.27 1.87 1.69-2.03 2.37-4.05 5.02-7.09 6.11-3.41 1.23-7.75 1.03-10.38-1.71-2.12-2.19-2.51-5.4-2.53-8.31 0-7.99.23-15.98.21-23.97-1.71-.03-3.4-.07-5.09-.13.84-2.95 4.45-3.14 6.09-5.44 3-3.71 2.77-8.73 3.17-13.22z"/><path d="m218.4 281.29c2.77-2.31 7.51.1 7.26 3.69.26 3.3-3.71 5.65-6.57 4.14-3.03-1.33-3.42-5.98-.69-7.83z"/><path d="m120.48 295.75c4.35-.96 9.03-.94 13.24.6 3.18 1.15 6.14 3.91 6.21 7.5.35 7.72-.28 15.47.25 23.18.02 1.31 1.41 2.95 2.81 2.27 2.15-.33 2.6-2.84 3.57-4.39.66-.01 1.99-.01 2.65-.02-1.17 3.62-2.93 8.02-7.26 8.59-4.2 1.08-8.54-1.48-9.33-5.79-3.03 2.73-6.45 5.42-10.65 5.87-3.82.52-8.28-.92-10.01-4.61-2.14-4.78-1.03-11.5 3.87-14.16 5.21-2.8 11.33-2.95 16.82-5.02-.07-2.65.19-5.37-.49-7.95-1.25-3.82-6.3-4.69-9.58-3.18-2.74 1.31-2.42 4.79-3.79 7.11-2.2 2.35-7.93 1.12-7.01-2.77 1.04-3.95 4.96-6.32 8.7-7.23m1.08 20.83c-4.02 2.39-4.15 9.66.55 11.35 3.79 1.5 7.54-.84 10.54-2.97-.04-4.14-.03-8.28-.02-12.42-3.67 1.36-7.67 2-11.07 4.04z"/><path d="m164.99 295.29c.53 2.2.92 4.42 1.35 6.64 3-3.28 6.86-6.8 11.69-6.06 3.76.09 5.8 5.61 2.65 7.87-2.76 1.59-4.56-1.78-6.67-2.93-3.22-.6-5.42 2.23-7.43 4.22.1 6.65.01 13.3.02 19.95.19 1.49-.24 3.32.86 4.53 1.87 1.02 4.1.99 6.15 1.35v2.4c-6.81-.02-13.61-.01-20.42-.01.04-.59.12-1.77.16-2.36 2.27-.47 6.17-.48 5.72-3.83.02-7.69.28-15.41-.14-23.08-.26-3.16-4.34-2.4-6.48-2.98.15-.53.46-1.61.61-2.15 4.03-.98 8.15-1.73 11.93-3.56z"/><path d="m242.93 296.95c4.72-2.2 10.25-2.32 15.24-1.04 3.7.97 7.48 3.87 7.53 8.01.21 7-.09 14.02.07 21.03.1 1.67.05 4.05 2.14 4.48 2.64.19 3.4-2.73 4.47-4.53.65 0 1.96-.01 2.61-.01-1.16 3.91-3.37 8.55-8.08 8.71-4.05.75-7.67-1.98-8.51-5.9-4.06 3.94-9.81 7.3-15.63 5.45-7.95-2.27-8.01-14.89-1.05-18.43 5.18-2.73 11.23-2.9 16.68-4.9-.1-2.85.32-5.83-.69-8.55-1.55-3.36-6.1-3.99-9.22-2.7-2.78 1.22-2.61 4.72-3.85 7.06-1.9 2.17-6.86 1.67-7.19-1.62.12-3.23 2.78-5.68 5.48-7.06m4.6 19.51c-3.96 2.24-4.5 9.01-.24 11.21 3.91 2 8.03-.5 11.23-2.7-.04-4.16-.02-8.31-.02-12.46-3.64 1.34-7.57 2.01-10.97 3.95z"/><path d="m278.91 298.85c4.05-.95 8.15-1.78 11.94-3.56.4 1.74.8 3.47 1.19 5.22 4.9-3.82 11.27-6.49 17.53-4.81 2.85.61 4.82 2.89 6.59 5.04 4.97-4.07 11.65-6.83 18.08-4.93 3.72.95 6.75 4.25 6.86 8.17.48 7.98-.15 16 .25 23.99-.03 3.79 6.38 1.15 6.17 5.24-6.51.08-13.02.02-19.52.04 0-.58.01-1.73.01-2.3 1.98-.56 5.62-.07 5.73-2.99.36-5.97.02-11.96.16-17.94-.05-3.12.18-7.1-2.91-8.94-4.7-3.06-10.53-.56-14.26 2.87.32 7.37.04 14.74.15 22.12.13 1.32-.13 3.09 1.2 3.92 1.5.57 3.09.7 4.66 1v2.26c-6.41 0-12.83 0-19.24 0 0-.57.01-1.71.01-2.28 1.98-.6 5.75-.04 5.85-3.01.37-5.98.01-11.99.17-17.98.04-3.29.02-7.48-3.37-9.2-4.68-2.48-10.07-.16-13.68 3.13.19 8.05-.27 16.13.2 24.18.34 2.69 3.77 2.19 5.68 2.86 0 .58.01 1.72.02 2.3-6.54-.01-13.07.04-19.61-.04-.3-4.07 5.86-1.54 6.15-5.23.36-7.99.33-16.03.01-24.01-.26-3.24-4.42-2.36-6.6-2.8.15-.58.43-1.74.58-2.32z"/><path d="m354.64 301.69c5.57-7.61 18.05-8.96 24.74-2.13 3.68 3.54 4.67 8.79 4.93 13.69-8.66.05-17.31-.1-25.96.08-.0545 3.56117.22 9.44 3.05 13.23 2.94 4.09 8.86 5.06 13.34 3.17 2.8-1.15 4.7-3.62 6.67-5.79.59.34 1.77 1.02 2.35 1.36-2.1 2.96-4.35 6.08-7.75 7.63-7.96 3.62-18.68.97-23.07-6.87-3.99-7.51-3.37-17.5 1.7-24.37m6.84-.29c-1.9 2.5-2.4897 5.70004-2.87 8.71 5.8.02 11.6.01 17.4 0 .0246-2.94985-.13-5.92-1.72-8.42-2.75-4.24-9.84-4.32-12.81-.29z"/><path d="m402.71 300.56c4.37-3.38 9.71-6.02 15.39-5.37 4.4.22 8.8 3.36 9.43 7.9.93 8.61-.18 17.32.56 25.93 1.2 1.86 3.79 1.4 5.65 1.97v2.26c-6.46 0-12.92-.01-19.38.01.04-.79.05-1.58.04-2.36 1.93-.71 5.57-.02 5.83-2.85.4-6.02.01-12.06.17-18.09-.03-3.23.05-7.36-3.18-9.17-4.79-2.78-10.45-.17-14.13 3.24.21 7.93-.25 15.88.21 23.8.23 2.92 3.9 2.5 5.93 3.11.01.58.02 1.73.03 2.31-6.47 0-12.93 0-19.39 0 .01-.57.01-1.7.02-2.27 1.99-.55 5.59-.17 5.78-3.04.51-6.3.04-12.65.23-18.97-.16-2.28.41-4.89-.92-6.9-1.79-.97-3.94-.73-5.88-1.03.14-.59.43-1.77.57-2.36 4.02-.93 8.11-1.65 11.9-3.36.38 1.74.78 3.48 1.14 5.24z"/><path d="m211.25 298.65c4.77-.41 9.48-1.42 13.89-3.34.08 10.87-.21 21.75.12 32.61.36 3.6 6.68.99 6.05 5.31-6.56.05-13.12.01-19.67.02-.01-.63-.02-1.87-.03-2.5 2.22-.49 6.31-.3 5.98-3.64 0-7.66.22-15.34-.12-22.99-.25-3.09-4.02-2.56-6.22-2.92 0-.86 0-1.71 0-2.55z"/></g><path d="m551.44 283.56c3.26-1.29 7.09 2.06 5.88 5.47-.84 3.32-5.75 4.27-7.8 1.56-2.02-2.21-.91-6.14 1.92-7.03z" fill="#bfc8c0"/></g></svg>