<?xml version="1.0" encoding="UTF-8"?>
<svg id="svg2" width="49.574pt" height="35.486pt" version="1.1" viewBox="0 0 49.574 35.486" xmlns="http://www.w3.org/2000/svg" xmlns:cc="http://creativecommons.org/ns#" xmlns:dc="http://purl.org/dc/elements/1.1/" xmlns:rdf="http://www.w3.org/1999/02/22-rdf-syntax-ns#" xmlns:xlink="http://www.w3.org/1999/xlink">
 <metadata id="metadata64624">
  <rdf:RDF>
   <cc:Work rdf:about="">
    <dc:format>image/svg+xml</dc:format>
    <dc:type rdf:resource="http://purl.org/dc/dcmitype/StillImage"/>
    <dc:title/>
   </cc:Work>
  </rdf:RDF>
 </metadata>
 <defs id="defs4"></defs>
 <g id="g4165" transform="matrix(.24787 0 0 -.24787 -31.322 153.5)">
  <rect id="rect4134" transform="scale(1,-1)" x="180.06" y="-600.85" width="95" height="30.6" ry="0" fill="#fff" stroke="#fff" stroke-width=".8"/>
  <path id="path52" transform="matrix(1.4473 0 0 1.4473 -76.524 -242.31)" d="m223.46 561.27 19.251 19.252h-8.347l-4.173-4.174-4.173 4.174h-8.347l-6.732-6.732 1.678 6.732h-20.796c-2.681-3e-3 -5.066-2.145-5.066-4.838 0-1.285 0.507-2.457 1.312-3.326l4.011-3.964c0.27-0.278 0.4-0.611 0.396-0.888 4e-3 -0.661-0.389-1.168-1.429-1.168h-8.445l-1.272-5.068h14.102c2.681 0 5.083 2.119 5.086 4.814-3e-3 1.283-0.507 2.461-1.321 3.326l-4.06 4.022c-0.225 0.23-0.352 0.552-0.352 0.83 0 0.662 0.444 1.195 1.24 1.191l8.593 1e-3 -3.535-14.184h6.737l1.455 5.838 5.839-5.838zm54.905 34.005-69.091-69.1-69.093 69.1zm-56.521-18.927 4.174-4.174-6.732-6.731-4.174 4.173z" fill="#00babe"/>
 </g>
 <g id="#211e1eff-4" transform="matrix(.024788 0 0 .024788 -6.1974 24.699)" fill="#211e1e">
  <path id="path2-4" d="m2028.1 64.55 82.46 173.49 55.77-169.86 83.61-0.16-125.56 367.04-96.31-208.28-95.6 208.31-126.25-367.04 83.89-0.11 56.2 170.09z"/>
  <path id="path4-7" d="m250.02 68.01 122.99 0.02c28.8 0.33 57.15 11.26 79.04 29.9 18.32 15.38 30.67 36.91 37.46 59.65 7.7 27.29 5.93 57.33-5.67 83.27-7.59 17.65-19 33.84-33.96 46-20.53 16.63-46.36 26.83-72.81 27.88-15.08 0.49-30.17 0.03-45.25 0.27l-0.1 116.59-81.58 0.02-0.12-363.6m81.81 76.7-0.01 93.53c12.71 0.19 25.43 0.09 38.15 0.05 9.66-0.02 19.3-3.34 26.67-9.64 12-10.07 20-25.82 18.41-41.7-1.23-13.56-8.94-26.16-19.84-34.16-7.53-5.55-16.92-8.25-26.23-8.18-12.38 0.05-24.77-0.13-37.15 0.1z"/>
  <path id="path6-2" d="m525.12 68.05 134.88-0.06c23.85-0.65 47.49 7.41 66.84 21.16 15.68 11.23 27.67 27.21 34.97 45 14.34 32.69 10.66 72.63-9.71 101.99-12.29 18.86-30.88 33.19-51.9 41.07l117.91 154.31-97.43-0.09-113.55-147.81-0.31 147.98h-81.6l-0.1-363.55m81.88 74.87 0.01 72.01c11.66 0.03 23.32-0.01 34.99 0.01 8.02-0.1 16.27 0.61 24.03-1.87 14.49-4.38 25.18-18.91 24.94-34.07 0.43-18.72-16.35-35.56-34.91-36.01-16.35-0.26-32.71-0.12-49.06-0.07z"/>
  <path id="path8-7" d="m835.06 68.04 225.25-0.02-0.26 80.68-143.12-0.01v61.55l112.99 0.03 0.09 78.86-113.02 0.06-0.06 61.07 143.18 0.01-0.07 81.36-224.86-0.03z"/>
  <path id="path10-63" d="m1065.8 68.05 91.21-0.05 80.08 181.25 80.86-181.26 90.8 0.07-171.57 367.09z"/>
  <path id="path12-3-3" d="m1428 68.02 81.74 0.08 0.04 363.06-81.79 0.22z"/>
  <path id="path14-1" d="m1568.2 68.08 225.42 0.05-0.05 80.48-143.57 0.08 0.01 61.55 113.01 0.04 0.13 78.86-113.11 0.04-0.03 61.07 143.57 0.1-0.03 81.21-225.27 0.02z"/>
 </g>
</svg>
