<svg height="35.485775pt" viewBox="0 0 49.574398 35.485776" width="49.574398pt" xmlns="http://www.w3.org/2000/svg"><path d="m13.310724055673 4.563580472767h23.547842932976v7.5848897028h-23.547842932976z" fill="#fff" stroke="#fff" stroke-width=".198297608"/><path d="m223.4571 561.2707 19.251 19.252h-8.347l-4.173-4.174-4.173 4.174h-8.347l-6.732-6.732 1.678 6.732h-20.796c-2.681-.003-5.066-2.145-5.066-4.838 0-1.285.507-2.457 1.312-3.326l4.011-3.964c.27-.278.4-.611.396-.888.004-.661-.389-1.168-1.429-1.168h-8.445l-1.272-5.068h14.102c2.681 0 5.083 2.119 5.086 4.814-.003 1.283-.507 2.461-1.321 3.326l-4.06 4.022c-.225.23-.352.552-.352.83 0 .662.444 1.195 1.24 1.191l8.593.001-3.535-14.184h6.737l1.455 5.838 5.839-5.838zm54.90524 34.00452-69.09124-69.09952-69.09252 69.09952zm-56.52124-18.92652 4.174-4.174-6.732-6.731-4.174 4.173z" fill="#00babe" transform="matrix(.358757057929 0 0 -.358757057929 -50.290054503927 213.559183307561)"/><g fill="#211e1e" transform="matrix(.02478799 0 0 .02478799 -6.197416 24.699282)"><path d="m2028.11 64.55 82.46 173.49 55.77-169.86 83.61-.16-125.56 367.04-96.31-208.28-95.6 208.31-126.25-367.04 83.89-.11 56.2 170.09z"/><path d="m250.02 68.01 122.99.02c28.8.33 57.15 11.26 79.04 29.9 18.32 15.38 30.67 36.91 37.46 59.65 7.7 27.29 5.93 57.33-5.67 83.27-7.59 17.65-19 33.84-33.96 46-20.53 16.63-46.36 26.83-72.81 27.88-15.08.49-30.17.03-45.25.27l-.1 116.59-81.58.02zm81.81 76.7-.01 93.53c12.71.19 25.43.09 38.15.05 9.66-.02 19.3-3.34 26.67-9.64 12-10.07 20-25.82 18.41-41.7-1.23-13.56-8.94-26.16-19.84-34.16-7.53-5.55-16.92-8.25-26.23-8.18-12.38.05-24.77-.13-37.15.1z"/><path d="m525.12 68.05 134.88-.06c23.85-.65 47.49 7.41 66.84 21.16 15.68 11.23 27.67 27.21 34.97 45 14.34 32.69 10.66 72.63-9.71 101.99-12.29 18.86-30.88 33.19-51.9 41.07l117.91 154.31-97.43-.09-113.55-147.81-.31 147.98h-81.6zm81.88 74.87.01 72.01c11.66.03 23.32-.01 34.99.01 8.02-.1 16.27.61 24.03-1.87 14.49-4.38 25.18-18.91 24.94-34.07.43-18.72-16.35-35.56-34.91-36.01-16.35-.26-32.71-.12-49.06-.07z"/><path d="m835.06 68.04 225.25-.02-.26 80.68-143.12-.01v61.55l112.99.03.09 78.86-113.02.06-.06 61.07 143.18.01-.07 81.36-224.86-.03z"/><path d="m1065.82 68.05 91.21-.05 80.08 181.25 80.86-181.26 90.8.07-171.57 367.09z"/><path d="m1427.98 68.02 81.74.08.04 363.06-81.79.22z"/><path d="m1568.24 68.08 225.42.05-.05 80.48-143.57.08.01 61.55 113.01.04.13 78.86-113.11.04-.03 61.07 143.57.1-.03 81.21-225.27.02z"/></g></svg>