<svg width="49.575pt" height="39.904pt" version="1.1" viewBox="0 0 49.575 39.904" xmlns="http://www.w3.org/2000/svg">
 <g transform="matrix(.024788 0 0 .024788 -6.1961 29.118)" fill="#071d49">
  <path d="m2028.1 64.55 82.46 173.49 55.77-169.86 83.61-0.16-125.56 367.04-96.31-208.28-95.6 208.31-126.25-367.04 83.89-0.11 56.2 170.09z"/>
  <path d="m250.02 68.01 122.99 0.02c28.8 0.33 57.15 11.26 79.04 29.9 18.32 15.38 30.67 36.91 37.46 59.65 7.7 27.29 5.93 57.33-5.67 83.27-7.59 17.65-19 33.84-33.96 46-20.53 16.63-46.36 26.83-72.81 27.88-15.08 0.49-30.17 0.03-45.25 0.27l-0.1 116.59-81.58 0.02-0.12-363.6m81.81 76.7-0.01 93.53c12.71 0.19 25.43 0.09 38.15 0.05 9.66-0.02 19.3-3.34 26.67-9.64 12-10.07 20-25.82 18.41-41.7-1.23-13.56-8.94-26.16-19.84-34.16-7.53-5.55-16.92-8.25-26.23-8.18-12.38 0.05-24.77-0.13-37.15 0.1z"/>
  <path d="m525.12 68.05 134.88-0.06c23.85-0.65 47.49 7.41 66.84 21.16 15.68 11.23 27.67 27.21 34.97 45 14.34 32.69 10.66 72.63-9.71 101.99-12.29 18.86-30.88 33.19-51.9 41.07l117.91 154.31-97.43-0.09-113.55-147.81-0.31 147.98h-81.6l-0.1-363.55m81.88 74.87 0.01 72.01c11.66 0.03 23.32-0.01 34.99 0.01 8.02-0.1 16.27 0.61 24.03-1.87 14.49-4.38 25.18-18.91 24.94-34.07 0.43-18.72-16.35-35.56-34.91-36.01-16.35-0.26-32.71-0.12-49.06-0.07z"/>
  <path d="m835.06 68.04 225.25-0.02-0.26 80.68-143.12-0.01v61.55l112.99 0.03 0.09 78.86-113.02 0.06-0.06 61.07 143.18 0.01-0.07 81.36-224.86-0.03z"/>
  <path d="m1065.8 68.05 91.21-0.05 80.08 181.25 80.86-181.26 90.8 0.07-171.57 367.09z"/>
  <path d="m1428 68.02 81.74 0.08 0.04 363.06-81.79 0.22z"/>
  <path d="m1568.2 68.08 225.42 0.05-0.05 80.48-143.57 0.08 0.01 61.55 113.01 0.04 0.13 78.86-113.11 0.04-0.03 61.07 143.57 0.1-0.03 81.21-225.27 0.02z"/>
 </g>
 <g transform="matrix(.24783 0 0 .24783 .0076181 0)" fill="#071d49">
  <path class="st0" d="m61.3 78.3c-2 9.2-7.7 17.6-24 17.8h-35.6c-1.1 0-1.9-1-1.7-2.1l2.6-11.8c0.2-0.8 0.9-1.4 1.7-1.4h33c5.3 0 6.8-1.2 7.3-3.1 0.4-1.7-0.2-3.3-4.4-5l-17.1-7c-6.5-2.5-15.4-7.7-12.9-19 2-8.9 8.3-17.3 24.1-17.4h33.2c1.1 0 1.9 1 1.7 2.1l-2.6 11.8c-0.2 0.8-0.9 1.4-1.7 1.4h-32.1c-4.3 0-5.5 1.4-5.7 2.9-0.3 1.6 1.5 2.9 6 4.9l15.6 6.5c7.9 3.3 15.1 7.8 12.6 19.4zm38.6-78.3h-13.4c-0.8 0-1.5 0.6-1.7 1.4l-20.2 92.6c-0.2 1.1 0.6 2.1 1.7 2.1h13.4c0.8 0 1.5-0.6 1.7-1.4l20.2-92.7c0.2-1-0.6-2-1.7-2zm98.4 29.4h-15.2c-0.5 0-1 0.2-1.3 0.6l-24.5 27.7-16.4-27.4c-0.3-0.5-0.9-0.8-1.5-0.8h-21.1c-0.5 0-1 0.2-1.3 0.6l-28.5 32.1 19.8 33.1c0.3 0.5 0.9 0.8 1.5 0.8h15.8c1.3 0 2.2-1.5 1.5-2.6l-18.7-31.3 19.5-22.2 19.5 32.7-9.4 43.1c-0.2 1.1 0.6 2.1 1.7 2.1h12.9c0.8 0 1.5-0.6 1.7-1.4l9.6-43.9 35.7-40.4c0.9-1.1 0.2-2.8-1.3-2.8z" fill="#071d49"/>
 </g>
</svg>
