<svg height="7.047442mm" viewBox="0 0 63.713877 24.971249" width="17.981472mm" xmlns="http://www.w3.org/2000/svg" xmlns:xlink="http://www.w3.org/1999/xlink"><clipPath id="a"><path d="m480.614 539.122h82.8v24.803h-82.8z"/></clipPath><linearGradient id="b" gradientTransform="matrix(8.0712172 8.3740252 8.3740252 -8.0712172 500.34169 537.85957)" gradientUnits="userSpaceOnUse" spreadMethod="pad" x1="0" x2="1" y1="0" y2="0"><stop offset="0" stop-color="#b1a38a"/><stop offset=".187192" stop-color="#a19173"/><stop offset="1" stop-color="#795e38"/></linearGradient><linearGradient id="c" gradientTransform="matrix(14.92821 15.488329 15.488329 -14.92821 492.58948 545.33154)" gradientUnits="userSpaceOnUse" spreadMethod="pad" x1="0" x2="1" y1="0" y2="0"><stop offset="0" stop-color="#795e38"/><stop offset=".0663265" stop-color="#795e38"/><stop offset="1" stop-color="#b1a38a"/></linearGradient><path d="m498.616 561.416c-.722-.046-1.417-.1-2.087-.163v-19.719l6.646 4.774 2.581 1.807-.98 2.927 2.578-1.806c1.086.738 1.945 1.425 2.552 2.408.606.984.927 2.076.927 3.29 0 .902-.165 1.755-.492 2.557-.328.803-.852 1.503-1.573 2.098-.721.596-1.642 1.065-2.765 1.408-1.125.343-2.491.514-4.102.514-1.217 0-2.312-.032-3.285-.095" fill="url(#c)" transform="matrix(1.25 0 0 -1.25 -620.66125 701.88875)"/><path d="m503.175 546.308-6.646-4.774h14.71v.001l-2.897 4.768-.991-2.925-.989 2.93z" fill="url(#b)" transform="matrix(1.25 0 0 -1.25 -620.66125 701.88875)"/><g clip-path="url(#a)" fill="#fff" transform="matrix(1.25 0 0 -1.25 -620.66125 701.88875)"><g transform="translate(518.0812 552.9001)"><path d="m0 0c0 .413-.148.735-.445.964-.296.229-.692.343-1.186.343-.18 0-.333-.004-.458-.013-.126-.009-.27-.027-.432-.054v-2.723c.153-.018.279-.029.378-.034.098-.004.215-.006.35-.006.548 0 .984.128 1.308.384.323.256.485.636.485 1.139m.404-6.592-1.685 3.222c-.072-.009-.137-.014-.195-.014h-.196c-.17 0-.314.002-.431.007-.117.004-.256.011-.418.02v-3.235h-2.291v9.787c.422.045.867.083 1.334.114.467.032.993.048 1.577.048.773 0 1.429-.086 1.968-.256.54-.171.982-.405 1.328-.702.346-.296.598-.644.755-1.044s.236-.825.236-1.274c0-.593-.148-1.139-.445-1.638-.296-.499-.714-.906-1.253-1.22l2.318-3.815h-2.602z" fill="#fff"/></g><path d="m523.483 546.308h-2.165v7.24h2.165zm0 8.01h-2.165v1.644h2.165z"/><g transform="translate(528.0227 548.0821)"><path d="m0 0c1.357 0 1.813 1.148 1.813 1.852 0 .874-.6 1.84-1.826 1.84-1.239 0-1.787-1.044-1.787-1.866 0-.678.495-1.826 1.8-1.826m3.979-1.774h-2.166v.782h-.026c-.365-.704-1.265-1.03-2.113-1.03-2.296 0-3.64 1.8-3.64 3.874 0 2.375 1.709 3.862 3.64 3.862 1.187 0 1.852-.574 2.113-1.018h.026v.77h2.166z" fill="#fff"/></g><path d="m532.967 555.961h2.165v-9.653h-2.165z"/><g transform="translate(538.8244 553.5479)"><path d="m0 0h1.044v-1.644h-1.044v-5.596h-2.165v5.596h-1.07v1.644h1.07v2.413h2.165z" fill="#fff"/></g><g transform="translate(543.5991 548.108)"><path d="m0 0c .939 0 1.735.77 1.735 1.826 0 1.057-.796 1.827-1.735 1.827s-1.735-.77-1.735-1.827c0-1.056.796-1.826 1.735-1.826m0 5.675c2.635 0 3.901-2.074 3.901-3.849 0-1.774-1.266-3.848-3.901-3.848s-3.9 2.074-3.9 3.848c0 1.775 1.265 3.849 3.9 3.849" fill="#fff"/></g></g></svg>