<svg id="b" width="7.7711mm" height="8.0909mm" version="1.1" viewBox="0 0 27.536 28.669" xmlns="http://www.w3.org/2000/svg">
 <defs id="c">
  <clipPath id="a">
   <path id="d" d="m211.64 421.1h82.8v24.803h-82.8v-24.803z"/>
  </clipPath>
 </defs>
 <g id="e" transform="translate(-234.8 -449.46)">
  <g id="f" transform="matrix(1.25 0 0 -1.25 -67.722 1005.7)">
   <g id="g" clip-path="url(#a)">
    <g id="h" transform="translate(244.19 428.86)">
     <path id="i" d="m0 0c-0.102 0.051-0.377 0.051-0.492 0.051-0.205 0-0.371-6e-3 -0.55-0.013v-1.247h0.723c0.23 0 0.345 0.039 0.415 0.129 0.057 0.076 0.077 0.179 0.077 0.415 0 0.262-0.026 0.588-0.173 0.665m1.283-3.491h-0.65c-0.16 0-0.268 0.019-0.39 0.173l-1.087 1.381h-0.198v-1.272c0-0.192-0.083-0.282-0.269-0.282h-0.541c-0.211 0-0.313 0.057-0.313 0.282v3.727c0 0.249 0.173 0.262 0.313 0.262h1.716c0.671 0 0.844-0.045 1.093-0.3 0.236-0.237 0.332-0.646 0.332-1.196 0-0.524-0.153-0.85-0.422-1.036-0.115-0.077-0.249-0.128-0.428-0.153l0.978-1.19c0.128-0.153 0.154-0.396-0.134-0.396" fill="#fff"/>
    </g>
    <g id="j" transform="translate(250.34 426.46)">
     <path id="k" d="m0 0c-0.064-0.377-0.198-0.652-0.403-0.844-0.268-0.243-0.944-0.339-1.525-0.339-0.582 0-1.251 0.096-1.52 0.339-0.205 0.192-0.345 0.467-0.409 0.844-0.064 0.384-0.07 0.69-0.07 1.566v1.356c0 0.249 0.166 0.262 0.306 0.262h0.535c0.224 0 0.281-0.122 0.281-0.262v-1.886c0-0.71 0.033-0.94 0.135-1.158 0.102-0.217 0.275-0.313 0.742-0.313 0.466 0 0.645 0.096 0.748 0.313 0.102 0.218 0.134 0.448 0.134 1.158v1.886c0 0.256 0.185 0.262 0.32 0.262h0.541c0.23 0 0.262-0.128 0.262-0.262v-1.356c0-0.876-0.013-1.182-0.077-1.566" fill="#fff"/>
    </g>
    <g id="l" transform="translate(254.72 425.41)">
     <path id="m" d="m0 0c-0.301-0.09-0.983-0.121-1.276-0.121-0.237 0-0.791 0.018-1.021 0.076-0.889 0.218-1.087 0.985-1.087 2.091 0 1.886 0.594 2.231 1.841 2.231 0.365 0 1.002-0.019 1.213-0.045 0.269-0.032 0.326-0.089 0.326-0.224v-0.217c0-0.23-0.038-0.307-0.243-0.307-0.153 0-0.601 0.051-0.902 0.051-0.204 0-0.537-0.019-0.696-0.089-0.377-0.166-0.39-0.672-0.39-1.407 0-0.722 0.038-1.285 0.594-1.387 0.115-0.019 0.295-0.032 0.492-0.032 0.071 0 0.166 0.013 0.301 0.038v1.19h-0.601c-0.262 0-0.275 0.166-0.275 0.3v0.09c0 0.134 0.013 0.3 9e-3 0.3h1.449c0.49 0 0.541-0.128 0.541-0.269v-1.937c0-0.191-0.077-0.275-0.275-0.332" fill="#fff"/>
    </g>
    <g id="n" transform="translate(258.29 427.1)">
     <path id="o" d="m0 0c-0.109 0.026-0.275 0.045-0.582 0.045h-0.377v-1.062c0.16-6e-3 0.268-0.012 0.46-0.012 0.167 0 0.345 0.019 0.442 0.038 0.191 0.038 0.3 0.179 0.3 0.531 0 0.319-0.083 0.422-0.243 0.46m0 1.688c-0.077 0.134-0.154 0.147-0.48 0.147-0.102 0-0.294-6e-3 -0.479-0.013v-1.112h0.339c0.095 0 0.255 0.013 0.332 0.025 0.224 0.038 0.352 0.135 0.352 0.621 0 0.159-0.026 0.268-0.064 0.332m1.059-3.095c-0.224-0.249-0.81-0.325-1.341-0.325h-1.493c-0.211 0-0.307 0.057-0.307 0.281v3.727c0 0.249 0.166 0.262 0.307 0.262h1.097c0.697 0 1.117-0.013 1.334-0.115 0.333-0.16 0.492-0.53 0.492-0.997 0-0.39-0.102-0.64-0.351-0.844 0.403-0.166 0.562-0.492 0.562-1.042 0-0.403-0.089-0.717-0.3-0.947" fill="#fff"/>
    </g>
    <g id="p" transform="translate(263.96 429.18)">
     <path id="q" d="m0 0-1.215-2.155v-1.374c0-0.192-0.089-0.282-0.275-0.282h-0.541c-0.211 0-0.307 0.058-0.307 0.282v1.323l-1.279 2.276c-0.038 0.064-0.063 0.128-0.063 0.186 0 0.159 0.147 0.204 0.249 0.204h0.612c0.191 0 0.255-0.07 0.319-0.185l0.764-1.374 0.715 1.38c0.064 0.115 0.128 0.179 0.32 0.179h0.547c0.167 0 0.243-0.089 0.243-0.211 0-0.077-0.051-0.185-0.089-0.249" fill="#fff"/>
    </g>
    <g id="r" transform="translate(243.16 422.05)">
     <path id="s" d="m0 0c-0.116-8e-3 -0.184-0.014-0.309-0.014-0.1 0-0.221 8e-3 -0.319 0.033-0.376 0.092-0.46 0.417-0.46 0.885 0 0.795 0.252 0.944 0.779 0.944 0.125 0 0.193-6e-3 0.309-0.014 0.111-8e-3 0.141-0.035 0.141-0.094v-0.09c0-0.097-0.017-0.13-0.103-0.13-0.1 0-0.149 0.014-0.293 0.014-0.086 0-0.227-8e-3 -0.294-0.038-0.16-0.07-0.165-0.284-0.165-0.595 0-0.306 0.016-0.544 0.251-0.587 0.049-8e-3 0.125-0.014 0.208-0.014 0.144 0 0.193 0.014 0.293 0.014 0.086 0 0.103-0.033 0.103-0.13v-0.089c0-0.06-0.03-0.087-0.141-0.095" fill="#fff"/>
    </g>
    <g id="t" transform="translate(246.64 422.07)">
     <path id="u" d="m0 0h-0.114c-0.089 0-0.129 0.025-0.129 0.119v0.701c-0.098-3e-3 -0.206-3e-3 -0.328-3e-3s-0.311 0-0.408 3e-3v-0.701c0-0.081-0.035-0.119-0.113-0.119h-0.117c-0.089 0-0.132 0.025-0.132 0.119v1.577c0 0.106 0.073 0.112 0.132 0.112h0.117c0.094 0 0.113-0.052 0.113-0.112v-0.586c0.097 2e-3 0.286 2e-3 0.408 2e-3s0.23 0 0.328-2e-3v0.586c0 0.106 0.07 0.112 0.129 0.112h0.114c0.094 0 0.116-0.052 0.116-0.112v-1.577c0-0.081-0.038-0.119-0.116-0.119" fill="#fff"/>
    </g>
    <g id="v" transform="translate(249.6 423.42)">
     <path id="w" d="m0 0-0.216-0.638c0.062 0 0.135 2e-3 0.213 2e-3 0.084 0 0.141-2e-3 0.22-2e-3l-0.217 0.638zm0.714-1.35h-0.149c-0.084 0-0.108 0.041-0.127 0.095l-0.119 0.338c-0.116-3e-3 -0.202-3e-3 -0.322-3e-3 -0.113 0-0.213 0-0.311 3e-3l-0.108-0.319c-0.024-0.073-0.046-0.114-0.138-0.114h-0.124c-0.092 0-0.106 0.024-0.106 0.065 0 0.016 8e-3 0.049 0.022 0.084l0.554 1.547c0.03 0.084 0.06 0.122 0.16 0.122h0.111c0.1 0 0.13-0.038 0.16-0.119l0.584-1.577c5e-3 -0.014 0.011-0.027 0.011-0.041 0-0.067-0.054-0.081-0.098-0.081" fill="#fff"/>
    </g>
    <g id="x" transform="translate(253.8 422.07)">
     <path id="y" d="m0 0h-0.084c-0.062 0-0.111 0-0.151 0.057-0.198 0.268-0.509 0.73-0.76 1.098v-1.036c0-0.081-0.041-0.119-0.119-0.119h-0.109c-0.089 0-0.13 0.025-0.13 0.119v1.577c0 0.106 0.071 0.112 0.13 0.112h0.073c0.063 0 0.098-3e-3 0.138-0.057 0.203-0.276 0.493-0.712 0.768-1.106v1.051c0 0.106 0.074 0.112 0.133 0.112h0.111c0.094 0 0.114-0.052 0.114-0.112v-1.577c0-0.081-0.036-0.119-0.114-0.119" fill="#fff"/>
    </g>
    <g id="z" transform="translate(257.41 422.07)">
     <path id="aa" d="m0 0h-0.084c-0.062 0-0.111 0-0.152 0.057-0.197 0.268-0.509 0.73-0.76 1.098v-1.036c0-0.081-0.04-0.119-0.119-0.119h-0.108c-0.089 0-0.13 0.025-0.13 0.119v1.577c0 0.106 0.07 0.112 0.13 0.112h0.073c0.062 0 0.098-3e-3 0.138-0.057 0.203-0.276 0.492-0.712 0.769-1.106v1.051c0 0.106 0.072 0.112 0.132 0.112h0.111c0.095 0 0.113-0.052 0.113-0.112v-1.577c0-0.081-0.035-0.119-0.113-0.119" fill="#fff"/>
    </g>
    <g id="ab" transform="translate(260.53 422.07)">
     <path id="ac" d="m0 0h-0.836c-0.089 0-0.133 0.025-0.133 0.119v1.577c0 0.106 0.073 0.112 0.133 0.112h0.836c0.068 0 0.116-0.02 0.116-0.112v-0.072c0-0.057-5e-3 -0.127-0.116-0.127-0.227 0-0.443 2e-3 -0.606 8e-3v-0.422c0.149 2e-3 0.325 8e-3 0.547 8e-3 0.11 0 0.116-0.071 0.116-0.127v-0.039c0-0.056-6e-3 -0.127-0.116-0.127-0.222 0-0.398 6e-3 -0.547 8e-3v-0.503c0.163 6e-3 0.379 9e-3 0.606 9e-3 0.111 0 0.116-0.071 0.116-0.128v-0.073c0-0.092-0.054-0.111-0.116-0.111" fill="#fff"/>
    </g>
    <g id="ad" transform="translate(263.59 422.07)">
     <path id="ae" d="m0 0h-0.757c-0.09 0-0.133 0.025-0.133 0.119v1.577c0 0.106 0.073 0.112 0.133 0.112h0.116c0.094 0 0.113-0.052 0.113-0.112v-1.39c0.147 3e-3 0.317 6e-3 0.528 6e-3 0.111 0 0.117-0.071 0.117-0.128v-0.073c0-0.092-0.055-0.111-0.117-0.111" fill="#fff"/>
    </g>
    <g id="af" transform="translate(257.37 439.91)">
     <path id="ag" d="m0 0c-0.121 0.061-0.448 0.061-0.584 0.061-0.243 0-0.441-8e-3 -0.653-0.016v-1.479h0.858c0.273 0 0.41 0.045 0.493 0.151 0.068 0.091 0.091 0.213 0.091 0.494 0 0.311-0.03 0.698-0.205 0.789m1.523-4.144h-0.772c-0.189 0-0.318 0.023-0.462 0.205l-1.291 1.639h-0.235v-1.509c0-0.228-0.099-0.335-0.319-0.335h-0.642c-0.25 0-0.372 0.068-0.372 0.335v4.424c0 0.296 0.205 0.311 0.372 0.311h2.036c0.797 0 1.002-0.053 1.298-0.357 0.281-0.281 0.394-0.766 0.394-1.419 0-0.622-0.182-1.009-0.501-1.23-0.136-0.09-0.295-0.151-0.508-0.182l1.161-1.411c0.152-0.182 0.183-0.471-0.159-0.471" fill="#fff"/>
    </g>
    <g id="ah" transform="translate(252.71 438.6)">
     <path id="ai" d="m0 0c0.174 2.06 1.901 3.679 4.006 3.679s3.832-1.619 4.006-3.679h3.177c-0.439 3.236-5.773 6.375-11.016 6.375s-10.425-3.139-10.852-6.375h10.679z" fill="#fff"/>
    </g>
    <g id="aj" transform="translate(260.7 437.69)">
     <path id="ak" d="m0 0c-0.274-1.954-1.952-3.458-3.982-3.458s-3.707 1.504-3.981 3.458h-10.697c0.477-3.216 5.632-6.32 10.845-6.32s10.518 3.104 11.009 6.32h-3.194z" fill="#fff"/>
    </g>
   </g>
  </g>
 </g>
</svg>
