<?xml version="1.0" encoding="UTF-8" standalone="no"?>
<!-- Created with Inkscape (http://www.inkscape.org/) -->

<svg
   xmlns:dc="http://purl.org/dc/elements/1.1/"
   xmlns:cc="http://creativecommons.org/ns#"
   xmlns:rdf="http://www.w3.org/1999/02/22-rdf-syntax-ns#"
   xmlns:svg="http://www.w3.org/2000/svg"
   xmlns="http://www.w3.org/2000/svg"
   xmlns:sodipodi="http://sodipodi.sourceforge.net/DTD/sodipodi-0.dtd"
   xmlns:inkscape="http://www.inkscape.org/namespaces/inkscape"
   width="7.7711301mm"
   height="8.0909233mm"
   viewBox="0 0 27.5355 28.668626"
   id="svg312994"
   version="1.1"
   inkscape:version="0.91 r13725"
   sodipodi:docname="Rugby Channel.svg">
  <defs
     id="defs312996">
    <clipPath
       clipPathUnits="userSpaceOnUse"
       id="clipPath2074">
      <path
         d="m 211.635,421.103 82.8,0 0,24.803 -82.8,0 0,-24.803 z"
         id="path2076"
         inkscape:connector-curvature="0" />
    </clipPath>
  </defs>
  <sodipodi:namedview
     id="base"
     pagecolor="#ffffff"
     bordercolor="#666666"
     borderopacity="1.0"
     inkscape:pageopacity="0.0"
     inkscape:pageshadow="2"
     inkscape:zoom="3.959798"
     inkscape:cx="-35.613993"
     inkscape:cy="-48.385419"
     inkscape:document-units="px"
     inkscape:current-layer="layer1"
     showgrid="false"
     fit-margin-top="0"
     fit-margin-left="0"
     fit-margin-right="0"
     fit-margin-bottom="0"
     inkscape:window-width="1920"
     inkscape:window-height="1017"
     inkscape:window-x="-8"
     inkscape:window-y="-8"
     inkscape:window-maximized="1" />
  <metadata
     id="metadata312999">
    <rdf:RDF>
      <cc:Work
         rdf:about="">
        <dc:format>image/svg+xml</dc:format>
        <dc:type
           rdf:resource="http://purl.org/dc/dcmitype/StillImage" />
        <dc:title></dc:title>
      </cc:Work>
    </rdf:RDF>
  </metadata>
  <g
     inkscape:label="Layer 1"
     inkscape:groupmode="layer"
     id="layer1"
     transform="translate(-234.80368,-449.45645)">
    <g
       transform="matrix(1.25,0,0,-1.25,-67.721821,1005.6707)"
       id="g2070">
      <g
         id="g2072"
         clip-path="url(#clipPath2074)">
        <g
           id="g2078"
           transform="translate(244.1854,428.8622)">
          <path
             d="m 0,0 c -0.102,0.051 -0.377,0.051 -0.492,0.051 -0.205,0 -0.371,-0.006 -0.55,-0.013 l 0,-1.247 0.723,0 c 0.23,0 0.345,0.039 0.415,0.129 0.057,0.076 0.077,0.179 0.077,0.415 C 0.173,-0.403 0.147,-0.077 0,0 m 1.283,-3.491 -0.65,0 c -0.16,0 -0.268,0.019 -0.39,0.173 l -1.087,1.381 -0.198,0 0,-1.272 c 0,-0.192 -0.083,-0.282 -0.269,-0.282 l -0.541,0 c -0.211,0 -0.313,0.057 -0.313,0.282 l 0,3.727 c 0,0.249 0.173,0.262 0.313,0.262 l 1.716,0 c 0.671,0 0.844,-0.045 1.093,-0.3 0.236,-0.237 0.332,-0.646 0.332,-1.196 0,-0.524 -0.153,-0.85 -0.422,-1.036 C 0.752,-1.829 0.618,-1.88 0.439,-1.905 l 0.978,-1.19 C 1.545,-3.248 1.571,-3.491 1.283,-3.491"
             style="fill:#ffffff;fill-opacity:1;fill-rule:nonzero;stroke:none"
             id="path2080"
             inkscape:connector-curvature="0" />
        </g>
        <g
           id="g2082"
           transform="translate(250.3363,426.4583)">
          <path
             d="m 0,0 c -0.064,-0.377 -0.198,-0.652 -0.403,-0.844 -0.268,-0.243 -0.944,-0.339 -1.525,-0.339 -0.582,0 -1.251,0.096 -1.52,0.339 -0.205,0.192 -0.345,0.467 -0.409,0.844 -0.064,0.384 -0.07,0.69 -0.07,1.566 l 0,1.356 c 0,0.249 0.166,0.262 0.306,0.262 l 0.535,0 c 0.224,0 0.281,-0.122 0.281,-0.262 l 0,-1.886 c 0,-0.71 0.033,-0.94 0.135,-1.158 0.102,-0.217 0.275,-0.313 0.742,-0.313 0.466,0 0.645,0.096 0.748,0.313 0.102,0.218 0.134,0.448 0.134,1.158 l 0,1.886 c 0,0.256 0.185,0.262 0.32,0.262 l 0.541,0 c 0.23,0 0.262,-0.128 0.262,-0.262 l 0,-1.356 C 0.077,0.69 0.064,0.384 0,0"
             style="fill:#ffffff;fill-opacity:1;fill-rule:nonzero;stroke:none"
             id="path2084"
             inkscape:connector-curvature="0" />
        </g>
        <g
           id="g2086"
           transform="translate(254.7236,425.4099)">
          <path
             d="m 0,0 c -0.301,-0.09 -0.983,-0.121 -1.276,-0.121 -0.237,0 -0.791,0.018 -1.021,0.076 -0.889,0.218 -1.087,0.985 -1.087,2.091 0,1.886 0.594,2.231 1.841,2.231 0.365,0 1.002,-0.019 1.213,-0.045 0.269,-0.032 0.326,-0.089 0.326,-0.224 l 0,-0.217 c 0,-0.23 -0.038,-0.307 -0.243,-0.307 -0.153,0 -0.601,0.051 -0.902,0.051 -0.204,0 -0.537,-0.019 -0.696,-0.089 -0.377,-0.166 -0.39,-0.672 -0.39,-1.407 0,-0.722 0.038,-1.285 0.594,-1.387 0.115,-0.019 0.295,-0.032 0.492,-0.032 0.071,0 0.166,0.013 0.301,0.038 l 0,1.19 -0.601,0 c -0.262,0 -0.275,0.166 -0.275,0.3 l 0,0.09 c 0,0.134 0.013,0.3 0.009,0.3 l 1.449,0 c 0.49,0 0.541,-0.128 0.541,-0.269 l 0,-1.937 C 0.275,0.141 0.198,0.057 0,0"
             style="fill:#ffffff;fill-opacity:1;fill-rule:nonzero;stroke:none"
             id="path2088"
             inkscape:connector-curvature="0" />
        </g>
        <g
           id="g2090"
           transform="translate(258.294,427.104)">
          <path
             d="m 0,0 c -0.109,0.026 -0.275,0.045 -0.582,0.045 l -0.377,0 0,-1.062 c 0.16,-0.006 0.268,-0.012 0.46,-0.012 0.167,0 0.345,0.019 0.442,0.038 0.191,0.038 0.3,0.179 0.3,0.531 C 0.243,-0.141 0.16,-0.038 0,0 m 0,1.688 c -0.077,0.134 -0.154,0.147 -0.48,0.147 -0.102,0 -0.294,-0.006 -0.479,-0.013 l 0,-1.112 0.339,0 c 0.095,0 0.255,0.013 0.332,0.025 C -0.064,0.773 0.064,0.87 0.064,1.356 0.064,1.515 0.038,1.624 0,1.688 M 1.059,-1.407 C 0.835,-1.656 0.249,-1.732 -0.282,-1.732 l -1.493,0 c -0.211,0 -0.307,0.057 -0.307,0.281 l 0,3.727 c 0,0.249 0.166,0.262 0.307,0.262 l 1.097,0 C 0.019,2.538 0.439,2.525 0.656,2.423 0.989,2.263 1.148,1.893 1.148,1.426 1.148,1.036 1.046,0.786 0.797,0.582 1.2,0.416 1.359,0.09 1.359,-0.46 c 0,-0.403 -0.089,-0.717 -0.3,-0.947"
             style="fill:#ffffff;fill-opacity:1;fill-rule:nonzero;stroke:none"
             id="path2092"
             inkscape:connector-curvature="0" />
        </g>
        <g
           id="g2094"
           transform="translate(263.9598,429.182)">
          <path
             d="m 0,0 -1.215,-2.155 0,-1.374 c 0,-0.192 -0.089,-0.282 -0.275,-0.282 l -0.541,0 c -0.211,0 -0.307,0.058 -0.307,0.282 l 0,1.323 -1.279,2.276 c -0.038,0.064 -0.063,0.128 -0.063,0.186 0,0.159 0.147,0.204 0.249,0.204 l 0.612,0 c 0.191,0 0.255,-0.07 0.319,-0.185 l 0.764,-1.374 0.715,1.38 c 0.064,0.115 0.128,0.179 0.32,0.179 l 0.547,0 C 0.013,0.46 0.089,0.371 0.089,0.249 0.089,0.172 0.038,0.064 0,0"
             style="fill:#ffffff;fill-opacity:1;fill-rule:nonzero;stroke:none"
             id="path2096"
             inkscape:connector-curvature="0" />
        </g>
        <g
           id="g2098"
           transform="translate(243.1612,422.0505)">
          <path
             d="m 0,0 c -0.116,-0.008 -0.184,-0.014 -0.309,-0.014 -0.1,0 -0.221,0.008 -0.319,0.033 -0.376,0.092 -0.46,0.417 -0.46,0.885 0,0.795 0.252,0.944 0.779,0.944 C -0.184,1.848 -0.116,1.842 0,1.834 0.111,1.826 0.141,1.799 0.141,1.74 l 0,-0.09 c 0,-0.097 -0.017,-0.13 -0.103,-0.13 -0.1,0 -0.149,0.014 -0.293,0.014 -0.086,0 -0.227,-0.008 -0.294,-0.038 -0.16,-0.07 -0.165,-0.284 -0.165,-0.595 0,-0.306 0.016,-0.544 0.251,-0.587 0.049,-0.008 0.125,-0.014 0.208,-0.014 0.144,0 0.193,0.014 0.293,0.014 0.086,0 0.103,-0.033 0.103,-0.13 l 0,-0.089 C 0.141,0.035 0.111,0.008 0,0"
             style="fill:#ffffff;fill-opacity:1;fill-rule:nonzero;stroke:none"
             id="path2100"
             inkscape:connector-curvature="0" />
        </g>
        <g
           id="g2102"
           transform="translate(246.6389,422.0718)">
          <path
             d="m 0,0 -0.114,0 c -0.089,0 -0.129,0.025 -0.129,0.119 l 0,0.701 C -0.341,0.817 -0.449,0.817 -0.571,0.817 c -0.122,0 -0.311,0 -0.408,0.003 l 0,-0.701 C -0.979,0.038 -1.014,0 -1.092,0 l -0.117,0 c -0.089,0 -0.132,0.025 -0.132,0.119 l 0,1.577 c 0,0.106 0.073,0.112 0.132,0.112 l 0.117,0 c 0.094,0 0.113,-0.052 0.113,-0.112 l 0,-0.586 c 0.097,0.002 0.286,0.002 0.408,0.002 0.122,0 0.23,0 0.328,-0.002 l 0,0.586 c 0,0.106 0.07,0.112 0.129,0.112 l 0.114,0 c 0.094,0 0.116,-0.052 0.116,-0.112 l 0,-1.577 C 0.116,0.038 0.078,0 0,0"
             style="fill:#ffffff;fill-opacity:1;fill-rule:nonzero;stroke:none"
             id="path2104"
             inkscape:connector-curvature="0" />
        </g>
        <g
           id="g2106"
           transform="translate(249.5971,423.422)">
          <path
             d="m 0,0 -0.216,-0.638 c 0.062,0 0.135,0.002 0.213,0.002 0.084,0 0.141,-0.002 0.22,-0.002 L 0,0 Z m 0.714,-1.35 -0.149,0 c -0.084,0 -0.108,0.041 -0.127,0.095 L 0.319,-0.917 C 0.203,-0.92 0.117,-0.92 -0.003,-0.92 c -0.113,0 -0.213,0 -0.311,0.003 L -0.422,-1.236 C -0.446,-1.309 -0.468,-1.35 -0.56,-1.35 l -0.124,0 c -0.092,0 -0.106,0.024 -0.106,0.065 0,0.016 0.008,0.049 0.022,0.084 l 0.554,1.547 c 0.03,0.084 0.06,0.122 0.16,0.122 l 0.111,0 c 0.1,0 0.13,-0.038 0.16,-0.119 l 0.584,-1.577 c 0.005,-0.014 0.011,-0.027 0.011,-0.041 0,-0.067 -0.054,-0.081 -0.098,-0.081"
             style="fill:#ffffff;fill-opacity:1;fill-rule:nonzero;stroke:none"
             id="path2108"
             inkscape:connector-curvature="0" />
        </g>
        <g
           id="g2110"
           transform="translate(253.8028,422.0718)">
          <path
             d="m 0,0 -0.084,0 c -0.062,0 -0.111,0 -0.151,0.057 -0.198,0.268 -0.509,0.73 -0.76,1.098 l 0,-1.036 C -0.995,0.038 -1.036,0 -1.114,0 l -0.109,0 c -0.089,0 -0.13,0.025 -0.13,0.119 l 0,1.577 c 0,0.106 0.071,0.112 0.13,0.112 l 0.073,0 c 0.063,0 0.098,-0.003 0.138,-0.057 0.203,-0.276 0.493,-0.712 0.768,-1.106 l 0,1.051 c 0,0.106 0.074,0.112 0.133,0.112 l 0.111,0 c 0.094,0 0.114,-0.052 0.114,-0.112 l 0,-1.577 C 0.114,0.038 0.078,0 0,0"
             style="fill:#ffffff;fill-opacity:1;fill-rule:nonzero;stroke:none"
             id="path2112"
             inkscape:connector-curvature="0" />
        </g>
        <g
           id="g2114"
           transform="translate(257.4104,422.0718)">
          <path
             d="m 0,0 -0.084,0 c -0.062,0 -0.111,0 -0.152,0.057 -0.197,0.268 -0.509,0.73 -0.76,1.098 l 0,-1.036 C -0.996,0.038 -1.036,0 -1.115,0 l -0.108,0 c -0.089,0 -0.13,0.025 -0.13,0.119 l 0,1.577 c 0,0.106 0.07,0.112 0.13,0.112 l 0.073,0 c 0.062,0 0.098,-0.003 0.138,-0.057 0.203,-0.276 0.492,-0.712 0.769,-1.106 l 0,1.051 c 0,0.106 0.072,0.112 0.132,0.112 l 0.111,0 c 0.095,0 0.113,-0.052 0.113,-0.112 l 0,-1.577 C 0.113,0.038 0.078,0 0,0"
             style="fill:#ffffff;fill-opacity:1;fill-rule:nonzero;stroke:none"
             id="path2116"
             inkscape:connector-curvature="0" />
        </g>
        <g
           id="g2118"
           transform="translate(260.5314,422.0718)">
          <path
             d="m 0,0 -0.836,0 c -0.089,0 -0.133,0.025 -0.133,0.119 l 0,1.577 c 0,0.106 0.073,0.112 0.133,0.112 l 0.836,0 c 0.068,0 0.116,-0.02 0.116,-0.112 l 0,-0.072 C 0.116,1.567 0.111,1.497 0,1.497 c -0.227,0 -0.443,0.002 -0.606,0.008 l 0,-0.422 c 0.149,0.002 0.325,0.008 0.547,0.008 0.11,0 0.116,-0.071 0.116,-0.127 l 0,-0.039 c 0,-0.056 -0.006,-0.127 -0.116,-0.127 -0.222,0 -0.398,0.006 -0.547,0.008 l 0,-0.503 c 0.163,0.006 0.379,0.009 0.606,0.009 0.111,0 0.116,-0.071 0.116,-0.128 l 0,-0.073 C 0.116,0.019 0.062,0 0,0"
             style="fill:#ffffff;fill-opacity:1;fill-rule:nonzero;stroke:none"
             id="path2120"
             inkscape:connector-curvature="0" />
        </g>
        <g
           id="g2122"
           transform="translate(263.5877,422.0718)">
          <path
             d="M 0,0 -0.757,0 C -0.847,0 -0.89,0.025 -0.89,0.119 l 0,1.577 c 0,0.106 0.073,0.112 0.133,0.112 l 0.116,0 c 0.094,0 0.113,-0.052 0.113,-0.112 l 0,-1.39 c 0.147,0.003 0.317,0.006 0.528,0.006 0.111,0 0.117,-0.071 0.117,-0.128 l 0,-0.073 C 0.117,0.019 0.062,0 0,0"
             style="fill:#ffffff;fill-opacity:1;fill-rule:nonzero;stroke:none"
             id="path2124"
             inkscape:connector-curvature="0" />
        </g>
        <g
           id="g2126"
           transform="translate(257.3742,439.907)">
          <path
             d="m 0,0 c -0.121,0.061 -0.448,0.061 -0.584,0.061 -0.243,0 -0.441,-0.008 -0.653,-0.016 l 0,-1.479 0.858,0 c 0.273,0 0.41,0.045 0.493,0.151 0.068,0.091 0.091,0.213 0.091,0.494 C 0.205,-0.478 0.175,-0.091 0,0 m 1.523,-4.144 -0.772,0 c -0.189,0 -0.318,0.023 -0.462,0.205 l -1.291,1.639 -0.235,0 0,-1.509 c 0,-0.228 -0.099,-0.335 -0.319,-0.335 l -0.642,0 c -0.25,0 -0.372,0.068 -0.372,0.335 l 0,4.424 c 0,0.296 0.205,0.311 0.372,0.311 l 2.036,0 C 0.635,0.926 0.84,0.873 1.136,0.569 1.417,0.288 1.53,-0.197 1.53,-0.85 1.53,-1.472 1.348,-1.859 1.029,-2.08 0.893,-2.17 0.734,-2.231 0.521,-2.262 L 1.682,-3.673 C 1.834,-3.855 1.865,-4.144 1.523,-4.144"
             style="fill:#ffffff;fill-opacity:1;fill-rule:nonzero;stroke:none"
             id="path2128"
             inkscape:connector-curvature="0" />
        </g>
        <g
           id="g2130"
           transform="translate(252.7126,438.5964)">
          <path
             d="M 0,0 C 0.174,2.06 1.901,3.679 4.006,3.679 6.111,3.679 7.838,2.06 8.012,0 l 3.177,0 C 10.75,3.236 5.416,6.375 0.173,6.375 -5.07,6.375 -10.252,3.236 -10.679,0 L 0,0 Z"
             style="fill:#ffffff;fill-opacity:1;fill-rule:nonzero;stroke:none"
             id="path2132"
             inkscape:connector-curvature="0" />
        </g>
        <g
           id="g2134"
           transform="translate(260.7007,437.6894)">
          <path
             d="m 0,0 c -0.274,-1.954 -1.952,-3.458 -3.982,-3.458 -2.03,0 -3.707,1.504 -3.981,3.458 L -18.66,0 c 0.477,-3.216 5.632,-6.32 10.845,-6.32 5.213,0 10.518,3.104 11.009,6.32 L 0,0 Z"
             style="fill:#ffffff;fill-opacity:1;fill-rule:nonzero;stroke:none"
             id="path2136"
             inkscape:connector-curvature="0" />
        </g>
      </g>
    </g>
  </g>
</svg>
