<svg height="9.934113mm" viewBox="0 0 27.5355 35.199612" width="7.77113mm" xmlns="http://www.w3.org/2000/svg"><g fill="#fff" transform="translate(-234.80363 -449.45645)"><path d="m237.50993 469.59295c-.1275-.0637-.47125-.0637-.615-.0637-.25625 0-.46375.007-.6875.0163v1.55875h.90375c.2875 0 .43125-.0487.51875-.16125.0712-.095.0962-.22375.0962-.51875 0-.3275-.0325-.735-.21625-.83125m1.60375 4.36375h-.8125c-.2 0-.335-.0238-.4875-.21625l-1.35875-1.72625h-.2475v1.59c0 .24-.10375.3525-.33625.3525h-.67625c-.26375 0-.39125-.0713-.39125-.3525v-4.65875c0-.31125.21625-.3275.39125-.3275h2.145c.83875 0 1.055.0562 1.36625.375.295.29625.415.8075.415 1.495 0 .655-.19125 1.0625-.5275 1.295-.14375.0962-.31125.16-.535.19125l1.2225 1.4875c.16.19125.1925.495-.1675.495"/><path d="m245.19855 472.59782c-.08.47125-.2475.815-.50375 1.055-.335.30375-1.18.42375-1.90625.42375-.7275 0-1.56375-.12-1.9-.42375-.25625-.24-.43125-.58375-.51125-1.055-.08-.48-.0875-.8625-.0875-1.9575v-1.695c0-.31125.2075-.3275.3825-.3275h.66875c.28 0 .35125.1525.35125.3275v2.3575c0 .8875.0413 1.175.16875 1.4475.1275.27125.34375.39125.9275.39125.5825 0 .80625-.12.935-.39125.1275-.2725.1675-.56.1675-1.4475v-2.3575c0-.32.23125-.3275.4-.3275h.67625c.2875 0 .3275.16.3275.3275v1.695c0 1.095-.0163 1.4775-.0962 1.9575"/><path d="m250.68268 473.90832c-.37625.1125-1.22875.15125-1.595.15125-.29625 0-.98875-.0225-1.27625-.095-1.11125-.2725-1.35875-1.23125-1.35875-2.61375 0-2.3575.7425-2.78875 2.30125-2.78875.45625 0 1.2525.0238 1.51625.0562.33625.04.4075.11125.4075.28v.27125c0 .2875-.0475.38375-.30375.38375-.19125 0-.75125-.0637-1.1275-.0637-.255 0-.67125.0238-.87.11125-.47125.2075-.4875.84-.4875 1.75875 0 .9025.0475 1.60625.7425 1.73375.14375.0238.36875.04.615.04.0888 0 .2075-.0163.37625-.0475v-1.4875h-.75125c-.3275 0-.34375-.2075-.34375-.375v-.1125c0-.1675.0162-.375.0112-.375h1.81125c.6125 0 .67625.16.67625.33625v2.42125c0 .23875-.0962.34375-.34375.415"/><path d="m255.14568 471.7907c-.13625-.0325-.34375-.0563-.7275-.0563h-.47125v1.3275c.2.007.335.015.575.015.20875 0 .43125-.0238.5525-.0475.23875-.0475.375-.22375.375-.66375 0-.39875-.10375-.5275-.30375-.575m0-2.11c-.0962-.1675-.1925-.18375-.6-.18375-.1275 0-.3675.007-.59875.0162v1.39h.42375c.11875 0 .31875-.0163.415-.0312.28-.0475.44-.16875.44-.77625 0-.19875-.0325-.335-.08-.415m1.32375 3.86875c-.28.31125-1.0125.40625-1.67625.40625h-1.86625c-.26375 0-.38375-.0712-.38375-.35125v-4.65875c0-.31125.2075-.3275.38375-.3275h1.37125c.87125 0 1.39625.0163 1.6675.14375.41625.2.615.6625.615 1.24625 0 .4875-.1275.8-.43875 1.055.50375.2075.7025.615.7025 1.3025 0 .50375-.11125.89625-.375 1.18375"/><path d="m262.22793 469.1932-1.51875 2.69375v1.7175c0 .24-.11125.3525-.34375.3525h-.67625c-.26375 0-.38375-.0725-.38375-.3525v-1.65375l-1.59875-2.845c-.0475-.08-.0788-.16-.0788-.2325 0-.19875.18375-.255.31125-.255h.765c.23875 0 .31875.0875.39875.23125l.955 1.7175.89375-1.725c.08-.14375.16-.22375.4-.22375h.68375c.20875 0 .30375.11125.30375.26375 0 .0962-.0638.23125-.11125.31125"/><path d="m236.22968 478.10757c-.145.01-.23.0175-.38625.0175-.125 0-.27625-.01-.39875-.0412-.47-.115-.575-.52125-.575-1.10625 0-.99375.315-1.18.97375-1.18.15625 0 .24125.007.38625.0175.13875.01.17625.0437.17625.1175v.1125c0 .12125-.0213.1625-.12875.1625-.125 0-.18625-.0175-.36625-.0175-.1075 0-.28375.01-.3675.0475-.2.0875-.20625.355-.20625.74375 0 .3825.02.68.31375.73375.0613.01.15625.0175.26.0175.18 0 .24125-.0175.36625-.0175.1075 0 .12875.0412.12875.1625v.11125c0 .075-.0375.10875-.17625.11875"/><path d="m240.5768 478.08095h-.1425c-.11125 0-.16125-.0312-.16125-.14875v-.87625c-.1225.004-.2575.004-.41.004s-.38875 0-.51-.004v.87625c0 .10125-.0437.14875-.14125.14875h-.14625c-.11125 0-.165-.0312-.165-.14875v-1.97125c0-.1325.0913-.14006.165-.14l.14625.00011c.1175.00009.14125.0649.14125.13989v.7325c.12125-.002.3575-.002.51-.002s.2875 0 .41.002v-.7325c0-.1325.0875-.14.16125-.14h.1425c.1175 0 .145.065.145.14v1.97125c0 .10125-.0475.14875-.145.14875"/><path d="m244.27455 476.3932-.27.7975c.0775 0 .16875-.002.26625-.002.105 0 .17625.002.275.002zm.8925 1.6875h-.18625c-.105 0-.135-.0512-.15875-.11875l-.14875-.4225c-.145.004-.2525.004-.4025.004-.14125 0-.26625 0-.38875-.004l-.135.39875c-.03.0913-.0575.1425-.1725.1425h-.155c-.115 0-.1325-.03-.1325-.0812 0-.02.01-.0613.0275-.105l.6925-1.93375c.0375-.105.075-.1525.2-.1525h.13875c.125 0 .1625.0475.2.14875l.73 1.97125c.006.0175.0137.0337.0137.0512 0 .0838-.0675.10125-.1225.10125"/><path d="m249.53168 478.08095h-.105c-.0775 0-.13875 0-.18875-.0712-.2475-.335-.63625-.9125-.95-1.3725v1.295c0 .10125-.0512.14875-.14875.14875h-.13625c-.11125 0-.1625-.0312-.1625-.14875v-1.97125c0-.1325.0888-.14.1625-.14h.0913c.0788 0 .1225.004.1725.0713.25375.345.61625.89.96 1.3825v-1.31375c0-.1325.0925-.14.16625-.14h.13875c.1175 0 .1425.065.1425.14v1.97125c0 .10125-.045.14875-.1425.14875"/><path d="m254.04118 478.08095h-.105c-.0775 0-.13875 0-.19-.0712-.24625-.335-.63625-.9125-.95-1.3725v1.295c0 .10125-.05.14875-.14875.14875h-.135c-.11125 0-.1625-.0312-.1625-.14875v-1.97125c0-.1325.0875-.14.1625-.14h.0913c.0775 0 .1225.004.1725.0713.25375.345.615.89.96125 1.3825v-1.31375c0-.1325.09-.14.165-.14h.13875c.11875 0 .14125.065.14125.14v1.97125c0 .10125-.0438.14875-.14125.14875"/><path d="m257.94243 478.08095h-1.045c-.11125 0-.16625-.0312-.16625-.14875v-1.97125c0-.1325.0913-.14.16625-.14h1.045c.085 0 .145.025.145.14v.09c0 .0713-.006.15875-.145.15875-.28375 0-.55375-.002-.7575-.01v.5275c.18625-.002.40625-.01.68375-.01.1375 0 .145.0888.145.15875v.0487c0 .07-.008.15875-.145.15875-.2775 0-.4975-.008-.68375-.01v.62875c.20375-.007.47375-.0113.7575-.0113.13875 0 .145.0888.145.16v.0913c0 .115-.0675.13875-.145.13875"/><path d="m261.7628 478.08095h-.94625c-.1125 0-.16625-.0312-.16625-.14875v-1.97125c0-.1325.0913-.14.16625-.14h.145c.1175 0 .14125.065.14125.14v1.7375c.18375-.004.39625-.007.66-.007.13875 0 .14625.0888.14625.16v.0913c0 .115-.0687.13875-.14625.13875"/><path d="m253.99593 455.78695c-.15125-.0763-.56-.0763-.73-.0763-.30375 0-.55125.01-.81625.02v1.84875h1.0725c.34125 0 .5125-.0563.61625-.18875.085-.11375.11375-.26625.11375-.6175 0-.38875-.0375-.8725-.25625-.98625m1.90375 5.18h-.965c-.23625 0-.3975-.0288-.5775-.25625l-1.61375-2.04875h-.29375v1.88625c0 .285-.12375.41875-.39875.41875h-.8025c-.3125 0-.465-.085-.465-.41875v-5.53c0-.37.25625-.38875.465-.38875h2.545c.99625 0 1.2525.0662 1.6225.44625.35125.35125.4925.9575.4925 1.77375 0 .7775-.2275 1.26125-.62625 1.5375-.17.1125-.36875.18875-.635.2275l1.45125 1.76375c.19.2275.22875.58875-.19875.58875"/><path d="m248.16893 457.4252c.2175-2.575 2.37625-4.59875 5.0075-4.59875s4.79 2.02375 5.0075 4.59875h3.97125c-.54875-4.045-7.21625-7.96875-13.77-7.96875s-13.03125 3.92375-13.565 7.96875z"/><path d="m258.15405 458.55895c-.3425 2.4425-2.44 4.3225-4.9775 4.3225s-4.63375-1.88-4.97625-4.3225h-13.37125c.59625 4.02 7.04 7.9 13.55625 7.9s13.1475-3.88 13.76125-7.9z"/><path d="m236.295 482.18144c.0813 0 .15755-.0165.22855-.0481.0704-.0322.13154-.0764.18275-.13196.0518-.0556.0921-.11894.12226-.18977.03-.0704.0452-.14455.0452-.22147 0-.15447-.0551-.2902-.16417-.40856-.10903-.1173-.2471-.17677-.41457-.17677h-.46256v1.17662h.46256zm-1.49137-2.14053h1.50393c.22309 0 .42984.0409.62075.12225.1904.0813.35568.19142.49478.33113.1396.13918.24873.30274.32784.49148.0798.18875.11895.39003.11895.60442 0 .21436-.0392.41565-.11895.60384-.0791.18874-.18812.35295-.32784.49205-.13918.13918-.30438.24982-.49478.3311-.1908.0813-.39766.12225-.62075.12225h-.47513v1.46575h-1.0288v-4.56414z"/><path d="m240.5056 483.66632c.18441 0 .35568-.0355.51442-.10635.15818-.0704.29564-.16685.41131-.2891.11564-.12163.20673-.26457.27328-.42712.0661-.16314.0993-.33658.0993-.52097 0-.1844-.0333-.35782-.0993-.52038-.0667-.16313-.15756-.30547-.27328-.42766-.11564-.12225-.25313-.21874-.41131-.28913-.1588-.0708-.33002-.10634-.51442-.10634s-.35565.0355-.51438.10634c-.15881.0704-.29565.16686-.41131.28913-.11564.12225-.20675.26454-.27329.42766-.0667.16252-.0997.33602-.0997.52038 0 .1844.0332.35787.0997.52097.0667.16251.15756.30547.27329.42712.11563.12225.25257.21875.41131.2891.1588.0708.33002.10635.51438.10635m0 .98953c-.32129 0-.62348-.0605-.90659-.18275-.28258-.12225-.53024-.28966-.74242-.50131-.21166-.21219-.37911-.45985-.50132-.74243-.12224-.28309-.18337-.5853-.18337-.90659 0-.3213.0611-.6235.18337-.90661.12225-.28257.28966-.53023.50132-.74187.21218-.2122.45984-.37967.74242-.50186.28311-.12225.5853-.18337.90659-.18337.3213 0 .62352.0611.90663.18337.28256.12225.53021.28966.74187.50186.21219.21164.37965.4593.50186.74187.12163.28311.18338.58531.18338.90661 0 .32129-.0615.6235-.18338.90659-.12224.28258-.28967.53024-.50186.74243-.21166.21165-.45931.37912-.74187.50131-.28311.12224-.58533.18275-.90663.18275"/><path d="m244.97942 482.18144c.0813 0 .15756-.0165.22856-.0481.0704-.0322.13154-.0764.18275-.13196.0518-.0556.0921-.11894.12225-.18977.03-.0704.0452-.14455.0452-.22147 0-.15447-.0551-.2902-.16417-.40856-.10904-.1173-.24764-.17677-.41457-.17677h-.46258v1.17662h.46258zm-1.49136-2.14053h1.50392c.2231 0 .42985.0409.62076.12225.1904.0813.35566.19142.49476.33113.13959.13918.24875.30274.32785.49148.0791.18875.11895.39003.11895.60442 0 .21436-.0399.41565-.11895.60384-.0791.18874-.18812.35295-.32785.49205-.13918.13918-.30438.24982-.49476.3311-.19081.0813-.39766.12225-.62076.12225h-.47514v1.46575h-1.02878v-4.56414z"/><path d="m246.9144 482.32914h1.82522v.92571h-1.82522z"/><path d="m251.27268 484.65606c-.27438 0-.52586-.0452-.75553-.13464-.22909-.09-.42601-.21873-.59076-.38566-.1652-.16748-.29401-.36712-.38619-.60113-.0921-.23347-.13795-.49368-.13795-.78115v-2.71273h1.02826v2.72582c0 .2782.0774.49805.23129.65841.15426.16086.35785.24167.61096.24167.25255 0 .45658-.0808.61039-.24167.15447-.16045.23185-.38021.23185-.65841v-2.72582h1.02826v2.71273c0 .28747-.0459.54768-.13794.78115-.0927.23401-.22092.43368-.3862.60113-.16479.16685-.36167.29566-.59078.38566-.22911.0894-.48112.13464-.7555.13464"/><path d="m255.45078 482.18144c.0818 0 .15756-.0165.228-.0481.0714-.0322.13195-.0764.18379-.13196.0512-.0556.0921-.11894.12163-.18977.03-.0704.0452-.14455.0452-.22147 0-.15447-.0545-.2902-.16417-.40856-.10903-.1173-.24712-.17677-.41457-.17677h-.46314v1.17662h.46314zm-1.49138-2.14053h1.50446c.22309 0 .42931.0409.61968.12225.19142.0813.35621.19142.49585.33113.13919.13918.24822.30274.32731.49148.0795.18875.11956.39003.11956.60442 0 .21436-.0399.41565-.11956.60384-.0791.18874-.18812.35295-.32731.49205-.13959.13918-.30438.24982-.49585.3311-.19039.0813-.39659.12225-.61968.12225h-.47622v1.46575h-1.02824v-4.56414z"/><path d="m259.42469 479.98906h2.85418c-.24907.48151-.50143.96137-.75383 1.44121.35201.32877.72561.70068.77044 1.21042.20754.89992-.4068 1.84801-1.32499 1.99743-.73136.10366-1.36792-.25809-1.79985-.6658.22912-.21918.45992-.43834.69238-.65586.31547.16765.66084.4566 1.04105.27895.4948-.14784.55291-.93646.11459-1.17888-.2856-.11458-.60271-.0995-.90158-.13957.23909-.42506.4649-.85509.68738-1.28845-.45991-.004-.91984-.004-1.37975-.004v-.99457z"/></g></svg>