<svg id="a" width="7.7711mm" height="9.9341mm" version="1.1" viewBox="0 0 27.536 35.2" xmlns="http://www.w3.org/2000/svg">
 <g id="b" transform="translate(-234.8 -449.46)" fill="#231f20">
  <path id="c" d="m237.51 469.59c-0.1275-0.0637-0.47125-0.0637-0.615-0.0637-0.25625 0-0.46375 7e-3 -0.6875 0.0163v1.5588h0.90375c0.2875 0 0.43125-0.0487 0.51875-0.16125 0.0712-0.095 0.0962-0.22375 0.0962-0.51875 0-0.3275-0.0325-0.735-0.21625-0.83125m1.6038 4.3638h-0.8125c-0.2 0-0.335-0.0238-0.4875-0.21625l-1.3588-1.7262h-0.2475v1.59c0 0.24-0.10375 0.3525-0.33625 0.3525h-0.67625c-0.26375 0-0.39125-0.0713-0.39125-0.3525v-4.6588c0-0.31125 0.21625-0.3275 0.39125-0.3275h2.145c0.83875 0 1.055 0.0562 1.3662 0.375 0.295 0.29625 0.415 0.8075 0.415 1.495 0 0.655-0.19125 1.0625-0.5275 1.295-0.14375 0.0962-0.31125 0.16-0.535 0.19125l1.2225 1.4875c0.16 0.19125 0.1925 0.495-0.1675 0.495"/>
  <path id="d" d="m245.2 472.6c-0.08 0.47125-0.2475 0.815-0.50375 1.055-0.335 0.30375-1.18 0.42375-1.9062 0.42375-0.7275 0-1.5638-0.12-1.9-0.42375-0.25625-0.24-0.43125-0.58375-0.51125-1.055-0.08-0.48-0.0875-0.8625-0.0875-1.9575v-1.695c0-0.31125 0.2075-0.3275 0.3825-0.3275h0.66875c0.28 0 0.35125 0.1525 0.35125 0.3275v2.3575c0 0.8875 0.0413 1.175 0.16875 1.4475 0.1275 0.27125 0.34375 0.39125 0.9275 0.39125 0.5825 0 0.80625-0.12 0.935-0.39125 0.1275-0.2725 0.1675-0.56 0.1675-1.4475v-2.3575c0-0.32 0.23125-0.3275 0.4-0.3275h0.67625c0.2875 0 0.3275 0.16 0.3275 0.3275v1.695c0 1.095-0.0163 1.4775-0.0962 1.9575"/>
  <path id="e" d="m250.68 473.91c-0.37625 0.1125-1.2288 0.15125-1.595 0.15125-0.29625 0-0.98875-0.0225-1.2762-0.095-1.1112-0.2725-1.3588-1.2312-1.3588-2.6138 0-2.3575 0.7425-2.7888 2.3012-2.7888 0.45625 0 1.2525 0.0238 1.5162 0.0562 0.33625 0.04 0.4075 0.11125 0.4075 0.28v0.27125c0 0.2875-0.0475 0.38375-0.30375 0.38375-0.19125 0-0.75125-0.0637-1.1275-0.0637-0.255 0-0.67125 0.0238-0.87 0.11125-0.47125 0.2075-0.4875 0.84-0.4875 1.7588 0 0.9025 0.0475 1.6062 0.7425 1.7338 0.14375 0.0238 0.36875 0.04 0.615 0.04 0.0888 0 0.2075-0.0163 0.37625-0.0475v-1.4875h-0.75125c-0.3275 0-0.34375-0.2075-0.34375-0.375v-0.1125c0-0.1675 0.0162-0.375 0.0112-0.375h1.8112c0.6125 0 0.67625 0.16 0.67625 0.33625v2.4212c0 0.23875-0.0962 0.34375-0.34375 0.415"/>
  <path id="f" d="m255.15 471.79c-0.13625-0.0325-0.34375-0.0563-0.7275-0.0563h-0.47125v1.3275c0.2 7e-3 0.335 0.015 0.575 0.015 0.20875 0 0.43125-0.0238 0.5525-0.0475 0.23875-0.0475 0.375-0.22375 0.375-0.66375 0-0.39875-0.10375-0.5275-0.30375-0.575m0-2.11c-0.0962-0.1675-0.1925-0.18375-0.6-0.18375-0.1275 0-0.3675 7e-3 -0.59875 0.0162v1.39h0.42375c0.11875 0 0.31875-0.0163 0.415-0.0312 0.28-0.0475 0.44-0.16875 0.44-0.77625 0-0.19875-0.0325-0.335-0.08-0.415m1.3238 3.8688c-0.28 0.31125-1.0125 0.40625-1.6762 0.40625h-1.8662c-0.26375 0-0.38375-0.0712-0.38375-0.35125v-4.6588c0-0.31125 0.2075-0.3275 0.38375-0.3275h1.3712c0.87125 0 1.3962 0.0163 1.6675 0.14375 0.41625 0.2 0.615 0.6625 0.615 1.2462 0 0.4875-0.1275 0.8-0.43875 1.055 0.50375 0.2075 0.7025 0.615 0.7025 1.3025 0 0.50375-0.11125 0.89625-0.375 1.1838"/>
  <path id="g" d="m262.23 469.19-1.5188 2.6938v1.7175c0 0.24-0.11125 0.3525-0.34375 0.3525h-0.67625c-0.26375 0-0.38375-0.0725-0.38375-0.3525v-1.6538l-1.5988-2.845c-0.0475-0.08-0.0788-0.16-0.0788-0.2325 0-0.19875 0.18375-0.255 0.31125-0.255h0.765c0.23875 0 0.31875 0.0875 0.39875 0.23125l0.955 1.7175 0.89375-1.725c0.08-0.14375 0.16-0.22375 0.4-0.22375h0.68375c0.20875 0 0.30375 0.11125 0.30375 0.26375 0 0.0962-0.0638 0.23125-0.11125 0.31125"/>
  <path id="h" d="m236.23 478.11c-0.145 0.01-0.23 0.0175-0.38625 0.0175-0.125 0-0.27625-0.01-0.39875-0.0412-0.47-0.115-0.575-0.52125-0.575-1.1062 0-0.99375 0.315-1.18 0.97375-1.18 0.15625 0 0.24125 7e-3 0.38625 0.0175 0.13875 0.01 0.17625 0.0437 0.17625 0.1175v0.1125c0 0.12125-0.0213 0.1625-0.12875 0.1625-0.125 0-0.18625-0.0175-0.36625-0.0175-0.1075 0-0.28375 0.01-0.3675 0.0475-0.2 0.0875-0.20625 0.355-0.20625 0.74375 0 0.3825 0.02 0.68 0.31375 0.73375 0.0613 0.01 0.15625 0.0175 0.26 0.0175 0.18 0 0.24125-0.0175 0.36625-0.0175 0.1075 0 0.12875 0.0412 0.12875 0.1625v0.11125c0 0.075-0.0375 0.10875-0.17625 0.11875"/>
  <path id="i" d="m240.58 478.08h-0.1425c-0.11125 0-0.16125-0.0312-0.16125-0.14875v-0.87625c-0.1225 4e-3 -0.2575 4e-3 -0.41 4e-3s-0.38875 0-0.51-4e-3v0.87625c0 0.10125-0.0437 0.14875-0.14125 0.14875h-0.14625c-0.11125 0-0.165-0.0312-0.165-0.14875v-1.9712c0-0.1325 0.0913-0.13989 0.165-0.13989h0.14625c0.1175 0 0.14125 0.0649 0.14125 0.13989v0.7325c0.12125-2e-3 0.3575-2e-3 0.51-2e-3s0.2875 0 0.41 2e-3v-0.7325c0-0.1325 0.0875-0.14 0.16125-0.14h0.1425c0.1175 0 0.145 0.065 0.145 0.14v1.9712c0 0.10125-0.0475 0.14875-0.145 0.14875"/>
  <path id="j" d="m244.27 476.39-0.27 0.7975c0.0775 0 0.16875-2e-3 0.26625-2e-3 0.105 0 0.17625 2e-3 0.275 2e-3l-0.27125-0.7975zm0.8925 1.6875h-0.18625c-0.105 0-0.135-0.0512-0.15875-0.11875l-0.14875-0.4225c-0.145 4e-3 -0.2525 4e-3 -0.4025 4e-3 -0.14125 0-0.26625 0-0.38875-4e-3l-0.135 0.39875c-0.03 0.0913-0.0575 0.1425-0.1725 0.1425h-0.155c-0.115 0-0.1325-0.03-0.1325-0.0812 0-0.02 0.01-0.0613 0.0275-0.105l0.6925-1.9338c0.0375-0.105 0.075-0.1525 0.2-0.1525h0.13875c0.125 0 0.1625 0.0475 0.2 0.14875l0.73 1.9712c6e-3 0.0175 0.0137 0.0337 0.0137 0.0512 0 0.0838-0.0675 0.10125-0.1225 0.10125"/>
  <path id="k" d="m249.53 478.08h-0.105c-0.0775 0-0.13875 0-0.18875-0.0712-0.2475-0.335-0.63625-0.9125-0.95-1.3725v1.295c0 0.10125-0.0512 0.14875-0.14875 0.14875h-0.13625c-0.11125 0-0.1625-0.0312-0.1625-0.14875v-1.9712c0-0.1325 0.0888-0.14 0.1625-0.14h0.0913c0.0788 0 0.1225 4e-3 0.1725 0.0713 0.25375 0.345 0.61625 0.89 0.96 1.3825v-1.3138c0-0.1325 0.0925-0.14 0.16625-0.14h0.13875c0.1175 0 0.1425 0.065 0.1425 0.14v1.9712c0 0.10125-0.045 0.14875-0.1425 0.14875"/>
  <path id="l" d="m254.04 478.08h-0.105c-0.0775 0-0.13875 0-0.19-0.0712-0.24625-0.335-0.63625-0.9125-0.95-1.3725v1.295c0 0.10125-0.05 0.14875-0.14875 0.14875h-0.135c-0.11125 0-0.1625-0.0312-0.1625-0.14875v-1.9712c0-0.1325 0.0875-0.14 0.1625-0.14h0.0913c0.0775 0 0.1225 4e-3 0.1725 0.0713 0.25375 0.345 0.615 0.89 0.96125 1.3825v-1.3138c0-0.1325 0.09-0.14 0.165-0.14h0.13875c0.11875 0 0.14125 0.065 0.14125 0.14v1.9712c0 0.10125-0.0438 0.14875-0.14125 0.14875"/>
  <path id="m" d="m257.94 478.08h-1.045c-0.11125 0-0.16625-0.0312-0.16625-0.14875v-1.9712c0-0.1325 0.0913-0.14 0.16625-0.14h1.045c0.085 0 0.145 0.025 0.145 0.14v0.09c0 0.0713-6e-3 0.15875-0.145 0.15875-0.28375 0-0.55375-2e-3 -0.7575-0.01v0.5275c0.18625-2e-3 0.40625-0.01 0.68375-0.01 0.1375 0 0.145 0.0888 0.145 0.15875v0.0487c0 0.07-8e-3 0.15875-0.145 0.15875-0.2775 0-0.4975-8e-3 -0.68375-0.01v0.62875c0.20375-7e-3 0.47375-0.0113 0.7575-0.0113 0.13875 0 0.145 0.0888 0.145 0.16v0.0913c0 0.115-0.0675 0.13875-0.145 0.13875"/>
  <path id="n" d="m261.76 478.08h-0.94625c-0.1125 0-0.16625-0.0312-0.16625-0.14875v-1.9712c0-0.1325 0.0913-0.14 0.16625-0.14h0.145c0.1175 0 0.14125 0.065 0.14125 0.14v1.7375c0.18375-4e-3 0.39625-7e-3 0.66-7e-3 0.13875 0 0.14625 0.0888 0.14625 0.16v0.0913c0 0.115-0.0687 0.13875-0.14625 0.13875"/>
  <path id="o" d="m254 455.79c-0.15125-0.0763-0.56-0.0763-0.73-0.0763-0.30375 0-0.55125 0.01-0.81625 0.02v1.8488h1.0725c0.34125 0 0.5125-0.0563 0.61625-0.18875 0.085-0.11375 0.11375-0.26625 0.11375-0.6175 0-0.38875-0.0375-0.8725-0.25625-0.98625m1.9038 5.18h-0.965c-0.23625 0-0.3975-0.0288-0.5775-0.25625l-1.6138-2.0488h-0.29375v1.8862c0 0.285-0.12375 0.41875-0.39875 0.41875h-0.8025c-0.3125 0-0.465-0.085-0.465-0.41875v-5.53c0-0.37 0.25625-0.38875 0.465-0.38875h2.545c0.99625 0 1.2525 0.0662 1.6225 0.44625 0.35125 0.35125 0.4925 0.9575 0.4925 1.7738 0 0.7775-0.2275 1.2612-0.62625 1.5375-0.17 0.1125-0.36875 0.18875-0.635 0.2275l1.4512 1.7638c0.19 0.2275 0.22875 0.58875-0.19875 0.58875"/>
  <path id="p" d="m248.17 457.43c0.2175-2.575 2.3762-4.5988 5.0075-4.5988s4.79 2.0238 5.0075 4.5988h3.9712c-0.54875-4.045-7.2162-7.9688-13.77-7.9688s-13.031 3.9238-13.565 7.9688h13.349z"/>
  <path id="q" d="m258.15 458.56c-0.3425 2.4425-2.44 4.3225-4.9775 4.3225s-4.6338-1.88-4.9762-4.3225h-13.371c0.59625 4.02 7.04 7.9 13.556 7.9s13.148-3.88 13.761-7.9h-3.9925z"/>
  <path id="r" d="m260.08 480.96c0.32827-0.32661 0.65982-0.64991 0.98975-0.97323 2e-3 1.5391 1e-3 3.0781 1e-3 4.6172h-0.98975c0-1.2141 2e-3 -2.4298-2e-3 -3.6439z"/>
  <path id="s" d="m236.29 482.18c0.0813 0 0.15755-0.0165 0.22855-0.0481 0.0704-0.0322 0.13153-0.0764 0.18274-0.13196 0.0518-0.0556 0.0922-0.11893 0.12224-0.18976 0.0299-0.0704 0.0452-0.14455 0.0452-0.22146 0-0.15447-0.0552-0.29019-0.16415-0.40855-0.10904-0.11729-0.2471-0.17676-0.41456-0.17676h-0.46256v1.1766h0.46256zm-1.4913-2.1405h1.5039c0.22309 0 0.42983 0.0408 0.62074 0.12225 0.19038 0.0814 0.35568 0.19142 0.49476 0.33112 0.1396 0.13917 0.24873 0.30274 0.32783 0.49146 0.0797 0.18875 0.11895 0.39002 0.11895 0.60441 0 0.21436-0.0392 0.41565-0.11895 0.60382-0.0791 0.18873-0.18811 0.35294-0.32783 0.49204-0.13917 0.13918-0.30438 0.24981-0.49476 0.33109-0.1908 0.0814-0.39765 0.12224-0.62074 0.12224h-0.47511v1.4657h-1.0288v-4.564z"/>
  <path id="t" d="m240.51 483.67c0.1844 0 0.35566-0.0356 0.5144-0.10634 0.15817-0.0704 0.29563-0.16686 0.41128-0.2891 0.11564-0.12162 0.20673-0.26457 0.2733-0.42711 0.0661-0.16315 0.0993-0.33657 0.0993-0.52095 0-0.1844-0.0332-0.35782-0.0993-0.52037-0.0667-0.16313-0.15757-0.30547-0.2733-0.42765-0.11562-0.12223-0.25311-0.21874-0.41128-0.28911-0.1588-0.0708-0.33002-0.10635-0.5144-0.10635-0.1844 0-0.35565 0.0356-0.51438 0.10635-0.1588 0.0704-0.29564 0.16685-0.4113 0.28911-0.11564 0.12225-0.20674 0.26454-0.27327 0.42765-0.0667 0.16251-0.0997 0.33601-0.0997 0.52037 0 0.1844 0.0332 0.35785 0.0997 0.52095 0.0667 0.1625 0.15755 0.30547 0.27327 0.42711 0.11565 0.12224 0.25256 0.21874 0.4113 0.2891 0.15878 0.0708 0.33001 0.10634 0.51438 0.10634m0 0.9895c-0.32129 0-0.62348-0.0605-0.90658-0.18275-0.28257-0.12225-0.53023-0.28964-0.74239-0.50129-0.21166-0.21219-0.37911-0.45984-0.5013-0.74241-0.12225-0.28308-0.18338-0.58529-0.18338-0.90657 0-0.32129 0.0611-0.62347 0.18338-0.90658 0.12223-0.28256 0.28964-0.53021 0.5013-0.74185 0.21216-0.21219 0.45982-0.37966 0.74239-0.50184 0.2831-0.12225 0.58529-0.18337 0.90658-0.18337 0.32128 0 0.62349 0.0611 0.90658 0.18337 0.28256 0.12224 0.53021 0.28965 0.74186 0.50184 0.21218 0.21164 0.37964 0.45929 0.50185 0.74185 0.12162 0.28311 0.18336 0.58529 0.18336 0.90658 0 0.32128-0.0615 0.62349-0.18336 0.90657-0.12225 0.28257-0.28967 0.53022-0.50185 0.74241-0.21165 0.21165-0.4593 0.3791-0.74186 0.50129-0.28309 0.12224-0.5853 0.18275-0.90658 0.18275"/>
  <path id="u" d="m244.98 482.18c0.0814 0 0.15755-0.0165 0.22855-0.0481 0.0704-0.0322 0.13153-0.0764 0.18273-0.13196 0.0517-0.0556 0.0922-0.11893 0.12225-0.18976 0.0299-0.0704 0.0452-0.14455 0.0452-0.22146 0-0.15447-0.0552-0.29019-0.16416-0.40855-0.10902-0.11729-0.24763-0.17676-0.41455-0.17676h-0.46258v1.1766h0.46258zm-1.4913-2.1405h1.5039c0.22309 0 0.42983 0.0408 0.62074 0.12225 0.19039 0.0814 0.35566 0.19142 0.49474 0.33112 0.1396 0.13917 0.24875 0.30274 0.32785 0.49146 0.0791 0.18875 0.11894 0.39002 0.11894 0.60441 0 0.21436-0.0398 0.41565-0.11894 0.60382-0.0791 0.18873-0.18811 0.35294-0.32785 0.49204-0.13917 0.13918-0.30438 0.24981-0.49474 0.33109-0.1908 0.0814-0.39765 0.12224-0.62074 0.12224h-0.47512v1.4657h-1.0288v-4.564z"/>
  <path id="v" d="m246.91 482.33h1.8252v0.92568h-1.8252v-0.92568z"/>
  <path id="w" d="m251.27 484.66c-0.27435 0-0.52583-0.0453-0.75549-0.13463-0.22908-0.09-0.42601-0.21872-0.59075-0.38565-0.16519-0.16747-0.294-0.36711-0.38618-0.6011-0.0921-0.23347-0.13795-0.49367-0.13795-0.78114v-2.7126h1.0282v2.7258c0 0.27819 0.0774 0.49802 0.2313 0.65839 0.15424 0.16087 0.35784 0.24165 0.61093 0.24165 0.25254 0 0.45655-0.0807 0.61038-0.24165 0.15447-0.16045 0.23183-0.3802 0.23183-0.65839v-2.7258h1.0282v2.7126c0 0.28747-0.0459 0.54767-0.13794 0.78114-0.0927 0.23399-0.22091 0.43365-0.38618 0.6011-0.16479 0.16684-0.36166 0.29566-0.59076 0.38565-0.22911 0.0894-0.48112 0.13463-0.75549 0.13463"/>
  <path id="x" d="m255.45 482.18c0.0817 0 0.15756-0.0165 0.228-0.0481 0.0714-0.0322 0.13194-0.0764 0.18379-0.13196 0.0512-0.0556 0.0921-0.11893 0.12162-0.18976 0.0299-0.0704 0.0453-0.14455 0.0453-0.22146 0-0.15447-0.0545-0.29019-0.16417-0.40855-0.10902-0.11729-0.2471-0.17676-0.41456-0.17676h-0.46312v1.1766h0.46312zm-1.4913-2.1405h1.5044c0.2231 0 0.4293 0.0408 0.61967 0.12225 0.19143 0.0814 0.3562 0.19142 0.49584 0.33112 0.13917 0.13917 0.24821 0.30274 0.3273 0.49146 0.0795 0.18875 0.11956 0.39002 0.11956 0.60441 0 0.21436-0.0399 0.41565-0.11956 0.60382-0.079 0.18873-0.18813 0.35294-0.3273 0.49204-0.13959 0.13918-0.30437 0.24981-0.49584 0.33109-0.19039 0.0814-0.39657 0.12224-0.61967 0.12224h-0.47619v1.4657h-1.0282v-4.564z"/>
 </g>
</svg>
