<svg height="9.934113mm" viewBox="0 0 27.5355 35.199612" width="7.77113mm" xmlns="http://www.w3.org/2000/svg"><g fill="#fff" transform="translate(-234.80363 -449.45645)"><path d="m237.50993 469.59295c-.1275-.0637-.47125-.0637-.615-.0637-.25625 0-.46375.007-.6875.0163v1.55875h.90375c.2875 0 .43125-.0487.51875-.16125.0712-.095.0962-.22375.0962-.51875 0-.3275-.0325-.735-.21625-.83125m1.60375 4.36375h-.8125c-.2 0-.335-.0238-.4875-.21625l-1.35875-1.72625h-.2475v1.59c0 .24-.10375.3525-.33625.3525h-.67625c-.26375 0-.39125-.0713-.39125-.3525v-4.65875c0-.31125.21625-.3275.39125-.3275h2.145c.83875 0 1.055.0562 1.36625.375.295.29625.415.8075.415 1.495 0 .655-.19125 1.0625-.5275 1.295-.14375.0962-.31125.16-.535.19125l1.2225 1.4875c.16.19125.1925.495-.1675.495"/><path d="m245.19855 472.59782c-.08.47125-.2475.815-.50375 1.055-.335.30375-1.18.42375-1.90625.42375-.7275 0-1.56375-.12-1.9-.42375-.25625-.24-.43125-.58375-.51125-1.055-.08-.48-.0875-.8625-.0875-1.9575v-1.695c0-.31125.2075-.3275.3825-.3275h.66875c.28 0 .35125.1525.35125.3275v2.3575c0 .8875.0413 1.175.16875 1.4475.1275.27125.34375.39125.9275.39125.5825 0 .80625-.12.935-.39125.1275-.2725.1675-.56.1675-1.4475v-2.3575c0-.32.23125-.3275.4-.3275h.67625c.2875 0 .3275.16.3275.3275v1.695c0 1.095-.0163 1.4775-.0962 1.9575"/><path d="m250.68268 473.90832c-.37625.1125-1.22875.15125-1.595.15125-.29625 0-.98875-.0225-1.27625-.095-1.11125-.2725-1.35875-1.23125-1.35875-2.61375 0-2.3575.7425-2.78875 2.30125-2.78875.45625 0 1.2525.0238 1.51625.0562.33625.04.4075.11125.4075.28v.27125c0 .2875-.0475.38375-.30375.38375-.19125 0-.75125-.0637-1.1275-.0637-.255 0-.67125.0238-.87.11125-.47125.2075-.4875.84-.4875 1.75875 0 .9025.0475 1.60625.7425 1.73375.14375.0238.36875.04.615.04.0888 0 .2075-.0163.37625-.0475v-1.4875h-.75125c-.3275 0-.34375-.2075-.34375-.375v-.1125c0-.1675.0162-.375.0112-.375h1.81125c.6125 0 .67625.16.67625.33625v2.42125c0 .23875-.0962.34375-.34375.415"/><path d="m255.14568 471.7907c-.13625-.0325-.34375-.0563-.7275-.0563h-.47125v1.3275c.2.007.335.015.575.015.20875 0 .43125-.0238.5525-.0475.23875-.0475.375-.22375.375-.66375 0-.39875-.10375-.5275-.30375-.575m0-2.11c-.0962-.1675-.1925-.18375-.6-.18375-.1275 0-.3675.007-.59875.0162v1.39h.42375c.11875 0 .31875-.0163.415-.0312.28-.0475.44-.16875.44-.77625 0-.19875-.0325-.335-.08-.415m1.32375 3.86875c-.28.31125-1.0125.40625-1.67625.40625h-1.86625c-.26375 0-.38375-.0712-.38375-.35125v-4.65875c0-.31125.2075-.3275.38375-.3275h1.37125c.87125 0 1.39625.0163 1.6675.14375.41625.2.615.6625.615 1.24625 0 .4875-.1275.8-.43875 1.055.50375.2075.7025.615.7025 1.3025 0 .50375-.11125.89625-.375 1.18375"/><path d="m262.22793 469.1932-1.51875 2.69375v1.7175c0 .24-.11125.3525-.34375.3525h-.67625c-.26375 0-.38375-.0725-.38375-.3525v-1.65375l-1.59875-2.845c-.0475-.08-.0788-.16-.0788-.2325 0-.19875.18375-.255.31125-.255h.765c.23875 0 .31875.0875.39875.23125l.955 1.7175.89375-1.725c.08-.14375.16-.22375.4-.22375h.68375c.20875 0 .30375.11125.30375.26375 0 .0962-.0638.23125-.11125.31125"/><path d="m236.22968 478.10757c-.145.01-.23.0175-.38625.0175-.125 0-.27625-.01-.39875-.0412-.47-.115-.575-.52125-.575-1.10625 0-.99375.315-1.18.97375-1.18.15625 0 .24125.007.38625.0175.13875.01.17625.0437.17625.1175v.1125c0 .12125-.0213.1625-.12875.1625-.125 0-.18625-.0175-.36625-.0175-.1075 0-.28375.01-.3675.0475-.2.0875-.20625.355-.20625.74375 0 .3825.02.68.31375.73375.0613.01.15625.0175.26.0175.18 0 .24125-.0175.36625-.0175.1075 0 .12875.0412.12875.1625v.11125c0 .075-.0375.10875-.17625.11875"/><path d="m240.5768 478.08095h-.1425c-.11125 0-.16125-.0312-.16125-.14875v-.87625c-.1225.004-.2575.004-.41.004s-.38875 0-.51-.004v.87625c0 .10125-.0437.14875-.14125.14875h-.14625c-.11125 0-.165-.0312-.165-.14875v-1.97125c0-.1325.0913-.14006.165-.14l.14625.00011c.1175.00009.14125.0649.14125.13989v.7325c.12125-.002.3575-.002.51-.002s.2875 0 .41.002v-.7325c0-.1325.0875-.14.16125-.14h.1425c.1175 0 .145.065.145.14v1.97125c0 .10125-.0475.14875-.145.14875"/><path d="m244.27455 476.3932-.27.7975c.0775 0 .16875-.002.26625-.002.105 0 .17625.002.275.002zm.8925 1.6875h-.18625c-.105 0-.135-.0512-.15875-.11875l-.14875-.4225c-.145.004-.2525.004-.4025.004-.14125 0-.26625 0-.38875-.004l-.135.39875c-.03.0913-.0575.1425-.1725.1425h-.155c-.115 0-.1325-.03-.1325-.0812 0-.02.01-.0613.0275-.105l.6925-1.93375c.0375-.105.075-.1525.2-.1525h.13875c.125 0 .1625.0475.2.14875l.73 1.97125c.006.0175.0137.0337.0137.0512 0 .0838-.0675.10125-.1225.10125"/><path d="m249.53168 478.08095h-.105c-.0775 0-.13875 0-.18875-.0712-.2475-.335-.63625-.9125-.95-1.3725v1.295c0 .10125-.0512.14875-.14875.14875h-.13625c-.11125 0-.1625-.0312-.1625-.14875v-1.97125c0-.1325.0888-.14.1625-.14h.0913c.0788 0 .1225.004.1725.0713.25375.345.61625.89.96 1.3825v-1.31375c0-.1325.0925-.14.16625-.14h.13875c.1175 0 .1425.065.1425.14v1.97125c0 .10125-.045.14875-.1425.14875"/><path d="m254.04118 478.08095h-.105c-.0775 0-.13875 0-.19-.0712-.24625-.335-.63625-.9125-.95-1.3725v1.295c0 .10125-.05.14875-.14875.14875h-.135c-.11125 0-.1625-.0312-.1625-.14875v-1.97125c0-.1325.0875-.14.1625-.14h.0913c.0775 0 .1225.004.1725.0713.25375.345.615.89.96125 1.3825v-1.31375c0-.1325.09-.14.165-.14h.13875c.11875 0 .14125.065.14125.14v1.97125c0 .10125-.0438.14875-.14125.14875"/><path d="m257.94243 478.08095h-1.045c-.11125 0-.16625-.0312-.16625-.14875v-1.97125c0-.1325.0913-.14.16625-.14h1.045c.085 0 .145.025.145.14v.09c0 .0713-.006.15875-.145.15875-.28375 0-.55375-.002-.7575-.01v.5275c.18625-.002.40625-.01.68375-.01.1375 0 .145.0888.145.15875v.0487c0 .07-.008.15875-.145.15875-.2775 0-.4975-.008-.68375-.01v.62875c.20375-.007.47375-.0113.7575-.0113.13875 0 .145.0888.145.16v.0913c0 .115-.0675.13875-.145.13875"/><path d="m261.7628 478.08095h-.94625c-.1125 0-.16625-.0312-.16625-.14875v-1.97125c0-.1325.0913-.14.16625-.14h.145c.1175 0 .14125.065.14125.14v1.7375c.18375-.004.39625-.007.66-.007.13875 0 .14625.0888.14625.16v.0913c0 .115-.0687.13875-.14625.13875"/><path d="m253.99593 455.78695c-.15125-.0763-.56-.0763-.73-.0763-.30375 0-.55125.01-.81625.02v1.84875h1.0725c.34125 0 .5125-.0563.61625-.18875.085-.11375.11375-.26625.11375-.6175 0-.38875-.0375-.8725-.25625-.98625m1.90375 5.18h-.965c-.23625 0-.3975-.0288-.5775-.25625l-1.61375-2.04875h-.29375v1.88625c0 .285-.12375.41875-.39875.41875h-.8025c-.3125 0-.465-.085-.465-.41875v-5.53c0-.37.25625-.38875.465-.38875h2.545c.99625 0 1.2525.0662 1.6225.44625.35125.35125.4925.9575.4925 1.77375 0 .7775-.2275 1.26125-.62625 1.5375-.17.1125-.36875.18875-.635.2275l1.45125 1.76375c.19.2275.22875.58875-.19875.58875"/><path d="m248.16893 457.4252c.2175-2.575 2.37625-4.59875 5.0075-4.59875s4.79 2.02375 5.0075 4.59875h3.97125c-.54875-4.045-7.21625-7.96875-13.77-7.96875s-13.03125 3.92375-13.565 7.96875z"/><path d="m258.15405 458.55895c-.3425 2.4425-2.44 4.3225-4.9775 4.3225s-4.63375-1.88-4.97625-4.3225h-13.37125c.59625 4.02 7.04 7.9 13.55625 7.9s13.1475-3.88 13.76125-7.9z"/><path d="m236.29498 482.18137c.0813 0 .15755-.0165.22855-.0481.0704-.0322.13153-.0764.18273-.13196.0518-.0556.0922-.11894.12225-.18976.0299-.0704.0452-.14455.0452-.22147 0-.15446-.0552-.29018-.16416-.40855-.10903-.11728-.24709-.17675-.41455-.17675h-.46256v1.17657h.46256zm-1.49134-2.14046h1.50389c.22309 0 .42983.0408.62074.12224.19038.0814.35568.19143.49476.33112.1396.13918.24873.30275.32783.49147.0797.18874.11895.39002.11895.6044 0 .21437-.0392.41566-.11895.60382-.0791.18874-.18811.35294-.32783.49205-.13917.13917-.30438.24981-.49476.33109-.1908.0814-.39765.12224-.62074.12224h-.47511v1.4657h-1.02878v-4.56401z"/><path d="m240.50547 483.66622c.1844 0 .35566-.0356.5144-.10635.15817-.0704.29563-.16685.41128-.28909.11564-.12162.20673-.26457.27329-.42712.0661-.16314.0993-.33657.0993-.52094 0-.1844-.0332-.35782-.0993-.52037-.0667-.16313-.15756-.30548-.27329-.42765-.11562-.12224-.25311-.21875-.41128-.28911-.1588-.0708-.33002-.10635-.5144-.10635-.1844 0-.35565.0356-.51438.10635-.1588.0704-.29564.16684-.4113.28911-.11564.12224-.20675.26454-.27327.42765-.0667.16251-.0997.33601-.0997.52037 0 .18439.0332.35785.0997.52094.0667.16251.15755.30548.27327.42712.11565.12224.25256.21873.4113.28909.15878.0708.33001.10635.51438.10635m0 .9895c-.32129 0-.62348-.0605-.90658-.18275-.28257-.12225-.53023-.28965-.74239-.50129-.21166-.21219-.37911-.45985-.5013-.74242-.12225-.28307-.18338-.58528-.18338-.90656 0-.32129.0611-.62347.18338-.90658.12223-.28256.28964-.53022.5013-.74185.21216-.21219.45982-.37966.74239-.50185.2831-.12224.58529-.18336.90658-.18336.32128 0 .62349.0611.90658.18336.28256.12225.53021.28966.74186.50185.21217.21163.37964.45929.50185.74185.12162.28311.18336.58529.18336.90658 0 .32128-.0615.62349-.18336.90656-.12225.28257-.28968.53023-.50185.74242-.21165.21164-.4593.3791-.74186.50129-.28309.12224-.5853.18275-.90658.18275"/><path d="m244.97916 482.18137c.0814 0 .15755-.0165.22855-.0481.0704-.0322.13153-.0764.18273-.13196.0517-.0556.0922-.11894.12225-.18976.0299-.0704.0452-.14455.0452-.22147 0-.15446-.0552-.29018-.16416-.40855-.10902-.11728-.24763-.17675-.41455-.17675h-.46258v1.17657h.46258zm-1.49133-2.14046h1.50388c.22309 0 .42983.0408.62074.12224.19039.0814.35566.19143.49474.33112.1396.13918.24875.30275.32785.49147.0791.18874.11894.39002.11894.6044 0 .21437-.0398.41566-.11894.60382-.0791.18874-.18811.35294-.32785.49205-.13917.13917-.30438.24981-.49474.33109-.1908.0814-.39765.12224-.62074.12224h-.47512v1.4657h-1.02876v-4.56401z"/><path d="m246.91407 482.32908h1.82517v.92567h-1.82517z"/><path d="m251.27222 484.65592c-.27435 0-.52583-.0453-.75549-.13464-.22908-.09-.42601-.21871-.59075-.38564-.16519-.16747-.294-.36711-.38618-.60111-.0921-.23346-.13795-.49366-.13795-.78113v-2.71265h1.02823v2.72575c0 .27819.0774.49802.2313.65839.15424.16086.35784.24165.61093.24165.25254 0 .45655-.0807.61038-.24165.15446-.16045.23183-.3802.23183-.65839v-2.72575h1.02824v2.71265c0 .28747-.0459.54767-.13794.78113-.0927.234-.22091.43366-.38618.60111-.16479.16684-.36166.29566-.59076.38564-.22911.0894-.48112.13464-.75549.13464"/><path d="m255.45021 482.18137c.0817 0 .15756-.0165.228-.0481.0714-.0322.13194-.0764.18379-.13196.0512-.0556.0921-.11894.12162-.18976.0299-.0704.0453-.14455.0453-.22147 0-.15446-.0545-.29018-.16417-.40855-.10902-.11728-.2471-.17675-.41456-.17675h-.46312v1.17657h.46312zm-1.49134-2.14046h1.50441c.2231 0 .4293.0408.61967.12224.19143.0814.3562.19143.49584.33112.13917.13918.24821.30275.3273.49147.0795.18874.11956.39002.11956.6044 0 .21437-.0399.41566-.11956.60382-.079.18874-.18813.35294-.3273.49205-.13959.13917-.30437.24981-.49584.33109-.19039.0814-.39657.12224-.61967.12224h-.47619v1.4657h-1.02822v-4.56401z"/><path d="m260.14399 480.13658c.94103-.48551 2.23125.29431 2.193 1.36506-.0365.93941-.92108 1.49972-1.47476 2.15482.49051.002.98096.002 1.47311.002-.002.33253.002.66508 0 .9976h-3.53142c.61019-.62849 1.14555-1.32182 1.73412-1.97027.27764-.33252.60353-.64178.77312-1.04748.0749-.31258-.16458-.63348-.48549-.64345-.34084-.06-.48547.29928-.68833.49381-.33751.004-.67336-.002-1.00922-.008.18793-.53705.45059-1.11565 1.01587-1.34344z"/></g></svg>