<?xml version="1.0" encoding="UTF-8" standalone="no"?>
<!-- Created with Inkscape (http://www.inkscape.org/) -->

<svg
   xmlns:dc="http://purl.org/dc/elements/1.1/"
   xmlns:cc="http://creativecommons.org/ns#"
   xmlns:rdf="http://www.w3.org/1999/02/22-rdf-syntax-ns#"
   xmlns:svg="http://www.w3.org/2000/svg"
   xmlns="http://www.w3.org/2000/svg"
   xmlns:sodipodi="http://sodipodi.sourceforge.net/DTD/sodipodi-0.dtd"
   xmlns:inkscape="http://www.inkscape.org/namespaces/inkscape"
   width="7.7711301mm"
   height="9.9341116mm"
   viewBox="0 0 27.5355 35.199609"
   id="svg312994"
   version="1.1"
   inkscape:version="0.91 r13725"
   sodipodi:docname="Rugby Channel Pop-Up 1 - Dark.svg">
  <defs
     id="defs312996">
    <clipPath
       clipPathUnits="userSpaceOnUse"
       id="clipPath2074">
      <path
         d="m 211.635,421.103 82.8,0 0,24.803 -82.8,0 0,-24.803 z"
         id="path2076"
         inkscape:connector-curvature="0" />
    </clipPath>
  </defs>
  <sodipodi:namedview
     id="base"
     pagecolor="#ffffff"
     bordercolor="#666666"
     borderopacity="1.0"
     inkscape:pageopacity="0.0"
     inkscape:pageshadow="2"
     inkscape:zoom="8"
     inkscape:cx="26.992389"
     inkscape:cy="16.644066"
     inkscape:document-units="px"
     inkscape:current-layer="layer1"
     showgrid="false"
     fit-margin-top="0"
     fit-margin-left="0"
     fit-margin-right="0"
     fit-margin-bottom="0"
     inkscape:window-width="1920"
     inkscape:window-height="1017"
     inkscape:window-x="-8"
     inkscape:window-y="-8"
     inkscape:window-maximized="1" />
  <metadata
     id="metadata312999">
    <rdf:RDF>
      <cc:Work
         rdf:about="">
        <dc:format>image/svg+xml</dc:format>
        <dc:type
           rdf:resource="http://purl.org/dc/dcmitype/StillImage" />
        <dc:title></dc:title>
      </cc:Work>
    </rdf:RDF>
  </metadata>
  <g
     inkscape:label="Layer 1"
     inkscape:groupmode="layer"
     id="layer1"
     transform="translate(-234.80363,-449.45645)">
    <path
       inkscape:connector-curvature="0"
       id="path2080"
       style="fill:#231f20;fill-opacity:1;fill-rule:nonzero;stroke:none"
       d="m 237.50993,469.59295 c -0.1275,-0.0637 -0.47125,-0.0637 -0.615,-0.0637 -0.25625,0 -0.46375,0.007 -0.6875,0.0163 l 0,1.55875 0.90375,0 c 0.2875,0 0.43125,-0.0487 0.51875,-0.16125 0.0712,-0.095 0.0962,-0.22375 0.0962,-0.51875 0,-0.3275 -0.0325,-0.735 -0.21625,-0.83125 m 1.60375,4.36375 -0.8125,0 c -0.2,0 -0.335,-0.0238 -0.4875,-0.21625 l -1.35875,-1.72625 -0.2475,0 0,1.59 c 0,0.24 -0.10375,0.3525 -0.33625,0.3525 l -0.67625,0 c -0.26375,0 -0.39125,-0.0713 -0.39125,-0.3525 l 0,-4.65875 c 0,-0.31125 0.21625,-0.3275 0.39125,-0.3275 l 2.145,0 c 0.83875,0 1.055,0.0562 1.36625,0.375 0.295,0.29625 0.415,0.8075 0.415,1.495 0,0.655 -0.19125,1.0625 -0.5275,1.295 -0.14375,0.0962 -0.31125,0.16 -0.535,0.19125 l 1.2225,1.4875 c 0.16,0.19125 0.1925,0.495 -0.1675,0.495" />
    <path
       inkscape:connector-curvature="0"
       id="path2084"
       style="fill:#231f20;fill-opacity:1;fill-rule:nonzero;stroke:none"
       d="m 245.19855,472.59782 c -0.08,0.47125 -0.2475,0.815 -0.50375,1.055 -0.335,0.30375 -1.18,0.42375 -1.90625,0.42375 -0.7275,0 -1.56375,-0.12 -1.9,-0.42375 -0.25625,-0.24 -0.43125,-0.58375 -0.51125,-1.055 -0.08,-0.48 -0.0875,-0.8625 -0.0875,-1.9575 l 0,-1.695 c 0,-0.31125 0.2075,-0.3275 0.3825,-0.3275 l 0.66875,0 c 0.28,0 0.35125,0.1525 0.35125,0.3275 l 0,2.3575 c 0,0.8875 0.0413,1.175 0.16875,1.4475 0.1275,0.27125 0.34375,0.39125 0.9275,0.39125 0.5825,0 0.80625,-0.12 0.935,-0.39125 0.1275,-0.2725 0.1675,-0.56 0.1675,-1.4475 l 0,-2.3575 c 0,-0.32 0.23125,-0.3275 0.4,-0.3275 l 0.67625,0 c 0.2875,0 0.3275,0.16 0.3275,0.3275 l 0,1.695 c 0,1.095 -0.0163,1.4775 -0.0962,1.9575" />
    <path
       inkscape:connector-curvature="0"
       id="path2088"
       style="fill:#231f20;fill-opacity:1;fill-rule:nonzero;stroke:none"
       d="m 250.68268,473.90832 c -0.37625,0.1125 -1.22875,0.15125 -1.595,0.15125 -0.29625,0 -0.98875,-0.0225 -1.27625,-0.095 -1.11125,-0.2725 -1.35875,-1.23125 -1.35875,-2.61375 0,-2.3575 0.7425,-2.78875 2.30125,-2.78875 0.45625,0 1.2525,0.0238 1.51625,0.0562 0.33625,0.04 0.4075,0.11125 0.4075,0.28 l 0,0.27125 c 0,0.2875 -0.0475,0.38375 -0.30375,0.38375 -0.19125,0 -0.75125,-0.0637 -1.1275,-0.0637 -0.255,0 -0.67125,0.0238 -0.87,0.11125 -0.47125,0.2075 -0.4875,0.84 -0.4875,1.75875 0,0.9025 0.0475,1.60625 0.7425,1.73375 0.14375,0.0238 0.36875,0.04 0.615,0.04 0.0888,0 0.2075,-0.0163 0.37625,-0.0475 l 0,-1.4875 -0.75125,0 c -0.3275,0 -0.34375,-0.2075 -0.34375,-0.375 l 0,-0.1125 c 0,-0.1675 0.0162,-0.375 0.0112,-0.375 l 1.81125,0 c 0.6125,0 0.67625,0.16 0.67625,0.33625 l 0,2.42125 c 0,0.23875 -0.0962,0.34375 -0.34375,0.415" />
    <path
       inkscape:connector-curvature="0"
       id="path2092"
       style="fill:#231f20;fill-opacity:1;fill-rule:nonzero;stroke:none"
       d="m 255.14568,471.7907 c -0.13625,-0.0325 -0.34375,-0.0563 -0.7275,-0.0563 l -0.47125,0 0,1.3275 c 0.2,0.007 0.335,0.015 0.575,0.015 0.20875,0 0.43125,-0.0238 0.5525,-0.0475 0.23875,-0.0475 0.375,-0.22375 0.375,-0.66375 0,-0.39875 -0.10375,-0.5275 -0.30375,-0.575 m 0,-2.11 c -0.0962,-0.1675 -0.1925,-0.18375 -0.6,-0.18375 -0.1275,0 -0.3675,0.007 -0.59875,0.0162 l 0,1.39 0.42375,0 c 0.11875,0 0.31875,-0.0163 0.415,-0.0312 0.28,-0.0475 0.44,-0.16875 0.44,-0.77625 0,-0.19875 -0.0325,-0.335 -0.08,-0.415 m 1.32375,3.86875 c -0.28,0.31125 -1.0125,0.40625 -1.67625,0.40625 l -1.86625,0 c -0.26375,0 -0.38375,-0.0712 -0.38375,-0.35125 l 0,-4.65875 c 0,-0.31125 0.2075,-0.3275 0.38375,-0.3275 l 1.37125,0 c 0.87125,0 1.39625,0.0163 1.6675,0.14375 0.41625,0.2 0.615,0.6625 0.615,1.24625 0,0.4875 -0.1275,0.8 -0.43875,1.055 0.50375,0.2075 0.7025,0.615 0.7025,1.3025 0,0.50375 -0.11125,0.89625 -0.375,1.18375" />
    <path
       inkscape:connector-curvature="0"
       id="path2096"
       style="fill:#231f20;fill-opacity:1;fill-rule:nonzero;stroke:none"
       d="m 262.22793,469.1932 -1.51875,2.69375 0,1.7175 c 0,0.24 -0.11125,0.3525 -0.34375,0.3525 l -0.67625,0 c -0.26375,0 -0.38375,-0.0725 -0.38375,-0.3525 l 0,-1.65375 -1.59875,-2.845 c -0.0475,-0.08 -0.0788,-0.16 -0.0788,-0.2325 0,-0.19875 0.18375,-0.255 0.31125,-0.255 l 0.765,0 c 0.23875,0 0.31875,0.0875 0.39875,0.23125 l 0.955,1.7175 0.89375,-1.725 c 0.08,-0.14375 0.16,-0.22375 0.4,-0.22375 l 0.68375,0 c 0.20875,0 0.30375,0.11125 0.30375,0.26375 0,0.0962 -0.0638,0.23125 -0.11125,0.31125" />
    <path
       inkscape:connector-curvature="0"
       id="path2100"
       style="fill:#231f20;fill-opacity:1;fill-rule:nonzero;stroke:none"
       d="m 236.22968,478.10757 c -0.145,0.01 -0.23,0.0175 -0.38625,0.0175 -0.125,0 -0.27625,-0.01 -0.39875,-0.0412 -0.47,-0.115 -0.575,-0.52125 -0.575,-1.10625 0,-0.99375 0.315,-1.18 0.97375,-1.18 0.15625,0 0.24125,0.007 0.38625,0.0175 0.13875,0.01 0.17625,0.0437 0.17625,0.1175 l 0,0.1125 c 0,0.12125 -0.0213,0.1625 -0.12875,0.1625 -0.125,0 -0.18625,-0.0175 -0.36625,-0.0175 -0.1075,0 -0.28375,0.01 -0.3675,0.0475 -0.2,0.0875 -0.20625,0.355 -0.20625,0.74375 0,0.3825 0.02,0.68 0.31375,0.73375 0.0613,0.01 0.15625,0.0175 0.26,0.0175 0.18,0 0.24125,-0.0175 0.36625,-0.0175 0.1075,0 0.12875,0.0412 0.12875,0.1625 l 0,0.11125 c 0,0.075 -0.0375,0.10875 -0.17625,0.11875" />
    <path
       inkscape:connector-curvature="0"
       id="path2104"
       style="fill:#231f20;fill-opacity:1;fill-rule:nonzero;stroke:none"
       d="m 240.5768,478.08095 -0.1425,0 c -0.11125,0 -0.16125,-0.0312 -0.16125,-0.14875 l 0,-0.87625 c -0.1225,0.004 -0.2575,0.004 -0.41,0.004 -0.1525,0 -0.38875,0 -0.51,-0.004 l 0,0.87625 c 0,0.10125 -0.0437,0.14875 -0.14125,0.14875 l -0.14625,0 c -0.11125,0 -0.165,-0.0312 -0.165,-0.14875 l 0,-1.97125 c 0,-0.1325 0.0913,-0.13989 0.165,-0.13989 l 0.14625,0 c 0.1175,0 0.14125,0.0649 0.14125,0.13989 l 0,0.7325 c 0.12125,-0.002 0.3575,-0.002 0.51,-0.002 0.1525,0 0.2875,0 0.41,0.002 l 0,-0.7325 c 0,-0.1325 0.0875,-0.14 0.16125,-0.14 l 0.1425,0 c 0.1175,0 0.145,0.065 0.145,0.14 l 0,1.97125 c 0,0.10125 -0.0475,0.14875 -0.145,0.14875"
       sodipodi:nodetypes="csscscsssssssscscsssssc" />
    <path
       inkscape:connector-curvature="0"
       id="path2108"
       style="fill:#231f20;fill-opacity:1;fill-rule:nonzero;stroke:none"
       d="m 244.27455,476.3932 -0.27,0.7975 c 0.0775,0 0.16875,-0.002 0.26625,-0.002 0.105,0 0.17625,0.002 0.275,0.002 l -0.27125,-0.7975 z m 0.8925,1.6875 -0.18625,0 c -0.105,0 -0.135,-0.0512 -0.15875,-0.11875 l -0.14875,-0.4225 c -0.145,0.004 -0.2525,0.004 -0.4025,0.004 -0.14125,0 -0.26625,0 -0.38875,-0.004 l -0.135,0.39875 c -0.03,0.0913 -0.0575,0.1425 -0.1725,0.1425 l -0.155,0 c -0.115,0 -0.1325,-0.03 -0.1325,-0.0812 0,-0.02 0.01,-0.0613 0.0275,-0.105 l 0.6925,-1.93375 c 0.0375,-0.105 0.075,-0.1525 0.2,-0.1525 l 0.13875,0 c 0.125,0 0.1625,0.0475 0.2,0.14875 l 0.73,1.97125 c 0.006,0.0175 0.0137,0.0337 0.0137,0.0512 0,0.0838 -0.0675,0.10125 -0.1225,0.10125" />
    <path
       inkscape:connector-curvature="0"
       id="path2112"
       style="fill:#231f20;fill-opacity:1;fill-rule:nonzero;stroke:none"
       d="m 249.53168,478.08095 -0.105,0 c -0.0775,0 -0.13875,0 -0.18875,-0.0712 -0.2475,-0.335 -0.63625,-0.9125 -0.95,-1.3725 l 0,1.295 c 0,0.10125 -0.0512,0.14875 -0.14875,0.14875 l -0.13625,0 c -0.11125,0 -0.1625,-0.0312 -0.1625,-0.14875 l 0,-1.97125 c 0,-0.1325 0.0888,-0.14 0.1625,-0.14 l 0.0913,0 c 0.0788,0 0.1225,0.004 0.1725,0.0713 0.25375,0.345 0.61625,0.89 0.96,1.3825 l 0,-1.31375 c 0,-0.1325 0.0925,-0.14 0.16625,-0.14 l 0.13875,0 c 0.1175,0 0.1425,0.065 0.1425,0.14 l 0,1.97125 c 0,0.10125 -0.045,0.14875 -0.1425,0.14875" />
    <path
       inkscape:connector-curvature="0"
       id="path2116"
       style="fill:#231f20;fill-opacity:1;fill-rule:nonzero;stroke:none"
       d="m 254.04118,478.08095 -0.105,0 c -0.0775,0 -0.13875,0 -0.19,-0.0712 -0.24625,-0.335 -0.63625,-0.9125 -0.95,-1.3725 l 0,1.295 c 0,0.10125 -0.05,0.14875 -0.14875,0.14875 l -0.135,0 c -0.11125,0 -0.1625,-0.0312 -0.1625,-0.14875 l 0,-1.97125 c 0,-0.1325 0.0875,-0.14 0.1625,-0.14 l 0.0913,0 c 0.0775,0 0.1225,0.004 0.1725,0.0713 0.25375,0.345 0.615,0.89 0.96125,1.3825 l 0,-1.31375 c 0,-0.1325 0.09,-0.14 0.165,-0.14 l 0.13875,0 c 0.11875,0 0.14125,0.065 0.14125,0.14 l 0,1.97125 c 0,0.10125 -0.0438,0.14875 -0.14125,0.14875" />
    <path
       inkscape:connector-curvature="0"
       id="path2120"
       style="fill:#231f20;fill-opacity:1;fill-rule:nonzero;stroke:none"
       d="m 257.94243,478.08095 -1.045,0 c -0.11125,0 -0.16625,-0.0312 -0.16625,-0.14875 l 0,-1.97125 c 0,-0.1325 0.0913,-0.14 0.16625,-0.14 l 1.045,0 c 0.085,0 0.145,0.025 0.145,0.14 l 0,0.09 c 0,0.0713 -0.006,0.15875 -0.145,0.15875 -0.28375,0 -0.55375,-0.002 -0.7575,-0.01 l 0,0.5275 c 0.18625,-0.002 0.40625,-0.01 0.68375,-0.01 0.1375,0 0.145,0.0888 0.145,0.15875 l 0,0.0487 c 0,0.07 -0.008,0.15875 -0.145,0.15875 -0.2775,0 -0.4975,-0.008 -0.68375,-0.01 l 0,0.62875 c 0.20375,-0.007 0.47375,-0.0113 0.7575,-0.0113 0.13875,0 0.145,0.0888 0.145,0.16 l 0,0.0913 c 0,0.115 -0.0675,0.13875 -0.145,0.13875" />
    <path
       inkscape:connector-curvature="0"
       id="path2124"
       style="fill:#231f20;fill-opacity:1;fill-rule:nonzero;stroke:none"
       d="m 261.7628,478.08095 -0.94625,0 c -0.1125,0 -0.16625,-0.0312 -0.16625,-0.14875 l 0,-1.97125 c 0,-0.1325 0.0913,-0.14 0.16625,-0.14 l 0.145,0 c 0.1175,0 0.14125,0.065 0.14125,0.14 l 0,1.7375 c 0.18375,-0.004 0.39625,-0.007 0.66,-0.007 0.13875,0 0.14625,0.0888 0.14625,0.16 l 0,0.0913 c 0,0.115 -0.0687,0.13875 -0.14625,0.13875" />
    <path
       inkscape:connector-curvature="0"
       id="path2128"
       style="fill:#231f20;fill-opacity:1;fill-rule:nonzero;stroke:none"
       d="m 253.99593,455.78695 c -0.15125,-0.0763 -0.56,-0.0763 -0.73,-0.0763 -0.30375,0 -0.55125,0.01 -0.81625,0.02 l 0,1.84875 1.0725,0 c 0.34125,0 0.5125,-0.0563 0.61625,-0.18875 0.085,-0.11375 0.11375,-0.26625 0.11375,-0.6175 0,-0.38875 -0.0375,-0.8725 -0.25625,-0.98625 m 1.90375,5.18 -0.965,0 c -0.23625,0 -0.3975,-0.0288 -0.5775,-0.25625 l -1.61375,-2.04875 -0.29375,0 0,1.88625 c 0,0.285 -0.12375,0.41875 -0.39875,0.41875 l -0.8025,0 c -0.3125,0 -0.465,-0.085 -0.465,-0.41875 l 0,-5.53 c 0,-0.37 0.25625,-0.38875 0.465,-0.38875 l 2.545,0 c 0.99625,0 1.2525,0.0662 1.6225,0.44625 0.35125,0.35125 0.4925,0.9575 0.4925,1.77375 0,0.7775 -0.2275,1.26125 -0.62625,1.5375 -0.17,0.1125 -0.36875,0.18875 -0.635,0.2275 l 1.45125,1.76375 c 0.19,0.2275 0.22875,0.58875 -0.19875,0.58875" />
    <path
       inkscape:connector-curvature="0"
       id="path2132"
       style="fill:#231f20;fill-opacity:1;fill-rule:nonzero;stroke:none"
       d="m 248.16893,457.4252 c 0.2175,-2.575 2.37625,-4.59875 5.0075,-4.59875 2.63125,0 4.79,2.02375 5.0075,4.59875 l 3.97125,0 c -0.54875,-4.045 -7.21625,-7.96875 -13.77,-7.96875 -6.55375,0 -13.03125,3.92375 -13.565,7.96875 l 13.34875,0 z" />
    <path
       inkscape:connector-curvature="0"
       id="path2136"
       style="fill:#231f20;fill-opacity:1;fill-rule:nonzero;stroke:none"
       d="m 258.15405,458.55895 c -0.3425,2.4425 -2.44,4.3225 -4.9775,4.3225 -2.5375,0 -4.63375,-1.88 -4.97625,-4.3225 l -13.37125,0 c 0.59625,4.02 7.04,7.9 13.55625,7.9 6.51625,0 13.1475,-3.88 13.76125,-7.9 l -3.9925,0 z" />
    <path
       style="opacity:1;fill:#231f20;fill-opacity:1"
       inkscape:connector-curvature="0"
       id="path35"
       d="m 260.07563,480.96108 c 0.32827,-0.32661 0.65982,-0.64991 0.98975,-0.97323 0.002,1.53906 10e-4,3.07809 10e-4,4.61715 l -0.98975,0 c 0,-1.21409 0.002,-2.42983 -0.002,-3.64392 z" />
    <path
       inkscape:connector-curvature="0"
       id="path72756-6"
       style="fill:#231f20;fill-opacity:1;fill-rule:nonzero;stroke:none"
       d="m 236.29497,482.18152 c 0.0813,0 0.15755,-0.0165 0.22855,-0.0481 0.0704,-0.0322 0.13153,-0.0764 0.18274,-0.13196 0.0518,-0.0556 0.0922,-0.11893 0.12224,-0.18976 0.0299,-0.0704 0.0452,-0.14455 0.0452,-0.22146 0,-0.15447 -0.0552,-0.29019 -0.16415,-0.40855 -0.10904,-0.11729 -0.2471,-0.17676 -0.41456,-0.17676 l -0.46256,0 0,1.17658 0.46256,0 z m -1.49134,-2.14047 1.50389,0 c 0.22309,0 0.42983,0.0408 0.62074,0.12225 0.19038,0.0814 0.35568,0.19142 0.49476,0.33112 0.1396,0.13917 0.24873,0.30274 0.32783,0.49146 0.0797,0.18875 0.11895,0.39002 0.11895,0.60441 0,0.21436 -0.0392,0.41565 -0.11895,0.60382 -0.0791,0.18873 -0.18811,0.35294 -0.32783,0.49204 -0.13917,0.13918 -0.30438,0.24981 -0.49476,0.33109 -0.1908,0.0814 -0.39765,0.12224 -0.62074,0.12224 l -0.47511,0 0,1.4657 -1.02878,0 0,-4.56401 z" />
    <path
       inkscape:connector-curvature="0"
       id="path72760-4"
       style="fill:#231f20;fill-opacity:1;fill-rule:nonzero;stroke:none"
       d="m 240.50546,483.66636 c 0.1844,0 0.35566,-0.0356 0.5144,-0.10634 0.15817,-0.0704 0.29563,-0.16686 0.41128,-0.2891 0.11564,-0.12162 0.20673,-0.26457 0.2733,-0.42711 0.0661,-0.16315 0.0993,-0.33657 0.0993,-0.52095 0,-0.1844 -0.0332,-0.35782 -0.0993,-0.52037 -0.0667,-0.16313 -0.15757,-0.30547 -0.2733,-0.42765 -0.11562,-0.12223 -0.25311,-0.21874 -0.41128,-0.28911 -0.1588,-0.0708 -0.33002,-0.10635 -0.5144,-0.10635 -0.1844,0 -0.35565,0.0356 -0.51438,0.10635 -0.1588,0.0704 -0.29564,0.16685 -0.4113,0.28911 -0.11564,0.12225 -0.20674,0.26454 -0.27327,0.42765 -0.0667,0.16251 -0.0997,0.33601 -0.0997,0.52037 0,0.1844 0.0332,0.35785 0.0997,0.52095 0.0667,0.1625 0.15755,0.30547 0.27327,0.42711 0.11565,0.12224 0.25256,0.21874 0.4113,0.2891 0.15878,0.0708 0.33001,0.10634 0.51438,0.10634 m 0,0.9895 c -0.32129,0 -0.62348,-0.0605 -0.90658,-0.18275 -0.28257,-0.12225 -0.53023,-0.28964 -0.74239,-0.50129 -0.21166,-0.21219 -0.37911,-0.45984 -0.5013,-0.74241 -0.12225,-0.28308 -0.18338,-0.58529 -0.18338,-0.90657 0,-0.32129 0.0611,-0.62347 0.18338,-0.90658 0.12223,-0.28256 0.28964,-0.53021 0.5013,-0.74185 0.21216,-0.21219 0.45982,-0.37966 0.74239,-0.50184 0.2831,-0.12225 0.58529,-0.18337 0.90658,-0.18337 0.32128,0 0.62349,0.0611 0.90658,0.18337 0.28256,0.12224 0.53021,0.28965 0.74186,0.50184 0.21218,0.21164 0.37964,0.45929 0.50185,0.74185 0.12162,0.28311 0.18336,0.58529 0.18336,0.90658 0,0.32128 -0.0615,0.62349 -0.18336,0.90657 -0.12225,0.28257 -0.28967,0.53022 -0.50185,0.74241 -0.21165,0.21165 -0.4593,0.3791 -0.74186,0.50129 -0.28309,0.12224 -0.5853,0.18275 -0.90658,0.18275" />
    <path
       inkscape:connector-curvature="0"
       id="path72764-9"
       style="fill:#231f20;fill-opacity:1;fill-rule:nonzero;stroke:none"
       d="m 244.97915,482.18152 c 0.0814,0 0.15755,-0.0165 0.22855,-0.0481 0.0704,-0.0322 0.13153,-0.0764 0.18273,-0.13196 0.0517,-0.0556 0.0922,-0.11893 0.12225,-0.18976 0.0299,-0.0704 0.0452,-0.14455 0.0452,-0.22146 0,-0.15447 -0.0552,-0.29019 -0.16416,-0.40855 -0.10902,-0.11729 -0.24763,-0.17676 -0.41455,-0.17676 l -0.46258,0 0,1.17658 0.46258,0 z m -1.49133,-2.14047 1.50388,0 c 0.22309,0 0.42983,0.0408 0.62074,0.12225 0.19039,0.0814 0.35566,0.19142 0.49474,0.33112 0.1396,0.13917 0.24875,0.30274 0.32785,0.49146 0.0791,0.18875 0.11894,0.39002 0.11894,0.60441 0,0.21436 -0.0398,0.41565 -0.11894,0.60382 -0.0791,0.18873 -0.18811,0.35294 -0.32785,0.49204 -0.13917,0.13918 -0.30438,0.24981 -0.49474,0.33109 -0.1908,0.0814 -0.39765,0.12224 -0.62074,0.12224 l -0.47512,0 0,1.4657 -1.02876,0 0,-4.56401 z" />
    <path
       d="m 246.91406,482.32922 1.82517,0 0,0.92568 -1.82517,0 0,-0.92568 z"
       style="fill:#231f20;fill-opacity:1;fill-rule:nonzero;stroke:none"
       id="path72766-9"
       inkscape:connector-curvature="0" />
    <path
       inkscape:connector-curvature="0"
       id="path72770-5"
       style="fill:#231f20;fill-opacity:1;fill-rule:nonzero;stroke:none"
       d="m 251.27221,484.65606 c -0.27435,0 -0.52583,-0.0453 -0.75549,-0.13463 -0.22908,-0.09 -0.42601,-0.21872 -0.59075,-0.38565 -0.16519,-0.16747 -0.294,-0.36711 -0.38618,-0.6011 -0.0921,-0.23347 -0.13795,-0.49367 -0.13795,-0.78114 l 0,-2.71265 1.02823,0 0,2.72575 c 0,0.27819 0.0774,0.49802 0.2313,0.65839 0.15424,0.16087 0.35784,0.24165 0.61093,0.24165 0.25254,0 0.45655,-0.0807 0.61038,-0.24165 0.15447,-0.16045 0.23183,-0.3802 0.23183,-0.65839 l 0,-2.72575 1.02824,0 0,2.71265 c 0,0.28747 -0.0459,0.54767 -0.13794,0.78114 -0.0927,0.23399 -0.22091,0.43365 -0.38618,0.6011 -0.16479,0.16684 -0.36166,0.29566 -0.59076,0.38565 -0.22911,0.0894 -0.48112,0.13463 -0.75549,0.13463" />
    <path
       inkscape:connector-curvature="0"
       id="path72774-7"
       style="fill:#231f20;fill-opacity:1;fill-rule:nonzero;stroke:none"
       d="m 255.4502,482.18152 c 0.0817,0 0.15756,-0.0165 0.228,-0.0481 0.0714,-0.0322 0.13194,-0.0764 0.18379,-0.13196 0.0512,-0.0556 0.0921,-0.11893 0.12162,-0.18976 0.0299,-0.0704 0.0453,-0.14455 0.0453,-0.22146 0,-0.15447 -0.0545,-0.29019 -0.16417,-0.40855 -0.10902,-0.11729 -0.2471,-0.17676 -0.41456,-0.17676 l -0.46312,0 0,1.17658 0.46312,0 z m -1.49134,-2.14047 1.50441,0 c 0.2231,0 0.4293,0.0408 0.61967,0.12225 0.19143,0.0814 0.3562,0.19142 0.49584,0.33112 0.13917,0.13917 0.24821,0.30274 0.3273,0.49146 0.0795,0.18875 0.11956,0.39002 0.11956,0.60441 0,0.21436 -0.0399,0.41565 -0.11956,0.60382 -0.079,0.18873 -0.18813,0.35294 -0.3273,0.49204 -0.13959,0.13918 -0.30437,0.24981 -0.49584,0.33109 -0.19039,0.0814 -0.39657,0.12224 -0.61967,0.12224 l -0.47619,0 0,1.4657 -1.02822,0 0,-4.56401 z" />
  </g>
</svg>
