<svg height="8.090923mm" viewBox="0 0 27.5355 28.668626" width="7.77113mm" xmlns="http://www.w3.org/2000/svg" xmlns:xlink="http://www.w3.org/1999/xlink"><clipPath id="a"><path d="m211.635 421.103h82.8v24.803h-82.8z"/></clipPath><g clip-path="url(#a)" transform="matrix(1.25 0 0 -1.25 -302.525501 556.21425)"><g transform="translate(244.1854 428.8622)"><path d="m0 0c-.102.051-.377.051-.492.051-.205 0-.371-.006-.55-.013v-1.247h.723c.23 0 .345.039.415.129.057.076.077.179.077.415 0 .262-.026.588-.173.665m1.283-3.491h-.65c-.16 0-.268.019-.39.173l-1.087 1.381h-.198v-1.272c0-.192-.083-.282-.269-.282h-.541c-.211 0-.313.057-.313.282v3.727c0 .249.173.262.313.262h1.716c.671 0 .844-.045 1.093-.3.236-.237.332-.646.332-1.196 0-.524-.153-.85-.422-1.036-.115-.077-.249-.128-.428-.153l.978-1.19c.128-.153.154-.396-.134-.396" fill="#fff"/></g><g transform="translate(250.3363 426.4583)"><path d="m0 0c-.064-.377-.198-.652-.403-.844-.268-.243-.944-.339-1.525-.339-.582 0-1.251.096-1.52.339-.205.192-.345.467-.409.844-.064.384-.07.69-.07 1.566v1.356c0 .249.166.262.306.262h.535c.224 0 .281-.122.281-.262v-1.886c0-.71.033-.94.135-1.158.102-.217.275-.313.742-.313.466 0 .645.096.748.313.102.218.134.448.134 1.158v1.886c0 .256.185.262.32.262h.541c.23 0 .262-.128.262-.262v-1.356c0-.876-.013-1.182-.077-1.566" fill="#fff"/></g><g transform="translate(254.7236 425.4099)"><path d="m0 0c-.301-.09-.983-.121-1.276-.121-.237 0-.791.018-1.021.076-.889.218-1.087.985-1.087 2.091 0 1.886.594 2.231 1.841 2.231.365 0 1.002-.019 1.213-.045.269-.032.326-.089.326-.224v-.217c0-.23-.038-.307-.243-.307-.153 0-.601.051-.902.051-.204 0-.537-.019-.696-.089-.377-.166-.39-.672-.39-1.407 0-.722.038-1.285.594-1.387.115-.019.295-.032.492-.032.071 0 .166.013.301.038v1.19h-.601c-.262 0-.275.166-.275.3v.09c0 .134.013.3.009.3h1.449c.49 0 .541-.128.541-.269v-1.937c0-.191-.077-.275-.275-.332" fill="#fff"/></g><g transform="translate(258.294 427.104)"><path d="m0 0c-.109.026-.275.045-.582.045h-.377v-1.062c.16-.006.268-.012.46-.012.167 0 .345.019.442.038.191.038.3.179.3.531 0 .319-.083.422-.243.46m0 1.688c-.077.134-.154.147-.48.147-.102 0-.294-.006-.479-.013v-1.112h.339c.095 0 .255.013.332.025.224.038.352.135.352.621 0 .159-.026.268-.064.332m1.059-3.095c-.224-.249-.81-.325-1.341-.325h-1.493c-.211 0-.307.057-.307.281v3.727c0 .249.166.262.307.262h1.097c.697 0 1.117-.013 1.334-.115.333-.16.492-.53.492-.997 0-.39-.102-.64-.351-.844.403-.166.562-.492.562-1.042 0-.403-.089-.717-.3-.947" fill="#fff"/></g><g transform="translate(263.9598 429.182)"><path d="m0 0-1.215-2.155v-1.374c0-.192-.089-.282-.275-.282h-.541c-.211 0-.307.058-.307.282v1.323l-1.279 2.276c-.038.064-.063.128-.063.186 0 .159.147.204.249.204h.612c.191 0 .255-.07.319-.185l.764-1.374.715 1.38c.064.115.128.179.32.179h.547c.167 0 .243-.089.243-.211 0-.077-.051-.185-.089-.249" fill="#fff"/></g><g transform="translate(243.1612 422.0505)"><path d="m0 0c-.116-.008-.184-.014-.309-.014-.1 0-.221.008-.319.033-.376.092-.46.417-.46.885 0 .795.252.944.779.944.125 0 .193-.006.309-.014.111-.008.141-.035.141-.094v-.09c0-.097-.017-.13-.103-.13-.1 0-.149.014-.293.014-.086 0-.227-.008-.294-.038-.16-.07-.165-.284-.165-.595 0-.306.016-.544.251-.587.049-.008.125-.014.208-.014.144 0 .193.014.293.014.086 0 .103-.033.103-.13v-.089c0-.06-.03-.087-.141-.095" fill="#fff"/></g><g transform="translate(246.6389 422.0718)"><path d="m0 0h-.114c-.089 0-.129.025-.129.119v.701c-.098-.003-.206-.003-.328-.003s-.311 0-.408.003v-.701c0-.081-.035-.119-.113-.119h-.117c-.089 0-.132.025-.132.119v1.577c0 .106.073.112.132.112h.117c.094 0 .113-.052.113-.112v-.586c.097.002.286.002.408.002s.23 0 .328-.002v.586c0 .106.07.112.129.112h.114c.094 0 .116-.052.116-.112v-1.577c0-.081-.038-.119-.116-.119" fill="#fff"/></g><g transform="translate(249.5971 423.422)"><path d="m0 0-.216-.638c.062 0 .135.002.213.002.084 0 .141-.002.22-.002zm.714-1.35h-.149c-.084 0-.108.041-.127.095l-.119.338c-.116-.003-.202-.003-.322-.003-.113 0-.213 0-.311.003l-.108-.319c-.024-.073-.046-.114-.138-.114h-.124c-.092 0-.106.024-.106.065 0 .016.008.049.022.084l.554 1.547c.03.084.06.122.16.122h.111c.1 0 .13-.038.16-.119l.584-1.577c.005-.014.011-.027.011-.041 0-.067-.054-.081-.098-.081" fill="#fff"/></g><g transform="translate(253.8028 422.0718)"><path d="m0 0h-.084c-.062 0-.111 0-.151.057-.198.268-.509.73-.76 1.098v-1.036c0-.081-.041-.119-.119-.119h-.109c-.089 0-.13.025-.13.119v1.577c0 .106.071.112.13.112h.073c.063 0 .098-.003.138-.057.203-.276.493-.712.768-1.106v1.051c0 .106.074.112.133.112h.111c.094 0 .114-.052.114-.112v-1.577c0-.081-.036-.119-.114-.119" fill="#fff"/></g><g transform="translate(257.4104 422.0718)"><path d="m0 0h-.084c-.062 0-.111 0-.152.057-.197.268-.509.73-.76 1.098v-1.036c0-.081-.04-.119-.119-.119h-.108c-.089 0-.13.025-.13.119v1.577c0 .106.07.112.13.112h.073c.062 0 .098-.003.138-.057.203-.276.492-.712.769-1.106v1.051c0 .106.072.112.132.112h.111c.095 0 .113-.052.113-.112v-1.577c0-.081-.035-.119-.113-.119" fill="#fff"/></g><g transform="translate(260.5314 422.0718)"><path d="m0 0h-.836c-.089 0-.133.025-.133.119v1.577c0 .106.073.112.133.112h.836c.068 0 .116-.02.116-.112v-.072c0-.057-.005-.127-.116-.127-.227 0-.443.002-.606.008v-.422c.149.002.325.008.547.008.11 0 .116-.071.116-.127v-.039c0-.056-.006-.127-.116-.127-.222 0-.398.006-.547.008v-.503c.163.006.379.009.606.009.111 0 .116-.071.116-.128v-.073c0-.092-.054-.111-.116-.111" fill="#fff"/></g><g transform="translate(263.5877 422.0718)"><path d="m0 0h-.757c-.09 0-.133.025-.133.119v1.577c0 .106.073.112.133.112h.116c.094 0 .113-.052.113-.112v-1.39c.147.003.317.006.528.006.111 0 .117-.071.117-.128v-.073c0-.092-.055-.111-.117-.111" fill="#fff"/></g><g transform="translate(257.3742 439.907)"><path d="m0 0c-.121.061-.448.061-.584.061-.243 0-.441-.008-.653-.016v-1.479h.858c.273 0 .41.045.493.151.068.091.091.213.091.494 0 .311-.03.698-.205.789m1.523-4.144h-.772c-.189 0-.318.023-.462.205l-1.291 1.639h-.235v-1.509c0-.228-.099-.335-.319-.335h-.642c-.25 0-.372.068-.372.335v4.424c0 .296.205.311.372.311h2.036c.797 0 1.002-.053 1.298-.357.281-.281.394-.766.394-1.419 0-.622-.182-1.009-.501-1.23-.136-.09-.295-.151-.508-.182l1.161-1.411c.152-.182.183-.471-.159-.471" fill="#fff"/></g><g transform="translate(252.7126 438.5964)"><path d="m0 0c .174 2.06 1.901 3.679 4.006 3.679s3.832-1.619 4.006-3.679h3.177c-.439 3.236-5.773 6.375-11.016 6.375s-10.425-3.139-10.852-6.375z" fill="#fff"/></g><g transform="translate(260.7007 437.6894)"><path d="m0 0c-.274-1.954-1.952-3.458-3.982-3.458s-3.707 1.504-3.981 3.458h-10.697c.477-3.216 5.632-6.32 10.845-6.32s10.518 3.104 11.009 6.32z" fill="#fff"/></g></g></svg>