<svg height="9.486651mm" viewBox="0 0 119.19 33.614119" width="33.638065mm" xmlns="http://www.w3.org/2000/svg" xmlns:xlink="http://www.w3.org/1999/xlink"><linearGradient id="a" gradientUnits="userSpaceOnUse" x1="-8.777667" x2="-8.704217" y1="13.4786" y2="-13.694504"><stop offset="0" stop-color="#f59a00"/><stop offset="1" stop-color="#ffd800"/></linearGradient><g transform="translate(-168.977 -526.98345)"><path d="m0 0c-.019.08-.048.122-.088.124-.012.001-.023.001-.036.001-.408 0-1.153-.438-2.049-2.954 2.012 1.322 2.259 2.477 2.173 2.829m-10.7538-1.297304c-.345-.294-.498-.727-.519-1.174.448.497.579.983.57 1.215-.016-.012-.033-.024-.051-.041m-5.9564-1.559696c-.014 0-.028-.002-.039-.005-.04-.012-.192-.221-.139-.99.061-.892.509-1.49 1.138-1.521.321-.016.674.108 1.014.384-.63 1.284-1.64 2.132-1.974 2.132m8.7034.416c-.029.039-.062.058-.08.058h-.003c-.029-.006-.127-.079-.195-.331-.053-.203-.058-.516-.016-.862.1.106.184.223.248.352.187.38.141.66.046.783m3.698904 1.413c-.134.197-.306.252-.374.252-.163-.284-.255-1.59.162-2.291.486.98.464 1.671.212 2.039m-9.081 2.225296h-.002c-.056 0-.235-.144-.273-.372-.076-.431.085-1.561.413-2.503.388 2.517-.132 2.873-.138 2.875m4.6212 12.1404c-7.426 0-13.445-6.02-13.445-13.446 0-6.359 4.414-11.681 10.344-13.083-.453 2.362-1.796 5.777-2.514 7.428-.462-.323-.95-.464-1.41-.443-1.062.054-1.836.977-1.928 2.298-.073 1.073.18 1.696.755 1.851.952.256 2.171-1.11 2.82-2.263.23.346.437.782.603 1.312-.774 1.232-1.055 3.337-.943 3.976.101.593.621 1.153 1.238 1.051.654-.113 1.319-.92.772-4.128-.043-.26-.097-.507-.156-.74.067-.073.136-.133.207-.178.091-.058.201-.103.355-.058-.129.857.052 1.806.774 2.423.428.364.768.311.934.246.263-.103.437-.359.478-.701.074-.617-.288-1.584-1.234-2.35.073-.204.171-.385.281-.528.161-.208.576-.311 1.057-.262.229.024.477.083.716.18-.121.61-.126 1.198-.027 1.577.137.514.442.854.835.933.335.07.684-.072.909-.365.328-.425.343-1.045.041-1.66-.184-.376-.465-.673-.785-.901.169-.491.423-.923.76-1.092.632-.315 1.459.564 1.895 1.115.173.218.326.427.46.629-.029.031-.057.061-.081.092-.846 1.022-.674 3.056-.236 3.546.322.361.935.343 1.394-.045.237-.2 1.172-1.165.093-3.26.169.002.358.031.568.105 1.405 4.474 2.627 4.397 3.203 4.359.414-.026.738-.317.846-.759.217-.893-.427-2.476-2.951-3.988-.145-.088-.286-.163-.42-.228-.576-1.93-1.201-4.736-1.83-8.802 5.277 1.816 9.07 6.821 9.07 12.713 0 7.426-6.022 13.446-13.448 13.446m4.5068-17.614296c-.151-.225-.325-.463-.52-.711-1.315-1.661-2.316-1.646-2.923-1.342-.519.26-.893.818-1.132 1.447-.297-.112-.595-.177-.861-.204-.793-.081-1.451.13-1.8.581-.134.175-.254.385-.351.617-.35-.098-.702-.047-1.023.157-.012.007-.023.015-.034.022-.229-.595-.515-1.077-.832-1.454.734-1.643 2.32-5.601 2.747-8.205.724-.12 1.466-.185 2.222-.185 1.209 0 2.38.161 3.494.46.592 3.905 1.191 6.733 1.764 8.773-.291-.039-.541-.016-.751.044" fill="url(#a)" transform="matrix(1.25 0 0 -1.25 196.74287 543.65557)"/><g fill="#f59a00"><path d="m0 0c-.486.306-1.313.614-2.529.944-.063.023-.123.04-.18.051l-.069.018c-1.303.335-1.739.604-1.877.73-.32.298-.468.62-.468 1.012 0 .6.181 1.023.573 1.335.384.312.892.465 1.557.465.721 0 1.287-.185 1.728-.562.439-.377.659-.9.676-1.6l.013-.607h1.745l-.032.653c-.061 1.188-.477 2.128-1.234 2.789-.729.658-1.694.992-2.866.992-1.077 0-1.979-.283-2.676-.838-.804-.617-1.211-1.499-1.211-2.627 0-.916.329-1.676.975-2.259.261-.236.816-.611 2.642-1.126.005-.001.011-.002.016-.004l.169-.053c1.375-.372 1.839-.601 2.009-.714.493-.307.723-.742.723-1.363 0-.608-.226-1.054-.72-1.409-.459-.343-1.029-.51-1.745-.51-.803 0-1.41.215-1.852.657-.453.453-.698 1.063-.749 1.86l-.038.584h-1.744l.044-.663c.079-1.266.511-2.275 1.272-2.989.762-.749 1.789-1.13 3.051-1.13 1.175 0 2.157.298 2.927.889.869.686 1.31 1.644 1.31 2.847 0 1.111-.496 2.019-1.44 2.628" transform="matrix(1.25 0 0 -1.25 218.50774 543.7007)"/><path d="m0 0h-5.638v4.84h-1.757v-12.116h1.757v5.58h5.638v-5.58h1.741v12.116h-1.741z" transform="matrix(1.25 0 0 -1.25 237.18487 542.27757)"/><path d="m247.80837 551.37145h2.17625v-15.145h-2.17625z"/><path d="m0 0-5.872 8.617h-1.463v-12.115h1.74v8.607l5.887-8.607h1.448v12.115h-1.74z" transform="matrix(1.25 0 0 -1.25 267.59974 546.99895)"/><path d="m0 0v3.704h4.854v1.711h-4.854v3.248h6.125v1.728h-7.882v-12.116h8.033v1.725z" transform="matrix(1.25 0 0 -1.25 280.322 549.21557)"/></g></g></svg>