<?xml version="1.0" encoding="UTF-8"?>
<!-- Created with Inkscape (http://www.inkscape.org/) -->
<svg id="svg12380" width="33.638mm" height="9.4867mm" version="1.1" viewBox="0 0 119.19 33.614" xmlns="http://www.w3.org/2000/svg" xmlns:cc="http://creativecommons.org/ns#" xmlns:dc="http://purl.org/dc/elements/1.1/" xmlns:rdf="http://www.w3.org/1999/02/22-rdf-syntax-ns#" xmlns:xlink="http://www.w3.org/1999/xlink">
 <defs id="defs12382">
  <linearGradient id="linearGradient13178">
   <stop id="stop13180" stop-color="#f59a00" offset="0"/>
   <stop id="stop13182" stop-color="#ffd800" offset="1"/>
  </linearGradient>
  <linearGradient id="linearGradient13184" x1="-8.7777" x2="-8.7042" y1="13.479" y2="-13.695" gradientUnits="userSpaceOnUse" xlink:href="#linearGradient13178"/>
 </defs>
 <metadata id="metadata12385">
  <rdf:RDF>
   <cc:Work rdf:about="">
    <dc:format>image/svg+xml</dc:format>
    <dc:type rdf:resource="http://purl.org/dc/dcmitype/StillImage"/>
    <dc:title/>
   </cc:Work>
  </rdf:RDF>
 </metadata>
 <g id="layer1" transform="translate(-168.98 -526.98)">
  <g id="g6982" transform="matrix(1.25 0 0 -1.25 196.74 543.66)" fill="url(#linearGradient13184)">
   <path id="path6984" d="m0 0c-0.019 0.08-0.048 0.122-0.088 0.124-0.012 1e-3 -0.023 1e-3 -0.036 1e-3 -0.408 0-1.153-0.438-2.049-2.954 2.012 1.322 2.259 2.477 2.173 2.829m-10.754-1.2973c-0.345-0.294-0.498-0.727-0.519-1.174 0.448 0.497 0.579 0.983 0.57 1.215-0.016-0.012-0.033-0.024-0.051-0.041m-5.9564-1.5597c-0.014 0-0.028-2e-3 -0.039-5e-3 -0.04-0.012-0.192-0.221-0.139-0.99 0.061-0.892 0.509-1.49 1.138-1.521 0.321-0.016 0.674 0.108 1.014 0.384-0.63 1.284-1.64 2.132-1.974 2.132m8.7034 0.416c-0.029 0.039-0.062 0.058-0.08 0.058h-3e-3c-0.029-6e-3 -0.127-0.079-0.195-0.331-0.053-0.203-0.058-0.516-0.016-0.862 0.1 0.106 0.184 0.223 0.248 0.352 0.187 0.38 0.141 0.66 0.046 0.783m3.6989 1.413c-0.134 0.197-0.306 0.252-0.374 0.252-0.163-0.284-0.255-1.59 0.162-2.291 0.486 0.98 0.464 1.671 0.212 2.039m-9.081 2.2253h-2e-3c-0.056 0-0.235-0.144-0.273-0.372-0.076-0.431 0.085-1.561 0.413-2.503 0.388 2.517-0.132 2.873-0.138 2.875m4.6212 12.14c-7.426 0-13.445-6.02-13.445-13.446 0-6.359 4.414-11.681 10.344-13.083-0.453 2.362-1.796 5.777-2.514 7.428-0.462-0.323-0.95-0.464-1.41-0.443-1.062 0.054-1.836 0.977-1.928 2.298-0.073 1.073 0.18 1.696 0.755 1.851 0.952 0.256 2.171-1.11 2.82-2.263 0.23 0.346 0.437 0.782 0.603 1.312-0.774 1.232-1.055 3.337-0.943 3.976 0.101 0.593 0.621 1.153 1.238 1.051 0.654-0.113 1.319-0.92 0.772-4.128-0.043-0.26-0.097-0.507-0.156-0.74 0.067-0.073 0.136-0.133 0.207-0.178 0.091-0.058 0.201-0.103 0.355-0.058-0.129 0.857 0.052 1.806 0.774 2.423 0.428 0.364 0.768 0.311 0.934 0.246 0.263-0.103 0.437-0.359 0.478-0.701 0.074-0.617-0.288-1.584-1.234-2.35 0.073-0.204 0.171-0.385 0.281-0.528 0.161-0.208 0.576-0.311 1.057-0.262 0.229 0.024 0.477 0.083 0.716 0.18-0.121 0.61-0.126 1.198-0.027 1.577 0.137 0.514 0.442 0.854 0.835 0.933 0.335 0.07 0.684-0.072 0.909-0.365 0.328-0.425 0.343-1.045 0.041-1.66-0.184-0.376-0.465-0.673-0.785-0.901 0.169-0.491 0.423-0.923 0.76-1.092 0.632-0.315 1.459 0.564 1.895 1.115 0.173 0.218 0.326 0.427 0.46 0.629-0.029 0.031-0.057 0.061-0.081 0.092-0.846 1.022-0.674 3.056-0.236 3.546 0.322 0.361 0.935 0.343 1.394-0.045 0.237-0.2 1.172-1.165 0.093-3.26 0.169 2e-3 0.358 0.031 0.568 0.105 1.405 4.474 2.627 4.397 3.203 4.359 0.414-0.026 0.738-0.317 0.846-0.759 0.217-0.893-0.427-2.476-2.951-3.988-0.145-0.088-0.286-0.163-0.42-0.228-0.576-1.93-1.201-4.736-1.83-8.802 5.277 1.816 9.07 6.821 9.07 12.713 0 7.426-6.022 13.446-13.448 13.446m4.5068-17.614c-0.151-0.225-0.325-0.463-0.52-0.711-1.315-1.661-2.316-1.646-2.923-1.342-0.519 0.26-0.893 0.818-1.132 1.447-0.297-0.112-0.595-0.177-0.861-0.204-0.793-0.081-1.451 0.13-1.8 0.581-0.134 0.175-0.254 0.385-0.351 0.617-0.35-0.098-0.702-0.047-1.023 0.157-0.012 7e-3 -0.023 0.015-0.034 0.022-0.229-0.595-0.515-1.077-0.832-1.454 0.734-1.643 2.32-5.601 2.747-8.205 0.724-0.12 1.466-0.185 2.222-0.185 1.209 0 2.38 0.161 3.494 0.46 0.592 3.905 1.191 6.733 1.764 8.773-0.291-0.039-0.541-0.016-0.751 0.044" fill="url(#linearGradient13184)"/>
  </g>
  <g id="g6986" transform="matrix(1.25 0 0 -1.25 218.51 543.7)" fill="#f59a00">
   <path id="path6988" d="m0 0c-0.486 0.306-1.313 0.614-2.529 0.944-0.063 0.023-0.123 0.04-0.18 0.051l-0.069 0.018c-1.303 0.335-1.739 0.604-1.877 0.73-0.32 0.298-0.468 0.62-0.468 1.012 0 0.6 0.181 1.023 0.573 1.335 0.384 0.312 0.892 0.465 1.557 0.465 0.721 0 1.287-0.185 1.728-0.562 0.439-0.377 0.659-0.9 0.676-1.6l0.013-0.607h1.745l-0.032 0.653c-0.061 1.188-0.477 2.128-1.234 2.789-0.729 0.658-1.694 0.992-2.866 0.992-1.077 0-1.979-0.283-2.676-0.838-0.804-0.617-1.211-1.499-1.211-2.627 0-0.916 0.329-1.676 0.975-2.259 0.261-0.236 0.816-0.611 2.642-1.126 5e-3 -1e-3 0.011-2e-3 0.016-4e-3l0.169-0.053c1.375-0.372 1.839-0.601 2.009-0.714 0.493-0.307 0.723-0.742 0.723-1.363 0-0.608-0.226-1.054-0.72-1.409-0.459-0.343-1.029-0.51-1.745-0.51-0.803 0-1.41 0.215-1.852 0.657-0.453 0.453-0.698 1.063-0.749 1.86l-0.038 0.584h-1.744l0.044-0.663c0.079-1.266 0.511-2.275 1.272-2.989 0.762-0.749 1.789-1.13 3.051-1.13 1.175 0 2.157 0.298 2.927 0.889 0.869 0.686 1.31 1.644 1.31 2.847 0 1.111-0.496 2.019-1.44 2.628" fill="#f59a00"/>
  </g>
  <g id="g6990" transform="matrix(1.25 0 0 -1.25 237.18 542.28)" fill="#f59a00">
   <path id="path6992" d="m0 0h-5.638v4.84h-1.757v-12.116h1.757v5.58h5.638v-5.58h1.741v12.116h-1.741v-4.84z" fill="#f59a00"/>
  </g>
  <path id="path6994" d="m247.81 551.37h2.1762v-15.145h-2.1762v15.145z" fill="#f59a00"/>
  <g id="g6996" transform="matrix(1.25 0 0 -1.25 267.6 547)" fill="#f59a00">
   <path id="path6998" d="m0 0-5.872 8.617h-1.463v-12.115h1.74v8.607l5.887-8.607h1.448v12.115h-1.74v-8.617z" fill="#f59a00"/>
  </g>
  <g id="g7000" transform="matrix(1.25 0 0 -1.25 280.32 549.22)" fill="#f59a00">
   <path id="path7002" d="m0 0v3.704h4.854v1.711h-4.854v3.248h6.125v1.728h-7.882v-12.116h8.033v1.725h-6.276z" fill="#f59a00"/>
  </g>
 </g>
</svg>
