<?xml version="1.0" encoding="UTF-8"?>
<!-- Created with Inkscape (http://www.inkscape.org/) -->
<svg id="svg12380" width="211.67mm" height="59.693mm" version="1.1" viewBox="0 0 750 211.51" xmlns="http://www.w3.org/2000/svg" xmlns:cc="http://creativecommons.org/ns#" xmlns:dc="http://purl.org/dc/elements/1.1/" xmlns:rdf="http://www.w3.org/1999/02/22-rdf-syntax-ns#" xmlns:xlink="http://www.w3.org/1999/xlink">
 <defs id="defs12382">
  <clipPath id="clipPath420">
   <path id="path418" d="m434.94 474.07h42.572v16.235h-42.572z"/>
  </clipPath>
  <linearGradient id="linearGradient410" x2="1" gradientTransform="matrix(-6e-7 12.874 12.874 6e-7 444.38 477.62)" gradientUnits="userSpaceOnUse">
   <stop id="stop406" stop-color="#fd0" offset="0"/>
   <stop id="stop408" stop-color="#f18800" offset="1"/>
  </linearGradient>
  <linearGradient id="linearGradient390" x2="1" gradientTransform="matrix(-6e-7 12.873 12.873 6e-7 439.95 477.62)" gradientUnits="userSpaceOnUse">
   <stop id="stop386" stop-color="#fd0" offset="0"/>
   <stop id="stop388" stop-color="#f18800" offset="1"/>
  </linearGradient>
  <linearGradient id="linearGradient370" x2="1" gradientTransform="matrix(-6e-7 12.876 12.876 6e-7 437.8 477.62)" gradientUnits="userSpaceOnUse">
   <stop id="stop366" stop-color="#fd0" offset="0"/>
   <stop id="stop368" stop-color="#f18800" offset="1"/>
  </linearGradient>
  <linearGradient id="linearGradient350" x2="1" gradientTransform="matrix(-6e-7 12.874 12.874 6e-7 441.23 477.62)" gradientUnits="userSpaceOnUse">
   <stop id="stop346" stop-color="#fd0" offset="0"/>
   <stop id="stop348" stop-color="#f18800" offset="1"/>
  </linearGradient>
  <linearGradient id="linearGradient330" x2="1" gradientTransform="matrix(-6e-7 12.875 12.875 6e-7 442.86 477.62)" gradientUnits="userSpaceOnUse">
   <stop id="stop326" stop-color="#fd0" offset="0"/>
   <stop id="stop328" stop-color="#f18800" offset="1"/>
  </linearGradient>
  <linearGradient id="linearGradient310" x2="1" gradientTransform="matrix(-6e-7 12.873 12.873 6e-7 438.88 477.62)" gradientUnits="userSpaceOnUse">
   <stop id="stop306" stop-color="#fd0" offset="0"/>
   <stop id="stop308" stop-color="#f18800" offset="1"/>
  </linearGradient>
  <linearGradient id="linearGradient290" x2="1" gradientTransform="matrix(-6e-7 12.875 12.875 6e-7 440.95 477.62)" gradientUnits="userSpaceOnUse">
   <stop id="stop286" stop-color="#fd0" offset="0"/>
   <stop id="stop288" stop-color="#f18800" offset="1"/>
  </linearGradient>
  <linearGradient id="linearGradient270" x2="1" gradientTransform="matrix(-6e-7 12.874 12.874 6e-7 441.01 477.62)" gradientUnits="userSpaceOnUse">
   <stop id="stop266" stop-color="#fd0" offset="0"/>
   <stop id="stop268" stop-color="#f18800" offset="1"/>
  </linearGradient>
 </defs>
 <metadata id="metadata12385">
  <rdf:RDF>
   <cc:Work rdf:about="">
    <dc:format>image/svg+xml</dc:format>
    <dc:type rdf:resource="http://purl.org/dc/dcmitype/StillImage"/>
    <dc:title/>
   </cc:Work>
  </rdf:RDF>
 </metadata>
 <g id="g4709" transform="matrix(14.094 0 0 14.094 -645.52 765.46)">
  <g id="g254" transform="matrix(1.25 0 0 -1.25 -497.88 558.57)">
   <g id="g256">
    <g id="g262">
     <g id="g264">
      <path id="path272" d="m438.73 482.05c0.327-0.733 1.035-2.501 1.226-3.664 0.323-0.053 0.655-0.082 0.992-0.082 0.54 0 1.063 0.071 1.56 0.206 0.264 1.743 0.532 3.006 0.787 3.916-0.129-0.017-0.241-7e-3 -0.335 0.02-0.068-0.101-0.144-0.207-0.232-0.318-0.587-0.741-1.034-0.734-1.305-0.599-0.232 0.116-0.398 0.366-0.506 0.646-0.132-0.049-0.265-0.079-0.384-0.091-0.354-0.036-0.647 0.059-0.803 0.26-0.06 0.078-0.114 0.171-0.157 0.275-0.157-0.044-0.313-0.021-0.456 0.07-6e-3 4e-3 -0.011 7e-3 -0.017 0.01-0.101-0.265-0.229-0.481-0.37-0.649" fill="url(#linearGradient270)"/>
     </g>
    </g>
   </g>
  </g>
  <g id="g274" transform="matrix(1.25 0 0 -1.25 -497.88 558.57)">
   <g id="g276">
    <g id="g282">
     <g id="g284">
      <path id="path292" d="m434.94 484.3c0-2.839 1.971-5.215 4.619-5.842-0.203 1.055-0.802 2.58-1.122 3.317-0.207-0.144-0.425-0.207-0.63-0.198-0.475 0.024-0.82 0.436-0.861 1.026-0.033 0.48 0.08 0.758 0.337 0.827 0.426 0.114 0.969-0.496 1.259-1.011 0.102 0.155 0.195 0.35 0.269 0.586-0.346 0.55-0.471 1.49-0.421 1.775 0.046 0.265 0.277 0.515 0.552 0.47 0.293-0.051 0.59-0.41 0.346-1.843-0.02-0.116-0.043-0.227-0.07-0.331 0.029-0.032 0.061-0.059 0.092-0.08 0.041-0.025 0.09-0.046 0.159-0.025-0.058 0.383 0.023 0.806 0.345 1.081 0.191 0.163 0.343 0.139 0.417 0.111 0.118-0.046 0.195-0.16 0.214-0.314 0.033-0.275-0.128-0.707-0.551-1.049 0.033-0.091 0.076-0.172 0.126-0.235 0.072-0.093 0.256-0.139 0.471-0.118 0.102 0.011 0.214 0.038 0.32 0.08-0.054 0.273-0.056 0.536-0.012 0.705 0.06 0.23 0.197 0.381 0.373 0.417 0.149 0.03 0.305-0.033 0.406-0.163 0.146-0.19 0.153-0.467 0.018-0.742-0.082-0.168-0.207-0.3-0.351-0.401 0.075-0.22 0.189-0.413 0.34-0.488 0.282-0.141 0.651 0.251 0.846 0.498 0.077 0.097 0.146 0.191 0.205 0.28-0.013 0.014-0.025 0.028-0.036 0.042-0.378 0.455-0.301 1.364-0.105 1.583 0.144 0.161 0.417 0.152 0.623-0.021 0.105-0.089 0.522-0.52 0.041-1.455 0.075 1e-3 0.159 0.014 0.254 0.047 0.626 1.997 1.172 1.963 1.429 1.946 0.185-0.012 0.33-0.142 0.378-0.339 0.097-0.398-0.19-1.105-1.318-1.78-0.064-0.04-0.128-0.073-0.188-0.103-0.256-0.861-0.535-2.114-0.816-3.929 2.356 0.811 4.049 3.045 4.049 5.676 0 3.315-2.688 6.003-6.004 6.003s-6.003-2.688-6.003-6.003" fill="url(#linearGradient290)"/>
     </g>
    </g>
   </g>
  </g>
  <g id="g294" transform="matrix(1.25 0 0 -1.25 -497.88 558.57)">
   <g id="g296">
    <g id="g302">
     <g id="g304">
      <path id="path312" d="m438.88 484.89c-0.024 0-0.104-0.064-0.121-0.166-0.034-0.192 0.039-0.697 0.184-1.118 0.173 1.124-0.058 1.283-0.061 1.284z" fill="url(#linearGradient310)"/>
     </g>
    </g>
   </g>
  </g>
  <g id="g314" transform="matrix(1.25 0 0 -1.25 -497.88 558.57)">
   <g id="g316">
    <g id="g322">
     <g id="g324">
      <path id="path332" d="m442.84 482.98c0.217 0.439 0.207 0.747 0.095 0.911-0.06 0.088-0.136 0.113-0.167 0.114-0.072-0.128-0.113-0.711 0.072-1.025" fill="url(#linearGradient330)"/>
     </g>
    </g>
   </g>
  </g>
  <g id="g334" transform="matrix(1.25 0 0 -1.25 -497.88 558.57)">
   <g id="g336">
    <g id="g342">
     <g id="g344">
      <path id="path352" d="m441.25 483.29c-0.012-2e-3 -0.056-0.035-0.086-0.147-0.024-0.091-0.026-0.231-7e-3 -0.386 0.044 0.048 0.082 0.1 0.11 0.158 0.083 0.17 0.064 0.294 0.02 0.349-0.012 0.018-0.027 0.026-0.035 0.026z" fill="url(#linearGradient350)"/>
     </g>
    </g>
   </g>
  </g>
  <g id="g354" transform="matrix(1.25 0 0 -1.25 -497.88 558.57)">
   <g id="g356">
    <g id="g362">
     <g id="g364">
      <path id="path372" d="m437.38 483.07c-0.018-4e-3 -0.085-0.098-0.061-0.442 0.027-0.398 0.227-0.665 0.507-0.678 0.144-8e-3 0.302 0.047 0.454 0.171-0.282 0.573-0.733 0.952-0.882 0.952-6e-3 0-0.012-1e-3 -0.018-3e-3" fill="url(#linearGradient370)"/>
     </g>
    </g>
   </g>
  </g>
  <g id="g374" transform="matrix(1.25 0 0 -1.25 -497.88 558.57)">
   <g id="g376">
    <g id="g382">
     <g id="g384">
      <path id="path392" d="m440.06 483.77c-0.154-0.131-0.223-0.325-0.233-0.524 0.201 0.222 0.26 0.439 0.255 0.542-7e-3 -5e-3 -0.015-0.01-0.022-0.018" fill="url(#linearGradient390)"/>
     </g>
    </g>
   </g>
  </g>
  <g id="g394" transform="matrix(1.25 0 0 -1.25 -497.88 558.57)">
   <g id="g396">
    <g id="g402">
     <g id="g404">
      <path id="path412" d="m444.8 484.41c-0.182 0-0.515-0.195-0.915-1.319 0.899 0.591 1.009 1.106 0.971 1.263-8e-3 0.036-0.021 0.055-0.04 0.056h-0.016" fill="url(#linearGradient410)"/>
     </g>
    </g>
   </g>
  </g>
  <g id="g414" transform="matrix(1.25 0 0 -1.25 -497.88 558.57)">
   <g id="g416" clip-path="url(#clipPath420)">
    <g id="g422" transform="translate(452.63 484.34)">
     <path id="path424" d="m0 0c-0.217 0.136-0.586 0.274-1.129 0.421-0.028 0.011-0.055 0.018-0.08 0.023l-0.031 8e-3c-0.582 0.15-0.777 0.27-0.839 0.326-0.143 0.133-0.208 0.277-0.208 0.452 0 0.268 0.08 0.457 0.255 0.596 0.172 0.139 0.399 0.208 0.696 0.208 0.321 0 0.574-0.083 0.771-0.251 0.196-0.169 0.295-0.402 0.302-0.714l6e-3 -0.271h0.779l-0.014 0.291c-0.027 0.53-0.213 0.95-0.551 1.245-0.326 0.294-0.757 0.443-1.28 0.443-0.481 0-0.884-0.127-1.195-0.374-0.359-0.275-0.54-0.669-0.54-1.173 0-0.409 0.146-0.748 0.435-1.008 0.116-0.106 0.364-0.273 1.179-0.503 3e-3 -1e-3 6e-3 -1e-3 7e-3 -2e-3l0.076-0.024c0.614-0.166 0.821-0.268 0.897-0.318 0.22-0.138 0.323-0.332 0.323-0.609 0-0.272-0.101-0.47-0.322-0.629-0.205-0.154-0.459-0.228-0.779-0.228-0.358 0-0.629 0.096-0.827 0.294-0.202 0.202-0.311 0.474-0.334 0.83l-0.017 0.26h-0.778l0.019-0.295c0.036-0.565 0.229-1.016 0.568-1.335 0.34-0.334 0.799-0.505 1.362-0.505 0.525 0 0.963 0.134 1.307 0.398 0.388 0.306 0.585 0.733 0.585 1.271 0 0.496-0.222 0.901-0.643 1.173" fill="#f18800"/>
    </g>
    <g id="g426" transform="translate(459.3 484.84)">
     <path id="path428" d="m0 0h-2.517v2.161h-0.785v-5.409h0.785v2.49h2.517v-2.49h0.778v5.409h-0.778z" fill="#f18800"/>
    </g>
    <path id="path430" d="m463.1 481.6h0.777v5.409h-0.777z" fill="#f18800"/>
    <g id="g432" transform="translate(470.17 483.16)">
     <path id="path434" d="m0 0-2.621 3.847h-0.653v-5.409h0.776v3.843l2.629-3.843h0.646v5.409h-0.777z" fill="#f18800"/>
    </g>
    <g id="g436" transform="translate(474.71 482.37)">
     <path id="path438" d="m0 0v1.654h2.168v0.763h-2.168v1.451h2.735v0.771h-3.52v-5.409h3.587v0.77z" fill="#f18800"/>
    </g>
   </g>
  </g>
 </g>
</svg>
