<svg id="x" width="800.02" height="302.59" version="1.1" viewBox="0 0 211.68 80.061" xmlns="http://www.w3.org/2000/svg" xmlns:xlink="http://www.w3.org/1999/xlink">
 <defs id="y">
  <linearGradient id="p" x1="314" x2="314" y1="202.36" y2="207.36" gradientTransform="matrix(13.154 0 0 .8 -3785.8 41.472)" gradientUnits="userSpaceOnUse" xlink:href="#c"/>
  <linearGradient id="c">
   <stop id="z" stop-color="#eb3e30" offset="0"/>
   <stop id="aa" stop-color="#e4563e" offset=".2"/>
   <stop id="ab" stop-color="#c04631" offset=".4"/>
   <stop id="ac" stop-color="#9f1e18" offset=".6"/>
   <stop id="ad" stop-color="#940f10" offset=".80135"/>
   <stop id="ae" stop-color="#940f10" offset="1"/>
  </linearGradient>
  <radialGradient id="g" cx="195.33" cy="200.54" r="4.5001" gradientTransform="matrix(-4.2505e-7,2,-2,0,877.07,-192.3)" gradientUnits="userSpaceOnUse">
   <stop id="af" stop-color="#e5382c" offset="0"/>
   <stop id="ag" stop-color="#e84836" offset=".60757"/>
   <stop id="ah" stop-color="#c34832" offset=".71918"/>
   <stop id="ai" stop-color="#a01f19" offset=".81852"/>
   <stop id="aj" stop-color="#940f10" offset=".91061"/>
   <stop id="ak" stop-color="#940f10" offset="1"/>
  </radialGradient>
  <linearGradient id="o" x1="396.73" x2="396.73" y1="192.36" y2="168.66" gradientTransform="matrix(3.2377,0,0,2.1513,-810.1,-210.46)" gradientUnits="userSpaceOnUse" xlink:href="#a"/>
  <linearGradient id="a">
   <stop id="al" stop-color="#eb3e2e" offset="0"/>
   <stop id="am" stop-color="#cb1e24" offset=".02721"/>
   <stop id="an" stop-color="#bd1920" offset=".2"/>
   <stop id="ao" stop-color="#ac171d" offset=".3"/>
   <stop id="ap" stop-color="#991216" offset=".4"/>
   <stop id="aq" stop-color="#890e11" offset=".5"/>
   <stop id="ar" stop-color="#7b0909" offset=".6"/>
   <stop id="as" stop-color="#730506" offset=".7"/>
   <stop id="at" stop-color="#6a0000" offset=".8"/>
   <stop id="au" stop-color="#640000" offset=".9"/>
   <stop id="av" stop-color="#5b0300" offset="1"/>
  </linearGradient>
  <linearGradient id="n" x1="307" x2="307" y1="159.36" y2="136.36" gradientUnits="userSpaceOnUse">
   <stop id="aw" stop-color="#690805" offset="0"/>
   <stop id="ax" stop-color="#802417" offset=".1"/>
   <stop id="ay" stop-color="#7a2216" offset=".2"/>
   <stop id="az" stop-color="#732012" offset=".3"/>
   <stop id="ba" stop-color="#68190a" offset=".4"/>
   <stop id="bb" stop-color="#631606" offset=".5"/>
   <stop id="bc" stop-color="#591001" offset=".6"/>
   <stop id="bd" stop-color="#4e0401" offset=".7"/>
   <stop id="be" stop-color="#450102" offset=".8"/>
   <stop id="bf" stop-color="#3e0100" offset=".9"/>
   <stop id="bg" stop-color="#440301" offset="1"/>
  </linearGradient>
  <linearGradient id="m" x1="328" x2="328" y1="136.36" y2="132.36" gradientTransform="matrix(1.1772,0,0,1,-80.829,0)" gradientUnits="userSpaceOnUse" xlink:href="#b"/>
  <linearGradient id="b">
   <stop id="bh" stop-color="#440301" offset="0"/>
   <stop id="bi" stop-color="#500a03" offset=".1"/>
   <stop id="bj" stop-color="#611306" offset=".2"/>
   <stop id="bk" stop-color="#7b1910" offset=".3"/>
   <stop id="bl" stop-color="#7b1910" offset=".4"/>
   <stop id="bm" stop-color="#7b1910" offset=".5"/>
   <stop id="bn" stop-color="#68080a" offset=".6"/>
   <stop id="bo" stop-color="#68080a" offset=".7"/>
   <stop id="bp" stop-color="#540403" offset=".8"/>
   <stop id="bq" stop-color="#540403" offset=".9"/>
   <stop id="br" stop-color="#540403" offset="1"/>
  </linearGradient>
  <linearGradient id="l" x1="304.36" x2="304.36" y1="197.36" y2="167.36" gradientTransform="matrix(1.5733,0,0,2.3,-173.87,-249.57)" gradientUnits="userSpaceOnUse">
   <stop id="bs" stop-color="#dedfe1" offset="0"/>
   <stop id="bt" stop-color="#e6e6e8" offset=".1"/>
   <stop id="bu" stop-color="#f9f9f9" offset=".2"/>
   <stop id="bv" stop-color="#fff" offset=".3"/>
   <stop id="bw" stop-color="#fff" offset=".4"/>
   <stop id="bx" stop-color="#fff" offset=".5"/>
   <stop id="by" stop-color="#fff" offset=".6"/>
   <stop id="bz" stop-color="#fff" offset=".7"/>
   <stop id="ca" stop-color="#fefefe" offset=".8"/>
   <stop id="cb" stop-color="#f0f1f1" offset=".9"/>
   <stop id="cc" stop-color="#efefef" offset="1"/>
  </linearGradient>
  <linearGradient id="k" x1="193.94" x2="193.94" y1="204.36" y2="207.36" gradientTransform="matrix(0,7.3193,-1,0,392.36,-1277.1)" gradientUnits="userSpaceOnUse">
   <stop id="cd" stop-color="#f5f7f6" offset="0"/>
   <stop id="ce" stop-color="#e1e1e3" offset=".18175"/>
   <stop id="cf" stop-color="#c2c3c5" offset=".45876"/>
   <stop id="cg" stop-color="#a9adae" offset=".73092"/>
   <stop id="ch" stop-color="#a8acad" offset="1"/>
  </linearGradient>
  <linearGradient id="j" x1="194.25" x2="194.25" y1="204.36" y2="207.36" gradientTransform="matrix(15.719,0,0,1,-2855.5,0)" gradientUnits="userSpaceOnUse">
   <stop id="ci" stop-color="#e0e1e3" offset="0"/>
   <stop id="cj" stop-color="#d9dadc" offset=".18175"/>
   <stop id="ck" stop-color="#c2c3c5" offset=".45876"/>
   <stop id="cl" stop-color="#a8acad" offset=".73092"/>
   <stop id="cm" stop-color="#a8acad" offset="1"/>
  </linearGradient>
  <radialGradient id="f" cx="195.33" cy="200.54" r="4.5001" gradientTransform="matrix(-2,-2.9681e-6,2.543e-6,-2,584.66,599.43)" gradientUnits="userSpaceOnUse">
   <stop id="cn" stop-color="#e6e6e8" offset="0"/>
   <stop id="co" stop-color="#e6e6e8" offset=".2"/>
   <stop id="cp" stop-color="#e6e6e8" offset=".4"/>
   <stop id="cq" stop-color="#e6e7e9" offset=".5"/>
   <stop id="cr" stop-color="#e7e8ea" offset=".6"/>
   <stop id="cs" stop-color="#dadbdd" offset=".7"/>
   <stop id="ct" stop-color="#c3c4c6" offset=".8"/>
   <stop id="cu" stop-color="#a8acad" offset=".9"/>
   <stop id="cv" stop-color="#a8acad" offset="1"/>
  </radialGradient>
  <linearGradient id="i" x1="194.25" x2="194.25" y1="204.36" y2="207.36" gradientTransform="matrix(-15.719,0,0,-1,3355.5,339.72)" gradientUnits="userSpaceOnUse">
   <stop id="cw" stop-color="#f0f0f0" offset="0"/>
   <stop id="cx" stop-color="#dcdddf" offset=".18175"/>
   <stop id="cy" stop-color="#c4c5c7" offset=".45876"/>
   <stop id="cz" stop-color="#a9aaae" offset=".73092"/>
   <stop id="da" stop-color="#a8acad" offset="1"/>
  </linearGradient>
  <radialGradient id="e" cx="195.33" cy="200.54" r="4.5001" gradientTransform="matrix(2.9681e-6,-2,2,2.543e-6,-207.07,532.02)" gradientUnits="userSpaceOnUse">
   <stop id="db" stop-color="#e6e6e8" offset="0"/>
   <stop id="dc" stop-color="#f4f4f4" offset=".60757"/>
   <stop id="dd" stop-color="#e3e3e5" offset=".71918"/>
   <stop id="de" stop-color="#c3c4c6" offset=".81852"/>
   <stop id="df" stop-color="#a8acad" offset=".91061"/>
   <stop id="dg" stop-color="#a8acad" offset="1"/>
  </radialGradient>
  <radialGradient id="d" cx="195.33" cy="200.54" r="4.5001" gradientTransform="matrix(2,4.2505e-7,0,2,85.342,-259.71)" gradientUnits="userSpaceOnUse">
   <stop id="dh" stop-color="#420201" offset="0"/>
   <stop id="di" stop-color="#410101" offset=".58056"/>
   <stop id="dj" stop-color="#7b1910" offset=".67499"/>
   <stop id="dk" stop-color="#7b1910" offset=".75959"/>
   <stop id="dl" stop-color="#68080a" offset=".87133"/>
   <stop id="dm" stop-color="#540403" offset="1"/>
  </radialGradient>
  <linearGradient id="h" x1="476" x2="485" y1="132.36" y2="141.36" gradientUnits="userSpaceOnUse">
   <stop id="dn" stop-color="#5c0300" stop-opacity="0" offset="0"/>
   <stop id="do" stop-color="#5c0300" stop-opacity="0" offset=".2"/>
   <stop id="dp" stop-color="#5c0300" stop-opacity="0" offset=".4"/>
   <stop id="dq" stop-color="#5c0300" offset=".6"/>
   <stop id="dr" stop-color="#5c0300" offset=".80135"/>
   <stop id="ds" stop-color="#5c0300" offset="1"/>
  </linearGradient>
  <clipPath id="w">
   <path id="dt" d="m224.67 414.13h43.059v10.807h-43.059z"/>
  </clipPath>
  <linearGradient id="s" x1="314" x2="314" y1="202.36" y2="207.36" gradientTransform="matrix(7.8739 0 0 .27338 -2343.1 23.369)" gradientUnits="userSpaceOnUse" xlink:href="#c"/>
  <linearGradient id="r" x1="396.73" x2="396.73" y1="192.36" y2="168.66" gradientTransform="matrix(1.9381 0 0 .73516 -561.77 -62.721)" gradientUnits="userSpaceOnUse" xlink:href="#a"/>
  <linearGradient id="q" x1="328" x2="328" y1="136.36" y2="132.36" gradientTransform="matrix(.70468 0 0 .34172 -125.23 9.1971)" gradientUnits="userSpaceOnUse" xlink:href="#b"/>
  <linearGradient id="v" x1="314" x2="314" y1="202.36" y2="207.36" gradientTransform="matrix(-7.8739 0 0 .27338 2554.7 23.369)" gradientUnits="userSpaceOnUse" xlink:href="#c"/>
  <linearGradient id="u" x1="396.73" x2="396.73" y1="192.36" y2="168.66" gradientTransform="matrix(-1.9381 0 0 .73516 773.44 -62.721)" gradientUnits="userSpaceOnUse" xlink:href="#a"/>
  <linearGradient id="t" x1="328" x2="328" y1="136.36" y2="132.36" gradientTransform="matrix(-.70468 0 0 .34172 336.9 9.1971)" gradientUnits="userSpaceOnUse" xlink:href="#b"/>
 </defs>
 <path id="du" d="m105.95 78.692h-105.95v1.3669h105.95z" fill="url(#v)" stroke-width=".64102"/>
 <path id="dv" d="m105.95 55.456h-105.95v23.365l105.95 0.21335z" fill="url(#u)" stroke-width=".64102"/>
 <path id="dw" d="m105.95 54.43-105.95 2.09e-4v1.3667h105.95z" fill="url(#t)" stroke-width=".64102"/>
 <path id="dx" d="m105.72 78.692h105.95v1.3669h-105.95z" fill="url(#s)" stroke-width=".64102"/>
 <path id="dy" d="m105.72 55.455 105.95 3e-5v23.365l-105.95 0.21335z" fill="url(#r)" stroke-width=".64102"/>
 <path id="dz" d="m105.72 54.43 105.95 2.09e-4v1.3667h-105.95z" fill="url(#q)" stroke-width=".64102"/>
 <g id="ea" transform="matrix(4.8103 0 0 -4.8103 197.56 24.187)">
  <path id="eb" d="m0 0-0.829 0.273c-0.555 0.185-0.785 0.397-0.785 0.803 0 0.414 0.335 0.652 1.138 0.652 0.467 0 0.97-0.114 1.331-0.255 0.124-0.053 0.177-0.027 0.194 0.079l0.141 0.82c0.018 0.088-9e-3 0.123-0.079 0.15-0.467 0.185-1.093 0.309-1.631 0.309-1.411 0-2.311-0.609-2.311-1.773 0-0.899 0.432-1.446 1.367-1.781l0.838-0.3c0.758-0.273 0.908-0.441 0.908-0.838 0-0.555-0.326-0.784-1.146-0.784-0.503 0-1.146 0.167-1.64 0.388-0.097 0.044-0.159 0.053-0.177-0.053l-0.15-0.82c-0.017-0.115-0.017-0.141 0.106-0.194 0.52-0.221 1.323-0.371 1.931-0.371 1.367 0 2.275 0.662 2.275 1.931 0 0.944-0.379 1.402-1.481 1.764m-3.399 2.716h-0.816c-0.13 0-0.19-0.027-0.207-0.132-0.216-1.464-0.511-3.166-0.934-4.727h-0.086c-0.293 1.314-0.565 2.936-0.858 4.559-0.018 0.088-0.052 0.115-0.147 0.115h-1.285c-0.086 0-0.129-0.027-0.147-0.115-0.284-1.605-0.556-3.201-0.875-4.559h-0.095c-0.371 1.482-0.606 3.289-0.826 4.727-0.016 0.106-0.069 0.132-0.207 0.132h-0.871c-0.12 0-0.179-0.026-0.155-0.159 0.302-1.7 0.644-3.703 1.283-5.952 0.043-0.132 0.12-0.185 0.25-0.185h1.089c0.138 0 0.198 0.053 0.233 0.194 0.354 1.543 0.675 3.13 0.933 4.382h0.069c0.259-1.243 0.58-2.786 0.908-4.382 0.026-0.15 0.095-0.194 0.233-0.194h1.089c0.129 0 0.207 0.053 0.25 0.185 0.621 2.187 1.062 4.271 1.327 5.952 0.021 0.133-0.034 0.159-0.155 0.159m-8.227-5.229h-2.834v1.631h2.316c0.079 0 0.114 0.036 0.114 0.124v0.82c0 0.088-0.035 0.123-0.114 0.123h-2.316v1.464h2.779c0.08 0 0.115 0.035 0.115 0.123v0.82c0 0.089-0.035 0.124-0.115 0.124h-3.872c-0.097 0-0.141-0.044-0.141-0.124v-6.04c0-0.106 0.026-0.132 0.141-0.132h3.927c0.079 0 0.115 0.035 0.115 0.123v0.821c0 0.088-0.036 0.123-0.115 0.123m-5.105 5.229h-0.874c-0.123 0-0.149-0.035-0.149-0.15v-3.836h-0.053l-3.036 3.915c-0.035 0.053-0.061 0.071-0.158 0.071h-0.723c-0.097 0-0.141-0.053-0.141-0.124v-6.022c0-0.115 0.026-0.15 0.15-0.15h0.872c0.124 0 0.15 0.035 0.15 0.15v3.836h0.053l3.027-3.827c0.079-0.115 0.141-0.159 0.255-0.159h0.627c0.123 0 0.149 0.035 0.149 0.15v5.996c0 0.115-0.026 0.15-0.149 0.15" fill="#fff"/>
 </g>
 <g id="ec" transform="matrix(1.0637 0 0 1.0637 -205.82 -276.68)">
  <g id="ed" transform="matrix(.66333 0 0 .66333 70.783 172.31)">
   <path id="ee" d="m305 203.36h171l0.57452 1.9524-0.57452 2.0476h-171z" fill="url(#p)"/>
   <path id="ef" d="m476 207.36v-4c3 0 5-2 5-5h4c0 5-4.0304 9.0036-8.9576 9.0001" fill="url(#g)"/>
   <path id="eg" d="m482.31 195.48h2.6869v2.8808l-0.99999 1-1.6869-1z" fill="#940f10"/>
   <path id="eh" d="m305 152.36 180-1v45c0 5-5.7127 7.3756-9.7127 7.3756l-170.29 0.62435z" fill="url(#o)"/>
   <path id="ei" d="m481 141.36 3-1 1 1v11h-4z" fill="#5c0300"/>
   <path id="ej" d="m305 158.86c83.345 0 128.82-1.9772 177-6.5v-13l-1-3-4-1h-172z" fill="url(#n)"/>
   <path id="ek" d="m305 132.36h171l1 1-1 3h-171z" fill="url(#m)"/>
   <path id="el" d="m188 135.36 5-2 113 1v71l-111.06 1.0329-6.9405-2.0329-2-64z" fill="url(#l)"/>
   <path id="em" d="m188 141.36v57l-2 1-1-1v-57l1-1z" fill="url(#k)"/>
   <path id="en" d="m194 204.36h112v3h-112l-1-1z" fill="url(#j)"/>
   <path id="eo" d="m185 198.36h3c0 3 3 6 6 6v3c-5 0-9.0036-4.0304-9.0001-8.9576" fill="url(#f)"/>
   <path id="ep" d="m306 135.36h-112l-1-2 1-1h112z" fill="url(#i)"/>
   <path id="eq" d="m194 132.36v3c-3 0-6 3-6 6h-3c0-5 4.0304-9.0036 8.9576-9.0001" fill="url(#e)"/>
   <g id="er" transform="matrix(1.0457,0,0,1.0457,86.921,-169.97)">
    <g id="es" transform="matrix(.20886 0 0 .20886 79.384 188.51)" fill-rule="evenodd">
     <path id="et" d="m119 736.36s-1-5-1-10c0-19 7-29 27-29 15 0 29 2 46 2 14 0 22-3 22-11 0-25.02-99 0-99-66 0-23.853 11.782-37.789 29.658-45.305l48.698-1.757 55.546 10.918c-1.066 20.612-10.763 25.144-24.902 25.144-18 0-25-1-39-1-9 0-26 1-26 10 0 22 100 1 100 67 0 35-23 53-80 53-37 0-59-4-59-4z"/>
     <path id="eu" d="m287 740.36c-8 0-12-0.99999-12-0.99999v-151.12l23.751-19.556 21.249 22.722v126.96c0 22-20 22.004-29.992 22.004l-3.0079-4e-3z"/>
     <path id="ev" d="m433 736.36s-10 5-25 5c-17.81 0.12226-28-6-37-19l-45.4-71.5 50.813-56.031 47.728-22.321 36.951 26.39 40.908 67.462 28.243-65.045 29.081-24.118 16.064 25.131-79.387 176.03c-4 9-10 20-31 20-16 0-22.4-4.4-22.4-4.4l38.4-81.6-63.5-99.3-38.5 41.3z"/>
    </g>
   </g>
   <path id="ew" d="m230 155.63v-9.3633c0-5.6828 2.1841-7.4259 7.6443-7.4259 1.5289 0 2.1841 0.21841 2.1841 0.21841v17.265c-3.441-0.23595-6.0679-0.40155-9.8284-0.69468z" fill="#37373f" fill-rule="evenodd"/>
   <path id="ex" d="m270.64 157.96c-7.7423-0.27343-13.766-0.60941-18.493-0.88188l1.7884-2.0683c2.1841-2.4025 5.0234-3.4945 8.7363-3.4945 3.0577 0 4.4502 0.65132 4.4502 0.65132z" fill="#37373f" fill-rule="evenodd"/>
   <path id="ey" d="m295.6 158.72c-3.114-0.078-5.9779-0.12185-9.8575-0.22731l1.0395-2.392c1.092-2.6209 3.4945-4.3682 7.2075-4.3682 2.6209 0 4.3682 0.87363 4.3682 0.87363z" fill="#37373f" fill-rule="evenodd"/>
   <path id="ez" d="m201.31 153.2c0.85074-0.42203 4.6716-1.7738 10.782-1.6855 4.1498 0 11.794 0.87364 11.794 0.87364s0.21841 0.65522 0.21841 1.9657c1e-3 0.30659-0.0194 0.72864-0.019 0.84605z" fill="#37373f" fill-rule="evenodd"/>
   <path id="fa" d="m485 141.36h-3c0-3-3-5-6-5v-4c5 0 9.0036 4.0304 9.0001 8.9576" fill="url(#d)"/>
   <path id="fb" d="m485 141.36h-3c0-3-3-5-6-5v-4c5 0 9.0036 4.0304 9.0001 8.9576" fill="url(#h)"/>
  </g>
  <g id="fc" transform="matrix(4.6322,0,0,-4.6322,-847.4,2228.4)" fill="#fff">
   <g id="fd" clip-path="url(#w)" fill="#fff">
    <g id="fe" transform="translate(264.86,419.97)" fill="#fff">
     <path id="ff" d="m0 0-0.811 0.267c-0.544 0.182-0.768 0.389-0.768 0.786 0 0.405 0.328 0.638 1.113 0.638 0.457 0 0.949-0.112 1.303-0.25 0.121-0.052 0.173-0.026 0.19 0.078l0.138 0.802c0.017 0.086-9e-3 0.121-0.078 0.147-0.457 0.181-1.07 0.302-1.596 0.302-1.381 0-2.261-0.596-2.261-1.735 0-0.88 0.423-1.415 1.338-1.743l0.819-0.293c0.743-0.268 0.889-0.431 0.889-0.82 0-0.543-0.319-0.768-1.122-0.768-0.492 0-1.121 0.164-1.605 0.38-0.094 0.043-0.155 0.052-0.172-0.051l-0.147-0.803c-0.017-0.112-0.017-0.138 0.104-0.19 0.509-0.216 1.294-0.363 1.889-0.363 1.338 0 2.226 0.648 2.226 1.89 0 0.923-0.371 1.372-1.449 1.726m-3.326 2.658h-0.799c-0.127 0-0.186-0.026-0.203-0.13-0.21-1.432-0.499-3.097-0.913-4.625h-0.084c-0.287 1.286-0.553 2.873-0.84 4.461-0.017 0.086-0.051 0.112-0.144 0.112h-1.257c-0.085 0-0.127-0.026-0.144-0.112-0.278-1.57-0.544-3.132-0.857-4.461h-0.092c-0.363 1.45-0.593 3.218-0.808 4.625-0.016 0.104-0.068 0.13-0.203 0.13h-0.852c-0.118 0-0.175-0.026-0.152-0.156 0.296-1.663 0.631-3.624 1.255-5.824 0.042-0.13 0.118-0.181 0.245-0.181h1.066c0.135 0 0.194 0.051 0.228 0.19 0.346 1.51 0.66 3.063 0.913 4.288h0.067c0.254-1.217 0.568-2.727 0.889-4.288 0.025-0.147 0.092-0.19 0.227-0.19h1.066c0.127 0 0.203 0.051 0.245 0.181 0.608 2.14 1.039 4.179 1.299 5.824 0.02 0.131-0.034 0.156-0.152 0.156m-8.051-5.117h-2.773v1.596h2.266c0.078 0 0.112 0.035 0.112 0.121v0.802c0 0.087-0.034 0.121-0.112 0.121h-2.266v1.433h2.72c0.078 0 0.112 0.034 0.112 0.12v0.803c0 0.086-0.034 0.121-0.112 0.121h-3.79c-0.094 0-0.138-0.043-0.138-0.121v-5.911c0-0.103 0.026-0.129 0.138-0.129h3.843c0.078 0 0.112 0.034 0.112 0.12v0.803c0 0.086-0.034 0.121-0.112 0.121m-4.996 5.117h-0.854c-0.121 0-0.147-0.035-0.147-0.147v-3.753h-0.052l-2.97 3.831c-0.034 0.051-0.06 0.069-0.155 0.069h-0.707c-0.095 0-0.138-0.052-0.138-0.121v-5.894c0-0.112 0.025-0.146 0.146-0.146h0.854c0.121 0 0.147 0.034 0.147 0.146v3.754h0.052l2.961-3.745c0.078-0.112 0.138-0.155 0.251-0.155h0.612c0.121 0 0.147 0.034 0.147 0.146v5.868c0 0.112-0.026 0.147-0.147 0.147" fill="#fff"/>
    </g>
   </g>
  </g>
 </g>
 <g id="fg" transform="translate(24.765 -71.717)" fill="#fff">
  <g id="fh" transform="matrix(4.8103,0,0,-4.8103,-10.304,129.56)">
   <path id="fi" d="m0 0c0.03 0 0.052-3e-3 0.065-9e-3 0.014-5e-3 0.026-0.018 0.038-0.037l1.835-2.531h0.034v2.48c0 0.038 6e-3 0.064 0.018 0.077 0.011 0.013 0.037 0.02 0.079 0.02h0.553c0.042 0 0.069-7e-3 0.08-0.02 0.012-0.013 0.017-0.039 0.017-0.077v-3.876c0-0.038-5e-3 -0.064-0.017-0.077-0.011-0.014-0.038-0.02-0.08-0.02h-0.393c-0.065 0-0.12 0.034-0.165 0.102l-1.83 2.474h-0.035v-2.479c0-0.038-5e-3 -0.064-0.017-0.077-0.011-0.014-0.038-0.02-0.079-0.02h-0.553c-0.042 0-0.069 6e-3 -0.08 0.02-0.012 0.013-0.017 0.039-0.017 0.077v3.893c0 0.053 0.03 0.08 0.091 0.08z" fill="#fff"/>
  </g>
  <g id="fj" transform="matrix(4.8103,0,0,-4.8103,19.284,129.56)">
   <path id="fk" d="m0 0c0.049 0 0.074-0.027 0.074-0.08v-0.53c0-0.053-0.025-0.08-0.074-0.08h-1.79v-0.946h1.237c0.049 0 0.074-0.027 0.074-0.08v-0.53c0-0.053-0.025-0.08-0.074-0.08h-1.237v-1.055h1.773c0.046 0 0.07-0.026 0.074-0.079l0.034-0.531c4e-3 -0.053-0.021-0.079-0.074-0.079h-2.491c-0.038 0-0.063 5e-3 -0.074 0.017-0.012 0.011-0.017 0.034-0.017 0.068v3.905c0 0.053 0.03 0.08 0.091 0.08z" fill="#fff"/>
  </g>
  <g id="fl" transform="matrix(4.8103,0,0,-4.8103,25.18,129.56)">
   <path id="fm" d="m0 0c0.038 0 0.064-6e-3 0.077-0.017 0.013-0.012 0.024-0.034 0.031-0.068 0.084-0.472 0.173-0.972 0.268-1.5s0.2-1.047 0.314-1.556h0.063c0.106 0.441 0.211 0.912 0.316 1.414 0.104 0.501 0.204 1.012 0.299 1.533 0.012 0.05 0.044 0.074 0.097 0.074h0.85c0.053 0 0.085-0.024 0.096-0.074 0.099-0.528 0.2-1.045 0.303-1.55 0.102-0.506 0.203-0.972 0.302-1.397h0.057c0.14 0.505 0.256 1.022 0.348 1.551 0.091 0.528 0.174 1.029 0.25 1.505 8e-3 0.034 0.018 0.056 0.032 0.068 0.013 0.011 0.039 0.017 0.077 0.017h0.604c0.042 0 0.069-7e-3 0.083-0.02 0.013-0.013 0.016-0.041 8e-3 -0.083-0.091-0.535-0.213-1.136-0.365-1.801s-0.33-1.353-0.536-2.064c-0.011-0.042-0.026-0.069-0.045-0.082-0.019-0.014-0.05-0.02-0.091-0.02h-0.81c-0.068 0-0.11 0.034-0.125 0.102-0.107 0.502-0.209 1-0.308 1.494s-0.192 0.948-0.28 1.362h-0.045c-0.084-0.414-0.177-0.868-0.279-1.362-0.103-0.494-0.211-0.992-0.325-1.494-0.016-0.068-0.057-0.102-0.126-0.102h-0.809c-0.042 0-0.073 6e-3 -0.092 0.02-0.019 0.013-0.034 0.04-0.045 0.082-0.194 0.711-0.366 1.399-0.516 2.064s-0.275 1.266-0.374 1.801c-7e-3 0.042-4e-3 0.07 9e-3 0.083s0.041 0.02 0.083 0.02z" fill="#fff"/>
  </g>
  <g id="fn" transform="matrix(4.8103,0,0,-4.8103,69.85,129.56)">
   <path id="fo" d="m0 0c0.034 0 0.058-5e-3 0.071-0.014 0.014-0.01 0.02-0.032 0.02-0.066v-0.359c0-0.065-6e-3 -0.116-0.02-0.154-0.013-0.038-0.046-0.095-0.1-0.171l-1.79-2.651h1.842c0.053 0 0.08-0.025 0.08-0.074v-0.513c0-0.03-6e-3 -0.049-0.017-0.057-0.012-8e-3 -0.033-0.011-0.063-0.011h-2.691c-0.042 0-0.068 4e-3 -0.077 0.014-9e-3 9e-3 -0.014 0.033-0.014 0.071v0.337c0 0.064 8e-3 0.118 0.025 0.162s0.051 0.104 0.1 0.18l1.796 2.656h-1.756c-0.038 0-0.064 4e-3 -0.077 0.012-0.013 7e-3 -0.02 0.026-0.02 0.057v0.507c0 0.026 6e-3 0.045 0.017 0.057 0.012 0.011 0.038 0.017 0.08 0.017h2.594" fill="#fff"/>
  </g>
  <g id="fp" transform="matrix(4.8103,0,0,-4.8103,85.837,129.56)">
   <path id="fq" d="m0 0c0.049 0 0.074-0.027 0.074-0.08v-0.53c0-0.053-0.025-0.08-0.074-0.08h-1.79v-0.946h1.237c0.049 0 0.074-0.027 0.074-0.08v-0.53c0-0.053-0.025-0.08-0.074-0.08h-1.237v-1.055h1.773c0.046 0 0.07-0.026 0.074-0.079l0.034-0.531c4e-3 -0.053-0.021-0.079-0.074-0.079h-2.491c-0.038 0-0.063 5e-3 -0.074 0.017-0.012 0.011-0.017 0.034-0.017 0.068v3.905c0 0.053 0.03 0.08 0.091 0.08h2.474" fill="#fff"/>
  </g>
  <g id="fr" transform="matrix(4.8103,0,0,-4.8103,96.12,133.75)">
   <path id="fs" d="m0 0c-0.103-0.293-0.198-0.582-0.285-0.867s-0.171-0.566-0.251-0.843h1.226c-0.084 0.277-0.169 0.558-0.257 0.843-0.087 0.285-0.18 0.574-0.279 0.867h-0.154m0.502 0.872c0.034 0 0.059-5e-3 0.074-0.014 0.015-0.01 0.03-0.031 0.045-0.066 0.114-0.296 0.232-0.62 0.354-0.972 0.121-0.351 0.24-0.703 0.356-1.054 0.116-0.352 0.224-0.691 0.325-1.018s0.187-0.616 0.259-0.866c0.016-0.054-7e-3 -0.08-0.068-0.08h-0.616c-0.049 0-0.082 4e-3 -0.099 0.011-0.017 8e-3 -0.03 0.031-0.037 0.069-0.031 0.11-0.064 0.228-0.1 0.353-0.036 0.126-0.075 0.255-0.117 0.388h-1.608c-0.042-0.133-0.079-0.262-0.111-0.388-0.032-0.125-0.064-0.243-0.094-0.353-8e-3 -0.035-0.022-0.057-0.043-0.066s-0.054-0.014-0.1-0.014h-0.609c-0.061 0-0.084 0.026-0.069 0.08 0.069 0.25 0.153 0.539 0.254 0.866s0.21 0.666 0.328 1.018c0.117 0.351 0.237 0.703 0.359 1.054 0.121 0.352 0.239 0.676 0.353 0.972 0.019 0.054 0.059 0.08 0.12 0.08h0.844" fill="#fff"/>
  </g>
  <g id="ft" transform="matrix(4.8103,0,0,-4.8103,111.26,129.56)">
   <path id="fu" d="m0 0c0.065 0 0.097-0.029 0.097-0.085v-3.296h1.476c0.042 0 0.069-6e-3 0.08-0.019 0.012-0.014 0.017-0.04 0.017-0.077v-0.496c0-0.038-5e-3 -0.064-0.017-0.077-0.011-0.014-0.038-0.02-0.08-0.02h-2.154c-0.042 0-0.069 6e-3 -0.08 0.02-0.012 0.013-0.017 0.039-0.017 0.077v3.893c0 0.053 0.03 0.08 0.091 0.08h0.587" fill="#fff"/>
  </g>
  <g id="fv" transform="matrix(4.8103,0,0,-4.8103,130.26,133.75)">
   <path id="fw" d="m0 0c-0.103-0.293-0.198-0.582-0.285-0.867-0.088-0.285-0.171-0.566-0.251-0.843h1.226c-0.084 0.277-0.169 0.558-0.257 0.843-0.087 0.285-0.18 0.574-0.279 0.867h-0.154m0.502 0.872c0.034 0 0.059-5e-3 0.074-0.014 0.015-0.01 0.03-0.031 0.045-0.066 0.114-0.296 0.232-0.62 0.354-0.972 0.121-0.351 0.24-0.703 0.356-1.054 0.116-0.352 0.224-0.691 0.325-1.018s0.187-0.616 0.259-0.866c0.016-0.054-7e-3 -0.08-0.068-0.08h-0.616c-0.049 0-0.082 4e-3 -0.099 0.011-0.017 8e-3 -0.03 0.031-0.038 0.069-0.03 0.11-0.063 0.228-0.099 0.353-0.036 0.126-0.075 0.255-0.117 0.388h-1.608c-0.042-0.133-0.079-0.262-0.111-0.388-0.032-0.125-0.064-0.243-0.094-0.353-8e-3 -0.035-0.022-0.057-0.043-0.066s-0.054-0.014-0.1-0.014h-0.609c-0.061 0-0.084 0.026-0.069 0.08 0.069 0.25 0.153 0.539 0.254 0.866 0.1 0.327 0.21 0.666 0.328 1.018 0.117 0.351 0.237 0.703 0.359 1.054 0.121 0.352 0.239 0.676 0.353 0.972 0.019 0.054 0.059 0.08 0.12 0.08h0.844" fill="#fff"/>
  </g>
  <g id="fx" transform="matrix(4.8103,0,0,-4.8103,144.77,129.56)">
   <path id="fy" d="m0 0c0.03 0 0.052-3e-3 0.065-9e-3 0.014-5e-3 0.026-0.018 0.038-0.037l1.835-2.531h0.034v2.48c0 0.038 6e-3 0.064 0.018 0.077 0.011 0.013 0.038 0.02 0.079 0.02h0.553c0.042 0 0.069-7e-3 0.08-0.02 0.012-0.013 0.017-0.039 0.017-0.077v-3.876c0-0.038-5e-3 -0.064-0.017-0.077-0.011-0.014-0.038-0.02-0.08-0.02h-0.393c-0.065 0-0.12 0.034-0.165 0.102l-1.83 2.474h-0.035v-2.479c0-0.038-5e-3 -0.064-0.017-0.077-0.011-0.014-0.038-0.02-0.079-0.02h-0.553c-0.042 0-0.069 6e-3 -0.08 0.02-0.012 0.013-0.017 0.039-0.017 0.077v3.893c0 0.053 0.03 0.08 0.091 0.08h0.456" fill="#fff"/>
  </g>
  <g id="fz" transform="matrix(4.8103,0,0,-4.8103,165.75,146.01)">
   <path id="ga" d="m0 0h0.587c0.365 0 0.636 0.111 0.812 0.334 0.177 0.222 0.266 0.565 0.266 1.029 0 0.273-0.024 0.505-0.072 0.695-0.047 0.19-0.13 0.34-0.248 0.45-0.098 0.092-0.214 0.156-0.347 0.194s-0.304 0.057-0.513 0.057h-0.485v-2.759m0.376 3.426c0.399 0 0.734-0.034 1.004-0.103 0.269-0.068 0.488-0.196 0.655-0.382 0.152-0.171 0.261-0.389 0.328-0.654 0.066-0.264 0.1-0.57 0.1-0.916 0-0.293-0.03-0.562-0.089-0.808-0.059-0.245-0.16-0.458-0.305-0.639-0.144-0.181-0.339-0.322-0.584-0.423-0.245-0.1-0.554-0.151-0.926-0.151h-1.243c-0.038 0-0.063 6e-3 -0.074 0.017-0.012 0.012-0.017 0.035-0.017 0.069v3.91c0 0.054 0.03 0.08 0.091 0.08h1.06" fill="#fff"/>
  </g>
 </g>
</svg>
