<svg height="10.364681mm" viewBox="0 0 47.302499 36.725248" width="13.349816mm" xmlns="http://www.w3.org/2000/svg"><g transform="translate(-364.92018 -425.4282)"><path d="m399.46818 436.13445c0 5.91375-4.79375 10.70625-10.70625 10.70625-5.91375 0-10.70625-4.7925-10.70625-10.70625 0-5.9125 4.7925-10.70625 10.70625-10.70625 5.9125 0 10.70625 4.79375 10.70625 10.70625" fill="#161412"/><path d="m394.96705 432.8492c-2.30875 1.97125-3.12875 2.03375-6.48125-.085l-.0112.02c2.54875 2.505 2.61 4.59625-.0225 6.975l.015.0175c2.67875-1.75125 4.02875-2.27375 6.3975-.225l.01-.0175c-1.4875-2.295-1.485-4.22875.10625-6.66625l-.0138-.0188z" fill="#ddd"/><path d="m382.9883 428.87083c.29875-.006.62375.0238 1.30875.12375.7925.11875 3.5425 1.12 5.585 2.4 1.03875.6525 1.605.79125 2.035.79125.2925 0 .74625-.23375 1.8075-1.21 1.04-.955 1.16625-1.1475 1.3125-1.39875.0525-.09.0875-.14125.10875-.175-1.66375-1.57875-3.91-2.54875-6.38375-2.54875-2.18375 0-4.19.75625-5.77375 2.0175m10.94 12.91125c-.38375-.44375-1.28875-1.2575-2.1475-1.30375-.86-.0463-1.41875.5-2.89375 1.21125-1.7425.8375-3.21125 1.25625-3.84375 1.44375-.55125.16125-1.44625.3075-1.9975.31125 1.57625 1.23375 3.55875 1.9725 5.71625 1.9725 2.42125 0 4.62625-.93 6.28-2.44875-.1625-.2525-.765-.78375-1.11375-1.18625m4.11375-5.64625c0-1.84-.53625-3.55125-1.4575-4.99375.0813.29625.095.56.0563.92875-.11375 1.095-.475 2.16625-.6775 2.7-.205.5375-.45125 1.32875-.43 1.67875.0225.34875.0913.41875.1825.83875.0888.41875.835 1.885.88 3.09625.0175.435-.007.625-.0663.82875.955-1.45875 1.5125-3.2025 1.5125-5.0775m-10.82875 1.82875c.52375-.6675.76875-.88625.76875-1.46875 0-.58125-.0663-.69875-.99375-1.8875-1.495-1.9125-3.4825-4.23875-4.52375-4.635-.2425-.0925-.3725-.1425-.50125-.1525-1.54 1.655-2.4825 3.875-2.4825 6.315 0 2.42875.935 4.63875 2.46375 6.29375.045.002.0937.006.1375.006.27 0 .37375-.0825.655-.21125.88125-.39375 3.7075-3.28375 4.47625-4.26" fill="#e32b23"/><path d="m412.03293 449.6327h-2.27l.52875-2.00375c.0613-.23-.0125-.32875-.25125-.32875h-.96125c-.23625 0-.48125.18875-.54125.41875l-1.575 5.92c-.004.015-.004.0275-.004.0375l-.004.002c-.0187.10375-.015.12375-.015.21625 0 .4825.24625.7125.365.825.225.20875.645.32875 1.1525.32875h1.46l.61-.001.19625-.002c.11-.002.38875-.46375.4875-.85875.03-.1275.0525-.2525.0562-.365l.001-.0125c0-.03-.009-.055-.025-.0725-.025-.0275-.0587-.0325-.35875-.0325h-2.205l.006-.0163.72875-2.73625h2.25375c.15875 0 .3775-.3425.48875-.76625.0362-.1325.0562-.2575.0625-.365h.002c.007-.1075-.0713-.1875-.19-.1875m-18.60875 1.56875-.605 2.29c-.0538.22625-.105.2475-.53.2475-.25125 0-1.36375-.001-2.16125-.001l.73375-2.78125c.7975-.001 1.91-.004 2.1625-.004.425 0 .465.0225.4.24875m1.3825-1.26625c-.22875-.19875-.66875-.325-1.2075-.325h-.19375c-.0538-.005-.0975-.007-.12-.007h-2.4525-.9125c-.0275 0-.0525.004-.0775.009-.25125.002-.3375.0337-.4175.295-.02.0375-.0387.0763-.0487.11625l-1.77875 6.74c-.0613.23.13125.24.36875.24h.86625c.2375 0 .48125-.1875.5425-.42l.39625-1.50125h2.3825c.53875 0 1.045-.12375 1.38-.32375.22625-.135.775-.4675.975-1.22125l.6275-2.38c.19875-.755-.175-1.08625-.33-1.22125m12.50125-.16375h.001c.007-.1075-.0688-.1875-.1875-.1875h-.22375v-.001h-1.9525c-.54 0-1.04625.125-1.3825.325-.22375.135-.775.4675-.9725 1.22125l-.009.0275-.1025.38625v.001l-.8625 3.2725c-.0625.23125.13.24.36875.24h.865c.2375 0 .4825-.18875.5425-.41875l.90875-3.43625c.0538-.22625.105-.24875.53125-.24875.0888 0 .26625 0 .495.002h1.21v-.004h.20625c.15875 0 .39-.39.50125-.81375.0362-.1325.0562-.25625.0625-.36625m-7.1725 1.43-.60375 2.29c-.0537.22625-.10625.2475-.53125.2475-.0913 0-1.05625-.002-1.27-.001-.2275.001-.40625.001-.4975.001-.425 0-.46375-.0213-.4-.2475l.605-2.29c.0562-.22625.105-.24875.53125-.24875.09 0 .1725 0 .40125.002.2125.001 1.27375-.002 1.36375-.002.425 0 .46625.0225.40125.24875m1.72125-.0725c.19875-.75375-.175-1.08625-.3325-1.22125-.22875-.2-.66875-.325-1.2075-.325h-2.2075c-.5375 0-1.045.125-1.37875.325-.22625.135-.775.4675-.97375 1.22125l-.007.0275h-.001l-.62875 2.38c-.19875.75375.175 1.08625.33125 1.22125.23.2.67.32375 1.2075.32375h2.20875c.5375 0 1.045-.12375 1.37875-.32375.22625-.135.77625-.4675.975-1.22125l.38875-1.4725.2475-.935zm-20.825-1.5425-1.32625 1.27625-1.32625-1.27625h-.0175l-1.2375 1.23 1.31375 1.26375-1.8875 1.815 1.2575 1.2275 5.75875-5.53625zm-3.93125 1.22875-1.24625-1.22875h-.01l-1.8475 1.77625.48-1.77625h-6.34375c-.82 0-1.545.61375-1.545 1.38875 0 .37.1525.70875.4.9575l1.2225 1.13875c.08.0812.1225.1775.1225.2575 0 .18875-.12125.3375-.4375.3375h-2.5775l-.39875 1.45625h4.31c.82 0 1.55-.61 1.55125-1.38375 0-.37-.1525-.70875-.4-.9575l-1.2375-1.1575c-.0687-.0662-.1075-.15875-.1075-.23875 0-.19.135-.335.3775-.335h2.6175l-1.09 4.0725h2.04875l.46625-1.745 1.81875 1.745h.009l1.2475-1.2275-1.31625-1.265 1.88625-1.815zm10.1925 1.29625c-.39-.24125-1.57-.4475-2.03875-.56125-.3225-.0775-.7125-.13125-.63125-.3475.0587-.1575.29125-.24625.65-.25.3125 0 2.3.002 2.64 0 .18875 0 .45375-.165.65125-.91625.10625-.40375-.045-.40625-.2775-.40625h-3.44875c-.5375 0-1.0275.31375-1.4175.82125-.38875.51-.59375 1.12125-.53 1.47.0763.415.41375.63625.8825.79625.46625.16 1.1825.31 1.53125.405.3775.0987.98875.14.8875.3675-.0738.165-.1625.25625-.53125.24875-.425-.01-2.33-.004-2.7 0-.415.004-.61625.35875-.77625.96875-.0988.37125-.0163.37375.34.37375h2.9075c.53875 0 1.045-.12375 1.38-.32375.22625-.135.77625-.4675.97375-1.22125.25375-.9575-.0825-1.17-.4925-1.425" fill="#231f1f"/><path d="m375.83793 449.56695 1.275 1.25875 1.26625-1.26125-2.54125.002z" fill="#6c6f74"/><path d="m376.5398 453.88295-1.275 1.255 2.5575-.002-1.2825-1.2525z" fill="#6c6f74"/><g fill="#e32b23" transform="translate(17.936729)"><path d="m362.1401 459.96829c.0718 0 .13921-.0145.20183-.0424.0621-.0284.11609-.0674.16136-.11656.0458-.0491.0814-.10501.1079-.16763.0265-.0621.04-.12765.04-.19556 0-.13632-.0487-.25626-.14499-.36078-.0963-.10357-.2182-.15607-.36608-.15607h-.40846v1.03899h.40846zm-1.31692-1.89013h1.328c.19701 0 .37957.0361.54816.1079.16811.0718.31406.16907.43689.29238.12331.12283.21964.26734.28949.434.0703.16666.10501.3444.10501.53371 0 .1893-.0347.36704-.10501.53322-.0698.16666-.16618.31165-.28949.43448-.12283.12283-.26878.22061-.43689.29238-.16859.0718-.35115.1079-.54816.1079h-.41954v1.29428h-.90846z"/><path d="m365.85818 461.27948c.16281 0 .31406-.0313.45423-.0939.13968-.0621.26107-.14739.36319-.25529.10211-.10741.18255-.23362.24132-.37716.0583-.14402.0877-.2972.0877-.46001 0-.1628-.0294-.31598-.0877-.45952-.0588-.14403-.13921-.26975-.24132-.37764-.10212-.1079-.22351-.19316-.36319-.25529-.14017-.0626-.29142-.0939-.45423-.0939s-.31406.0313-.45423.0939c-.14017.0621-.26107.14739-.36319.25529-.10212.10789-.18256.23361-.24132.37764-.0588.14354-.0881.29672-.0881.45952 0 .16281.0294.31599.0881.46001.0588.14354.1392.26975.24132.37716.10212.1079.22302.19316.36319.25529.14017.0626.29142.0939.45423.0939m0 .87378c-.28371 0-.55057-.0535-.80056-.16137-.24951-.10789-.4682-.25577-.65557-.44266-.1869-.18738-.33477-.40606-.44267-.65558-.1079-.24999-.16185-.51684-.16185-.80056 0-.28371.0539-.55056.16185-.80055.1079-.24952.25577-.4682.44267-.65509.18737-.18738.40606-.33526.65557-.44315.24999-.1079.51685-.16185.80056-.16185s.55056.0539.80056.16185c.24951.10789.46819.25577.65509.44315.18737.18689.33525.40557.44315.65509.10741.24999.16184.51684.16184.80055 0 .28372-.0544.55057-.16184.80056-.1079.24952-.25578.4682-.44315.65558-.1869.18689-.40558.33477-.65509.44266-.25.1079-.51685.16137-.80056.16137"/><path d="m369.80866 459.96829c.0718 0 .13921-.0145.20183-.0424.0621-.0284.11608-.0674.16136-.11656.0458-.0491.0814-.10501.1079-.16763.0265-.0621.04-.12765.04-.19556 0-.13632-.0487-.25626-.14499-.36078-.0963-.10357-.21868-.15607-.36608-.15607h-.40847v1.03899h.40847zm-1.31692-1.89013h1.328c.19701 0 .37957.0361.54816.1079.1681.0718.31405.16907.43688.29238.12332.12283.21965.26734.2895.434.0698.16666.105.3444.105.53371 0 .1893-.0352.36704-.105.53322-.0698.16666-.16618.31165-.2895.43448-.12283.12283-.26878.22061-.43688.29238-.16859.0718-.35115.1079-.54816.1079h-.41955v1.29428h-.90845z"/><path d="m371.51729 460.09873h1.61172v.81742h-1.61172z"/><path d="m375.36575 462.15345c-.24228 0-.46434-.04-.66713-.11898-.20231-.0795-.37619-.19315-.52166-.34055-.14595-.14787-.25963-.32417-.34103-.53081-.0814-.20616-.12187-.43593-.12187-.68977v-2.39542h.90797v2.40698c0 .24566.0684.43977.20424.58139.13631.1421.31598.21339.53948.21339.22302 0 .40317-.0713.53901-.21339.13632-.14162.20471-.33573.20471-.58139v-2.40698h.90798v2.39542c0 .25384-.0405.48361-.12187.68977-.0819.20664-.19508.38294-.34103.53081-.14547.1474-.31936.26108-.52166.34055-.20231.079-.42485.11898-.66714.11898"/><path d="m379.05512 459.96829c.0722 0 .1392-.0145.20134-.0424.0631-.0284.11657-.0674.16233-.11656.0453-.0491.0814-.10501.10741-.16763.0265-.0621.04-.12765.04-.19556 0-.13632-.0482-.25626-.14498-.36078-.0963-.10357-.21821-.15607-.36608-.15607h-.40895v1.03899h.40895zm-1.31693-1.89013h1.32849c.197 0 .37908.0361.54719.1079.16907.0718.31454.16907.43785.29238.12283.12283.21917.26734.28901.434.0703.16666.10549.3444.10549.53371 0 .1893-.0352.36704-.10549.53322-.0698.16666-.16618.31165-.28901.43448-.12331.12283-.26878.22061-.43785.29238-.16811.0718-.35019.1079-.54719.1079h-.42051v1.29428h-.90798z"/></g></g></svg>