<svg height="186.88699" viewBox="0 0 290.00027 186.88699" width="290.00027" xmlns="http://www.w3.org/2000/svg"><path d="m288.821 142.236h-13.904l3.242-12.143c.375-1.38-.069-2.003-1.559-2.003h-5.876c-1.45 0-2.954 1.161-3.336 2.556l-9.641 35.867c-.023.078-.023.148-.023.218h-.016c-.117.64-.102.772-.102 1.341 0 2.899 1.512 4.295 2.245 4.996 1.363 1.263 3.959 1.972 7.053 1.972h8.955 3.733l1.216-.016c.678-.023 2.377-2.806 2.985-5.206.179-.771.327-1.527.343-2.206l.008-.086c0-.179-.055-.312-.156-.428-.141-.156-.358-.203-2.197-.203h-13.53l.063-.078 4.458-16.585h13.826c.958 0 2.299-2.089 2.992-4.652.219-.811.343-1.567.382-2.229h.016c.039-.639-.429-1.115-1.177-1.115m-114.077 9.5-3.702 13.881c-.327 1.364-.646 1.481-3.25 1.481h-13.272l4.521-16.851c4.895 0 11.714-.016 13.249-.016 2.618.001 2.851.126 2.454 1.505m8.495-7.669c-1.434-1.2-4.123-1.987-7.419-1.987h-1.186c-.327-.023-.592-.039-.74-.039h-15.026-5.604c-.155 0-.312.023-.483.055-1.52.023-2.058.219-2.548 1.801-.125.218-.227.452-.297.693l-10.911 40.847c-.374 1.396.803 1.45 2.261 1.45h5.315c1.449 0 2.953-1.138 3.335-2.549l2.424-9.088h14.613c3.297 0 6.384-.756 8.441-1.979 1.395-.803 4.754-2.806 5.978-7.381l3.857-14.426c1.216-4.568-1.067-6.586-2.01-7.397m76.613-.989c.062-.655-.405-1.146-1.131-1.146h-1.355v-.015h-11.987c-3.297 0-6.414.771-8.464 1.979-1.38.818-4.762 2.837-5.985 7.403l-.047.164-.616 2.354-5.308 19.827c-.366 1.396.834 1.458 2.269 1.458h5.308c1.449 0 2.962-1.153 3.328-2.541l5.557-20.825c.335-1.379.662-1.504 3.273-1.504.538 0 1.621 0 3.047.016h7.412v-.016h1.255c.99 0 2.385-2.385 3.078-4.941.21-.787.327-1.567.366-2.213m-43.957 8.658-3.702 13.881c-.327 1.364-.646 1.481-3.266 1.481h-7.771-3.055c-2.604 0-2.853-.117-2.447-1.481l3.694-13.881c.343-1.379.646-1.504 3.258-1.504.561 0 1.052 0 2.463.016 1.293 0 7.809-.016 8.378-.016 2.58 0 2.845.125 2.448 1.504m10.545-.437c1.224-4.566-1.067-6.585-2.026-7.403-1.419-1.208-4.107-1.979-7.404-1.979h-13.522c-3.312 0-6.43.771-8.472 1.979-1.379.818-4.746 2.837-5.978 7.403l-.047.164-3.85 14.426c-1.216 4.575 1.091 6.578 2.034 7.381 1.41 1.224 4.099 1.979 7.403 1.979h13.522c3.305 0 6.406-.756 8.464-1.979 1.388-.803 4.747-2.806 5.97-7.381l2.386-8.924zm-127.654-9.344-8.137 7.739-8.144-7.739h-.109l-7.575 7.451 8.05 7.653-11.581 10.989 7.716 7.451 35.306-33.545h-15.526zm-24.106 7.451-7.646-7.451h-.07l-11.324 10.763 2.946-10.764-38.891-.008c-5.019 0-9.469 3.718-9.469 8.41 0 2.244.927 4.302 2.447 5.806l7.505 6.905c.483.491.756 1.068.756 1.567 0 1.13-.756 2.026-2.697 2.026h-15.798l-2.439 8.84h26.413c5.019 0 9.508-3.702 9.516-8.401 0-2.229-.935-4.271-2.455-5.799l-7.583-6.999c-.421-.413-.67-.959-.67-1.449 0-1.154.834-2.05 2.323-2.05h16.046l-6.671 24.698h12.541l2.868-10.576 11.161 10.576h.047l7.638-7.451-8.067-7.661zm62.475 7.849c-2.385-1.474-9.618-2.705-12.485-3.398-1.988-.491-4.381-.803-3.882-2.12.366-.95 1.785-1.473 3.99-1.504 1.926 0 14.092.016 16.18 0 1.162 0 2.783-1.005 4.007-5.557.646-2.439-.289-2.455-1.723-2.455h-21.129c-3.305 0-6.313 1.894-8.69 4.965-2.393 3.086-3.64 6.804-3.258 8.916.476 2.509 2.549 3.857 5.417 4.824 2.853.966 7.248 1.886 9.384 2.439 2.307.607 6.063.873 5.439 2.236-.451 1.006-.997 1.543-3.258 1.497-2.603-.047-14.285-.016-16.546 0-2.557.03-3.787 2.182-4.762 5.884-.608 2.26-.094 2.268 2.081 2.268h17.832c3.297 0 6.398-.756 8.448-1.979 1.388-.803 4.77-2.806 5.985-7.381 1.553-5.814-.52-7.093-3.03-8.635" fill="#1e1b1f"/><path d="m82.521 141.823-7.771 7.646-7.81-7.63zm-11.286 26.155-7.817 7.615 15.681-.016z" fill="#77787a"/><path d="m212.988 64.875c0 35.836-29.398 64.868-65.631 64.868-36.265 0-65.655-29.032-65.655-64.868 0-35.835 29.39-64.875 65.655-64.875 36.232 0 65.631 29.04 65.631 64.875" fill="#1a171b"/><path d="m185.375 44.962c-14.161 11.94-19.173 12.322-39.725-.514l-.07.124c15.627 15.175 16.001 27.848-.141 42.25l.109.125c16.414-10.623 24.683-13.787 39.211-1.38l.054-.101c-9.11-13.904-9.11-25.634.655-40.403z" fill="#e2e3e4"/><path d="m111.942 20.856c1.831-.031 3.818.147 8.02.756 4.855.709 21.722 6.788 34.246 14.535 6.359 3.959 9.836 4.809 12.47 4.809 1.785 0 4.583-1.434 11.083-7.35 6.375-5.79 7.17-6.952 8.051-8.472.312-.545.538-.865.67-1.06-10.202-9.563-23.974-15.447-39.14-15.447-13.39.001-25.681 4.584-35.4 12.229m67.081 78.218c-2.369-2.673-7.903-7.614-13.172-7.888-5.284-.272-8.697 3.032-17.746 7.35-10.678 5.074-19.688 7.615-23.568 8.737-3.383.981-8.854 1.87-12.244 1.894 9.656 7.467 21.822 11.948 35.049 11.948 14.847 0 28.361-5.627 38.493-14.84-.999-1.543-4.685-4.746-6.812-7.201m25.221-34.207c0-11.137-3.297-21.519-8.939-30.255.49 1.8.576 3.405.343 5.627-.687 6.641-2.907 13.133-4.154 16.367-1.263 3.25-2.767 8.051-2.635 10.163.141 2.119.546 2.548 1.107 5.089.553 2.533 5.12 11.434 5.408 18.76.094 2.634-.054 3.788-.413 5.026 5.837-8.846 9.283-19.414 9.283-30.777m-66.404 11.091c3.219-4.045 4.708-5.37 4.708-8.908 0-3.522-.406-4.225-6.08-11.426-9.173-11.597-21.354-25.688-27.729-28.089-1.481-.553-2.292-.857-3.079-.919-9.438 10.03-15.221 23.467-15.221 38.251 0 14.73 5.729 28.12 15.097 38.143.288.016.576.016.85.016 1.667 0 2.291-.482 4.021-1.255 5.4-2.386 22.726-19.898 27.433-25.813" fill="#e2003b"/></svg>