<svg height="18.90889mm" viewBox="0 0 215.90212 67.000002" width="60.932377mm" xmlns="http://www.w3.org/2000/svg"><g fill="#be1e24" transform="translate(-352.33331 -579.46494)"><path d="m450.52239 606.68944c1.95493 0 3.57472-.6293 4.85939-1.89162 1.28467-1.25861 1.92886-2.78159 1.92886-4.56895 0-1.78364-.64419-3.32151-1.92886-4.61363-1.28467-1.29211-2.90446-1.9363-4.85939-1.9363h-8.34847v13.0105zm-8.34847 39.03896-14.76435-14.76808v-50.75735h24.73262c2.6438 0 5.14983.51015 7.52181 1.52298 2.36825 1.01657 4.44234 2.41667 6.2297 4.2003 1.78364 1.78364 3.18374 3.86145 4.19658 6.2297 1.01656 2.36826 1.52298 4.87429 1.52298 7.52182 0 2.0294-.29045 3.98433-.87506 5.85733-.58462 1.88046-1.42989 3.61569-2.53955 5.21686-1.10593 1.59746-2.43155 2.99756-3.96943 4.19658-.66654.52131-1.36659.99794-2.10015 1.43361-.17874.10054-1.17296.66654-1.17296.66654l28.63131 28.67971h-20.22326l-26.91469-26.57956h-.27555z"/><path d="m506.77625 594.78524v50.93981l-15.04363-15.08831v-35.8515h-15.59473v-14.58189h46.23681v14.58189z"/><path d="m553.93281 607.33661c4.55033 2.0294 8.07292 4.67693 10.56778 7.93514 2.49113 3.26194 3.73484 7.16807 3.73484 11.72212 0 2.95287-.52132 5.63019-1.56767 8.02823s-2.49113 4.44606-4.33807 6.13661c-1.84322 1.69427-4.04391 3.00128-6.59835 3.92102-2.55444.92347-5.33602 1.38521-8.35219 1.38521-5.29134 0-9.96454-1.07614-14.02707-3.22842-4.0588-2.15229-7.22764-5.35464-9.5028-9.59963l11.16356-9.13788c1.415 2.27888 3.21725 4.2003 5.39932 5.77169 2.1858 1.56766 4.41255 2.35336 6.69144 2.35336 4.18168 0 6.27438-1.57139 6.27438-4.71045 0-1.47457-.58461-2.75179-1.75385-3.82793-1.16923-1.07614-3.13533-2.23048-5.90574-3.45929l-3.69015-1.66076c-4.98227-2.21558-8.78414-5.09398-11.39816-8.63147-2.61402-3.53748-3.92102-7.52181-3.92102-11.94925 0-2.82999.5511-5.41422 1.66075-7.75268 1.10593-2.33847 2.58423-4.33808 4.43117-5.99884 1.84322-1.66075 3.96571-2.93797 6.36748-3.82793 2.39804-.89368 4.88918-1.34052 7.4734-1.34052 3.63058 0 6.90741.56972 9.82677 1.70916 2.92308 1.13945 5.77169 3.30662 8.53838 6.50525l-9.96827 10.51937c-1.66076-2.0294-3.09065-3.3513-4.28967-3.96571-1.19902-.6144-2.56933-.92347-4.10721-.92347-1.23253 0-2.38687.38354-3.45929 1.15062-1.07986.7708-1.61607 1.89535-1.61607 3.36992 0 1.72406.72239 3.13905 2.16718 4.24498 1.44478 1.10966 3.67526 2.33847 6.69143 3.69388z"/><path d="m417.75447 645.79617v-65.61107l-65.42116 65.5217 20.48018.0112 29.80054-29.89362v14.89468l15.14044 15.07714z"/></g></svg>