<svg width="22.283mm" height="6.1683mm" version="1.1" viewBox="0 0 78.957 21.856" xmlns="http://www.w3.org/2000/svg">
 <defs>
  <clipPath id="a">
   <path d="m480.61 257.81h82.8v24.803h-82.8v-24.803z"/>
  </clipPath>
  <clipPath id="b">
   <path d="m490.43 261.47h63.166v17.485h-63.166v-17.485z"/>
  </clipPath>
  <clipPath id="c">
   <path d="m480.61 257.81h82.8v24.803h-82.8v-24.803z"/>
  </clipPath>
  <clipPath id="d">
   <path d="m490.43 261.47h63.166v17.485h-63.166v-17.485z"/>
  </clipPath>
 </defs>
 <g transform="translate(-240.52 -392.86)">
  <g transform="matrix(1.25 0 0 -1.25 -372.52 741.56)">
   <g clip-path="url(#d)">
    <g transform="translate(518.41 267.84)">
     <path d="m0 0c-1.26 0.417-2.522 1.117-3.352 2.231-0.067 0.284 0.214 0.499 0.415 0.499 0.415 0.2 0.982 0.281 1.462 0.348 0.495 0.133 1.046 0.133 1.609 0.202 0-1.115-0.134-2.163-0.134-3.28m7.041 7.82c-3.555 2.445-8.021 4.193-12.483 2.797-0.486-0.135-0.628-0.701-0.832-1.116 0.204-0.352 0.697-0.284 1.11-0.352 0.068 0.068 0.417 0.068 0.35 0.284-0.214 0.281-0.561 0.135-0.763 0.281 0.066 0.135 0.27 0.135 0.413 0.202 2.51 0.431 5.017 0 7.178-0.831 2.586-1.05 5.507-2.581 6.621-5.376 0.348-1.048 0.214-2.376-0.699-3.077-1.743-1.397-4.181-1.545-6.34-1.113-0.069 1.316-0.069 2.361-0.069 3.761 0.134 0.148 0.284 0.081 0.487 0.081 1.19-0.15 2.373-0.214 3.415-0.781 0-0.131-0.134-0.269-0.2-0.349-0.149-0.269-0.561-0.269-0.495-0.619 0.213-0.081 0.561-0.144 0.844-0.144 0.351 0.213 0.83 0.562 0.964 0.981 0.083 0.412-0.068 0.762-0.266 1.045-1.262 1.115-3.004 1.265-4.615 1.182l-0.134 0.083-0.066 1.663c-0.066 0.498-0.28 0.983-0.763 1.13-0.496-0.847-0.43-1.962-0.564-3.009-0.696-0.135-1.394-0.283-2.089-0.566-0.567-0.201-1.115-0.483-1.609-0.966-0.202-0.214-0.269-0.496-0.202-0.78 0.829-1.463 2.373-2.579 3.833-3.277 0.067-0.485 0.067-1.047 0.416-1.397 0.282-0.067 0.565 0 0.764 0 0.349 0.132 0.28 0.561 0.349 0.831 2.44-0.616 5.162-0.415 7.186 1.05 1.249 0.979 1.877 2.442 1.527 4.056-0.548 1.679-1.81 3.146-3.268 4.326" fill="#02a8eb"/>
    </g>
   </g>
  </g>
  <g transform="matrix(1.25 0 0 -1.25 -372.52 741.56)">
   <g clip-path="url(#c)">
    <g transform="translate(530.14 272.44)">
     <path d="m0 0c-0.216 0-0.281-0.215-0.349-0.35-0.216-1.328-0.216-2.659-0.216-4.056 0.069-0.483-0.065-1.183 0.497-1.317 0.27-0.08 0.617 0 0.832 0.202 0.066 1.612-0.067 3.143-0.215 4.688-0.067 0.347-0.134 0.833-0.549 0.833" fill="#02a8eb"/>
    </g>
    <g transform="translate(530.07 274.47)">
     <path d="m0 0c0.483 0.831 1.316 1.681 2.227 1.948 0.283 0 0.631 0.081 0.763-0.201 0.066-0.567-0.347-0.98-0.763-1.264-0.134-0.134-0.349-0.2-0.562-0.281-0.55-0.202-1.115-0.269-1.665-0.202m-1.047 0.483c-0.146 0.147-0.075 0.418 0 0.563 0.068 0.134 0.203 0.351 0.35 0.486 0.201 0.215 0.485 0.348 0.697 0.497 0.137 0.066 0.27 0.066 0.419 0.066-0.497-0.498-1.05-1.049-1.466-1.612m4.67 0.631c0.131 0.418 0.213 0.981-0.217 1.332-0.199 0.066-0.416 0.28-0.698 0.202l-0.266 0.347c-0.497 0.351-1.262 0.283-1.959 0.149-0.63-0.149-1.26-0.632-1.741-1.115-0.215-0.215-0.35-0.497-0.485-0.699-0.28-0.563-0.145-1.263 0.27-1.679v-0.633c0.147-0.281 0.215-0.416 0.426-0.416 0.203 0 0.35 0.416 0.416 0.483 0.553-0.134 1.114-0.202 1.678-0.067 0.416 0.136 0.697 0.282 1.046 0.484 0.615 0.431 1.18 0.981 1.53 1.612" fill="#02a8eb"/>
    </g>
    <g transform="translate(532.15 271.75)">
     <path d="m0 0c-0.48-0.284-0.694-0.765-0.694-1.331 0.066-0.215 0.214-0.483 0.413-0.564 1.046-0.201 2.16-0.134 3.206-0.348 0.43-0.137 1.046-0.137 1.193-0.768-0.348-0.483-1.258-0.631-1.956-0.765-0.631 0-1.53-0.283-2.026 0.282-0.066 0.067-0.066 0.282 0.08 0.351 0.698 0.415 1.598-0.417 2.228-0.351 0.979 0.135 0.979 0.419 0.979 0.633-0.216 0.133-0.766 0.349-1.195 0.416-0.83 0.065-1.675 0.202-2.29-0.283-0.219-0.215-0.352-0.484-0.285-0.832 0.285-0.846 1.112-1.264 1.96-1.477 1.112-0.137 2.358 0 3.124 0.845 0.281 0.416 0.348 1.249 0.144 1.812-0.91 1.4-2.787 0.769-4.116 1.184-0.133 0.081-0.414 0.081-0.414 0.216 1.112 0.484 2.44 0.416 3.62 0.563 0.429 0.067 0.844 0.067 1.114 0.349 0 0.135 0.147 0.267 0 0.416-1.53 0.633-3.687 0.417-5.085-0.348" fill="#02a8eb"/>
    </g>
    <g transform="translate(540.7 273.35)">
     <path d="m0 0c-0.134-0.067-0.069-0.281-0.069-0.416 0.214-1.33 0.763-2.511 0.763-3.989-0.064-0.069 0.068-0.267-0.133-0.267-0.765 1.045-1.326 2.295-2.373 3.274-0.216 0.135-0.416 0-0.482-0.212-0.429-0.767-0.564-1.6-0.697-2.514 0-0.697-0.216-1.532 0.067-2.164 0.132-0.213 0.348-0.416 0.63-0.416 0.133 0 0.266 0.203 0.349 0.416l0.199 2.931 0.067 0.214c0.698-1.048 1.047-2.308 2.092-3.145 0.148-0.133 0.429-0.065 0.563 0.068 0.561 0.216 0.765 0.847 0.914 1.331 0.131 1.532-0.215 3.008-1.048 4.19-0.212 0.217-0.429 0.632-0.842 0.699" fill="#02a8eb"/>
    </g>
   </g>
  </g>
  <g transform="matrix(1.25 0 0 -1.25 -372.52 741.56)">
   <g clip-path="url(#b)">
    <g transform="translate(546.93 268.46)">
     <path d="m0 0c-0.831 0.149-1.662-0.202-2.506-0.282v0.08l0.213 0.833c0.134 0.486 0.765 0.283 1.114 0.349 0.416 0 0.912-0.066 1.179 0.216 0 0.201 0.081 0.485-0.067 0.618-0.482 0.216-1.112 0.15-1.677 0.15h-0.066l0.282 0.832h1.111c0.498 0.065 1.048 0 1.395 0.281 0.069 0.483-0.347 0.834-0.764 1.048-1.177 0.067-2.373-0.214-3.552-0.349-0.068-0.067-0.346 0-0.346-0.135 0.132-0.564 0.628-0.632 1.043-0.78l-0.149-0.416c-0.133-0.203-0.133-0.631-0.482-0.631-0.066-0.067-0.349-0.067-0.28-0.268 0.346-0.78-0.415-1.33-0.35-2.098 0.067-0.562 0.416-1.126 0.911-1.327 1.247-0.216 2.294 0.481 3.205 1.179 0.067 0.217-0.067 0.498-0.214 0.7" fill="#02a8eb"/>
    </g>
    <g transform="translate(552 268.53)">
     <path d="m0 0c-0.496-0.419-1.047-0.701-1.675-0.701 0.28 0.498 0.628 1.048 0.977 1.612 0.349 0.419 0.698 0.902 1.183 1.333 0.213 0.066 0.213-0.216 0.28-0.285 0.067-0.765-0.214-1.463-0.765-1.959m0.966 3.142c-0.201 0.215-0.481 0.281-0.765 0.215-0.765-0.417-1.395-0.981-2.022-1.679-0.417-0.484-0.835-1.116-1.248-1.612-0.066 0.147-0.066 0.281-0.066 0.496 0.132 1.251 1.392 2.097 1.245 3.346-0.2 0.08-0.416-0.267-0.549-0.416-0.981-1.116-1.743-2.378-1.541-3.911 0.063-0.282 0.213-0.483 0.279-0.764-0.562-1.196-0.831-2.593-1.112-3.91 0-0.35-0.147-0.779 0-1.128 0.202-0.417 0.7-0.9 1.112-0.833 0.281 1.678 0.765 3.278 1.262 4.823l0.83 0.067c1.396 0.282 2.788 1.612 3.137 3.075 0.216 0.834-0.066 1.6-0.562 2.231" fill="#02a8eb"/>
    </g>
   </g>
  </g>
  <g transform="matrix(1.25 0 0 -1.25 -372.52 741.56)">
   <g clip-path="url(#a)">
    <path d="m509.36 261.59h0.432v17.325h-0.432v-17.325z" fill="#02a8eb"/>
    <g transform="translate(503.89 276.87)">
     <path d="m0 0v-13.457h-13.457v13.457l6.729-6.729 6.728 6.729z" fill="#fff"/>
    </g>
   </g>
  </g>
 </g>
</svg>
