<svg height="10.364681mm" viewBox="0 0 47.302499 36.725248" width="13.349816mm" xmlns="http://www.w3.org/2000/svg"><path d="m0 0c0-4.731-3.835-8.565-8.565-8.565-4.731 0-8.565 3.834-8.565 8.565 0 4.73 3.834 8.565 8.565 8.565 4.73 0 8.565-3.835 8.565-8.565" fill="#161412" transform="matrix(1.25 0 0 -1.25 34.548 10.70625)"/><path d="m0 0c-1.847-1.577-2.503-1.627-5.185.068l-.009-.016c2.039-2.004 2.088-3.677-.018-5.58l.012-.014c2.143 1.401 3.223 1.819 5.118.18l.008.014c-1.19 1.836-1.188 3.383.085 5.333z" fill="#ddd" transform="matrix(1.25 0 0 -1.25 30.04687 7.421)"/><path d="m0 0c .239.005.499-.019 1.047-.099.634-.095 2.834-.896 4.468-1.92.831-.522 1.284-.633 1.628-.633.234 0 .597.187 1.446.968.832.764.933.918 1.05 1.119.042.072.07.113.087.14-1.331 1.263-3.128 2.039-5.107 2.039-1.747 0-3.352-.605-4.619-1.614m8.752-10.329c-.307.355-1.031 1.006-1.718 1.043-.688.037-1.135-.4-2.315-.969-1.394-.67-2.569-1.005-3.075-1.155-.441-.129-1.157-.246-1.598-.249 1.261-.987 2.847-1.578 4.573-1.578 1.937 0 3.701.744 5.024 1.959-.13.202-.612.627-.891.949m3.291 4.517c0 1.472-.429 2.841-1.166 3.995.065-.237.076-.448.045-.743-.091-.876-.38-1.733-.542-2.16-.164-.43-.361-1.063-.344-1.343.018-.279.073-.335.146-.671.071-.335.668-1.508.704-2.477.014-.348-.006-.5-.053-.663.764 1.167 1.21 2.562 1.21 4.062m-8.663-1.463c.419.534.615.709.615 1.175 0 .465-.053.559-.795 1.51-1.196 1.53-2.786 3.391-3.619 3.708-.194.074-.298.114-.401.122-1.232-1.324-1.986-3.1-1.986-5.052 0-1.943.748-3.711 1.971-5.035.036-.002.075-.005.11-.005.216 0 .299.066.524.169.705.315 2.966 2.627 3.581 3.408" fill="#e32b23" transform="matrix(1.25 0 0 -1.25 18.06812 3.44263)"/><path d="m0 0h-1.816l.423 1.603c.049.184-.01.263-.201.263h-.769c-.189 0-.385-.151-.433-.335l-1.26-4.736c-.003-.012-.003-.022-.003-.03l-.003-.002c-.015-.083-.012-.099-.012-.173 0-.386.197-.57.292-.66.18-.167.516-.263.922-.263h1.168l.488.001.157.002c.088.002.311.371.39.687.024.102.042.202.045.292l.001.01c0 .024-.007.044-.02.058-.02.022-.047.026-.287.026h-1.764l.005.013.583 2.189h1.803c.127 0 .302.274.391.613.029.106.045.206.05.292h.002c.006.086-.057.15-.152.15m-14.887-1.255-.484-1.832c-.043-.181-.084-.198-.424-.198-.201 0-1.091.001-1.729.001l.587 2.225c.638.001 1.528.003 1.73.003.34 0 .372-.018.32-.199m1.106 1.013c-.183.159-.535.26-.966.26h-.155c-.043.004-.078.006-.096.006h-1.962-.73c-.022 0-.042-.003-.062-.007-.201-.002-.27-.027-.334-.236-.016-.03-.031-.061-.039-.093l-1.423-5.392c-.049-.184.105-.192.295-.192h.693c.19 0 .385.15.434.336l.317 1.201h1.906c.431 0 .836.099 1.104.259.181.108.62.374.78.977l.502 1.904c.159.604-.14.869-.264.977m10.001.131h.001c.006.086-.055.15-.15.15h-.179v.001h-1.562c-.432 0-.837-.1-1.106-.26-.179-.108-.62-.374-.778-.977l-.007-.022-.082-.309v-.001l-.69-2.618c-.05-.185.104-.192.295-.192h.692c.19 0 .386.151.434.335l.727 2.749c.043.181.084.199.425.199.071 0 .213 0 .396-.002h.968v.003h.165c.127 0 .312.312.401.651.029.106.045.205.05.293m-5.738-1.144-.483-1.832c-.043-.181-.085-.198-.425-.198-.073 0-.845.002-1.016.001-.182-.001-.325-.001-.398-.001-.34 0-.371.017-.32.198l.484 1.832c.045.181.084.199.425.199.072 0 .138 0 .321-.002.17-.001 1.019.002 1.091.002.34 0 .373-.018.321-.199m1.377.058c.159.603-.14.869-.266.977-.183.16-.535.26-.966.26h-1.766c-.43 0-.836-.1-1.103-.26-.181-.108-.62-.374-.779-.977l-.006-.022h-.001l-.503-1.904c-.159-.603.14-.869.265-.977.184-.16.536-.259.966-.259h1.767c.43 0 .836.099 1.103.259.181.108.621.374.78.977l.311 1.178zm-16.66 1.234-1.061-1.021-1.061 1.021h-.014l-.99-.984 1.051-1.011-1.51-1.452 1.006-.982 4.607 4.429h-2.028zm-3.145-.983-.997.983h-.008l-1.478-1.421.384 1.421h-5.075c-.656 0-1.236-.491-1.236-1.111 0-.296.122-.567.32-.766l.978-.911c.064-.065.098-.142.098-.206 0-.151-.097-.27-.35-.27h-2.062l-.319-1.165h3.448c.656 0 1.24.488 1.241 1.107 0 .296-.122.567-.32.766l-.99.926c-.055.053-.086.127-.086.191 0 .152.108.268.302.268h2.094l-.872-3.258h1.639l.373 1.396 1.455-1.396h.007l.998.982-1.053 1.012zm8.154-1.037c-.312.193-1.256.358-1.631.449-.258.062-.57.105-.505.278.047.126.233.197.52.2.25 0 1.84-.002 2.112 0 .151 0 .363.132.521.733.085.323-.036.325-.222.325h-2.759c-.43 0-.822-.251-1.134-.657-.311-.408-.475-.897-.424-1.176.061-.332.331-.509.706-.637.373-.128.946-.248 1.225-.324.302-.079.791-.112.71-.294-.059-.132-.13-.205-.425-.199-.34.008-1.864.003-2.16 0-.332-.003-.493-.287-.621-.775-.079-.297-.013-.299.272-.299h2.326c.431 0 .836.099 1.104.259.181.108.621.374.779.977.203.766-.066.936-.394 1.14" fill="#fff" transform="matrix(1.25 0 0 -1.25 47.11275 24.2045)"/><path d="m0 0 1.02-1.007 1.013 1.009z" fill="#6c6f74" transform="matrix(1.25 0 0 -1.25 10.91775 24.13875)"/><path d="m0 0-1.02-1.004 2.046.002z" fill="#6c6f74" transform="matrix(1.25 0 0 -1.25 11.61962 28.45475)"/><g fill="#e32b23" transform="translate(-346.98318 -425.428203)"><path d="m362.1401 459.96829c.0718 0 .13921-.0145.20183-.0424.0621-.0284.11609-.0674.16136-.11656.0458-.0491.0814-.10501.1079-.16763.0265-.0621.04-.12765.04-.19556 0-.13632-.0487-.25626-.14499-.36078-.0963-.10357-.2182-.15607-.36608-.15607h-.40846v1.03899h.40846zm-1.31692-1.89013h1.328c.19701 0 .37957.0361.54816.1079.16811.0718.31406.16907.43689.29238.12331.12283.21964.26734.28949.434.0703.16666.10501.3444.10501.53371 0 .1893-.0347.36704-.10501.53322-.0698.16666-.16618.31165-.28949.43448-.12283.12283-.26878.22061-.43689.29238-.16859.0718-.35115.1079-.54816.1079h-.41954v1.29428h-.90846z"/><path d="m365.85818 461.27948c.16281 0 .31406-.0313.45423-.0939.13968-.0621.26107-.14739.36319-.25529.10211-.10741.18255-.23362.24132-.37716.0583-.14402.0877-.2972.0877-.46001 0-.1628-.0294-.31598-.0877-.45952-.0588-.14403-.13921-.26975-.24132-.37764-.10212-.1079-.22351-.19316-.36319-.25529-.14017-.0626-.29142-.0939-.45423-.0939s-.31406.0313-.45423.0939c-.14017.0621-.26107.14739-.36319.25529-.10212.10789-.18256.23361-.24132.37764-.0588.14354-.0881.29672-.0881.45952 0 .16281.0294.31599.0881.46001.0588.14354.1392.26975.24132.37716.10212.1079.22302.19316.36319.25529.14017.0626.29142.0939.45423.0939m0 .87378c-.28371 0-.55057-.0535-.80056-.16137-.24951-.10789-.4682-.25577-.65557-.44266-.1869-.18738-.33477-.40606-.44267-.65558-.1079-.24999-.16185-.51684-.16185-.80056 0-.28371.0539-.55056.16185-.80055.1079-.24952.25577-.4682.44267-.65509.18737-.18738.40606-.33526.65557-.44315.24999-.1079.51685-.16185.80056-.16185s.55056.0539.80056.16185c.24951.10789.46819.25577.65509.44315.18737.18689.33525.40557.44315.65509.10741.24999.16184.51684.16184.80055 0 .28372-.0544.55057-.16184.80056-.1079.24952-.25578.4682-.44315.65558-.1869.18689-.40558.33477-.65509.44266-.25.1079-.51685.16137-.80056.16137"/><path d="m369.80866 459.96829c.0718 0 .13921-.0145.20183-.0424.0621-.0284.11608-.0674.16136-.11656.0458-.0491.0814-.10501.1079-.16763.0265-.0621.04-.12765.04-.19556 0-.13632-.0487-.25626-.14499-.36078-.0963-.10357-.21868-.15607-.36608-.15607h-.40847v1.03899h.40847zm-1.31692-1.89013h1.328c.19701 0 .37957.0361.54816.1079.1681.0718.31405.16907.43688.29238.12332.12283.21965.26734.2895.434.0698.16666.105.3444.105.53371 0 .1893-.0352.36704-.105.53322-.0698.16666-.16618.31165-.2895.43448-.12283.12283-.26878.22061-.43688.29238-.16859.0718-.35115.1079-.54816.1079h-.41955v1.29428h-.90845z"/><path d="m371.51729 460.09873h1.61172v.81742h-1.61172z"/><path d="m375.36575 462.15345c-.24228 0-.46434-.04-.66713-.11898-.20231-.0795-.37619-.19315-.52166-.34055-.14595-.14787-.25963-.32417-.34103-.53081-.0814-.20616-.12187-.43593-.12187-.68977v-2.39542h.90797v2.40698c0 .24566.0684.43977.20424.58139.13631.1421.31598.21339.53948.21339.22302 0 .40317-.0713.53901-.21339.13632-.14162.20471-.33573.20471-.58139v-2.40698h.90798v2.39542c0 .25384-.0405.48361-.12187.68977-.0819.20664-.19508.38294-.34103.53081-.14547.1474-.31936.26108-.52166.34055-.20231.079-.42485.11898-.66714.11898"/><path d="m379.05512 459.96829c.0722 0 .1392-.0145.20134-.0424.0631-.0284.11657-.0674.16233-.11656.0453-.0491.0814-.10501.10741-.16763.0265-.0621.04-.12765.04-.19556 0-.13632-.0482-.25626-.14498-.36078-.0963-.10357-.21821-.15607-.36608-.15607h-.40895v1.03899h.40895zm-1.31693-1.89013h1.32849c.197 0 .37908.0361.54719.1079.16907.0718.31454.16907.43785.29238.12283.12283.21917.26734.28901.434.0703.16666.10549.3444.10549.53371 0 .1893-.0352.36704-.10549.53322-.0698.16666-.16618.31165-.28901.43448-.12331.12283-.26878.22061-.43785.29238-.16811.0718-.35019.1079-.54719.1079h-.42051v1.29428h-.90798z"/></g></svg>