<svg height="6.730224mm" viewBox="0 0 82.692374 23.847249" width="23.337626mm" xmlns="http://www.w3.org/2000/svg" xmlns:xlink="http://www.w3.org/1999/xlink"><clipPath id="a"><path d="m480.614 579.373h82.8v24.803h-82.8z"/></clipPath><g clip-path="url(#a)" transform="matrix(1.25 0 0 -1.25 -611.17125 751.642)"><g transform="translate(499.791 597.1996)"><path d="m0 0-.572.573.923.923.572-.573zm2.068 2.068-.572-.572-.573.572h-1.145l-.923-.923.231.923h-2.853c-.367 0-.694-.294-.694-.663 0-.176.069-.337.179-.457l.551-.543c.037-.038.054-.084.054-.122 0-.091-.054-.16-.196-.16h-1.158l-.175-.695h1.934c.368 0 .697.291.698.66-.001.176-.07.338-.181.456l-.557.552c-.031.031-.048.075-.048.114 0 .091.061.163.17.163h1.178l-.485-1.945h.924l.2.801.801-.801h1.145l2.64 2.64zm6.037 2.025v-18.959h-18.959v18.959l9.48-9.479z" fill="#e9128c"/></g><g transform="translate(514.2164 601.3134)"><path d="m0 0 4.301-4.314 4.302 4.314v-8.725h-1.944v4.229l-2.358-2.357-2.357 2.357v-4.229h-1.944z" fill="#e9128c"/></g><g transform="translate(530.4263 596.9025)"><path d="m0 0c0 1.385-1.057 2.539-2.455 2.539s-2.455-1.154-2.455-2.539c0-1.386 1.057-2.54 2.455-2.54s2.455 1.154 2.455 2.54m-6.866 0c0 2.43 1.98 4.411 4.411 4.411 2.431 0 4.411-1.981 4.411-4.411 0-2.431-1.98-4.411-4.411-4.411s-4.411 1.98-4.411 4.411" fill="#e9128c"/></g><g transform="translate(531.7134 601.2163)"><path d="m0 0h2.162l1.908-4.314 1.908 4.314h2.163l-4.071-8.725z" fill="#e9128c"/></g><path d="m540.303 601.216h1.944v-8.628h-1.944z" fill="#e9128c"/><g transform="translate(543.45 601.2163)"><path d="m0 0h5.346v-1.92h-3.402v-1.459h2.673v-1.871h-2.673v-1.458h3.402v-1.92h-5.346z" fill="#e9128c"/></g><g transform="translate(549.2459 594.1806)"><path d="m0 0 1.47 1.203c.377-.596.997-1.069 1.592-1.069.571 0 .826.218.826.619 0 .389-.279.632-1.008.96l-.486.219c-1.3.583-2.017 1.543-2.017 2.71 0 1.507 1.251 2.491 2.624 2.491.96 0 1.689-.231 2.418-1.082l-1.312-1.385c-.437.535-.705.644-1.106.644-.327 0-.668-.206-.668-.595 0-.45.377-.693 1.167-1.046l.461-.206c1.191-.535 1.884-1.397 1.884-2.588 0-1.556-1.143-2.564-2.747-2.564-1.385 0-2.502.571-3.098 1.689" fill="#e9128c"/></g><g transform="translate(513.8156 586.6472)"><path d="m0 0c0 2.431 1.981 4.411 4.411 4.411 1.482 0 2.649-.596 3.487-1.629l-1.47-1.202c-.522.655-1.094.959-2.017.959-1.398 0-2.455-1.153-2.455-2.539s1.057-2.54 2.455-2.54c.705 0 1.239.122 1.665.425v1.204h-2.078l.826 1.823h3.135v-3.913c-.851-.973-2.09-1.41-3.548-1.41-2.43 0-4.411 1.98-4.411 4.411" fill="#e9128c"/></g><g transform="translate(525.7479 587.4737)"><path d="m0 0c .522 0 .899.376.899.851 0 .474-.377.862-.899.862h-1.094v-1.713zm-1.094-5.14h-1.944v8.627h3.256c1.41 0 2.565-1.154 2.565-2.564 0-1.069-.657-2.017-1.654-2.393l2.795-3.67h-2.321l-2.672 3.499h-.025z" fill="#e9128c"/></g><g transform="translate(529.8174 590.9606)"><path d="m0 0h5.347v-1.919h-3.402v-1.459h2.672v-1.871h-2.672v-1.458h3.402v-1.92h-5.347z" fill="#e9128c"/></g><g transform="translate(540.3521 585.2495)"><path d="m0 0-.814 1.799-.814-1.799zm-.814 5.809 4.253-8.725h-2.042l-.619 1.337h-3.184l-.62-1.337h-2.041z" fill="#e9128c"/></g><g transform="translate(544.5558 589.0413)"><path d="m0 0h-2.065v1.919h6.087v-1.919h-2.077v-6.707h-1.945z" fill="#e9128c"/></g><g transform="translate(548.65 583.9258)"><path d="m0 0 1.471 1.203c.376-.596.996-1.07 1.592-1.07.57 0 .826.219.826.62 0 .389-.28.632-1.009.96l-.486.218c-1.3.584-2.017 1.544-2.017 2.711 0 1.506 1.252 2.49 2.625 2.49.96 0 1.689-.231 2.417-1.081l-1.312-1.385c-.437.535-.705.643-1.105.643-.328 0-.669-.206-.669-.595 0-.449.377-.692 1.167-1.045l.462-.207c1.19-.534 1.883-1.397 1.883-2.588 0-1.555-1.142-2.564-2.747-2.564-1.384 0-2.502.572-3.098 1.69" fill="#e9128c"/></g></g></svg>