<svg height="16.649187mm" viewBox="0 0 162.91915 58.993182" width="45.979404mm" xmlns="http://www.w3.org/2000/svg"><g transform="translate(-240.52137 -355.31411)"><path d="m293.34937 414.30729h1.471v-58.99318h-1.471z" fill="#231f20"/><path d="m403.44052 409.14751h-101.62015v-46h101.62015z" fill="#231f20"/><path d="m389.57398 369.6781h5.68706v26.95829h4.82164v6.8014h-10.5087z" fill="#fff"/><path d="m350.3827 385.75414c4.07985-.24732 3.70895-5.31746 3.70895-5.31746-.61816-4.94648-3.70895-4.69915-3.70895-4.69915zm-13.10498 7.7907-1.73084-10.26394-1.48358 10.26394zm-31.27884 9.76929v-33.63603h7.66517l2.7199 14.09745 3.09079-14.09745h7.41791v30.29716l4.82164-30.29716h7.54154l4.69801 30.29716v-30.1735h10.01418s3.46169.61831 5.19253 5.44112l-.74179-5.56478h6.05796l2.84353 17.43632 2.96717-17.31266h17.06119v6.30675h-5.06891v6.92507h4.82164v7.04873h-4.69801v6.43041h4.94528v6.80141h-11.00323v-32.39942l-5.68707 32.39942h-6.79975l-3.58532-21.51717s-.61816 5.93577-3.95622 8.65633l4.32712 12.86084h-5.93433l-4.20348-11.25323v11.25323h-11.99229l-.61816-3.21521h-4.57437l-.98906 3.21521h-11.37412v-12.36619l-2.96717 12.36619h-3.09079l-2.7199-12.24253v12.11887z" fill="#fff"/><path d="m266.75894 372.16419-1.3822-1.38462 2.22943-2.23185 1.38462 1.38462zm4.99867-4.99867-1.3822 1.3822-1.38462-1.3822h-2.76682l-2.23185 2.22943.55676-2.22943h-6.89647c-.88839 0-1.67752.70926-1.67752 1.60248 0 .42604.16712.81576.43329 1.10382l1.33137 1.31442c.0895.092.13071.20092.13071.2929 0 .22028-.13071.38731-.47445.38731h-2.79828l-.42362 1.67994h4.67672c.88839 0 1.68479-.70199 1.68479-1.59522 0-.42603-.16713-.81576-.43814-1.10382l-1.34589-1.33136c-.0726-.0775-.1162-.18397-.1162-.27596 0-.22028.14776-.39699.41152-.39699h2.84912l-1.1716 4.70335h2.23185l.48413-1.93411 1.93653 1.93411h2.76682l6.38087-6.38087zm14.59418-4.89458v45.828h-45.83042v-45.828l22.91642 22.914z" fill="#231f20"/></g></svg>