<svg height="18.703123pt" viewBox="0 0 40.294372 18.703123" width="40.294373pt" xmlns="http://www.w3.org/2000/svg" xmlns:xlink="http://www.w3.org/1999/xlink"><symbol id="a" overflow="visible"><path d="m3.265625.09375c-.6875 0-1.296875-.140625-1.828125-.421875s-.945312-.695313-1.234375-1.25l1.453125-1.1875c.1875.304687.421875.558594.703125.765625.28125.199219.570313.296875.875.296875.539063 0 .8125-.203125.8125-.609375 0-.195313-.078125-.363281-.234375-.5-.148437-.144531-.402344-.296875-.765625-.453125l-.484375-.21875c-.648437-.28125-1.140625-.648438-1.484375-1.109375-.335937-.46875-.5-.988281-.5-1.5625 0-.363281.070313-.695313.21875-1 .144531-.3125.335938-.570313.578125-.78125.238281-.21875.507813-.382813.8125-.5.3125-.113281.640625-.171875.984375-.171875.46875 0 .890625.074219 1.265625.21875.382813.148437.757813.429687 1.125.84375l-1.296875 1.359375c-.21875-.257813-.40625-.425781-.5625-.5-.15625-.082031-.335937-.125-.53125-.125-.167969 0-.320312.054687-.453125.15625-.136719.09375-.203125.234375-.203125.421875 0 .230469.09375.417969.28125.5625.1875.148437.472656.304687.859375.46875l.453125.21875c.59375.261719 1.050781.605469 1.375 1.03125.320313.417969.484375.921875.484375 1.515625 0 .386719-.070312.734375-.203125 1.046875-.136719.3125-.324219.578125-.5625.796875-.242187.21875-.527344.390625-.859375.515625-.324219.1132813-.683594.171875-1.078125.171875zm0 0"/></symbol><symbol id="b" overflow="visible"><path d="m .796875-8.515625h2.8125c.414063 0 .800781.078125 1.15625.234375.351563.148437.660156.351562.921875.609375.257813.261719.460938.570312.609375.921875.15625.34375.234375.71875.234375 1.125 0 .398437-.078125.773437-.234375 1.125-.148437.355469-.351562.664062-.609375.921875-.261719.261719-.570312.46875-.921875.625-.355469.148437-.742187.21875-1.15625.21875h-.890625v2.734375h-1.921875zm2.796875 3.984375c.144531 0 .285156-.023438.421875-.078125.132813-.0625.25-.144531.34375-.25.09375-.101563.164063-.21875.21875-.34375.0625-.132813.09375-.273438.09375-.421875 0-.289063-.105469-.546875-.3125-.765625-.199219-.21875-.453125-.328125-.765625-.328125h-.875v2.1875zm0 0"/></symbol><symbol id="c" overflow="visible"><path d="m4.765625-1.75c.34375 0 .660156-.0625.953125-.1875.300781-.132813.554688-.316406.765625-.546875.21875-.226563.390625-.492188.515625-.796875.125-.3125.1875-.640625.1875-.984375s-.0625-.664063-.1875-.96875c-.125-.300781-.296875-.566406-.515625-.796875-.210937-.226563-.464844-.40625-.765625-.53125-.292969-.132813-.609375-.203125-.953125-.203125s-.667969.070312-.96875.203125c-.292969.125-.546875.304687-.765625.53125-.210937.230469-.375.496094-.5.796875-.125.304687-.1875.625-.1875.96875s.0625.671875.1875.984375c.125.304687.289063.570312.5.796875.21875.230469.472656.414062.765625.546875.300781.125.625.1875.96875.1875zm0 1.84375c-.605469 0-1.171875-.1132813-1.703125-.34375-.523437-.226563-.980469-.539063-1.375-.9375-.398437-.394531-.710937-.851563-.9375-1.375-.230469-.53125-.34375-1.097656-.34375-1.703125 0-.59375.113281-1.15625.34375-1.6875.226563-.53125.539063-.992188.9375-1.390625.394531-.394531.851563-.703125 1.375-.921875.53125-.226563 1.097656-.34375 1.703125-.34375.59375 0 1.15625.117187 1.6875.34375.53125.21875.992188.527344 1.390625.921875.394531.398437.707031.859375.9375 1.390625.226563.53125.34375 1.09375.34375 1.6875 0 .605469-.117187 1.171875-.34375 1.703125-.230469.523437-.542969.980469-.9375 1.375-.398437.398437-.859375.710937-1.390625.9375-.53125.2304687-1.09375.34375-1.6875.34375zm0 0"/></symbol><symbol id="d" overflow="visible"><path d="m2.75-3.453125h-.03125v3.453125h-1.921875v-8.515625h3.21875c.34375 0 .664063.070312.96875.203125.3125.125.582031.308594.8125.546875.238281.230469.421875.5.546875.8125.132813.304687.203125.625.203125.96875 0 .53125-.152344 1.011719-.453125 1.4375-.292969.429687-.6875.742187-1.1875.9375l2.78125 3.609375h-2.296875zm1.046875-1.625c.257813 0 .472656-.078125.640625-.234375.164063-.164063.25-.367188.25-.609375 0-.226563-.085937-.425781-.25-.59375-.167969-.164063-.382812-.25-.640625-.25h-1.078125v1.6875zm0 0"/></symbol><symbol id="e" overflow="visible"><path d="m2.265625-6.625h-2.03125v-1.890625h6v1.890625h-2.046875v6.625h-1.921875zm0 0"/></symbol><symbol id="f" overflow="visible"><path d="m .515625-4.25h3.40625v1.734375h-3.40625zm0 0"/></symbol><symbol id="g" overflow="visible"><path d="m4.21875.09375c-.523437 0-.996094-.0859375-1.421875-.25-.429687-.164063-.796875-.40625-1.109375-.71875-.304687-.3125-.542969-.6875-.71875-1.125-.167969-.4375-.25-.921875-.25-1.453125v-5.0625h1.921875v5.078125c0 .523437.140625.933594.421875 1.234375.289063.304687.675781.453125 1.15625.453125.46875 0 .84375-.148438 1.125-.453125.289063-.300781.4375-.710938.4375-1.234375v-5.078125h1.921875v5.0625c0 .53125-.089844 1.015625-.265625 1.453125-.167969.4375-.40625.8125-.71875 1.125-.304687.3125-.667969.554687-1.09375.71875-.429687.1640625-.898437.25-1.40625.25zm0 0"/></symbol><g fill="#211e1e" transform="translate(-53.890076 -361.60088)"><use height="100%" width="100%" x="55.985199" xlink:href="#a" y="370.21021"/><use height="100%" width="100%" x="61.985199" xlink:href="#b" y="370.21021"/><use height="100%" width="100%" x="68.429199" xlink:href="#c" y="370.21021"/><use height="100%" width="100%" x="77.717201" xlink:href="#d" y="370.21021"/><use height="100%" width="100%" x="84.977203" xlink:href="#e" y="370.21021"/></g><g fill="#211e1e" transform="translate(-53.890076 -361.60088)"><use height="100%" width="100%" x="53.093201" xlink:href="#b" y="380.21021"/><use height="100%" width="100%" x="59.537201" xlink:href="#c" y="380.21021"/><use height="100%" width="100%" x="68.825203" xlink:href="#b" y="380.21021"/><use height="100%" width="100%" x="75.269203" xlink:href="#f" y="380.21021"/><use height="100%" width="100%" x="79.4692" xlink:href="#g" y="380.21021"/><use height="100%" width="100%" x="87.653198" xlink:href="#b" y="380.21021"/></g></svg>