<svg height="8.749877mm" viewBox="0 0 46.4475 31.003501" width="13.108517mm" xmlns="http://www.w3.org/2000/svg" xmlns:xlink="http://www.w3.org/1999/xlink"><clipPath id="a"><path d="m211.635 499.869h82.8v24.803h-82.8z"/></clipPath><clipPath id="b"><path d="m234.455 499.869h37.158v24.803h-37.158z"/></clipPath><clipPath id="c"><path d="m211.635 499.869h82.8v24.803h-82.8z"/></clipPath><g clip-path="url(#c)" transform="matrix(1.25 0 0 -1.25 -293.068753 655.84)"><g transform="translate(261.5956 516.2617)"><path d="m0 0c0-4.644-3.765-8.41-8.411-8.41-4.644 0-8.41 3.766-8.41 8.41s3.766 8.411 8.41 8.411c4.646 0 8.411-3.767 8.411-8.411" fill="#231f20"/></g></g><g clip-path="url(#b)" transform="matrix(1.25 0 0 -1.25 -293.068753 655.84)"><g transform="translate(251.9687 514.8239)"><path d="m0 0c .411.525.603.697.603 1.154s-.052.549-.781 1.482c-1.173 1.505-2.735 3.331-3.552 3.642-.191.073-.293.113-.394.12-1.21-1.3-1.95-3.044-1.95-4.96 0-1.909.734-3.645 1.934-4.944.036-.002.075-.006.109-.006.213 0 .294.066.515.166.691.309 2.912 2.579 3.516 3.346m8.507 1.438c0 1.444-.421 2.789-1.145 3.922.064-.232.073-.441.044-.73-.089-.859-.374-1.7-.533-2.121-.16-.423-.355-1.044-.338-1.318.019-.274.072-.33.144-.66.069-.327.656-1.481.692-2.431.014-.343-.007-.492-.054-.652.751 1.146 1.19 2.517 1.19 3.99m-3.232-4.436c-.302.347-1.012.987-1.688 1.023-.674.037-1.114-.393-2.272-.951-1.369-.658-2.523-.987-3.02-1.135-.434-.126-1.136-.24-1.569-.244 1.239-.968 2.797-1.549 4.49-1.549 1.903 0 3.635.73 4.933 1.924-.127.199-.601.616-.874.932m-8.594 10.143c.234.004.489-.019 1.028-.098.623-.093 2.783-.88 4.387-1.886.817-.512 1.262-.621 1.598-.621.232 0 .586.185 1.42.951.817.75.917.902 1.031 1.098.042.071.069.112.087.138-1.306 1.24-3.072 2.002-5.016 2.002-1.714 0-3.29-.593-4.535-1.584" fill="#ed1443"/></g><g transform="translate(252.0305 503.7112)"><path d="m0 0c-.306.189-1.233.351-1.601.441-.254.062-.56.103-.497.273.047.122.229.193.512.195.246.002 1.806 0 2.074 0 .148 0 .355.132.512.721.083.318-.037.319-.219.319h-2.709c-.423 0-.808-.246-1.114-.644-.306-.401-.467-.882-.416-1.156.06-.325.325-.499.693-.625.367-.126.929-.244 1.203-.319.296-.077.777-.109.697-.288-.058-.131-.128-.2-.417-.196-.334.008-1.83.004-2.121 0-.327-.002-.484-.281-.609-.76-.078-.292-.014-.295.267-.295h2.283c.422 0 .821.099 1.084.257.178.104.609.365.765.958.2.752-.065.919-.387 1.119m-8.007 1.019-.978.965h-.008l-1.451-1.396.377 1.396-4.984.001c-.643 0-1.214-.483-1.214-1.092 0-.291.12-.557.315-.752l.96-.895c.063-.064.096-.138.096-.203 0-.148-.095-.264-.344-.264h-2.025l-.313-1.145h3.387c.644 0 1.217.48 1.218 1.087 0 .291-.12.557-.315.753l-.971.908c-.054.054-.085.126-.085.188 0 .15.106.263.297.263h2.056l-.856-3.199h1.609l.367 1.371 1.429-1.371h.006l.98.965-1.034.993zm3.089.965-1.042-1.003-1.043 1.003h-.013l-.972-.967 1.032-.992-1.483-1.427.988-.964 4.525 4.35zm16.359-1.212c.156.592-.138.853-.261.959-.181.157-.526.256-.949.256h-1.734c-.422 0-.82-.099-1.083-.256-.178-.106-.609-.367-.765-.959l-.006-.021h-.002l-.493-1.87c-.156-.593.138-.854.26-.958.181-.158.526-.257.949-.257h1.735c.422 0 .82.099 1.084.257.177.104.608.365.765.958l.304 1.156zm-1.353-.058-.475-1.798c-.041-.178-.082-.195-.415-.195-.072 0-.83.003-.999.001-.178-.001-.319-.001-.39-.001-.335 0-.365.017-.314.195l.474 1.798c.044.179.084.195.416.195h.317c.167-.002 1 0 1.071 0 .333 0 .367-.016.315-.195m5.634 1.124h.002c.006.084-.054.149-.148.149h-.175-1.534c-.424 0-.822-.099-1.086-.256-.177-.106-.609-.367-.765-.959l-.005-.021-.08-.304v-.001l-.679-2.572c-.048-.179.103-.188.288-.188h.682c.187 0 .379.148.425.33l.714 2.698c.043.179.083.195.418.195h.39c.101-.001.533-.001.948-.001v.003h.163c.123 0 .306.308.394.64.029.104.043.202.048.287m-9.82-.129c-.18.158-.526.256-.948.256h-.153c-.041.004-.076.006-.094.006h-1.925-.718c-.021 0-.041-.003-.061-.007-.197-.002-.264-.027-.328-.233-.016-.028-.029-.058-.039-.089l-1.396-5.295c-.049-.182.103-.189.289-.189h.681c.187 0 .378.148.426.329l.312 1.179h1.871c.423 0 .821.099 1.084.257.178.104.608.365.766.958l.493 1.87c.156.592-.138.853-.26.958m-1.086-.995-.474-1.798c-.042-.178-.083-.195-.417-.195-.198 0-1.072.002-1.698.002l.576 2.184c.627.001 1.501.002 1.699.002.334 0 .365-.016.314-.195m14.618 1.234h-1.783l.416 1.574c.049.18-.01.258-.197.258h-.755c-.187 0-.379-.148-.427-.33l-1.236-4.649c-.002-.013-.002-.022-.004-.031l-.002-.001c-.015-.081-.012-.098-.012-.171 0-.378.194-.559.288-.647.175-.164.505-.258.904-.258h1.148l.478.001.155.002c.086.001.304.363.383.674.023.1.041.198.045.286v.011c0 .023-.008.042-.02.057-.02.02-.046.025-.281.025h-1.733l.005.013.572 2.149h1.771c.124 0 .296.269.384.602.028.104.043.203.049.288h.002c.005.083-.056.147-.15.147" fill="#252122"/></g></g><g clip-path="url(#a)" transform="matrix(1.25 0 0 -1.25 -293.068753 655.84)"><g transform="translate(243.0326 505.7101)"><path d="m0 0 1.001-.988.995.99z" fill="#6b6969"/></g><g transform="translate(243.5839 502.3196)"><path d="m0 0-1.001-.986 2.009.003z" fill="#6b6969"/></g><g transform="translate(256.9218 519.1329)"><path d="m0 0h-.015c-.182 0-.454-.084-.605-.187l-1.31-.888c-.076-.051-.155-.136-.217-.231l-.059-.038-.023-.102c-.023-.05-.041-.099-.05-.143l-.023-.099c-.009-.035-.006-.067-.003-.098l-.071-.313h.481c.052-.06.076-.146.054-.246l-.694-3.07c-.04-.181.075-.329.256-.329h.983c.181 0 .363.148.405.329l1.147 5.085c.041.181-.074.33-.256.33" fill="#ddd"/></g></g></svg>