<?xml version="1.0" encoding="UTF-8"?>
<!-- Created with Inkscape (http://www.inkscape.org/) -->
<svg id="svg89695" width="13.109mm" height="8.7498mm" version="1.1" viewBox="0 0 46.448 31.003" xmlns="http://www.w3.org/2000/svg" xmlns:cc="http://creativecommons.org/ns#" xmlns:dc="http://purl.org/dc/elements/1.1/" xmlns:rdf="http://www.w3.org/1999/02/22-rdf-syntax-ns#">
 <defs id="defs89697">
  <clipPath id="clipPath70852">
   <path id="path70854" d="m301.3 498.87h82.8v24.803h-82.8v-24.803z"/>
  </clipPath>
  <clipPath id="clipPath70836">
   <path id="path70838" d="m324.12 498.87h37.158v24.803h-37.158v-24.803z"/>
  </clipPath>
  <clipPath id="clipPath70824">
   <path id="path70826" d="m301.3 498.87h82.8v24.803h-82.8v-24.803z"/>
  </clipPath>
 </defs>
 <metadata id="metadata89700">
  <rdf:RDF>
   <cc:Work rdf:about="">
    <dc:format>image/svg+xml</dc:format>
    <dc:type rdf:resource="http://purl.org/dc/dcmitype/StillImage"/>
    <dc:title/>
   </cc:Work>
  </rdf:RDF>
 </metadata>
 <g id="layer1" transform="translate(-296.78 -448.29)">
  <g id="g70820" transform="matrix(1.25 0 0 -1.25 -108.37 1102.9)">
   <g id="g70822" clip-path="url(#clipPath70824)">
    <g id="g70828" transform="translate(351.25 515.26)">
     <path id="path70830" d="m0 0c0-4.645-3.766-8.41-8.41-8.41-4.645 0-8.409 3.765-8.409 8.41 0 4.644 3.764 8.41 8.409 8.41 4.644 0 8.41-3.766 8.41-8.41" fill="#231f20"/>
    </g>
   </g>
  </g>
  <g id="g70832" transform="matrix(1.25 0 0 -1.25 -108.37 1102.9)">
   <g id="g70834" clip-path="url(#clipPath70836)">
    <g id="g70840" transform="translate(341.63 513.82)">
     <path id="path70842" d="m0 0c0.412 0.525 0.604 0.696 0.604 1.154s-0.053 0.548-0.781 1.482c-1.174 1.504-2.735 3.331-3.553 3.641-0.191 0.073-0.293 0.113-0.394 0.121-1.209-1.301-1.95-3.043-1.95-4.96 0-1.908 0.734-3.645 1.935-4.945 0.035-1e-3 0.074-5e-3 0.109-5e-3 0.212 0 0.293 0.066 0.514 0.166 0.692 0.309 2.913 2.58 3.516 3.346m8.507 1.438c0 1.445-0.422 2.789-1.145 3.921 0.063-0.232 0.074-0.439 0.045-0.729-0.09-0.859-0.373-1.701-0.533-2.121-0.161-0.422-0.354-1.043-0.339-1.318 0.018-0.274 0.073-0.33 0.144-0.659 0.069-0.329 0.657-1.481 0.691-2.433 0.014-0.342-6e-3 -0.491-0.052-0.65 0.751 1.146 1.189 2.515 1.189 3.989m-3.232-4.435c-0.302 0.346-1.012 0.987-1.687 1.022-0.675 0.037-1.114-0.392-2.274-0.95-1.367-0.659-2.522-0.988-3.018-1.135-0.434-0.127-1.137-0.241-1.569-0.244 1.237-0.969 2.796-1.549 4.49-1.549 1.903 0 3.634 0.73 4.933 1.923-0.128 0.199-0.601 0.616-0.875 0.933m-8.594 10.141c0.235 4e-3 0.49-0.018 1.028-0.098 0.623-0.092 2.783-0.879 4.386-1.885 0.818-0.513 1.263-0.622 1.599-0.622 0.23 0 0.587 0.184 1.421 0.951 0.816 0.75 0.915 0.903 1.03 1.099 0.042 0.07 0.07 0.111 0.087 0.138-1.307 1.241-3.071 2.002-5.015 2.002-1.715 0-3.291-0.593-4.536-1.585" fill="#ed1443"/>
    </g>
    <g id="g70844" transform="translate(341.69 502.71)">
     <path id="path70846" d="m0 0c-0.306 0.19-1.233 0.351-1.6 0.441-0.254 0.062-0.561 0.103-0.497 0.273 0.046 0.123 0.228 0.193 0.511 0.196 0.245 1e-3 1.807-1e-3 2.074 0 0.148 0 0.356 0.13 0.512 0.72 0.083 0.317-0.036 0.32-0.219 0.32h-2.709c-0.423 0-0.808-0.248-1.114-0.646-0.306-0.4-0.466-0.881-0.417-1.155 0.061-0.326 0.326-0.499 0.694-0.626 0.367-0.125 0.93-0.243 1.203-0.317 0.296-0.078 0.777-0.111 0.697-0.289-0.058-0.13-0.128-0.201-0.418-0.196-0.333 8e-3 -1.829 4e-3 -2.119 0-0.328-2e-3 -0.485-0.281-0.611-0.761-0.077-0.291-0.012-0.294 0.267-0.294h2.284c0.423 0 0.821 0.098 1.085 0.255 0.177 0.107 0.608 0.367 0.764 0.96 0.2 0.751-0.065 0.918-0.387 1.119m-8.006 1.019-0.978 0.965h-9e-3l-1.451-1.396 0.377 1.396-4.983 1e-3c-0.645 0-1.214-0.483-1.214-1.093 0-0.291 0.119-0.556 0.314-0.752l0.961-0.894c0.062-0.064 0.096-0.139 0.096-0.203 0-0.147-0.096-0.264-0.344-0.264h-2.025l-0.313-1.145h3.386c0.644 0 1.218 0.479 1.218 1.087 0 0.292-0.119 0.557-0.314 0.753l-0.972 0.908c-0.054 0.054-0.084 0.125-0.084 0.189 0 0.15 0.105 0.264 0.296 0.264h2.057l-0.857-3.201h1.609l0.367 1.371 1.429-1.371h6e-3l0.981 0.965-1.035 0.993 1.482 1.427zm3.088 0.965-1.042-1.003-1.042 1.003h-0.014l-0.971-0.967 1.031-0.993-1.482-1.426 0.988-0.964 4.524 4.35h-1.992zm16.359-1.213c0.156 0.593-0.139 0.854-0.261 0.96-0.18 0.157-0.526 0.255-0.948 0.255h-1.734c-0.422 0-0.822-0.098-1.085-0.255-0.178-0.106-0.608-0.367-0.764-0.96l-6e-3 -0.021-0.495-1.869c-0.156-0.593 0.138-0.853 0.259-0.96 0.182-0.157 0.527-0.255 0.95-0.255h1.735c0.422 0 0.821 0.098 1.083 0.255 0.177 0.107 0.61 0.367 0.765 0.96l0.307 1.156 0.194 0.734zm-1.352-0.057-0.476-1.798c-0.042-0.178-0.082-0.195-0.416-0.195-0.07 0-0.829 3e-3 -0.997 1e-3 -0.179-1e-3 -0.32-1e-3 -0.391-1e-3 -0.334 0-0.364 0.017-0.314 0.195l0.474 1.798c0.044 0.178 0.082 0.196 0.417 0.196 0.071 0 0.136 0 0.316-1e-3 0.167-1e-3 1.001 1e-3 1.072 1e-3 0.333 0 0.367-0.018 0.315-0.196m5.634 1.124h1e-3c6e-3 0.084-0.055 0.148-0.148 0.148h-0.173-1.536c-0.424 0-0.821-0.098-1.085-0.255-0.177-0.106-0.61-0.367-0.765-0.96l-7e-3 -0.021-0.079-0.304v-1e-3l-0.679-2.57c-0.049-0.181 0.103-0.188 0.289-0.188h0.681c0.187 0 0.378 0.148 0.426 0.329l0.713 2.698c0.042 0.178 0.082 0.196 0.417 0.196 0.071 0 0.211 0 0.39-1e-3h0.95v2e-3h0.162c0.124 0 0.306 0.307 0.395 0.64 0.028 0.104 0.042 0.201 0.048 0.287m-9.82-0.129c-0.18 0.157-0.526 0.256-0.95 0.256h-0.151c-0.043 4e-3 -0.077 6e-3 -0.093 6e-3h-1.927-0.719c-0.02 0-0.04-4e-3 -0.06-7e-3 -0.198-3e-3 -0.264-0.027-0.328-0.233-0.015-0.029-0.03-0.058-0.038-0.091l-1.398-5.294c-0.047-0.181 0.104-0.188 0.29-0.188h0.68c0.188 0 0.38 0.148 0.427 0.329l0.312 1.179h1.871c0.423 0 0.822 0.098 1.084 0.255 0.179 0.107 0.608 0.367 0.765 0.96l0.494 1.869c0.156 0.593-0.138 0.853-0.259 0.959m-1.087-0.995-0.475-1.798c-0.041-0.178-0.083-0.195-0.416-0.195-0.197 0-1.071 2e-3 -1.699 2e-3l0.578 2.185c0.626 1e-3 1.5 2e-3 1.698 2e-3 0.334 0 0.366-0.018 0.314-0.196m14.619 1.233h-1.783l0.414 1.574c0.049 0.181-0.01 0.259-0.197 0.259h-0.754c-0.185 0-0.379-0.149-0.427-0.329l-1.235-4.651c-3e-3 -0.011-3e-3 -0.021-5e-3 -0.03l-2e-3 -1e-3c-0.015-0.081-0.012-0.098-0.012-0.171 0-0.379 0.194-0.559 0.287-0.647 0.177-0.164 0.506-0.259 0.905-0.259h1.148l0.478 1e-3 0.154 1e-3c0.088 3e-3 0.307 0.366 0.384 0.676 0.023 0.1 0.04 0.198 0.043 0.286l2e-3 0.01c0 0.024-7e-3 0.042-0.02 0.058-0.02 0.02-0.046 0.025-0.282 0.025h-1.732l5e-3 0.013 0.572 2.149h1.771c0.124 0 0.296 0.269 0.384 0.602 0.028 0.105 0.045 0.202 0.048 0.288h3e-3c6e-3 0.084-0.055 0.146-0.149 0.146" fill="#fff"/>
    </g>
   </g>
  </g>
  <g id="g70848" transform="matrix(1.25 0 0 -1.25 -108.37 1102.9)">
   <g id="g70850" clip-path="url(#clipPath70852)">
    <g id="g70856" transform="translate(332.69 504.71)">
     <path id="path70858" d="M 0,0 1.001,-0.987 1.996,0.002 0,0 Z" fill="#6b6969"/>
    </g>
    <g id="g70860" transform="translate(333.24 501.32)">
     <path id="path70862" d="M 0,0 -1.001,-0.986 1.008,-0.983 0,0 Z" fill="#6b6969"/>
    </g>
    <g id="g70864" transform="translate(344.55 514.39)">
     <path id="path70866" d="m0 0c-0.155-0.051-0.3-0.17-0.322-0.266s0.092-0.175 0.256-0.175h2.392c0.162 0 0.264-0.13 0.229-0.288l-0.175-0.754c-0.037-0.157-0.199-0.287-0.361-0.287h-3.899c-0.163 0-0.266 0.13-0.23 0.287l0.255 1.105c0.036 0.157 0.131 0.402 0.209 0.545 0 0 0.14 0.251 0.396 0.456 0.256 0.206 0.467 0.281 0.757 0.372l1.908 0.61c0.156 0.048 0.33 0.119 0.387 0.158l0.014 0.06c2e-3 0.076-0.051 0.1-0.119 0.1h-2.412c-0.162 0-0.265 0.129-0.229 0.287l0.175 0.754c0.035 0.158 0.199 0.288 0.361 0.288h2.848c0.163 0 0.393-0.091 0.511-0.2 0 0 0.515-0.476 0.354-1.145-0.134-0.547-0.483-0.995-1.023-1.17l-2.282-0.737z" fill="#ddd"/>
    </g>
   </g>
  </g>
 </g>
</svg>
