<svg width="23.353mm" height="6.7366mm" version="1.1" viewBox="0 0 82.746 23.87" xmlns="http://www.w3.org/2000/svg">
 <defs>
  <clipPath id="a">
   <path d="m390.96 539.12h82.8v24.803h-82.8v-24.803z"/>
  </clipPath>
 </defs>
 <g transform="translate(-238.63 -417.57)">
  <g transform="matrix(1.25 0 0 -1.25 -260.44 1118.9)">
   <g clip-path="url(#a)">
    <g transform="translate(410.09 556.82)">
     <path d="m8.094 4.087v-18.932h-18.933v18.932l9.467-9.466z" fill="#231f20"/>
    </g>
    <g transform="translate(427.32 546.51)">
     <path d="m0 0c0.149 0 0.289 0.03 0.419 0.088 0.129 0.059 0.241 0.14 0.335 0.242 0.095 0.102 0.169 0.218 0.224 0.348 0.055 0.129 0.083 0.265 0.083 0.406 0 0.283-0.101 0.532-0.301 0.749-0.2 0.215-0.453 0.324-0.76 0.324h-0.848v-2.157h0.848zm-2.734 3.924h2.757c0.409 0 0.788-0.075 1.138-0.224 0.349-0.149 0.652-0.351 0.907-0.607 0.256-0.255 0.456-0.555 0.601-0.901 0.146-0.346 0.218-0.715 0.218-1.108s-0.072-0.762-0.218-1.107c-0.145-0.346-0.345-0.647-0.601-0.902-0.255-0.255-0.558-0.458-0.907-0.607-0.35-0.149-0.729-0.224-1.138-0.224h-0.871v-2.687h-1.886v8.367z" fill="#231f20"/>
    </g>
    <g transform="translate(435.03 543.79)">
     <path d="m0 0c0.338 0 0.652 0.065 0.943 0.195 0.29 0.129 0.542 0.306 0.754 0.53 0.212 0.223 0.379 0.485 0.501 0.783 0.121 0.299 0.182 0.617 0.182 0.955s-0.061 0.656-0.182 0.954c-0.122 0.299-0.289 0.56-0.501 0.784s-0.464 0.401-0.754 0.53c-0.291 0.13-0.605 0.195-0.943 0.195s-0.652-0.065-0.943-0.195c-0.291-0.129-0.542-0.306-0.754-0.53s-0.379-0.485-0.501-0.784c-0.122-0.298-0.183-0.616-0.183-0.954s0.061-0.656 0.183-0.955c0.122-0.298 0.289-0.56 0.501-0.783 0.212-0.224 0.463-0.401 0.754-0.53 0.291-0.13 0.605-0.195 0.943-0.195m0-1.814c-0.589 0-1.143 0.111-1.662 0.335-0.518 0.224-0.972 0.531-1.361 0.919-0.388 0.389-0.695 0.843-0.919 1.361-0.224 0.519-0.336 1.073-0.336 1.662s0.112 1.143 0.336 1.662c0.224 0.518 0.531 0.972 0.919 1.36 0.389 0.389 0.843 0.696 1.361 0.92 0.519 0.224 1.073 0.336 1.662 0.336s1.143-0.112 1.662-0.336c0.518-0.224 0.972-0.531 1.36-0.92 0.389-0.388 0.696-0.842 0.92-1.36 0.223-0.519 0.336-1.073 0.336-1.662s-0.113-1.143-0.336-1.662c-0.224-0.518-0.531-0.972-0.92-1.361-0.388-0.388-0.842-0.695-1.36-0.919-0.519-0.224-1.073-0.335-1.662-0.335" fill="#231f20"/>
    </g>
    <g transform="translate(443.24 546.51)">
     <path d="m0 0c0.149 0 0.289 0.03 0.419 0.088 0.129 0.059 0.241 0.14 0.335 0.242 0.095 0.102 0.169 0.218 0.224 0.348 0.055 0.129 0.083 0.265 0.083 0.406 0 0.283-0.101 0.532-0.301 0.749-0.2 0.215-0.454 0.324-0.76 0.324h-0.848v-2.157h0.848zm-2.734 3.924h2.757c0.409 0 0.788-0.075 1.138-0.224 0.349-0.149 0.652-0.351 0.907-0.607 0.256-0.255 0.456-0.555 0.601-0.901s0.218-0.715 0.218-1.108-0.073-0.762-0.218-1.107c-0.145-0.346-0.345-0.647-0.601-0.902-0.255-0.255-0.558-0.458-0.907-0.607-0.35-0.149-0.729-0.224-1.138-0.224h-0.871v-2.687h-1.886v8.367z" fill="#231f20"/>
    </g>
    <path d="m446.78 546.24h3.346v-1.697h-3.346v1.697z" fill="#231f20"/>
    <g transform="translate(454.77 541.98)">
     <path d="m0 0c-0.503 0-0.964 0.083-1.385 0.247-0.42 0.165-0.781 0.401-1.083 0.707-0.303 0.307-0.539 0.673-0.708 1.102-0.169 0.428-0.253 0.905-0.253 1.432v4.973h1.885v-4.997c0-0.51 0.142-0.913 0.424-1.207 0.283-0.295 0.656-0.443 1.12-0.443 0.463 0 0.837 0.148 1.119 0.443 0.283 0.294 0.425 0.697 0.425 1.207v4.997h1.885v-4.973c0-0.527-0.084-1.004-0.253-1.432-0.17-0.429-0.405-0.795-0.708-1.102-0.302-0.306-0.663-0.542-1.083-0.707-0.42-0.164-0.882-0.247-1.385-0.247" fill="#231f20"/>
    </g>
    <g transform="translate(462.43 546.51)">
     <path d="m0 0c0.15 0 0.289 0.03 0.418 0.088 0.131 0.059 0.242 0.14 0.337 0.242 0.094 0.102 0.169 0.218 0.223 0.348 0.055 0.129 0.083 0.265 0.083 0.406 0 0.283-0.1 0.532-0.301 0.749-0.2 0.215-0.453 0.324-0.76 0.324h-0.849v-2.157h0.849zm-2.734 3.924h2.758c0.409 0 0.787-0.075 1.136-0.224 0.351-0.149 0.653-0.351 0.909-0.607 0.255-0.255 0.455-0.555 0.6-0.901 0.146-0.346 0.219-0.715 0.219-1.108s-0.073-0.762-0.219-1.107c-0.145-0.346-0.345-0.647-0.6-0.902-0.256-0.255-0.558-0.458-0.909-0.607-0.349-0.149-0.727-0.224-1.136-0.224h-0.873v-2.687h-1.885v8.367z" fill="#231f20"/>
    </g>
    <g transform="translate(424.58 560.97)">
     <path d="m0 0h5.284v-1.992h-3.271v-1.513h2.516v-1.941h-2.516v-3.505h-2.013v8.951z" fill="#231f20"/>
    </g>
    <g transform="translate(434.23 555.04)">
     <path d="m0 0-0.843 1.866-0.843-1.866h1.686zm-0.843 6.026 4.403-9.052h-2.113l-0.642 1.387h-3.296l-0.641-1.387h-2.114l4.403 9.052z" fill="#231f20"/>
    </g>
    <g transform="translate(438.51 561.07)">
     <path d="m0 0 4.453-4.476 4.453 4.476v-9.052h-2.013v4.387l-2.44-2.445-2.44 2.445v-4.387h-2.013v9.052z" fill="#231f20"/>
    </g>
    <path d="m449.1 560.97h2.013v-8.951h-2.013v8.951z" fill="#231f20"/>
    <g transform="translate(452.8 560.97)">
     <path d="m0 0h2.013v-6.946h3.472v-2.005h-5.485v8.951z" fill="#231f20"/>
    </g>
    <g transform="translate(460.13 555.78)">
     <path d="m0 0-3.308 5.194h2.353l1.961-3.177 1.963 3.177h2.352l-3.307-5.194v-3.757h-2.014v3.757z" fill="#231f20"/>
    </g>
   </g>
  </g>
 </g>
</svg>
