<?xml version="1.0" encoding="UTF-8" standalone="no"?>
<!-- Created with Inkscape (http://www.inkscape.org/) -->

<svg
   xmlns:dc="http://purl.org/dc/elements/1.1/"
   xmlns:cc="http://creativecommons.org/ns#"
   xmlns:rdf="http://www.w3.org/1999/02/22-rdf-syntax-ns#"
   xmlns:svg="http://www.w3.org/2000/svg"
   xmlns="http://www.w3.org/2000/svg"
   xmlns:sodipodi="http://sodipodi.sourceforge.net/DTD/sodipodi-0.dtd"
   xmlns:inkscape="http://www.inkscape.org/namespaces/inkscape"
   width="23.305735mm"
   height="6.6867619mm"
   viewBox="0 0 82.579375 23.693251"
   id="svg314313"
   version="1.1"
   inkscape:version="0.91 r13725"
   sodipodi:docname="Sky Movies Extra.svg">
  <defs
     id="defs314315">
    <clipPath
       clipPathUnits="userSpaceOnUse"
       id="clipPath72438">
      <path
         d="m 306.496,579.373 72.397,0 0,24.803 -72.397,0 0,-24.803 z"
         id="path72440"
         inkscape:connector-curvature="0" />
    </clipPath>
  </defs>
  <sodipodi:namedview
     id="base"
     pagecolor="#ffffff"
     bordercolor="#666666"
     borderopacity="1.0"
     inkscape:pageopacity="0.0"
     inkscape:pageshadow="2"
     inkscape:zoom="1.979899"
     inkscape:cx="41.184058"
     inkscape:cy="-3.7154437"
     inkscape:document-units="px"
     inkscape:current-layer="layer1"
     showgrid="false"
     fit-margin-top="0"
     fit-margin-left="0"
     fit-margin-right="0"
     fit-margin-bottom="0"
     inkscape:window-width="1920"
     inkscape:window-height="1017"
     inkscape:window-x="-8"
     inkscape:window-y="-8"
     inkscape:window-maximized="1" />
  <metadata
     id="metadata314318">
    <rdf:RDF>
      <cc:Work
         rdf:about="">
        <dc:format>image/svg+xml</dc:format>
        <dc:type
           rdf:resource="http://purl.org/dc/dcmitype/StillImage" />
        <dc:title />
      </cc:Work>
    </rdf:RDF>
  </metadata>
  <g
     inkscape:label="Layer 1"
     inkscape:groupmode="layer"
     id="layer1"
     transform="translate(-290.13888,-446.22988)">
    <g
       transform="matrix(1.25,0,0,-1.25,-96.939241,1197.795)"
       id="g72434">
      <g
         id="g72436"
         clip-path="url(#clipPath72438)">
        <g
           id="g72442"
           transform="translate(320.5015,597.1437)">
          <path
             d="M 0,0 -0.571,0.572 0.35,1.494 0.922,0.922 0,0 Z M 2.065,2.066 1.494,1.494 0.922,2.066 l -1.143,0 -0.922,-0.922 0.23,0.922 -2.849,0 C -4.129,2.065 -4.455,1.772 -4.455,1.403 c 0,-0.176 0.069,-0.337 0.179,-0.456 l 0.55,-0.543 c 0.037,-0.038 0.054,-0.083 0.054,-0.121 0,-0.091 -0.054,-0.16 -0.196,-0.16 l -1.156,0 -0.175,-0.694 1.932,0 c 0.367,0 0.696,0.29 0.696,0.659 0,0.176 -0.069,0.337 -0.181,0.456 l -0.556,0.55 c -0.03,0.032 -0.048,0.076 -0.048,0.114 0,0.091 0.061,0.164 0.17,0.164 l 1.177,0 -0.484,-1.943 0.922,0 0.2,0.799 0.8,-0.799 1.143,0 2.636,2.637 -1.143,0 z m 6.029,2.022 0,-18.933 -18.933,0 0,18.933 9.467,-9.467 9.466,9.467 z"
             style="fill:#9e50ae;fill-opacity:1;fill-rule:nonzero;stroke:none"
             id="path72444"
             inkscape:connector-curvature="0" />
        </g>
        <g
           id="g72446"
           transform="translate(334.9072,601.2519)">
          <path
             d="M 0,0 4.296,-4.308 8.592,0 l 0,-8.713 -1.942,0 0,4.223 -2.354,-2.354 -2.355,2.354 0,-4.223 L 0,-8.713 0,0 Z"
             style="fill:#9e50ae;fill-opacity:1;fill-rule:nonzero;stroke:none"
             id="path72448"
             inkscape:connector-curvature="0" />
        </g>
        <g
           id="g72450"
           transform="translate(351.0949,596.847)">
          <path
             d="m 0,0 c 0,1.383 -1.056,2.536 -2.452,2.536 -1.395,0 -2.451,-1.153 -2.451,-2.536 0,-1.384 1.056,-2.536 2.451,-2.536 C -1.056,-2.536 0,-1.384 0,0 m -6.856,0 c 0,2.427 1.977,4.405 4.404,4.405 2.428,0 4.405,-1.978 4.405,-4.405 0,-2.427 -1.977,-4.405 -4.405,-4.405 -2.427,0 -4.404,1.978 -4.404,4.405"
             style="fill:#9e50ae;fill-opacity:1;fill-rule:nonzero;stroke:none"
             id="path72452"
             inkscape:connector-curvature="0" />
        </g>
        <g
           id="g72454"
           transform="translate(352.3803,601.1549)">
          <path
             d="M 0,0 2.16,0 4.065,-4.308 5.97,0 8.13,0 4.065,-8.713 0,0 Z"
             style="fill:#9e50ae;fill-opacity:1;fill-rule:nonzero;stroke:none"
             id="path72456"
             inkscape:connector-curvature="0" />
        </g>
        <path
           d="m 360.959,601.155 1.941,0 0,-8.616 -1.941,0 0,8.616 z"
           style="fill:#9e50ae;fill-opacity:1;fill-rule:nonzero;stroke:none"
           id="path72458"
           inkscape:connector-curvature="0" />
        <g
           id="g72460"
           transform="translate(364.1009,601.1549)">
          <path
             d="m 0,0 5.339,0 0,-1.918 -3.398,0 0,-1.456 2.671,0 0,-1.868 -2.671,0 0,-1.457 3.398,0 0,-1.917 L 0,-8.616 0,0 Z"
             style="fill:#9e50ae;fill-opacity:1;fill-rule:nonzero;stroke:none"
             id="path72462"
             inkscape:connector-curvature="0" />
        </g>
        <g
           id="g72464"
           transform="translate(369.889,594.1291)">
          <path
             d="m 0,0 1.468,1.201 c 0.377,-0.595 0.996,-1.068 1.59,-1.068 0.57,0 0.825,0.218 0.825,0.619 0,0.388 -0.279,0.631 -1.007,0.959 L 2.391,1.929 C 1.092,2.511 0.376,3.47 0.376,4.635 c 0,1.505 1.25,2.488 2.621,2.488 0.959,0 1.687,-0.231 2.415,-1.08 L 4.101,4.659 C 3.665,5.193 3.398,5.303 2.997,5.303 2.67,5.303 2.33,5.096 2.33,4.708 2.33,4.259 2.706,4.016 3.495,3.664 L 3.956,3.458 C 5.145,2.924 5.837,2.063 5.837,0.873 5.837,-0.68 4.696,-1.687 3.094,-1.687 1.711,-1.687 0.595,-1.117 0,0"
             style="fill:#9e50ae;fill-opacity:1;fill-rule:nonzero;stroke:none"
             id="path72466"
             inkscape:connector-curvature="0" />
        </g>
        <g
           id="g72468"
           transform="translate(334.9072,590.913)">
          <path
             d="m 0,0 5.339,0 0,-1.917 -3.398,0 0,-1.457 2.67,0 0,-1.868 -2.67,0 0,-1.456 3.398,0 0,-1.917 L 0,-8.615 0,0 Z"
             style="fill:#9e50ae;fill-opacity:1;fill-rule:nonzero;stroke:none"
             id="path72470"
             inkscape:connector-curvature="0" />
        </g>
        <g
           id="g72472"
           transform="translate(343.3893,586.6175)">
          <path
             d="m 0,0 -2.537,4.295 2.246,0 1.662,-2.862 1.663,2.862 2.245,0 L 2.742,0 l 2.719,-4.32 -2.258,0 -1.832,2.961 -1.833,-2.961 -2.257,0 L 0,0 Z"
             style="fill:#9e50ae;fill-opacity:1;fill-rule:nonzero;stroke:none"
             id="path72474"
             inkscape:connector-curvature="0" />
        </g>
        <g
           id="g72476"
           transform="translate(350.961,588.9961)">
          <path
             d="m 0,0 -2.064,0 0,1.917 6.08,0 0,-1.917 -2.075,0 0,-6.698 L 0,-6.698 0,0 Z"
             style="fill:#9e50ae;fill-opacity:1;fill-rule:nonzero;stroke:none"
             id="path72478"
             inkscape:connector-curvature="0" />
        </g>
        <g
           id="g72480"
           transform="translate(358.8718,587.4308)">
          <path
             d="M 0,0 C 0.522,0 0.898,0.376 0.898,0.85 0.898,1.323 0.522,1.711 0,1.711 l -1.093,0 L -1.093,0 0,0 Z m -1.093,-5.133 -1.941,0 0,8.615 3.252,0 c 1.408,0 2.561,-1.152 2.561,-2.56 0,-1.068 -0.655,-2.014 -1.65,-2.39 l 2.79,-3.665 -2.317,0 -2.67,3.495 -0.025,0 0,-3.495 z"
             style="fill:#9e50ae;fill-opacity:1;fill-rule:nonzero;stroke:none"
             id="path72482"
             inkscape:connector-curvature="0" />
        </g>
        <g
           id="g72484"
           transform="translate(367.3054,585.2096)">
          <path
             d="M 0,0 -0.814,1.797 -1.627,0 0,0 Z m -0.814,5.801 4.248,-8.713 -2.039,0 -0.619,1.335 -3.179,0 -0.619,-1.335 -2.039,0 4.247,8.713 z"
             style="fill:#9e50ae;fill-opacity:1;fill-rule:nonzero;stroke:none"
             id="path72486"
             inkscape:connector-curvature="0" />
        </g>
      </g>
    </g>
  </g>
</svg>
