<svg width="23.306mm" height="6.6863mm" version="1.1" viewBox="0 0 82.58 23.692" xmlns="http://www.w3.org/2000/svg">
 <defs>
  <clipPath id="a">
   <path d="m121.98 539.12h82.8v24.803h-82.8v-24.803z"/>
  </clipPath>
 </defs>
 <g transform="translate(-253 -417.66)">
  <g transform="matrix(1.25 0 0 -1.25 90.067 1118.9)">
   <g clip-path="url(#a)">
    <g transform="translate(141.18 556.89)">
     <path d="m0 0-0.571 0.572 0.921 0.922 0.572-0.572-0.922-0.922zm2.065 2.065-0.571-0.571-0.572 0.571h-1.143l-0.922-0.921 0.23 0.921h-2.849c-0.367 0-0.693-0.293-0.693-0.662 0-0.176 0.069-0.337 0.179-0.456l0.55-0.543c0.036-0.038 0.054-0.083 0.054-0.121 0-0.091-0.054-0.16-0.196-0.16h-1.156l-0.175-0.694h1.932c0.367 0 0.696 0.29 0.696 0.659 0 0.176-0.069 0.337-0.181 0.456l-0.556 0.55c-0.03 0.032-0.048 0.076-0.048 0.114 0 0.091 0.061 0.164 0.17 0.164h1.177l-0.484-1.943h0.922l0.2 0.799 0.8-0.799h1.143l2.636 2.636h-1.143zm6.029 2.022v-18.932h-18.933v18.932l9.467-9.466 9.466 9.466z" fill="#fff"/>
    </g>
    <g transform="translate(155.59 561)">
     <path d="m0 0 4.296-4.308 4.296 4.308v-8.713h-1.942v4.223l-2.354-2.354-2.355 2.354v-4.223h-1.941v8.713z" fill="#fff"/>
    </g>
    <g transform="translate(171.78 556.59)">
     <path d="m0 0c0 1.383-1.056 2.536-2.452 2.536-1.395 0-2.451-1.153-2.451-2.536 0-1.384 1.056-2.536 2.451-2.536 1.396 0 2.452 1.152 2.452 2.536m-6.856 0c0 2.427 1.977 4.405 4.404 4.405 2.428 0 4.405-1.978 4.405-4.405s-1.977-4.405-4.405-4.405c-2.427 0-4.404 1.978-4.404 4.405" fill="#fff"/>
    </g>
    <g transform="translate(173.06 560.9)">
     <path d="M 0,0 2.16,0 4.065,-4.308 5.97,0 8.13,0 4.065,-8.713 0,0 Z" fill="#fff"/>
    </g>
    <path d="m181.64 560.9h1.941v-8.616h-1.941v8.616z" fill="#fff"/>
    <g transform="translate(184.78 560.9)">
     <path d="m0 0h5.339v-1.918h-3.398v-1.456h2.671v-1.868h-2.671v-1.457h3.398v-1.917h-5.339v8.616z" fill="#fff"/>
    </g>
    <g transform="translate(190.57 553.88)">
     <path d="m0 0 1.468 1.201c0.377-0.595 0.996-1.068 1.59-1.068 0.57 0 0.825 0.218 0.825 0.619 0 0.388-0.279 0.631-1.007 0.959l-0.485 0.218c-1.299 0.582-2.015 1.541-2.015 2.706 0 1.505 1.25 2.488 2.621 2.488 0.959 0 1.687-0.231 2.415-1.08l-1.311-1.384c-0.436 0.534-0.703 0.644-1.104 0.644-0.327 0-0.667-0.207-0.667-0.595 0-0.449 0.376-0.692 1.165-1.044l0.461-0.206c1.189-0.534 1.881-1.395 1.881-2.585 0-1.553-1.141-2.56-2.743-2.56-1.383 0-2.499 0.57-3.094 1.687" fill="#fff"/>
    </g>
    <g transform="translate(158.4 546.58)">
     <path d="m0 0c0.149 0 0.289 0.03 0.419 0.088 0.129 0.059 0.241 0.14 0.335 0.242 0.095 0.102 0.169 0.218 0.224 0.348 0.055 0.129 0.083 0.265 0.083 0.406 0 0.283-0.101 0.532-0.301 0.749-0.2 0.215-0.453 0.324-0.76 0.324h-0.848v-2.157h0.848zm-2.734 3.924h2.757c0.409 0 0.788-0.075 1.138-0.224 0.349-0.149 0.652-0.351 0.907-0.607 0.256-0.255 0.456-0.555 0.601-0.901 0.146-0.346 0.218-0.715 0.218-1.108s-0.072-0.762-0.218-1.107c-0.145-0.346-0.345-0.647-0.601-0.902-0.255-0.255-0.558-0.458-0.907-0.607-0.35-0.149-0.729-0.224-1.138-0.224h-0.871v-2.687h-1.886v8.367z" fill="#fff"/>
    </g>
    <g transform="translate(166.12 543.86)">
     <path d="m0 0c0.338 0 0.652 0.065 0.943 0.195 0.29 0.129 0.542 0.306 0.754 0.53 0.212 0.223 0.379 0.485 0.501 0.783 0.121 0.299 0.182 0.617 0.182 0.955s-0.061 0.656-0.182 0.954c-0.122 0.299-0.289 0.56-0.501 0.784s-0.464 0.401-0.754 0.53c-0.291 0.13-0.605 0.195-0.943 0.195s-0.652-0.065-0.943-0.195c-0.291-0.129-0.542-0.306-0.754-0.53s-0.379-0.485-0.501-0.784c-0.122-0.298-0.183-0.616-0.183-0.954s0.061-0.656 0.183-0.955c0.122-0.298 0.289-0.56 0.501-0.783 0.212-0.224 0.463-0.401 0.754-0.53 0.291-0.13 0.605-0.195 0.943-0.195m0-1.814c-0.589 0-1.143 0.111-1.662 0.335-0.518 0.224-0.972 0.531-1.361 0.919-0.388 0.389-0.695 0.843-0.919 1.361-0.224 0.519-0.336 1.073-0.336 1.662s0.112 1.143 0.336 1.662c0.224 0.518 0.531 0.972 0.919 1.36 0.389 0.389 0.843 0.696 1.361 0.92 0.519 0.224 1.073 0.336 1.662 0.336s1.143-0.112 1.662-0.336c0.518-0.224 0.972-0.531 1.36-0.92 0.389-0.388 0.696-0.842 0.92-1.36 0.223-0.519 0.336-1.073 0.336-1.662s-0.113-1.143-0.336-1.662c-0.224-0.518-0.531-0.972-0.92-1.361-0.388-0.388-0.842-0.695-1.36-0.919-0.519-0.224-1.073-0.335-1.662-0.335" fill="#fff"/>
    </g>
    <g transform="translate(174.32 546.58)">
     <path d="m0 0c0.149 0 0.289 0.03 0.419 0.088 0.129 0.059 0.241 0.14 0.335 0.242 0.095 0.102 0.169 0.218 0.224 0.348 0.055 0.129 0.083 0.265 0.083 0.406 0 0.283-0.101 0.532-0.301 0.749-0.2 0.215-0.454 0.324-0.76 0.324h-0.848v-2.157h0.848zm-2.734 3.924h2.757c0.409 0 0.788-0.075 1.138-0.224 0.349-0.149 0.652-0.351 0.907-0.607 0.256-0.255 0.456-0.555 0.601-0.901s0.218-0.715 0.218-1.108-0.073-0.762-0.218-1.107c-0.145-0.346-0.345-0.647-0.601-0.902-0.255-0.255-0.558-0.458-0.907-0.607-0.35-0.149-0.729-0.224-1.138-0.224h-0.871v-2.687h-1.886v8.367z" fill="#fff"/>
    </g>
    <path d="m177.87 546.31h3.346v-1.697h-3.346v1.697z" fill="#fff"/>
    <g transform="translate(185.86 542.05)">
     <path d="m0 0c-0.503 0-0.964 0.083-1.385 0.247-0.42 0.165-0.781 0.401-1.083 0.707-0.303 0.307-0.539 0.673-0.708 1.102-0.169 0.428-0.253 0.905-0.253 1.432v4.973h1.885v-4.997c0-0.51 0.142-0.913 0.424-1.207 0.283-0.295 0.656-0.443 1.12-0.443 0.463 0 0.837 0.148 1.119 0.443 0.283 0.294 0.425 0.697 0.425 1.207v4.997h1.885v-4.973c0-0.527-0.084-1.004-0.253-1.432-0.17-0.429-0.405-0.795-0.708-1.102-0.302-0.306-0.663-0.542-1.083-0.707-0.42-0.164-0.882-0.247-1.385-0.247" fill="#fff"/>
    </g>
    <g transform="translate(193.52 546.58)">
     <path d="m0 0c0.15 0 0.289 0.03 0.418 0.088 0.131 0.059 0.242 0.14 0.337 0.242 0.094 0.102 0.169 0.218 0.223 0.348 0.055 0.129 0.083 0.265 0.083 0.406 0 0.283-0.1 0.532-0.3 0.749-0.201 0.215-0.454 0.324-0.761 0.324h-0.849v-2.157h0.849zm-2.734 3.924h2.758c0.409 0 0.787-0.075 1.136-0.224 0.351-0.149 0.653-0.351 0.909-0.607 0.255-0.255 0.455-0.555 0.6-0.901 0.146-0.346 0.219-0.715 0.219-1.108s-0.073-0.762-0.219-1.107c-0.145-0.346-0.345-0.647-0.6-0.902-0.256-0.255-0.558-0.458-0.909-0.607-0.349-0.149-0.727-0.224-1.136-0.224h-0.873v-2.687h-1.885v8.367z" fill="#fff"/>
    </g>
   </g>
  </g>
 </g>
</svg>
