<svg height="6.736574mm" viewBox="0 0 82.745873 23.869749" width="23.352724mm" xmlns="http://www.w3.org/2000/svg" xmlns:xlink="http://www.w3.org/1999/xlink"><clipPath id="a"><path d="m390.955 539.122h82.8v24.803h-82.8z"/></clipPath><g clip-path="url(#a)" transform="matrix(1.25 0 0 -1.25 -499.06962 701.33838)"><g transform="translate(410.0947 556.8199)"><path d="m0 0-.571.572.921.922.572-.572zm2.065 2.065-.571-.571-.572.571h-1.143l-.922-.921.23.921h-2.849c-.367 0-.693-.293-.693-.662 0-.176.069-.337.179-.456l.55-.543c.037-.038.054-.083.054-.121 0-.091-.054-.16-.196-.16h-1.156l-.175-.694h1.932c.367 0 .696.29.696.659 0 .176-.069.337-.181.456l-.556.55c-.03.032-.048.076-.048.114 0 .091.061.164.17.164h1.177l-.484-1.943h.922l.2.799.8-.799h1.143l2.636 2.636zm6.029 2.022v-18.932h-18.933v18.932l9.467-9.466z" fill="#fff"/></g><g transform="translate(427.3155 546.5128)"><path d="m0 0c .149 0 .289.03.419.088.129.059.241.14.335.242.095.102.169.218.224.348.055.129.083.265.083.406 0 .283-.101.532-.301.749-.2.215-.453.324-.76.324h-.848v-2.157zm-2.734 3.924h2.757c.409 0 .788-.075 1.138-.224.349-.149.652-.351.907-.607.256-.255.456-.555.601-.901.146-.346.218-.715.218-1.108s-.072-.762-.218-1.107c-.145-.346-.345-.647-.601-.902-.255-.255-.558-.458-.907-.607-.35-.149-.729-.224-1.138-.224h-.871v-2.687h-1.886z" fill="#fff"/></g><g transform="translate(435.0344 543.7907)"><path d="m0 0c .338 0 .652.065.943.195.29.129.542.306.754.53.212.223.379.485.501.783.121.299.182.617.182.955s-.061.656-.182.954c-.122.299-.289.56-.501.784s-.464.401-.754.53c-.291.13-.605.195-.943.195s-.652-.065-.943-.195c-.291-.129-.542-.306-.754-.53s-.379-.485-.501-.784c-.122-.298-.183-.616-.183-.954s.061-.656.183-.955c.122-.298.289-.56.501-.783.212-.224.463-.401.754-.53.291-.13.605-.195.943-.195m0-1.814c-.589 0-1.143.111-1.662.335-.518.224-.972.531-1.361.919-.388.389-.695.843-.919 1.361-.224.519-.336 1.073-.336 1.662s.112 1.143.336 1.662c.224.518.531.972.919 1.36.389.389.843.696 1.361.92.519.224 1.073.336 1.662.336s1.143-.112 1.662-.336c.518-.224.972-.531 1.36-.92.389-.388.696-.842.92-1.36.223-.519.336-1.073.336-1.662s-.113-1.143-.336-1.662c-.224-.518-.531-.972-.92-1.361-.388-.388-.842-.695-1.36-.919-.519-.224-1.073-.335-1.662-.335" fill="#fff"/></g><g transform="translate(443.2358 546.5128)"><path d="m0 0c .149 0 .289.03.419.088.129.059.241.14.335.242.095.102.169.218.224.348.055.129.083.265.083.406 0 .283-.101.532-.301.749-.2.215-.454.324-.76.324h-.848v-2.157zm-2.734 3.924h2.757c.409 0 .788-.075 1.138-.224.349-.149.652-.351.907-.607.256-.255.456-.555.601-.901s.218-.715.218-1.108-.073-.762-.218-1.107c-.145-.346-.345-.647-.601-.902-.255-.255-.558-.458-.907-.607-.35-.149-.729-.224-1.138-.224h-.871v-2.687h-1.886z" fill="#fff"/></g><path d="m446.783 546.242h3.346v-1.697h-3.346z" fill="#fff"/><g transform="translate(454.7726 541.9763)"><path d="m0 0c-.503 0-.964.083-1.385.247-.42.165-.781.401-1.083.707-.303.307-.539.673-.708 1.102-.169.428-.253.905-.253 1.432v4.973h1.885v-4.997c0-.51.142-.913.424-1.207.283-.295.656-.443 1.12-.443.463 0 .837.148 1.119.443.283.294.425.697.425 1.207v4.997h1.885v-4.973c0-.527-.084-1.004-.253-1.432-.17-.429-.405-.795-.708-1.102-.302-.306-.663-.542-1.083-.707-.42-.164-.882-.247-1.385-.247" fill="#fff"/></g><g transform="translate(462.4319 546.5128)"><path d="m0 0c .15 0 .289.03.418.088.131.059.242.14.337.242.094.102.169.218.223.348.055.129.083.265.083.406 0 .283-.1.532-.301.749-.2.215-.453.324-.76.324h-.849v-2.157zm-2.734 3.924h2.758c.409 0 .787-.075 1.136-.224.351-.149.653-.351.909-.607.255-.255.455-.555.6-.901.146-.346.219-.715.219-1.108s-.073-.762-.219-1.107c-.145-.346-.345-.647-.6-.902-.256-.255-.558-.458-.909-.607-.349-.149-.727-.224-1.136-.224h-.873v-2.687h-1.885z" fill="#fff"/></g><g transform="translate(424.5819 560.9697)"><path d="m0 0h5.284v-1.992h-3.271v-1.513h2.516v-1.941h-2.516v-3.505h-2.013z" fill="#fff"/></g><g transform="translate(434.2302 555.0443)"><path d="m0 0-.843 1.866-.843-1.866zm-.843 6.026 4.403-9.052h-2.113l-.642 1.387h-3.296l-.641-1.387h-2.114l4.403 9.052z" fill="#fff"/></g><g transform="translate(438.5075 561.0707)"><path d="m0 0 4.453-4.476 4.453 4.476v-9.052h-2.013v4.387l-2.44-2.445-2.44 2.445v-4.387h-2.013z" fill="#fff"/></g><path d="m449.1 560.97h2.013v-8.951h-2.013z" fill="#fff"/><g transform="translate(452.7979 560.9697)"><path d="m0 0h2.013v-6.946h3.472v-2.005h-5.485z" fill="#fff"/></g><g transform="translate(460.1314 555.7758)"><path d="m0 0-3.308 5.194h2.353l1.961-3.177 1.963 3.177h2.352l-3.307-5.194v-3.757h-2.014z" fill="#fff"/></g></g></svg>