<?xml version="1.0" encoding="UTF-8"?>
<svg id="svg31" width="222.94pt" height="59.56pt" version="1.1" viewBox="0 0 222.94 59.56" xmlns="http://www.w3.org/2000/svg" xmlns:cc="http://creativecommons.org/ns#" xmlns:dc="http://purl.org/dc/elements/1.1/" xmlns:rdf="http://www.w3.org/1999/02/22-rdf-syntax-ns#">
 <metadata id="metadata37">
  <rdf:RDF>
   <cc:Work rdf:about="">
    <dc:format>image/svg+xml</dc:format>
    <dc:type rdf:resource="http://purl.org/dc/dcmitype/StillImage"/>
    <dc:title/>
   </cc:Work>
  </rdf:RDF>
 </metadata>
 <g id="g1245" transform="translate(-13.56 -60.44)">
  <path id="path72502" d="m47.232 73.195-1.7752-1.7752 2.8632-2.8632 1.7752 1.7752zm6.4166-6.4166-1.7752 1.7782-1.7782-1.7782h-3.5504l-2.8632 2.8663 0.7143-2.8663h-8.8489c-1.1423 3e-3 -2.1549 0.91322-2.1549 2.0615 0 0.54552 0.21399 1.0428 0.55757 1.4136l1.7059 1.6878c0.11453 0.11754 0.17179 0.2592 0.16878 0.37674 3e-3 0.28029-0.16576 0.4973-0.60881 0.4973h-3.5926l-0.53949 2.1549h5.9977c1.1423 0 2.164-0.90116 2.164-2.0464 0-0.54552-0.21399-1.0488-0.56059-1.4165l-1.727-1.7119c-0.09645-0.09645-0.1507-0.23508-0.1507-0.35266 0-0.28029 0.18988-0.50634 0.52743-0.50634h3.6559l-1.5039 6.0339h2.8662l0.62086-2.4835 2.4835 2.4835h3.5504l8.1918-8.1918zm18.725-6.281v58.817h-58.814v-58.817l29.41 29.407z" fill="#00babe" stroke-width="3.0139"/>
 </g>
 <g id="g1253" transform="translate(-13.56 -60.44)" fill="#00babe" stroke-width="3.0139">
  <path id="path72506" d="m91.988 60.446 13.346 13.382 13.343-13.382v27.065h-6.0278v-13.117l-7.3148 7.3118-7.3148-7.3118v13.117h-6.0309z"/>
  <path id="path72510" d="m142.26 74.129c0-4.2979-3.2791-7.8784-7.6132-7.8784-4.337 0-7.6162 3.5805-7.6162 7.8784s3.2791 7.8784 7.6162 7.8784c4.334 0 7.6132-3.5805 7.6132-7.8784m-21.296 0c0-7.5378 6.1424-13.683 13.683-13.683 7.5378 0 13.683 6.1454 13.683 13.683 0 7.5408-6.1454 13.683-13.683 13.683-7.5408 0-13.683-6.1424-13.683-13.683"/>
  <path id="path72514" d="m146.24 60.747h6.712l5.9194 13.382 5.9163-13.382h6.712l-12.628 27.065z"/>
  <path id="path72516" d="m172.91 60.747h6.0309v26.764h-6.0309z"/>
  <path id="path72520" d="m182.68 60.747h16.586v5.9555h-10.558v4.5239h8.2973v5.8048h-8.2973v4.5239h10.558v5.9555h-16.586z"/>
  <path id="path72524" d="m200.64 82.568 4.5601-3.7313c1.1694 1.8476 3.0923 3.3153 4.9398 3.3153 1.7722 0 2.5618-0.67813 2.5618-1.9229 0-1.2056-0.86499-1.9591-3.1285-2.9778l-1.507-0.67813c-4.0326-1.8083-6.2599-4.7861-6.2599-8.4058 0-4.6746 3.885-7.7277 8.1436-7.7277 2.9808 0 5.2412 0.71731 7.5017 3.3545l-4.0688 4.2979c-1.3563-1.6577-2.1881-1.9982-3.4329-1.9982-1.0157 0-2.0736 0.64196-2.0736 1.8475 0 1.3954 1.1694 2.1489 3.6197 3.243l1.4346 0.63898c3.692 1.6607 5.841 4.337 5.841 8.0291 0 4.8283-3.5413 7.9537-8.5173 7.9537-4.3008 0-7.7669-1.7692-9.6144-5.2382"/>
 </g>
 <g id="g1262" transform="translate(-13.56 -60.44)" fill="#00babe">
  <path id="path72546" d="m134.01 105.43v14.265h-6.1506v-27.605l17.222 14.573v-14.265h6.1506v27.602z" stroke-width="3.0738"/>
  <path id="path72604" d="m159.22 98.542h-6.4803v-6.0221h19.102v6.0221h-6.518v21.048h-6.1037z" stroke-width="3.1382"/>
  <path id="path72588" d="m192.54 106.02c0-7.5947 6.1889-13.78 13.78-13.78 4.63 0 8.2758 1.862 10.894 5.0892l-4.5925 3.7552c-1.6308-2.0463-3.4178-2.996-6.3013-2.996-4.3675 0-7.6697 3.6021-7.6697 7.9321 0 4.33 3.3022 7.9353 7.6697 7.9353 2.2025 0 3.8708-0.38114 5.2017-1.3278v-3.7614h-6.4919l2.5805-5.6953h9.7941v12.225c-2.6586 3.0398-6.5294 4.405-11.084 4.405-7.5916 0-13.78-6.1858-13.78-13.78" stroke-width="3.1241"/>
  <path id="path72528" d="m184.2 110.46-2.5576-5.6493-2.5576 5.6493zm-2.5576-18.248 13.362 27.41h-6.4123l-1.9472-4.1996h-10.001l-1.9472 4.1996h-6.4123z" stroke-width="3.052"/>
  <path id="path72514-5" d="m92.344 92.5h6.795l5.9926 13.547 5.9895-13.547h6.795l-12.784 27.4z" stroke-width="3.0512"/>
  <path id="path72516-6" d="m119.21 92.51h6.0976v27.06h-6.0976z" stroke-width="3.0473"/>
  <path id="path72520-8" d="m219.69 92.49h16.806v6.0348h-10.698v4.5841h8.4078v5.8821h-8.4078v4.5842h10.698v6.0348h-16.806z" stroke-width="3.0541"/>
 </g>
</svg>
