<?xml version="1.0" encoding="UTF-8" standalone="no"?>
<svg
   xmlns:dc="http://purl.org/dc/elements/1.1/"
   xmlns:cc="http://creativecommons.org/ns#"
   xmlns:rdf="http://www.w3.org/1999/02/22-rdf-syntax-ns#"
   xmlns:svg="http://www.w3.org/2000/svg"
   xmlns="http://www.w3.org/2000/svg"
   xmlns:sodipodi="http://sodipodi.sourceforge.net/DTD/sodipodi-0.dtd"
   xmlns:inkscape="http://www.inkscape.org/namespaces/inkscape"
   width="237pt"
   height="138pt"
   viewBox="0 0 237 138"
   version="1.1"
   id="svg21"
   sodipodi:docname="Sky Box Sets - Dark.svg"
   inkscape:version="0.92.0 r15299">
  <metadata
     id="metadata27">
    <rdf:RDF>
      <cc:Work
         rdf:about="">
        <dc:format>image/svg+xml</dc:format>
        <dc:type
           rdf:resource="http://purl.org/dc/dcmitype/StillImage" />
      </cc:Work>
    </rdf:RDF>
  </metadata>
  <defs
     id="defs25" />
  <sodipodi:namedview
     pagecolor="#ffffff"
     bordercolor="#666666"
     borderopacity="1"
     objecttolerance="10"
     gridtolerance="10"
     guidetolerance="10"
     inkscape:pageopacity="0"
     inkscape:pageshadow="2"
     inkscape:window-width="1920"
     inkscape:window-height="1017"
     id="namedview23"
     showgrid="false"
     inkscape:zoom="1.7974684"
     inkscape:cx="153.00447"
     inkscape:cy="77.506746"
     inkscape:window-x="-8"
     inkscape:window-y="-8"
     inkscape:window-maximized="1"
     inkscape:current-layer="svg21" />
  <g
     id="#000000ff">
    <path
       d="m 179.39,4.43 4.2,-4.26 25.27,0.09 -0.08,20.06 h 15.28 l -0.05,19.83 12.99,0.04 v 69.71 l -4.23,3.64 0.17,-69.34 -8.9,-0.02 0.06,75.8 -4.02,6.84 0.07,-102.56 -11.37,0.01 0.03,113.73 H 44.62 V 93.15 L 48.89,89.21 48.85,134.04 204.8,134 204.9,4.42 Z"
       id="path2"
       inkscape:connector-curvature="0"
       style="opacity:1;fill:#000000"
       sodipodi:nodetypes="ccccccccccccccccccccccc" />
    <path
       fill="#000000"
       opacity="1.00"
       d=" M 123.19 20.31 C 129.50 19.33 136.38 20.51 141.53 24.44 C 149.31 29.79 153.57 39.91 151.75 49.20 C 149.70 60.33 139.47 69.70 127.93 69.49 C 116.00 70.28 104.59 60.75 103.00 48.96 C 100.17 35.98 110.03 21.99 123.19 20.31 M 122.33 31.48 C 116.95 33.40 113.23 39.29 113.54 44.97 C 113.31 52.51 120.28 59.76 128.00 58.86 C 137.83 59.04 144.19 46.69 139.57 38.40 C 136.88 31.91 128.75 28.80 122.33 31.48 Z"
       id="path4" />
    <path
       d="M 0,20.77 48.91,69.75 0,119.13 Z"
       id="path6"
       inkscape:connector-curvature="0"
       style="opacity:1;fill:#000000"
       sodipodi:nodetypes="cccc" />
    <path
       d="m 67.16,21.14 18.83,-0.02 c 5.39,-0.08 10.06,4.05 12.17,8.75 1.31,4.41 1.38,9.95 -2.32,13.27 3.04,2.1 5.84,5.08 6.32,8.9 1.87,8.08 -5.27,16.27 -13.33,16.53 l -21.68,0.04 0.01,-47.47 m 10.74025,9.7 v 9.37 c 3.99264,0 7.32114,0.321845 9.204794,-1.218607 0.696452,-0.569558 1.185439,-1.286066 1.503706,-2.04705 C 89.420041,35.004527 88.351766,32.423849 86.38,31.58 84.481596,30.681134 82.822624,30.84 77.90025,30.84 m 0,18.39 v 9.25 l 9.721993,0.01503 c 0.931905,0.0014 1.941003,-0.329997 2.610267,-0.806677 2.856571,-2.03458 2.043711,-6.716136 -1.115467,-8.071438 -0.735419,-0.315498 -1.483789,-0.400931 -2.239971,-0.399842 z"
       id="path8"
       inkscape:connector-curvature="0"
       style="opacity:1;fill:#000000"
       sodipodi:nodetypes="ccccccccccssccccssssc" />
    <path
       d="m 145.35,21.11025 h 12.29 l 9.27,15.80975 8.66,-15.80975 h 12.58 L 174.2,44.78 189.25,68.61975 H 176.83 L 166.89,52.21 156.76,68.61975 H 144.03 L 159.14,44.69 Z"
       id="path10"
       inkscape:connector-curvature="0"
       style="opacity:1;fill:#000000"
       sodipodi:nodetypes="ccccccccccccc" />
    <path
       d="m 72.15,73.19 c 6.86,-4.53 16.45,-2.4 21.71,3.62 L 86.4,84.56 C 84.82,83.07 83.38,81 81.01,80.82 c -2.62,-0.55 -5.74,2.49 -3.98,5.01 3.22,4.29 9.29,4.37 13.1,7.96 8.08,5.32 7.5,19.72 -1.51,23.79 -8.51,4.17 -20.54,1.19 -24.93,-7.57 l 8.05,-6.52 c 2.64,3.55 7.28,7.62 11.91,5.16 2.74,-1.89 0.98,-5.79 -1.64,-6.77 -5.37,-2.51 -11.71,-4.76 -14.45,-10.49 -3.7,-6 -1.51,-14.69 4.59,-18.2 z"
       id="path12"
       inkscape:connector-curvature="0"
       style="opacity:1;fill:#000000"
       sodipodi:nodetypes="ccccccccccccc" />
    <path
       d="m 97.12,71.37 29.25,0.06 -0.05,10.48 -18.47,-0.01 v 8.17 h 14.66 l 0.04,10.31 -14.63,-0.04 -0.09,7.92 18.6,-0.02 0.02,10.61 -29.35,-0.04 z"
       id="path14"
       inkscape:connector-curvature="0"
       style="opacity:1;fill:#000000"
       sodipodi:nodetypes="ccccccccccccc" />
    <path
       d="m 127.43,71.42 33.33025,-0.01 v 10.4 l -11.52025,0.12 0.03,36.92 -10.81,-0.02 0.04,-36.93 -11,0.01 z"
       id="path16"
       inkscape:connector-curvature="0"
       style="opacity:1;fill:#000000"
       sodipodi:nodetypes="ccccccccc" />
    <path
       d="m 165.74,74.69 c 6.47,-5.92 17.67,-4.96 23.21,1.77 l -6.89,8.13 c -1.74,-2.01 -4.13,-4.49 -7.09,-3.62 -2.68,0.35 -3.42,3.86 -1.73,5.71 3.71,3.33 9.06,3.91 12.79,7.26 7.25,5.17 7.39,16.93 0.44,22.4 -8.69,5.91 -22.08,3.11 -27.24,-6.17 l 8.1,-6.62 c 2.56,3.1 6.19,6.66 10.61,5.67 2.34,-0.29 3.89,-3.39 2.16,-5.24 -3.35,-3.77 -8.97,-4.13 -12.64,-7.55 -6.96,-4.73 -8.07,-16.08 -1.72,-21.74 z"
       id="path18"
       inkscape:connector-curvature="0"
       style="opacity:1;fill:#000000"
       sodipodi:nodetypes="ccccccccccccc" />
  </g>
</svg>
