<svg width="331.95pt" height="224.05pt" version="1.1" viewBox="0 0 331.95 224.05" xmlns="http://www.w3.org/2000/svg">
 <g transform="translate(-34.1 -1.0411)" fill="#00a8ea">
  <path d="m184.53 1.85c14.68-2.27 30.08 0.26 43.18 7.31 15.73 8.29 28.02 22.87 33.47 39.8 4.62 13.93 4.63 29.32 0.06 43.26-5.33 16.67-17.3 31.06-32.63 39.48-12.26 6.82-26.63 9.69-40.57 8.23-16.01-1.51-31.32-8.97-42.54-20.46-10.25-10.4-17.08-24.1-19.16-38.55-2.69-17.54 1.7-36.05 12.02-50.49 10.7-15.23 27.73-25.87 46.17-28.58m-11.75 30.18c-0.02 26.12 0.01 52.23-0.02 78.35 19.23-13.05 38.44-26.13 57.65-39.22-19.3-12.91-38.42-26.09-57.63-39.13z"/>
  <path d="m34.1 14.11c15.99 0.01 31.98-0.08 47.96 0.04 17.99 0.61 33.77 16.8 33.84 34.81 0.55 8.17-2.55 16.49-8.48 22.16 5.53 3.06 10.41 7.49 13.39 13.12 6.02 11.19 4.58 25.62-2.61 35.94-6.71 9.76-18.38 15.83-30.22 15.67-17.96 0.01-35.92 0.02-53.88-0.01 0.04-40.58 0.02-81.16 0-121.73m27.44 25.03c-0.01 8.05 0.02 16.1-0.01 24.14 5.49-0.05 10.99 0.14 16.48-0.07 5.87-0.29 11.29-5.29 11.36-11.29 0.59-6.4-4.9-12.48-11.28-12.72-5.52-0.15-11.03 0-16.55-0.06m-0.02 47.31c-0.01 8.04 0.13 16.08-0.08 24.11 8.15 0.25 16.32 0.11 24.48 0.09 6.15-0.1 11.87-5.32 11.89-11.59 0.44-6.59-5.4-12.51-11.92-12.57-8.12-0.13-16.25-0.03-24.37-0.04z"/>
  <path d="m253.11 14.1c10.6 0.01 21.2-0.04 31.79 0.02 7.76 13.47 15.64 26.87 23.34 40.36 8-13.41 15.56-27.09 23.63-40.45 10.54 0.17 21.08 0 31.62 0.08-12 20.2-23.85 40.49-35.84 60.7 12.87 20.3 25.58 40.69 38.4 61.03-10.64 0.03-21.27 0.02-31.9 0-8.7-13.89-17.18-27.92-25.92-41.79-8.43 13.97-17.22 27.73-25.63 41.71-10.69 0.22-21.39 0.05-32.08 0.09 12.85-20.32 25.53-40.74 38.42-61.03-11.97-20.22-23.85-40.5-35.83-60.72z"/>
  <path d="m63.5 150.74c16.63-4.18 35.1 5.03 42.22 20.52 4.93 10.13 4.88 22.5-0.11 32.6-5.35 11.11-16.42 19.31-28.7 20.88-13.69 1.93-28.09-4.3-35.88-15.74-7.48-10.44-8.89-24.79-3.7-36.52 4.65-10.83 14.64-19.19 26.17-21.74m2 16.05c-10.03 3.01-16.25 14.28-14.26 24.41 1.21 8 7.27 15.15 15.17 17.17 7.6 2.26 16.3-0.64 21.25-6.78 6.51-7.64 6.67-19.8 0.5-27.69-5.08-6.79-14.6-9.95-22.66-7.11z"/>
  <path d="m276.16 150.46c14.14-2.9 29.53 3.53 37.68 15.38-4.24 3.32-8.31 6.83-12.55 10.15-3.07-4.73-7.85-8.37-13.39-9.62-8.65-2.33-18.41 2.05-22.72 9.83-2.93 4.85-3.57 10.8-2.47 16.29 1.7 7.57 7.69 14.2 15.34 15.97 8.77 2.43 18.53-1.95 23.25-9.59 4.23 3.35 8.32 6.88 12.57 10.2-9.9 14.56-30.48 20.18-46.39 12.63-8.39-3.86-15.28-10.89-18.92-19.38-4.67-10.71-3.95-23.64 2-33.72 5.38-9.36 14.95-16.22 25.6-18.14z"/>
  <path d="m117.75 150.65c14.49 0 28.98 0 43.47 0.01-0.02 5.47 0.01 10.95-0.02 16.43-8.96 0.02-17.92-0.01-26.88 0.01 0.02 4.11 0.02 8.23 0 12.34 6.89-0.01 13.78 0.02 20.68-0.01 0.21 5.32 0.04 10.65 0.09 15.98-6.93 0.06-13.85 0-20.78 0.04 0.06 9.59 0.01 19.19 0.03 28.78-5.53 0.01-11.06 0.01-16.58 0-0.01-24.53 0.01-49.05-0.01-73.58z"/>
  <path d="m169.15 150.67c14.5-0.04 28.99-0.01 43.48-0.02-0.02 5.45-0.01 10.91-0.01 16.36-8.97 0.19-17.94 0.03-26.91 0.08 0 4.12 0 8.23-0.01 12.35 6.91 0.01 13.82-0.02 20.73 0.02-0.03 5.32-0.03 10.65 0 15.97-6.92 0.02-13.83-0.02-20.74 0.03 0 9.6 0.08 19.2-0.03 28.81-5.49-0.07-10.99-0.02-16.49-0.04 0.02-24.52 0.06-49.04-0.02-73.56z"/>
  <path d="m220.51 224.24c-0.03-24.53 0.01-49.06-0.02-73.59 5.55 0.01 11.1-0.01 16.65 0.02v73.55c-5.55 0.03-11.09 0-16.63 0.02z"/>
  <path d="m320.18 150.67c15.15-0.1 30.31 0.12 45.46-0.12 0.26 5.48 0.05 10.97 0.11 16.46-9.66 0.19-19.32 0.03-28.98 0.09-0.01 4.11-0.01 8.22-0.01 12.33 7.59 0.03 15.18-0.02 22.77 0.03-0.05 5.32-0.04 10.64-0.01 15.97-7.59 0.03-15.18-0.02-22.77 0.03 0.02 4.12 0.01 8.25 0.02 12.37 9.66 0.01 19.32 0 28.98 0.01 0.02 5.46-0.01 10.92 0.02 16.39-15.19 0.01-30.38 0.01-45.58-0.01 0.03-24.51 0.05-49.03-0.01-73.55z"/>
 </g>
</svg>
