<svg width="26.137mm" height="6.4324mm" version="1.1" viewBox="0 0 92.613 22.792" xmlns="http://www.w3.org/2000/svg">
 <defs>
  <clipPath id="a">
   <path d="m211.64 579.37h82.8v24.803h-82.8v-24.803z"/>
  </clipPath>
 </defs>
 <g transform="translate(-299.41 -463.82)">
  <g transform="matrix(1.25 0 0 -1.25 29.421 1214.9)">
   <g clip-path="url(#a)">
    <g transform="translate(226.42 596.94)">
     <path d="m7.786 3.932v-18.213h-18.213v18.213l9.107-9.106z" fill="#fab215"/>
    </g>
    <g transform="translate(240.27 600.89)">
     <path d="m0 0 4.132-4.144 4.133 4.144v-8.381h-1.868v4.062l-2.265-2.264-2.265 2.264v-4.062h-1.867v8.381z" fill="#fab215"/>
    </g>
    <g transform="translate(255.84 596.65)">
     <path d="m0 0c0 1.331-1.016 2.44-2.358 2.44s-2.358-1.109-2.358-2.44 1.016-2.44 2.358-2.44 2.358 1.109 2.358 2.44m-6.595 0c0 2.335 1.902 4.237 4.237 4.237s4.238-1.902 4.238-4.237-1.903-4.237-4.238-4.237-4.237 1.902-4.237 4.237" fill="#fab215"/>
    </g>
    <g transform="translate(257.08 600.8)">
     <path d="M 0,0 2.078,0 3.911,-4.144 5.743,0 7.822,0 3.911,-8.381 0,0 Z" fill="#fab215"/>
    </g>
    <path d="m265.33 600.8h1.868v-8.288h-1.868v8.288z" fill="#fab215"/>
    <g transform="translate(268.36 600.8)">
     <path d="m0 0h5.136v-1.844h-3.269v-1.401h2.569v-1.798h-2.569v-1.401h3.269v-1.844h-5.136v8.288z" fill="#fab215"/>
    </g>
    <g transform="translate(273.92 594.04)">
     <path d="m0 0 1.412 1.155c0.362-0.572 0.957-1.027 1.529-1.027 0.549 0 0.794 0.21 0.794 0.596 0 0.373-0.268 0.607-0.968 0.922l-0.467 0.21c-1.249 0.56-1.939 1.483-1.939 2.603 0 1.448 1.203 2.393 2.522 2.393 0.923 0 1.623-0.222 2.323-1.039l-1.261-1.331c-0.42 0.514-0.677 0.619-1.062 0.619-0.315 0-0.642-0.198-0.642-0.572 0-0.432 0.361-0.665 1.12-1.004l0.445-0.198c1.143-0.514 1.808-1.342 1.808-2.487 0-1.494-1.096-2.462-2.638-2.462-1.33 0-2.404 0.548-2.976 1.622" fill="#fab215"/>
    </g>
    <g transform="translate(242.98 587.06)">
     <path d="m0 0c0.607 0 1.051 0.514 1.051 1.075 0 0.56-0.444 1.061-1.051 1.061h-0.841v-2.136h0.841zm-2.708 3.887h2.731c1.623 0 2.837-1.26 2.837-2.812 0-1.554-1.214-2.814-2.837-2.814h-0.864v-2.661h-1.867v8.287z" fill="#fab215"/>
    </g>
    <g transform="translate(249.46 587.6)">
     <path d="m0 0c0.502 0 0.864 0.361 0.864 0.817 0 0.455-0.362 0.829-0.864 0.829h-1.051v-1.646h1.051zm-1.051-4.938h-1.867v8.288h3.128c1.355 0 2.463-1.109 2.463-2.463 0-1.028-0.63-1.938-1.587-2.299l2.685-3.526h-2.23l-2.568 3.362h-0.024v-3.362z" fill="#fab215"/>
    </g>
    <g transform="translate(253.37 590.95)">
     <path d="m0 0h5.136v-1.844h-3.269v-1.401h2.569v-1.797h-2.569v-1.402h3.269v-1.843h-5.136v8.287z" fill="#fab215"/>
    </g>
    <g transform="translate(259.52 591.04)">
     <path d="m0 0 4.133-4.144 4.132 4.144v-8.381h-1.868v4.062l-2.264-2.264-2.265 2.264v-4.062h-1.868v8.381z" fill="#fab215"/>
    </g>
    <path d="m268.94 590.95h1.868v-8.287h-1.868v8.287z" fill="#fab215"/>
    <g transform="translate(271.96 590.95)">
     <path d="m0 0h5.136v-1.844h-3.268v-1.401h2.568v-1.797h-2.568v-1.402h3.268v-1.843h-5.136v8.287z" fill="#fab215"/>
    </g>
    <g transform="translate(281.03 587.6)">
     <path d="m0 0c0.502 0 0.864 0.361 0.864 0.817 0 0.455-0.362 0.829-0.864 0.829h-1.051v-1.646h1.051zm-1.051-4.938h-1.867v8.288h3.128c1.355 0 2.463-1.109 2.463-2.463 0-1.028-0.63-1.938-1.587-2.299l2.685-3.526h-2.23l-2.568 3.362h-0.024v-3.362z" fill="#fab215"/>
    </g>
    <g transform="translate(284.94 590.95)">
     <path d="m0 0h5.136v-1.844h-3.269v-1.401h2.569v-1.797h-2.569v-1.402h3.269v-1.843h-5.136v8.287z" fill="#fab215"/>
    </g>
   </g>
  </g>
 </g>
</svg>
