<?xml version="1.0" encoding="UTF-8" standalone="no"?>
<!-- Created with Inkscape (http://www.inkscape.org/) -->

<svg
   xmlns:dc="http://purl.org/dc/elements/1.1/"
   xmlns:cc="http://creativecommons.org/ns#"
   xmlns:rdf="http://www.w3.org/1999/02/22-rdf-syntax-ns#"
   xmlns:svg="http://www.w3.org/2000/svg"
   xmlns="http://www.w3.org/2000/svg"
   xmlns:sodipodi="http://sodipodi.sourceforge.net/DTD/sodipodi-0.dtd"
   xmlns:inkscape="http://www.inkscape.org/namespaces/inkscape"
   width="13.108517mm"
   height="8.7498064mm"
   viewBox="0 0 46.4475 31.003251"
   id="svg89695"
   version="1.1"
   inkscape:version="0.91 r13725"
   sodipodi:docname="Sky Sport 2 - Dark.svg">
  <defs
     id="defs89697">
    <clipPath
       clipPathUnits="userSpaceOnUse"
       id="clipPath70852">
      <path
         d="m 301.295,498.869 82.8,0 0,24.803 -82.8,0 0,-24.803 z"
         id="path70854"
         inkscape:connector-curvature="0" />
    </clipPath>
    <clipPath
       clipPathUnits="userSpaceOnUse"
       id="clipPath70836">
      <path
         d="m 324.115,498.869 37.158,0 0,24.803 -37.158,0 0,-24.803 z"
         id="path70838"
         inkscape:connector-curvature="0" />
    </clipPath>
    <clipPath
       clipPathUnits="userSpaceOnUse"
       id="clipPath70824">
      <path
         d="m 301.295,498.869 82.8,0 0,24.803 -82.8,0 0,-24.803 z"
         id="path70826"
         inkscape:connector-curvature="0" />
    </clipPath>
  </defs>
  <sodipodi:namedview
     id="base"
     pagecolor="#ffffff"
     bordercolor="#666666"
     borderopacity="1.0"
     inkscape:pageopacity="0.0"
     inkscape:pageshadow="2"
     inkscape:zoom="7.9195959"
     inkscape:cx="1.5780755"
     inkscape:cy="-13.433474"
     inkscape:document-units="px"
     inkscape:current-layer="layer1"
     showgrid="false"
     fit-margin-top="0"
     fit-margin-left="0"
     fit-margin-right="0"
     fit-margin-bottom="0"
     inkscape:window-width="1920"
     inkscape:window-height="1017"
     inkscape:window-x="-8"
     inkscape:window-y="-8"
     inkscape:window-maximized="1" />
  <metadata
     id="metadata89700">
    <rdf:RDF>
      <cc:Work
         rdf:about="">
        <dc:format>image/svg+xml</dc:format>
        <dc:type
           rdf:resource="http://purl.org/dc/dcmitype/StillImage" />
        <dc:title></dc:title>
      </cc:Work>
    </rdf:RDF>
  </metadata>
  <g
     inkscape:label="Layer 1"
     inkscape:groupmode="layer"
     id="layer1"
     transform="translate(-296.77625,-448.2892)">
    <g
       transform="matrix(1.25,0,0,-1.25,-108.3675,1102.8792)"
       id="g70820">
      <g
         id="g70822"
         clip-path="url(#clipPath70824)">
        <g
           id="g70828"
           transform="translate(351.2544,515.262)">
          <path
             d="m 0,0 c 0,-4.645 -3.766,-8.41 -8.41,-8.41 -4.645,0 -8.409,3.765 -8.409,8.41 0,4.644 3.764,8.41 8.409,8.41 C -3.766,8.41 0,4.644 0,0"
             style="fill:#231f20;fill-opacity:1;fill-rule:nonzero;stroke:none"
             id="path70830"
             inkscape:connector-curvature="0" />
        </g>
      </g>
    </g>
    <g
       transform="matrix(1.25,0,0,-1.25,-108.3675,1102.8792)"
       id="g70832">
      <g
         id="g70834"
         clip-path="url(#clipPath70836)">
        <g
           id="g70840"
           transform="translate(341.628,513.8239)">
          <path
             d="m 0,0 c 0.412,0.525 0.604,0.696 0.604,1.154 0,0.458 -0.053,0.548 -0.781,1.482 -1.174,1.504 -2.735,3.331 -3.553,3.641 -0.191,0.073 -0.293,0.113 -0.394,0.121 -1.209,-1.301 -1.95,-3.043 -1.95,-4.96 0,-1.908 0.734,-3.645 1.935,-4.945 0.035,-10e-4 0.074,-0.005 0.109,-0.005 0.212,0 0.293,0.066 0.514,0.166 C -2.824,-3.037 -0.603,-0.766 0,0 M 8.507,1.438 C 8.507,2.883 8.085,4.227 7.362,5.359 7.425,5.127 7.436,4.92 7.407,4.63 7.317,3.771 7.034,2.929 6.874,2.509 6.713,2.087 6.52,1.466 6.535,1.191 6.553,0.917 6.608,0.861 6.679,0.532 6.748,0.203 7.336,-0.949 7.37,-1.901 7.384,-2.243 7.364,-2.392 7.318,-2.551 8.069,-1.405 8.507,-0.036 8.507,1.438 M 5.275,-2.997 C 4.973,-2.651 4.263,-2.01 3.588,-1.975 2.913,-1.938 2.474,-2.367 1.314,-2.925 -0.053,-3.584 -1.208,-3.913 -1.704,-4.06 c -0.434,-0.127 -1.137,-0.241 -1.569,-0.244 1.237,-0.969 2.796,-1.549 4.49,-1.549 1.903,0 3.634,0.73 4.933,1.923 -0.128,0.199 -0.601,0.616 -0.875,0.933 M -3.319,7.144 C -3.084,7.148 -2.829,7.126 -2.291,7.046 -1.668,6.954 0.492,6.167 2.095,5.161 2.913,4.648 3.358,4.539 3.694,4.539 c 0.23,0 0.587,0.184 1.421,0.951 0.816,0.75 0.915,0.903 1.03,1.099 0.042,0.07 0.07,0.111 0.087,0.138 -1.307,1.241 -3.071,2.002 -5.015,2.002 -1.715,0 -3.291,-0.593 -4.536,-1.585"
             style="fill:#ed1443;fill-opacity:1;fill-rule:nonzero;stroke:none"
             id="path70842"
             inkscape:connector-curvature="0" />
        </g>
        <g
           id="g70844"
           transform="translate(341.6899,502.7114)">
          <path
             d="m 0,0 c -0.306,0.19 -1.233,0.351 -1.6,0.441 -0.254,0.062 -0.561,0.103 -0.497,0.273 0.046,0.123 0.228,0.193 0.511,0.196 0.245,0.001 1.807,-0.001 2.074,0 C 0.636,0.91 0.844,1.04 1,1.63 1.083,1.947 0.964,1.95 0.781,1.95 l -2.709,0 c -0.423,0 -0.808,-0.248 -1.114,-0.646 -0.306,-0.4 -0.466,-0.881 -0.417,-1.155 0.061,-0.326 0.326,-0.499 0.694,-0.626 0.367,-0.125 0.93,-0.243 1.203,-0.317 0.296,-0.078 0.777,-0.111 0.697,-0.289 -0.058,-0.13 -0.128,-0.201 -0.418,-0.196 -0.333,0.008 -1.829,0.004 -2.119,0 C -3.73,-1.281 -3.887,-1.56 -4.013,-2.04 -4.09,-2.331 -4.025,-2.334 -3.746,-2.334 l 2.284,0 c 0.423,0 0.821,0.098 1.085,0.255 0.177,0.107 0.608,0.367 0.764,0.96 C 0.587,-0.368 0.322,-0.201 0,0 m -8.006,1.019 -0.978,0.965 -0.009,0 -1.451,-1.396 0.377,1.396 -4.983,0.001 c -0.645,0 -1.214,-0.483 -1.214,-1.093 0,-0.291 0.119,-0.556 0.314,-0.752 l 0.961,-0.894 c 0.062,-0.064 0.096,-0.139 0.096,-0.203 0,-0.147 -0.096,-0.264 -0.344,-0.264 l -2.025,0 -0.313,-1.145 3.386,0 c 0.644,0 1.218,0.479 1.218,1.087 0,0.292 -0.119,0.557 -0.314,0.753 l -0.972,0.908 c -0.054,0.054 -0.084,0.125 -0.084,0.189 0,0.15 0.105,0.264 0.296,0.264 l 2.057,0 -0.857,-3.201 1.609,0 0.367,1.371 1.429,-1.371 0.006,0 0.981,0.965 -1.035,0.993 1.482,1.427 z m 3.088,0.965 -1.042,-1.003 -1.042,1.003 -0.014,0 -0.971,-0.967 1.031,-0.993 -1.482,-1.426 0.988,-0.964 4.524,4.35 -1.992,0 z M 11.441,0.771 C 11.597,1.364 11.302,1.625 11.18,1.731 11,1.888 10.654,1.986 10.232,1.986 l -1.734,0 C 8.076,1.986 7.676,1.888 7.413,1.731 7.235,1.625 6.805,1.364 6.649,0.771 L 6.643,0.75 6.148,-1.119 c -0.156,-0.593 0.138,-0.853 0.259,-0.96 0.182,-0.157 0.527,-0.255 0.95,-0.255 l 1.735,0 c 0.422,0 0.821,0.098 1.083,0.255 0.177,0.107 0.61,0.367 0.765,0.96 l 0.307,1.156 0.194,0.734 z M 10.089,0.714 9.613,-1.084 C 9.571,-1.262 9.531,-1.279 9.197,-1.279 c -0.07,0 -0.829,0.003 -0.997,10e-4 -0.179,-10e-4 -0.32,-10e-4 -0.391,-10e-4 -0.334,0 -0.364,0.017 -0.314,0.195 l 0.474,1.798 c 0.044,0.178 0.082,0.196 0.417,0.196 0.071,0 0.136,0 0.316,-0.001 0.167,-0.001 1.001,0.001 1.072,0.001 0.333,0 0.367,-0.018 0.315,-0.196 m 5.634,1.124 10e-4,0 c 0.006,0.084 -0.055,0.148 -0.148,0.148 l -0.173,0 -1.536,0 c -0.424,0 -0.821,-0.098 -1.085,-0.255 -0.177,-0.106 -0.61,-0.367 -0.765,-0.96 L 12.01,0.75 11.931,0.446 l 0,-0.001 -0.679,-2.57 c -0.049,-0.181 0.103,-0.188 0.289,-0.188 l 0.681,0 c 0.187,0 0.378,0.148 0.426,0.329 l 0.713,2.698 c 0.042,0.178 0.082,0.196 0.417,0.196 0.071,0 0.211,0 0.39,-0.001 l 0.95,0 0,0.002 0.162,0 c 0.124,0 0.306,0.307 0.395,0.64 0.028,0.104 0.042,0.201 0.048,0.287 M 5.903,1.709 C 5.723,1.866 5.377,1.965 4.953,1.965 l -0.151,0 C 4.759,1.969 4.725,1.971 4.709,1.971 l -1.927,0 -0.719,0 C 2.043,1.971 2.023,1.967 2.003,1.964 1.805,1.961 1.739,1.937 1.675,1.731 1.66,1.702 1.645,1.673 1.637,1.64 L 0.239,-3.654 c -0.047,-0.181 0.104,-0.188 0.29,-0.188 l 0.68,0 c 0.188,0 0.38,0.148 0.427,0.329 l 0.312,1.179 1.871,0 c 0.423,0 0.822,0.098 1.084,0.255 0.179,0.107 0.608,0.367 0.765,0.96 L 6.162,0.75 C 6.318,1.343 6.024,1.603 5.903,1.709 M 4.816,0.714 4.341,-1.084 C 4.3,-1.262 4.258,-1.279 3.925,-1.279 c -0.197,0 -1.071,0.002 -1.699,0.002 l 0.578,2.185 c 0.626,0.001 1.5,0.002 1.698,0.002 0.334,0 0.366,-0.018 0.314,-0.196 m 14.619,1.233 -1.783,0 0.414,1.574 c 0.049,0.181 -0.01,0.259 -0.197,0.259 l -0.754,0 C 16.93,3.78 16.736,3.631 16.688,3.451 L 15.453,-1.2 C 15.45,-1.211 15.45,-1.221 15.448,-1.23 l -0.002,-0.001 c -0.015,-0.081 -0.012,-0.098 -0.012,-0.171 0,-0.379 0.194,-0.559 0.287,-0.647 0.177,-0.164 0.506,-0.259 0.905,-0.259 l 1.148,0 0.478,10e-4 0.154,10e-4 c 0.088,0.003 0.307,0.366 0.384,0.676 0.023,0.1 0.04,0.198 0.043,0.286 l 0.002,0.01 c 0,0.024 -0.007,0.042 -0.02,0.058 -0.02,0.02 -0.046,0.025 -0.282,0.025 l -1.732,0 0.005,0.013 0.572,2.149 1.771,0 c 0.124,0 0.296,0.269 0.384,0.602 0.028,0.105 0.045,0.202 0.048,0.288 l 0.003,0 c 0.006,0.084 -0.055,0.146 -0.149,0.146"
             style="fill:#252122;fill-opacity:1;fill-rule:nonzero;stroke:none"
             id="path70846"
             inkscape:connector-curvature="0" />
        </g>
      </g>
    </g>
    <g
       transform="matrix(1.25,0,0,-1.25,-108.3675,1102.8792)"
       id="g70848">
      <g
         id="g70850"
         clip-path="url(#clipPath70852)">
        <g
           id="g70856"
           transform="translate(332.6925,504.7099)">
          <path
             d="M 0,0 1.001,-0.987 1.996,0.002 0,0 Z"
             style="fill:#6b6969;fill-opacity:1;fill-rule:nonzero;stroke:none"
             id="path70858"
             inkscape:connector-curvature="0" />
        </g>
        <g
           id="g70860"
           transform="translate(333.2433,501.3194)">
          <path
             d="M 0,0 -1.001,-0.986 1.008,-0.983 0,0 Z"
             style="fill:#6b6969;fill-opacity:1;fill-rule:nonzero;stroke:none"
             id="path70862"
             inkscape:connector-curvature="0" />
        </g>
        <g
           id="g70864"
           transform="translate(344.5533,514.3896)">
          <path
             d="m 0,0 c -0.155,-0.051 -0.3,-0.17 -0.322,-0.266 -0.022,-0.096 0.092,-0.175 0.256,-0.175 l 2.392,0 c 0.162,0 0.264,-0.13 0.229,-0.288 L 2.38,-1.483 C 2.343,-1.64 2.181,-1.77 2.019,-1.77 l -3.899,0 c -0.163,0 -0.266,0.13 -0.23,0.287 l 0.255,1.105 c 0.036,0.157 0.131,0.402 0.209,0.545 0,0 0.14,0.251 0.396,0.456 0.256,0.206 0.467,0.281 0.757,0.372 l 1.908,0.61 c 0.156,0.048 0.33,0.119 0.387,0.158 l 0.014,0.06 c 0.002,0.076 -0.051,0.1 -0.119,0.1 l -2.412,0 c -0.162,0 -0.265,0.129 -0.229,0.287 l 0.175,0.754 c 0.035,0.158 0.199,0.288 0.361,0.288 l 2.848,0 c 0.163,0 0.393,-0.091 0.511,-0.2 0,0 0.515,-0.476 0.354,-1.145 C 3.171,1.36 2.822,0.912 2.282,0.737 L 0,0 Z"
             style="fill:#dddddd;fill-opacity:1;fill-rule:nonzero;stroke:none"
             id="path70866"
             inkscape:connector-curvature="0" />
        </g>
      </g>
    </g>
  </g>
</svg>
