<?xml version="1.0" encoding="UTF-8"?>
<!-- Created with Inkscape (http://www.inkscape.org/) -->
<svg id="svg90943" width="13.109mm" height="8.7499mm" version="1.1" viewBox="0 0 46.449 31.004" xmlns="http://www.w3.org/2000/svg" xmlns:cc="http://creativecommons.org/ns#" xmlns:dc="http://purl.org/dc/elements/1.1/" xmlns:rdf="http://www.w3.org/1999/02/22-rdf-syntax-ns#">
 <defs id="defs90945">
  <clipPath id="clipPath71764">
   <path id="path71766" d="m480.61 498.87h82.8v24.803h-82.8v-24.803z"/>
  </clipPath>
  <clipPath id="clipPath71736">
   <path id="path71738" d="m503.44 498.87h37.159v24.803h-37.159v-24.803z"/>
  </clipPath>
 </defs>
 <metadata id="metadata90948">
  <rdf:RDF>
   <cc:Work rdf:about="">
    <dc:format>image/svg+xml</dc:format>
    <dc:type rdf:resource="http://purl.org/dc/dcmitype/StillImage"/>
    <dc:title/>
   </cc:Work>
  </rdf:RDF>
 </metadata>
 <g id="layer1" transform="translate(-396.78 -388.29)">
  <g id="g71732" transform="matrix(1.25 0 0 -1.25 -232.52 1042.9)">
   <g id="g71734" clip-path="url(#clipPath71736)">
    <g id="g71740" transform="translate(530.58 515.26)">
     <path id="path71742" d="m0 0c0-4.644-3.766-8.41-8.41-8.41-4.645 0-8.41 3.766-8.41 8.41 0 4.646 3.765 8.411 8.41 8.411 4.644 0 8.41-3.765 8.41-8.411" fill="#231f20"/>
    </g>
    <g id="g71744" transform="translate(520.95 513.82)">
     <path id="path71746" d="m0 0c0.411 0.525 0.604 0.696 0.604 1.154 0 0.457-0.053 0.549-0.781 1.482-1.174 1.504-2.735 3.331-3.553 3.642-0.191 0.072-0.293 0.111-0.394 0.12-1.209-1.301-1.95-3.044-1.95-4.96 0-1.908 0.734-3.645 1.935-4.945 0.036-2e-3 0.074-4e-3 0.108-4e-3 0.213 0 0.294 0.065 0.515 0.164 0.692 0.311 2.912 2.581 3.516 3.347m8.508 1.438c0 1.445-0.422 2.789-1.146 3.921 0.064-0.232 0.074-0.439 0.044-0.729-0.089-0.86-0.373-1.701-0.532-2.121-0.16-0.422-0.355-1.044-0.338-1.318 0.017-0.275 0.071-0.329 0.143-0.659 0.071-0.329 0.656-1.482 0.692-2.432 0.012-0.343-7e-3 -0.492-0.053-0.651 0.751 1.145 1.19 2.515 1.19 3.989m-3.232-4.436c-0.302 0.348-1.013 0.988-1.688 1.024-0.676 0.037-1.114-0.393-2.273-0.952-1.368-0.657-2.523-0.987-3.019-1.134-0.434-0.127-1.137-0.242-1.57-0.244 1.238-0.97 2.796-1.549 4.491-1.549 1.903 0 3.634 0.729 4.933 1.922-0.129 0.199-0.601 0.617-0.874 0.933m-8.595 10.143c0.234 3e-3 0.49-0.019 1.029-0.099 0.622-0.092 2.782-0.88 4.386-1.884 0.816-0.513 1.261-0.623 1.599-0.623 0.229 0 0.585 0.185 1.42 0.952 0.817 0.749 0.916 0.901 1.031 1.099 0.041 0.07 0.069 0.111 0.086 0.136-1.307 1.241-3.071 2.004-5.015 2.004-1.715 0-3.291-0.594-4.536-1.585" fill="#ed1443"/>
    </g>
    <g id="g71748" transform="translate(521.01 502.71)">
     <path id="path71750" d="m0 0c-0.306 0.189-1.232 0.35-1.601 0.441-0.253 0.061-0.56 0.101-0.496 0.273 0.046 0.122 0.228 0.192 0.51 0.195 0.247 1e-3 1.807-1e-3 2.075 0 0.148 0 0.356 0.131 0.511 0.72 0.083 0.318-0.035 0.32-0.218 0.32h-2.709c-0.423 0-0.808-0.247-1.114-0.646-0.306-0.4-0.467-0.88-0.417-1.154 0.061-0.326 0.326-0.5 0.694-0.625 0.367-0.128 0.93-0.245 1.203-0.319 0.296-0.077 0.777-0.11 0.697-0.289-0.058-0.129-0.128-0.201-0.417-0.195-0.334 7e-3 -1.83 3e-3 -2.121 0-0.326-3e-3 -0.484-0.282-0.609-0.762-0.078-0.291-0.014-0.293 0.266-0.293h2.284c0.424 0 0.822 0.098 1.085 0.254 0.177 0.107 0.609 0.367 0.765 0.96 0.198 0.752-0.066 0.919-0.388 1.12m-8.006 1.018-0.979 0.966h-8e-3l-1.452-1.397 0.378 1.397h-4.984c-0.643 0-1.214-0.483-1.214-1.091 0-0.291 0.12-0.556 0.315-0.753l0.96-0.894c0.063-0.065 0.096-0.14 0.096-0.203 0-0.149-0.095-0.265-0.344-0.265h-2.024l-0.313-1.145h3.386c0.644 0 1.217 0.479 1.218 1.088 0 0.291-0.12 0.557-0.315 0.752l-0.972 0.908c-0.054 0.055-0.084 0.125-0.084 0.189 0 0.15 0.106 0.263 0.297 0.263h2.056l-0.857-3.2h1.61l0.366 1.372 1.429-1.372h7e-3l0.98 0.966-1.034 0.993 1.482 1.426zm3.088 0.966-1.042-1.004-1.042 1.004h-0.014l-0.971-0.968 1.032-0.992-1.483-1.426 0.987-0.965 4.525 4.351h-1.992zm16.358-1.213c0.157 0.593-0.137 0.854-0.26 0.96-0.18 0.157-0.526 0.255-0.949 0.255h-1.733c-0.422 0-0.821-0.098-1.083-0.255-0.178-0.106-0.61-0.367-0.767-0.96l-5e-3 -0.021-0.495-1.87c-0.156-0.593 0.138-0.853 0.259-0.96 0.182-0.156 0.527-0.254 0.95-0.254h1.735c0.422 0 0.821 0.098 1.083 0.254 0.177 0.107 0.61 0.367 0.766 0.96l0.305 1.157 0.194 0.734zm-1.351-0.057-0.475-1.799c-0.042-0.177-0.083-0.194-0.416-0.194-0.072 0-0.831 2e-3 -0.999 1e-3 -0.178-1e-3 -0.319-1e-3 -0.39-1e-3 -0.334 0-0.365 0.017-0.315 0.194l0.475 1.799c0.044 0.179 0.084 0.195 0.418 0.195 0.071 0 0.135 0 0.316-1e-3 0.167-2e-3 1 1e-3 1.072 1e-3 0.332 0 0.366-0.016 0.314-0.195m5.634 1.123c7e-3 0.084-0.053 0.149-0.148 0.149h-0.173-1.535c-0.424 0-0.821-0.098-1.085-0.255-0.176-0.106-0.61-0.367-0.765-0.96l-6e-3 -0.021-0.079-0.303v-1e-3l-0.68-2.571c-0.049-0.182 0.104-0.189 0.289-0.189h0.682c0.185 0 0.378 0.148 0.426 0.33l0.712 2.698c0.043 0.179 0.084 0.195 0.418 0.195 0.069 0 0.209 0 0.389-1e-3h0.95v2e-3h0.161c0.126 0 0.307 0.307 0.396 0.64 0.028 0.104 0.043 0.201 0.048 0.287m-9.82-0.129c-0.179 0.157-0.526 0.257-0.949 0.257h-0.152c-0.043 3e-3 -0.075 6e-3 -0.094 6e-3h-1.926v-1e-3h-0.718c-0.02 0-0.04-3e-3 -0.061-7e-3 -0.197-2e-3 -0.264-0.027-0.327-0.232-0.016-0.029-0.031-0.059-0.039-0.091l-1.397-5.294c-0.048-0.182 0.103-0.189 0.289-0.189h0.681c0.187 0 0.379 0.148 0.427 0.329l0.31 1.18h1.872c0.423 0 0.821 0.098 1.084 0.254 0.178 0.107 0.609 0.367 0.766 0.96l0.494 1.87c0.155 0.592-0.138 0.853-0.26 0.958m-1.086-0.994-0.475-1.799c-0.043-0.177-0.084-0.194-0.418-0.194-0.197 0-1.069 1e-3 -1.698 1e-3l0.578 2.184c0.626 2e-3 1.501 3e-3 1.699 3e-3 0.334 0 0.365-0.016 0.314-0.195m14.618 1.233h-1.784l0.416 1.574c0.048 0.181-0.01 0.259-0.197 0.259h-0.755c-0.186 0-0.377-0.148-0.426-0.33l-1.236-4.65c-3e-3 -0.012-3e-3 -0.022-4e-3 -0.031h-3e-3c-0.014-0.082-0.011-0.098-0.011-0.171 0-0.379 0.194-0.56 0.286-0.647 0.176-0.166 0.507-0.259 0.906-0.259h1.147 0.479l0.154 3e-3c0.086 2e-3 0.305 0.364 0.382 0.675 0.025 0.099 0.043 0.198 0.046 0.285v0.01c0 0.024-7e-3 0.043-0.02 0.058-0.018 0.022-0.046 0.026-0.281 0.026h-1.733l5e-3 0.013 0.573 2.148h1.77c0.125 0 0.297 0.27 0.385 0.603 0.028 0.104 0.043 0.201 0.048 0.287h2e-3c6e-3 0.084-0.055 0.147-0.149 0.147" fill="#252122"/>
    </g>
   </g>
  </g>
  <g id="g71752" transform="matrix(1.25 0 0 -1.25 407.5 411.99)">
   <path id="path71754" d="M 0,0 1.001,-0.988 1.995,0.003 0,0 Z" fill="#6b6969"/>
  </g>
  <g id="g71756" transform="matrix(1.25 0 0 -1.25 406.93 417.46)">
   <path id="path71758" d="M 0,0 2.009,0.002 1.001,0.986 0,0 Z" fill="#6b6969"/>
  </g>
  <g id="g71760" transform="matrix(1.25 0 0 -1.25 -232.52 1042.9)">
   <g id="g71762" clip-path="url(#clipPath71764)">
    <g id="g71768" transform="translate(524.31 512.61)">
     <path id="path71770" d="m0 0c-0.085 0-0.139 0.067-0.119 0.15l0.198 0.856c0.019 0.082-0.035 0.15-0.12 0.15h-2.373c-0.084 0-0.138 0.067-0.117 0.15l0.288 1.249c0.019 0.082 0.089 0.191 0.156 0.243l3.011 2.305c0.066 0.052 0.19 0.093 0.276 0.093h1.216c0.087 0 0.139-0.067 0.12-0.15l-0.586-2.538c-0.019-0.082 0.035-0.148 0.12-0.148l0.552 5e-3c0.085 1e-3 0.138-0.066 0.119-0.149l-0.21-0.91c-0.018-0.083-0.104-0.15-0.189-0.15h-0.518c-0.085 0-0.171-0.068-0.19-0.15l-0.198-0.856c-0.017-0.083-0.103-0.15-0.188-0.15h-1.248zm0.238 2.359c0.084 0 0.168 0.067 0.187 0.149l0.247 1.069c0.019 0.083-0.018 0.104-0.081 0.048l-1.324-1.165c-0.062-0.056-0.046-0.101 0.038-0.101h0.933z" fill="#ddd"/>
    </g>
   </g>
  </g>
 </g>
</svg>
