<?xml version="1.0" encoding="UTF-8" standalone="no"?>
<!-- Created with Inkscape (http://www.inkscape.org/) -->

<svg
   xmlns:dc="http://purl.org/dc/elements/1.1/"
   xmlns:cc="http://creativecommons.org/ns#"
   xmlns:rdf="http://www.w3.org/1999/02/22-rdf-syntax-ns#"
   xmlns:svg="http://www.w3.org/2000/svg"
   xmlns="http://www.w3.org/2000/svg"
   xmlns:sodipodi="http://sodipodi.sourceforge.net/DTD/sodipodi-0.dtd"
   xmlns:inkscape="http://www.inkscape.org/namespaces/inkscape"
   width="45.979404mm"
   height="16.649187mm"
   viewBox="0 0 162.91915 58.993182"
   id="svg83725"
   version="1.1"
   inkscape:version="0.91 r13725"
   sodipodi:docname="Sky Movies Marvel - Dark.svg">
  <defs
     id="defs83727">
    <clipPath
       clipPathUnits="userSpaceOnUse"
       id="clipPath72154">
      <path
         d="m 480.614,257.811 82.8,0 0,24.803 -82.8,0 0,-24.803 z"
         id="path72156"
         inkscape:connector-curvature="0" />
    </clipPath>
    <clipPath
       clipPathUnits="userSpaceOnUse"
       id="clipPath72138">
      <path
         d="m 490.432,261.47 63.166,0 0,17.485 -63.166,0 0,-17.485 z"
         id="path72140"
         inkscape:connector-curvature="0" />
    </clipPath>
    <clipPath
       clipPathUnits="userSpaceOnUse"
       id="clipPath72114">
      <path
         d="m 480.614,257.811 82.8,0 0,24.803 -82.8,0 0,-24.803 z"
         id="path72116"
         inkscape:connector-curvature="0" />
    </clipPath>
    <clipPath
       clipPathUnits="userSpaceOnUse"
       id="clipPath72102">
      <path
         d="m 490.432,261.47 63.166,0 0,17.485 -63.166,0 0,-17.485 z"
         id="path72104"
         inkscape:connector-curvature="0" />
    </clipPath>
  </defs>
  <sodipodi:namedview
     id="base"
     pagecolor="#ffffff"
     bordercolor="#666666"
     borderopacity="1.0"
     inkscape:pageopacity="0.0"
     inkscape:pageshadow="2"
     inkscape:zoom="2.8"
     inkscape:cx="71.599681"
     inkscape:cy="-18.947912"
     inkscape:document-units="px"
     inkscape:current-layer="layer1"
     showgrid="false"
     fit-margin-top="0"
     fit-margin-left="0"
     fit-margin-right="0"
     fit-margin-bottom="0"
     inkscape:window-width="1920"
     inkscape:window-height="1017"
     inkscape:window-x="-8"
     inkscape:window-y="-8"
     inkscape:window-maximized="1" />
  <metadata
     id="metadata83730">
    <rdf:RDF>
      <cc:Work
         rdf:about="">
        <dc:format>image/svg+xml</dc:format>
        <dc:type
           rdf:resource="http://purl.org/dc/dcmitype/StillImage" />
        <dc:title></dc:title>
      </cc:Work>
    </rdf:RDF>
  </metadata>
  <g
     inkscape:label="Layer 1"
     inkscape:groupmode="layer"
     id="layer1"
     transform="translate(-240.52137,-355.31411)">
    <path
       d="m 293.34937,414.30729 1.471,0 0,-58.99318 -1.471,0 0,58.99318 z"
       style="fill:#231f20;fill-opacity:1;fill-rule:nonzero;stroke:none"
       id="path72158"
       inkscape:connector-curvature="0" />
    <path
       inkscape:connector-curvature="0"
       style="fill:#231f20;fill-opacity:1;fill-rule:nonzero;stroke:none"
       id="path2507"
       d="m 403.44052,409.14751 -101.62015,0 0,-46 101.62015,0 0,46 z" />
    <path
       inkscape:connector-curvature="0"
       style="fill:#ffffff;fill-rule:nonzero;stroke:none"
       id="path2509"
       d="m 389.57398,369.6781 5.68706,0 0,26.95829 4.82164,0 0,6.8014 -10.5087,0 0,-33.75969 z" />
    <path
       inkscape:connector-curvature="0"
       style="fill:#ffffff;fill-rule:nonzero;stroke:none"
       id="path2515"
       d="m 350.3827,385.75414 c 4.07985,-0.24732 3.70895,-5.31746 3.70895,-5.31746 -0.61816,-4.94648 -3.70895,-4.69915 -3.70895,-4.69915 l 0,10.01661 z m -13.10498,7.7907 -1.73084,-10.26394 -1.48358,10.26394 3.21442,0 z m -31.27884,9.76929 0,-33.63603 7.66517,0 2.7199,14.09745 3.09079,-14.09745 7.41791,0 0,30.29716 4.82164,-30.29716 7.54154,0 4.69801,30.29716 0,-30.1735 10.01418,0 c 0,0 3.46169,0.61831 5.19253,5.44112 l -0.74179,-5.56478 6.05796,0 2.84353,17.43632 2.96717,-17.31266 17.06119,0 0,6.30675 -5.06891,0 0,6.92507 4.82164,0 0,7.04873 -4.69801,0 0,6.43041 4.94528,0 0,6.80141 -11.00323,0 0,-32.39942 -5.68707,32.39942 -6.79975,0 -3.58532,-21.51717 c 0,0 -0.61816,5.93577 -3.95622,8.65633 l 4.32712,12.86084 -5.93433,0 -4.20348,-11.25323 0,11.25323 -11.99229,0 -0.61816,-3.21521 -4.57437,0 -0.98906,3.21521 -11.37412,0 0,-12.36619 -2.96717,12.36619 -3.09079,0 -2.7199,-12.24253 0,12.11887 -6.18159,0.12366 z" />
    <path
       inkscape:connector-curvature="0"
       id="path72752"
       style="fill:#231f20;fill-opacity:1;fill-rule:nonzero;stroke:none"
       d="m 266.75894,372.16419 -1.3822,-1.38462 2.22943,-2.23185 1.38462,1.38462 -2.23185,2.23185 z m 4.99867,-4.99867 -1.3822,1.3822 -1.38462,-1.3822 -2.76682,0 -2.23185,2.22943 0.55676,-2.22943 -6.89647,0 c -0.88839,0 -1.67752,0.70926 -1.67752,1.60248 0,0.42604 0.16712,0.81576 0.43329,1.10382 l 1.33137,1.31442 c 0.0895,0.092 0.13071,0.20092 0.13071,0.2929 0,0.22028 -0.13071,0.38731 -0.47445,0.38731 l -2.79828,0 -0.42362,1.67994 4.67672,0 c 0.88839,0 1.68479,-0.70199 1.68479,-1.59522 0,-0.42603 -0.16713,-0.81576 -0.43814,-1.10382 l -1.34589,-1.33136 c -0.0726,-0.0775 -0.1162,-0.18397 -0.1162,-0.27596 0,-0.22028 0.14776,-0.39699 0.41152,-0.39699 l 2.84912,0 -1.1716,4.70335 2.23185,0 0.48413,-1.93411 1.93653,1.93411 2.76682,0 6.38087,-6.38087 -2.76682,0 z m 14.59418,-4.89458 0,45.828 -45.83042,0 0,-45.828 22.91642,22.914 22.914,-22.914 z" />
  </g>
</svg>
