<?xml version="1.0" encoding="UTF-8" standalone="no"?>
<!-- Created with Inkscape (http://www.inkscape.org/) -->

<svg
   xmlns:dc="http://purl.org/dc/elements/1.1/"
   xmlns:cc="http://creativecommons.org/ns#"
   xmlns:rdf="http://www.w3.org/1999/02/22-rdf-syntax-ns#"
   xmlns:svg="http://www.w3.org/2000/svg"
   xmlns="http://www.w3.org/2000/svg"
   xmlns:sodipodi="http://sodipodi.sourceforge.net/DTD/sodipodi-0.dtd"
   xmlns:inkscape="http://www.inkscape.org/namespaces/inkscape"
   width="23.337626mm"
   height="6.7302237mm"
   viewBox="0 0 82.692374 23.847249"
   id="svg315612"
   version="1.1"
   inkscape:version="0.91 r13725"
   sodipodi:docname="Sky Movies Greats.svg">
  <defs
     id="defs315614">
    <clipPath
       clipPathUnits="userSpaceOnUse"
       id="clipPath72556">
      <path
         d="m 480.614,579.373 82.8,0 0,24.803 -82.8,0 0,-24.803 z"
         id="path72558"
         inkscape:connector-curvature="0" />
    </clipPath>
  </defs>
  <sodipodi:namedview
     id="base"
     pagecolor="#ffffff"
     bordercolor="#666666"
     borderopacity="1.0"
     inkscape:pageopacity="0.0"
     inkscape:pageshadow="2"
     inkscape:zoom="0.98994949"
     inkscape:cx="-540.33902"
     inkscape:cy="-61.52099"
     inkscape:document-units="px"
     inkscape:current-layer="layer1"
     showgrid="false"
     fit-margin-top="0"
     fit-margin-left="0"
     fit-margin-right="0"
     fit-margin-bottom="0"
     inkscape:window-width="1920"
     inkscape:window-height="1017"
     inkscape:window-x="-8"
     inkscape:window-y="-8"
     inkscape:window-maximized="1" />
  <metadata
     id="metadata315617">
    <rdf:RDF>
      <cc:Work
         rdf:about="">
        <dc:format>image/svg+xml</dc:format>
        <dc:type
           rdf:resource="http://purl.org/dc/dcmitype/StillImage" />
        <dc:title />
      </cc:Work>
    </rdf:RDF>
  </metadata>
  <g
     inkscape:label="Layer 1"
     inkscape:groupmode="layer"
     id="layer1"
     transform="translate(-324.3681,-506.1529)">
    <g
       transform="matrix(1.25,0,0,-1.25,-286.80315,1257.7949)"
       id="g72552">
      <g
         id="g72554"
         clip-path="url(#clipPath72556)">
        <g
           id="g72560"
           transform="translate(499.791,597.1996)">
          <path
             d="M 0,0 -0.572,0.573 0.351,1.496 0.923,0.923 0,0 Z M 2.068,2.068 1.496,1.496 0.923,2.068 l -1.145,0 -0.923,-0.923 0.231,0.923 -2.853,0 c -0.367,0 -0.694,-0.294 -0.694,-0.663 0,-0.176 0.069,-0.337 0.179,-0.457 l 0.551,-0.543 c 0.037,-0.038 0.054,-0.084 0.054,-0.122 0,-0.091 -0.054,-0.16 -0.196,-0.16 l -1.158,0 -0.175,-0.695 1.934,0 c 0.368,0 0.697,0.291 0.698,0.66 -0.001,0.176 -0.07,0.338 -0.181,0.456 L -3.312,1.096 C -3.343,1.127 -3.36,1.171 -3.36,1.21 c 0,0.091 0.061,0.163 0.17,0.163 l 1.178,0 -0.485,-1.945 0.924,0 0.2,0.801 0.801,-0.801 1.145,0 2.64,2.64 -1.145,0 z m 6.037,2.025 0,-18.959 -18.959,0 0,18.959 9.48,-9.479 9.479,9.479 z"
             style="fill:#e9128c;fill-opacity:1;fill-rule:nonzero;stroke:none"
             id="path72562"
             inkscape:connector-curvature="0" />
        </g>
        <g
           id="g72564"
           transform="translate(514.2164,601.3134)">
          <path
             d="M 0,0 4.301,-4.314 8.603,0 l 0,-8.725 -1.944,0 0,4.229 -2.358,-2.357 -2.357,2.357 0,-4.229 L 0,-8.725 0,0 Z"
             style="fill:#e9128c;fill-opacity:1;fill-rule:nonzero;stroke:none"
             id="path72566"
             inkscape:connector-curvature="0" />
        </g>
        <g
           id="g72568"
           transform="translate(530.4263,596.9025)">
          <path
             d="M 0,0 C 0,1.385 -1.057,2.539 -2.455,2.539 -3.853,2.539 -4.91,1.385 -4.91,0 c 0,-1.386 1.057,-2.54 2.455,-2.54 C -1.057,-2.54 0,-1.386 0,0 m -6.866,0 c 0,2.43 1.98,4.411 4.411,4.411 2.431,0 4.411,-1.981 4.411,-4.411 0,-2.431 -1.98,-4.411 -4.411,-4.411 -2.431,0 -4.411,1.98 -4.411,4.411"
             style="fill:#e9128c;fill-opacity:1;fill-rule:nonzero;stroke:none"
             id="path72570"
             inkscape:connector-curvature="0" />
        </g>
        <g
           id="g72572"
           transform="translate(531.7134,601.2163)">
          <path
             d="M 0,0 2.162,0 4.07,-4.314 5.978,0 8.141,0 4.07,-8.725 0,0 Z"
             style="fill:#e9128c;fill-opacity:1;fill-rule:nonzero;stroke:none"
             id="path72574"
             inkscape:connector-curvature="0" />
        </g>
        <path
           d="m 540.303,601.216 1.944,0 0,-8.628 -1.944,0 0,8.628 z"
           style="fill:#e9128c;fill-opacity:1;fill-rule:nonzero;stroke:none"
           id="path72576"
           inkscape:connector-curvature="0" />
        <g
           id="g72578"
           transform="translate(543.45,601.2163)">
          <path
             d="m 0,0 5.346,0 0,-1.92 -3.402,0 0,-1.459 2.673,0 0,-1.871 -2.673,0 0,-1.458 3.402,0 0,-1.92 L 0,-8.628 0,0 Z"
             style="fill:#e9128c;fill-opacity:1;fill-rule:nonzero;stroke:none"
             id="path72580"
             inkscape:connector-curvature="0" />
        </g>
        <g
           id="g72582"
           transform="translate(549.2459,594.1806)">
          <path
             d="M 0,0 1.47,1.203 C 1.847,0.607 2.467,0.134 3.062,0.134 c 0.571,0 0.826,0.218 0.826,0.619 0,0.389 -0.279,0.632 -1.008,0.96 L 2.394,1.932 c -1.3,0.583 -2.017,1.543 -2.017,2.71 0,1.507 1.251,2.491 2.624,2.491 0.96,0 1.689,-0.231 2.418,-1.082 L 4.107,4.666 C 3.67,5.201 3.402,5.31 3.001,5.31 2.674,5.31 2.333,5.104 2.333,4.715 2.333,4.265 2.71,4.022 3.5,3.669 L 3.961,3.463 C 5.152,2.928 5.845,2.066 5.845,0.875 5.845,-0.681 4.702,-1.689 3.098,-1.689 1.713,-1.689 0.596,-1.118 0,0"
             style="fill:#e9128c;fill-opacity:1;fill-rule:nonzero;stroke:none"
             id="path72584"
             inkscape:connector-curvature="0" />
        </g>
        <g
           id="g72586"
           transform="translate(513.8156,586.6472)">
          <path
             d="m 0,0 c 0,2.431 1.981,4.411 4.411,4.411 1.482,0 2.649,-0.596 3.487,-1.629 L 6.428,1.58 C 5.906,2.235 5.334,2.539 4.411,2.539 3.013,2.539 1.956,1.386 1.956,0 c 0,-1.386 1.057,-2.54 2.455,-2.54 0.705,0 1.239,0.122 1.665,0.425 l 0,1.204 -2.078,0 0.826,1.823 3.135,0 0,-3.913 C 7.108,-3.974 5.869,-4.411 4.411,-4.411 1.981,-4.411 0,-2.431 0,0"
             style="fill:#e9128c;fill-opacity:1;fill-rule:nonzero;stroke:none"
             id="path72588"
             inkscape:connector-curvature="0" />
        </g>
        <g
           id="g72590"
           transform="translate(525.7479,587.4737)">
          <path
             d="M 0,0 C 0.522,0 0.899,0.376 0.899,0.851 0.899,1.325 0.522,1.713 0,1.713 l -1.094,0 L -1.094,0 0,0 Z m -1.094,-5.14 -1.944,0 0,8.627 3.256,0 c 1.41,0 2.565,-1.154 2.565,-2.564 0,-1.069 -0.657,-2.017 -1.654,-2.393 l 2.795,-3.67 -2.321,0 -2.672,3.499 -0.025,0 0,-3.499 z"
             style="fill:#e9128c;fill-opacity:1;fill-rule:nonzero;stroke:none"
             id="path72592"
             inkscape:connector-curvature="0" />
        </g>
        <g
           id="g72594"
           transform="translate(529.8174,590.9606)">
          <path
             d="m 0,0 5.347,0 0,-1.919 -3.402,0 0,-1.459 2.672,0 0,-1.871 -2.672,0 0,-1.458 3.402,0 0,-1.92 L 0,-8.627 0,0 Z"
             style="fill:#e9128c;fill-opacity:1;fill-rule:nonzero;stroke:none"
             id="path72596"
             inkscape:connector-curvature="0" />
        </g>
        <g
           id="g72598"
           transform="translate(540.3521,585.2495)">
          <path
             d="M 0,0 -0.814,1.799 -1.628,0 0,0 Z m -0.814,5.809 4.253,-8.725 -2.042,0 -0.619,1.337 -3.184,0 -0.62,-1.337 -2.041,0 4.253,8.725 z"
             style="fill:#e9128c;fill-opacity:1;fill-rule:nonzero;stroke:none"
             id="path72600"
             inkscape:connector-curvature="0" />
        </g>
        <g
           id="g72602"
           transform="translate(544.5558,589.0413)">
          <path
             d="m 0,0 -2.065,0 0,1.919 6.087,0 0,-1.919 -2.077,0 0,-6.707 L 0,-6.707 0,0 Z"
             style="fill:#e9128c;fill-opacity:1;fill-rule:nonzero;stroke:none"
             id="path72604"
             inkscape:connector-curvature="0" />
        </g>
        <g
           id="g72606"
           transform="translate(548.65,583.9258)">
          <path
             d="m 0,0 1.471,1.203 c 0.376,-0.596 0.996,-1.07 1.592,-1.07 0.57,0 0.826,0.219 0.826,0.62 0,0.389 -0.28,0.632 -1.009,0.96 L 2.394,1.931 c -1.3,0.584 -2.017,1.544 -2.017,2.711 0,1.506 1.252,2.49 2.625,2.49 0.96,0 1.689,-0.231 2.417,-1.081 L 4.107,4.666 C 3.67,5.201 3.402,5.309 3.002,5.309 2.674,5.309 2.333,5.103 2.333,4.714 2.333,4.265 2.71,4.022 3.5,3.669 L 3.962,3.462 C 5.152,2.928 5.845,2.065 5.845,0.874 5.845,-0.681 4.703,-1.69 3.098,-1.69 1.714,-1.69 0.596,-1.118 0,0"
             style="fill:#e9128c;fill-opacity:1;fill-rule:nonzero;stroke:none"
             id="path72608"
             inkscape:connector-curvature="0" />
        </g>
      </g>
    </g>
  </g>
</svg>
