<?xml version="1.0" encoding="UTF-8"?>
<!-- Created with Inkscape (http://www.inkscape.org/) -->
<svg id="svg313656" width="26.137mm" height="6.4324mm" version="1.1" viewBox="0 0 92.613 22.792" xmlns="http://www.w3.org/2000/svg" xmlns:cc="http://creativecommons.org/ns#" xmlns:dc="http://purl.org/dc/elements/1.1/" xmlns:rdf="http://www.w3.org/1999/02/22-rdf-syntax-ns#">
 <defs id="defs313658">
  <clipPath id="clipPath72370">
   <path id="path72372" d="m211.64 579.37h82.8v24.803h-82.8v-24.803z"/>
  </clipPath>
 </defs>
 <metadata id="metadata313661">
  <rdf:RDF>
   <cc:Work rdf:about="">
    <dc:format>image/svg+xml</dc:format>
    <dc:type rdf:resource="http://purl.org/dc/dcmitype/StillImage"/>
    <dc:title/>
   </cc:Work>
  </rdf:RDF>
 </metadata>
 <g id="layer1" transform="translate(-299.41 -463.82)">
  <g id="g72366" transform="matrix(1.25 0 0 -1.25 29.421 1214.9)">
   <g id="g72368" clip-path="url(#clipPath72370)">
    <g id="g72374" transform="translate(226.42 596.94)">
     <path id="path72376" d="m0 0-0.55 0.55 0.887 0.887 0.55-0.55-0.887-0.887zm1.987 1.987-0.55-0.55-0.55 0.55h-1.1l-0.887-0.887 0.222 0.887h-2.741c-0.353-1e-3 -0.667-0.283-0.667-0.638 0-0.169 0.067-0.323 0.173-0.438l0.528-0.522c0.036-0.037 0.053-0.081 0.053-0.117 0-0.087-0.052-0.154-0.189-0.154h-1.112l-0.168-0.668h1.858c0.353 0 0.67 0.279 0.67 0.635 0 0.168-0.067 0.324-0.174 0.438l-0.535 0.53c-0.03 0.03-0.046 0.072-0.046 0.109 0 0.087 0.058 0.157 0.163 0.157h1.132l-0.466-1.869h0.888l0.192 0.769 0.769-0.769h1.1l2.536 2.537h-1.099zm5.799 1.945v-18.213h-18.213v18.213l9.107-9.106 9.106 9.106z" fill="#fab215"/>
    </g>
    <g id="g72378" transform="translate(240.27 600.89)">
     <path id="path72380" d="m0 0 4.132-4.144 4.133 4.144v-8.381h-1.868v4.062l-2.265-2.264-2.265 2.264v-4.062h-1.867v8.381z" fill="#fab215"/>
    </g>
    <g id="g72382" transform="translate(255.84 596.65)">
     <path id="path72384" d="m0 0c0 1.331-1.016 2.44-2.358 2.44s-2.358-1.109-2.358-2.44 1.016-2.44 2.358-2.44 2.358 1.109 2.358 2.44m-6.595 0c0 2.335 1.902 4.237 4.237 4.237s4.238-1.902 4.238-4.237-1.903-4.237-4.238-4.237-4.237 1.902-4.237 4.237" fill="#fab215"/>
    </g>
    <g id="g72386" transform="translate(257.08 600.8)">
     <path id="path72388" d="M 0,0 2.078,0 3.911,-4.144 5.743,0 7.822,0 3.911,-8.381 0,0 Z" fill="#fab215"/>
    </g>
    <path id="path72390" d="m265.33 600.8h1.868v-8.288h-1.868v8.288z" fill="#fab215"/>
    <g id="g72392" transform="translate(268.36 600.8)">
     <path id="path72394" d="m0 0h5.136v-1.844h-3.269v-1.401h2.569v-1.798h-2.569v-1.401h3.269v-1.844h-5.136v8.288z" fill="#fab215"/>
    </g>
    <g id="g72396" transform="translate(273.92 594.04)">
     <path id="path72398" d="m0 0 1.412 1.155c0.362-0.572 0.957-1.027 1.529-1.027 0.549 0 0.794 0.21 0.794 0.596 0 0.373-0.268 0.607-0.968 0.922l-0.467 0.21c-1.249 0.56-1.939 1.483-1.939 2.603 0 1.448 1.203 2.393 2.522 2.393 0.923 0 1.623-0.222 2.323-1.039l-1.261-1.331c-0.42 0.514-0.677 0.619-1.062 0.619-0.315 0-0.642-0.198-0.642-0.572 0-0.432 0.361-0.665 1.12-1.004l0.445-0.198c1.143-0.514 1.808-1.342 1.808-2.487 0-1.494-1.096-2.462-2.638-2.462-1.33 0-2.404 0.548-2.976 1.622" fill="#fab215"/>
    </g>
    <g id="g72400" transform="translate(242.98 587.06)">
     <path id="path72402" d="m0 0c0.607 0 1.051 0.514 1.051 1.075 0 0.56-0.444 1.061-1.051 1.061h-0.841v-2.136h0.841zm-2.708 3.887h2.731c1.623 0 2.837-1.26 2.837-2.812 0-1.554-1.214-2.814-2.837-2.814h-0.864v-2.661h-1.867v8.287z" fill="#fab215"/>
    </g>
    <g id="g72404" transform="translate(249.46 587.6)">
     <path id="path72406" d="m0 0c0.502 0 0.864 0.361 0.864 0.817 0 0.455-0.362 0.829-0.864 0.829h-1.051v-1.646h1.051zm-1.051-4.938h-1.867v8.288h3.128c1.355 0 2.463-1.109 2.463-2.463 0-1.028-0.63-1.938-1.587-2.299l2.685-3.526h-2.23l-2.568 3.362h-0.024v-3.362z" fill="#fab215"/>
    </g>
    <g id="g72408" transform="translate(253.37 590.95)">
     <path id="path72410" d="m0 0h5.136v-1.844h-3.269v-1.401h2.569v-1.797h-2.569v-1.402h3.269v-1.843h-5.136v8.287z" fill="#fab215"/>
    </g>
    <g id="g72412" transform="translate(259.52 591.04)">
     <path id="path72414" d="m0 0 4.133-4.144 4.132 4.144v-8.381h-1.868v4.062l-2.264-2.264-2.265 2.264v-4.062h-1.868v8.381z" fill="#fab215"/>
    </g>
    <path id="path72416" d="m268.94 590.95h1.868v-8.287h-1.868v8.287z" fill="#fab215"/>
    <g id="g72418" transform="translate(271.96 590.95)">
     <path id="path72420" d="m0 0h5.136v-1.844h-3.268v-1.401h2.568v-1.797h-2.568v-1.402h3.268v-1.843h-5.136v8.287z" fill="#fab215"/>
    </g>
    <g id="g72422" transform="translate(281.03 587.6)">
     <path id="path72424" d="m0 0c0.502 0 0.864 0.361 0.864 0.817 0 0.455-0.362 0.829-0.864 0.829h-1.051v-1.646h1.051zm-1.051-4.938h-1.867v8.288h3.128c1.355 0 2.463-1.109 2.463-2.463 0-1.028-0.63-1.938-1.587-2.299l2.685-3.526h-2.23l-2.568 3.362h-0.024v-3.362z" fill="#fab215"/>
    </g>
    <g id="g72426" transform="translate(284.94 590.95)">
     <path id="path72428" d="m0 0h5.136v-1.844h-3.269v-1.401h2.569v-1.797h-2.569v-1.402h3.269v-1.843h-5.136v8.287z" fill="#fab215"/>
    </g>
   </g>
  </g>
 </g>
</svg>
