<?xml version="1.0" encoding="UTF-8" standalone="no"?>
<svg
   xmlns:dc="http://purl.org/dc/elements/1.1/"
   xmlns:cc="http://creativecommons.org/ns#"
   xmlns:rdf="http://www.w3.org/1999/02/22-rdf-syntax-ns#"
   xmlns:svg="http://www.w3.org/2000/svg"
   xmlns="http://www.w3.org/2000/svg"
   xmlns:sodipodi="http://sodipodi.sourceforge.net/DTD/sodipodi-0.dtd"
   xmlns:inkscape="http://www.inkscape.org/namespaces/inkscape"
   width="149.42pt"
   height="84.629997pt"
   viewBox="0 0 149.42 84.629997"
   version="1.1"
   id="svg2"
   inkscape:version="0.91 r13725"
   sodipodi:docname="Sky Arts Art Your TV Pop-Up.svg">
  <metadata
     id="metadata34">
    <rdf:RDF>
      <cc:Work
         rdf:about="">
        <dc:format>image/svg+xml</dc:format>
        <dc:type
           rdf:resource="http://purl.org/dc/dcmitype/StillImage" />
        <dc:title></dc:title>
      </cc:Work>
    </rdf:RDF>
  </metadata>
  <defs
     id="defs32" />
  <sodipodi:namedview
     pagecolor="#ffffff"
     bordercolor="#666666"
     borderopacity="1"
     objecttolerance="10"
     gridtolerance="10"
     guidetolerance="10"
     inkscape:pageopacity="0"
     inkscape:pageshadow="2"
     inkscape:window-width="1920"
     inkscape:window-height="1017"
     id="namedview30"
     showgrid="false"
     fit-margin-top="0"
     fit-margin-left="0"
     fit-margin-right="0"
     fit-margin-bottom="0"
     inkscape:zoom="5.6568543"
     inkscape:cx="96.565898"
     inkscape:cy="56.252715"
     inkscape:window-x="-8"
     inkscape:window-y="-8"
     inkscape:window-maximized="1"
     inkscape:current-layer="svg2" />
  <g
     id="#1d1d1bff"
     transform="translate(-26.8,-24.19)" />
  <path
     inkscape:connector-curvature="0"
     style="opacity:1;fill:#ffffff;fill-opacity:1"
     id="path6"
     d="M 0,21.81 C 3.54,14.54 7.07,7.26 10.63,0 c 3.53,7.27 7.1,14.53 10.61,21.81 -1.71,0 -3.43,0 -5.14,0 -0.52,-1.11 -1.05,-2.21 -1.56,-3.31 -2.61,0 -5.22,0 -7.82,-0.01 -0.52,1.11 -1.06,2.21 -1.58,3.32 -1.71,0 -3.42,0 -5.14,0 M 10.63,10.17 c -0.66,1.44 -1.31,2.88 -1.96,4.32 1.3,0 2.61,0 3.92,0.01 -0.65,-1.44 -1.31,-2.89 -1.96,-4.33 z" />
  <path
     inkscape:connector-curvature="0"
     style="opacity:1;fill:#ffffff;fill-opacity:1"
     id="path8"
     d="m 26.96,0.22679575 6.065227,0 c 2.727247,0 5.342503,0.3156841 7.124773,2.63320425 2.64,3.27 0.98,8.29 -2.71,9.95 2.28,3 4.6,5.98 6.88,8.99 -1.96,0.01 -3.91,0.01 -5.87,0.01 -2.2,-2.89 -4.39,-5.79 -6.62,-8.66 l 0,8.66 c -1.63,0 -3.26,-0.01 -4.88,-0.01 m 4.88,-17.09 0,4.25 C 33.64,8.9 36.65,9.42 36.77,6.77 36.41,4.28 33.62,4.82 31.83,4.71 Z"
     sodipodi:nodetypes="csccccccccccc" />
  <path
     inkscape:connector-curvature="0"
     style="opacity:1;fill:#ffffff;fill-opacity:1"
     id="path10"
     d="m 48.25,0.32 c 5.05,-0.02 10.09,-0.01 15.14,0 -0.01,1.6 -0.01,3.2 -0.01,4.8 -1.7,0 -3.41,0 -5.11,0 -0.02,5.56 0,11.13 -0.01,16.69 -1.63,-0.01 -3.25,-0.01 -4.88,0 0,-5.56 0.02,-11.12 0,-16.68 -1.71,0 -3.41,-0.01 -5.12,-0.01 0,-1.6 0,-3.2 -0.01,-4.8 z" />
  <path
     inkscape:connector-curvature="0"
     style="opacity:1;fill:#ffffff;fill-opacity:1"
     id="path12"
     d="m 69.89,9.63 c 18.52,-0.02 37.04,-0.01 55.56,-0.01 -0.01,1.63 -0.01,3.25 0,4.88 -18.53,-0.01 -37.05,0.01 -55.57,-0.01 0.01,-1.62 0.01,-3.24 0.01,-4.86 z" />
  <path
     inkscape:connector-curvature="0"
     style="opacity:1;fill:#ffffff;fill-opacity:1"
     id="path14"
     d="m 59.02,32.56 c 1.92,0 3.85,0 5.77,0.02 1.52,2.51 3.07,5.01 4.63,7.5 1.56,-2.5 3.1,-5.02 4.68,-7.53 1.9,0.01 3.8,0.01 5.7,0.02 -2.56,4.17 -5.36,8.2 -7.82,12.43 -0.24,3.01 -0.02,6.04 -0.1,9.06 -1.64,0 -3.28,-0.01 -4.92,-0.01 -0.08,-3 0.13,-6.01 -0.09,-9.01 -2.44,-4.26 -5.29,-8.28 -7.85,-12.48 z" />
  <path
     inkscape:connector-curvature="0"
     style="opacity:1;fill:#ffffff;fill-opacity:1"
     id="path16"
     d="m 87.56,33.25 c 5.59,-2.71 12.9,0.47 14.83,6.34 2.24,5.72 -1.39,12.74 -7.32,14.28 -5.49,1.72 -11.83,-1.69 -13.48,-7.18 -1.82,-5.16 0.96,-11.31 5.97,-13.44 m 2.1,4.27 c -4.59,1.84 -4.88,9.03 -0.5,11.28 3.71,2.29 8.84,-0.8 8.92,-5.06 0.54,-4.36 -4.38,-8.2 -8.42,-6.22 z" />
  <path
     inkscape:connector-curvature="0"
     style="opacity:1;fill:#ffffff;fill-opacity:1"
     id="path18"
     d="m 108.21,32.56 c 1.62,0 3.24,0 4.86,0 0.13,4.74 -0.24,9.49 0.2,14.21 0.76,3.83 7.12,3.63 7.55,-0.29 0.32,-4.63 0.03,-9.28 0.13,-13.92 1.62,0 3.25,0 4.87,0 -0.1,4.94 0.24,9.9 -0.19,14.83 -0.6,4.41 -5.09,7.42 -9.41,6.85 -4.01,-0.06 -7.53,-3.38 -7.88,-7.34 -0.31,-4.78 -0.07,-9.56 -0.13,-14.34 z" />
  <path
     inkscape:connector-curvature="0"
     style="opacity:1;fill:#ffffff;fill-opacity:1"
     id="path20"
     d="m 132.01,32.56 c 4.32,0.47 9.85,-1.49 13.07,2.34 2.87,3.3 1.15,8.42 -2.56,10.24 2.36,2.92 4.61,5.93 6.9,8.91 -1.96,0.01 -3.91,0.01 -5.87,0.01 -2.22,-2.9 -4.42,-5.81 -6.65,-8.7 -0.01,2.9 -0.02,5.8 -0.02,8.7 -1.62,0 -3.24,0 -4.86,0 -0.01,-7.17 -0.01,-14.33 -0.01,-21.5 m 4.88,8.66 c 1.94,0 5.15,0.36 4.95,-2.52 -0.73,-2.16 -3.19,-1.63 -4.95,-1.74 0,1.42 0,2.84 0,4.26 z" />
  <path
     inkscape:connector-curvature="0"
     style="opacity:1;fill:#ffffff;fill-opacity:1"
     id="path22"
     d="m 23.76,40.19 c 9.1,-0.02 18.2,0 27.31,-0.01 0,1.67 0,3.33 0.01,5 -9.1,0.01 -18.21,0.01 -27.31,0 -0.01,-1.66 -0.01,-3.32 -0.01,-4.99 z" />
  <path
     inkscape:connector-curvature="0"
     style="opacity:1;fill:#ffffff;fill-opacity:1"
     id="path24"
     d="m 2.94,62.810002 15.26,0 -0.01,4.879998 -5.1,2e-6 C 13.07,73.230002 13.08,78.76 13.08,84.3 c -1.64,0 -3.29,0.01 -4.93,0.01 -0.02,-5.54 0,-11.08 -0.02,-16.62 l -5.19,2e-6 z"
     sodipodi:nodetypes="ccccccccc" />
  <path
     inkscape:connector-curvature="0"
     style="opacity:1;fill:#ffffff;fill-opacity:1"
     id="path26"
     d="m 24.09,62.810002 5.36,0 c 1.73,3.5 3.16,7.089998 4.81,10.639998 1.58,-3.55 3.13,-7.099998 4.71,-10.639998 l 5.46,0 C 41.03,70.080002 37.66,77.36 34.26,84.63 30.86,77.36 27.47,70.080002 24.09,62.810002 Z"
     sodipodi:nodetypes="ccccccc" />
  <path
     inkscape:connector-curvature="0"
     style="opacity:1;fill:#ffffff;fill-opacity:1"
     id="path28"
     d="m 51.01,72.32 c 19.06,-0.02 38.12,-0.01 57.19,0 -0.01,1.66 -0.01,3.32 0,4.98 -19.06,0.01 -38.13,0.02 -57.19,0 0,-1.66 0,-3.32 0,-4.98 z" />
</svg>
