<?xml version="1.0" encoding="UTF-8"?>
<svg id="svg27" width="185.53pt" height="144.65pt" version="1.1" viewBox="0 0 185.53 144.65" xmlns="http://www.w3.org/2000/svg" xmlns:cc="http://creativecommons.org/ns#" xmlns:dc="http://purl.org/dc/elements/1.1/" xmlns:rdf="http://www.w3.org/1999/02/22-rdf-syntax-ns#">
 <metadata id="metadata33">
  <rdf:RDF>
   <cc:Work rdf:about="">
    <dc:format>image/svg+xml</dc:format>
    <dc:type rdf:resource="http://purl.org/dc/dcmitype/StillImage"/>
    <dc:title/>
   </cc:Work>
  </rdf:RDF>
 </metadata>
 <g id="g4545" transform="matrix(1.1994 0 0 1.1994 0 .00023162)" fill="#1d1d1b">
  <path id="path2460" d="m99.326 33.982-10.45-10.021 14.936-14.366 10.442 10.034zm35.333-33.978-10.437 10.047-10.442-10.047h-19.94l-14.542 13.985 3.7802-13.985-49.918-4e-3c-6.4552 0-12.161 4.8414-12.161 10.933 0 2.9119 1.1973 5.5738 3.1487 7.534l9.6215 8.968c0.6227 0.64026 0.9648 1.3902 0.9648 2.026 0 1.491-0.956 2.6531-3.4469 2.6531h-20.287l-3.1311 11.463h33.921c6.4509 0 12.2-4.802 12.2-10.893 0-2.9163-1.1971-5.5782-3.153-7.5384l-9.7399-9.0952c-0.5394-0.53501-0.8376-1.2542-0.8376-1.8857 0-1.4954 1.0613-2.6444 2.9733-2.6444h20.598l-8.5821 32.057h16.12l3.6749-13.739 14.309 13.739 19.949-0.0132 45.31-43.56z"/>
  <g id="g7835" transform="matrix(.3056 0 0 .3056 20.012 85.097)">
   <path id="path2464-9" d="m230.03-87.175-9.9313 37.62c-0.88787 3.7162-1.7391 4.0641-8.714 4.0641-1.492 0-17.346-0.04577-20.87-0.01831-3.7346 0.01831-6.6728 0.01831-8.1556 0.01831-6.9931 0-7.6339-0.34783-6.5812-4.0641l9.9314-37.62c0.91533-3.7254 1.7391-4.0824 8.7231-4.0824 1.5011 0 2.8467 0 6.5995 0.01831 3.4966 0.02746 20.915-0.01831 22.416-0.01831 6.9657 0 7.6613 0.35698 6.5812 4.0824m28.265-1.1899c3.2769-12.384-2.8741-17.84-5.4462-20.055-3.762-3.3135-10.993-5.3547-19.835-5.3547h-36.265c-8.833 0-17.172 2.0412-22.654 5.3547-3.7162 2.2151-12.741 7.6705-16 20.055l-0.11899 0.44851h-9e-3l-10.334 39.103c-3.2677 12.384 2.8741 17.821 5.4188 20.055 3.7803 3.2769 11.011 5.3364 19.854 5.3364h36.275c8.8329 0 17.172-2.0595 22.664-5.3364 3.6979-2.2334 12.741-7.6705 16-20.055l6.389-24.183z"/>
   <path id="path2468-4" d="m347.85-110.66h0.0183c0.12814-1.7574-1.1442-3.0938-3.0847-3.0938h-3.6613v-0.0183h-32.092c-8.8513 0-17.172 2.0412-22.7 5.3455-3.6888 2.2151-12.732 7.6705-15.982 20.064l-0.12814 0.43936-1.6842 6.3432v0.01831l-14.178 53.776c-1.016 3.7803 2.151 3.9451 6.0412 3.9451h14.224c3.9085 0 7.9359-3.1121 8.9245-6.9108l14.911-56.421c0.88787-3.7254 1.7483-4.0824 8.7414-4.0824 1.4554 0 4.3661 0 8.1281 0.0092h19.881v-0.04577h3.3684c2.6087 0 6.4165-6.4165 8.2563-13.364 0.58581-2.1602 0.89703-4.2197 1.016-6.0046"/>
   <path id="path2472-5" d="m119.77-87.175-9.913 37.62c-0.89702 3.7162-1.7483 4.0641-8.7231 4.0641-4.1373 0-22.407-0.03661-35.506-0.03661l12.064-45.684c13.098-0.02746 31.378-0.04577 35.515-0.04577 6.9931 0 7.6522 0.35698 6.5629 4.0824m22.728-20.805c-3.762-3.2769-11.002-5.3455-19.835-5.3455 0 0-4.7872-0.11899-5.1442-0.11899h-40.293v0.0183h-15.011-1.2906c-4.1281 0.0458-5.7574 0.75058-7.0755 5.0343-0.19222 0.60411-0.38444 1.1899-0.56751 1.8581l-29.208 110.72c-0.99771 3.7712 2.1602 3.9451 6.0503 3.9451h14.243c3.8993 0 7.9085-3.0938 8.9062-6.8924l6.5263-24.659h39.13c8.8421 0 17.172-2.0595 22.664-5.3364 3.7254-2.2334 12.723-7.6705 16.009-20.055l10.307-39.103c3.2769-12.403-2.865-17.84-5.4096-20.064"/>
   <path id="path2476-3" d="m425.47-112.94h-37.291l8.6865-32.934c1.0069-3.7712-0.20137-5.4096-4.119-5.4096h-15.789c-3.881 0-7.8993 3.1121-8.897 6.8924l-25.858 97.254c-0.0641 0.23799-0.0641 0.44851-0.0824 0.63158l-0.0549 0.0092c-0.31122 1.7025-0.2563 2.0595-0.2563 3.5881 0 7.9085 4.0641 11.689 6.0229 13.529 3.6796 3.4325 10.581 5.4188 18.911 5.4188h24l10.005-0.01831 3.2311-0.05492c1.8032-0.03661 6.389-7.6156 8-14.124 0.50343-2.087 0.86041-4.1373 0.93364-5.9863l0.0183-0.21053c0-0.48512-0.14645-0.87872-0.40274-1.1899-0.4119-0.43021-0.97025-0.51259-5.8947-0.51259h-36.229l0.10068-0.29291 11.973-44.943h37.025c2.6087 0 6.1876-5.6201 8.0183-12.577 0.60412-2.1785 0.93364-4.2288 1.0343-6.0046h0.0366c0.11899-1.7666-1.1533-3.0664-3.1213-3.0664"/>
   <path id="path2480-0" d="m19.052-72.237c-6.3982-3.9634-25.767-7.341-33.465-9.2174-5.3089-1.2815-11.725-2.1419-10.38-5.7025 0.9611-2.5812 4.778-4.0549 10.673-4.0915 5.1442-0.01831 37.785 0.0092 43.368 0 3.1121 0 7.4599-2.746 10.7-15.057 1.7483-6.627-0.75057-6.6728-4.5675-6.6728h-56.632c-8.8513 0-16.906 5.1533-23.304 13.474-6.3982 8.3844-9.7666 18.435-8.7231 24.156 1.2723 6.8009 6.8192 10.453 14.517 13.071 7.6705 2.6545 19.432 5.1075 25.153 6.6636 6.1968 1.6201 16.238 2.2883 14.581 6.0412-1.2265 2.7094-2.6911 4.2014-8.7231 4.0824-6.984-0.16476-38.279-0.06407-44.348 0-6.8467 0.07323-10.124 5.8764-12.751 15.918-1.6293 6.1053-0.2746 6.151 5.5744 6.151h47.762c8.8329 0 17.162-2.0595 22.682-5.3364 3.7071-2.2334 12.732-7.6613 15.991-20.055 4.1556-15.744-1.373-19.222-8.1098-23.423"/>
  </g>
 </g>
 <g id="g76361" transform="matrix(7.2504 0 0 -7.2504 -2413.7 844.92)" fill="#1d1d1b">
  <path id="path70572" d="m340.17 100.77-0.484-3.993c-0.015-0.119-0.079-0.178-0.19-0.178h-0.334c-0.112 0-0.167 0.052-0.167 0.157l-5e-3 0.028 0.263 2.071-1.001-2.118c-0.047-0.092-0.112-0.138-0.196-0.138h-0.525c-0.1 0-0.159 0.045-0.178 0.137l-0.47 2.097-0.252-2.056c-0.015-0.119-0.081-0.178-0.197-0.178h-0.331c-0.115 0-0.171 0.052-0.168 0.156 4e-3 8e-3 6e-3 0.017 6e-3 0.028l0.49 3.999c0.015 0.115 0.082 0.172 0.201 0.172h0.322c0.088 0 0.149-0.048 0.184-0.144l0.768-3.227 1.579 3.233c0.035 0.092 0.102 0.138 0.202 0.138h0.322c0.111 0 0.167-0.044 0.167-0.132 0-0.015-2e-3 -0.033-6e-3 -0.052"/>
  <path id="path70576" d="m341.44 100.21-0.104-0.119c-4e-3 -0.027-0.01-0.075-0.018-0.143h2e-3l-0.29-2.35c4e-3 -0.078 5e-3 -0.123 5e-3 -0.135 0.027-0.152 0.108-0.228 0.243-0.228h0.882c0.093 0 0.172 0.037 0.237 0.111s0.104 0.16 0.116 0.257l0.293 2.402c4e-3 0.084-0.016 0.159-0.06 0.222-0.045 0.064-0.11 0.096-0.194 0.096h-0.88c-0.089 0-0.166-0.038-0.232-0.113m-0.23-3.626c-0.268 0-0.488 0.085-0.659 0.256s-0.253 0.391-0.245 0.66c4e-3 0.023 7e-3 0.059 0.011 0.109l0.282 2.345c0.035 0.294 0.161 0.537 0.378 0.73s0.471 0.29 0.763 0.29h0.876c0.3 0 0.534-0.096 0.703-0.288 0.134-0.155 0.202-0.362 0.202-0.623v-0.11l-0.288-2.348c-0.035-0.293-0.16-0.536-0.375-0.73s-0.47-0.291-0.766-0.291z"/>
  <path id="path70580" d="m345.05 96.583c-0.534 0-0.935 0.058-1.204 0.173-0.085 0.035-0.125 0.096-0.121 0.184 0 0.019 2e-3 0.037 6e-3 0.052l0.034 0.184c0.027 0.154 0.102 0.229 0.225 0.225 0.027 0 0.052-4e-3 0.075-0.011 0.242-0.07 0.603-0.104 1.083-0.104 0.192 0 0.359 0.055 0.501 0.164 0.142 0.11 0.231 0.257 0.265 0.442v0.046c0 0.085-0.052 0.167-0.155 0.248-0.035 0.027-0.183 0.106-0.444 0.237-0.449 0.227-0.726 0.383-0.83 0.467-0.196 0.166-0.294 0.371-0.294 0.618 0 0.442 0.189 0.813 0.565 1.113 0.3 0.235 0.649 0.352 1.049 0.352 0.522 0 0.916-0.058 1.181-0.174 0.08-0.035 0.121-0.097 0.121-0.185 0-0.016-2e-3 -0.031-6e-3 -0.047l-0.029-0.191c-0.023-0.151-0.102-0.225-0.236-0.221-0.016 4e-3 -0.039 8e-3 -0.069 0.012-0.265 0.077-0.618 0.115-1.06 0.115-0.196 0-0.365-0.055-0.507-0.165-0.142-0.109-0.229-0.26-0.26-0.453v-0.04c0-0.085 0.05-0.167 0.15-0.248 0.035-0.027 0.186-0.104 0.455-0.231 0.396-0.185 0.667-0.34 0.813-0.467 0.204-0.177 0.305-0.387 0.305-0.629v-0.173c-0.073-0.389-0.26-0.701-0.562-0.938-0.301-0.237-0.65-0.355-1.045-0.355z"/>
  <path id="path70584" d="m348.06 98.416h0.836l-0.244 1.388zm1.324-1.832c-0.116 0-0.179 0.051-0.191 0.155h5e-3l-0.187 1.026h-1.226l-0.438-1.025c-0.046-0.104-0.115-0.156-0.206-0.156h-0.345c-0.119 0-0.176 0.051-0.172 0.155 0 8e-3 2e-3 0.014 6e-3 0.017 4e-3 0.027 9e-3 0.047 0.017 0.058l1.688 4.004c0.042 0.104 0.117 0.156 0.225 0.156h0.455c0.108 0 0.171-0.052 0.19-0.156l0.703-3.992c0.012-0.023 0.017-0.043 0.017-0.058v-0.012c0-0.115-0.063-0.172-0.19-0.172z"/>
  <path id="path70588" d="m350.05 96.583c-0.123 0-0.182 0.057-0.179 0.171v0.029l0.035 0.268c0.015 0.122 0.086 0.183 0.213 0.183h0.167l0.386 3.088h-0.164c-0.125 0-0.185 0.055-0.181 0.166v0.023l0.034 0.274c0.015 0.125 0.088 0.188 0.219 0.188h1.043c0.119 0 0.178-0.057 0.178-0.171-3e-3 -4e-3 -5e-3 -0.012-5e-3 -0.023l-0.035-0.274c-0.015-0.122-0.083-0.183-0.204-0.183h-0.171l-0.38-3.088h0.161c0.12 0 0.179-0.057 0.179-0.171-3e-3 -4e-3 -5e-3 -0.012-5e-3 -0.023l-0.029-0.269c-0.016-0.125-0.083-0.188-0.202-0.188z"/>
  <path id="path70592" d="m352.83 96.583c-0.273 0-0.494 0.085-0.663 0.254s-0.249 0.389-0.241 0.662c0 8e-3 3e-3 0.042 0.011 0.104l0.282 2.345c0.035 0.293 0.159 0.538 0.375 0.733 0.215 0.195 0.47 0.292 0.766 0.292h0.732c0.273 0 0.493-0.085 0.662-0.255 0.154-0.158 0.231-0.38 0.231-0.666v-0.11l-0.029-0.236c-0.015-0.127-0.086-0.19-0.213-0.19h-0.334c-0.116 0-0.173 0.059-0.173 0.178 0 0.012 4e-3 0.019 0.011 0.023h-3e-3l0.028 0.236c0 0.246-0.084 0.369-0.254 0.369h-0.727c-0.089 0-0.167-0.038-0.234-0.116-0.067-0.077-0.107-0.163-0.118-0.258l-0.289-2.351 1e-3 -0.041c-3e-3 -0.082 0.017-0.156 0.061-0.222 0.044-0.067 0.106-0.1 0.187-0.1h0.732c0.084 0 0.162 0.039 0.233 0.117s0.112 0.162 0.124 0.252h-4e-3l0.029 0.247c0.016 0.127 0.085 0.191 0.207 0.191h0.328c0.118 0 0.178-0.058 0.178-0.173v-0.029l-0.029-0.242c-0.035-0.292-0.158-0.534-0.369-0.726s-0.465-0.288-0.761-0.288z"/>
 </g>
</svg>
