<?xml version="1.0" encoding="UTF-8"?>
<!-- Created with Inkscape (http://www.inkscape.org/) -->
<svg id="svg314961" width="24.3mm" height="6.9272mm" version="1.1" viewBox="0 0 86.102 24.545" xmlns="http://www.w3.org/2000/svg" xmlns:cc="http://creativecommons.org/ns#" xmlns:dc="http://purl.org/dc/elements/1.1/" xmlns:rdf="http://www.w3.org/1999/02/22-rdf-syntax-ns#">
 <defs id="defs314963">
  <clipPath id="clipPath72496">
   <path id="path72498" d="m396.14 579.37h72.426v24.803h-72.426v-24.803z"/>
  </clipPath>
 </defs>
 <metadata id="metadata314966">
  <rdf:RDF>
   <cc:Work rdf:about="">
    <dc:format>image/svg+xml</dc:format>
    <dc:type rdf:resource="http://purl.org/dc/dcmitype/StillImage"/>
    <dc:title/>
   </cc:Work>
  </rdf:RDF>
 </metadata>
 <g id="layer1" transform="translate(-288.38 -417.23)">
  <g id="g72492" transform="matrix(1.25 0 0 -1.25 -209.01 1169.2)">
   <g id="g72494" clip-path="url(#clipPath72496)">
    <g id="g72500" transform="translate(409.09 597.36)">
     <path id="path72502" d="m0 0-0.589 0.589 0.95 0.95 0.589-0.589-0.95-0.95zm2.129 2.129-0.589-0.59-0.59 0.59h-1.178l-0.95-0.951 0.237 0.951h-2.936c-0.379-1e-3 -0.715-0.303-0.715-0.684 0-0.181 0.071-0.346 0.185-0.469l0.566-0.56c0.038-0.039 0.057-0.086 0.056-0.125 1e-3 -0.093-0.055-0.165-0.202-0.165h-1.192l-0.179-0.715h1.99c0.379 0 0.718 0.299 0.718 0.679 0 0.181-0.071 0.348-0.186 0.47l-0.573 0.568c-0.032 0.032-0.05 0.078-0.05 0.117 0 0.093 0.063 0.168 0.175 0.168h1.213l-0.499-2.002h0.951l0.206 0.824 0.824-0.824h1.178l2.718 2.718h-1.178zm6.213 2.084v-19.515h-19.514v19.515l9.758-9.757 9.756 9.757z" fill="#a8d81b"/>
    </g>
    <g id="g72504" transform="translate(423.94 601.59)">
     <path id="path72506" d="m0 0 4.428-4.44 4.427 4.44v-8.98h-2v4.352l-2.427-2.426-2.427 2.426v-4.352h-2.001v8.98z" fill="#a8d81b"/>
    </g>
    <g id="g72508" transform="translate(440.62 597.05)">
     <path id="path72510" d="m0 0c0 1.426-1.088 2.614-2.526 2.614-1.439 0-2.527-1.188-2.527-2.614s1.088-2.614 2.527-2.614c1.438 0 2.526 1.188 2.526 2.614m-7.066 0c0 2.501 2.038 4.54 4.54 4.54 2.501 0 4.54-2.039 4.54-4.54 0-2.502-2.039-4.54-4.54-4.54-2.502 0-4.54 2.038-4.54 4.54" fill="#a8d81b"/>
    </g>
    <g id="g72512" transform="translate(441.94 601.49)">
     <path id="path72514" d="M 0,0 2.227,0 4.191,-4.44 6.154,0 8.381,0 4.191,-8.98 0,0 Z" fill="#a8d81b"/>
    </g>
    <path id="path72516" d="m450.79 601.49h2.001v-8.88h-2.001v8.88z" fill="#a8d81b"/>
    <g id="g72518" transform="translate(454.03 601.49)">
     <path id="path72520" d="m0 0h5.503v-1.976h-3.503v-1.501h2.753v-1.926h-2.753v-1.501h3.503v-1.976h-5.503v8.88z" fill="#a8d81b"/>
    </g>
    <g id="g72522" transform="translate(459.99 594.25)">
     <path id="path72524" d="m0 0 1.513 1.238c0.388-0.613 1.026-1.1 1.639-1.1 0.588 0 0.85 0.225 0.85 0.638 0 0.4-0.287 0.65-1.038 0.988l-0.5 0.225c-1.338 0.6-2.077 1.588-2.077 2.789 0 1.551 1.289 2.564 2.702 2.564 0.989 0 1.739-0.238 2.489-1.113l-1.35-1.426c-0.45 0.55-0.726 0.663-1.139 0.663-0.337 0-0.688-0.213-0.688-0.613 0-0.463 0.388-0.713 1.201-1.076l0.476-0.212c1.225-0.551 1.938-1.439 1.938-2.664 0-1.602-1.175-2.639-2.826-2.639-1.427 0-2.577 0.587-3.19 1.738" fill="#a8d81b"/>
    </g>
    <g id="g72526" transform="translate(428.19 585.06)">
     <path id="path72528" d="m0 0-0.838 1.851-0.838-1.851h1.676zm-0.838 5.979 4.378-8.981h-2.101l-0.638 1.376h-3.277l-0.638-1.376h-2.101l4.377 8.981z" fill="#a8d81b"/>
    </g>
    <g id="g72530" transform="translate(430.9 586.5)">
     <path id="path72532" d="m0 0c0 2.501 2.038 4.54 4.541 4.54 1.525 0 2.889-0.763 3.714-1.926l-1.513-1.239c-0.451 0.726-1.251 1.239-2.201 1.239-1.439 0-2.528-1.189-2.528-2.614 0-1.426 1.089-2.615 2.528-2.615 0.95 0 1.75 0.513 2.201 1.239l1.513-1.239c-0.825-1.162-2.189-1.925-3.714-1.925-2.503 0-4.541 2.038-4.541 4.54" fill="#a8d81b"/>
    </g>
    <g id="g72534" transform="translate(441.68 588.96)">
     <path id="path72536" d="m0 0h-2.126v1.977h6.266v-1.977h-2.139v-6.904h-2.001v6.904z" fill="#a8d81b"/>
    </g>
    <path id="path72538" d="m446.58 590.94h2.002v-8.881h-2.002v8.881z" fill="#a8d81b"/>
    <g id="g72540" transform="translate(456.41 586.5)">
     <path id="path72542" d="m0 0c0 1.425-1.088 2.614-2.526 2.614s-2.527-1.189-2.527-2.614c0-1.426 1.089-2.615 2.527-2.615s2.526 1.189 2.526 2.615m-7.066 0c0 2.501 2.038 4.54 4.54 4.54 2.501 0 4.54-2.039 4.54-4.54 0-2.502-2.039-4.54-4.54-4.54-2.502 0-4.54 2.038-4.54 4.54" fill="#a8d81b"/>
    </g>
    <g id="g72544" transform="translate(461.19 586.7)">
     <path id="path72546" d="m0 0v-4.641h-2.001v8.981l5.603-4.741v4.641h2.001v-8.98l-5.603 4.74z" fill="#a8d81b"/>
    </g>
   </g>
  </g>
 </g>
</svg>
