<svg height="84.629997pt" viewBox="0 0 149.42 84.629997" width="149.42pt" xmlns="http://www.w3.org/2000/svg"><g fill="#fff"><path d="m0 21.81c3.54-7.27 7.07-14.55 10.63-21.81 3.53 7.27 7.1 14.53 10.61 21.81-1.71 0-3.43 0-5.14 0-.52-1.11-1.05-2.21-1.56-3.31-2.61 0-5.22 0-7.82-.01-.52 1.11-1.06 2.21-1.58 3.32-1.71 0-3.42 0-5.14 0m10.63-11.64c-.66 1.44-1.31 2.88-1.96 4.32 1.3 0 2.61 0 3.92.01-.65-1.44-1.31-2.89-1.96-4.33z"/><path d="m26.96.22679575h6.065227c2.727247 0 5.342503.3156841 7.124773 2.63320425 2.64 3.27.98 8.29-2.71 9.95 2.28 3 4.6 5.98 6.88 8.99-1.96.01-3.91.01-5.87.01-2.2-2.89-4.39-5.79-6.62-8.66v8.66c-1.63 0-3.26-.01-4.88-.01m4.88-17.09v4.25c1.81-.06 4.82.46 4.94-2.19-.36-2.49-3.15-1.95-4.94-2.06z"/><path d="m48.25.32c5.05-.02 10.09-.01 15.14 0-.01 1.6-.01 3.2-.01 4.8-1.7 0-3.41 0-5.11 0-.02 5.56 0 11.13-.01 16.69-1.63-.01-3.25-.01-4.88 0 0-5.56.02-11.12 0-16.68-1.71 0-3.41-.01-5.12-.01 0-1.6 0-3.2-.01-4.8z"/><path d="m69.89 9.63c18.52-.02 37.04-.01 55.56-.01-.01 1.63-.01 3.25 0 4.88-18.53-.01-37.05.01-55.57-.01.01-1.62.01-3.24.01-4.86z"/><path d="m59.02 32.56c1.92 0 3.85 0 5.77.02 1.52 2.51 3.07 5.01 4.63 7.5 1.56-2.5 3.1-5.02 4.68-7.53 1.9.01 3.8.01 5.7.02-2.56 4.17-5.36 8.2-7.82 12.43-.24 3.01-.02 6.04-.1 9.06-1.64 0-3.28-.01-4.92-.01-.08-3 .13-6.01-.09-9.01-2.44-4.26-5.29-8.28-7.85-12.48z"/><path d="m87.56 33.25c5.59-2.71 12.9.47 14.83 6.34 2.24 5.72-1.39 12.74-7.32 14.28-5.49 1.72-11.83-1.69-13.48-7.18-1.82-5.16.96-11.31 5.97-13.44m2.1 4.27c-4.59 1.84-4.88 9.03-.5 11.28 3.71 2.29 8.84-.8 8.92-5.06.54-4.36-4.38-8.2-8.42-6.22z"/><path d="m108.21 32.56h4.86c.13 4.74-.24 9.49.2 14.21.76 3.83 7.12 3.63 7.55-.29.32-4.63.03-9.28.13-13.92h4.87c-.1 4.94.24 9.9-.19 14.83-.6 4.41-5.09 7.42-9.41 6.85-4.01-.06-7.53-3.38-7.88-7.34-.31-4.78-.07-9.56-.13-14.34z"/><path d="m132.01 32.56c4.32.47 9.85-1.49 13.07 2.34 2.87 3.3 1.15 8.42-2.56 10.24 2.36 2.92 4.61 5.93 6.9 8.91-1.96.01-3.91.01-5.87.01-2.22-2.9-4.42-5.81-6.65-8.7-.01 2.9-.02 5.8-.02 8.7-1.62 0-3.24 0-4.86 0-.01-7.17-.01-14.33-.01-21.5m4.88 8.66c1.94 0 5.15.36 4.95-2.52-.73-2.16-3.19-1.63-4.95-1.74z"/><path d="m23.76 40.19c9.1-.02 18.2 0 27.31-.01 0 1.67 0 3.33.01 5-9.1.01-18.21.01-27.31 0-.01-1.66-.01-3.32-.01-4.99z"/><path d="m2.94 62.810002h15.26l-.01 4.879998-5.1.000002c-.02 5.54-.01 11.069998-.01 16.609998-1.64 0-3.29.01-4.93.01-.02-5.54 0-11.08-.02-16.62l-5.19.000002z"/><path d="m24.09 62.810002h5.36c1.73 3.5 3.16 7.089998 4.81 10.639998 1.58-3.55 3.13-7.099998 4.71-10.639998h5.46c-3.4 7.27-6.77 14.549998-10.17 21.819998-3.4-7.27-6.79-14.549998-10.17-21.819998z"/><path d="m51.01 72.32c19.06-.02 38.12-.01 57.19 0-.01 1.66-.01 3.32 0 4.98-19.06.01-38.13.02-57.19 0 0-1.66 0-3.32 0-4.98z"/></g></svg>