<svg height="8.749806mm" viewBox="0 0 46.4475 31.003251" width="13.108517mm" xmlns="http://www.w3.org/2000/svg" xmlns:xlink="http://www.w3.org/1999/xlink"><clipPath id="a"><path d="m301.295 498.869h82.8v24.803h-82.8z"/></clipPath><clipPath id="b"><path d="m324.115 498.869h37.158v24.803h-37.158z"/></clipPath><clipPath id="c"><path d="m301.295 498.869h82.8v24.803h-82.8z"/></clipPath><g clip-path="url(#c)" transform="matrix(1.25 0 0 -1.25 -405.14375 654.59)"><g transform="translate(351.2544 515.262)"><path d="m0 0c0-4.645-3.766-8.41-8.41-8.41-4.645 0-8.409 3.765-8.409 8.41 0 4.644 3.764 8.41 8.409 8.41 4.644 0 8.41-3.766 8.41-8.41" fill="#231f20"/></g></g><g clip-path="url(#b)" transform="matrix(1.25 0 0 -1.25 -405.14375 654.59)"><g transform="translate(341.628 513.8239)"><path d="m0 0c .412.525.604.696.604 1.154s-.053.548-.781 1.482c-1.174 1.504-2.735 3.331-3.553 3.641-.191.073-.293.113-.394.121-1.209-1.301-1.95-3.043-1.95-4.96 0-1.908.734-3.645 1.935-4.945.035-.001.074-.005.109-.005.212 0 .293.066.514.166.692.309 2.913 2.58 3.516 3.346m8.507 1.438c0 1.445-.422 2.789-1.145 3.921.063-.232.074-.439.045-.729-.09-.859-.373-1.701-.533-2.121-.161-.422-.354-1.043-.339-1.318.018-.274.073-.33.144-.659.069-.329.657-1.481.691-2.433.014-.342-.006-.491-.052-.65.751 1.146 1.189 2.515 1.189 3.989m-3.232-4.435c-.302.346-1.012.987-1.687 1.022-.675.037-1.114-.392-2.274-.95-1.367-.659-2.522-.988-3.018-1.135-.434-.127-1.137-.241-1.569-.244 1.237-.969 2.796-1.549 4.49-1.549 1.903 0 3.634.73 4.933 1.923-.128.199-.601.616-.875.933m-8.594 10.141c.235.004.49-.018 1.028-.098.623-.092 2.783-.879 4.386-1.885.818-.513 1.263-.622 1.599-.622.23 0 .587.184 1.421.951.816.75.915.903 1.03 1.099.042.07.07.111.087.138-1.307 1.241-3.071 2.002-5.015 2.002-1.715 0-3.291-.593-4.536-1.585" fill="#ed1443"/></g><g transform="translate(341.6899 502.7114)"><path d="m0 0c-.306.19-1.233.351-1.6.441-.254.062-.561.103-.497.273.046.123.228.193.511.196.245.001 1.807-.001 2.074 0 .148 0 .356.13.512.72.083.317-.036.32-.219.32h-2.709c-.423 0-.808-.248-1.114-.646-.306-.4-.466-.881-.417-1.155.061-.326.326-.499.694-.626.367-.125.93-.243 1.203-.317.296-.078.777-.111.697-.289-.058-.13-.128-.201-.418-.196-.333.008-1.829.004-2.119 0-.328-.002-.485-.281-.611-.761-.077-.291-.012-.294.267-.294h2.284c.423 0 .821.098 1.085.255.177.107.608.367.764.96.2.751-.065.918-.387 1.119m-8.006 1.019-.978.965h-.009l-1.451-1.396.377 1.396-4.983.001c-.645 0-1.214-.483-1.214-1.093 0-.291.119-.556.314-.752l.961-.894c.062-.064.096-.139.096-.203 0-.147-.096-.264-.344-.264h-2.025l-.313-1.145h3.386c.644 0 1.218.479 1.218 1.087 0 .292-.119.557-.314.753l-.972.908c-.054.054-.084.125-.084.189 0 .15.105.264.296.264h2.057l-.857-3.201h1.609l.367 1.371 1.429-1.371h.006l.981.965-1.035.993zm3.088.965-1.042-1.003-1.042 1.003h-.014l-.971-.967 1.031-.993-1.482-1.426.988-.964 4.524 4.35zm16.359-1.213c.156.593-.139.854-.261.96-.18.157-.526.255-.948.255h-1.734c-.422 0-.822-.098-1.085-.255-.178-.106-.608-.367-.764-.96l-.006-.021-.495-1.869c-.156-.593.138-.853.259-.96.182-.157.527-.255.95-.255h1.735c.422 0 .821.098 1.083.255.177.107.61.367.765.96l.307 1.156zm-1.352-.057-.476-1.798c-.042-.178-.082-.195-.416-.195-.07 0-.829.003-.997.001-.179-.001-.32-.001-.391-.001-.334 0-.364.017-.314.195l.474 1.798c.044.178.082.196.417.196.071 0 .136 0 .316-.001.167-.001 1.001.001 1.072.001.333 0 .367-.018.315-.196m5.634 1.124h.001c.006.084-.055.148-.148.148h-.173-1.536c-.424 0-.821-.098-1.085-.255-.177-.106-.61-.367-.765-.96l-.007-.021-.079-.304v-.001l-.679-2.57c-.049-.181.103-.188.289-.188h.681c.187 0 .378.148.426.329l.713 2.698c.042.178.082.196.417.196.071 0 .211 0 .39-.001h.95v.002h.162c.124 0 .306.307.395.64.028.104.042.201.048.287m-9.82-.129c-.18.157-.526.256-.95.256h-.151c-.043.004-.077.006-.093.006h-1.927-.719c-.02 0-.04-.004-.06-.007-.198-.003-.264-.027-.328-.233-.015-.029-.03-.058-.038-.091l-1.398-5.294c-.047-.181.104-.188.29-.188h.68c.188 0 .38.148.427.329l.312 1.179h1.871c.423 0 .822.098 1.084.255.179.107.608.367.765.96l.494 1.869c.156.593-.138.853-.259.959m-1.087-.995-.475-1.798c-.041-.178-.083-.195-.416-.195-.197 0-1.071.002-1.699.002l.578 2.185c.626.001 1.5.002 1.698.002.334 0 .366-.018.314-.196m14.619 1.233h-1.783l.414 1.574c.049.181-.01.259-.197.259h-.754c-.185 0-.379-.149-.427-.329l-1.235-4.651c-.003-.011-.003-.021-.005-.03l-.002-.001c-.015-.081-.012-.098-.012-.171 0-.379.194-.559.287-.647.177-.164.506-.259.905-.259h1.148l.478.001.154.001c.088.003.307.366.384.676.023.1.04.198.043.286l.002.01c0 .024-.007.042-.02.058-.02.02-.046.025-.282.025h-1.732l.005.013.572 2.149h1.771c.124 0 .296.269.384.602.028.105.045.202.048.288h.003c.006.084-.055.146-.149.146" fill="#252122"/></g></g><g clip-path="url(#a)" transform="matrix(1.25 0 0 -1.25 -405.14375 654.59)"><g transform="translate(332.6925 504.7099)"><path d="m0 0 1.001-.987.995.989z" fill="#6b6969"/></g><g transform="translate(333.2433 501.3194)"><path d="m0 0-1.001-.986 2.009.003z" fill="#6b6969"/></g><g transform="translate(344.5533 514.3896)"><path d="m0 0c-.155-.051-.3-.17-.322-.266s.092-.175.256-.175h2.392c.162 0 .264-.13.229-.288l-.175-.754c-.037-.157-.199-.287-.361-.287h-3.899c-.163 0-.266.13-.23.287l.255 1.105c.036.157.131.402.209.545 0 0 .14.251.396.456.256.206.467.281.757.372l1.908.61c.156.048.33.119.387.158l.014.06c.002.076-.051.1-.119.1h-2.412c-.162 0-.265.129-.229.287l.175.754c.035.158.199.288.361.288h2.848c.163 0 .393-.091.511-.2 0 0 .515-.476.354-1.145-.134-.547-.483-.995-1.023-1.17z" fill="#ddd"/></g></g></svg>