<?xml version="1.0" encoding="UTF-8"?>
<!-- Created with Inkscape (http://www.inkscape.org/) -->
<svg id="svg316268" width="25.265mm" height="6.3326mm" version="1.1" viewBox="0 0 89.521 22.438" xmlns="http://www.w3.org/2000/svg" xmlns:cc="http://creativecommons.org/ns#" xmlns:dc="http://purl.org/dc/elements/1.1/" xmlns:rdf="http://www.w3.org/1999/02/22-rdf-syntax-ns#">
 <defs id="defs316270">
  <clipPath id="clipPath72618">
   <path id="path72620" d="m32.314 539.12h82.801v24.803h-82.801v-24.803z"/>
  </clipPath>
 </defs>
 <metadata id="metadata316273">
  <rdf:RDF>
   <cc:Work rdf:about="">
    <dc:format>image/svg+xml</dc:format>
    <dc:type rdf:resource="http://purl.org/dc/dcmitype/StillImage"/>
    <dc:title/>
   </cc:Work>
  </rdf:RDF>
 </metadata>
 <g id="layer1" transform="translate(-323.81 -481.14)">
  <g id="g72614" transform="matrix(1.25 0 0 -1.25 276.43 1181.9)" fill="#00a7ea">
   <g id="g72616" clip-path="url(#clipPath72618)" fill="#00a7ea">
    <g id="g72622" transform="translate(48.026 556.58)">
     <path id="path72624" d="m0 0-0.533 0.534 0.86 0.861 0.534-0.534-0.861-0.861zm1.928 1.928-0.533-0.533-0.534 0.533h-1.068l-0.86-0.86 0.214 0.86h-2.659c-0.343 0-0.648-0.274-0.648-0.618 0-0.165 0.065-0.314 0.168-0.426l0.513-0.506c0.034-0.036 0.051-0.079 0.05-0.114 1e-3 -0.085-0.049-0.149-0.182-0.149h-1.08l-0.163-0.649h1.803c0.343 0 0.65 0.271 0.651 0.616-1e-3 0.164-0.065 0.315-0.169 0.425l-0.519 0.515c-0.029 0.029-0.045 0.07-0.045 0.106 0 0.085 0.056 0.153 0.158 0.152h1.099l-0.452-1.814h0.861l0.187 0.747 0.747-0.747h1.067l2.462 2.462h-1.068zm5.629 1.888v-17.677h-17.677v17.677l8.839-8.838 8.838 8.838z" fill="#00a7ea"/>
    </g>
    <g id="g72626" transform="translate(61.477 560.42)">
     <path id="path72628" d="m0 0 4.011-4.022 4.011 4.022v-8.135h-1.813v3.943l-2.198-2.198-2.198 2.198v-3.943h-1.813v8.135z" fill="#00a7ea"/>
    </g>
    <g id="g72630" transform="translate(76.59 556.3)">
     <path id="path72632" d="m0 0c0 1.291-0.986 2.368-2.288 2.368-1.303 0-2.289-1.077-2.289-2.368 0-1.292 0.986-2.368 2.289-2.368 1.302 0 2.288 1.076 2.288 2.368m-6.401 0c0 2.266 1.847 4.112 4.113 4.112 2.265 0 4.112-1.846 4.112-4.112s-1.847-4.113-4.112-4.113c-2.266 0-4.113 1.847-4.113 4.113" fill="#00a7ea"/>
    </g>
    <g id="g72634" transform="translate(77.79 560.33)">
     <path id="path72636" d="M 0,0 2.017,0 3.796,-4.022 5.574,0 7.591,0 3.796,-8.135 0,0 Z" fill="#00a7ea"/>
    </g>
    <path id="path72638" d="m85.8 560.33h1.813v-8.044h-1.813v8.044z"/>
    <g id="g72640" transform="translate(88.735 560.33)">
     <path id="path72642" d="m0 0h4.985v-1.79h-3.173v-1.36h2.493v-1.745h-2.493v-1.359h3.173v-1.79h-4.985v8.044z" fill="#00a7ea"/>
    </g>
    <g id="g72644" transform="translate(94.139 553.77)">
     <path id="path72646" d="m0 0 1.371 1.121c0.351-0.555 0.928-0.996 1.484-0.996 0.532 0 0.77 0.203 0.77 0.577 0 0.363-0.26 0.589-0.94 0.896l-0.453 0.203c-1.212 0.544-1.881 1.439-1.881 2.527 0 1.405 1.167 2.322 2.447 2.322 0.896 0 1.575-0.215 2.255-1.008l-1.224-1.292c-0.407 0.499-0.657 0.601-1.031 0.601-0.305 0-0.623-0.193-0.623-0.555 0-0.419 0.351-0.646 1.088-0.975l0.431-0.192c1.11-0.499 1.755-1.303 1.755-2.413 0-1.451-1.064-2.391-2.56-2.391-1.292 0-2.334 0.532-2.889 1.575" fill="#00a7ea"/>
    </g>
    <g id="g72648" transform="translate(61.103 546.74)">
     <path id="path72650" d="m0 0c0 2.266 1.847 4.113 4.113 4.113 1.382 0 2.617-0.691 3.365-1.745l-1.371-1.122c-0.408 0.657-1.133 1.122-1.994 1.122-1.303 0-2.289-1.076-2.289-2.368s0.986-2.368 2.289-2.368c0.861 0 1.586 0.465 1.994 1.122l1.371-1.122c-0.748-1.054-1.983-1.745-3.365-1.745-2.266 0-4.113 1.847-4.113 4.113" fill="#00a7ea"/>
    </g>
    <g id="g72652" transform="translate(69.169 550.76)">
     <path id="path72654" d="m0 0h1.813v-6.243h3.127v-1.801h-4.94v8.044z" fill="#00a7ea"/>
    </g>
    <g id="g72656" transform="translate(78.89 545.44)">
     <path id="path72658" d="m0 0-0.759 1.678-0.759-1.678h1.518zm-0.759 5.416 3.966-8.135h-1.904l-0.578 1.247h-2.968l-0.578-1.247h-1.903l3.965 8.135z" fill="#00a7ea"/>
    </g>
    <g id="g72660" transform="translate(81.835 544.2)">
     <path id="path72662" d="m0 0 1.371 1.121c0.352-0.555 0.929-0.997 1.484-0.997 0.533 0 0.771 0.204 0.771 0.578 0 0.363-0.261 0.589-0.941 0.895l-0.453 0.204c-1.212 0.544-1.88 1.439-1.88 2.527 0 1.405 1.166 2.322 2.447 2.322 0.895 0 1.575-0.215 2.254-1.008l-1.223-1.291c-0.408 0.498-0.658 0.6-1.031 0.6-0.306 0-0.623-0.193-0.623-0.555 0-0.42 0.351-0.646 1.087-0.975l0.431-0.192c1.11-0.499 1.756-1.303 1.756-2.414 0-1.45-1.065-2.39-2.561-2.39-1.292 0-2.333 0.532-2.889 1.575" fill="#00a7ea"/>
    </g>
    <g id="g72664" transform="translate(87.613 544.2)">
     <path id="path72666" d="m0 0 1.371 1.121c0.35-0.555 0.929-0.997 1.484-0.997 0.533 0 0.77 0.204 0.77 0.578 0 0.363-0.26 0.589-0.94 0.895l-0.453 0.204c-1.213 0.544-1.881 1.439-1.881 2.527 0 1.405 1.167 2.322 2.447 2.322 0.895 0 1.574-0.215 2.255-1.008l-1.223-1.291c-0.409 0.498-0.658 0.6-1.032 0.6-0.306 0-0.622-0.193-0.622-0.555 0-0.42 0.35-0.646 1.087-0.975l0.43-0.192c1.111-0.499 1.756-1.303 1.756-2.414 0-1.45-1.065-2.39-2.56-2.39-1.292 0-2.335 0.532-2.889 1.575" fill="#00a7ea"/>
    </g>
    <path id="path72668" d="m93.844 550.76h1.812v-8.044h-1.812v8.044z"/>
    <g id="g72670" transform="translate(96.347 546.74)">
     <path id="path72672" d="m0 0c0 2.266 1.847 4.113 4.113 4.113 1.383 0 2.617-0.691 3.365-1.745l-1.371-1.122c-0.407 0.657-1.133 1.122-1.994 1.122-1.303 0-2.288-1.076-2.288-2.368s0.985-2.368 2.288-2.368c0.861 0 1.587 0.465 1.994 1.122l1.371-1.122c-0.748-1.054-1.982-1.745-3.365-1.745-2.266 0-4.113 1.847-4.113 4.113" fill="#00a7ea"/>
    </g>
    <g id="g72674" transform="translate(104.07 544.2)">
     <path id="path72676" d="m0 0 1.371 1.121c0.35-0.555 0.929-0.997 1.484-0.997 0.533 0 0.77 0.204 0.77 0.578 0 0.363-0.26 0.589-0.94 0.895l-0.453 0.204c-1.213 0.544-1.881 1.439-1.881 2.527 0 1.405 1.167 2.322 2.447 2.322 0.895 0 1.575-0.215 2.255-1.008l-1.223-1.291c-0.409 0.498-0.658 0.6-1.032 0.6-0.306 0-0.623-0.193-0.623-0.555 0-0.42 0.351-0.646 1.088-0.975l0.43-0.192c1.111-0.499 1.756-1.303 1.756-2.414 0-1.45-1.065-2.39-2.56-2.39-1.292 0-2.334 0.532-2.889 1.575" fill="#00a7ea"/>
    </g>
   </g>
  </g>
 </g>
</svg>
