<?xml version="1.0" encoding="UTF-8" standalone="no"?>
<svg
   xmlns:dc="http://purl.org/dc/elements/1.1/"
   xmlns:cc="http://creativecommons.org/ns#"
   xmlns:rdf="http://www.w3.org/1999/02/22-rdf-syntax-ns#"
   xmlns:svg="http://www.w3.org/2000/svg"
   xmlns="http://www.w3.org/2000/svg"
   xmlns:sodipodi="http://sodipodi.sourceforge.net/DTD/sodipodi-0.dtd"
   xmlns:inkscape="http://www.inkscape.org/namespaces/inkscape"
   version="1.1"
   width="290.00027"
   height="186.88699"
   viewBox="0 0 290.00027 186.88699"
   id="svg2"
   inkscape:version="0.91 r13725"
   sodipodi:docname="Sky Sport - Dark.svg">
  <metadata
     id="metadata18">
    <rdf:RDF>
      <cc:Work
         rdf:about="">
        <dc:format>image/svg+xml</dc:format>
        <dc:type
           rdf:resource="http://purl.org/dc/dcmitype/StillImage" />
        <dc:title></dc:title>
      </cc:Work>
    </rdf:RDF>
  </metadata>
  <defs
     id="defs16" />
  <sodipodi:namedview
     pagecolor="#ffffff"
     bordercolor="#666666"
     borderopacity="1"
     objecttolerance="10"
     gridtolerance="10"
     guidetolerance="10"
     inkscape:pageopacity="0"
     inkscape:pageshadow="2"
     inkscape:window-width="690"
     inkscape:window-height="480"
     id="namedview14"
     showgrid="false"
     fit-margin-top="0"
     fit-margin-left="0"
     fit-margin-right="0"
     fit-margin-bottom="0"
     inkscape:zoom="0.96"
     inkscape:cx="145"
     inkscape:cy="93.444"
     inkscape:window-x="0"
     inkscape:window-y="0"
     inkscape:window-maximized="0"
     inkscape:current-layer="svg2" />
  <path
     d="m 288.821,142.236 -13.904,0 3.242,-12.143 c 0.375,-1.38 -0.069,-2.003 -1.559,-2.003 l -5.876,0 c -1.45,0 -2.954,1.161 -3.336,2.556 l -9.641,35.867 c -0.023,0.078 -0.023,0.148 -0.023,0.218 l -0.016,0 c -0.117,0.64 -0.102,0.772 -0.102,1.341 0,2.899 1.512,4.295 2.245,4.996 1.363,1.263 3.959,1.972 7.053,1.972 l 8.955,0 3.733,0 1.216,-0.016 c 0.678,-0.023 2.377,-2.806 2.985,-5.206 0.179,-0.771 0.327,-1.527 0.343,-2.206 l 0.008,-0.086 c 0,-0.179 -0.055,-0.312 -0.156,-0.428 -0.141,-0.156 -0.358,-0.203 -2.197,-0.203 l -13.53,0 0.063,-0.078 4.458,-16.585 13.826,0 c 0.958,0 2.299,-2.089 2.992,-4.652 0.219,-0.811 0.343,-1.567 0.382,-2.229 l 0.016,0 c 0.039,-0.639 -0.429,-1.115 -1.177,-1.115 m -114.077,9.5 -3.702,13.881 c -0.327,1.364 -0.646,1.481 -3.25,1.481 l -13.272,0 4.521,-16.851 c 4.895,0 11.714,-0.016 13.249,-0.016 2.618,0.001 2.851,0.126 2.454,1.505 m 8.495,-7.669 c -1.434,-1.2 -4.123,-1.987 -7.419,-1.987 l -1.186,0 c -0.327,-0.023 -0.592,-0.039 -0.74,-0.039 l -15.026,0 -5.604,0 c -0.155,0 -0.312,0.023 -0.483,0.055 -1.52,0.023 -2.058,0.219 -2.548,1.801 -0.125,0.218 -0.227,0.452 -0.297,0.693 l -10.911,40.847 c -0.374,1.396 0.803,1.45 2.261,1.45 l 5.315,0 c 1.449,0 2.953,-1.138 3.335,-2.549 l 2.424,-9.088 14.613,0 c 3.297,0 6.384,-0.756 8.441,-1.979 1.395,-0.803 4.754,-2.806 5.978,-7.381 l 3.857,-14.426 c 1.216,-4.568 -1.067,-6.586 -2.01,-7.397 m 76.613,-0.989 0,0 c 0.062,-0.655 -0.405,-1.146 -1.131,-1.146 l -1.355,0 0,-0.015 -11.987,0 c -3.297,0 -6.414,0.771 -8.464,1.979 -1.38,0.818 -4.762,2.837 -5.985,7.403 l -0.047,0.164 -0.616,2.354 -5.308,19.827 c -0.366,1.396 0.834,1.458 2.269,1.458 l 5.308,0 c 1.449,0 2.962,-1.153 3.328,-2.541 l 5.557,-20.825 c 0.335,-1.379 0.662,-1.504 3.273,-1.504 0.538,0 1.621,0 3.047,0.016 l 7.412,0 0,-0.016 1.255,0 c 0.99,0 2.385,-2.385 3.078,-4.941 0.21,-0.787 0.327,-1.567 0.366,-2.213 m -43.957,8.658 -3.702,13.881 c -0.327,1.364 -0.646,1.481 -3.266,1.481 l -7.771,0 -3.055,0 c -2.604,0 -2.853,-0.117 -2.447,-1.481 l 3.694,-13.881 c 0.343,-1.379 0.646,-1.504 3.258,-1.504 0.561,0 1.052,0 2.463,0.016 1.293,0 7.809,-0.016 8.378,-0.016 2.58,0 2.845,0.125 2.448,1.504 m 10.545,-0.437 c 1.224,-4.566 -1.067,-6.585 -2.026,-7.403 -1.419,-1.208 -4.107,-1.979 -7.404,-1.979 l -13.522,0 c -3.312,0 -6.43,0.771 -8.472,1.979 -1.379,0.818 -4.746,2.837 -5.978,7.403 l -0.047,0.164 -3.85,14.426 c -1.216,4.575 1.091,6.578 2.034,7.381 1.41,1.224 4.099,1.979 7.403,1.979 l 13.522,0 c 3.305,0 6.406,-0.756 8.464,-1.979 1.388,-0.803 4.747,-2.806 5.97,-7.381 l 2.386,-8.924 1.52,-5.666 z m -127.654,-9.344 -8.137,7.739 -8.144,-7.739 -0.109,0 -7.575,7.451 8.05,7.653 -11.581,10.989 7.716,7.451 35.306,-33.545 -15.526,0 z m -24.106,7.451 -7.646,-7.451 -0.07,0 -11.324,10.763 2.946,-10.764 -38.891,-0.008 c -5.019,0 -9.469,3.718 -9.469,8.41 0,2.244 0.927,4.302 2.447,5.806 l 7.505,6.905 c 0.483,0.491 0.756,1.068 0.756,1.567 0,1.13 -0.756,2.026 -2.697,2.026 l -15.798,0 -2.439,8.84 26.413,0 c 5.019,0 9.508,-3.702 9.516,-8.401 0,-2.229 -0.935,-4.271 -2.455,-5.799 l -7.583,-6.999 c -0.421,-0.413 -0.67,-0.959 -0.67,-1.449 0,-1.154 0.834,-2.05 2.323,-2.05 l 16.046,0 -6.671,24.698 12.541,0 2.868,-10.576 11.161,10.576 0.047,0 7.638,-7.451 -8.067,-7.661 11.573,-10.982 z m 62.475,7.849 c -2.385,-1.474 -9.618,-2.705 -12.485,-3.398 -1.988,-0.491 -4.381,-0.803 -3.882,-2.12 0.366,-0.95 1.785,-1.473 3.99,-1.504 1.926,0 14.092,0.016 16.18,0 1.162,0 2.783,-1.005 4.007,-5.557 0.646,-2.439 -0.289,-2.455 -1.723,-2.455 l -21.129,0 c -3.305,0 -6.313,1.894 -8.69,4.965 -2.393,3.086 -3.64,6.804 -3.258,8.916 0.476,2.509 2.549,3.857 5.417,4.824 2.853,0.966 7.248,1.886 9.384,2.439 2.307,0.607 6.063,0.873 5.439,2.236 -0.451,1.006 -0.997,1.543 -3.258,1.497 -2.603,-0.047 -14.285,-0.016 -16.546,0 -2.557,0.03 -3.787,2.182 -4.762,5.884 -0.608,2.26 -0.094,2.268 2.081,2.268 l 17.832,0 c 3.297,0 6.398,-0.756 8.448,-1.979 1.388,-0.803 4.77,-2.806 5.985,-7.381 1.553,-5.814 -0.52,-7.093 -3.03,-8.635"
     id="path4"
     inkscape:connector-curvature="0"
     style="fill:#1e1b1f" />
  <path
     d="m 82.521,141.823 -7.771,7.646 -7.81,-7.63 15.581,-0.016 z m -11.286,26.155 -7.817,7.615 15.681,-0.016 -7.864,-7.599 z"
     id="path6"
     inkscape:connector-curvature="0"
     style="fill:#77787a" />
  <path
     d="m 212.988,64.875 c 0,35.836 -29.398,64.868 -65.631,64.868 -36.265,0 -65.655,-29.032 -65.655,-64.868 C 81.702,29.04 111.092,0 147.357,0 c 36.232,0 65.631,29.04 65.631,64.875"
     id="path8"
     inkscape:connector-curvature="0"
     style="fill:#1a171b" />
  <path
     d="m 185.375,44.962 c -14.161,11.94 -19.173,12.322 -39.725,-0.514 l -0.07,0.124 c 15.627,15.175 16.001,27.848 -0.141,42.25 l 0.109,0.125 c 16.414,-10.623 24.683,-13.787 39.211,-1.38 l 0.054,-0.101 c -9.11,-13.904 -9.11,-25.634 0.655,-40.403 l -0.093,-0.101 z"
     id="path10"
     inkscape:connector-curvature="0"
     style="fill:#e2e3e4" />
  <path
     d="m 111.942,20.856 c 1.831,-0.031 3.818,0.147 8.02,0.756 4.855,0.709 21.722,6.788 34.246,14.535 6.359,3.959 9.836,4.809 12.47,4.809 1.785,0 4.583,-1.434 11.083,-7.35 6.375,-5.79 7.17,-6.952 8.051,-8.472 0.312,-0.545 0.538,-0.865 0.67,-1.06 -10.202,-9.563 -23.974,-15.447 -39.14,-15.447 -13.39,10e-4 -25.681,4.584 -35.4,12.229 m 67.081,78.218 c -2.369,-2.673 -7.903,-7.614 -13.172,-7.888 -5.284,-0.272 -8.697,3.032 -17.746,7.35 -10.678,5.074 -19.688,7.615 -23.568,8.737 -3.383,0.981 -8.854,1.87 -12.244,1.894 9.656,7.467 21.822,11.948 35.049,11.948 14.847,0 28.361,-5.627 38.493,-14.84 -0.999,-1.543 -4.685,-4.746 -6.812,-7.201 m 25.221,-34.207 c 0,-11.137 -3.297,-21.519 -8.939,-30.255 0.49,1.8 0.576,3.405 0.343,5.627 -0.687,6.641 -2.907,13.133 -4.154,16.367 -1.263,3.25 -2.767,8.051 -2.635,10.163 0.141,2.119 0.546,2.548 1.107,5.089 0.553,2.533 5.12,11.434 5.408,18.76 0.094,2.634 -0.054,3.788 -0.413,5.026 5.837,-8.846 9.283,-19.414 9.283,-30.777 M 137.84,75.958 c 3.219,-4.045 4.708,-5.37 4.708,-8.908 0,-3.522 -0.406,-4.225 -6.08,-11.426 -9.173,-11.597 -21.354,-25.688 -27.729,-28.089 -1.481,-0.553 -2.292,-0.857 -3.079,-0.919 -9.438,10.03 -15.221,23.467 -15.221,38.251 0,14.73 5.729,28.12 15.097,38.143 0.288,0.016 0.576,0.016 0.85,0.016 1.667,0 2.291,-0.482 4.021,-1.255 5.4,-2.386 22.726,-19.898 27.433,-25.813"
     id="path12"
     inkscape:connector-curvature="0"
     style="fill:#e2003b" />
</svg>
