<svg height="6.927215mm" viewBox="0 0 86.102373 24.54525" width="24.300003mm" xmlns="http://www.w3.org/2000/svg" xmlns:xlink="http://www.w3.org/1999/xlink"><clipPath id="a"><path d="m396.141 579.373h72.426v24.803h-72.426z"/></clipPath><g clip-path="url(#a)" transform="matrix(1.25 0 0 -1.25 -497.39138 751.99112)"><g transform="translate(409.0851 597.3593)"><path d="m0 0-.589.589.95.95.589-.589zm2.129 2.129-.589-.59-.59.59h-1.178l-.95-.951.237.951h-2.936c-.379-.001-.715-.303-.715-.684 0-.181.071-.346.185-.469l.566-.56c.038-.039.057-.086.056-.125.001-.093-.055-.165-.202-.165h-1.192l-.179-.715h1.99c.379 0 .718.299.718.679 0 .181-.071.348-.186.47l-.573.568c-.032.032-.05.078-.05.117 0 .093.063.168.175.168h1.213l-.499-2.002h.951l.206.824.824-.824h1.178l2.718 2.718zm6.213 2.084v-19.515h-19.514v19.515l9.758-9.757z" fill="#a8d81b"/></g><g transform="translate(423.9355 601.5929)"><path d="m0 0 4.428-4.44 4.427 4.44v-8.98h-2v4.352l-2.427-2.426-2.427 2.426v-4.352h-2.001z" fill="#a8d81b"/></g><g transform="translate(440.6196 597.0529)"><path d="m0 0c0 1.426-1.088 2.614-2.526 2.614-1.439 0-2.527-1.188-2.527-2.614s1.088-2.614 2.527-2.614c1.438 0 2.526 1.188 2.526 2.614m-7.066 0c0 2.501 2.038 4.54 4.54 4.54 2.501 0 4.54-2.039 4.54-4.54 0-2.502-2.039-4.54-4.54-4.54-2.502 0-4.54 2.038-4.54 4.54" fill="#a8d81b"/></g><g transform="translate(441.9445 601.4928)"><path d="m0 0h2.227l1.964-4.44 1.963 4.44h2.227l-4.19-8.98z" fill="#a8d81b"/></g><path d="m450.787 601.493h2.001v-8.88h-2.001z" fill="#a8d81b"/><g transform="translate(454.0262 601.4928)"><path d="m0 0h5.503v-1.976h-3.503v-1.501h2.753v-1.926h-2.753v-1.501h3.503v-1.976h-5.503z" fill="#a8d81b"/></g><g transform="translate(459.9915 594.2509)"><path d="m0 0 1.513 1.238c.388-.613 1.026-1.1 1.639-1.1.588 0 .85.225.85.638 0 .4-.287.65-1.038.988l-.5.225c-1.338.6-2.077 1.588-2.077 2.789 0 1.551 1.289 2.564 2.702 2.564.989 0 1.739-.238 2.489-1.113l-1.35-1.426c-.45.55-.726.663-1.139.663-.337 0-.688-.213-.688-.613 0-.463.388-.713 1.201-1.076l.476-.212c1.225-.551 1.938-1.439 1.938-2.664 0-1.602-1.175-2.639-2.826-2.639-1.427 0-2.577.587-3.19 1.738" fill="#a8d81b"/></g><g transform="translate(428.188 585.058)"><path d="m0 0-.838 1.851-.838-1.851zm-.838 5.979 4.378-8.981h-2.101l-.638 1.376h-3.277l-.638-1.376h-2.101z" fill="#a8d81b"/></g><g transform="translate(430.9015 586.4969)"><path d="m0 0c0 2.501 2.038 4.54 4.541 4.54 1.525 0 2.889-.763 3.714-1.926l-1.513-1.239c-.451.726-1.251 1.239-2.201 1.239-1.439 0-2.528-1.189-2.528-2.614 0-1.426 1.089-2.615 2.528-2.615.95 0 1.75.513 2.201 1.239l1.513-1.239c-.825-1.162-2.189-1.925-3.714-1.925-2.503 0-4.541 2.038-4.541 4.54" fill="#a8d81b"/></g><g transform="translate(441.6829 588.9601)"><path d="m0 0h-2.126v1.977h6.266v-1.977h-2.139v-6.904h-2.001z" fill="#a8d81b"/></g><path d="m446.584 590.937h2.002v-8.881h-2.002z" fill="#a8d81b"/><g transform="translate(456.4149 586.4969)"><path d="m0 0c0 1.425-1.088 2.614-2.526 2.614s-2.527-1.189-2.527-2.614c0-1.426 1.089-2.615 2.527-2.615s2.526 1.189 2.526 2.615m-7.066 0c0 2.501 2.038 4.54 4.54 4.54 2.501 0 4.54-2.039 4.54-4.54 0-2.502-2.039-4.54-4.54-4.54-2.502 0-4.54 2.038-4.54 4.54" fill="#a8d81b"/></g><g transform="translate(461.192 586.6967)"><path d="m0 0v-4.641h-2.001v8.981l5.603-4.741v4.641h2.001v-8.98z" fill="#a8d81b"/></g></g></svg>