<?xml version="1.0" encoding="UTF-8" standalone="no"?>
<!-- Created with Inkscape (http://www.inkscape.org/) -->

<svg
   xmlns:dc="http://purl.org/dc/elements/1.1/"
   xmlns:cc="http://creativecommons.org/ns#"
   xmlns:rdf="http://www.w3.org/1999/02/22-rdf-syntax-ns#"
   xmlns:svg="http://www.w3.org/2000/svg"
   xmlns="http://www.w3.org/2000/svg"
   xmlns:sodipodi="http://sodipodi.sourceforge.net/DTD/sodipodi-0.dtd"
   xmlns:inkscape="http://www.inkscape.org/namespaces/inkscape"
   width="60.932377mm"
   height="18.90889mm"
   viewBox="0 0 215.90212 67.000002"
   id="svg318912"
   version="1.1"
   inkscape:version="0.91 r13725"
   sodipodi:docname="Sky Arts.svg">
  <defs
     id="defs318914">
    <clipPath
       clipPathUnits="userSpaceOnUse"
       id="clipPath66686">
      <path
         d="m 121.975,619.37 82.8,0 0,24.803 -82.8,0 0,-24.803 z"
         id="path66688"
         inkscape:connector-curvature="0" />
    </clipPath>
  </defs>
  <sodipodi:namedview
     id="base"
     pagecolor="#ffffff"
     bordercolor="#666666"
     borderopacity="1.0"
     inkscape:pageopacity="0.0"
     inkscape:pageshadow="2"
     inkscape:zoom="1.979899"
     inkscape:cx="7.2271058"
     inkscape:cy="16.291351"
     inkscape:document-units="px"
     inkscape:current-layer="layer1"
     showgrid="false"
     fit-margin-top="0"
     fit-margin-left="0"
     fit-margin-right="0"
     fit-margin-bottom="0"
     inkscape:window-width="1920"
     inkscape:window-height="1017"
     inkscape:window-x="-8"
     inkscape:window-y="-8"
     inkscape:window-maximized="1" />
  <metadata
     id="metadata318917">
    <rdf:RDF>
      <cc:Work
         rdf:about="">
        <dc:format>image/svg+xml</dc:format>
        <dc:type
           rdf:resource="http://purl.org/dc/dcmitype/StillImage" />
        <dc:title></dc:title>
      </cc:Work>
    </rdf:RDF>
  </metadata>
  <g
     inkscape:label="Layer 1"
     inkscape:groupmode="layer"
     id="layer1"
     transform="translate(-352.33331,-579.46494)">
    <path
       inkscape:connector-curvature="0"
       id="path66692"
       style="fill:#be1e24;fill-opacity:1;fill-rule:nonzero;stroke:none"
       d="m 450.52239,606.68944 c 1.95493,0 3.57472,-0.6293 4.85939,-1.89162 1.28467,-1.25861 1.92886,-2.78159 1.92886,-4.56895 0,-1.78364 -0.64419,-3.32151 -1.92886,-4.61363 -1.28467,-1.29211 -2.90446,-1.9363 -4.85939,-1.9363 l -8.34847,0 0,13.0105 8.34847,0 z m -8.34847,39.03896 -14.76435,-14.76808 0,-50.75735 24.73262,0 c 2.6438,0 5.14983,0.51015 7.52181,1.52298 2.36825,1.01657 4.44234,2.41667 6.2297,4.2003 1.78364,1.78364 3.18374,3.86145 4.19658,6.2297 1.01656,2.36826 1.52298,4.87429 1.52298,7.52182 0,2.0294 -0.29045,3.98433 -0.87506,5.85733 -0.58462,1.88046 -1.42989,3.61569 -2.53955,5.21686 -1.10593,1.59746 -2.43155,2.99756 -3.96943,4.19658 -0.66654,0.52131 -1.36659,0.99794 -2.10015,1.43361 -0.17874,0.10054 -1.17296,0.66654 -1.17296,0.66654 l 28.63131,28.67971 -20.22326,0 -26.91469,-26.57956 -0.27555,0 0,26.57956 z" />
    <path
       inkscape:connector-curvature="0"
       id="path66696"
       style="fill:#be1e24;fill-opacity:1;fill-rule:nonzero;stroke:none"
       d="m 506.77625,594.78524 0,50.93981 -15.04363,-15.08831 0,-35.8515 -15.59473,0 0,-14.58189 46.23681,0 0,14.58189 -15.59845,0 z" />
    <path
       inkscape:connector-curvature="0"
       id="path66700"
       style="fill:#be1e24;fill-opacity:1;fill-rule:nonzero;stroke:none"
       d="m 553.93281,607.33661 c 4.55033,2.0294 8.07292,4.67693 10.56778,7.93514 2.49113,3.26194 3.73484,7.16807 3.73484,11.72212 0,2.95287 -0.52132,5.63019 -1.56767,8.02823 -1.04635,2.39804 -2.49113,4.44606 -4.33807,6.13661 -1.84322,1.69427 -4.04391,3.00128 -6.59835,3.92102 -2.55444,0.92347 -5.33602,1.38521 -8.35219,1.38521 -5.29134,0 -9.96454,-1.07614 -14.02707,-3.22842 -4.0588,-2.15229 -7.22764,-5.35464 -9.5028,-9.59963 l 11.16356,-9.13788 c 1.415,2.27888 3.21725,4.2003 5.39932,5.77169 2.1858,1.56766 4.41255,2.35336 6.69144,2.35336 4.18168,0 6.27438,-1.57139 6.27438,-4.71045 0,-1.47457 -0.58461,-2.75179 -1.75385,-3.82793 -1.16923,-1.07614 -3.13533,-2.23048 -5.90574,-3.45929 l -3.69015,-1.66076 c -4.98227,-2.21558 -8.78414,-5.09398 -11.39816,-8.63147 -2.61402,-3.53748 -3.92102,-7.52181 -3.92102,-11.94925 0,-2.82999 0.5511,-5.41422 1.66075,-7.75268 1.10593,-2.33847 2.58423,-4.33808 4.43117,-5.99884 1.84322,-1.66075 3.96571,-2.93797 6.36748,-3.82793 2.39804,-0.89368 4.88918,-1.34052 7.4734,-1.34052 3.63058,0 6.90741,0.56972 9.82677,1.70916 2.92308,1.13945 5.77169,3.30662 8.53838,6.50525 l -9.96827,10.51937 c -1.66076,-2.0294 -3.09065,-3.3513 -4.28967,-3.96571 -1.19902,-0.6144 -2.56933,-0.92347 -4.10721,-0.92347 -1.23253,0 -2.38687,0.38354 -3.45929,1.15062 -1.07986,0.7708 -1.61607,1.89535 -1.61607,3.36992 0,1.72406 0.72239,3.13905 2.16718,4.24498 1.44478,1.10966 3.67526,2.33847 6.69143,3.69388 l 3.5077,1.56767 z" />
    <path
       inkscape:connector-curvature="0"
       id="path66704"
       style="fill:#be1e24;fill-opacity:1;fill-rule:nonzero;stroke:none"
       d="m 417.75447,645.79617 0,-65.61107 -65.42116,65.5217 20.48018,0.0112 29.80054,-29.89362 0,14.89468 15.14044,15.07714 z" />
  </g>
</svg>
