<svg width="45.979mm" height="16.649mm" version="1.1" viewBox="0 0 162.92 58.993" xmlns="http://www.w3.org/2000/svg">
 <g transform="translate(-240.52 -355.31)">
  <path d="m293.35 414.31h1.471v-58.993h-1.471v58.993z" fill="#fff"/>
  <path d="m403.44 409.15h-101.62v-46h101.62v46z" fill="#fff"/>
  <path d="m389.57 369.68h5.6871v26.958h4.8216v6.8014h-10.509v-33.76z" fill="#231f20"/>
  <path d="m350.38 385.75c4.0798-0.24732 3.709-5.3175 3.709-5.3175-0.61816-4.9465-3.709-4.6992-3.709-4.6992v10.017zm-13.105 7.7907-1.7308-10.264-1.4836 10.264h3.2144zm-31.279 9.7693v-33.636h7.6652l2.7199 14.097 3.0908-14.097h7.4179v30.297l4.8216-30.297h7.5415l4.698 30.297v-30.174h10.014s3.4617 0.61831 5.1925 5.4411l-0.74179-5.5648h6.058l2.8435 17.436 2.9672-17.313h17.061v6.3068h-5.0689v6.9251h4.8216v7.0487h-4.698v6.4304h4.9453v6.8014h-11.003v-32.399l-5.6871 32.399h-6.7998l-3.5853-21.517s-0.61816 5.9358-3.9562 8.6563l4.3271 12.861h-5.9343l-4.2035-11.253v11.253h-11.992l-0.61816-3.2152h-4.5744l-0.98906 3.2152h-11.374v-12.366l-2.9672 12.366h-3.0908l-2.7199-12.243v12.119l-6.1816 0.12366z" fill="#231f20"/>
  <path d="m286.35 362.27v45.828h-45.83v-45.828l22.916 22.914z" fill="#fff"/>
 </g>
</svg>
