<?xml version="1.0" encoding="UTF-8"?>
<svg id="svg2" width="149.42pt" height="84.63pt" version="1.1" viewBox="0 0 149.42 84.63" xmlns="http://www.w3.org/2000/svg" xmlns:cc="http://creativecommons.org/ns#" xmlns:dc="http://purl.org/dc/elements/1.1/" xmlns:rdf="http://www.w3.org/1999/02/22-rdf-syntax-ns#">
 <metadata id="metadata34">
  <rdf:RDF>
   <cc:Work rdf:about="">
    <dc:format>image/svg+xml</dc:format>
    <dc:type rdf:resource="http://purl.org/dc/dcmitype/StillImage"/>
    <dc:title/>
   </cc:Work>
  </rdf:RDF>
 </metadata>
 <path id="path6" d="m0 21.81c3.54-7.27 7.07-14.55 10.63-21.81 3.53 7.27 7.1 14.53 10.61 21.81h-5.14c-0.52-1.11-1.05-2.21-1.56-3.31-2.61 0-5.22 0-7.82-0.01-0.52 1.11-1.06 2.21-1.58 3.32h-5.14m10.63-11.64c-0.66 1.44-1.31 2.88-1.96 4.32 1.3 0 2.61 0 3.92 0.01-0.65-1.44-1.31-2.89-1.96-4.33z" fill="#fff"/>
 <path id="path8" d="m26.96 0.2268h6.0652c2.7272 0 5.3425 0.31568 7.1248 2.6332 2.64 3.27 0.98 8.29-2.71 9.95 2.28 3 4.6 5.98 6.88 8.99-1.96 0.01-3.91 0.01-5.87 0.01-2.2-2.89-4.39-5.79-6.62-8.66v8.66c-1.63 0-3.26-0.01-4.88-0.01m4.88-17.09v4.25c1.81-0.06 4.82 0.46 4.94-2.19-0.36-2.49-3.15-1.95-4.94-2.06z" fill="#fff"/>
 <path id="path10" d="m48.25 0.32c5.05-0.02 10.09-0.01 15.14 0-0.01 1.6-0.01 3.2-0.01 4.8h-5.11c-0.02 5.56 0 11.13-0.01 16.69-1.63-0.01-3.25-0.01-4.88 0 0-5.56 0.02-11.12 0-16.68-1.71 0-3.41-0.01-5.12-0.01 0-1.6 0-3.2-0.01-4.8z" fill="#fff"/>
 <path id="path12" d="m69.89 9.63c18.52-0.02 37.04-0.01 55.56-0.01-0.01 1.63-0.01 3.25 0 4.88-18.53-0.01-37.05 0.01-55.57-0.01 0.01-1.62 0.01-3.24 0.01-4.86z" fill="#fff"/>
 <path id="path14" d="m59.02 32.56c1.92 0 3.85 0 5.77 0.02 1.52 2.51 3.07 5.01 4.63 7.5 1.56-2.5 3.1-5.02 4.68-7.53 1.9 0.01 3.8 0.01 5.7 0.02-2.56 4.17-5.36 8.2-7.82 12.43-0.24 3.01-0.02 6.04-0.1 9.06-1.64 0-3.28-0.01-4.92-0.01-0.08-3 0.13-6.01-0.09-9.01-2.44-4.26-5.29-8.28-7.85-12.48z" fill="#fff"/>
 <path id="path16" d="m87.56 33.25c5.59-2.71 12.9 0.47 14.83 6.34 2.24 5.72-1.39 12.74-7.32 14.28-5.49 1.72-11.83-1.69-13.48-7.18-1.82-5.16 0.96-11.31 5.97-13.44m2.1 4.27c-4.59 1.84-4.88 9.03-0.5 11.28 3.71 2.29 8.84-0.8 8.92-5.06 0.54-4.36-4.38-8.2-8.42-6.22z" fill="#fff"/>
 <path id="path18" d="m108.21 32.56h4.86c0.13 4.74-0.24 9.49 0.2 14.21 0.76 3.83 7.12 3.63 7.55-0.29 0.32-4.63 0.03-9.28 0.13-13.92h4.87c-0.1 4.94 0.24 9.9-0.19 14.83-0.6 4.41-5.09 7.42-9.41 6.85-4.01-0.06-7.53-3.38-7.88-7.34-0.31-4.78-0.07-9.56-0.13-14.34z" fill="#fff"/>
 <path id="path20" d="m132.01 32.56c4.32 0.47 9.85-1.49 13.07 2.34 2.87 3.3 1.15 8.42-2.56 10.24 2.36 2.92 4.61 5.93 6.9 8.91-1.96 0.01-3.91 0.01-5.87 0.01-2.22-2.9-4.42-5.81-6.65-8.7-0.01 2.9-0.02 5.8-0.02 8.7h-4.86c-0.01-7.17-0.01-14.33-0.01-21.5m4.88 8.66c1.94 0 5.15 0.36 4.95-2.52-0.73-2.16-3.19-1.63-4.95-1.74v4.26z" fill="#fff"/>
 <path id="path22" d="m23.76 40.19c9.1-0.02 18.2 0 27.31-0.01 0 1.67 0 3.33 0.01 5-9.1 0.01-18.21 0.01-27.31 0-0.01-1.66-0.01-3.32-0.01-4.99z" fill="#fff"/>
 <path id="path24" d="m2.94 62.81h15.26l-0.01 4.88-5.1 2e-6c-0.02 5.54-0.01 11.07-0.01 16.61-1.64 0-3.29 0.01-4.93 0.01-0.02-5.54 0-11.08-0.02-16.62l-5.19 2e-6z" fill="#fff"/>
 <path id="path26" d="m24.09 62.81h5.36c1.73 3.5 3.16 7.09 4.81 10.64 1.58-3.55 3.13-7.1 4.71-10.64h5.46c-3.4 7.27-6.77 14.55-10.17 21.82-3.4-7.27-6.79-14.55-10.17-21.82z" fill="#fff"/>
 <path id="path28" d="m51.01 72.32c19.06-0.02 38.12-0.01 57.19 0-0.01 1.66-0.01 3.32 0 4.98-19.06 0.01-38.13 0.02-57.19 0v-4.98z" fill="#fff"/>
</svg>
