<svg id="a" width="199.91pt" height="87.582pt" version="1.1" viewBox="0 0 199.91 87.582" xmlns="http://www.w3.org/2000/svg">
 <g id="b" fill="#1d1d1b">
  <path id="c" d="m99.326 33.982-10.45-10.021 14.936-14.366 10.442 10.034zm35.333-33.978-10.437 10.047-10.442-10.047h-19.94l-14.542 13.985 3.7802-13.985-49.918-4e-3c-6.4552 0-12.161 4.8414-12.161 10.933 0 2.9119 1.1973 5.5738 3.1487 7.534l9.6215 8.968c0.6227 0.64026 0.9648 1.3902 0.9648 2.026 0 1.491-0.956 2.6531-3.4469 2.6531h-20.287l-3.1311 11.463h33.921c6.4509 0 12.2-4.802 12.2-10.893 0-2.9163-1.1971-5.5782-3.153-7.5384l-9.7399-9.0952c-0.5394-0.53501-0.8376-1.2542-0.8376-1.8857 0-1.4954 1.0613-2.6444 2.9733-2.6444h20.598l-8.5821 32.057h16.12l3.6749-13.739 14.309 13.739 19.949-0.0132 45.31-43.56z"/>
  <g id="d" transform="matrix(.3056 0 0 .3056 20.012 85.097)">
   <path id="e" d="m230.03-87.175-9.9313 37.62c-0.88787 3.7162-1.7391 4.0641-8.714 4.0641-1.492 0-17.346-0.04577-20.87-0.01831-3.7346 0.01831-6.6728 0.01831-8.1556 0.01831-6.9931 0-7.6339-0.34783-6.5812-4.0641l9.9314-37.62c0.91533-3.7254 1.7391-4.0824 8.7231-4.0824 1.5011 0 2.8467 0 6.5995 0.01831 3.4966 0.02746 20.915-0.01831 22.416-0.01831 6.9657 0 7.6613 0.35698 6.5812 4.0824m28.265-1.1899c3.2769-12.384-2.8741-17.84-5.4462-20.055-3.762-3.3135-10.993-5.3547-19.835-5.3547h-36.265c-8.833 0-17.172 2.0412-22.654 5.3547-3.7162 2.2151-12.741 7.6705-16 20.055l-0.11899 0.44851h-9e-3l-10.334 39.103c-3.2677 12.384 2.8741 17.821 5.4188 20.055 3.7803 3.2769 11.011 5.3364 19.854 5.3364h36.275c8.8329 0 17.172-2.0595 22.664-5.3364 3.6979-2.2334 12.741-7.6705 16-20.055l6.389-24.183z"/>
   <path id="f" d="m347.85-110.66h0.0183c0.12814-1.7574-1.1442-3.0938-3.0847-3.0938h-3.6613v-0.0183h-32.092c-8.8513 0-17.172 2.0412-22.7 5.3455-3.6888 2.2151-12.732 7.6705-15.982 20.064l-0.12814 0.43936-1.6842 6.3432v0.01831l-14.178 53.776c-1.016 3.7803 2.151 3.9451 6.0412 3.9451h14.224c3.9085 0 7.9359-3.1121 8.9245-6.9108l14.911-56.421c0.88787-3.7254 1.7483-4.0824 8.7414-4.0824 1.4554 0 4.3661 0 8.1281 0.0092h19.881v-0.04577h3.3684c2.6087 0 6.4165-6.4165 8.2563-13.364 0.58581-2.1602 0.89703-4.2197 1.016-6.0046"/>
   <path id="g" d="m119.77-87.175-9.913 37.62c-0.89702 3.7162-1.7483 4.0641-8.7231 4.0641-4.1373 0-22.407-0.03661-35.506-0.03661l12.064-45.684c13.098-0.02746 31.378-0.04577 35.515-0.04577 6.9931 0 7.6522 0.35698 6.5629 4.0824m22.728-20.805c-3.762-3.2769-11.002-5.3455-19.835-5.3455 0 0-4.7872-0.11899-5.1442-0.11899h-40.293v0.0183h-16.302c-4.1281 0.0458-5.7574 0.75058-7.0755 5.0343-0.19222 0.60411-0.38444 1.1899-0.56751 1.8581l-29.208 110.72c-0.99771 3.7712 2.1602 3.9451 6.0503 3.9451h14.243c3.8993 0 7.9085-3.0938 8.9062-6.8924l6.5263-24.659h39.13c8.8421 0 17.172-2.0595 22.664-5.3364 3.7254-2.2334 12.723-7.6705 16.009-20.055l10.307-39.103c3.2769-12.403-2.865-17.84-5.4096-20.064"/>
   <path id="h" d="m425.47-112.94h-37.291l8.6865-32.934c1.0069-3.7712-0.20137-5.4096-4.119-5.4096h-15.789c-3.881 0-7.8993 3.1121-8.897 6.8924l-25.858 97.254c-0.0641 0.23799-0.0641 0.44851-0.0824 0.63158l-0.0549 0.0092c-0.31122 1.7025-0.2563 2.0595-0.2563 3.5881 0 7.9085 4.0641 11.689 6.0229 13.529 3.6796 3.4325 10.581 5.4188 18.911 5.4188h24l10.005-0.01831 3.2311-0.05492c1.8032-0.03661 6.389-7.6156 8-14.124 0.50343-2.087 0.86041-4.1373 0.93364-5.9863l0.0183-0.21053c0-0.48512-0.14645-0.87872-0.40274-1.1899-0.4119-0.43021-0.97025-0.51259-5.8947-0.51259h-36.229l0.10068-0.29291 11.973-44.943h37.025c2.6087 0 6.1876-5.6201 8.0183-12.577 0.60412-2.1785 0.93364-4.2288 1.0343-6.0046h0.0366c0.11899-1.7666-1.1533-3.0664-3.1213-3.0664"/>
   <path id="i" d="m19.052-72.237c-6.3982-3.9634-25.767-7.341-33.465-9.2174-5.3089-1.2815-11.725-2.1419-10.38-5.7025 0.9611-2.5812 4.778-4.0549 10.673-4.0915 5.1442-0.01831 37.785 0.0092 43.368 0 3.1121 0 7.4599-2.746 10.7-15.057 1.7483-6.627-0.75057-6.6728-4.5675-6.6728h-56.632c-8.8513 0-16.906 5.1533-23.304 13.474-6.3982 8.3844-9.7666 18.435-8.7231 24.156 1.2723 6.8009 6.8192 10.453 14.517 13.071 7.6705 2.6545 19.432 5.1075 25.153 6.6636 6.1968 1.6201 16.238 2.2883 14.581 6.0412-1.2265 2.7094-2.6911 4.2014-8.7231 4.0824-6.984-0.16476-38.279-0.06407-44.348 0-6.8467 0.07323-10.124 5.8764-12.751 15.918-1.6293 6.1053-0.2746 6.151 5.5744 6.151h47.762c8.8329 0 17.162-2.0595 22.682-5.3364 3.7071-2.2334 12.732-7.6613 15.991-20.055 4.1556-15.744-1.373-19.222-8.1098-23.423"/>
  </g>
 </g>
 <path id="j" d="m196.78 9.931h-0.18085c-2.1444 0-5.3567 0.999-7.148 2.2047l-15.467 10.489c-0.90427 0.61146-1.8344 1.6105-2.5664 2.7386l-0.69758 0.43922-0.26697 1.2057c-0.27559 0.59423-0.48228 1.1712-0.60285 1.6966l-0.25836 1.1626c-0.11195 0.42199-0.0775 0.80092-0.0431 1.1712l-0.84398 3.686h5.684c0.62007 0.7148 0.90426 1.7224 0.6459 2.9109l-8.1986 36.265c-0.47366 2.1358 0.87843 3.8926 3.0228 3.8926h11.609c2.1444 0 4.2888-1.7569 4.7883-3.8926l13.547-60.069c0.49088-2.1444-0.86982-3.9013-3.0228-3.9013" fill="#1d1d1b"/>
</svg>
