<?xml version="1.0" encoding="UTF-8"?>
<svg id="svg21" width="192.38pt" height="137.83pt" version="1.1" viewBox="0 0 192.38 137.83" xmlns="http://www.w3.org/2000/svg" xmlns:cc="http://creativecommons.org/ns#" xmlns:dc="http://purl.org/dc/elements/1.1/" xmlns:rdf="http://www.w3.org/1999/02/22-rdf-syntax-ns#">
 <metadata id="metadata27">
  <rdf:RDF>
   <cc:Work rdf:about="">
    <dc:format>image/svg+xml</dc:format>
    <dc:type rdf:resource="http://purl.org/dc/dcmitype/StillImage"/>
    <dc:title/>
   </cc:Work>
  </rdf:RDF>
 </metadata>
 <g id="g4547">
  <path id="path2" transform="scale(.75)" d="m185.29 0.039062-5.5996 5.6406h34.014l-0.13281 172.76-207.93 0.05274v-59.773l-5.6406 5.2539v59.801h219.21l-0.05468-151.64h14.879v136.84l5.6406-5.6328v-104.66h11.414v93.26l5.6406-5.6328v-93.268h-17.055v-26.547h-20.52l0.10742-26.453h-33.975z" stroke-width="1.3333"/>
  <path id="path4" d="m78.57 20.14c6.31-0.98 13.19 0.2 18.34 4.13 7.78 5.35 12.04 15.47 10.22 24.76-2.05 11.13-12.28 20.5-23.82 20.29-11.93 0.79-23.34-8.74-24.93-20.53-2.83-12.98 7.03-26.97 20.19-28.65m-0.86 11.17c-5.38 1.92-9.1 7.81-8.79 13.49-0.23 7.54 6.74 14.79 14.46 13.89 9.83 0.18 16.19-12.17 11.57-20.46-2.69-6.49-10.82-9.6-17.24-6.92z"/>
  <path id="path8" d="m22.54 20.97 18.83-0.02c5.39-0.08 10.06 4.05 12.17 8.75 1.31 4.41 1.38 9.95-2.32 13.27 3.04 2.1 5.84 5.08 6.32 8.9 1.87 8.08-5.27 16.27-13.33 16.53l-21.68 0.04 0.01-47.47m10.74 9.7v9.37c3.9926 0 7.3211 0.32184 9.2048-1.2186 0.69645-0.56956 1.1854-1.2861 1.5037-2.047 0.81129-1.9398-0.25698-4.5205-2.2288-5.3643-1.8984-0.89887-3.5574-0.74-8.4798-0.74m0 18.39v9.25l9.722 0.01503c0.9319 0.0014 1.941-0.33 2.6103-0.80668 2.8566-2.0346 2.0437-6.7161-1.1155-8.0714-0.73542-0.3155-1.4838-0.40093-2.24-0.39984z"/>
  <path id="path10" d="m100.73 20.94h12.29l9.27 15.81 8.66-15.81h12.58l-13.95 23.67 15.05 23.84h-12.42l-9.94-16.41-10.13 16.41h-12.73l15.11-23.93z"/>
  <path id="path12" d="m27.53 73.02c6.86-4.53 16.45-2.4 21.71 3.62l-7.46 7.75c-1.58-1.49-3.02-3.56-5.39-3.74-2.62-0.55-5.74 2.49-3.98 5.01 3.22 4.29 9.29 4.37 13.1 7.96 8.08 5.32 7.5 19.72-1.51 23.79-8.51 4.17-20.54 1.19-24.93-7.57l8.05-6.52c2.64 3.55 7.28 7.62 11.91 5.16 2.74-1.89 0.98-5.79-1.64-6.77-5.37-2.51-11.71-4.76-14.45-10.49-3.7-6-1.51-14.69 4.59-18.2z"/>
  <path id="path14" d="m52.5 71.2 29.25 0.06-0.05 10.48-18.47-0.01v8.17h14.66l0.04 10.31-14.63-0.04-0.09 7.92 18.6-0.02 0.02 10.61-29.35-0.04z"/>
  <path id="path16" d="m82.81 71.25 33.33-0.01v10.4l-11.52 0.12 0.03 36.92-10.81-0.02 0.04-36.93-11 0.01z"/>
  <path id="path18" d="m121.12 74.52c6.47-5.92 17.67-4.96 23.21 1.77l-6.89 8.13c-1.74-2.01-4.13-4.49-7.09-3.62-2.68 0.35-3.42 3.86-1.73 5.71 3.71 3.33 9.06 3.91 12.79 7.26 7.25 5.17 7.39 16.93 0.44 22.4-8.69 5.91-22.08 3.11-27.24-6.17l8.1-6.62c2.56 3.1 6.19 6.66 10.61 5.67 2.34-0.29 3.89-3.39 2.16-5.24-3.35-3.77-8.97-4.13-12.64-7.55-6.96-4.73-8.07-16.08-1.72-21.74z"/>
 </g>
</svg>
