<?xml version="1.0" encoding="UTF-8" standalone="no"?>
<!-- Created with Inkscape (http://www.inkscape.org/) -->

<svg
   xmlns:dc="http://purl.org/dc/elements/1.1/"
   xmlns:cc="http://creativecommons.org/ns#"
   xmlns:rdf="http://www.w3.org/1999/02/22-rdf-syntax-ns#"
   xmlns:svg="http://www.w3.org/2000/svg"
   xmlns="http://www.w3.org/2000/svg"
   xmlns:sodipodi="http://sodipodi.sourceforge.net/DTD/sodipodi-0.dtd"
   xmlns:inkscape="http://www.inkscape.org/namespaces/inkscape"
   width="13.108517mm"
   height="8.749877mm"
   viewBox="0 0 46.4475 31.003501"
   id="svg89063"
   version="1.1"
   inkscape:version="0.91 r13725"
   sodipodi:docname="Sky Sport 1.svg">
  <defs
     id="defs89065">
    <clipPath
       clipPathUnits="userSpaceOnUse"
       id="clipPath2054">
      <path
         d="m 211.635,499.869 82.8,0 0,24.803 -82.8,0 0,-24.803 z"
         id="path2056"
         inkscape:connector-curvature="0" />
    </clipPath>
    <clipPath
       clipPathUnits="userSpaceOnUse"
       id="clipPath2038">
      <path
         d="m 234.455,499.869 37.158,0 0,24.803 -37.158,0 0,-24.803 z"
         id="path2040"
         inkscape:connector-curvature="0" />
    </clipPath>
    <clipPath
       clipPathUnits="userSpaceOnUse"
       id="clipPath2026">
      <path
         d="m 211.635,499.869 82.8,0 0,24.803 -82.8,0 0,-24.803 z"
         id="path2028"
         inkscape:connector-curvature="0" />
    </clipPath>
  </defs>
  <sodipodi:namedview
     id="base"
     pagecolor="#ffffff"
     bordercolor="#666666"
     borderopacity="1.0"
     inkscape:pageopacity="0.0"
     inkscape:pageshadow="2"
     inkscape:zoom="7.9195959"
     inkscape:cx="-8.44757"
     inkscape:cy="-22.380409"
     inkscape:document-units="px"
     inkscape:current-layer="layer1"
     showgrid="false"
     fit-margin-top="0"
     fit-margin-left="0"
     fit-margin-right="0"
     fit-margin-bottom="0"
     inkscape:window-width="1920"
     inkscape:window-height="1017"
     inkscape:window-x="-8"
     inkscape:window-y="-8"
     inkscape:window-maximized="1" />
  <metadata
     id="metadata89068">
    <rdf:RDF>
      <cc:Work
         rdf:about="">
        <dc:format>image/svg+xml</dc:format>
        <dc:type
           rdf:resource="http://purl.org/dc/dcmitype/StillImage" />
        <dc:title></dc:title>
      </cc:Work>
    </rdf:RDF>
  </metadata>
  <g
     inkscape:label="Layer 1"
     inkscape:groupmode="layer"
     id="layer1"
     transform="translate(-273.91911,-514.0033)">
    <g
       transform="matrix(1.25,0,0,-1.25,-19.149643,1169.8433)"
       id="g2022">
      <g
         id="g2024"
         clip-path="url(#clipPath2026)">
        <g
           id="g2030"
           transform="translate(261.5956,516.2617)">
          <path
             d="m 0,0 c 0,-4.644 -3.765,-8.41 -8.411,-8.41 -4.644,0 -8.41,3.766 -8.41,8.41 0,4.644 3.766,8.411 8.41,8.411 C -3.765,8.411 0,4.644 0,0"
             style="fill:#231f20;fill-opacity:1;fill-rule:nonzero;stroke:none"
             id="path2032"
             inkscape:connector-curvature="0" />
        </g>
      </g>
    </g>
    <g
       transform="matrix(1.25,0,0,-1.25,-19.149643,1169.8433)"
       id="g2034">
      <g
         id="g2036"
         clip-path="url(#clipPath2038)">
        <g
           id="g2042"
           transform="translate(251.9687,514.8239)">
          <path
             d="m 0,0 c 0.411,0.525 0.603,0.697 0.603,1.154 0,0.457 -0.052,0.549 -0.781,1.482 -1.173,1.505 -2.735,3.331 -3.552,3.642 -0.191,0.073 -0.293,0.113 -0.394,0.12 -1.21,-1.3 -1.95,-3.044 -1.95,-4.96 0,-1.909 0.734,-3.645 1.934,-4.944 0.036,-0.002 0.075,-0.006 0.109,-0.006 0.213,0 0.294,0.066 0.515,0.166 C -2.825,-3.037 -0.604,-0.767 0,0 M 8.507,1.438 C 8.507,2.882 8.086,4.227 7.362,5.36 7.426,5.128 7.435,4.919 7.406,4.63 7.317,3.771 7.032,2.93 6.873,2.509 6.713,2.086 6.518,1.465 6.535,1.191 6.554,0.917 6.607,0.861 6.679,0.531 6.748,0.204 7.335,-0.95 7.371,-1.9 7.385,-2.243 7.364,-2.392 7.317,-2.552 c 0.751,1.146 1.19,2.517 1.19,3.99 M 5.275,-2.998 c -0.302,0.347 -1.012,0.987 -1.688,1.023 -0.674,0.037 -1.114,-0.393 -2.272,-0.951 -1.369,-0.658 -2.523,-0.987 -3.02,-1.135 -0.434,-0.126 -1.136,-0.24 -1.569,-0.244 1.239,-0.968 2.797,-1.549 4.49,-1.549 1.903,0 3.635,0.73 4.933,1.924 -0.127,0.199 -0.601,0.616 -0.874,0.932 M -3.319,7.145 C -3.085,7.149 -2.83,7.126 -2.291,7.047 -1.668,6.954 0.492,6.167 2.096,5.161 2.913,4.649 3.358,4.54 3.694,4.54 c 0.232,0 0.586,0.185 1.42,0.951 0.817,0.75 0.917,0.902 1.031,1.098 0.042,0.071 0.069,0.112 0.087,0.138 -1.306,1.24 -3.072,2.002 -5.016,2.002 -1.714,0 -3.29,-0.593 -4.535,-1.584"
             style="fill:#ed1443;fill-opacity:1;fill-rule:nonzero;stroke:none"
             id="path2044"
             inkscape:connector-curvature="0" />
        </g>
        <g
           id="g2046"
           transform="translate(252.0305,503.7112)">
          <path
             d="m 0,0 c -0.306,0.189 -1.233,0.351 -1.601,0.441 -0.254,0.062 -0.56,0.103 -0.497,0.273 0.047,0.122 0.229,0.193 0.512,0.195 0.246,0.002 1.806,0 2.074,0 C 0.636,0.909 0.843,1.041 1,1.63 1.083,1.948 0.963,1.949 0.781,1.949 l -2.709,0 c -0.423,0 -0.808,-0.246 -1.114,-0.644 -0.306,-0.401 -0.467,-0.882 -0.416,-1.156 0.06,-0.325 0.325,-0.499 0.693,-0.625 0.367,-0.126 0.929,-0.244 1.203,-0.319 0.296,-0.077 0.777,-0.109 0.697,-0.288 -0.058,-0.131 -0.128,-0.2 -0.417,-0.196 -0.334,0.008 -1.83,0.004 -2.121,0 -0.327,-0.002 -0.484,-0.281 -0.609,-0.76 -0.078,-0.292 -0.014,-0.295 0.267,-0.295 l 2.283,0 c 0.422,0 0.821,0.099 1.084,0.257 0.178,0.104 0.609,0.365 0.765,0.958 C 0.587,-0.367 0.322,-0.2 0,0 m -8.007,1.019 -0.978,0.965 -0.008,0 -1.451,-1.396 0.377,1.396 -4.984,0.001 c -0.643,0 -1.214,-0.483 -1.214,-1.092 0,-0.291 0.12,-0.557 0.315,-0.752 l 0.96,-0.895 c 0.063,-0.064 0.096,-0.138 0.096,-0.203 0,-0.148 -0.095,-0.264 -0.344,-0.264 l -2.025,0 -0.313,-1.145 3.387,0 c 0.644,0 1.217,0.48 1.218,1.087 0,0.291 -0.12,0.557 -0.315,0.753 l -0.971,0.908 c -0.054,0.054 -0.085,0.126 -0.085,0.188 0,0.15 0.106,0.263 0.297,0.263 l 2.056,0 -0.856,-3.199 1.609,0 0.367,1.371 1.429,-1.371 0.006,0 0.98,0.965 -1.034,0.993 1.481,1.427 z m 3.089,0.965 -1.042,-1.003 -1.043,1.003 -0.013,0 -0.972,-0.967 1.032,-0.992 -1.483,-1.427 0.988,-0.964 4.525,4.35 -1.992,0 z M 11.441,0.772 c 0.156,0.592 -0.138,0.853 -0.261,0.959 -0.181,0.157 -0.526,0.256 -0.949,0.256 l -1.734,0 C 8.075,1.987 7.677,1.888 7.414,1.731 7.236,1.625 6.805,1.364 6.649,0.772 l -0.006,-0.021 -0.002,0 -0.493,-1.87 c -0.156,-0.593 0.138,-0.854 0.26,-0.958 0.181,-0.158 0.526,-0.257 0.949,-0.257 l 1.735,0 c 0.422,0 0.82,0.099 1.084,0.257 0.177,0.104 0.608,0.365 0.765,0.958 l 0.304,1.156 0.196,0.735 z M 10.088,0.714 9.613,-1.084 C 9.572,-1.262 9.531,-1.279 9.198,-1.279 c -0.072,0 -0.83,0.003 -0.999,10e-4 -0.178,-10e-4 -0.319,-10e-4 -0.39,-10e-4 -0.335,0 -0.365,0.017 -0.314,0.195 l 0.474,1.798 c 0.044,0.179 0.084,0.195 0.416,0.195 l 0.317,0 c 0.167,-0.002 1,0 1.071,0 0.333,0 0.367,-0.016 0.315,-0.195 m 5.634,1.124 0.002,0 C 15.73,1.922 15.67,1.987 15.576,1.987 l -0.175,0 -1.534,0 C 13.443,1.987 13.045,1.888 12.781,1.731 12.604,1.625 12.172,1.364 12.016,0.772 l -0.005,-0.021 -0.08,-0.304 0,-0.001 -0.679,-2.572 c -0.048,-0.179 0.103,-0.188 0.288,-0.188 l 0.682,0 c 0.187,0 0.379,0.148 0.425,0.33 l 0.714,2.698 c 0.043,0.179 0.083,0.195 0.418,0.195 l 0.39,0 C 14.27,0.908 14.702,0.908 15.117,0.908 l 0,0.003 0.163,0 c 0.123,0 0.306,0.308 0.394,0.64 0.029,0.104 0.043,0.202 0.048,0.287 M 5.902,1.709 C 5.722,1.867 5.376,1.965 4.954,1.965 l -0.153,0 C 4.76,1.969 4.725,1.971 4.707,1.971 l -1.925,0 -0.718,0 C 2.043,1.971 2.023,1.968 2.003,1.964 1.806,1.962 1.739,1.937 1.675,1.731 1.659,1.703 1.646,1.673 1.636,1.642 L 0.24,-3.653 C 0.191,-3.835 0.343,-3.842 0.529,-3.842 l 0.681,0 c 0.187,0 0.378,0.148 0.426,0.329 l 0.312,1.179 1.871,0 c 0.423,0 0.821,0.099 1.084,0.257 0.178,0.104 0.608,0.365 0.766,0.958 l 0.493,1.87 C 6.318,1.343 6.024,1.604 5.902,1.709 M 4.816,0.714 4.342,-1.084 C 4.3,-1.262 4.259,-1.279 3.925,-1.279 c -0.198,0 -1.072,0.002 -1.698,0.002 l 0.576,2.184 c 0.627,0.001 1.501,0.002 1.699,0.002 0.334,0 0.365,-0.016 0.314,-0.195 m 14.618,1.234 -1.783,0 0.416,1.574 c 0.049,0.18 -0.01,0.258 -0.197,0.258 l -0.755,0 c -0.187,0 -0.379,-0.148 -0.427,-0.33 L 15.452,-1.199 C 15.45,-1.212 15.45,-1.221 15.448,-1.23 l -0.002,-0.001 c -0.015,-0.081 -0.012,-0.098 -0.012,-0.171 0,-0.378 0.194,-0.559 0.288,-0.647 0.175,-0.164 0.505,-0.258 0.904,-0.258 l 1.148,0 0.478,10e-4 0.155,0.002 c 0.086,10e-4 0.304,0.363 0.383,0.674 0.023,0.1 0.041,0.198 0.045,0.286 l 0,0.011 c 0,0.023 -0.008,0.042 -0.02,0.057 -0.02,0.02 -0.046,0.025 -0.281,0.025 l -1.733,0 0.005,0.013 0.572,2.149 1.771,0 c 0.124,0 0.296,0.269 0.384,0.602 0.028,0.104 0.043,0.203 0.049,0.288 l 0.002,0 c 0.005,0.083 -0.056,0.147 -0.15,0.147"
             style="fill:#ffffff;fill-opacity:1;fill-rule:nonzero;stroke:none"
             id="path2048"
             inkscape:connector-curvature="0" />
        </g>
      </g>
    </g>
    <g
       transform="matrix(1.25,0,0,-1.25,-19.149643,1169.8433)"
       id="g2050">
      <g
         id="g2052"
         clip-path="url(#clipPath2054)">
        <g
           id="g2058"
           transform="translate(243.0326,505.7101)">
          <path
             d="M 0,0 1.001,-0.988 1.996,0.002 0,0 Z"
             style="fill:#6b6969;fill-opacity:1;fill-rule:nonzero;stroke:none"
             id="path2060"
             inkscape:connector-curvature="0" />
        </g>
        <g
           id="g2062"
           transform="translate(243.5839,502.3196)">
          <path
             d="M 0,0 -1.001,-0.986 1.008,-0.983 0,0 Z"
             style="fill:#6b6969;fill-opacity:1;fill-rule:nonzero;stroke:none"
             id="path2064"
             inkscape:connector-curvature="0" />
        </g>
        <g
           id="g2066"
           transform="translate(256.9218,519.1329)">
          <path
             d="M 0,0 -0.015,0 C -0.197,0 -0.469,-0.084 -0.62,-0.187 l -1.31,-0.888 c -0.076,-0.051 -0.155,-0.136 -0.217,-0.231 l -0.059,-0.038 -0.023,-0.102 c -0.023,-0.05 -0.041,-0.099 -0.05,-0.143 l -0.023,-0.099 c -0.009,-0.035 -0.006,-0.067 -0.003,-0.098 l -0.071,-0.313 0.481,0 c 0.052,-0.06 0.076,-0.146 0.054,-0.246 l -0.694,-3.07 c -0.04,-0.181 0.075,-0.329 0.256,-0.329 l 0.983,0 c 0.181,0 0.363,0.148 0.405,0.329 L 0.256,-0.33 C 0.297,-0.149 0.182,0 0,0"
             style="fill:#dddddd;fill-opacity:1;fill-rule:nonzero;stroke:none"
             id="path2068"
             inkscape:connector-curvature="0" />
        </g>
      </g>
    </g>
  </g>
</svg>
