<?xml version="1.0" encoding="UTF-8" standalone="no"?>
<!-- Created with Inkscape (http://www.inkscape.org/) -->

<svg
   xmlns:dc="http://purl.org/dc/elements/1.1/"
   xmlns:cc="http://creativecommons.org/ns#"
   xmlns:rdf="http://www.w3.org/1999/02/22-rdf-syntax-ns#"
   xmlns:svg="http://www.w3.org/2000/svg"
   xmlns="http://www.w3.org/2000/svg"
   xmlns:sodipodi="http://sodipodi.sourceforge.net/DTD/sodipodi-0.dtd"
   xmlns:inkscape="http://www.inkscape.org/namespaces/inkscape"
   width="24.300003mm"
   height="6.9272151mm"
   viewBox="0 0 86.102373 24.54525"
   id="svg314961"
   version="1.1"
   inkscape:version="0.91 r13725"
   sodipodi:docname="Sky Movies Action.svg">
  <defs
     id="defs314963">
    <clipPath
       clipPathUnits="userSpaceOnUse"
       id="clipPath72496">
      <path
         d="m 396.141,579.373 72.426,0 0,24.803 -72.426,0 0,-24.803 z"
         id="path72498"
         inkscape:connector-curvature="0" />
    </clipPath>
  </defs>
  <sodipodi:namedview
     id="base"
     pagecolor="#ffffff"
     bordercolor="#666666"
     borderopacity="1.0"
     inkscape:pageopacity="0.0"
     inkscape:pageshadow="2"
     inkscape:zoom="2.8"
     inkscape:cx="-49.610534"
     inkscape:cy="-68.925725"
     inkscape:document-units="px"
     inkscape:current-layer="layer1"
     showgrid="false"
     fit-margin-top="0"
     fit-margin-left="0"
     fit-margin-right="0"
     fit-margin-bottom="0"
     inkscape:window-width="1920"
     inkscape:window-height="1017"
     inkscape:window-x="-8"
     inkscape:window-y="-8"
     inkscape:window-maximized="1" />
  <metadata
     id="metadata314966">
    <rdf:RDF>
      <cc:Work
         rdf:about="">
        <dc:format>image/svg+xml</dc:format>
        <dc:type
           rdf:resource="http://purl.org/dc/dcmitype/StillImage" />
        <dc:title />
      </cc:Work>
    </rdf:RDF>
  </metadata>
  <g
     inkscape:label="Layer 1"
     inkscape:groupmode="layer"
     id="layer1"
     transform="translate(-288.37739,-417.23248)">
    <g
       transform="matrix(1.25,0,0,-1.25,-209.01399,1169.2236)"
       id="g72492">
      <g
         id="g72494"
         clip-path="url(#clipPath72496)">
        <g
           id="g72500"
           transform="translate(409.0851,597.3593)">
          <path
             d="M 0,0 -0.589,0.589 0.361,1.539 0.95,0.95 0,0 Z m 2.129,2.129 -0.589,-0.59 -0.59,0.59 -1.178,0 -0.95,-0.951 0.237,0.951 -2.936,0 C -4.256,2.128 -4.592,1.826 -4.592,1.445 c 0,-0.181 0.071,-0.346 0.185,-0.469 l 0.566,-0.56 C -3.803,0.377 -3.784,0.33 -3.785,0.291 -3.784,0.198 -3.84,0.126 -3.987,0.126 l -1.192,0 -0.179,-0.715 1.99,0 c 0.379,0 0.718,0.299 0.718,0.679 0,0.181 -0.071,0.348 -0.186,0.47 l -0.573,0.568 c -0.032,0.032 -0.05,0.078 -0.05,0.117 0,0.093 0.063,0.168 0.175,0.168 l 1.213,0 -0.499,-2.002 0.951,0 0.206,0.824 0.824,-0.824 1.178,0 2.718,2.718 -1.178,0 z m 6.213,2.084 0,-19.515 -19.514,0 0,19.515 9.758,-9.757 9.756,9.757 z"
             style="fill:#a8d81b;fill-opacity:1;fill-rule:nonzero;stroke:none"
             id="path72502"
             inkscape:connector-curvature="0" />
        </g>
        <g
           id="g72504"
           transform="translate(423.9355,601.5929)">
          <path
             d="M 0,0 4.428,-4.44 8.855,0 l 0,-8.98 -2,0 0,4.352 -2.427,-2.426 -2.427,2.426 0,-4.352 L 0,-8.98 0,0 Z"
             style="fill:#a8d81b;fill-opacity:1;fill-rule:nonzero;stroke:none"
             id="path72506"
             inkscape:connector-curvature="0" />
        </g>
        <g
           id="g72508"
           transform="translate(440.6196,597.0529)">
          <path
             d="m 0,0 c 0,1.426 -1.088,2.614 -2.526,2.614 -1.439,0 -2.527,-1.188 -2.527,-2.614 0,-1.426 1.088,-2.614 2.527,-2.614 C -1.088,-2.614 0,-1.426 0,0 m -7.066,0 c 0,2.501 2.038,4.54 4.54,4.54 2.501,0 4.54,-2.039 4.54,-4.54 0,-2.502 -2.039,-4.54 -4.54,-4.54 -2.502,0 -4.54,2.038 -4.54,4.54"
             style="fill:#a8d81b;fill-opacity:1;fill-rule:nonzero;stroke:none"
             id="path72510"
             inkscape:connector-curvature="0" />
        </g>
        <g
           id="g72512"
           transform="translate(441.9445,601.4928)">
          <path
             d="M 0,0 2.227,0 4.191,-4.44 6.154,0 8.381,0 4.191,-8.98 0,0 Z"
             style="fill:#a8d81b;fill-opacity:1;fill-rule:nonzero;stroke:none"
             id="path72514"
             inkscape:connector-curvature="0" />
        </g>
        <path
           d="m 450.787,601.493 2.001,0 0,-8.88 -2.001,0 0,8.88 z"
           style="fill:#a8d81b;fill-opacity:1;fill-rule:nonzero;stroke:none"
           id="path72516"
           inkscape:connector-curvature="0" />
        <g
           id="g72518"
           transform="translate(454.0262,601.4928)">
          <path
             d="m 0,0 5.503,0 0,-1.976 -3.503,0 0,-1.501 2.753,0 0,-1.926 -2.753,0 0,-1.501 3.503,0 0,-1.976 L 0,-8.88 0,0 Z"
             style="fill:#a8d81b;fill-opacity:1;fill-rule:nonzero;stroke:none"
             id="path72520"
             inkscape:connector-curvature="0" />
        </g>
        <g
           id="g72522"
           transform="translate(459.9915,594.2509)">
          <path
             d="m 0,0 1.513,1.238 c 0.388,-0.613 1.026,-1.1 1.639,-1.1 0.588,0 0.85,0.225 0.85,0.638 0,0.4 -0.287,0.65 -1.038,0.988 l -0.5,0.225 c -1.338,0.6 -2.077,1.588 -2.077,2.789 0,1.551 1.289,2.564 2.702,2.564 0.989,0 1.739,-0.238 2.489,-1.113 L 4.228,4.803 C 3.778,5.353 3.502,5.466 3.089,5.466 2.752,5.466 2.401,5.253 2.401,4.853 2.401,4.39 2.789,4.14 3.602,3.777 L 4.078,3.565 C 5.303,3.014 6.016,2.126 6.016,0.901 6.016,-0.701 4.841,-1.738 3.19,-1.738 1.763,-1.738 0.613,-1.151 0,0"
             style="fill:#a8d81b;fill-opacity:1;fill-rule:nonzero;stroke:none"
             id="path72524"
             inkscape:connector-curvature="0" />
        </g>
        <g
           id="g72526"
           transform="translate(428.188,585.058)">
          <path
             d="M 0,0 -0.838,1.851 -1.676,0 0,0 Z m -0.838,5.979 4.378,-8.981 -2.101,0 -0.638,1.376 -3.277,0 -0.638,-1.376 -2.101,0 4.377,8.981 z"
             style="fill:#a8d81b;fill-opacity:1;fill-rule:nonzero;stroke:none"
             id="path72528"
             inkscape:connector-curvature="0" />
        </g>
        <g
           id="g72530"
           transform="translate(430.9015,586.4969)">
          <path
             d="M 0,0 C 0,2.501 2.038,4.54 4.541,4.54 6.066,4.54 7.43,3.777 8.255,2.614 L 6.742,1.375 C 6.291,2.101 5.491,2.614 4.541,2.614 3.102,2.614 2.013,1.425 2.013,0 c 0,-1.426 1.089,-2.615 2.528,-2.615 0.95,0 1.75,0.513 2.201,1.239 L 8.255,-2.615 C 7.43,-3.777 6.066,-4.54 4.541,-4.54 2.038,-4.54 0,-2.502 0,0"
             style="fill:#a8d81b;fill-opacity:1;fill-rule:nonzero;stroke:none"
             id="path72532"
             inkscape:connector-curvature="0" />
        </g>
        <g
           id="g72534"
           transform="translate(441.6829,588.9601)">
          <path
             d="m 0,0 -2.126,0 0,1.977 6.266,0 0,-1.977 -2.139,0 0,-6.904 L 0,-6.904 0,0 Z"
             style="fill:#a8d81b;fill-opacity:1;fill-rule:nonzero;stroke:none"
             id="path72536"
             inkscape:connector-curvature="0" />
        </g>
        <path
           d="m 446.584,590.937 2.002,0 0,-8.881 -2.002,0 0,8.881 z"
           style="fill:#a8d81b;fill-opacity:1;fill-rule:nonzero;stroke:none"
           id="path72538"
           inkscape:connector-curvature="0" />
        <g
           id="g72540"
           transform="translate(456.4149,586.4969)">
          <path
             d="m 0,0 c 0,1.425 -1.088,2.614 -2.526,2.614 -1.438,0 -2.527,-1.189 -2.527,-2.614 0,-1.426 1.089,-2.615 2.527,-2.615 C -1.088,-2.615 0,-1.426 0,0 m -7.066,0 c 0,2.501 2.038,4.54 4.54,4.54 2.501,0 4.54,-2.039 4.54,-4.54 0,-2.502 -2.039,-4.54 -4.54,-4.54 -2.502,0 -4.54,2.038 -4.54,4.54"
             style="fill:#a8d81b;fill-opacity:1;fill-rule:nonzero;stroke:none"
             id="path72542"
             inkscape:connector-curvature="0" />
        </g>
        <g
           id="g72544"
           transform="translate(461.192,586.6967)">
          <path
             d="m 0,0 0,-4.641 -2.001,0 0,8.981 5.603,-4.741 0,4.641 2.001,0 0,-8.98 L 0,0 Z"
             style="fill:#a8d81b;fill-opacity:1;fill-rule:nonzero;stroke:none"
             id="path72546"
             inkscape:connector-curvature="0" />
        </g>
      </g>
    </g>
  </g>
</svg>
