<?xml version="1.0" encoding="UTF-8" standalone="no"?>
<!-- Created with Inkscape (http://www.inkscape.org/) -->

<svg
   xmlns:dc="http://purl.org/dc/elements/1.1/"
   xmlns:cc="http://creativecommons.org/ns#"
   xmlns:rdf="http://www.w3.org/1999/02/22-rdf-syntax-ns#"
   xmlns:svg="http://www.w3.org/2000/svg"
   xmlns="http://www.w3.org/2000/svg"
   xmlns:sodipodi="http://sodipodi.sourceforge.net/DTD/sodipodi-0.dtd"
   xmlns:inkscape="http://www.inkscape.org/namespaces/inkscape"
   width="13.349816mm"
   height="10.364681mm"
   viewBox="0 0 47.302499 36.725248"
   id="svg78926"
   version="1.1"
   inkscape:version="0.91 r13725"
   sodipodi:docname="Sky Sport Mosiac.svg">
  <defs
     id="defs78928">
    <clipPath
       clipPathUnits="userSpaceOnUse"
       id="clipPath66766">
      <path
         d="m 121.975,495.751 82.8,0 0,31.039 -82.8,0 0,-31.039 z"
         id="path66768"
         inkscape:connector-curvature="0" />
    </clipPath>
    <clipPath
       clipPathUnits="userSpaceOnUse"
       id="clipPath66750">
      <path
         d="m 144.454,496.581 37.842,0 0,29.38 -37.842,0 0,-29.38 z"
         id="path66752"
         inkscape:connector-curvature="0" />
    </clipPath>
    <clipPath
       clipPathUnits="userSpaceOnUse"
       id="clipPath66710">
      <path
         d="m 121.975,495.751 82.8,0 0,31.039 -82.8,0 0,-31.039 z"
         id="path66712"
         inkscape:connector-curvature="0" />
    </clipPath>
  </defs>
  <sodipodi:namedview
     id="base"
     pagecolor="#ffffff"
     bordercolor="#666666"
     borderopacity="1.0"
     inkscape:pageopacity="0.0"
     inkscape:pageshadow="2"
     inkscape:zoom="11.2"
     inkscape:cx="-16.853143"
     inkscape:cy="17.069433"
     inkscape:document-units="px"
     inkscape:current-layer="layer1"
     showgrid="false"
     fit-margin-top="0"
     fit-margin-left="0"
     fit-margin-right="0"
     fit-margin-bottom="0"
     inkscape:window-width="1920"
     inkscape:window-height="1017"
     inkscape:window-x="-8"
     inkscape:window-y="-8"
     inkscape:window-maximized="1" />
  <metadata
     id="metadata78931">
    <rdf:RDF>
      <cc:Work
         rdf:about="">
        <dc:format>image/svg+xml</dc:format>
        <dc:type
           rdf:resource="http://purl.org/dc/dcmitype/StillImage" />
        <dc:title />
      </cc:Work>
    </rdf:RDF>
  </metadata>
  <g
     inkscape:label="Layer 1"
     inkscape:groupmode="layer"
     id="layer1"
     transform="translate(-364.92018,-425.4282)">
    <g
       id="g66738"
       transform="matrix(1.25,0,0,-1.25,399.46818,436.13445)">
      <path
         d="m 0,0 c 0,-4.731 -3.835,-8.565 -8.565,-8.565 -4.731,0 -8.565,3.834 -8.565,8.565 0,4.73 3.834,8.565 8.565,8.565 C -3.835,8.565 0,4.73 0,0"
         style="fill:#161412;fill-opacity:1;fill-rule:nonzero;stroke:none"
         id="path66740"
         inkscape:connector-curvature="0" />
    </g>
    <g
       id="g66742"
       transform="matrix(1.25,0,0,-1.25,394.96705,432.8492)">
      <path
         d="M 0,0 C -1.847,-1.577 -2.503,-1.627 -5.185,0.068 L -5.194,0.052 c 2.039,-2.004 2.088,-3.677 -0.018,-5.58 L -5.2,-5.542 c 2.143,1.401 3.223,1.819 5.118,0.18 l 0.008,0.014 c -1.19,1.836 -1.188,3.383 0.085,5.333 L 0,0 Z"
         style="fill:#dddddd;fill-opacity:1;fill-rule:nonzero;stroke:none"
         id="path66744"
         inkscape:connector-curvature="0" />
    </g>
    <g
       id="g66754"
       transform="matrix(1.25,0,0,-1.25,382.9883,428.87083)">
      <path
         d="m 0,0 c 0.239,0.005 0.499,-0.019 1.047,-0.099 0.634,-0.095 2.834,-0.896 4.468,-1.92 0.831,-0.522 1.284,-0.633 1.628,-0.633 0.234,0 0.597,0.187 1.446,0.968 0.832,0.764 0.933,0.918 1.05,1.119 0.042,0.072 0.07,0.113 0.087,0.14 C 8.395,0.838 6.598,1.614 4.619,1.614 2.872,1.614 1.267,1.009 0,0 m 8.752,-10.329 c -0.307,0.355 -1.031,1.006 -1.718,1.043 -0.688,0.037 -1.135,-0.4 -2.315,-0.969 -1.394,-0.67 -2.569,-1.005 -3.075,-1.155 -0.441,-0.129 -1.157,-0.246 -1.598,-0.249 1.261,-0.987 2.847,-1.578 4.573,-1.578 1.937,0 3.701,0.744 5.024,1.959 -0.13,0.202 -0.612,0.627 -0.891,0.949 m 3.291,4.517 c 0,1.472 -0.429,2.841 -1.166,3.995 0.065,-0.237 0.076,-0.448 0.045,-0.743 -0.091,-0.876 -0.38,-1.733 -0.542,-2.16 -0.164,-0.43 -0.361,-1.063 -0.344,-1.343 0.018,-0.279 0.073,-0.335 0.146,-0.671 0.071,-0.335 0.668,-1.508 0.704,-2.477 0.014,-0.348 -0.006,-0.5 -0.053,-0.663 0.764,1.167 1.21,2.562 1.21,4.062 M 3.38,-7.275 c 0.419,0.534 0.615,0.709 0.615,1.175 0,0.465 -0.053,0.559 -0.795,1.51 -1.196,1.53 -2.786,3.391 -3.619,3.708 -0.194,0.074 -0.298,0.114 -0.401,0.122 -1.232,-1.324 -1.986,-3.1 -1.986,-5.052 0,-1.943 0.748,-3.711 1.971,-5.035 0.036,-0.002 0.075,-0.005 0.11,-0.005 0.216,0 0.299,0.066 0.524,0.169 0.705,0.315 2.966,2.627 3.581,3.408"
         style="fill:#e32b23;fill-opacity:1;fill-rule:nonzero;stroke:none"
         id="path66756"
         inkscape:connector-curvature="0" />
    </g>
    <g
       id="g66758"
       transform="matrix(1.25,0,0,-1.25,412.03293,449.6327)">
      <path
         d="m 0,0 -1.816,0 0.423,1.603 c 0.049,0.184 -0.01,0.263 -0.201,0.263 l -0.769,0 c -0.189,0 -0.385,-0.151 -0.433,-0.335 l -1.26,-4.736 c -0.003,-0.012 -0.003,-0.022 -0.003,-0.03 l -0.003,-0.002 c -0.015,-0.083 -0.012,-0.099 -0.012,-0.173 0,-0.386 0.197,-0.57 0.292,-0.66 0.18,-0.167 0.516,-0.263 0.922,-0.263 l 1.168,0 0.488,0.001 0.157,0.002 c 0.088,0.002 0.311,0.371 0.39,0.687 0.024,0.102 0.042,0.202 0.045,0.292 l 0.001,0.01 c 0,0.024 -0.007,0.044 -0.02,0.058 -0.02,0.022 -0.047,0.026 -0.287,0.026 l -1.764,0 0.005,0.013 0.583,2.189 1.803,0 c 0.127,0 0.302,0.274 0.391,0.613 0.029,0.106 0.045,0.206 0.05,0.292 l 0.002,0 C 0.158,-0.064 0.095,0 0,0 m -14.887,-1.255 -0.484,-1.832 c -0.043,-0.181 -0.084,-0.198 -0.424,-0.198 -0.201,0 -1.091,0.001 -1.729,0.001 l 0.587,2.225 c 0.638,10e-4 1.528,0.003 1.73,0.003 0.34,0 0.372,-0.018 0.32,-0.199 m 1.106,1.013 c -0.183,0.159 -0.535,0.26 -0.966,0.26 l -0.155,0 c -0.043,0.004 -0.078,0.006 -0.096,0.006 l -1.962,0 0,0 -0.73,0 c -0.022,0 -0.042,-0.003 -0.062,-0.007 -0.201,-0.002 -0.27,-0.027 -0.334,-0.236 -0.016,-0.03 -0.031,-0.061 -0.039,-0.093 l -1.423,-5.392 c -0.049,-0.184 0.105,-0.192 0.295,-0.192 l 0.693,0 c 0.19,0 0.385,0.15 0.434,0.336 l 0.317,1.201 1.906,0 c 0.431,0 0.836,0.099 1.104,0.259 0.181,0.108 0.62,0.374 0.78,0.977 l 0.502,1.904 c 0.159,0.604 -0.14,0.869 -0.264,0.977 m 10.001,0.131 10e-4,0 c 0.006,0.086 -0.055,0.15 -0.15,0.15 l -0.179,0 0,0.001 -1.562,0 c -0.432,0 -0.837,-0.1 -1.106,-0.26 -0.179,-0.108 -0.62,-0.374 -0.778,-0.977 l -0.007,-0.022 -0.082,-0.309 0,-10e-4 -0.69,-2.618 c -0.05,-0.185 0.104,-0.192 0.295,-0.192 l 0.692,0 c 0.19,0 0.386,0.151 0.434,0.335 l 0.727,2.749 c 0.043,0.181 0.084,0.199 0.425,0.199 0.071,0 0.213,0 0.396,-0.002 l 0.968,0 0,0.003 0.165,0 c 0.127,0 0.312,0.312 0.401,0.651 0.029,0.106 0.045,0.205 0.05,0.293 m -5.738,-1.144 -0.483,-1.832 c -0.043,-0.181 -0.085,-0.198 -0.425,-0.198 -0.073,0 -0.845,0.002 -1.016,0.001 -0.182,-0.001 -0.325,-0.001 -0.398,-0.001 -0.34,0 -0.371,0.017 -0.32,0.198 l 0.484,1.832 c 0.045,0.181 0.084,0.199 0.425,0.199 0.072,0 0.138,0 0.321,-0.002 0.17,-10e-4 1.019,0.002 1.091,0.002 0.34,0 0.373,-0.018 0.321,-0.199 m 1.377,0.058 c 0.159,0.603 -0.14,0.869 -0.266,0.977 -0.183,0.16 -0.535,0.26 -0.966,0.26 l -1.766,0 c -0.43,0 -0.836,-0.1 -1.103,-0.26 -0.181,-0.108 -0.62,-0.374 -0.779,-0.977 l -0.006,-0.022 -0.001,0 -0.503,-1.904 c -0.159,-0.603 0.14,-0.869 0.265,-0.977 0.184,-0.16 0.536,-0.259 0.966,-0.259 l 1.767,0 c 0.43,0 0.836,0.099 1.103,0.259 0.181,0.108 0.621,0.374 0.78,0.977 l 0.311,1.178 0.198,0.748 z m -16.66,1.234 -1.061,-1.021 -1.061,1.021 -0.014,0 -0.99,-0.984 1.051,-1.011 -1.51,-1.452 1.006,-0.982 4.607,4.429 -2.028,0 z m -3.145,-0.983 -0.997,0.983 -0.008,0 -1.478,-1.421 0.384,1.421 -5.075,0 c -0.656,0 -1.236,-0.491 -1.236,-1.111 0,-0.296 0.122,-0.567 0.32,-0.766 l 0.978,-0.911 c 0.064,-0.065 0.098,-0.142 0.098,-0.206 0,-0.151 -0.097,-0.27 -0.35,-0.27 l -2.062,0 -0.319,-1.165 3.448,0 c 0.656,0 1.24,0.488 1.241,1.107 0,0.296 -0.122,0.567 -0.32,0.766 l -0.99,0.926 c -0.055,0.053 -0.086,0.127 -0.086,0.191 0,0.152 0.108,0.268 0.302,0.268 l 2.094,0 -0.872,-3.258 1.639,0 0.373,1.396 1.455,-1.396 0.007,0 0.998,0.982 -1.053,1.012 1.509,1.452 z m 8.154,-1.037 c -0.312,0.193 -1.256,0.358 -1.631,0.449 -0.258,0.062 -0.57,0.105 -0.505,0.278 0.047,0.126 0.233,0.197 0.52,0.2 0.25,0 1.84,-0.002 2.112,0 0.151,0 0.363,0.132 0.521,0.733 0.085,0.323 -0.036,0.325 -0.222,0.325 l -2.759,0 c -0.43,0 -0.822,-0.251 -1.134,-0.657 -0.311,-0.408 -0.475,-0.897 -0.424,-1.176 0.061,-0.332 0.331,-0.509 0.706,-0.637 0.373,-0.128 0.946,-0.248 1.225,-0.324 0.302,-0.079 0.791,-0.112 0.71,-0.294 -0.059,-0.132 -0.13,-0.205 -0.425,-0.199 -0.34,0.008 -1.864,0.003 -2.16,0 -0.332,-0.003 -0.493,-0.287 -0.621,-0.775 -0.079,-0.297 -0.013,-0.299 0.272,-0.299 l 2.326,0 c 0.431,0 0.836,0.099 1.104,0.259 0.181,0.108 0.621,0.374 0.779,0.977 0.203,0.766 -0.066,0.936 -0.394,1.14"
         style="fill:#ffffff;fill-opacity:1;fill-rule:nonzero;stroke:none"
         id="path66760"
         inkscape:connector-curvature="0" />
    </g>
    <g
       id="g66770"
       transform="matrix(1.25,0,0,-1.25,375.83793,449.56695)">
      <path
         d="M 0,0 1.02,-1.007 2.033,0.002 0,0 Z"
         style="fill:#6c6f74;fill-opacity:1;fill-rule:nonzero;stroke:none"
         id="path66772"
         inkscape:connector-curvature="0" />
    </g>
    <g
       id="g66774"
       transform="matrix(1.25,0,0,-1.25,376.5398,453.88295)">
      <path
         d="M 0,0 -1.02,-1.004 1.026,-1.002 0,0 Z"
         style="fill:#6c6f74;fill-opacity:1;fill-rule:nonzero;stroke:none"
         id="path66776"
         inkscape:connector-curvature="0" />
    </g>
    <g
       transform="translate(-4.425e-4,-3.4053534e-6)"
       id="g4220">
      <g
         transform="matrix(1.25,0,0,-1.25,383.70456,458.22195)"
         id="g66714">
        <path
           inkscape:connector-curvature="0"
           id="path66716"
           style="fill:#e32b23;fill-opacity:1;fill-rule:nonzero;stroke:none"
           d="m 0,0 -0.363,-2.998 c -0.012,-0.089 -0.06,-0.134 -0.143,-0.134 l -0.251,0 c -0.084,0 -0.125,0.039 -0.125,0.118 l -0.004,0.021 0.198,1.556 -0.752,-1.591 c -0.035,-0.069 -0.084,-0.104 -0.147,-0.104 l -0.394,0 c -0.075,0 -0.12,0.034 -0.134,0.103 l -0.353,1.575 -0.189,-1.544 c -0.011,-0.089 -0.061,-0.134 -0.148,-0.134 l -0.248,0 c -0.087,0 -0.129,0.039 -0.126,0.118 0.003,0.005 0.004,0.012 0.004,0.021 l 0.368,3.002 c 0.011,0.086 0.062,0.129 0.151,0.129 l 0.241,0 c 0.067,0 0.113,-0.036 0.139,-0.108 l 0.576,-2.423 1.186,2.427 c 0.026,0.07 0.076,0.104 0.151,0.104 l 0.242,0 c 0.084,0 0.125,-0.033 0.125,-0.099 C 0.004,0.027 0.003,0.014 0,0" />
      </g>
      <g
         transform="matrix(1.25,0,0,-1.25,384.8933,458.7497)"
         id="g66718">
        <path
           inkscape:connector-curvature="0"
           id="path66720"
           style="fill:#e32b23;fill-opacity:1;fill-rule:nonzero;stroke:none"
           d="M 0,0 -0.078,-0.089 C -0.081,-0.11 -0.085,-0.146 -0.091,-0.196 l 0.001,0 -0.218,-1.765 c 0.003,-0.059 0.004,-0.092 0.004,-0.101 0.021,-0.114 0.081,-0.172 0.182,-0.172 l 0.663,0 c 0.069,0 0.128,0.028 0.178,0.084 0.049,0.055 0.078,0.12 0.086,0.193 l 0.221,1.803 C 1.029,-0.09 1.013,-0.035 0.98,0.013 0.947,0.061 0.898,0.085 0.834,0.085 l -0.66,0 C 0.107,0.085 0.049,0.057 0,0 m -0.172,-2.723 c -0.202,0 -0.367,0.065 -0.496,0.193 -0.128,0.128 -0.189,0.293 -0.183,0.495 0.002,0.018 0.005,0.045 0.008,0.083 l 0.212,1.76 c 0.026,0.22 0.12,0.403 0.283,0.548 0.163,0.145 0.354,0.217 0.573,0.217 l 0.658,0 c 0.225,0 0.401,-0.072 0.528,-0.216 0.101,-0.116 0.151,-0.271 0.151,-0.468 l 0,-0.082 -0.216,-1.763 C 1.32,-2.175 1.226,-2.358 1.065,-2.504 0.903,-2.65 0.711,-2.723 0.489,-2.723 l -0.661,0 z" />
      </g>
      <g
         transform="matrix(1.25,0,0,-1.25,388.28943,462.15283)"
         id="g66722">
        <path
           inkscape:connector-curvature="0"
           id="path66724"
           style="fill:#e32b23;fill-opacity:1;fill-rule:nonzero;stroke:none"
           d="m 0,0 c -0.401,0 -0.702,0.043 -0.904,0.13 -0.063,0.026 -0.094,0.072 -0.091,0.138 0,0.015 0.002,0.028 0.004,0.039 l 0.026,0.139 c 0.021,0.115 0.077,0.171 0.169,0.168 0.02,0 0.039,-0.003 0.056,-0.008 0.182,-0.052 0.453,-0.078 0.814,-0.078 0.144,0 0.269,0.041 0.376,0.123 0.106,0.082 0.173,0.193 0.199,0.332 l 0,0.034 c 0,0.064 -0.039,0.126 -0.117,0.187 -0.026,0.02 -0.137,0.079 -0.333,0.177 -0.337,0.171 -0.545,0.288 -0.623,0.351 -0.147,0.124 -0.221,0.279 -0.221,0.464 0,0.332 0.142,0.61 0.424,0.836 0.225,0.176 0.488,0.264 0.788,0.264 0.392,0 0.687,-0.044 0.886,-0.131 C 1.514,3.139 1.544,3.093 1.544,3.026 1.544,3.014 1.543,3.003 1.54,2.991 L 1.518,2.847 C 1.501,2.734 1.442,2.679 1.341,2.682 1.329,2.685 1.312,2.688 1.289,2.691 1.09,2.748 0.825,2.777 0.493,2.777 0.346,2.777 0.219,2.736 0.113,2.654 0.006,2.571 -0.059,2.458 -0.082,2.313 l 0,-0.03 C -0.082,2.22 -0.045,2.157 0.03,2.097 0.056,2.077 0.17,2.019 0.372,1.924 0.669,1.785 0.872,1.668 0.982,1.573 1.135,1.44 1.211,1.282 1.211,1.1 l 0,-0.129 C 1.156,0.679 1.016,0.444 0.789,0.266 0.563,0.089 0.301,0 0.004,0 L 0,0 Z" />
      </g>
      <g
         transform="matrix(1.25,0,0,-1.25,391.10793,460.43333)"
         id="g66726">
        <path
           inkscape:connector-curvature="0"
           id="path66728"
           style="fill:#e32b23;fill-opacity:1;fill-rule:nonzero;stroke:none"
           d="M 0,0 0.628,0 0.444,1.042 0,0 Z m 0.994,-1.376 c -0.087,0 -0.135,0.039 -0.143,0.117 l 0.003,0 -0.14,0.77 -0.92,0 -0.329,-0.769 C -0.57,-1.336 -0.621,-1.376 -0.69,-1.376 l -0.259,0 c -0.089,0 -0.132,0.039 -0.129,0.117 0,0.006 0.001,0.01 0.004,0.013 0.003,0.02 0.007,0.035 0.013,0.043 L 0.207,1.804 C 0.238,1.882 0.294,1.92 0.375,1.92 l 0.342,0 c 0.081,0 0.128,-0.039 0.142,-0.117 L 1.387,-1.194 C 1.396,-1.211 1.4,-1.226 1.4,-1.237 l 0,-0.009 c 0,-0.086 -0.047,-0.13 -0.142,-0.13 l -0.264,0 z" />
      </g>
      <g
         transform="matrix(1.25,0,0,-1.25,392.9773,462.15283)"
         id="g66730">
        <path
           inkscape:connector-curvature="0"
           id="path66732"
           style="fill:#e32b23;fill-opacity:1;fill-rule:nonzero;stroke:none"
           d="m 0,0 c -0.092,0 -0.137,0.043 -0.134,0.129 l 0,0.021 0.026,0.202 c 0.011,0.091 0.065,0.137 0.16,0.137 l 0.125,0 0.29,2.318 -0.123,0 c -0.094,0 -0.139,0.042 -0.136,0.125 l 0,0.017 0.025,0.206 C 0.245,3.249 0.3,3.296 0.398,3.296 l 0.783,0 C 1.27,3.296 1.315,3.253 1.315,3.167 1.312,3.165 1.311,3.159 1.311,3.15 L 1.285,2.945 C 1.273,2.853 1.222,2.807 1.131,2.807 l -0.128,0 -0.285,-2.318 0.121,0 C 0.928,0.489 0.973,0.446 0.973,0.36 0.97,0.357 0.969,0.352 0.969,0.343 L 0.947,0.141 C 0.936,0.047 0.885,0 0.796,0 L 0,0 Z" />
      </g>
      <g
         transform="matrix(1.25,0,0,-1.25,395.58868,462.15283)"
         id="g66734">
        <path
           inkscape:connector-curvature="0"
           id="path66736"
           style="fill:#e32b23;fill-opacity:1;fill-rule:nonzero;stroke:none"
           d="m 0,0 c -0.205,0 -0.371,0.064 -0.498,0.19 -0.126,0.127 -0.187,0.293 -0.181,0.498 0,0.006 0.003,0.032 0.008,0.078 l 0.212,1.76 c 0.026,0.22 0.12,0.404 0.282,0.55 0.161,0.147 0.353,0.22 0.575,0.22 l 0.549,0 C 1.152,3.296 1.318,3.232 1.445,3.105 1.56,2.986 1.618,2.819 1.618,2.604 l 0,-0.082 L 1.596,2.345 C 1.584,2.249 1.531,2.202 1.436,2.202 l -0.251,0 c -0.086,0 -0.13,0.044 -0.13,0.134 0,0.009 0.003,0.014 0.009,0.017 l -0.003,0 0.022,0.177 c 0,0.185 -0.064,0.277 -0.191,0.277 l -0.546,0 C 0.279,2.807 0.221,2.778 0.17,2.72 0.12,2.662 0.09,2.598 0.082,2.526 l 0,0 -0.217,-1.765 0.001,-0.03 c -0.003,-0.062 0.012,-0.118 0.045,-0.167 0.033,-0.05 0.08,-0.075 0.141,-0.075 l 0.549,0 c 0.063,0 0.122,0.029 0.175,0.088 0.054,0.058 0.085,0.121 0.093,0.189 L 0.866,0.765 0.888,0.951 C 0.9,1.047 0.951,1.094 1.044,1.094 l 0.245,0 c 0.089,0 0.134,-0.043 0.134,-0.129 l 0,-0.022 L 1.401,0.761 C 1.375,0.542 1.283,0.36 1.125,0.216 0.966,0.072 0.776,0 0.554,0 L 0,0 Z" />
      </g>
    </g>
  </g>
</svg>
