<?xml version="1.0" encoding="UTF-8"?>
<!-- Created with Inkscape (http://www.inkscape.org/) -->
<svg id="svg78926" width="13.35mm" height="10.365mm" version="1.1" viewBox="0 0 47.302 36.725" xmlns="http://www.w3.org/2000/svg" xmlns:cc="http://creativecommons.org/ns#" xmlns:dc="http://purl.org/dc/elements/1.1/" xmlns:rdf="http://www.w3.org/1999/02/22-rdf-syntax-ns#">
 <metadata id="metadata78931">
  <rdf:RDF>
   <cc:Work rdf:about="">
    <dc:format>image/svg+xml</dc:format>
    <dc:type rdf:resource="http://purl.org/dc/dcmitype/StillImage"/>
    <dc:title/>
   </cc:Work>
  </rdf:RDF>
 </metadata>
 <g id="layer1" transform="translate(-364.92 -425.43)">
  <g id="g66738" transform="matrix(1.25 0 0 -1.25 399.47 436.13)">
   <path id="path66740" d="m0 0c0-4.731-3.835-8.565-8.565-8.565-4.731 0-8.565 3.834-8.565 8.565 0 4.73 3.834 8.565 8.565 8.565 4.73 0 8.565-3.835 8.565-8.565" fill="#161412"/>
  </g>
  <g id="g66742" transform="matrix(1.25 0 0 -1.25 394.97 432.85)">
   <path id="path66744" d="m0 0c-1.847-1.577-2.503-1.627-5.185 0.068l-9e-3 -0.016c2.039-2.004 2.088-3.677-0.018-5.58l0.012-0.014c2.143 1.401 3.223 1.819 5.118 0.18l8e-3 0.014c-1.19 1.836-1.188 3.383 0.085 5.333l-0.011 0.015z" fill="#ddd"/>
  </g>
  <g id="g66754" transform="matrix(1.25 0 0 -1.25 382.99 428.87)">
   <path id="path66756" d="m0 0c0.239 5e-3 0.499-0.019 1.047-0.099 0.634-0.095 2.834-0.896 4.468-1.92 0.831-0.522 1.284-0.633 1.628-0.633 0.234 0 0.597 0.187 1.446 0.968 0.832 0.764 0.933 0.918 1.05 1.119 0.042 0.072 0.07 0.113 0.087 0.14-1.331 1.263-3.128 2.039-5.107 2.039-1.747 0-3.352-0.605-4.619-1.614m8.752-10.329c-0.307 0.355-1.031 1.006-1.718 1.043-0.688 0.037-1.135-0.4-2.315-0.969-1.394-0.67-2.569-1.005-3.075-1.155-0.441-0.129-1.157-0.246-1.598-0.249 1.261-0.987 2.847-1.578 4.573-1.578 1.937 0 3.701 0.744 5.024 1.959-0.13 0.202-0.612 0.627-0.891 0.949m3.291 4.517c0 1.472-0.429 2.841-1.166 3.995 0.065-0.237 0.076-0.448 0.045-0.743-0.091-0.876-0.38-1.733-0.542-2.16-0.164-0.43-0.361-1.063-0.344-1.343 0.018-0.279 0.073-0.335 0.146-0.671 0.071-0.335 0.668-1.508 0.704-2.477 0.014-0.348-6e-3 -0.5-0.053-0.663 0.764 1.167 1.21 2.562 1.21 4.062m-8.663-1.463c0.419 0.534 0.615 0.709 0.615 1.175 0 0.465-0.053 0.559-0.795 1.51-1.196 1.53-2.786 3.391-3.619 3.708-0.194 0.074-0.298 0.114-0.401 0.122-1.232-1.324-1.986-3.1-1.986-5.052 0-1.943 0.748-3.711 1.971-5.035 0.036-2e-3 0.075-5e-3 0.11-5e-3 0.216 0 0.299 0.066 0.524 0.169 0.705 0.315 2.966 2.627 3.581 3.408" fill="#e32b23"/>
  </g>
  <g id="g66758" transform="matrix(1.25 0 0 -1.25 412.03 449.63)">
   <path id="path66760" d="m0 0h-1.816l0.423 1.603c0.049 0.184-0.01 0.263-0.201 0.263h-0.769c-0.189 0-0.385-0.151-0.433-0.335l-1.26-4.736c-3e-3 -0.012-3e-3 -0.022-3e-3 -0.03l-3e-3 -2e-3c-0.015-0.083-0.012-0.099-0.012-0.173 0-0.386 0.197-0.57 0.292-0.66 0.18-0.167 0.516-0.263 0.922-0.263h1.168l0.488 1e-3 0.157 2e-3c0.088 2e-3 0.311 0.371 0.39 0.687 0.024 0.102 0.042 0.202 0.045 0.292l1e-3 0.01c0 0.024-7e-3 0.044-0.02 0.058-0.02 0.022-0.047 0.026-0.287 0.026h-1.764l5e-3 0.013 0.583 2.189h1.803c0.127 0 0.302 0.274 0.391 0.613 0.029 0.106 0.045 0.206 0.05 0.292h2e-3c6e-3 0.086-0.057 0.15-0.152 0.15m-14.887-1.255-0.484-1.832c-0.043-0.181-0.084-0.198-0.424-0.198-0.201 0-1.091 1e-3 -1.729 1e-3l0.587 2.225c0.638 1e-3 1.528 3e-3 1.73 3e-3 0.34 0 0.372-0.018 0.32-0.199m1.106 1.013c-0.183 0.159-0.535 0.26-0.966 0.26h-0.155c-0.043 4e-3 -0.078 6e-3 -0.096 6e-3h-1.962-0.73c-0.022 0-0.042-3e-3 -0.062-7e-3 -0.201-2e-3 -0.27-0.027-0.334-0.236-0.016-0.03-0.031-0.061-0.039-0.093l-1.423-5.392c-0.049-0.184 0.105-0.192 0.295-0.192h0.693c0.19 0 0.385 0.15 0.434 0.336l0.317 1.201h1.906c0.431 0 0.836 0.099 1.104 0.259 0.181 0.108 0.62 0.374 0.78 0.977l0.502 1.904c0.159 0.604-0.14 0.869-0.264 0.977m10.001 0.131h1e-3c6e-3 0.086-0.055 0.15-0.15 0.15h-0.179v1e-3h-1.562c-0.432 0-0.837-0.1-1.106-0.26-0.179-0.108-0.62-0.374-0.778-0.977l-7e-3 -0.022-0.082-0.309v-1e-3l-0.69-2.618c-0.05-0.185 0.104-0.192 0.295-0.192h0.692c0.19 0 0.386 0.151 0.434 0.335l0.727 2.749c0.043 0.181 0.084 0.199 0.425 0.199 0.071 0 0.213 0 0.396-2e-3h0.968v3e-3h0.165c0.127 0 0.312 0.312 0.401 0.651 0.029 0.106 0.045 0.205 0.05 0.293m-5.738-1.144-0.483-1.832c-0.043-0.181-0.085-0.198-0.425-0.198-0.073 0-0.845 2e-3 -1.016 1e-3 -0.182-1e-3 -0.325-1e-3 -0.398-1e-3 -0.34 0-0.371 0.017-0.32 0.198l0.484 1.832c0.045 0.181 0.084 0.199 0.425 0.199 0.072 0 0.138 0 0.321-2e-3 0.17-1e-3 1.019 2e-3 1.091 2e-3 0.34 0 0.373-0.018 0.321-0.199m1.377 0.058c0.159 0.603-0.14 0.869-0.266 0.977-0.183 0.16-0.535 0.26-0.966 0.26h-1.766c-0.43 0-0.836-0.1-1.103-0.26-0.181-0.108-0.62-0.374-0.779-0.977l-6e-3 -0.022h-1e-3l-0.503-1.904c-0.159-0.603 0.14-0.869 0.265-0.977 0.184-0.16 0.536-0.259 0.966-0.259h1.767c0.43 0 0.836 0.099 1.103 0.259 0.181 0.108 0.621 0.374 0.78 0.977l0.311 1.178 0.198 0.748zm-16.66 1.234-1.061-1.021-1.061 1.021h-0.014l-0.99-0.984 1.051-1.011-1.51-1.452 1.006-0.982 4.607 4.429h-2.028zm-3.145-0.983-0.997 0.983h-8e-3l-1.478-1.421 0.384 1.421h-5.075c-0.656 0-1.236-0.491-1.236-1.111 0-0.296 0.122-0.567 0.32-0.766l0.978-0.911c0.064-0.065 0.098-0.142 0.098-0.206 0-0.151-0.097-0.27-0.35-0.27h-2.062l-0.319-1.165h3.448c0.656 0 1.24 0.488 1.241 1.107 0 0.296-0.122 0.567-0.32 0.766l-0.99 0.926c-0.055 0.053-0.086 0.127-0.086 0.191 0 0.152 0.108 0.268 0.302 0.268h2.094l-0.872-3.258h1.639l0.373 1.396 1.455-1.396h7e-3l0.998 0.982-1.053 1.012 1.509 1.452zm8.154-1.037c-0.312 0.193-1.256 0.358-1.631 0.449-0.258 0.062-0.57 0.105-0.505 0.278 0.047 0.126 0.233 0.197 0.52 0.2 0.25 0 1.84-2e-3 2.112 0 0.151 0 0.363 0.132 0.521 0.733 0.085 0.323-0.036 0.325-0.222 0.325h-2.759c-0.43 0-0.822-0.251-1.134-0.657-0.311-0.408-0.475-0.897-0.424-1.176 0.061-0.332 0.331-0.509 0.706-0.637 0.373-0.128 0.946-0.248 1.225-0.324 0.302-0.079 0.791-0.112 0.71-0.294-0.059-0.132-0.13-0.205-0.425-0.199-0.34 8e-3 -1.864 3e-3 -2.16 0-0.332-3e-3 -0.493-0.287-0.621-0.775-0.079-0.297-0.013-0.299 0.272-0.299h2.326c0.431 0 0.836 0.099 1.104 0.259 0.181 0.108 0.621 0.374 0.779 0.977 0.203 0.766-0.066 0.936-0.394 1.14" fill="#fff"/>
  </g>
  <g id="g66770" transform="matrix(1.25 0 0 -1.25 375.84 449.57)">
   <path id="path66772" d="M 0,0 1.02,-1.007 2.033,0.002 0,0 Z" fill="#6c6f74"/>
  </g>
  <g id="g66774" transform="matrix(1.25 0 0 -1.25 376.54 453.88)">
   <path id="path66776" d="M 0,0 -1.02,-1.004 1.026,-1.002 0,0 Z" fill="#6c6f74"/>
  </g>
  <g id="g4248" transform="translate(17.937 -3.4054e-6)" fill="#e32b23">
   <path id="path72756" d="m362.14 459.97c0.0718 0 0.13921-0.0145 0.20183-0.0424 0.0621-0.0284 0.11609-0.0674 0.16136-0.11656 0.0458-0.0491 0.0814-0.10501 0.1079-0.16763 0.0265-0.0621 0.04-0.12765 0.04-0.19556 0-0.13632-0.0487-0.25626-0.14499-0.36078-0.0963-0.10357-0.2182-0.15607-0.36608-0.15607h-0.40846v1.039h0.40846zm-1.3169-1.8901h1.328c0.19701 0 0.37957 0.0361 0.54816 0.1079 0.16811 0.0718 0.31406 0.16907 0.43689 0.29238 0.12331 0.12283 0.21964 0.26734 0.28949 0.434 0.0703 0.16666 0.10501 0.3444 0.10501 0.53371 0 0.1893-0.0347 0.36704-0.10501 0.53322-0.0698 0.16666-0.16618 0.31165-0.28949 0.43448-0.12283 0.12283-0.26878 0.22061-0.43689 0.29238-0.16859 0.0718-0.35115 0.1079-0.54816 0.1079h-0.41954v1.2943h-0.90846v-4.0302z"/>
   <path id="path72760" d="m365.86 461.28c0.16281 0 0.31406-0.0313 0.45423-0.0939 0.13968-0.0621 0.26107-0.14739 0.36319-0.25529 0.10211-0.10741 0.18255-0.23362 0.24132-0.37716 0.0583-0.14402 0.0877-0.2972 0.0877-0.46001 0-0.1628-0.0294-0.31598-0.0877-0.45952-0.0588-0.14403-0.13921-0.26975-0.24132-0.37764-0.10212-0.1079-0.22351-0.19316-0.36319-0.25529-0.14017-0.0626-0.29142-0.0939-0.45423-0.0939s-0.31406 0.0313-0.45423 0.0939c-0.14017 0.0621-0.26107 0.14739-0.36319 0.25529-0.10212 0.10789-0.18256 0.23361-0.24132 0.37764-0.0588 0.14354-0.0881 0.29672-0.0881 0.45952 0 0.16281 0.0294 0.31599 0.0881 0.46001 0.0588 0.14354 0.1392 0.26975 0.24132 0.37716 0.10212 0.1079 0.22302 0.19316 0.36319 0.25529 0.14017 0.0626 0.29142 0.0939 0.45423 0.0939m0 0.87378c-0.28371 0-0.55057-0.0535-0.80056-0.16137-0.24951-0.10789-0.4682-0.25577-0.65557-0.44266-0.1869-0.18738-0.33477-0.40606-0.44267-0.65558-0.1079-0.24999-0.16185-0.51684-0.16185-0.80056 0-0.28371 0.0539-0.55056 0.16185-0.80055 0.1079-0.24952 0.25577-0.4682 0.44267-0.65509 0.18737-0.18738 0.40606-0.33526 0.65557-0.44315 0.24999-0.1079 0.51685-0.16185 0.80056-0.16185s0.55056 0.0539 0.80056 0.16185c0.24951 0.10789 0.46819 0.25577 0.65509 0.44315 0.18737 0.18689 0.33525 0.40557 0.44315 0.65509 0.10741 0.24999 0.16184 0.51684 0.16184 0.80055 0 0.28372-0.0544 0.55057-0.16184 0.80056-0.1079 0.24952-0.25578 0.4682-0.44315 0.65558-0.1869 0.18689-0.40558 0.33477-0.65509 0.44266-0.25 0.1079-0.51685 0.16137-0.80056 0.16137"/>
   <path id="path72764" d="m369.81 459.97c0.0718 0 0.13921-0.0145 0.20183-0.0424 0.0621-0.0284 0.11608-0.0674 0.16136-0.11656 0.0458-0.0491 0.0814-0.10501 0.1079-0.16763 0.0265-0.0621 0.04-0.12765 0.04-0.19556 0-0.13632-0.0487-0.25626-0.14499-0.36078-0.0963-0.10357-0.21868-0.15607-0.36608-0.15607h-0.40847v1.039h0.40847zm-1.3169-1.8901h1.328c0.19701 0 0.37957 0.0361 0.54816 0.1079 0.1681 0.0718 0.31405 0.16907 0.43688 0.29238 0.12332 0.12283 0.21965 0.26734 0.2895 0.434 0.0698 0.16666 0.105 0.3444 0.105 0.53371 0 0.1893-0.0352 0.36704-0.105 0.53322-0.0698 0.16666-0.16618 0.31165-0.2895 0.43448-0.12283 0.12283-0.26878 0.22061-0.43688 0.29238-0.16859 0.0718-0.35115 0.1079-0.54816 0.1079h-0.41955v1.2943h-0.90845v-4.0302z"/>
   <path id="path72766" d="m371.52 460.1h1.6117v0.81742h-1.6117v-0.81742z"/>
   <path id="path72770" d="m375.37 462.15c-0.24228 0-0.46434-0.04-0.66713-0.11898-0.20231-0.0795-0.37619-0.19315-0.52166-0.34055-0.14595-0.14787-0.25963-0.32417-0.34103-0.53081-0.0814-0.20616-0.12187-0.43593-0.12187-0.68977v-2.3954h0.90797v2.407c0 0.24566 0.0684 0.43977 0.20424 0.58139 0.13631 0.1421 0.31598 0.21339 0.53948 0.21339 0.22302 0 0.40317-0.0713 0.53901-0.21339 0.13632-0.14162 0.20471-0.33573 0.20471-0.58139v-2.407h0.90798v2.3954c0 0.25384-0.0405 0.48361-0.12187 0.68977-0.0819 0.20664-0.19508 0.38294-0.34103 0.53081-0.14547 0.1474-0.31936 0.26108-0.52166 0.34055-0.20231 0.079-0.42485 0.11898-0.66714 0.11898"/>
   <path id="path72774" d="m379.06 459.97c0.0722 0 0.1392-0.0145 0.20134-0.0424 0.0631-0.0284 0.11657-0.0674 0.16233-0.11656 0.0453-0.0491 0.0814-0.10501 0.10741-0.16763 0.0265-0.0621 0.04-0.12765 0.04-0.19556 0-0.13632-0.0482-0.25626-0.14498-0.36078-0.0963-0.10357-0.21821-0.15607-0.36608-0.15607h-0.40895v1.039h0.40895zm-1.3169-1.8901h1.3285c0.197 0 0.37908 0.0361 0.54719 0.1079 0.16907 0.0718 0.31454 0.16907 0.43785 0.29238 0.12283 0.12283 0.21917 0.26734 0.28901 0.434 0.0703 0.16666 0.10549 0.3444 0.10549 0.53371 0 0.1893-0.0352 0.36704-0.10549 0.53322-0.0698 0.16666-0.16618 0.31165-0.28901 0.43448-0.12331 0.12283-0.26878 0.22061-0.43785 0.29238-0.16811 0.0718-0.35019 0.1079-0.54719 0.1079h-0.42051v1.2943h-0.90798v-4.0302z"/>
  </g>
 </g>
</svg>
