<svg width="24.02mm" height="6.9525mm" version="1.1" viewBox="0 0 85.11 24.635" xmlns="http://www.w3.org/2000/svg">
 <g transform="matrix(1.25 0 0 -1.25 13.965 5.29)" fill="#231f20">
  <path d="m8.342 4.213v-19.515h-19.514v19.515l9.758-9.757z" fill="#231f20"/>
 </g>
 <g transform="translate(-.0075 .019952)" fill="#231f20">
  <g transform="matrix(1.25 0 0 -1.25 32.535 -.0175)">
   <path d="m0 0 4.428-4.44 4.427 4.44v-8.98h-2v4.352l-2.427-2.426-2.427 2.426v-4.352h-2.001z" fill="#231f20"/>
  </g>
  <g transform="matrix(1.25,0,0,-1.25,53.385,5.6575)">
   <path d="m0 0c0 1.426-1.088 2.614-2.526 2.614-1.439 0-2.527-1.188-2.527-2.614s1.088-2.614 2.527-2.614c1.438 0 2.526 1.188 2.526 2.614m-7.066 0c0 2.501 2.038 4.54 4.54 4.54 2.501 0 4.54-2.039 4.54-4.54 0-2.502-2.039-4.54-4.54-4.54-2.502 0-4.54 2.038-4.54 4.54" fill="#231f20"/>
  </g>
  <g transform="matrix(1.25 0 0 -1.25 55.035 .1075)">
   <path d="m0 0h2.227l1.964-4.44 1.963 4.44h2.227l-4.19-8.98z" fill="#231f20"/>
  </g>
  <path d="m66.098 0.1075h2.5012v11.1h-2.5012z" stroke-width="1.25"/>
  <g transform="matrix(1.25 0 0 -1.25 70.148 .1075)">
   <path d="m0 0h5.503v-1.976h-3.503v-1.501h2.753v-1.926h-2.753v-1.501h3.503v-1.976h-5.503z" fill="#231f20"/>
  </g>
  <g transform="matrix(1.25 0 0 -1.25 77.598 9.1575)">
   <path d="m0 0 1.513 1.238c0.388-0.613 1.026-1.1 1.639-1.1 0.588 0 0.85 0.225 0.85 0.638 0 0.4-0.287 0.65-1.038 0.988l-0.5 0.225c-1.338 0.6-2.077 1.588-2.077 2.789 0 1.551 1.289 2.564 2.702 2.564 0.989 0 1.739-0.238 2.489-1.113l-1.35-1.426c-0.45 0.55-0.726 0.663-1.139 0.663-0.337 0-0.688-0.213-0.688-0.613 0-0.463 0.388-0.713 1.201-1.076l0.476-0.212c1.225-0.551 1.938-1.439 1.938-2.664 0-1.602-1.175-2.639-2.826-2.639-1.427 0-2.577 0.587-3.19 1.738" fill="#231f20"/>
  </g>
 </g>
 <g transform="translate(-4.4479 81.046)" fill="#231f20" stroke-width="1.25">
  <path d="m36.975-67.606h6.6049v2.49h-4.0887v1.8912h3.145v2.4262h-3.145v4.3812h-2.5162z"/>
  <path d="m49.038-60.193-1.0537-2.3325-1.0537 2.3325zm-1.0537-7.5324 5.5037 11.315h-2.6412l-0.80249-1.7337h-4.12l-0.80124 1.7337h-2.6425z"/>
  <path d="m54.388-67.731 5.5662 5.5949 5.5662-5.5949v11.315h-2.5162v-5.4837l-3.05 3.0562-3.05-3.0562v5.4837h-2.5162z"/>
  <path d="m67.625-67.606h2.5162v11.189h-2.5162z"/>
  <path d="m72.25-67.606h2.5162v8.6824h4.34v2.5062h-6.8562z"/>
  <path d="m81.412-61.118-4.135-6.4924h2.9412l2.4512 3.9712 2.4537-3.9712h2.94l-4.1337 6.4924v4.6962h-2.5175z"/>
 </g>
</svg>
