<?xml version="1.0" encoding="UTF-8"?>
<!-- Created with Inkscape (http://www.inkscape.org/) -->
<svg id="svg89063" width="13.109mm" height="8.7499mm" version="1.1" viewBox="0 0 46.448 31.004" xmlns="http://www.w3.org/2000/svg" xmlns:cc="http://creativecommons.org/ns#" xmlns:dc="http://purl.org/dc/elements/1.1/" xmlns:rdf="http://www.w3.org/1999/02/22-rdf-syntax-ns#">
 <defs id="defs89065">
  <clipPath id="clipPath2054">
   <path id="path2056" d="m211.64 499.87h82.8v24.803h-82.8v-24.803z"/>
  </clipPath>
  <clipPath id="clipPath2038">
   <path id="path2040" d="m234.46 499.87h37.158v24.803h-37.158v-24.803z"/>
  </clipPath>
  <clipPath id="clipPath2026">
   <path id="path2028" d="m211.64 499.87h82.8v24.803h-82.8v-24.803z"/>
  </clipPath>
 </defs>
 <metadata id="metadata89068">
  <rdf:RDF>
   <cc:Work rdf:about="">
    <dc:format>image/svg+xml</dc:format>
    <dc:type rdf:resource="http://purl.org/dc/dcmitype/StillImage"/>
    <dc:title/>
   </cc:Work>
  </rdf:RDF>
 </metadata>
 <g id="layer1" transform="translate(-273.92 -514)">
  <g id="g2022" transform="matrix(1.25 0 0 -1.25 -19.15 1169.8)">
   <g id="g2024" clip-path="url(#clipPath2026)">
    <g id="g2030" transform="translate(261.6 516.26)">
     <path id="path2032" d="m0 0c0-4.644-3.765-8.41-8.411-8.41-4.644 0-8.41 3.766-8.41 8.41s3.766 8.411 8.41 8.411c4.646 0 8.411-3.767 8.411-8.411" fill="#231f20"/>
    </g>
   </g>
  </g>
  <g id="g2034" transform="matrix(1.25 0 0 -1.25 -19.15 1169.8)">
   <g id="g2036" clip-path="url(#clipPath2038)">
    <g id="g2042" transform="translate(251.97 514.82)">
     <path id="path2044" d="m0 0c0.411 0.525 0.603 0.697 0.603 1.154s-0.052 0.549-0.781 1.482c-1.173 1.505-2.735 3.331-3.552 3.642-0.191 0.073-0.293 0.113-0.394 0.12-1.21-1.3-1.95-3.044-1.95-4.96 0-1.909 0.734-3.645 1.934-4.944 0.036-2e-3 0.075-6e-3 0.109-6e-3 0.213 0 0.294 0.066 0.515 0.166 0.691 0.309 2.912 2.579 3.516 3.346m8.507 1.438c0 1.444-0.421 2.789-1.145 3.922 0.064-0.232 0.073-0.441 0.044-0.73-0.089-0.859-0.374-1.7-0.533-2.121-0.16-0.423-0.355-1.044-0.338-1.318 0.019-0.274 0.072-0.33 0.144-0.66 0.069-0.327 0.656-1.481 0.692-2.431 0.014-0.343-7e-3 -0.492-0.054-0.652 0.751 1.146 1.19 2.517 1.19 3.99m-3.232-4.436c-0.302 0.347-1.012 0.987-1.688 1.023-0.674 0.037-1.114-0.393-2.272-0.951-1.369-0.658-2.523-0.987-3.02-1.135-0.434-0.126-1.136-0.24-1.569-0.244 1.239-0.968 2.797-1.549 4.49-1.549 1.903 0 3.635 0.73 4.933 1.924-0.127 0.199-0.601 0.616-0.874 0.932m-8.594 10.143c0.234 4e-3 0.489-0.019 1.028-0.098 0.623-0.093 2.783-0.88 4.387-1.886 0.817-0.512 1.262-0.621 1.598-0.621 0.232 0 0.586 0.185 1.42 0.951 0.817 0.75 0.917 0.902 1.031 1.098 0.042 0.071 0.069 0.112 0.087 0.138-1.306 1.24-3.072 2.002-5.016 2.002-1.714 0-3.29-0.593-4.535-1.584" fill="#ed1443"/>
    </g>
    <g id="g2046" transform="translate(252.03 503.71)">
     <path id="path2048" d="m0 0c-0.306 0.189-1.233 0.351-1.601 0.441-0.254 0.062-0.56 0.103-0.497 0.273 0.047 0.122 0.229 0.193 0.512 0.195 0.246 2e-3 1.806 0 2.074 0 0.148 0 0.355 0.132 0.512 0.721 0.083 0.318-0.037 0.319-0.219 0.319h-2.709c-0.423 0-0.808-0.246-1.114-0.644-0.306-0.401-0.467-0.882-0.416-1.156 0.06-0.325 0.325-0.499 0.693-0.625 0.367-0.126 0.929-0.244 1.203-0.319 0.296-0.077 0.777-0.109 0.697-0.288-0.058-0.131-0.128-0.2-0.417-0.196-0.334 8e-3 -1.83 4e-3 -2.121 0-0.327-2e-3 -0.484-0.281-0.609-0.76-0.078-0.292-0.014-0.295 0.267-0.295h2.283c0.422 0 0.821 0.099 1.084 0.257 0.178 0.104 0.609 0.365 0.765 0.958 0.2 0.752-0.065 0.919-0.387 1.119m-8.007 1.019-0.978 0.965h-8e-3l-1.451-1.396 0.377 1.396-4.984 1e-3c-0.643 0-1.214-0.483-1.214-1.092 0-0.291 0.12-0.557 0.315-0.752l0.96-0.895c0.063-0.064 0.096-0.138 0.096-0.203 0-0.148-0.095-0.264-0.344-0.264h-2.025l-0.313-1.145h3.387c0.644 0 1.217 0.48 1.218 1.087 0 0.291-0.12 0.557-0.315 0.753l-0.971 0.908c-0.054 0.054-0.085 0.126-0.085 0.188 0 0.15 0.106 0.263 0.297 0.263h2.056l-0.856-3.199h1.609l0.367 1.371 1.429-1.371h6e-3l0.98 0.965-1.034 0.993 1.481 1.427zm3.089 0.965-1.042-1.003-1.043 1.003h-0.013l-0.972-0.967 1.032-0.992-1.483-1.427 0.988-0.964 4.525 4.35h-1.992zm16.359-1.212c0.156 0.592-0.138 0.853-0.261 0.959-0.181 0.157-0.526 0.256-0.949 0.256h-1.734c-0.422 0-0.82-0.099-1.083-0.256-0.178-0.106-0.609-0.367-0.765-0.959l-6e-3 -0.021h-2e-3l-0.493-1.87c-0.156-0.593 0.138-0.854 0.26-0.958 0.181-0.158 0.526-0.257 0.949-0.257h1.735c0.422 0 0.82 0.099 1.084 0.257 0.177 0.104 0.608 0.365 0.765 0.958l0.304 1.156 0.196 0.735zm-1.353-0.058-0.475-1.798c-0.041-0.178-0.082-0.195-0.415-0.195-0.072 0-0.83 3e-3 -0.999 1e-3 -0.178-1e-3 -0.319-1e-3 -0.39-1e-3 -0.335 0-0.365 0.017-0.314 0.195l0.474 1.798c0.044 0.179 0.084 0.195 0.416 0.195h0.317c0.167-2e-3 1 0 1.071 0 0.333 0 0.367-0.016 0.315-0.195m5.634 1.124h2e-3c6e-3 0.084-0.054 0.149-0.148 0.149h-0.175-1.534c-0.424 0-0.822-0.099-1.086-0.256-0.177-0.106-0.609-0.367-0.765-0.959l-5e-3 -0.021-0.08-0.304v-1e-3l-0.679-2.572c-0.048-0.179 0.103-0.188 0.288-0.188h0.682c0.187 0 0.379 0.148 0.425 0.33l0.714 2.698c0.043 0.179 0.083 0.195 0.418 0.195h0.39c0.101-1e-3 0.533-1e-3 0.948-1e-3v3e-3h0.163c0.123 0 0.306 0.308 0.394 0.64 0.029 0.104 0.043 0.202 0.048 0.287m-9.82-0.129c-0.18 0.158-0.526 0.256-0.948 0.256h-0.153c-0.041 4e-3 -0.076 6e-3 -0.094 6e-3h-1.925-0.718c-0.021 0-0.041-3e-3 -0.061-7e-3 -0.197-2e-3 -0.264-0.027-0.328-0.233-0.016-0.028-0.029-0.058-0.039-0.089l-1.396-5.295c-0.049-0.182 0.103-0.189 0.289-0.189h0.681c0.187 0 0.378 0.148 0.426 0.329l0.312 1.179h1.871c0.423 0 0.821 0.099 1.084 0.257 0.178 0.104 0.608 0.365 0.766 0.958l0.493 1.87c0.156 0.592-0.138 0.853-0.26 0.958m-1.086-0.995-0.474-1.798c-0.042-0.178-0.083-0.195-0.417-0.195-0.198 0-1.072 2e-3 -1.698 2e-3l0.576 2.184c0.627 1e-3 1.501 2e-3 1.699 2e-3 0.334 0 0.365-0.016 0.314-0.195m14.618 1.234h-1.783l0.416 1.574c0.049 0.18-0.01 0.258-0.197 0.258h-0.755c-0.187 0-0.379-0.148-0.427-0.33l-1.236-4.649c-2e-3 -0.013-2e-3 -0.022-4e-3 -0.031l-2e-3 -1e-3c-0.015-0.081-0.012-0.098-0.012-0.171 0-0.378 0.194-0.559 0.288-0.647 0.175-0.164 0.505-0.258 0.904-0.258h1.148l0.478 1e-3 0.155 2e-3c0.086 1e-3 0.304 0.363 0.383 0.674 0.023 0.1 0.041 0.198 0.045 0.286v0.011c0 0.023-8e-3 0.042-0.02 0.057-0.02 0.02-0.046 0.025-0.281 0.025h-1.733l5e-3 0.013 0.572 2.149h1.771c0.124 0 0.296 0.269 0.384 0.602 0.028 0.104 0.043 0.203 0.049 0.288h2e-3c5e-3 0.083-0.056 0.147-0.15 0.147" fill="#252122"/>
    </g>
   </g>
  </g>
  <g id="g2050" transform="matrix(1.25 0 0 -1.25 -19.15 1169.8)">
   <g id="g2052" clip-path="url(#clipPath2054)">
    <g id="g2058" transform="translate(243.03 505.71)">
     <path id="path2060" d="M 0,0 1.001,-0.988 1.996,0.002 0,0 Z" fill="#6b6969"/>
    </g>
    <g id="g2062" transform="translate(243.58 502.32)">
     <path id="path2064" d="M 0,0 -1.001,-0.986 1.008,-0.983 0,0 Z" fill="#6b6969"/>
    </g>
    <g id="g2066" transform="translate(256.92 519.13)">
     <path id="path2068" d="m0 0h-0.015c-0.182 0-0.454-0.084-0.605-0.187l-1.31-0.888c-0.076-0.051-0.155-0.136-0.217-0.231l-0.059-0.038-0.023-0.102c-0.023-0.05-0.041-0.099-0.05-0.143l-0.023-0.099c-9e-3 -0.035-6e-3 -0.067-3e-3 -0.098l-0.071-0.313h0.481c0.052-0.06 0.076-0.146 0.054-0.246l-0.694-3.07c-0.04-0.181 0.075-0.329 0.256-0.329h0.983c0.181 0 0.363 0.148 0.405 0.329l1.147 5.085c0.041 0.181-0.074 0.33-0.256 0.33" fill="#ddd"/>
    </g>
   </g>
  </g>
 </g>
</svg>
