<?xml version="1.0" encoding="UTF-8"?>
<!-- Created with Inkscape (http://www.inkscape.org/) -->
<svg id="svg315612" width="23.338mm" height="6.7302mm" version="1.1" viewBox="0 0 82.692 23.847" xmlns="http://www.w3.org/2000/svg" xmlns:cc="http://creativecommons.org/ns#" xmlns:dc="http://purl.org/dc/elements/1.1/" xmlns:rdf="http://www.w3.org/1999/02/22-rdf-syntax-ns#">
 <defs id="defs315614">
  <clipPath id="clipPath72556">
   <path id="path72558" d="m480.61 579.37h82.8v24.803h-82.8v-24.803z"/>
  </clipPath>
 </defs>
 <metadata id="metadata315617">
  <rdf:RDF>
   <cc:Work rdf:about="">
    <dc:format>image/svg+xml</dc:format>
    <dc:type rdf:resource="http://purl.org/dc/dcmitype/StillImage"/>
    <dc:title/>
   </cc:Work>
  </rdf:RDF>
 </metadata>
 <g id="layer1" transform="translate(-324.37 -506.15)">
  <g id="g72552" transform="matrix(1.25 0 0 -1.25 -286.8 1257.8)">
   <g id="g72554" clip-path="url(#clipPath72556)">
    <g id="g72560" transform="translate(499.79 597.2)">
     <path id="path72562" d="m0 0-0.572 0.573 0.923 0.923 0.572-0.573-0.923-0.923zm2.068 2.068-0.572-0.572-0.573 0.572h-1.145l-0.923-0.923 0.231 0.923h-2.853c-0.367 0-0.694-0.294-0.694-0.663 0-0.176 0.069-0.337 0.179-0.457l0.551-0.543c0.037-0.038 0.054-0.084 0.054-0.122 0-0.091-0.054-0.16-0.196-0.16h-1.158l-0.175-0.695h1.934c0.368 0 0.697 0.291 0.698 0.66-1e-3 0.176-0.07 0.338-0.181 0.456l-0.557 0.552c-0.031 0.031-0.048 0.075-0.048 0.114 0 0.091 0.061 0.163 0.17 0.163h1.178l-0.485-1.945h0.924l0.2 0.801 0.801-0.801h1.145l2.64 2.64h-1.145zm6.037 2.025v-18.959h-18.959v18.959l9.48-9.479 9.479 9.479z" fill="#e9128c"/>
    </g>
    <g id="g72564" transform="translate(514.22 601.31)">
     <path id="path72566" d="m0 0 4.301-4.314 4.302 4.314v-8.725h-1.944v4.229l-2.358-2.357-2.357 2.357v-4.229h-1.944v8.725z" fill="#e9128c"/>
    </g>
    <g id="g72568" transform="translate(530.43 596.9)">
     <path id="path72570" d="m0 0c0 1.385-1.057 2.539-2.455 2.539s-2.455-1.154-2.455-2.539c0-1.386 1.057-2.54 2.455-2.54s2.455 1.154 2.455 2.54m-6.866 0c0 2.43 1.98 4.411 4.411 4.411s4.411-1.981 4.411-4.411c0-2.431-1.98-4.411-4.411-4.411s-4.411 1.98-4.411 4.411" fill="#e9128c"/>
    </g>
    <g id="g72572" transform="translate(531.71 601.22)">
     <path id="path72574" d="M 0,0 2.162,0 4.07,-4.314 5.978,0 8.141,0 4.07,-8.725 0,0 Z" fill="#e9128c"/>
    </g>
    <path id="path72576" d="m540.3 601.22h1.944v-8.628h-1.944v8.628z" fill="#e9128c"/>
    <g id="g72578" transform="translate(543.45 601.22)">
     <path id="path72580" d="m0 0h5.346v-1.92h-3.402v-1.459h2.673v-1.871h-2.673v-1.458h3.402v-1.92h-5.346v8.628z" fill="#e9128c"/>
    </g>
    <g id="g72582" transform="translate(549.25 594.18)">
     <path id="path72584" d="m0 0 1.47 1.203c0.377-0.596 0.997-1.069 1.592-1.069 0.571 0 0.826 0.218 0.826 0.619 0 0.389-0.279 0.632-1.008 0.96l-0.486 0.219c-1.3 0.583-2.017 1.543-2.017 2.71 0 1.507 1.251 2.491 2.624 2.491 0.96 0 1.689-0.231 2.418-1.082l-1.312-1.385c-0.437 0.535-0.705 0.644-1.106 0.644-0.327 0-0.668-0.206-0.668-0.595 0-0.45 0.377-0.693 1.167-1.046l0.461-0.206c1.191-0.535 1.884-1.397 1.884-2.588 0-1.556-1.143-2.564-2.747-2.564-1.385 0-2.502 0.571-3.098 1.689" fill="#e9128c"/>
    </g>
    <g id="g72586" transform="translate(513.82 586.65)">
     <path id="path72588" d="m0 0c0 2.431 1.981 4.411 4.411 4.411 1.482 0 2.649-0.596 3.487-1.629l-1.47-1.202c-0.522 0.655-1.094 0.959-2.017 0.959-1.398 0-2.455-1.153-2.455-2.539s1.057-2.54 2.455-2.54c0.705 0 1.239 0.122 1.665 0.425v1.204h-2.078l0.826 1.823h3.135v-3.913c-0.851-0.973-2.09-1.41-3.548-1.41-2.43 0-4.411 1.98-4.411 4.411" fill="#e9128c"/>
    </g>
    <g id="g72590" transform="translate(525.75 587.47)">
     <path id="path72592" d="m0 0c0.522 0 0.899 0.376 0.899 0.851 0 0.474-0.377 0.862-0.899 0.862h-1.094v-1.713h1.094zm-1.094-5.14h-1.944v8.627h3.256c1.41 0 2.565-1.154 2.565-2.564 0-1.069-0.657-2.017-1.654-2.393l2.795-3.67h-2.321l-2.672 3.499h-0.025v-3.499z" fill="#e9128c"/>
    </g>
    <g id="g72594" transform="translate(529.82 590.96)">
     <path id="path72596" d="m0 0h5.347v-1.919h-3.402v-1.459h2.672v-1.871h-2.672v-1.458h3.402v-1.92h-5.347v8.627z" fill="#e9128c"/>
    </g>
    <g id="g72598" transform="translate(540.35 585.25)">
     <path id="path72600" d="m0 0-0.814 1.799-0.814-1.799h1.628zm-0.814 5.809 4.253-8.725h-2.042l-0.619 1.337h-3.184l-0.62-1.337h-2.041l4.253 8.725z" fill="#e9128c"/>
    </g>
    <g id="g72602" transform="translate(544.56 589.04)">
     <path id="path72604" d="m0 0h-2.065v1.919h6.087v-1.919h-2.077v-6.707h-1.945v6.707z" fill="#e9128c"/>
    </g>
    <g id="g72606" transform="translate(548.65 583.93)">
     <path id="path72608" d="m0 0 1.471 1.203c0.376-0.596 0.996-1.07 1.592-1.07 0.57 0 0.826 0.219 0.826 0.62 0 0.389-0.28 0.632-1.009 0.96l-0.486 0.218c-1.3 0.584-2.017 1.544-2.017 2.711 0 1.506 1.252 2.49 2.625 2.49 0.96 0 1.689-0.231 2.417-1.081l-1.312-1.385c-0.437 0.535-0.705 0.643-1.105 0.643-0.328 0-0.669-0.206-0.669-0.595 0-0.449 0.377-0.692 1.167-1.045l0.462-0.207c1.19-0.534 1.883-1.397 1.883-2.588 0-1.555-1.142-2.564-2.747-2.564-1.384 0-2.502 0.572-3.098 1.69" fill="#e9128c"/>
    </g>
   </g>
  </g>
 </g>
</svg>
