<svg height="6.686762mm" viewBox="0 0 82.579375 23.693251" width="23.305735mm" xmlns="http://www.w3.org/2000/svg" xmlns:xlink="http://www.w3.org/1999/xlink"><clipPath id="a"><path d="m306.496 579.373h72.397v24.803h-72.397z"/></clipPath><g clip-path="url(#a)" transform="matrix(1.25 0 0 -1.25 -387.078121 751.56512)"><g transform="translate(320.5015 597.1437)"><path d="m0 0-.571.572.921.922.572-.572zm2.065 2.066-.571-.572-.572.572h-1.143l-.922-.922.23.922h-2.849c-.367-.001-.693-.294-.693-.663 0-.176.069-.337.179-.456l.55-.543c.037-.038.054-.083.054-.121 0-.091-.054-.16-.196-.16h-1.156l-.175-.694h1.932c.367 0 .696.29.696.659 0 .176-.069.337-.181.456l-.556.55c-.03.032-.048.076-.048.114 0 .091.061.164.17.164h1.177l-.484-1.943h.922l.2.799.8-.799h1.143l2.636 2.637zm6.029 2.022v-18.933h-18.933v18.933l9.467-9.467z" fill="#9e50ae"/></g><g transform="translate(334.9072 601.2519)"><path d="m0 0 4.296-4.308 4.296 4.308v-8.713h-1.942v4.223l-2.354-2.354-2.355 2.354v-4.223h-1.941z" fill="#9e50ae"/></g><g transform="translate(351.0949 596.847)"><path d="m0 0c0 1.383-1.056 2.536-2.452 2.536-1.395 0-2.451-1.153-2.451-2.536 0-1.384 1.056-2.536 2.451-2.536 1.396 0 2.452 1.152 2.452 2.536m-6.856 0c0 2.427 1.977 4.405 4.404 4.405 2.428 0 4.405-1.978 4.405-4.405s-1.977-4.405-4.405-4.405c-2.427 0-4.404 1.978-4.404 4.405" fill="#9e50ae"/></g><g transform="translate(352.3803 601.1549)"><path d="m0 0h2.16l1.905-4.308 1.905 4.308h2.16l-4.065-8.713z" fill="#9e50ae"/></g><path d="m360.959 601.155h1.941v-8.616h-1.941z" fill="#9e50ae"/><g transform="translate(364.1009 601.1549)"><path d="m0 0h5.339v-1.918h-3.398v-1.456h2.671v-1.868h-2.671v-1.457h3.398v-1.917h-5.339z" fill="#9e50ae"/></g><g transform="translate(369.889 594.1291)"><path d="m0 0 1.468 1.201c.377-.595.996-1.068 1.59-1.068.57 0 .825.218.825.619 0 .388-.279.631-1.007.959l-.485.218c-1.299.582-2.015 1.541-2.015 2.706 0 1.505 1.25 2.488 2.621 2.488.959 0 1.687-.231 2.415-1.08l-1.311-1.384c-.436.534-.703.644-1.104.644-.327 0-.667-.207-.667-.595 0-.449.376-.692 1.165-1.044l.461-.206c1.189-.534 1.881-1.395 1.881-2.585 0-1.553-1.141-2.56-2.743-2.56-1.383 0-2.499.57-3.094 1.687" fill="#9e50ae"/></g><g transform="translate(334.9072 590.913)"><path d="m0 0h5.339v-1.917h-3.398v-1.457h2.67v-1.868h-2.67v-1.456h3.398v-1.917h-5.339z" fill="#9e50ae"/></g><g transform="translate(343.3893 586.6175)"><path d="m0 0-2.537 4.295h2.246l1.662-2.862 1.663 2.862h2.245l-2.537-4.295 2.719-4.32h-2.258l-1.832 2.961-1.833-2.961h-2.257z" fill="#9e50ae"/></g><g transform="translate(350.961 588.9961)"><path d="m0 0h-2.064v1.917h6.08v-1.917h-2.075v-6.698h-1.941z" fill="#9e50ae"/></g><g transform="translate(358.8718 587.4308)"><path d="m0 0c .522 0 .898.376.898.85 0 .473-.376.861-.898.861h-1.093v-1.711zm-1.093-5.133h-1.941v8.615h3.252c1.408 0 2.561-1.152 2.561-2.56 0-1.068-.655-2.014-1.65-2.39l2.79-3.665h-2.317l-2.67 3.495h-.025z" fill="#9e50ae"/></g><g transform="translate(367.3054 585.2096)"><path d="m0 0-.814 1.797-.813-1.797zm-.814 5.801 4.248-8.713h-2.039l-.619 1.335h-3.179l-.619-1.335h-2.039z" fill="#9e50ae"/></g></g></svg>