<svg height="8.749912mm" viewBox="0 0 46.44875 31.003626" width="13.10887mm" xmlns="http://www.w3.org/2000/svg" xmlns:xlink="http://www.w3.org/1999/xlink"><clipPath id="a"><path d="m480.614 498.869h82.8v24.803h-82.8z"/></clipPath><clipPath id="b"><path d="m503.435 498.869h37.159v24.803h-37.159z"/></clipPath><g clip-path="url(#b)" transform="matrix(1.25 0 0 -1.25 -629.29375 654.59)"><g transform="translate(530.575 515.262)"><path d="m0 0c0-4.644-3.766-8.41-8.41-8.41-4.645 0-8.41 3.766-8.41 8.41 0 4.646 3.765 8.411 8.41 8.411 4.644 0 8.41-3.765 8.41-8.411" fill="#231f20"/></g><g transform="translate(520.9479 513.8242)"><path d="m0 0c .411.525.604.696.604 1.154 0 .457-.053.549-.781 1.482-1.174 1.504-2.735 3.331-3.553 3.642-.191.072-.293.111-.394.12-1.209-1.301-1.95-3.044-1.95-4.96 0-1.908.734-3.645 1.935-4.945.036-.002.074-.004.108-.004.213 0 .294.065.515.164.692.311 2.912 2.581 3.516 3.347m8.508 1.438c0 1.445-.422 2.789-1.146 3.921.064-.232.074-.439.044-.729-.089-.86-.373-1.701-.532-2.121-.16-.422-.355-1.044-.338-1.318.017-.275.071-.329.143-.659.071-.329.656-1.482.692-2.432.012-.343-.007-.492-.053-.651.751 1.145 1.19 2.515 1.19 3.989m-3.232-4.436c-.302.348-1.013.988-1.688 1.024-.676.037-1.114-.393-2.273-.952-1.368-.657-2.523-.987-3.019-1.134-.434-.127-1.137-.242-1.57-.244 1.238-.97 2.796-1.549 4.491-1.549 1.903 0 3.634.729 4.933 1.922-.129.199-.601.617-.874.933m-8.595 10.143c.234.003.49-.019 1.029-.099.622-.092 2.782-.88 4.386-1.884.816-.513 1.261-.623 1.599-.623.229 0 .585.185 1.42.952.817.749.916.901 1.031 1.099.041.07.069.111.086.136-1.307 1.241-3.071 2.004-5.015 2.004-1.715 0-3.291-.594-4.536-1.585" fill="#ed1443"/></g><g transform="translate(521.0098 502.7121)"><path d="m0 0c-.306.189-1.232.35-1.601.441-.253.061-.56.101-.496.273.046.122.228.192.51.195.247.001 1.807-.001 2.075 0 .148 0 .356.131.511.72.083.318-.035.32-.218.32h-2.709c-.423 0-.808-.247-1.114-.646-.306-.4-.467-.88-.417-1.154.061-.326.326-.5.694-.625.367-.128.93-.245 1.203-.319.296-.077.777-.11.697-.289-.058-.129-.128-.201-.417-.195-.334.007-1.83.003-2.121 0-.326-.003-.484-.282-.609-.762-.078-.291-.014-.293.266-.293h2.284c.424 0 .822.098 1.085.254.177.107.609.367.765.96.198.752-.066.919-.388 1.12m-8.006 1.018-.979.966h-.008l-1.452-1.397.378 1.397h-4.984c-.643 0-1.214-.483-1.214-1.091 0-.291.12-.556.315-.753l.96-.894c.063-.065.096-.14.096-.203 0-.149-.095-.265-.344-.265h-2.024l-.313-1.145h3.386c.644 0 1.217.479 1.218 1.088 0 .291-.12.557-.315.752l-.972.908c-.054.055-.084.125-.084.189 0 .15.106.263.297.263h2.056l-.857-3.2h1.61l.366 1.372 1.429-1.372h.007l.98.966-1.034.993zm3.088.966-1.042-1.004-1.042 1.004h-.014l-.971-.968 1.032-.992-1.483-1.426.987-.965 4.525 4.351zm16.358-1.213c.157.593-.137.854-.26.96-.18.157-.526.255-.949.255h-1.733c-.422 0-.821-.098-1.083-.255-.178-.106-.61-.367-.767-.96l-.005-.021-.495-1.87c-.156-.593.138-.853.259-.96.182-.156.527-.254.95-.254h1.735c.422 0 .821.098 1.083.254.177.107.61.367.766.96l.305 1.157zm-1.351-.057-.475-1.799c-.042-.177-.083-.194-.416-.194-.072 0-.831.002-.999.001-.178-.001-.319-.001-.39-.001-.334 0-.365.017-.315.194l.475 1.799c.044.179.084.195.418.195.071 0 .135 0 .316-.001.167-.002 1 .001 1.072.001.332 0 .366-.016.314-.195m5.634 1.123c.007.084-.053.149-.148.149h-.173-1.535c-.424 0-.821-.098-1.085-.255-.176-.106-.61-.367-.765-.96l-.006-.021-.079-.303v-.001l-.68-2.571c-.049-.182.104-.189.289-.189h.682c.185 0 .378.148.426.33l.712 2.698c.043.179.084.195.418.195.069 0 .209 0 .389-.001h.95v.002h.161c.126 0 .307.307.396.64.028.104.043.201.048.287m-9.82-.129c-.179.157-.526.257-.949.257h-.152c-.043.003-.075.006-.094.006h-1.926v-.001h-.718c-.02 0-.04-.003-.061-.007-.197-.002-.264-.027-.327-.232-.016-.029-.031-.059-.039-.091l-1.397-5.294c-.048-.182.103-.189.289-.189h.681c.187 0 .379.148.427.329l.31 1.18h1.872c.423 0 .821.098 1.084.254.178.107.609.367.766.96l.494 1.87c.155.592-.138.853-.26.958m-1.086-.994-.475-1.799c-.043-.177-.084-.194-.418-.194-.197 0-1.069.001-1.698.001l.578 2.184c.626.002 1.501.003 1.699.003.334 0 .365-.016.314-.195m14.618 1.233h-1.784l.416 1.574c.048.181-.01.259-.197.259h-.755c-.186 0-.377-.148-.426-.33l-1.236-4.65c-.003-.012-.003-.022-.004-.031h-.003c-.014-.082-.011-.098-.011-.171 0-.379.194-.56.286-.647.176-.166.507-.259.906-.259h1.147.479l.154.003c.086.002.305.364.382.675.025.099.043.198.046.285v.01c0 .024-.007.043-.02.058-.018.022-.046.026-.281.026h-1.733l.005.013.573 2.148h1.77c.125 0 .297.27.385.603.028.104.043.201.048.287h.002c.006.084-.055.147-.149.147" fill="#252122"/></g></g><path d="m0 0 1.001-.988.994.991z" fill="#6b6969" transform="matrix(1.25 0 0 -1.25 10.72213 23.70233)"/><path d="m0 0 2.009.002-1.008.984z" fill="#6b6969" transform="matrix(1.25 0 0 -1.25 10.1585 29.17208)"/><g clip-path="url(#a)" transform="matrix(1.25 0 0 -1.25 -629.29375 654.59)"><g transform="translate(524.306 512.6125)"><path d="m0 0c-.085 0-.139.067-.119.15l.198.856c.019.082-.035.15-.12.15h-2.373c-.084 0-.138.067-.117.15l.288 1.249c.019.082.089.191.156.243l3.011 2.305c.066.052.19.093.276.093h1.216c.087 0 .139-.067.12-.15l-.586-2.538c-.019-.082.035-.148.12-.148l.552.005c.085.001.138-.066.119-.149l-.21-.91c-.018-.083-.104-.15-.189-.15h-.518c-.085 0-.171-.068-.19-.15l-.198-.856c-.017-.083-.103-.15-.188-.15zm.238 2.359c.084 0 .168.067.187.149l.247 1.069c.019.083-.018.104-.081.048l-1.324-1.165c-.062-.056-.046-.101.038-.101z" fill="#ddd"/></g></g></svg>