<svg width="600pt" height="428.65pt" version="1.1" viewBox="0 0 600 428.65" xmlns="http://www.w3.org/2000/svg">
 <defs>
  <clipPath id="a">
   <path d="m344.4 208.13h31.369v22.41h-31.369z"/>
  </clipPath>
 </defs>
 <g transform="matrix(19.127 0 0 -19.127 -6587.5 4409.7)">
  <g clip-path="url(#a)">
   <g transform="translate(371.18 227.12)">
    <path d="m0 0s0-1e-3 -1e-3 -1e-3v3.423h-4.13l-0.639-0.648h4.122v-21.115h-25.482v7.295l-0.647-0.656v-7.287h26.776v18.701c1e-3 0 1e-3 -1e-3 1e-3 -1e-3z" fill="#231f20"/>
   </g>
   <g transform="translate(373.67 224.06)">
    <path d="m0 0v-0.646h1.456v-11.196c0-0.028 5e-3 -0.055 0.012-0.082l0.635 0.644v11.28z" fill="#231f20"/>
   </g>
   <g transform="translate(373.02 226.65)">
    <path d="m0 0v-16.655l0.647 0.655v12.763h1e-3v0.648h-1e-3v3.235h-2.488v-0.646z" fill="#231f20"/>
   </g>
   <g transform="translate(363.08 223.32)">
    <path d="m0 0-2.272 3.849h2.011l1.49-2.566 1.489 2.566h2.012l-2.273-3.849 2.436-3.871h-2.023l-1.641 2.653-1.642-2.653h-2.023z" fill="#231f20"/>
   </g>
   <g transform="translate(350.28 211.17)">
    <path d="m0 0c-0.624 0-1.174 0.127-1.653 0.381-0.478 0.253-0.852 0.63-1.12 1.13l1.316 1.077c0.167-0.268 0.379-0.495 0.636-0.68 0.257-0.183 0.52-0.277 0.788-0.277 0.493 0 0.74 0.185 0.74 0.556 0 0.173-0.069 0.323-0.207 0.45s-0.37 0.262-0.696 0.408l-0.435 0.195c-0.587 0.261-1.034 0.6-1.342 1.017-0.309 0.417-0.463 0.887-0.463 1.408 0 0.333 0.066 0.638 0.196 0.913 0.131 0.276 0.305 0.511 0.522 0.707 0.218 0.196 0.468 0.346 0.75 0.451 0.283 0.105 0.577 0.159 0.881 0.159 0.428 0 0.814-0.068 1.158-0.202s0.679-0.39 1.006-0.767l-1.175-1.239c-0.195 0.239-0.364 0.395-0.505 0.467-0.142 0.074-0.303 0.11-0.484 0.11-0.145 0-0.281-0.047-0.408-0.137-0.127-0.091-0.19-0.223-0.19-0.397 0-0.203 0.085-0.369 0.255-0.5 0.171-0.13 0.433-0.276 0.789-0.435l0.413-0.185c0.536-0.239 0.951-0.55 1.245-0.935 0.293-0.384 0.44-0.845 0.44-1.381 0-0.348-0.061-0.663-0.185-0.945-0.123-0.283-0.293-0.525-0.511-0.724-0.217-0.199-0.476-0.353-0.777-0.462s-0.629-0.163-0.984-0.163" fill="#231f20"/>
   </g>
   <g transform="translate(352.94 218.98)">
    <path d="m0 0h4.784v-1.718h-3.044v-1.304h2.392v-1.674h-2.392v-1.306h3.044v-1.718h-4.784z" fill="#231f20"/>
   </g>
   <g transform="translate(359.72 217.26)">
    <path d="m0 0h-1.848v1.718h5.447v-1.718h-1.859v-6.002h-1.74z" fill="#231f20"/>
   </g>
   <g transform="translate(365.89 211.17)">
    <path d="m0 0c-0.623 0-1.174 0.127-1.653 0.381-0.478 0.253-0.851 0.63-1.12 1.13l1.316 1.077c0.167-0.268 0.379-0.495 0.636-0.68 0.257-0.183 0.52-0.277 0.788-0.277 0.493 0 0.74 0.185 0.74 0.556 0 0.173-0.069 0.323-0.207 0.45s-0.37 0.262-0.696 0.408l-0.435 0.195c-0.587 0.261-1.034 0.6-1.342 1.017-0.309 0.417-0.463 0.887-0.463 1.408 0 0.333 0.066 0.638 0.196 0.913 0.131 0.276 0.305 0.511 0.522 0.707 0.218 0.196 0.468 0.346 0.75 0.451 0.283 0.105 0.577 0.159 0.881 0.159 0.428 0 0.814-0.068 1.158-0.202s0.68-0.39 1.006-0.767l-1.175-1.239c-0.195 0.239-0.364 0.395-0.505 0.467-0.142 0.074-0.303 0.11-0.484 0.11-0.145 0-0.281-0.047-0.408-0.137-0.127-0.091-0.19-0.223-0.19-0.397 0-0.203 0.085-0.369 0.256-0.5 0.17-0.13 0.433-0.276 0.788-0.435l0.413-0.185c0.536-0.239 0.951-0.55 1.245-0.935 0.293-0.384 0.44-0.845 0.44-1.381 0-0.348-0.061-0.663-0.185-0.945-0.123-0.283-0.293-0.525-0.511-0.724-0.217-0.199-0.476-0.353-0.777-0.462s-0.629-0.163-0.984-0.163" fill="#231f20"/>
   </g>
   <g transform="translate(357.87 220.99)">
    <path d="m0 0c0.319 0 0.616 0.061 0.89 0.184 0.274 0.122 0.512 0.289 0.712 0.5 0.2 0.212 0.358 0.458 0.473 0.74s0.172 0.582 0.172 0.901-0.057 0.619-0.172 0.901-0.273 0.529-0.473 0.74-0.438 0.378-0.712 0.501c-0.274 0.122-0.571 0.183-0.89 0.183s-0.616-0.061-0.89-0.183c-0.274-0.123-0.512-0.29-0.712-0.501s-0.358-0.458-0.473-0.74-0.172-0.582-0.172-0.901 0.057-0.619 0.172-0.901 0.273-0.528 0.473-0.74c0.2-0.211 0.438-0.378 0.712-0.5 0.274-0.123 0.571-0.184 0.89-0.184m0-1.713c-0.556 0-1.079 0.106-1.569 0.317-0.489 0.211-0.917 0.5-1.285 0.868-0.367 0.367-0.656 0.795-0.867 1.284-0.212 0.49-0.317 1.013-0.317 1.569s0.105 1.079 0.317 1.569c0.211 0.489 0.5 0.917 0.867 1.285 0.368 0.367 0.796 0.656 1.285 0.867 0.49 0.212 1.013 0.317 1.569 0.317s1.079-0.105 1.569-0.317c0.489-0.211 0.917-0.5 1.284-0.867 0.368-0.368 0.657-0.796 0.868-1.285 0.211-0.49 0.317-1.013 0.317-1.569s-0.106-1.079-0.317-1.569c-0.211-0.489-0.5-0.917-0.868-1.284-0.367-0.368-0.795-0.657-1.284-0.868-0.49-0.211-1.013-0.317-1.569-0.317" fill="#231f20"/>
   </g>
   <g transform="translate(351.3 221.05)">
    <path d="m0 0c0.232 0 0.424 0.074 0.576 0.223 0.153 0.148 0.229 0.328 0.229 0.538s-0.076 0.392-0.229 0.544c-0.152 0.152-0.344 0.228-0.576 0.228h-1.5v-1.533zm-0.533 3.001c0.232 0 0.424 0.074 0.576 0.223 0.153 0.148 0.229 0.328 0.229 0.538s-0.076 0.391-0.229 0.544c-0.152 0.152-0.344 0.228-0.576 0.228h-0.967v-1.533zm-2.707 3.121h2.903c0.312 0 0.607-0.06 0.886-0.18s0.524-0.284 0.734-0.495c0.21-0.21 0.375-0.455 0.495-0.733 0.119-0.28 0.179-0.575 0.179-0.887 0-0.275-0.049-0.523-0.147-0.744-0.098-0.222-0.23-0.415-0.397-0.582 0.327-0.174 0.589-0.415 0.789-0.723 0.199-0.308 0.299-0.669 0.299-1.082 0-0.319-0.06-0.618-0.18-0.897-0.119-0.279-0.286-0.522-0.5-0.729-0.214-0.206-0.462-0.369-0.745-0.489-0.282-0.119-0.587-0.179-0.913-0.179h-3.403z" fill="#231f20"/>
   </g>
  </g>
 </g>
</svg>
