<?xml version="1.0" encoding="UTF-8" standalone="no"?>
<!-- Created with Inkscape (http://www.inkscape.org/) -->

<svg
   xmlns:dc="http://purl.org/dc/elements/1.1/"
   xmlns:cc="http://creativecommons.org/ns#"
   xmlns:rdf="http://www.w3.org/1999/02/22-rdf-syntax-ns#"
   xmlns:svg="http://www.w3.org/2000/svg"
   xmlns="http://www.w3.org/2000/svg"
   xmlns:sodipodi="http://sodipodi.sourceforge.net/DTD/sodipodi-0.dtd"
   xmlns:inkscape="http://www.inkscape.org/namespaces/inkscape"
   width="13.10887mm"
   height="8.7499123mm"
   viewBox="0 0 46.44875 31.003626"
   id="svg90323"
   version="1.1"
   inkscape:version="0.91 r13725"
   sodipodi:docname="Sky Sport 3 - Dark.svg">
  <defs
     id="defs90325">
    <clipPath
       clipPathUnits="userSpaceOnUse"
       id="clipPath2842">
      <path
         d="m 390.955,498.869 82.8,0 0,24.803 -82.8,0 0,-24.803 z"
         id="path2844"
         inkscape:connector-curvature="0" />
    </clipPath>
    <clipPath
       clipPathUnits="userSpaceOnUse"
       id="clipPath2814">
      <path
         d="m 413.775,498.869 37.159,0 0,24.803 -37.159,0 0,-24.803 z"
         id="path2816"
         inkscape:connector-curvature="0" />
    </clipPath>
  </defs>
  <sodipodi:namedview
     id="base"
     pagecolor="#ffffff"
     bordercolor="#666666"
     borderopacity="1.0"
     inkscape:pageopacity="0.0"
     inkscape:pageshadow="2"
     inkscape:zoom="11.2"
     inkscape:cx="-13.467926"
     inkscape:cy="17.399977"
     inkscape:document-units="px"
     inkscape:current-layer="layer1"
     showgrid="false"
     fit-margin-top="0"
     fit-margin-left="0"
     fit-margin-right="0"
     fit-margin-bottom="0"
     inkscape:window-width="1920"
     inkscape:window-height="1017"
     inkscape:window-x="-8"
     inkscape:window-y="-8"
     inkscape:window-maximized="1" />
  <metadata
     id="metadata90328">
    <rdf:RDF>
      <cc:Work
         rdf:about="">
        <dc:format>image/svg+xml</dc:format>
        <dc:type
           rdf:resource="http://purl.org/dc/dcmitype/StillImage" />
        <dc:title></dc:title>
      </cc:Work>
    </rdf:RDF>
  </metadata>
  <g
     inkscape:label="Layer 1"
     inkscape:groupmode="layer"
     id="layer1"
     transform="translate(-319.63277,-342.57468)">
    <g
       transform="matrix(1.25,0,0,-1.25,-197.58598,997.16468)"
       id="g2810">
      <g
         id="g2812"
         clip-path="url(#clipPath2814)">
        <g
           id="g2818"
           transform="translate(440.9151,515.262)">
          <path
             d="m 0,0 c 0,-4.644 -3.766,-8.41 -8.41,-8.41 -4.645,0 -8.41,3.766 -8.41,8.41 0,4.646 3.765,8.411 8.41,8.411 C -3.766,8.411 0,4.646 0,0"
             style="fill:#231f20;fill-opacity:1;fill-rule:nonzero;stroke:none"
             id="path2820"
             inkscape:connector-curvature="0" />
        </g>
        <g
           id="g2822"
           transform="translate(431.288,513.8242)">
          <path
             d="m 0,0 c 0.411,0.525 0.604,0.696 0.604,1.154 0,0.457 -0.053,0.549 -0.781,1.482 -1.174,1.504 -2.735,3.331 -3.553,3.642 -0.191,0.072 -0.293,0.111 -0.394,0.12 -1.209,-1.301 -1.95,-3.044 -1.95,-4.96 0,-1.908 0.734,-3.645 1.935,-4.945 0.036,-0.002 0.074,-0.004 0.108,-0.004 0.213,0 0.294,0.065 0.515,0.164 C -2.824,-3.036 -0.604,-0.766 0,0 M 8.508,1.438 C 8.508,2.883 8.086,4.227 7.362,5.359 7.426,5.127 7.436,4.92 7.406,4.63 7.317,3.77 7.033,2.929 6.874,2.509 6.714,2.087 6.519,1.465 6.536,1.191 6.553,0.916 6.607,0.862 6.679,0.532 6.75,0.203 7.335,-0.95 7.371,-1.9 7.383,-2.243 7.364,-2.392 7.318,-2.551 c 0.751,1.145 1.19,2.515 1.19,3.989 M 5.276,-2.998 C 4.974,-2.65 4.263,-2.01 3.588,-1.974 2.912,-1.937 2.474,-2.367 1.315,-2.926 -0.053,-3.583 -1.208,-3.913 -1.704,-4.06 c -0.434,-0.127 -1.137,-0.242 -1.57,-0.244 1.238,-0.97 2.796,-1.549 4.491,-1.549 1.903,0 3.634,0.729 4.933,1.922 -0.129,0.199 -0.601,0.617 -0.874,0.933 M -3.319,7.145 C -3.085,7.148 -2.829,7.126 -2.29,7.046 -1.668,6.954 0.492,6.166 2.096,5.162 2.912,4.649 3.358,4.539 3.695,4.539 3.924,4.539 4.28,4.724 5.115,5.491 5.932,6.24 6.031,6.392 6.146,6.59 6.187,6.66 6.215,6.701 6.232,6.726 4.925,7.967 3.161,8.73 1.217,8.73 -0.498,8.73 -2.074,8.136 -3.319,7.145"
             style="fill:#ed1443;fill-opacity:1;fill-rule:nonzero;stroke:none"
             id="path2824"
             inkscape:connector-curvature="0" />
        </g>
        <g
           id="g2826"
           transform="translate(431.3499,502.7121)">
          <path
             d="m 0,0 c -0.306,0.189 -1.232,0.35 -1.601,0.441 -0.253,0.061 -0.56,0.101 -0.496,0.273 0.046,0.122 0.228,0.192 0.51,0.195 0.247,0.001 1.807,-0.001 2.075,0 0.148,0 0.356,0.131 0.511,0.72 0.083,0.318 -0.035,0.32 -0.218,0.32 l -2.709,0 c -0.423,0 -0.808,-0.247 -1.114,-0.646 -0.306,-0.4 -0.467,-0.88 -0.417,-1.154 0.061,-0.326 0.326,-0.5 0.694,-0.625 0.367,-0.128 0.93,-0.245 1.203,-0.319 0.296,-0.077 0.777,-0.11 0.697,-0.289 -0.058,-0.129 -0.128,-0.201 -0.417,-0.195 -0.334,0.007 -1.83,0.003 -2.121,0 -0.327,-0.003 -0.484,-0.282 -0.609,-0.762 -0.078,-0.291 -0.014,-0.293 0.266,-0.293 l 2.284,0 c 0.424,0 0.822,0.098 1.085,0.254 0.177,0.107 0.609,0.367 0.765,0.96 C 0.586,-0.368 0.322,-0.201 0,0 m -8.006,1.018 -0.979,0.966 -0.008,0 -1.452,-1.397 0.378,1.397 -4.984,0 c -0.643,0 -1.214,-0.483 -1.214,-1.091 0,-0.291 0.12,-0.556 0.315,-0.753 l 0.96,-0.894 c 0.063,-0.065 0.096,-0.14 0.096,-0.203 0,-0.149 -0.095,-0.265 -0.344,-0.265 l -2.024,0 -0.313,-1.145 3.386,0 c 0.644,0 1.217,0.479 1.218,1.088 0,0.291 -0.12,0.557 -0.315,0.752 l -0.972,0.908 c -0.054,0.055 -0.084,0.125 -0.084,0.189 0,0.15 0.106,0.263 0.297,0.263 l 2.056,0 -0.857,-3.2 1.61,0 0.366,1.372 1.429,-1.372 0.007,0 0.98,0.966 -1.034,0.993 1.482,1.426 z m 3.088,0.966 -1.042,-1.004 -1.042,1.004 -0.014,0 -0.971,-0.968 1.032,-0.992 -1.483,-1.426 0.987,-0.965 4.525,4.351 -1.992,0 z M 11.441,0.771 C 11.597,1.364 11.303,1.625 11.18,1.731 11,1.888 10.654,1.986 10.231,1.986 l -1.733,0 C 8.076,1.986 7.676,1.888 7.415,1.731 7.237,1.625 6.805,1.364 6.648,0.771 L 6.643,0.75 6.148,-1.12 c -0.156,-0.593 0.138,-0.853 0.259,-0.96 0.182,-0.156 0.527,-0.254 0.95,-0.254 l 1.735,0 c 0.422,0 0.821,0.098 1.083,0.254 0.177,0.107 0.61,0.367 0.766,0.96 l 0.305,1.157 0.195,0.734 z M 10.089,0.714 9.614,-1.085 C 9.572,-1.262 9.531,-1.279 9.198,-1.279 c -0.072,0 -0.831,0.002 -0.999,10e-4 -0.178,-10e-4 -0.319,-10e-4 -0.39,-10e-4 -0.334,0 -0.365,0.017 -0.315,0.194 l 0.475,1.799 c 0.044,0.179 0.084,0.195 0.418,0.195 0.071,0 0.135,0 0.316,-0.001 0.167,-0.002 1,0.001 1.072,0.001 0.332,0 0.366,-0.016 0.314,-0.195 m 5.634,1.123 0,0 C 15.73,1.921 15.67,1.986 15.575,1.986 l -0.173,0 0,0 -1.535,0 c -0.424,0 -0.821,-0.098 -1.085,-0.255 -0.176,-0.106 -0.61,-0.367 -0.765,-0.96 L 12.011,0.75 11.932,0.447 l 0,-0.001 -0.68,-2.571 c -0.049,-0.182 0.104,-0.189 0.289,-0.189 l 0.682,0 c 0.185,0 0.378,0.148 0.426,0.33 l 0.712,2.698 c 0.043,0.179 0.084,0.195 0.418,0.195 0.069,0 0.209,0 0.389,-0.001 l 0.95,0 0,0.002 0.161,0 c 0.126,0 0.307,0.307 0.396,0.64 0.028,0.104 0.043,0.201 0.048,0.287 M 5.903,1.708 C 5.724,1.865 5.377,1.965 4.954,1.965 l -0.152,0 C 4.759,1.968 4.727,1.971 4.708,1.971 l -1.926,0 0,-0.001 -0.718,0 C 2.044,1.97 2.024,1.967 2.003,1.963 1.806,1.961 1.739,1.936 1.676,1.731 1.66,1.702 1.645,1.672 1.637,1.64 L 0.24,-3.654 C 0.192,-3.836 0.343,-3.843 0.529,-3.843 l 0.681,0 c 0.187,0 0.379,0.148 0.427,0.329 l 0.31,1.18 1.872,0 c 0.423,0 0.821,0.098 1.084,0.254 0.178,0.107 0.609,0.367 0.766,0.96 L 6.163,0.75 C 6.318,1.342 6.025,1.603 5.903,1.708 M 4.817,0.714 4.342,-1.085 C 4.299,-1.262 4.258,-1.279 3.924,-1.279 c -0.197,0 -1.069,10e-4 -1.698,10e-4 l 0.578,2.184 c 0.626,0.002 1.501,0.003 1.699,0.003 0.334,0 0.365,-0.016 0.314,-0.195 m 14.618,1.233 -1.784,0 0.416,1.574 C 18.115,3.702 18.057,3.78 17.87,3.78 l -0.755,0 c -0.186,0 -0.377,-0.148 -0.426,-0.33 L 15.453,-1.2 C 15.45,-1.212 15.45,-1.222 15.449,-1.231 l -0.003,0 c -0.014,-0.082 -0.011,-0.098 -0.011,-0.171 0,-0.379 0.194,-0.56 0.286,-0.647 0.176,-0.166 0.507,-0.259 0.906,-0.259 l 1.147,0 0.479,0 0.154,0.003 c 0.086,0.002 0.305,0.364 0.382,0.675 0.025,0.099 0.043,0.198 0.046,0.285 l 0,0.01 c 0,0.024 -0.007,0.043 -0.02,0.058 -0.018,0.022 -0.046,0.026 -0.281,0.026 l -1.733,0 0.005,0.013 0.573,2.148 1.77,0 c 0.125,0 0.297,0.27 0.385,0.603 0.028,0.104 0.043,0.201 0.048,0.287 l 0.002,0 c 0.006,0.084 -0.055,0.147 -0.149,0.147"
             style="fill:#252122;fill-opacity:1;fill-rule:nonzero;stroke:none"
             id="path2828"
             inkscape:connector-curvature="0" />
        </g>
      </g>
    </g>
    <g
       id="g2830"
       transform="matrix(1.25,0,0,-1.25,330.35514,366.27705)">
      <path
         d="M 0,0 1.001,-0.988 1.995,0.003 0,0 Z"
         style="fill:#6b6969;fill-opacity:1;fill-rule:nonzero;stroke:none"
         id="path2832"
         inkscape:connector-curvature="0" />
    </g>
    <g
       id="g2834"
       transform="matrix(1.25,0,0,-1.25,329.79152,371.7468)">
      <path
         d="M 0,0 2.009,0.002 1.001,0.986 0,0 Z"
         style="fill:#6b6969;fill-opacity:1;fill-rule:nonzero;stroke:none"
         id="path2836"
         inkscape:connector-curvature="0" />
    </g>
    <g
       transform="matrix(1.25,0,0,-1.25,-197.58598,997.16468)"
       id="g2838">
      <g
         id="g2840"
         clip-path="url(#clipPath2842)">
        <g
           id="g2846"
           transform="translate(432.2923,512.4869)">
          <path
             d="m 0,0 c -0.16,0 -0.261,0.128 -0.225,0.282 l 0.171,0.742 c 0.036,0.155 0.196,0.282 0.356,0.282 l 2.218,0 c 0.159,0 0.339,0.302 0.376,0.458 L 2.913,1.841 C 2.949,1.996 2.847,2.122 2.688,2.122 l -1.742,0 c -0.159,0 -0.261,0.129 -0.225,0.284 L 0.83,2.878 C 0.866,3.033 1.026,3.16 1.186,3.16 l 1.742,0 c 0.16,0 0.319,0.127 0.355,0.283 L 3.297,3.659 C 3.333,3.816 3.232,3.943 3.071,3.943 l -2.175,0 C 0.737,3.943 0.637,4.07 0.672,4.225 L 0.844,4.966 C 0.879,5.121 1.039,5.25 1.199,5.25 l 2.584,0 c 0.16,0 0.421,-0.015 0.58,-0.031 0,0 0.348,-0.037 0.516,-0.321 C 5.012,4.682 4.996,4.353 4.956,4.182 L 4.891,3.898 C 4.854,3.742 4.778,3.354 4.716,3.206 4.716,3.206 4.685,3.138 4.544,2.965 4.423,2.824 4.184,2.646 4.18,2.63 4.178,2.623 4.352,2.459 4.402,2.324 4.474,2.122 4.479,1.959 4.423,1.712 L 4.311,1.141 C 4.275,0.986 4.185,0.743 4.11,0.602 4.11,0.602 4.063,0.516 3.885,0.343 3.586,0.068 3.3,0 2.941,0 L 0,0 Z"
             style="fill:#dddddd;fill-opacity:1;fill-rule:nonzero;stroke:none"
             id="path2848"
             inkscape:connector-curvature="0" />
        </g>
      </g>
    </g>
  </g>
</svg>
