<svg height="6.332613mm" viewBox="0 0 89.520753 22.438391" width="25.264746mm" xmlns="http://www.w3.org/2000/svg" xmlns:xlink="http://www.w3.org/1999/xlink"><clipPath id="a"><path d="m32.314 539.122h82.801v24.803h-82.801z"/></clipPath><g clip-path="url(#a)" fill="#00a7ea" transform="matrix(1.25 0 0 -1.25 -47.38312 700.72439)"><g transform="translate(48.0265 556.5815)"><path d="m0 0-.533.534.86.861.534-.534zm1.928 1.928-.533-.533-.534.533h-1.068l-.86-.86.214.86h-2.659c-.343 0-.648-.274-.648-.618 0-.165.065-.314.168-.426l.513-.506c.034-.036.051-.079.05-.114.001-.085-.049-.149-.182-.149h-1.08l-.163-.649h1.803c.343 0 .65.271.651.616-.001.164-.065.315-.169.425l-.519.515c-.029.029-.045.07-.045.106 0 .085.056.153.158.152h1.099l-.452-1.814h.861l.187.747.747-.747h1.067l2.462 2.462h-1.068zm5.629 1.888v-17.677h-17.677v17.677l8.839-8.838z" fill="#00a7ea"/></g><g transform="translate(61.4768 560.4166)"><path d="m0 0 4.011-4.022 4.011 4.022v-8.135h-1.813v3.943l-2.198-2.198-2.198 2.198v-3.943h-1.813z" fill="#00a7ea"/></g><g transform="translate(76.5901 556.3041)"><path d="m0 0c0 1.291-.986 2.368-2.288 2.368-1.303 0-2.289-1.077-2.289-2.368 0-1.292.986-2.368 2.289-2.368 1.302 0 2.288 1.076 2.288 2.368m-6.401 0c0 2.266 1.847 4.112 4.113 4.112 2.265 0 4.112-1.846 4.112-4.112s-1.847-4.113-4.112-4.113c-2.266 0-4.113 1.847-4.113 4.113" fill="#00a7ea"/></g><g transform="translate(77.7905 560.3261)"><path d="m0 0h2.017l1.779-4.022 1.778 4.022h2.017l-3.795-8.135z" fill="#00a7ea"/></g><path d="m85.8 560.326h1.813v-8.044h-1.813z"/><g transform="translate(88.7346 560.3261)"><path d="m0 0h4.985v-1.79h-3.173v-1.36h2.493v-1.745h-2.493v-1.359h3.173v-1.79h-4.985z" fill="#00a7ea"/></g><g transform="translate(94.1386 553.7662)"><path d="m0 0 1.371 1.121c.351-.555.928-.996 1.484-.996.532 0 .77.203.77.577 0 .363-.26.589-.94.896l-.453.203c-1.212.544-1.881 1.439-1.881 2.527 0 1.405 1.167 2.322 2.447 2.322.896 0 1.575-.215 2.255-1.008l-1.224-1.292c-.407.499-.657.601-1.031.601-.305 0-.623-.193-.623-.555 0-.419.351-.646 1.088-.975l.431-.192c1.11-.499 1.755-1.303 1.755-2.413 0-1.451-1.064-2.391-2.56-2.391-1.292 0-2.334.532-2.889 1.575" fill="#00a7ea"/></g><g transform="translate(61.103 546.7418)"><path d="m0 0c0 2.266 1.847 4.113 4.113 4.113 1.382 0 2.617-.691 3.365-1.745l-1.371-1.122c-.408.657-1.133 1.122-1.994 1.122-1.303 0-2.289-1.076-2.289-2.368s.986-2.368 2.289-2.368c.861 0 1.586.465 1.994 1.122l1.371-1.122c-.748-1.054-1.983-1.745-3.365-1.745-2.266 0-4.113 1.847-4.113 4.113" fill="#00a7ea"/></g><g transform="translate(69.1693 550.7637)"><path d="m0 0h1.813v-6.243h3.127v-1.801h-4.94z" fill="#00a7ea"/></g><g transform="translate(78.8898 545.4387)"><path d="m0 0-.759 1.678-.759-1.678zm-.759 5.416 3.966-8.135h-1.904l-.578 1.247h-2.968l-.578-1.247h-1.903l3.965 8.135z" fill="#00a7ea"/></g><g transform="translate(81.8348 544.2043)"><path d="m0 0 1.371 1.121c.352-.555.929-.997 1.484-.997.533 0 .771.204.771.578 0 .363-.261.589-.941.895l-.453.204c-1.212.544-1.88 1.439-1.88 2.527 0 1.405 1.166 2.322 2.447 2.322.895 0 1.575-.215 2.254-1.008l-1.223-1.291c-.408.498-.658.6-1.031.6-.306 0-.623-.193-.623-.555 0-.42.351-.646 1.087-.975l.431-.192c1.11-.499 1.756-1.303 1.756-2.414 0-1.45-1.065-2.39-2.561-2.39-1.292 0-2.333.532-2.889 1.575" fill="#00a7ea"/></g><g transform="translate(87.6132 544.2043)"><path d="m0 0 1.371 1.121c.35-.555.929-.997 1.484-.997.533 0 .77.204.77.578 0 .363-.26.589-.94.895l-.453.204c-1.213.544-1.881 1.439-1.881 2.527 0 1.405 1.167 2.322 2.447 2.322.895 0 1.574-.215 2.255-1.008l-1.223-1.291c-.409.498-.658.6-1.032.6-.306 0-.622-.193-.622-.555 0-.42.35-.646 1.087-.975l.43-.192c1.111-.499 1.756-1.303 1.756-2.414 0-1.45-1.065-2.39-2.56-2.39-1.292 0-2.335.532-2.889 1.575" fill="#00a7ea"/></g><path d="m93.844 550.764h1.812v-8.044h-1.812z"/><g transform="translate(96.3469 546.7418)"><path d="m0 0c0 2.266 1.847 4.113 4.113 4.113 1.383 0 2.617-.691 3.365-1.745l-1.371-1.122c-.407.657-1.133 1.122-1.994 1.122-1.303 0-2.288-1.076-2.288-2.368s.985-2.368 2.288-2.368c.861 0 1.587.465 1.994 1.122l1.371-1.122c-.748-1.054-1.982-1.745-3.365-1.745-2.266 0-4.113 1.847-4.113 4.113" fill="#00a7ea"/></g><g transform="translate(104.0741 544.2043)"><path d="m0 0 1.371 1.121c.35-.555.929-.997 1.484-.997.533 0 .77.204.77.578 0 .363-.26.589-.94.895l-.453.204c-1.213.544-1.881 1.439-1.881 2.527 0 1.405 1.167 2.322 2.447 2.322.895 0 1.575-.215 2.255-1.008l-1.223-1.291c-.409.498-.658.6-1.032.6-.306 0-.623-.193-.623-.555 0-.42.351-.646 1.088-.975l.43-.192c1.111-.499 1.756-1.303 1.756-2.414 0-1.45-1.065-2.39-2.56-2.39-1.292 0-2.334.532-2.889 1.575" fill="#00a7ea"/></g></g></svg>