<svg id="b" width="168.25pt" height="132.09pt" version="1.1" viewBox="0 0 168.25 132.09" xmlns="http://www.w3.org/2000/svg">
 <defs id="c">
  <clipPath id="a">
   <path id="d" d="m243.71 53.492h61.3v28.779h-61.3z"/>
  </clipPath>
 </defs>
 <g id="e" transform="matrix(1.0882 0 0 1.0882 .0015609 0)" fill="#fff">
  <path id="f" d="m99.326 33.982-10.45-10.021 14.936-14.366 10.442 10.034zm35.333-33.978-10.437 10.047-10.442-10.047h-19.94l-14.542 13.985 3.7802-13.985-49.918-4e-3c-6.4552 0-12.161 4.8414-12.161 10.933 0 2.9119 1.1973 5.5738 3.1487 7.534l9.6215 8.968c0.6227 0.64026 0.9648 1.3902 0.9648 2.026 0 1.491-0.956 2.6531-3.4469 2.6531h-20.287l-3.1311 11.463h33.921c6.4509 0 12.2-4.802 12.2-10.893 0-2.9163-1.1971-5.5782-3.153-7.5384l-9.7399-9.0952c-0.5394-0.53501-0.8376-1.2542-0.8376-1.8857 0-1.4954 1.0613-2.6444 2.9733-2.6444h20.598l-8.5821 32.057h16.12l3.6749-13.739 14.309 13.739 19.949-0.0132 45.31-43.56z"/>
  <g id="g" transform="matrix(.3056 0 0 .3056 20.012 85.097)">
   <path id="h" d="m230.03-87.175-9.9313 37.62c-0.88787 3.7162-1.7391 4.0641-8.714 4.0641-1.492 0-17.346-0.04577-20.87-0.01831-3.7346 0.01831-6.6728 0.01831-8.1556 0.01831-6.9931 0-7.6339-0.34783-6.5812-4.0641l9.9314-37.62c0.91533-3.7254 1.7391-4.0824 8.7231-4.0824 1.5011 0 2.8467 0 6.5995 0.01831 3.4966 0.02746 20.915-0.01831 22.416-0.01831 6.9657 0 7.6613 0.35698 6.5812 4.0824m28.265-1.1899c3.2769-12.384-2.8741-17.84-5.4462-20.055-3.762-3.3135-10.993-5.3547-19.835-5.3547h-36.265c-8.833 0-17.172 2.0412-22.654 5.3547-3.7162 2.2151-12.741 7.6705-16 20.055l-0.11899 0.44851h-9e-3l-10.334 39.103c-3.2677 12.384 2.8741 17.821 5.4188 20.055 3.7803 3.2769 11.011 5.3364 19.854 5.3364h36.275c8.8329 0 17.172-2.0595 22.664-5.3364 3.6979-2.2334 12.741-7.6705 16-20.055l6.389-24.183z"/>
   <path id="i" d="m347.85-110.66h0.0183c0.12814-1.7574-1.1442-3.0938-3.0847-3.0938h-3.6613v-0.0183h-32.092c-8.8513 0-17.172 2.0412-22.7 5.3455-3.6888 2.2151-12.732 7.6705-15.982 20.064l-0.12814 0.43936-1.6842 6.3432v0.01831l-14.178 53.776c-1.016 3.7803 2.151 3.9451 6.0412 3.9451h14.224c3.9085 0 7.9359-3.1121 8.9245-6.9108l14.911-56.421c0.88787-3.7254 1.7483-4.0824 8.7414-4.0824 1.4554 0 4.3661 0 8.1281 0.0092h19.881v-0.04577h3.3684c2.6087 0 6.4165-6.4165 8.2563-13.364 0.58581-2.1602 0.89703-4.2197 1.016-6.0046"/>
   <path id="j" d="m119.77-87.175-9.913 37.62c-0.89702 3.7162-1.7483 4.0641-8.7231 4.0641-4.1373 0-22.407-0.03661-35.506-0.03661l12.064-45.684c13.098-0.02746 31.378-0.04577 35.515-0.04577 6.9931 0 7.6522 0.35698 6.5629 4.0824m22.728-20.805c-3.762-3.2769-11.002-5.3455-19.835-5.3455 0 0-4.7872-0.11899-5.1442-0.11899h-40.293v0.0183h-16.302c-4.1281 0.0458-5.7574 0.75058-7.0755 5.0343-0.19222 0.60411-0.38444 1.1899-0.56751 1.8581l-29.208 110.72c-0.99771 3.7712 2.1602 3.9451 6.0503 3.9451h14.243c3.8993 0 7.9085-3.0938 8.9062-6.8924l6.5263-24.659h39.13c8.8421 0 17.172-2.0595 22.664-5.3364 3.7254-2.2334 12.723-7.6705 16.009-20.055l10.307-39.103c3.2769-12.403-2.865-17.84-5.4096-20.064"/>
   <path id="k" d="m425.47-112.94h-37.291l8.6865-32.934c1.0069-3.7712-0.20137-5.4096-4.119-5.4096h-15.789c-3.881 0-7.8993 3.1121-8.897 6.8924l-25.858 97.254c-0.0641 0.23799-0.0641 0.44851-0.0824 0.63158l-0.0549 0.0092c-0.31122 1.7025-0.2563 2.0595-0.2563 3.5881 0 7.9085 4.0641 11.689 6.0229 13.529 3.6796 3.4325 10.581 5.4188 18.911 5.4188h24l10.005-0.01831 3.2311-0.05492c1.8032-0.03661 6.389-7.6156 8-14.124 0.50343-2.087 0.86041-4.1373 0.93364-5.9863l0.0183-0.21053c0-0.48512-0.14645-0.87872-0.40274-1.1899-0.4119-0.43021-0.97025-0.51259-5.8947-0.51259h-36.229l0.10068-0.29291 11.973-44.943h37.025c2.6087 0 6.1876-5.6201 8.0183-12.577 0.60412-2.1785 0.93364-4.2288 1.0343-6.0046h0.0366c0.11899-1.7666-1.1533-3.0664-3.1213-3.0664"/>
   <path id="l" d="m19.052-72.237c-6.3982-3.9634-25.767-7.341-33.465-9.2174-5.3089-1.2815-11.725-2.1419-10.38-5.7025 0.9611-2.5812 4.778-4.0549 10.673-4.0915 5.1442-0.01831 37.785 0.0092 43.368 0 3.1121 0 7.4599-2.746 10.7-15.057 1.7483-6.627-0.75057-6.6728-4.5675-6.6728h-56.632c-8.8513 0-16.906 5.1533-23.304 13.474-6.3982 8.3844-9.7666 18.435-8.7231 24.156 1.2723 6.8009 6.8192 10.453 14.517 13.071 7.6705 2.6545 19.432 5.1075 25.153 6.6636 6.1968 1.6201 16.238 2.2883 14.581 6.0412-1.2265 2.7094-2.6911 4.2014-8.7231 4.0824-6.984-0.16476-38.279-0.06407-44.348 0-6.8467 0.07323-10.124 5.8764-12.751 15.918-1.6293 6.1053-0.2746 6.151 5.5744 6.151h47.762c8.8329 0 17.162-2.0595 22.682-5.3364 3.7071-2.2334 12.732-7.6613 15.991-20.055 4.1556-15.744-1.373-19.222-8.1098-23.423"/>
  </g>
 </g>
 <path id="m" d="m139.23 106.66h15.551c-1.357 2.6234-2.732 5.2379-4.1072 7.8522 1.9179 1.7913 3.9534 3.8176 4.1977 6.5947 1.1307 4.9031-2.2164 10.069-7.2191 10.883-3.9848 0.5646-7.4529-1.4062-9.806-3.6275 1.2483-1.1942 2.5058-2.3883 3.7723-3.5734 1.7188 0.91344 3.6005 2.4877 5.6718 1.5199 2.6958-0.80549 3.0124-5.1022 0.62453-6.4231-1.556-0.62454-3.2837-0.54213-4.9121-0.76048 1.3026-2.3159 2.5329-4.6588 3.7451-7.0196-2.5058-0.0204-5.0117-0.0204-7.5177-0.0204v-5.4188z" fill="#fff" stroke-width="5.4484"/>
 <g id="n" transform="matrix(5.3287 0 0 -5.3287 -1396.6 416.2)" fill="#fff">
  <g id="o" clip-path="url(#a)" fill="#fff">
   <g id="p" transform="translate(265.08,56.009)">
    <path id="q" d="m0 0c0.083 0 0.16 0.016 0.232 0.049 0.072 0.032 0.134 0.077 0.186 0.134 0.053 0.057 0.094 0.121 0.125 0.193 0.03 0.072 0.045 0.147 0.045 0.225 0 0.157-0.055 0.295-0.166 0.415s-0.252 0.18-0.422 0.18h-0.471v-1.196zm-1.516 2.177h1.529c0.227 0 0.437-0.042 0.631-0.125s0.362-0.195 0.503-0.336c0.142-0.142 0.253-0.309 0.334-0.5 0.08-0.192 0.121-0.397 0.121-0.615s-0.041-0.422-0.121-0.614c-0.081-0.192-0.192-0.359-0.334-0.5-0.141-0.142-0.309-0.254-0.503-0.337s-0.404-0.124-0.631-0.124h-0.484v-1.49h-1.045z" fill="#fff"/>
   </g>
   <g id="r" transform="translate(269.23,54.499)">
    <path id="s" d="m0 0c0.187 0 0.362 0.036 0.523 0.108s0.301 0.17 0.418 0.294c0.118 0.124 0.21 0.269 0.278 0.435 0.068 0.165 0.102 0.342 0.102 0.529s-0.034 0.364-0.102 0.53c-0.068 0.165-0.16 0.31-0.278 0.434-0.117 0.124-0.257 0.222-0.418 0.295-0.161 0.071-0.336 0.107-0.523 0.107s-0.362-0.036-0.523-0.107c-0.161-0.073-0.3-0.171-0.418-0.295s-0.21-0.269-0.278-0.434c-0.068-0.166-0.101-0.343-0.101-0.53s0.033-0.364 0.101-0.529c0.068-0.166 0.16-0.311 0.278-0.435s0.257-0.222 0.418-0.294 0.336-0.108 0.523-0.108m0-1.007c-0.327 0-0.634 0.063-0.922 0.187-0.287 0.124-0.539 0.294-0.755 0.51-0.215 0.215-0.385 0.467-0.509 0.755-0.124 0.287-0.187 0.594-0.187 0.921s0.063 0.634 0.187 0.922c0.124 0.287 0.294 0.539 0.509 0.755 0.216 0.215 0.468 0.385 0.755 0.51 0.288 0.124 0.595 0.186 0.922 0.186s0.634-0.062 0.922-0.186c0.287-0.125 0.539-0.295 0.755-0.51 0.215-0.216 0.385-0.468 0.51-0.755 0.124-0.288 0.186-0.595 0.186-0.922s-0.062-0.634-0.186-0.921c-0.125-0.288-0.295-0.54-0.51-0.755-0.216-0.216-0.468-0.386-0.755-0.51-0.288-0.124-0.595-0.187-0.922-0.187" fill="#fff"/>
   </g>
   <g id="t" transform="translate(273.65,56.009)">
    <path id="u" d="m0 0c0.083 0 0.16 0.016 0.232 0.049 0.072 0.032 0.134 0.077 0.186 0.134 0.053 0.057 0.094 0.121 0.125 0.193 0.03 0.072 0.046 0.147 0.046 0.225 0 0.157-0.056 0.295-0.167 0.415s-0.252 0.18-0.422 0.18h-0.471v-1.196zm-1.516 2.177h1.529c0.227 0 0.437-0.042 0.631-0.125s0.362-0.195 0.503-0.336c0.142-0.142 0.253-0.309 0.334-0.5 0.08-0.192 0.121-0.397 0.121-0.615s-0.041-0.422-0.121-0.614c-0.081-0.192-0.192-0.359-0.334-0.5-0.141-0.142-0.309-0.254-0.503-0.337s-0.404-0.124-0.631-0.124h-0.484v-1.49h-1.045z" fill="#fff"/>
   </g>
   <path id="v" d="m275.54 56.251h1.856v-0.941h-1.856z"/>
   <g id="w" transform="translate(279.89,53.493)">
    <path id="x" d="m0 0c-0.279 0-0.535 0.046-0.768 0.137-0.233 0.092-0.434 0.222-0.601 0.393-0.168 0.169-0.299 0.373-0.393 0.611-0.093 0.237-0.14 0.502-0.14 0.794v2.758h1.046v-2.771c0-0.284 0.078-0.507 0.235-0.67 0.157-0.164 0.364-0.245 0.621-0.245s0.464 0.081 0.621 0.245c0.157 0.163 0.235 0.386 0.235 0.67v2.771h1.046v-2.758c0-0.292-0.047-0.557-0.14-0.794-0.094-0.238-0.225-0.442-0.393-0.611-0.167-0.171-0.368-0.301-0.601-0.393-0.233-0.091-0.489-0.137-0.768-0.137" fill="#fff"/>
   </g>
   <g id="y" transform="translate(284.01,56.009)">
    <path id="z" d="m0 0c0.083 0 0.16 0.016 0.232 0.049 0.072 0.032 0.134 0.077 0.186 0.134 0.053 0.057 0.094 0.121 0.125 0.193 0.03 0.072 0.045 0.147 0.045 0.225 0 0.157-0.055 0.295-0.166 0.415s-0.252 0.18-0.422 0.18h-0.471v-1.196zm-1.516 2.177h1.529c0.227 0 0.437-0.042 0.631-0.125s0.362-0.195 0.503-0.336c0.142-0.142 0.253-0.309 0.334-0.5 0.08-0.192 0.121-0.397 0.121-0.615s-0.041-0.422-0.121-0.614c-0.081-0.192-0.192-0.359-0.334-0.5-0.141-0.142-0.309-0.254-0.503-0.337s-0.404-0.124-0.631-0.124h-0.484v-1.49h-1.045z" fill="#fff"/>
   </g>
  </g>
 </g>
</svg>
