<svg height="137.82974pt" viewBox="0 0 192.38025 137.82974" width="192.38025pt" xmlns="http://www.w3.org/2000/svg"><g fill="#fff"><path d="m185.29297.0390625-5.59961 5.640625h34.01367l-.13281 172.7597625-207.933595.05274v-59.77344l-5.640625 5.25391v59.80078h219.21484l-.05468-151.640628h14.8789v136.837888l5.64063-5.63281v-104.658202h11.41406v93.259762l5.64063-5.63281v-93.267578h-17.05469v-26.546874h-20.51953l.10742-26.4531255z" stroke-width="1.333333" transform="scale(.75)"/><path d="m78.57025 20.13975c6.31-.98 13.19.2 18.34 4.13 7.78 5.35 12.04 15.47 10.22 24.76-2.05 11.13-12.28 20.5-23.82 20.29-11.93.79-23.34-8.74-24.93-20.53-2.83-12.98 7.03-26.97 20.19-28.65m-.86 11.17c-5.38 1.92-9.1 7.81-8.79 13.49-.23 7.54 6.74 14.79 14.46 13.89 9.83.18 16.19-12.17 11.57-20.46-2.69-6.49-10.82-9.6-17.24-6.92z"/><path d="m22.54025 20.96975 18.83-.02c5.39-.08 10.06 4.05 12.17 8.75 1.31 4.41 1.38 9.95-2.32 13.27 3.04 2.1 5.84 5.08 6.32 8.9 1.87 8.08-5.27 16.27-13.33 16.53l-21.68.04.01-47.47m10.74025 9.7v9.37c3.99264 0 7.32114.321845 9.204794-1.218607.696452-.569558 1.185439-1.286066 1.503706-2.04705.811291-1.939816-.256984-4.520494-2.22875-5.364343-1.898404-.898866-3.557376-.74-8.47975-.74m0 18.39v9.25l9.721993.01503c.931905.0014 1.941003-.329997 2.610267-.806677 2.856571-2.03458 2.043711-6.716136-1.115467-8.071438-.735419-.315498-1.483789-.400931-2.239971-.399842z"/><path d="m100.73025 20.94h12.29l9.27 15.80975 8.66-15.80975h12.58l-13.95 23.66975 15.05 23.83975h-12.42l-9.94-16.40975-10.13 16.40975h-12.73l15.11-23.92975z"/><path d="m27.53025 73.01975c6.86-4.53 16.45-2.4 21.71 3.62l-7.46 7.75c-1.58-1.49-3.02-3.56-5.39-3.74-2.62-.55-5.74 2.49-3.98 5.01 3.22 4.29 9.29 4.37 13.1 7.96 8.08 5.32 7.5 19.72-1.51 23.79-8.51 4.17-20.54 1.19-24.93-7.57l8.05-6.52c2.64 3.55 7.28 7.62 11.91 5.16 2.74-1.89.98-5.79-1.64-6.77-5.37-2.51-11.71-4.76-14.45-10.49-3.7-6-1.51-14.69 4.59-18.2z"/><path d="m52.50025 71.19975 29.25.06-.05 10.48-18.47-.01v8.17h14.66l.04 10.31-14.63-.04-.09 7.92 18.6-.02.02 10.61-29.35-.04z"/><path d="m82.81025 71.24975 33.33025-.01v10.4l-11.52025.12.03 36.92-10.81-.02.04-36.93-11 .01z"/><path d="m121.12025 74.51975c6.47-5.92 17.67-4.96 23.21 1.77l-6.89 8.13c-1.74-2.01-4.13-4.49-7.09-3.62-2.68.35-3.42 3.86-1.73 5.71 3.71 3.33 9.06 3.91 12.79 7.26 7.25 5.17 7.39 16.93.44 22.4-8.69 5.91-22.08 3.11-27.24-6.17l8.1-6.62c2.56 3.1 6.19 6.66 10.61 5.67 2.34-.29 3.89-3.39 2.16-5.24-3.35-3.77-8.97-4.13-12.64-7.55-6.96-4.73-8.07-16.08-1.72-21.74z"/></g></svg>