<?xml version="1.0" encoding="UTF-8" standalone="no"?>
<svg
   xmlns:dc="http://purl.org/dc/elements/1.1/"
   xmlns:cc="http://creativecommons.org/ns#"
   xmlns:rdf="http://www.w3.org/1999/02/22-rdf-syntax-ns#"
   xmlns:svg="http://www.w3.org/2000/svg"
   xmlns="http://www.w3.org/2000/svg"
   xmlns:sodipodi="http://sodipodi.sourceforge.net/DTD/sodipodi-0.dtd"
   xmlns:inkscape="http://www.inkscape.org/namespaces/inkscape"
   width="192.38025pt"
   height="137.82974pt"
   viewBox="0 0 192.38025 137.82974"
   version="1.1"
   id="svg21"
   sodipodi:docname="Sky Box Sets.svg"
   inkscape:version="0.92.0 r15299">
  <metadata
     id="metadata27">
    <rdf:RDF>
      <cc:Work
         rdf:about="">
        <dc:format>image/svg+xml</dc:format>
        <dc:type
           rdf:resource="http://purl.org/dc/dcmitype/StillImage" />
        <dc:title></dc:title>
      </cc:Work>
    </rdf:RDF>
  </metadata>
  <defs
     id="defs25" />
  <sodipodi:namedview
     pagecolor="#ffffff"
     bordercolor="#666666"
     borderopacity="1"
     objecttolerance="10"
     gridtolerance="10"
     guidetolerance="10"
     inkscape:pageopacity="0"
     inkscape:pageshadow="2"
     inkscape:window-width="1920"
     inkscape:window-height="1017"
     id="namedview23"
     showgrid="false"
     inkscape:zoom="2.5420042"
     inkscape:cx="116.87648"
     inkscape:cy="72.007149"
     inkscape:window-x="-8"
     inkscape:window-y="-8"
     inkscape:window-maximized="1"
     inkscape:current-layer="svg21"
     fit-margin-top="0"
     fit-margin-left="0"
     fit-margin-right="0"
     fit-margin-bottom="0" />
  <g
     id="g4547"
     style="fill:#ffffff;fill-opacity:1">
    <path
       id="path2"
       transform="scale(0.75)"
       d="M 185.29297 0.0390625 L 179.69336 5.6796875 L 213.70703 5.6796875 L 213.57422 178.43945 L 5.640625 178.49219 L 5.640625 118.71875 L 0 123.97266 L 0 183.77344 L 219.21484 183.77344 L 219.16016 32.132812 L 234.03906 32.132812 L 234.03906 168.9707 L 239.67969 163.33789 L 239.67969 58.679688 L 251.09375 58.679688 L 251.09375 151.93945 L 256.73438 146.30664 L 256.73438 53.039062 L 239.67969 53.039062 L 239.67969 26.492188 L 219.16016 26.492188 L 219.26758 0.0390625 L 185.29297 0.0390625 z "
       style="opacity:1;fill:#ffffff;stroke-width:1.33333337;fill-opacity:1" />
    <path
       d="m 78.57025,20.13975 c 6.31,-0.98 13.19,0.2 18.34,4.13 7.78,5.35 12.04,15.47 10.22,24.76 -2.05,11.13 -12.28,20.5 -23.82,20.29 -11.93,0.79 -23.34,-8.74 -24.93,-20.53 -2.83,-12.98 7.03,-26.97 20.19,-28.65 m -0.86,11.17 c -5.38,1.92 -9.1,7.81 -8.79,13.49 -0.23,7.54 6.74,14.79 14.46,13.89 9.83,0.18 16.19,-12.17 11.57,-20.46 -2.69,-6.49 -10.82,-9.6 -17.24,-6.92 z"
       id="path4"
       inkscape:connector-curvature="0"
       style="opacity:1;fill:#ffffff;fill-opacity:1" />
    <path
       d="m 22.54025,20.96975 18.83,-0.02 c 5.39,-0.08 10.06,4.05 12.17,8.75 1.31,4.41 1.38,9.95 -2.32,13.27 3.04,2.1 5.84,5.08 6.32,8.9 1.87,8.08 -5.27,16.27 -13.33,16.53 l -21.68,0.04 0.01,-47.47 m 10.74025,9.7 v 9.37 c 3.99264,0 7.32114,0.321845 9.204794,-1.218607 0.696452,-0.569558 1.185439,-1.286066 1.503706,-2.04705 0.811291,-1.939816 -0.256984,-4.520494 -2.22875,-5.364343 -1.898404,-0.898866 -3.557376,-0.74 -8.47975,-0.74 m 0,18.39 v 9.25 l 9.721993,0.01503 c 0.931905,0.0014 1.941003,-0.329997 2.610267,-0.806677 2.856571,-2.03458 2.043711,-6.716136 -1.115467,-8.071438 -0.735419,-0.315498 -1.483789,-0.400931 -2.239971,-0.399842 z"
       id="path8"
       inkscape:connector-curvature="0"
       style="opacity:1;fill:#ffffff;fill-opacity:1"
       sodipodi:nodetypes="ccccccccccssccccssssc" />
    <path
       d="m 100.73025,20.94 h 12.29 l 9.27,15.80975 8.66,-15.80975 h 12.58 l -13.95,23.66975 15.05,23.83975 h -12.42 l -9.94,-16.40975 -10.13,16.40975 h -12.73 l 15.11,-23.92975 z"
       id="path10"
       inkscape:connector-curvature="0"
       style="opacity:1;fill:#ffffff;fill-opacity:1"
       sodipodi:nodetypes="ccccccccccccc" />
    <path
       d="m 27.53025,73.01975 c 6.86,-4.53 16.45,-2.4 21.71,3.62 l -7.46,7.75 c -1.58,-1.49 -3.02,-3.56 -5.39,-3.74 -2.62,-0.55 -5.74,2.49 -3.98,5.01 3.22,4.29 9.29,4.37 13.1,7.96 8.08,5.32 7.5,19.72 -1.51,23.79 -8.51,4.17 -20.54,1.19 -24.93,-7.57 l 8.05,-6.52 c 2.64,3.55 7.28,7.62 11.91,5.16 2.74,-1.89 0.98,-5.79 -1.64,-6.77 -5.37,-2.51 -11.71,-4.76 -14.45,-10.49 -3.7,-6 -1.51,-14.69 4.59,-18.2 z"
       id="path12"
       inkscape:connector-curvature="0"
       style="opacity:1;fill:#ffffff;fill-opacity:1"
       sodipodi:nodetypes="ccccccccccccc" />
    <path
       d="m 52.50025,71.19975 29.25,0.06 -0.05,10.48 -18.47,-0.01 v 8.17 h 14.66 l 0.04,10.31 -14.63,-0.04 -0.09,7.92 18.6,-0.02 0.02,10.61 -29.35,-0.04 z"
       id="path14"
       inkscape:connector-curvature="0"
       style="opacity:1;fill:#ffffff;fill-opacity:1"
       sodipodi:nodetypes="ccccccccccccc" />
    <path
       d="m 82.81025,71.24975 33.33025,-0.01 v 10.4 l -11.52025,0.12 0.03,36.92 -10.81,-0.02 0.04,-36.93 -11,0.01 z"
       id="path16"
       inkscape:connector-curvature="0"
       style="opacity:1;fill:#ffffff;fill-opacity:1"
       sodipodi:nodetypes="ccccccccc" />
    <path
       d="m 121.12025,74.51975 c 6.47,-5.92 17.67,-4.96 23.21,1.77 l -6.89,8.13 c -1.74,-2.01 -4.13,-4.49 -7.09,-3.62 -2.68,0.35 -3.42,3.86 -1.73,5.71 3.71,3.33 9.06,3.91 12.79,7.26 7.25,5.17 7.39,16.93 0.44,22.4 -8.69,5.91 -22.08,3.11 -27.24,-6.17 l 8.1,-6.62 c 2.56,3.1 6.19,6.66 10.61,5.67 2.34,-0.29 3.89,-3.39 2.16,-5.24 -3.35,-3.77 -8.97,-4.13 -12.64,-7.55 -6.96,-4.73 -8.07,-16.08 -1.72,-21.74 z"
       id="path18"
       inkscape:connector-curvature="0"
       style="opacity:1;fill:#ffffff;fill-opacity:1"
       sodipodi:nodetypes="ccccccccccccc" />
  </g>
</svg>
