<?xml version="1.0" encoding="UTF-8" standalone="no"?>
<!-- Created with Inkscape (http://www.inkscape.org/) -->

<svg
   xmlns:dc="http://purl.org/dc/elements/1.1/"
   xmlns:cc="http://creativecommons.org/ns#"
   xmlns:rdf="http://www.w3.org/1999/02/22-rdf-syntax-ns#"
   xmlns:svg="http://www.w3.org/2000/svg"
   xmlns="http://www.w3.org/2000/svg"
   xmlns:sodipodi="http://sodipodi.sourceforge.net/DTD/sodipodi-0.dtd"
   xmlns:inkscape="http://www.inkscape.org/namespaces/inkscape"
   width="13.349816mm"
   height="10.364681mm"
   viewBox="0 0 47.302499 36.725248"
   id="svg78926"
   version="1.1"
   inkscape:version="0.91 r13725"
   sodipodi:docname="Sky Sport Pop-Up - Dark.svg">
  <defs
     id="defs78928">
    <clipPath
       clipPathUnits="userSpaceOnUse"
       id="clipPath66766">
      <path
         d="m 121.975,495.751 82.8,0 0,31.039 -82.8,0 0,-31.039 z"
         id="path66768"
         inkscape:connector-curvature="0" />
    </clipPath>
    <clipPath
       clipPathUnits="userSpaceOnUse"
       id="clipPath66750">
      <path
         d="m 144.454,496.581 37.842,0 0,29.38 -37.842,0 0,-29.38 z"
         id="path66752"
         inkscape:connector-curvature="0" />
    </clipPath>
    <clipPath
       clipPathUnits="userSpaceOnUse"
       id="clipPath66710">
      <path
         d="m 121.975,495.751 82.8,0 0,31.039 -82.8,0 0,-31.039 z"
         id="path66712"
         inkscape:connector-curvature="0" />
    </clipPath>
  </defs>
  <sodipodi:namedview
     id="base"
     pagecolor="#ffffff"
     bordercolor="#666666"
     borderopacity="1.0"
     inkscape:pageopacity="0.0"
     inkscape:pageshadow="2"
     inkscape:zoom="11.2"
     inkscape:cx="24.956894"
     inkscape:cy="25.964858"
     inkscape:document-units="px"
     inkscape:current-layer="layer1"
     showgrid="false"
     fit-margin-top="0"
     fit-margin-left="0"
     fit-margin-right="0"
     fit-margin-bottom="0"
     inkscape:window-width="1920"
     inkscape:window-height="1017"
     inkscape:window-x="-8"
     inkscape:window-y="-8"
     inkscape:window-maximized="1" />
  <metadata
     id="metadata78931">
    <rdf:RDF>
      <cc:Work
         rdf:about="">
        <dc:format>image/svg+xml</dc:format>
        <dc:type
           rdf:resource="http://purl.org/dc/dcmitype/StillImage" />
        <dc:title></dc:title>
      </cc:Work>
    </rdf:RDF>
  </metadata>
  <g
     inkscape:label="Layer 1"
     inkscape:groupmode="layer"
     id="layer1"
     transform="translate(-364.92018,-425.4282)">
    <path
       inkscape:connector-curvature="0"
       id="path66740"
       style="fill:#161412;fill-opacity:1;fill-rule:nonzero;stroke:none"
       d="m 399.46818,436.13445 c 0,5.91375 -4.79375,10.70625 -10.70625,10.70625 -5.91375,0 -10.70625,-4.7925 -10.70625,-10.70625 0,-5.9125 4.7925,-10.70625 10.70625,-10.70625 5.9125,0 10.70625,4.79375 10.70625,10.70625" />
    <path
       inkscape:connector-curvature="0"
       id="path66744"
       style="fill:#dddddd;fill-opacity:1;fill-rule:nonzero;stroke:none"
       d="m 394.96705,432.8492 c -2.30875,1.97125 -3.12875,2.03375 -6.48125,-0.085 l -0.0112,0.02 c 2.54875,2.505 2.61,4.59625 -0.0225,6.975 l 0.015,0.0175 c 2.67875,-1.75125 4.02875,-2.27375 6.3975,-0.225 l 0.01,-0.0175 c -1.4875,-2.295 -1.485,-4.22875 0.10625,-6.66625 l -0.0138,-0.0188 z" />
    <path
       inkscape:connector-curvature="0"
       id="path66756"
       style="fill:#e32b23;fill-opacity:1;fill-rule:nonzero;stroke:none"
       d="m 382.9883,428.87083 c 0.29875,-0.006 0.62375,0.0238 1.30875,0.12375 0.7925,0.11875 3.5425,1.12 5.585,2.4 1.03875,0.6525 1.605,0.79125 2.035,0.79125 0.2925,0 0.74625,-0.23375 1.8075,-1.21 1.04,-0.955 1.16625,-1.1475 1.3125,-1.39875 0.0525,-0.09 0.0875,-0.14125 0.10875,-0.175 -1.66375,-1.57875 -3.91,-2.54875 -6.38375,-2.54875 -2.18375,0 -4.19,0.75625 -5.77375,2.0175 m 10.94,12.91125 c -0.38375,-0.44375 -1.28875,-1.2575 -2.1475,-1.30375 -0.86,-0.0463 -1.41875,0.5 -2.89375,1.21125 -1.7425,0.8375 -3.21125,1.25625 -3.84375,1.44375 -0.55125,0.16125 -1.44625,0.3075 -1.9975,0.31125 1.57625,1.23375 3.55875,1.9725 5.71625,1.9725 2.42125,0 4.62625,-0.93 6.28,-2.44875 -0.1625,-0.2525 -0.765,-0.78375 -1.11375,-1.18625 m 4.11375,-5.64625 c 0,-1.84 -0.53625,-3.55125 -1.4575,-4.99375 0.0813,0.29625 0.095,0.56 0.0563,0.92875 -0.11375,1.095 -0.475,2.16625 -0.6775,2.7 -0.205,0.5375 -0.45125,1.32875 -0.43,1.67875 0.0225,0.34875 0.0913,0.41875 0.1825,0.83875 0.0888,0.41875 0.835,1.885 0.88,3.09625 0.0175,0.435 -0.007,0.625 -0.0663,0.82875 0.955,-1.45875 1.5125,-3.2025 1.5125,-5.0775 m -10.82875,1.82875 c 0.52375,-0.6675 0.76875,-0.88625 0.76875,-1.46875 0,-0.58125 -0.0663,-0.69875 -0.99375,-1.8875 -1.495,-1.9125 -3.4825,-4.23875 -4.52375,-4.635 -0.2425,-0.0925 -0.3725,-0.1425 -0.50125,-0.1525 -1.54,1.655 -2.4825,3.875 -2.4825,6.315 0,2.42875 0.935,4.63875 2.46375,6.29375 0.045,0.002 0.0937,0.006 0.1375,0.006 0.27,0 0.37375,-0.0825 0.655,-0.21125 0.88125,-0.39375 3.7075,-3.28375 4.47625,-4.26" />
    <path
       inkscape:connector-curvature="0"
       id="path66760"
       style="fill:#231f1f;fill-opacity:1;fill-rule:nonzero;stroke:none"
       d="m 412.03293,449.6327 -2.27,0 0.52875,-2.00375 c 0.0613,-0.23 -0.0125,-0.32875 -0.25125,-0.32875 l -0.96125,0 c -0.23625,0 -0.48125,0.18875 -0.54125,0.41875 l -1.575,5.92 c -0.004,0.015 -0.004,0.0275 -0.004,0.0375 l -0.004,0.002 c -0.0187,0.10375 -0.015,0.12375 -0.015,0.21625 0,0.4825 0.24625,0.7125 0.365,0.825 0.225,0.20875 0.645,0.32875 1.1525,0.32875 l 1.46,0 0.61,-0.001 0.19625,-0.002 c 0.11,-0.002 0.38875,-0.46375 0.4875,-0.85875 0.03,-0.1275 0.0525,-0.2525 0.0562,-0.365 l 0.001,-0.0125 c 0,-0.03 -0.009,-0.055 -0.025,-0.0725 -0.025,-0.0275 -0.0587,-0.0325 -0.35875,-0.0325 l -2.205,0 0.006,-0.0163 0.72875,-2.73625 2.25375,0 c 0.15875,0 0.3775,-0.3425 0.48875,-0.76625 0.0362,-0.1325 0.0562,-0.2575 0.0625,-0.365 l 0.002,0 c 0.007,-0.1075 -0.0713,-0.1875 -0.19,-0.1875 m -18.60875,1.56875 -0.605,2.29 c -0.0538,0.22625 -0.105,0.2475 -0.53,0.2475 -0.25125,0 -1.36375,-0.001 -2.16125,-0.001 l 0.73375,-2.78125 c 0.7975,-0.001 1.91,-0.004 2.1625,-0.004 0.425,0 0.465,0.0225 0.4,0.24875 m 1.3825,-1.26625 c -0.22875,-0.19875 -0.66875,-0.325 -1.2075,-0.325 l -0.19375,0 c -0.0538,-0.005 -0.0975,-0.007 -0.12,-0.007 l -2.4525,0 0,0 -0.9125,0 c -0.0275,0 -0.0525,0.004 -0.0775,0.009 -0.25125,0.002 -0.3375,0.0337 -0.4175,0.295 -0.02,0.0375 -0.0387,0.0763 -0.0487,0.11625 l -1.77875,6.74 c -0.0613,0.23 0.13125,0.24 0.36875,0.24 l 0.86625,0 c 0.2375,0 0.48125,-0.1875 0.5425,-0.42 l 0.39625,-1.50125 2.3825,0 c 0.53875,0 1.045,-0.12375 1.38,-0.32375 0.22625,-0.135 0.775,-0.4675 0.975,-1.22125 l 0.6275,-2.38 c 0.19875,-0.755 -0.175,-1.08625 -0.33,-1.22125 m 12.50125,-0.16375 0.001,0 c 0.007,-0.1075 -0.0688,-0.1875 -0.1875,-0.1875 l -0.22375,0 0,-0.001 -1.9525,0 c -0.54,0 -1.04625,0.125 -1.3825,0.325 -0.22375,0.135 -0.775,0.4675 -0.9725,1.22125 l -0.009,0.0275 -0.1025,0.38625 0,0.001 -0.8625,3.2725 c -0.0625,0.23125 0.13,0.24 0.36875,0.24 l 0.865,0 c 0.2375,0 0.4825,-0.18875 0.5425,-0.41875 l 0.90875,-3.43625 c 0.0538,-0.22625 0.105,-0.24875 0.53125,-0.24875 0.0888,0 0.26625,0 0.495,0.002 l 1.21,0 0,-0.004 0.20625,0 c 0.15875,0 0.39,-0.39 0.50125,-0.81375 0.0362,-0.1325 0.0562,-0.25625 0.0625,-0.36625 m -7.1725,1.43 -0.60375,2.29 c -0.0537,0.22625 -0.10625,0.2475 -0.53125,0.2475 -0.0913,0 -1.05625,-0.002 -1.27,-0.001 -0.2275,0.001 -0.40625,0.001 -0.4975,0.001 -0.425,0 -0.46375,-0.0213 -0.4,-0.2475 l 0.605,-2.29 c 0.0562,-0.22625 0.105,-0.24875 0.53125,-0.24875 0.09,0 0.1725,0 0.40125,0.002 0.2125,0.001 1.27375,-0.002 1.36375,-0.002 0.425,0 0.46625,0.0225 0.40125,0.24875 m 1.72125,-0.0725 c 0.19875,-0.75375 -0.175,-1.08625 -0.3325,-1.22125 -0.22875,-0.2 -0.66875,-0.325 -1.2075,-0.325 l -2.2075,0 c -0.5375,0 -1.045,0.125 -1.37875,0.325 -0.22625,0.135 -0.775,0.4675 -0.97375,1.22125 l -0.007,0.0275 -0.001,0 -0.62875,2.38 c -0.19875,0.75375 0.175,1.08625 0.33125,1.22125 0.23,0.2 0.67,0.32375 1.2075,0.32375 l 2.20875,0 c 0.5375,0 1.045,-0.12375 1.37875,-0.32375 0.22625,-0.135 0.77625,-0.4675 0.975,-1.22125 l 0.38875,-1.4725 0.2475,-0.935 z m -20.825,-1.5425 -1.32625,1.27625 -1.32625,-1.27625 -0.0175,0 -1.2375,1.23 1.31375,1.26375 -1.8875,1.815 1.2575,1.2275 5.75875,-5.53625 -2.535,0 z m -3.93125,1.22875 -1.24625,-1.22875 -0.01,0 -1.8475,1.77625 0.48,-1.77625 -6.34375,0 c -0.82,0 -1.545,0.61375 -1.545,1.38875 0,0.37 0.1525,0.70875 0.4,0.9575 l 1.2225,1.13875 c 0.08,0.0812 0.1225,0.1775 0.1225,0.2575 0,0.18875 -0.12125,0.3375 -0.4375,0.3375 l -2.5775,0 -0.39875,1.45625 4.31,0 c 0.82,0 1.55,-0.61 1.55125,-1.38375 0,-0.37 -0.1525,-0.70875 -0.4,-0.9575 l -1.2375,-1.1575 c -0.0687,-0.0662 -0.1075,-0.15875 -0.1075,-0.23875 0,-0.19 0.135,-0.335 0.3775,-0.335 l 2.6175,0 -1.09,4.0725 2.04875,0 0.46625,-1.745 1.81875,1.745 0.009,0 1.2475,-1.2275 -1.31625,-1.265 1.88625,-1.815 z m 10.1925,1.29625 c -0.39,-0.24125 -1.57,-0.4475 -2.03875,-0.56125 -0.3225,-0.0775 -0.7125,-0.13125 -0.63125,-0.3475 0.0587,-0.1575 0.29125,-0.24625 0.65,-0.25 0.3125,0 2.3,0.002 2.64,0 0.18875,0 0.45375,-0.165 0.65125,-0.91625 0.10625,-0.40375 -0.045,-0.40625 -0.2775,-0.40625 l -3.44875,0 c -0.5375,0 -1.0275,0.31375 -1.4175,0.82125 -0.38875,0.51 -0.59375,1.12125 -0.53,1.47 0.0763,0.415 0.41375,0.63625 0.8825,0.79625 0.46625,0.16 1.1825,0.31 1.53125,0.405 0.3775,0.0987 0.98875,0.14 0.8875,0.3675 -0.0738,0.165 -0.1625,0.25625 -0.53125,0.24875 -0.425,-0.01 -2.33,-0.004 -2.7,0 -0.415,0.004 -0.61625,0.35875 -0.77625,0.96875 -0.0988,0.37125 -0.0163,0.37375 0.34,0.37375 l 2.9075,0 c 0.53875,0 1.045,-0.12375 1.38,-0.32375 0.22625,-0.135 0.77625,-0.4675 0.97375,-1.22125 0.25375,-0.9575 -0.0825,-1.17 -0.4925,-1.425" />
    <path
       inkscape:connector-curvature="0"
       id="path66772"
       style="fill:#6c6f74;fill-opacity:1;fill-rule:nonzero;stroke:none"
       d="m 375.83793,449.56695 1.275,1.25875 1.26625,-1.26125 -2.54125,0.002 z" />
    <path
       inkscape:connector-curvature="0"
       id="path66776"
       style="fill:#6c6f74;fill-opacity:1;fill-rule:nonzero;stroke:none"
       d="m 376.5398,453.88295 -1.275,1.255 2.5575,-0.002 -1.2825,-1.2525 z" />
    <g
       id="g4248"
       transform="translate(17.936729,0)">
      <path
         d="m 362.1401,459.96829 c 0.0718,0 0.13921,-0.0145 0.20183,-0.0424 0.0621,-0.0284 0.11609,-0.0674 0.16136,-0.11656 0.0458,-0.0491 0.0814,-0.10501 0.1079,-0.16763 0.0265,-0.0621 0.04,-0.12765 0.04,-0.19556 0,-0.13632 -0.0487,-0.25626 -0.14499,-0.36078 -0.0963,-0.10357 -0.2182,-0.15607 -0.36608,-0.15607 l -0.40846,0 0,1.03899 0.40846,0 z m -1.31692,-1.89013 1.328,0 c 0.19701,0 0.37957,0.0361 0.54816,0.1079 0.16811,0.0718 0.31406,0.16907 0.43689,0.29238 0.12331,0.12283 0.21964,0.26734 0.28949,0.434 0.0703,0.16666 0.10501,0.3444 0.10501,0.53371 0,0.1893 -0.0347,0.36704 -0.10501,0.53322 -0.0698,0.16666 -0.16618,0.31165 -0.28949,0.43448 -0.12283,0.12283 -0.26878,0.22061 -0.43689,0.29238 -0.16859,0.0718 -0.35115,0.1079 -0.54816,0.1079 l -0.41954,0 0,1.29428 -0.90846,0 0,-4.03025 z"
         style="fill:#e32b23;fill-opacity:1;fill-rule:nonzero;stroke:none"
         id="path72756"
         inkscape:connector-curvature="0" />
      <path
         d="m 365.85818,461.27948 c 0.16281,0 0.31406,-0.0313 0.45423,-0.0939 0.13968,-0.0621 0.26107,-0.14739 0.36319,-0.25529 0.10211,-0.10741 0.18255,-0.23362 0.24132,-0.37716 0.0583,-0.14402 0.0877,-0.2972 0.0877,-0.46001 0,-0.1628 -0.0294,-0.31598 -0.0877,-0.45952 -0.0588,-0.14403 -0.13921,-0.26975 -0.24132,-0.37764 -0.10212,-0.1079 -0.22351,-0.19316 -0.36319,-0.25529 -0.14017,-0.0626 -0.29142,-0.0939 -0.45423,-0.0939 -0.16281,0 -0.31406,0.0313 -0.45423,0.0939 -0.14017,0.0621 -0.26107,0.14739 -0.36319,0.25529 -0.10212,0.10789 -0.18256,0.23361 -0.24132,0.37764 -0.0588,0.14354 -0.0881,0.29672 -0.0881,0.45952 0,0.16281 0.0294,0.31599 0.0881,0.46001 0.0588,0.14354 0.1392,0.26975 0.24132,0.37716 0.10212,0.1079 0.22302,0.19316 0.36319,0.25529 0.14017,0.0626 0.29142,0.0939 0.45423,0.0939 m 0,0.87378 c -0.28371,0 -0.55057,-0.0535 -0.80056,-0.16137 -0.24951,-0.10789 -0.4682,-0.25577 -0.65557,-0.44266 -0.1869,-0.18738 -0.33477,-0.40606 -0.44267,-0.65558 -0.1079,-0.24999 -0.16185,-0.51684 -0.16185,-0.80056 0,-0.28371 0.0539,-0.55056 0.16185,-0.80055 0.1079,-0.24952 0.25577,-0.4682 0.44267,-0.65509 0.18737,-0.18738 0.40606,-0.33526 0.65557,-0.44315 0.24999,-0.1079 0.51685,-0.16185 0.80056,-0.16185 0.28371,0 0.55056,0.0539 0.80056,0.16185 0.24951,0.10789 0.46819,0.25577 0.65509,0.44315 0.18737,0.18689 0.33525,0.40557 0.44315,0.65509 0.10741,0.24999 0.16184,0.51684 0.16184,0.80055 0,0.28372 -0.0544,0.55057 -0.16184,0.80056 -0.1079,0.24952 -0.25578,0.4682 -0.44315,0.65558 -0.1869,0.18689 -0.40558,0.33477 -0.65509,0.44266 -0.25,0.1079 -0.51685,0.16137 -0.80056,0.16137"
         style="fill:#e32b23;fill-opacity:1;fill-rule:nonzero;stroke:none"
         id="path72760"
         inkscape:connector-curvature="0" />
      <path
         d="m 369.80866,459.96829 c 0.0718,0 0.13921,-0.0145 0.20183,-0.0424 0.0621,-0.0284 0.11608,-0.0674 0.16136,-0.11656 0.0458,-0.0491 0.0814,-0.10501 0.1079,-0.16763 0.0265,-0.0621 0.04,-0.12765 0.04,-0.19556 0,-0.13632 -0.0487,-0.25626 -0.14499,-0.36078 -0.0963,-0.10357 -0.21868,-0.15607 -0.36608,-0.15607 l -0.40847,0 0,1.03899 0.40847,0 z m -1.31692,-1.89013 1.328,0 c 0.19701,0 0.37957,0.0361 0.54816,0.1079 0.1681,0.0718 0.31405,0.16907 0.43688,0.29238 0.12332,0.12283 0.21965,0.26734 0.2895,0.434 0.0698,0.16666 0.105,0.3444 0.105,0.53371 0,0.1893 -0.0352,0.36704 -0.105,0.53322 -0.0698,0.16666 -0.16618,0.31165 -0.2895,0.43448 -0.12283,0.12283 -0.26878,0.22061 -0.43688,0.29238 -0.16859,0.0718 -0.35115,0.1079 -0.54816,0.1079 l -0.41955,0 0,1.29428 -0.90845,0 0,-4.03025 z"
         style="fill:#e32b23;fill-opacity:1;fill-rule:nonzero;stroke:none"
         id="path72764"
         inkscape:connector-curvature="0" />
      <path
         inkscape:connector-curvature="0"
         id="path72766"
         style="fill:#e32b23;fill-opacity:1;fill-rule:nonzero;stroke:none"
         d="m 371.51729,460.09873 1.61172,0 0,0.81742 -1.61172,0 0,-0.81742 z" />
      <path
         d="m 375.36575,462.15345 c -0.24228,0 -0.46434,-0.04 -0.66713,-0.11898 -0.20231,-0.0795 -0.37619,-0.19315 -0.52166,-0.34055 -0.14595,-0.14787 -0.25963,-0.32417 -0.34103,-0.53081 -0.0814,-0.20616 -0.12187,-0.43593 -0.12187,-0.68977 l 0,-2.39542 0.90797,0 0,2.40698 c 0,0.24566 0.0684,0.43977 0.20424,0.58139 0.13631,0.1421 0.31598,0.21339 0.53948,0.21339 0.22302,0 0.40317,-0.0713 0.53901,-0.21339 0.13632,-0.14162 0.20471,-0.33573 0.20471,-0.58139 l 0,-2.40698 0.90798,0 0,2.39542 c 0,0.25384 -0.0405,0.48361 -0.12187,0.68977 -0.0819,0.20664 -0.19508,0.38294 -0.34103,0.53081 -0.14547,0.1474 -0.31936,0.26108 -0.52166,0.34055 -0.20231,0.079 -0.42485,0.11898 -0.66714,0.11898"
         style="fill:#e32b23;fill-opacity:1;fill-rule:nonzero;stroke:none"
         id="path72770"
         inkscape:connector-curvature="0" />
      <path
         d="m 379.05512,459.96829 c 0.0722,0 0.1392,-0.0145 0.20134,-0.0424 0.0631,-0.0284 0.11657,-0.0674 0.16233,-0.11656 0.0453,-0.0491 0.0814,-0.10501 0.10741,-0.16763 0.0265,-0.0621 0.04,-0.12765 0.04,-0.19556 0,-0.13632 -0.0482,-0.25626 -0.14498,-0.36078 -0.0963,-0.10357 -0.21821,-0.15607 -0.36608,-0.15607 l -0.40895,0 0,1.03899 0.40895,0 z m -1.31693,-1.89013 1.32849,0 c 0.197,0 0.37908,0.0361 0.54719,0.1079 0.16907,0.0718 0.31454,0.16907 0.43785,0.29238 0.12283,0.12283 0.21917,0.26734 0.28901,0.434 0.0703,0.16666 0.10549,0.3444 0.10549,0.53371 0,0.1893 -0.0352,0.36704 -0.10549,0.53322 -0.0698,0.16666 -0.16618,0.31165 -0.28901,0.43448 -0.12331,0.12283 -0.26878,0.22061 -0.43785,0.29238 -0.16811,0.0718 -0.35019,0.1079 -0.54719,0.1079 l -0.42051,0 0,1.29428 -0.90798,0 0,-4.03025 z"
         style="fill:#e32b23;fill-opacity:1;fill-rule:nonzero;stroke:none"
         id="path72774"
         inkscape:connector-curvature="0" />
    </g>
  </g>
</svg>
