<svg id="b" width="23.306mm" height="6.6868mm" version="1.1" viewBox="0 0 82.579 23.693" xmlns="http://www.w3.org/2000/svg">
 <defs id="c">
  <clipPath id="a">
   <path id="d" d="m306.5 579.37h72.397v24.803h-72.397v-24.803z"/>
  </clipPath>
 </defs>
 <g id="e" transform="translate(-290.14 -446.23)">
  <g id="f" transform="matrix(1.25 0 0 -1.25 -96.939 1197.8)">
   <g id="g" clip-path="url(#a)">
    <g id="h" transform="translate(320.5 597.14)">
     <path id="i" d="m0 0-0.571 0.572 0.921 0.922 0.572-0.572-0.922-0.922zm2.065 2.066-0.571-0.572-0.572 0.572h-1.143l-0.922-0.922 0.23 0.922h-2.849c-0.367-1e-3 -0.693-0.294-0.693-0.663 0-0.176 0.069-0.337 0.179-0.456l0.55-0.543c0.037-0.038 0.054-0.083 0.054-0.121 0-0.091-0.054-0.16-0.196-0.16h-1.156l-0.175-0.694h1.932c0.367 0 0.696 0.29 0.696 0.659 0 0.176-0.069 0.337-0.181 0.456l-0.556 0.55c-0.03 0.032-0.048 0.076-0.048 0.114 0 0.091 0.061 0.164 0.17 0.164h1.177l-0.484-1.943h0.922l0.2 0.799 0.8-0.799h1.143l2.636 2.637h-1.143zm6.029 2.022v-18.933h-18.933v18.933l9.467-9.467 9.466 9.467z" fill="#9e50ae"/>
    </g>
    <g id="j" transform="translate(334.91 601.25)">
     <path id="k" d="m0 0 4.296-4.308 4.296 4.308v-8.713h-1.942v4.223l-2.354-2.354-2.355 2.354v-4.223h-1.941v8.713z" fill="#9e50ae"/>
    </g>
    <g id="l" transform="translate(351.09 596.85)">
     <path id="m" d="m0 0c0 1.383-1.056 2.536-2.452 2.536-1.395 0-2.451-1.153-2.451-2.536 0-1.384 1.056-2.536 2.451-2.536 1.396 0 2.452 1.152 2.452 2.536m-6.856 0c0 2.427 1.977 4.405 4.404 4.405 2.428 0 4.405-1.978 4.405-4.405s-1.977-4.405-4.405-4.405c-2.427 0-4.404 1.978-4.404 4.405" fill="#9e50ae"/>
    </g>
    <g id="n" transform="translate(352.38 601.15)">
     <path id="o" d="M 0,0 2.16,0 4.065,-4.308 5.97,0 8.13,0 4.065,-8.713 0,0 Z" fill="#9e50ae"/>
    </g>
    <path id="p" d="m360.96 601.16h1.941v-8.616h-1.941v8.616z" fill="#9e50ae"/>
    <g id="q" transform="translate(364.1 601.15)">
     <path id="r" d="m0 0h5.339v-1.918h-3.398v-1.456h2.671v-1.868h-2.671v-1.457h3.398v-1.917h-5.339v8.616z" fill="#9e50ae"/>
    </g>
    <g id="s" transform="translate(369.89 594.13)">
     <path id="t" d="m0 0 1.468 1.201c0.377-0.595 0.996-1.068 1.59-1.068 0.57 0 0.825 0.218 0.825 0.619 0 0.388-0.279 0.631-1.007 0.959l-0.485 0.218c-1.299 0.582-2.015 1.541-2.015 2.706 0 1.505 1.25 2.488 2.621 2.488 0.959 0 1.687-0.231 2.415-1.08l-1.311-1.384c-0.436 0.534-0.703 0.644-1.104 0.644-0.327 0-0.667-0.207-0.667-0.595 0-0.449 0.376-0.692 1.165-1.044l0.461-0.206c1.189-0.534 1.881-1.395 1.881-2.585 0-1.553-1.141-2.56-2.743-2.56-1.383 0-2.499 0.57-3.094 1.687" fill="#9e50ae"/>
    </g>
    <g id="u" transform="translate(334.91 590.91)">
     <path id="v" d="m0 0h5.339v-1.917h-3.398v-1.457h2.67v-1.868h-2.67v-1.456h3.398v-1.917h-5.339v8.615z" fill="#9e50ae"/>
    </g>
    <g id="w" transform="translate(343.39 586.62)">
     <path id="x" d="m0 0-2.537 4.295h2.246l1.662-2.862 1.663 2.862h2.245l-2.537-4.295 2.719-4.32h-2.258l-1.832 2.961-1.833-2.961h-2.257l2.719 4.32z" fill="#9e50ae"/>
    </g>
    <g id="y" transform="translate(350.96 589)">
     <path id="z" d="m0 0h-2.064v1.917h6.08v-1.917h-2.075v-6.698h-1.941v6.698z" fill="#9e50ae"/>
    </g>
    <g id="aa" transform="translate(358.87 587.43)">
     <path id="ab" d="m0 0c0.522 0 0.898 0.376 0.898 0.85 0 0.473-0.376 0.861-0.898 0.861h-1.093v-1.711h1.093zm-1.093-5.133h-1.941v8.615h3.252c1.408 0 2.561-1.152 2.561-2.56 0-1.068-0.655-2.014-1.65-2.39l2.79-3.665h-2.317l-2.67 3.495h-0.025v-3.495z" fill="#9e50ae"/>
    </g>
    <g id="ac" transform="translate(367.31 585.21)">
     <path id="ad" d="m0 0-0.814 1.797-0.813-1.797h1.627zm-0.814 5.801 4.248-8.713h-2.039l-0.619 1.335h-3.179l-0.619-1.335h-2.039l4.247 8.713z" fill="#9e50ae"/>
    </g>
   </g>
  </g>
 </g>
</svg>
