<svg height="6.168319mm" viewBox="0 0 78.957212 21.856249" width="22.28348mm" xmlns="http://www.w3.org/2000/svg" xmlns:xlink="http://www.w3.org/1999/xlink"><clipPath id="a"><path d="m480.614 257.811h82.8v24.803h-82.8z"/></clipPath><clipPath id="b"><path d="m490.432 261.47h63.166v17.485h-63.166z"/></clipPath><clipPath id="c"><path d="m480.614 257.811h82.8v24.803h-82.8z"/></clipPath><clipPath id="d"><path d="m490.432 261.47h63.166v17.485h-63.166z"/></clipPath><g clip-path="url(#d)" transform="matrix(1.25 0 0 -1.25 -613.03925 348.69375)"><g transform="translate(518.4089 267.8422)"><path d="m0 0c-1.26.417-2.522 1.117-3.352 2.231-.067.284.214.499.415.499.415.2.982.281 1.462.348.495.133 1.046.133 1.609.202 0-1.115-.134-2.163-.134-3.28m7.041 7.82c-3.555 2.445-8.021 4.193-12.483 2.797-.486-.135-.628-.701-.832-1.116.204-.352.697-.284 1.11-.352.068.068.417.068.35.284-.214.281-.561.135-.763.281.066.135.27.135.413.202 2.51.431 5.017 0 7.178-.831 2.586-1.05 5.507-2.581 6.621-5.376.348-1.048.214-2.376-.699-3.077-1.743-1.397-4.181-1.545-6.34-1.113-.069 1.316-.069 2.361-.069 3.761.134.148.284.081.487.081 1.19-.15 2.373-.214 3.415-.781 0-.131-.134-.269-.2-.349-.149-.269-.561-.269-.495-.619.213-.081.561-.144.844-.144.351.213.83.562.964.981.083.412-.068.762-.266 1.045-1.262 1.115-3.004 1.265-4.615 1.182l-.134.083-.066 1.663c-.066.498-.28.983-.763 1.13-.496-.847-.43-1.962-.564-3.009-.696-.135-1.394-.283-2.089-.566-.567-.201-1.115-.483-1.609-.966-.202-.214-.269-.496-.202-.78.829-1.463 2.373-2.579 3.833-3.277.067-.485.067-1.047.416-1.397.282-.067.565 0 .764 0 .349.132.28.561.349.831 2.44-.616 5.162-.415 7.186 1.05 1.249.979 1.877 2.442 1.527 4.056-.548 1.679-1.81 3.146-3.268 4.326" fill="#02a8eb"/></g></g><g clip-path="url(#c)" transform="matrix(1.25 0 0 -1.25 -613.03925 348.69375)"><g transform="translate(530.1422 272.4384)"><path d="m0 0c-.216 0-.281-.215-.349-.35-.216-1.328-.216-2.659-.216-4.056.069-.483-.065-1.183.497-1.317.27-.08.617 0 .832.202.066 1.612-.067 3.143-.215 4.688-.067.347-.134.833-.549.833" fill="#02a8eb"/></g><g transform="translate(530.0739 274.4675)"><path d="m0 0c .483.831 1.316 1.681 2.227 1.948.283 0 .631.081.763-.201.066-.567-.347-.98-.763-1.264-.134-.134-.349-.2-.562-.281-.55-.202-1.115-.269-1.665-.202m-1.047.483c-.146.147-.075.418 0 .563.068.134.203.351.35.486.201.215.485.348.697.497.137.066.27.066.419.066-.497-.498-1.05-1.049-1.466-1.612m4.67.631c.131.418.213.981-.217 1.332-.199.066-.416.28-.698.202l-.266.347c-.497.351-1.262.283-1.959.149-.63-.149-1.26-.632-1.741-1.115-.215-.215-.35-.497-.485-.699-.28-.563-.145-1.263.27-1.679v-.633c.147-.281.215-.416.426-.416.203 0 .35.416.416.483.553-.134 1.114-.202 1.678-.067.416.136.697.282 1.046.484.615.431 1.18.981 1.53 1.612" fill="#02a8eb"/></g><g transform="translate(532.15 271.7535)"><path d="m0 0c-.48-.284-.694-.765-.694-1.331.066-.215.214-.483.413-.564 1.046-.201 2.16-.134 3.206-.348.43-.137 1.046-.137 1.193-.768-.348-.483-1.258-.631-1.956-.765-.631 0-1.53-.283-2.026.282-.066.067-.066.282.08.351.698.415 1.598-.417 2.228-.351.979.135.979.419.979.633-.216.133-.766.349-1.195.416-.83.065-1.675.202-2.29-.283-.219-.215-.352-.484-.285-.832.285-.846 1.112-1.264 1.96-1.477 1.112-.137 2.358 0 3.124.845.281.416.348 1.249.144 1.812-.91 1.4-2.787.769-4.116 1.184-.133.081-.414.081-.414.216 1.112.484 2.44.416 3.62.563.429.067.844.067 1.114.349 0 .135.147.267 0 .416-1.53.633-3.687.417-5.085-.348" fill="#02a8eb"/></g><g transform="translate(540.6964 273.3509)"><path d="m0 0c-.134-.067-.069-.281-.069-.416.214-1.33.763-2.511.763-3.989-.064-.069.068-.267-.133-.267-.765 1.045-1.326 2.295-2.373 3.274-.216.135-.416 0-.482-.212-.429-.767-.564-1.6-.697-2.514 0-.697-.216-1.532.067-2.164.132-.213.348-.416.63-.416.133 0 .266.203.349.416l.199 2.931.067.214c.698-1.048 1.047-2.308 2.092-3.145.148-.133.429-.065.563.068.561.216.765.847.914 1.331.131 1.532-.215 3.008-1.048 4.19-.212.217-.429.632-.842.699" fill="#02a8eb"/></g></g><g clip-path="url(#b)" transform="matrix(1.25 0 0 -1.25 -613.03925 348.69375)"><g transform="translate(546.9286 268.4612)"><path d="m0 0c-.831.149-1.662-.202-2.506-.282v.08l.213.833c.134.486.765.283 1.114.349.416 0 .912-.066 1.179.216 0 .201.081.485-.067.618-.482.216-1.112.15-1.677.15h-.066l.282.832h1.111c.498.065 1.048 0 1.395.281.069.483-.347.834-.764 1.048-1.177.067-2.373-.214-3.552-.349-.068-.067-.346 0-.346-.135.132-.564.628-.632 1.043-.78l-.149-.416c-.133-.203-.133-.631-.482-.631-.066-.067-.349-.067-.28-.268.346-.78-.415-1.33-.35-2.098.067-.562.416-1.126.911-1.327 1.247-.216 2.294.481 3.205 1.179.067.217-.067.498-.214.7" fill="#02a8eb"/></g><g transform="translate(551.9957 268.5301)"><path d="m0 0c-.496-.419-1.047-.701-1.675-.701.28.498.628 1.048.977 1.612.349.419.698.902 1.183 1.333.213.066.213-.216.28-.285.067-.765-.214-1.463-.765-1.959m.966 3.142c-.201.215-.481.281-.765.215-.765-.417-1.395-.981-2.022-1.679-.417-.484-.835-1.116-1.248-1.612-.066.147-.066.281-.066.496.132 1.251 1.392 2.097 1.245 3.346-.2.08-.416-.267-.549-.416-.981-1.116-1.743-2.378-1.541-3.911.063-.282.213-.483.279-.764-.562-1.196-.831-2.593-1.112-3.91 0-.35-.147-.779 0-1.128.202-.417.7-.9 1.112-.833.281 1.678.765 3.278 1.262 4.823l.83.067c1.396.282 2.788 1.612 3.137 3.075.216.834-.066 1.6-.562 2.231" fill="#02a8eb"/></g></g><g clip-path="url(#a)" transform="matrix(1.25 0 0 -1.25 -613.03925 348.69375)"><path d="m509.357 261.592h.432v17.325h-.432z" fill="#02a8eb"/><g transform="translate(503.8884 276.8719)"><path d="m0 0v-13.457h-13.457v13.457l6.729-6.729z" fill="#fff"/></g></g></svg>