<svg height="10.364681mm" viewBox="0 0 47.302499 36.725248" width="13.349816mm" xmlns="http://www.w3.org/2000/svg"><path d="m0 0c0-4.731-3.835-8.565-8.565-8.565-4.731 0-8.565 3.834-8.565 8.565 0 4.73 3.834 8.565 8.565 8.565 4.73 0 8.565-3.835 8.565-8.565" fill="#161412" transform="matrix(1.25 0 0 -1.25 34.548 10.70625)"/><path d="m0 0c-1.847-1.577-2.503-1.627-5.185.068l-.009-.016c2.039-2.004 2.088-3.677-.018-5.58l.012-.014c2.143 1.401 3.223 1.819 5.118.18l.008.014c-1.19 1.836-1.188 3.383.085 5.333z" fill="#ddd" transform="matrix(1.25 0 0 -1.25 30.04687 7.421)"/><path d="m0 0c .239.005.499-.019 1.047-.099.634-.095 2.834-.896 4.468-1.92.831-.522 1.284-.633 1.628-.633.234 0 .597.187 1.446.968.832.764.933.918 1.05 1.119.042.072.07.113.087.14-1.331 1.263-3.128 2.039-5.107 2.039-1.747 0-3.352-.605-4.619-1.614m8.752-10.329c-.307.355-1.031 1.006-1.718 1.043-.688.037-1.135-.4-2.315-.969-1.394-.67-2.569-1.005-3.075-1.155-.441-.129-1.157-.246-1.598-.249 1.261-.987 2.847-1.578 4.573-1.578 1.937 0 3.701.744 5.024 1.959-.13.202-.612.627-.891.949m3.291 4.517c0 1.472-.429 2.841-1.166 3.995.065-.237.076-.448.045-.743-.091-.876-.38-1.733-.542-2.16-.164-.43-.361-1.063-.344-1.343.018-.279.073-.335.146-.671.071-.335.668-1.508.704-2.477.014-.348-.006-.5-.053-.663.764 1.167 1.21 2.562 1.21 4.062m-8.663-1.463c.419.534.615.709.615 1.175 0 .465-.053.559-.795 1.51-1.196 1.53-2.786 3.391-3.619 3.708-.194.074-.298.114-.401.122-1.232-1.324-1.986-3.1-1.986-5.052 0-1.943.748-3.711 1.971-5.035.036-.002.075-.005.11-.005.216 0 .299.066.524.169.705.315 2.966 2.627 3.581 3.408" fill="#e32b23" transform="matrix(1.25 0 0 -1.25 18.06812 3.44263)"/><path d="m0 0h-1.816l.423 1.603c.049.184-.01.263-.201.263h-.769c-.189 0-.385-.151-.433-.335l-1.26-4.736c-.003-.012-.003-.022-.003-.03l-.003-.002c-.015-.083-.012-.099-.012-.173 0-.386.197-.57.292-.66.18-.167.516-.263.922-.263h1.168l.488.001.157.002c.088.002.311.371.39.687.024.102.042.202.045.292l.001.01c0 .024-.007.044-.02.058-.02.022-.047.026-.287.026h-1.764l.005.013.583 2.189h1.803c.127 0 .302.274.391.613.029.106.045.206.05.292h.002c.006.086-.057.15-.152.15m-14.887-1.255-.484-1.832c-.043-.181-.084-.198-.424-.198-.201 0-1.091.001-1.729.001l.587 2.225c.638.001 1.528.003 1.73.003.34 0 .372-.018.32-.199m1.106 1.013c-.183.159-.535.26-.966.26h-.155c-.043.004-.078.006-.096.006h-1.962-.73c-.022 0-.042-.003-.062-.007-.201-.002-.27-.027-.334-.236-.016-.03-.031-.061-.039-.093l-1.423-5.392c-.049-.184.105-.192.295-.192h.693c.19 0 .385.15.434.336l.317 1.201h1.906c.431 0 .836.099 1.104.259.181.108.62.374.78.977l.502 1.904c.159.604-.14.869-.264.977m10.001.131h.001c.006.086-.055.15-.15.15h-.179v.001h-1.562c-.432 0-.837-.1-1.106-.26-.179-.108-.62-.374-.778-.977l-.007-.022-.082-.309v-.001l-.69-2.618c-.05-.185.104-.192.295-.192h.692c.19 0 .386.151.434.335l.727 2.749c.043.181.084.199.425.199.071 0 .213 0 .396-.002h.968v.003h.165c.127 0 .312.312.401.651.029.106.045.205.05.293m-5.738-1.144-.483-1.832c-.043-.181-.085-.198-.425-.198-.073 0-.845.002-1.016.001-.182-.001-.325-.001-.398-.001-.34 0-.371.017-.32.198l.484 1.832c.045.181.084.199.425.199.072 0 .138 0 .321-.002.17-.001 1.019.002 1.091.002.34 0 .373-.018.321-.199m1.377.058c.159.603-.14.869-.266.977-.183.16-.535.26-.966.26h-1.766c-.43 0-.836-.1-1.103-.26-.181-.108-.62-.374-.779-.977l-.006-.022h-.001l-.503-1.904c-.159-.603.14-.869.265-.977.184-.16.536-.259.966-.259h1.767c.43 0 .836.099 1.103.259.181.108.621.374.78.977l.311 1.178zm-16.66 1.234-1.061-1.021-1.061 1.021h-.014l-.99-.984 1.051-1.011-1.51-1.452 1.006-.982 4.607 4.429h-2.028zm-3.145-.983-.997.983h-.008l-1.478-1.421.384 1.421h-5.075c-.656 0-1.236-.491-1.236-1.111 0-.296.122-.567.32-.766l.978-.911c.064-.065.098-.142.098-.206 0-.151-.097-.27-.35-.27h-2.062l-.319-1.165h3.448c.656 0 1.24.488 1.241 1.107 0 .296-.122.567-.32.766l-.99.926c-.055.053-.086.127-.086.191 0 .152.108.268.302.268h2.094l-.872-3.258h1.639l.373 1.396 1.455-1.396h.007l.998.982-1.053 1.012zm8.154-1.037c-.312.193-1.256.358-1.631.449-.258.062-.57.105-.505.278.047.126.233.197.52.2.25 0 1.84-.002 2.112 0 .151 0 .363.132.521.733.085.323-.036.325-.222.325h-2.759c-.43 0-.822-.251-1.134-.657-.311-.408-.475-.897-.424-1.176.061-.332.331-.509.706-.637.373-.128.946-.248 1.225-.324.302-.079.791-.112.71-.294-.059-.132-.13-.205-.425-.199-.34.008-1.864.003-2.16 0-.332-.003-.493-.287-.621-.775-.079-.297-.013-.299.272-.299h2.326c.431 0 .836.099 1.104.259.181.108.621.374.779.977.203.766-.066.936-.394 1.14" fill="#fff" transform="matrix(1.25 0 0 -1.25 47.11275 24.2045)"/><path d="m0 0 1.02-1.007 1.013 1.009z" fill="#6c6f74" transform="matrix(1.25 0 0 -1.25 10.91775 24.13875)"/><path d="m0 0-1.02-1.004 2.046.002z" fill="#6c6f74" transform="matrix(1.25 0 0 -1.25 11.61962 28.45475)"/><g fill="#e32b23"><path d="m0 0-.363-2.998c-.012-.089-.06-.134-.143-.134h-.251c-.084 0-.125.039-.125.118l-.004.021.198 1.556-.752-1.591c-.035-.069-.084-.104-.147-.104h-.394c-.075 0-.12.034-.134.103l-.353 1.575-.189-1.544c-.011-.089-.061-.134-.148-.134h-.248c-.087 0-.129.039-.126.118.003.005.004.012.004.021l.368 3.002c.011.086.062.129.151.129h.241c.067 0 .113-.036.139-.108l.576-2.423 1.186 2.427c.026.07.076.104.151.104h.242c.084 0 .125-.033.125-.099 0-.012-.001-.025-.004-.039" transform="matrix(1.25 0 0 -1.25 18.783937 32.793747)"/><path d="m0 0-.078-.089c-.003-.021-.007-.057-.013-.107h.001l-.218-1.765c.003-.059.004-.092.004-.101.021-.114.081-.172.182-.172h.663c.069 0 .128.028.178.084.049.055.078.12.086.193l.221 1.803c.003.064-.013.119-.046.167s-.082.072-.146.072h-.66c-.067 0-.125-.028-.174-.085m-.172-2.723c-.202 0-.367.065-.496.193-.128.128-.189.293-.183.495.002.018.005.045.008.083l.212 1.76c.026.22.12.403.283.548s.354.217.573.217h.658c.225 0 .401-.072.528-.216.101-.116.151-.271.151-.468v-.082l-.216-1.763c-.026-.219-.12-.402-.281-.548-.162-.146-.354-.219-.576-.219z" transform="matrix(1.25 0 0 -1.25 19.972677 33.321497)"/><path d="m0 0c-.401 0-.702.043-.904.13-.063.026-.094.072-.091.138 0 .015.002.028.004.039l.026.139c.021.115.077.171.169.168.02 0 .039-.003.056-.008.182-.052.453-.078.814-.078.144 0 .269.041.376.123.106.082.173.193.199.332v.034c0 .064-.039.126-.117.187-.026.02-.137.079-.333.177-.337.171-.545.288-.623.351-.147.124-.221.279-.221.464 0 .332.142.61.424.836.225.176.488.264.788.264.392 0 .687-.044.886-.131.061-.026.091-.072.091-.139 0-.012-.001-.023-.004-.035l-.022-.144c-.017-.113-.076-.168-.177-.165-.012.003-.029.006-.052.009-.199.057-.464.086-.796.086-.147 0-.274-.041-.38-.123-.107-.083-.172-.196-.195-.341v-.03c0-.063.037-.126.112-.186.026-.02.14-.078.342-.173.297-.139.5-.256.61-.351.153-.133.229-.291.229-.473v-.129c-.055-.292-.195-.527-.422-.705-.226-.177-.488-.266-.785-.266z" transform="matrix(1.25 0 0 -1.25 23.368807 36.724627)"/><path d="m0 0h .628l-.184 1.042zm.994-1.376c-.087 0-.135.039-.143.117h.003l-.14.77h-.92l-.329-.769c-.035-.078-.086-.118-.155-.118h-.259c-.089 0-.132.039-.129.117 0 .006.001.01.004.013.003.02.007.035.013.043l1.268 3.007c.031.078.087.116.168.116h.342c.081 0 .128-.039.142-.117l.528-2.997c.009-.017.013-.032.013-.043v-.009c0-.086-.047-.13-.142-.13z" transform="matrix(1.25 0 0 -1.25 26.187307 35.005127)"/><path d="m0 0c-.092 0-.137.043-.134.129v.021l.026.202c.011.091.065.137.16.137h.125l.29 2.318h-.123c-.094 0-.139.042-.136.125v.017l.025.206c.012.094.067.141.165.141h.783c.089 0 .134-.043.134-.129-.003-.002-.004-.008-.004-.017l-.026-.205c-.012-.092-.063-.138-.154-.138h-.128l-.285-2.318h.121c.089 0 .134-.043.134-.129-.003-.003-.004-.008-.004-.017l-.022-.202c-.011-.094-.062-.141-.151-.141z" transform="matrix(1.25 0 0 -1.25 28.056677 36.724627)"/><path d="m0 0c-.205 0-.371.064-.498.19-.126.127-.187.293-.181.498 0 .006.003.032.008.078l.212 1.76c.026.22.12.404.282.55.161.147.353.22.575.22h.549c.205 0 .371-.064.498-.191.115-.119.173-.286.173-.501v-.082l-.022-.177c-.012-.096-.065-.143-.16-.143h-.251c-.086 0-.13.044-.13.134 0 .009.003.014.009.017h-.003l.022.177c0 .185-.064.277-.191.277h-.546c-.067 0-.125-.029-.176-.087-.05-.058-.08-.122-.088-.194l-.217-1.765.001-.03c-.003-.062.012-.118.045-.167.033-.05.08-.075.141-.075h.549c.063 0 .122.029.175.088.054.058.085.121.093.189l-.003-.001.022.186c.012.096.063.143.156.143h.245c.089 0 .134-.043.134-.129v-.022l-.022-.182c-.026-.219-.118-.401-.276-.545-.159-.144-.349-.216-.571-.216z" transform="matrix(1.25 0 0 -1.25 30.668057 36.724627)"/></g></svg>