<?xml version="1.0" encoding="UTF-8"?>
<!-- Created with Inkscape (http://www.inkscape.org/) -->
<svg id="svg78926" width="13.35mm" height="10.365mm" version="1.1" viewBox="0 0 47.302 36.725" xmlns="http://www.w3.org/2000/svg" xmlns:cc="http://creativecommons.org/ns#" xmlns:dc="http://purl.org/dc/elements/1.1/" xmlns:rdf="http://www.w3.org/1999/02/22-rdf-syntax-ns#">
 <metadata id="metadata78931">
  <rdf:RDF>
   <cc:Work rdf:about="">
    <dc:format>image/svg+xml</dc:format>
    <dc:type rdf:resource="http://purl.org/dc/dcmitype/StillImage"/>
    <dc:title/>
   </cc:Work>
  </rdf:RDF>
 </metadata>
 <g id="layer1" transform="translate(-364.92 -425.43)">
  <path id="path66740" d="m399.47 436.13c0 5.9138-4.7938 10.706-10.706 10.706-5.9138 0-10.706-4.7925-10.706-10.706 0-5.9125 4.7925-10.706 10.706-10.706 5.9125 0 10.706 4.7938 10.706 10.706" fill="#161412"/>
  <path id="path66744" d="m394.97 432.85c-2.3088 1.9712-3.1288 2.0338-6.4812-0.085l-0.0112 0.02c2.5488 2.505 2.61 4.5962-0.0225 6.975l0.015 0.0175c2.6788-1.7512 4.0288-2.2738 6.3975-0.225l0.01-0.0175c-1.4875-2.295-1.485-4.2288 0.10625-6.6662l-0.0138-0.0188z" fill="#ddd"/>
  <path id="path66756" d="m382.99 428.87c0.29875-6e-3 0.62375 0.0238 1.3088 0.12375 0.7925 0.11875 3.5425 1.12 5.585 2.4 1.0388 0.6525 1.605 0.79125 2.035 0.79125 0.2925 0 0.74625-0.23375 1.8075-1.21 1.04-0.955 1.1662-1.1475 1.3125-1.3988 0.0525-0.09 0.0875-0.14125 0.10875-0.175-1.6638-1.5788-3.91-2.5488-6.3838-2.5488-2.1838 0-4.19 0.75625-5.7738 2.0175m10.94 12.911c-0.38375-0.44375-1.2888-1.2575-2.1475-1.3038-0.86-0.0463-1.4188 0.5-2.8938 1.2112-1.7425 0.8375-3.2112 1.2562-3.8438 1.4438-0.55125 0.16125-1.4462 0.3075-1.9975 0.31125 1.5762 1.2338 3.5588 1.9725 5.7162 1.9725 2.4212 0 4.6262-0.93 6.28-2.4488-0.1625-0.2525-0.765-0.78375-1.1138-1.1862m4.1138-5.6462c0-1.84-0.53625-3.5512-1.4575-4.9938 0.0813 0.29625 0.095 0.56 0.0563 0.92875-0.11375 1.095-0.475 2.1662-0.6775 2.7-0.205 0.5375-0.45125 1.3288-0.43 1.6788 0.0225 0.34875 0.0913 0.41875 0.1825 0.83875 0.0888 0.41875 0.835 1.885 0.88 3.0962 0.0175 0.435-7e-3 0.625-0.0663 0.82875 0.955-1.4588 1.5125-3.2025 1.5125-5.0775m-10.829 1.8288c0.52375-0.6675 0.76875-0.88625 0.76875-1.4688 0-0.58125-0.0663-0.69875-0.99375-1.8875-1.495-1.9125-3.4825-4.2388-4.5238-4.635-0.2425-0.0925-0.3725-0.1425-0.50125-0.1525-1.54 1.655-2.4825 3.875-2.4825 6.315 0 2.4288 0.935 4.6388 2.4638 6.2938 0.045 2e-3 0.0937 6e-3 0.1375 6e-3 0.27 0 0.37375-0.0825 0.655-0.21125 0.88125-0.39375 3.7075-3.2838 4.4762-4.26" fill="#e32b23"/>
  <path id="path66760" d="m412.03 449.63h-2.27l0.52875-2.0038c0.0613-0.23-0.0125-0.32875-0.25125-0.32875h-0.96125c-0.23625 0-0.48125 0.18875-0.54125 0.41875l-1.575 5.92c-4e-3 0.015-4e-3 0.0275-4e-3 0.0375l-4e-3 2e-3c-0.0187 0.10375-0.015 0.12375-0.015 0.21625 0 0.4825 0.24625 0.7125 0.365 0.825 0.225 0.20875 0.645 0.32875 1.1525 0.32875h1.46l0.61-1e-3 0.19625-2e-3c0.11-2e-3 0.38875-0.46375 0.4875-0.85875 0.03-0.1275 0.0525-0.2525 0.0562-0.365l1e-3 -0.0125c0-0.03-9e-3 -0.055-0.025-0.0725-0.025-0.0275-0.0587-0.0325-0.35875-0.0325h-2.205l6e-3 -0.0163 0.72875-2.7362h2.2538c0.15875 0 0.3775-0.3425 0.48875-0.76625 0.0362-0.1325 0.0562-0.2575 0.0625-0.365h2e-3c7e-3 -0.1075-0.0713-0.1875-0.19-0.1875m-18.609 1.5688-0.605 2.29c-0.0538 0.22625-0.105 0.2475-0.53 0.2475-0.25125 0-1.3638-1e-3 -2.1612-1e-3l0.73375-2.7812c0.7975-1e-3 1.91-4e-3 2.1625-4e-3 0.425 0 0.465 0.0225 0.4 0.24875m1.3825-1.2662c-0.22875-0.19875-0.66875-0.325-1.2075-0.325h-0.19375c-0.0538-5e-3 -0.0975-7e-3 -0.12-7e-3h-2.4525-0.9125c-0.0275 0-0.0525 4e-3 -0.0775 9e-3 -0.25125 2e-3 -0.3375 0.0337-0.4175 0.295-0.02 0.0375-0.0387 0.0763-0.0487 0.11625l-1.7788 6.74c-0.0613 0.23 0.13125 0.24 0.36875 0.24h0.86625c0.2375 0 0.48125-0.1875 0.5425-0.42l0.39625-1.5012h2.3825c0.53875 0 1.045-0.12375 1.38-0.32375 0.22625-0.135 0.775-0.4675 0.975-1.2212l0.6275-2.38c0.19875-0.755-0.175-1.0862-0.33-1.2212m12.501-0.16375h1e-3c7e-3 -0.1075-0.0688-0.1875-0.1875-0.1875h-0.22375v-1e-3h-1.9525c-0.54 0-1.0462 0.125-1.3825 0.325-0.22375 0.135-0.775 0.4675-0.9725 1.2212l-9e-3 0.0275-0.1025 0.38625v1e-3l-0.8625 3.2725c-0.0625 0.23125 0.13 0.24 0.36875 0.24h0.865c0.2375 0 0.4825-0.18875 0.5425-0.41875l0.90875-3.4362c0.0538-0.22625 0.105-0.24875 0.53125-0.24875 0.0888 0 0.26625 0 0.495 2e-3h1.21v-4e-3h0.20625c0.15875 0 0.39-0.39 0.50125-0.81375 0.0362-0.1325 0.0562-0.25625 0.0625-0.36625m-7.1725 1.43-0.60375 2.29c-0.0537 0.22625-0.10625 0.2475-0.53125 0.2475-0.0913 0-1.0562-2e-3 -1.27-1e-3 -0.2275 1e-3 -0.40625 1e-3 -0.4975 1e-3 -0.425 0-0.46375-0.0213-0.4-0.2475l0.605-2.29c0.0562-0.22625 0.105-0.24875 0.53125-0.24875 0.09 0 0.1725 0 0.40125 2e-3 0.2125 1e-3 1.2738-2e-3 1.3638-2e-3 0.425 0 0.46625 0.0225 0.40125 0.24875m1.7212-0.0725c0.19875-0.75375-0.175-1.0862-0.3325-1.2212-0.22875-0.2-0.66875-0.325-1.2075-0.325h-2.2075c-0.5375 0-1.045 0.125-1.3788 0.325-0.22625 0.135-0.775 0.4675-0.97375 1.2212l-7e-3 0.0275h-1e-3l-0.62875 2.38c-0.19875 0.75375 0.175 1.0862 0.33125 1.2212 0.23 0.2 0.67 0.32375 1.2075 0.32375h2.2088c0.5375 0 1.045-0.12375 1.3788-0.32375 0.22625-0.135 0.77625-0.4675 0.975-1.2212l0.38875-1.4725 0.2475-0.935zm-20.825-1.5425-1.3262 1.2762-1.3262-1.2762h-0.0175l-1.2375 1.23 1.3138 1.2638-1.8875 1.815 1.2575 1.2275 5.7588-5.5362h-2.535zm-3.9312 1.2288-1.2462-1.2288h-0.01l-1.8475 1.7762 0.48-1.7762h-6.3438c-0.82 0-1.545 0.61375-1.545 1.3888 0 0.37 0.1525 0.70875 0.4 0.9575l1.2225 1.1388c0.08 0.0812 0.1225 0.1775 0.1225 0.2575 0 0.18875-0.12125 0.3375-0.4375 0.3375h-2.5775l-0.39875 1.4562h4.31c0.82 0 1.55-0.61 1.5512-1.3838 0-0.37-0.1525-0.70875-0.4-0.9575l-1.2375-1.1575c-0.0687-0.0662-0.1075-0.15875-0.1075-0.23875 0-0.19 0.135-0.335 0.3775-0.335h2.6175l-1.09 4.0725h2.0488l0.46625-1.745 1.8188 1.745h9e-3l1.2475-1.2275-1.3162-1.265 1.8862-1.815zm10.192 1.2962c-0.39-0.24125-1.57-0.4475-2.0388-0.56125-0.3225-0.0775-0.7125-0.13125-0.63125-0.3475 0.0587-0.1575 0.29125-0.24625 0.65-0.25 0.3125 0 2.3 2e-3 2.64 0 0.18875 0 0.45375-0.165 0.65125-0.91625 0.10625-0.40375-0.045-0.40625-0.2775-0.40625h-3.4488c-0.5375 0-1.0275 0.31375-1.4175 0.82125-0.38875 0.51-0.59375 1.1212-0.53 1.47 0.0763 0.415 0.41375 0.63625 0.8825 0.79625 0.46625 0.16 1.1825 0.31 1.5312 0.405 0.3775 0.0987 0.98875 0.14 0.8875 0.3675-0.0738 0.165-0.1625 0.25625-0.53125 0.24875-0.425-0.01-2.33-4e-3 -2.7 0-0.415 4e-3 -0.61625 0.35875-0.77625 0.96875-0.0988 0.37125-0.0163 0.37375 0.34 0.37375h2.9075c0.53875 0 1.045-0.12375 1.38-0.32375 0.22625-0.135 0.77625-0.4675 0.97375-1.2212 0.25375-0.9575-0.0825-1.17-0.4925-1.425" fill="#231f1f"/>
  <path id="path66772" d="m375.84 449.57 1.275 1.2588 1.2662-1.2612-2.5412 2e-3z" fill="#6c6f74"/>
  <path id="path66776" d="m376.54 453.88-1.275 1.255 2.5575-2e-3 -1.2825-1.2525z" fill="#6c6f74"/>
  <g id="g4248" transform="translate(17.937)" fill="#e32b23">
   <path id="path72756" d="m362.14 459.97c0.0718 0 0.13921-0.0145 0.20183-0.0424 0.0621-0.0284 0.11609-0.0674 0.16136-0.11656 0.0458-0.0491 0.0814-0.10501 0.1079-0.16763 0.0265-0.0621 0.04-0.12765 0.04-0.19556 0-0.13632-0.0487-0.25626-0.14499-0.36078-0.0963-0.10357-0.2182-0.15607-0.36608-0.15607h-0.40846v1.039h0.40846zm-1.3169-1.8901h1.328c0.19701 0 0.37957 0.0361 0.54816 0.1079 0.16811 0.0718 0.31406 0.16907 0.43689 0.29238 0.12331 0.12283 0.21964 0.26734 0.28949 0.434 0.0703 0.16666 0.10501 0.3444 0.10501 0.53371 0 0.1893-0.0347 0.36704-0.10501 0.53322-0.0698 0.16666-0.16618 0.31165-0.28949 0.43448-0.12283 0.12283-0.26878 0.22061-0.43689 0.29238-0.16859 0.0718-0.35115 0.1079-0.54816 0.1079h-0.41954v1.2943h-0.90846v-4.0302z"/>
   <path id="path72760" d="m365.86 461.28c0.16281 0 0.31406-0.0313 0.45423-0.0939 0.13968-0.0621 0.26107-0.14739 0.36319-0.25529 0.10211-0.10741 0.18255-0.23362 0.24132-0.37716 0.0583-0.14402 0.0877-0.2972 0.0877-0.46001 0-0.1628-0.0294-0.31598-0.0877-0.45952-0.0588-0.14403-0.13921-0.26975-0.24132-0.37764-0.10212-0.1079-0.22351-0.19316-0.36319-0.25529-0.14017-0.0626-0.29142-0.0939-0.45423-0.0939s-0.31406 0.0313-0.45423 0.0939c-0.14017 0.0621-0.26107 0.14739-0.36319 0.25529-0.10212 0.10789-0.18256 0.23361-0.24132 0.37764-0.0588 0.14354-0.0881 0.29672-0.0881 0.45952 0 0.16281 0.0294 0.31599 0.0881 0.46001 0.0588 0.14354 0.1392 0.26975 0.24132 0.37716 0.10212 0.1079 0.22302 0.19316 0.36319 0.25529 0.14017 0.0626 0.29142 0.0939 0.45423 0.0939m0 0.87378c-0.28371 0-0.55057-0.0535-0.80056-0.16137-0.24951-0.10789-0.4682-0.25577-0.65557-0.44266-0.1869-0.18738-0.33477-0.40606-0.44267-0.65558-0.1079-0.24999-0.16185-0.51684-0.16185-0.80056 0-0.28371 0.0539-0.55056 0.16185-0.80055 0.1079-0.24952 0.25577-0.4682 0.44267-0.65509 0.18737-0.18738 0.40606-0.33526 0.65557-0.44315 0.24999-0.1079 0.51685-0.16185 0.80056-0.16185s0.55056 0.0539 0.80056 0.16185c0.24951 0.10789 0.46819 0.25577 0.65509 0.44315 0.18737 0.18689 0.33525 0.40557 0.44315 0.65509 0.10741 0.24999 0.16184 0.51684 0.16184 0.80055 0 0.28372-0.0544 0.55057-0.16184 0.80056-0.1079 0.24952-0.25578 0.4682-0.44315 0.65558-0.1869 0.18689-0.40558 0.33477-0.65509 0.44266-0.25 0.1079-0.51685 0.16137-0.80056 0.16137"/>
   <path id="path72764" d="m369.81 459.97c0.0718 0 0.13921-0.0145 0.20183-0.0424 0.0621-0.0284 0.11608-0.0674 0.16136-0.11656 0.0458-0.0491 0.0814-0.10501 0.1079-0.16763 0.0265-0.0621 0.04-0.12765 0.04-0.19556 0-0.13632-0.0487-0.25626-0.14499-0.36078-0.0963-0.10357-0.21868-0.15607-0.36608-0.15607h-0.40847v1.039h0.40847zm-1.3169-1.8901h1.328c0.19701 0 0.37957 0.0361 0.54816 0.1079 0.1681 0.0718 0.31405 0.16907 0.43688 0.29238 0.12332 0.12283 0.21965 0.26734 0.2895 0.434 0.0698 0.16666 0.105 0.3444 0.105 0.53371 0 0.1893-0.0352 0.36704-0.105 0.53322-0.0698 0.16666-0.16618 0.31165-0.2895 0.43448-0.12283 0.12283-0.26878 0.22061-0.43688 0.29238-0.16859 0.0718-0.35115 0.1079-0.54816 0.1079h-0.41955v1.2943h-0.90845v-4.0302z"/>
   <path id="path72766" d="m371.52 460.1h1.6117v0.81742h-1.6117v-0.81742z"/>
   <path id="path72770" d="m375.37 462.15c-0.24228 0-0.46434-0.04-0.66713-0.11898-0.20231-0.0795-0.37619-0.19315-0.52166-0.34055-0.14595-0.14787-0.25963-0.32417-0.34103-0.53081-0.0814-0.20616-0.12187-0.43593-0.12187-0.68977v-2.3954h0.90797v2.407c0 0.24566 0.0684 0.43977 0.20424 0.58139 0.13631 0.1421 0.31598 0.21339 0.53948 0.21339 0.22302 0 0.40317-0.0713 0.53901-0.21339 0.13632-0.14162 0.20471-0.33573 0.20471-0.58139v-2.407h0.90798v2.3954c0 0.25384-0.0405 0.48361-0.12187 0.68977-0.0819 0.20664-0.19508 0.38294-0.34103 0.53081-0.14547 0.1474-0.31936 0.26108-0.52166 0.34055-0.20231 0.079-0.42485 0.11898-0.66714 0.11898"/>
   <path id="path72774" d="m379.06 459.97c0.0722 0 0.1392-0.0145 0.20134-0.0424 0.0631-0.0284 0.11657-0.0674 0.16233-0.11656 0.0453-0.0491 0.0814-0.10501 0.10741-0.16763 0.0265-0.0621 0.04-0.12765 0.04-0.19556 0-0.13632-0.0482-0.25626-0.14498-0.36078-0.0963-0.10357-0.21821-0.15607-0.36608-0.15607h-0.40895v1.039h0.40895zm-1.3169-1.8901h1.3285c0.197 0 0.37908 0.0361 0.54719 0.1079 0.16907 0.0718 0.31454 0.16907 0.43785 0.29238 0.12283 0.12283 0.21917 0.26734 0.28901 0.434 0.0703 0.16666 0.10549 0.3444 0.10549 0.53371 0 0.1893-0.0352 0.36704-0.10549 0.53322-0.0698 0.16666-0.16618 0.31165-0.28901 0.43448-0.12331 0.12283-0.26878 0.22061-0.43785 0.29238-0.16811 0.0718-0.35019 0.1079-0.54719 0.1079h-0.42051v1.2943h-0.90798v-4.0302z"/>
  </g>
 </g>
</svg>
