<svg height="6.432409mm" viewBox="0 0 92.613124 22.792" width="26.137482mm" xmlns="http://www.w3.org/2000/svg" xmlns:xlink="http://www.w3.org/1999/xlink"><clipPath id="a"><path d="m211.635 579.373h82.8v24.803h-82.8z"/></clipPath><g clip-path="url(#a)" transform="matrix(1.25 0 0 -1.25 -269.986622 751.11425)"><g transform="translate(226.4163 596.9398)"><path d="m0 0-.55.55.887.887.55-.55zm1.987 1.987-.55-.55-.55.55h-1.1l-.887-.887.222.887h-2.741c-.353-.001-.667-.283-.667-.638 0-.169.067-.323.173-.438l.528-.522c.036-.037.053-.081.053-.117 0-.087-.052-.154-.189-.154h-1.112l-.168-.668h1.858c.353 0 .67.279.67.635 0 .168-.067.324-.174.438l-.535.53c-.03.03-.046.072-.046.109 0 .087.058.157.163.157h1.132l-.466-1.869h.888l.192.769.769-.769h1.1l2.536 2.537zm5.799 1.945v-18.213h-18.213v18.213l9.107-9.106z" fill="#fab215"/></g><g transform="translate(240.274 600.8914)"><path d="m0 0 4.132-4.144 4.133 4.144v-8.381h-1.868v4.062l-2.265-2.264-2.265 2.264v-4.062h-1.867z" fill="#fab215"/></g><g transform="translate(255.8449 596.6541)"><path d="m0 0c0 1.331-1.016 2.44-2.358 2.44s-2.358-1.109-2.358-2.44 1.016-2.44 2.358-2.44 2.358 1.109 2.358 2.44m-6.595 0c0 2.335 1.902 4.237 4.237 4.237s4.238-1.902 4.238-4.237-1.903-4.237-4.238-4.237-4.237 1.902-4.237 4.237" fill="#fab215"/></g><g transform="translate(257.0814 600.798)"><path d="m0 0h2.078l1.833-4.144 1.832 4.144h2.079l-3.911-8.381z" fill="#fab215"/></g><path d="m265.334 600.798h1.868v-8.288h-1.868z" fill="#fab215"/><g transform="translate(268.3572 600.798)"><path d="m0 0h5.136v-1.844h-3.269v-1.401h2.569v-1.798h-2.569v-1.401h3.269v-1.844h-5.136z" fill="#fab215"/></g><g transform="translate(273.9249 594.0393)"><path d="m0 0 1.412 1.155c.362-.572.957-1.027 1.529-1.027.549 0 .794.21.794.596 0 .373-.268.607-.968.922l-.467.21c-1.249.56-1.939 1.483-1.939 2.603 0 1.448 1.203 2.393 2.522 2.393.923 0 1.623-.222 2.323-1.039l-1.261-1.331c-.42.514-.677.619-1.062.619-.315 0-.642-.198-.642-.572 0-.432.361-.665 1.12-1.004l.445-.198c1.143-.514 1.808-1.342 1.808-2.487 0-1.494-1.096-2.462-2.638-2.462-1.33 0-2.404.548-2.976 1.622" fill="#fab215"/></g><g transform="translate(242.9821 587.0586)"><path d="m0 0c .607 0 1.051.514 1.051 1.075 0 .56-.444 1.061-1.051 1.061h-.841v-2.136zm-2.708 3.887h2.731c1.623 0 2.837-1.26 2.837-2.812 0-1.554-1.214-2.814-2.837-2.814h-.864v-2.661h-1.867z" fill="#fab215"/></g><g transform="translate(249.4599 587.5958)"><path d="m0 0c .502 0 .864.361.864.817 0 .455-.362.829-.864.829h-1.051v-1.646zm-1.051-4.938h-1.867v8.288h3.128c1.355 0 2.463-1.109 2.463-2.463 0-1.028-.63-1.938-1.587-2.299l2.685-3.526h-2.23l-2.568 3.362h-.024z" fill="#fab215"/></g><g transform="translate(253.3703 590.9456)"><path d="m0 0h5.136v-1.844h-3.269v-1.401h2.569v-1.797h-2.569v-1.402h3.269v-1.843h-5.136z" fill="#fab215"/></g><g transform="translate(259.5209 591.0393)"><path d="m0 0 4.133-4.144 4.132 4.144v-8.381h-1.868v4.062l-2.264-2.264-2.265 2.264v-4.062h-1.868z" fill="#fab215"/></g><path d="m268.941 590.946h1.868v-8.287h-1.868z" fill="#fab215"/><g transform="translate(271.9637 590.9456)"><path d="m0 0h5.136v-1.844h-3.268v-1.401h2.568v-1.797h-2.568v-1.402h3.268v-1.843h-5.136z" fill="#fab215"/></g><g transform="translate(281.0334 587.5958)"><path d="m0 0c .502 0 .864.361.864.817 0 .455-.362.829-.864.829h-1.051v-1.646zm-1.051-4.938h-1.867v8.288h3.128c1.355 0 2.463-1.109 2.463-2.463 0-1.028-.63-1.938-1.587-2.299l2.685-3.526h-2.23l-2.568 3.362h-.024z" fill="#fab215"/></g><g transform="translate(284.9438 590.9456)"><path d="m0 0h5.136v-1.844h-3.269v-1.401h2.569v-1.797h-2.569v-1.402h3.269v-1.843h-5.136z" fill="#fab215"/></g></g></svg>