<?xml version="1.0" encoding="UTF-8" standalone="no"?>
<!-- Created with Inkscape (http://www.inkscape.org/) -->

<svg
   xmlns:dc="http://purl.org/dc/elements/1.1/"
   xmlns:cc="http://creativecommons.org/ns#"
   xmlns:rdf="http://www.w3.org/1999/02/22-rdf-syntax-ns#"
   xmlns:svg="http://www.w3.org/2000/svg"
   xmlns="http://www.w3.org/2000/svg"
   xmlns:sodipodi="http://sodipodi.sourceforge.net/DTD/sodipodi-0.dtd"
   xmlns:inkscape="http://www.inkscape.org/namespaces/inkscape"
   id="svg2"
   version="1.1"
   inkscape:version="0.91 r13725"
   xml:space="preserve"
   width="249.99998"
   height="125.01382"
   viewBox="0 0 249.99997 125.01382"
   sodipodi:docname="Sky.svg"><defs
     id="defs7" /><metadata
     id="metadata8"><rdf:RDF><cc:Work
         rdf:about=""><dc:format>image/svg+xml</dc:format><dc:type
           rdf:resource="http://purl.org/dc/dcmitype/StillImage" /><dc:title /></cc:Work></rdf:RDF></metadata><sodipodi:namedview
     pagecolor="#ffffff"
     bordercolor="#666666"
     borderopacity="1"
     objecttolerance="10"
     gridtolerance="10"
     guidetolerance="10"
     inkscape:pageopacity="0"
     inkscape:pageshadow="2"
     inkscape:window-width="1920"
     inkscape:window-height="1017"
     id="namedview4"
     showgrid="false"
     inkscape:zoom="8.0000002"
     inkscape:cx="124.16082"
     inkscape:cy="74.155595"
     inkscape:window-x="-8"
     inkscape:window-y="-8"
     inkscape:window-maximized="1"
     inkscape:current-layer="g10"
     fit-margin-top="0"
     fit-margin-left="0"
     fit-margin-right="0"
     fit-margin-bottom="0" /><g
     id="g10"
     inkscape:groupmode="layer"
     inkscape:label="Get_the_most_out_of_your_sky"
     transform="matrix(1.25,0,0,-1.25,-157.95417,774.07789)"><rect
       style="fill:#ffffff;fill-opacity:1;stroke:#ffffff;stroke-width:0.80000001;stroke-opacity:1"
       id="rect4134"
       width="95.000008"
       height="30.600025"
       x="180.06332"
       y="-600.85126"
       transform="scale(1,-1)"
       ry="0" /><path
       sodipodi:nodetypes="cccccccccscccsccscccscccccccccccccccc"
       inkscape:connector-curvature="0"
       id="path52"
       style="fill:#00babe;fill-opacity:1;fill-rule:nonzero;stroke:none"
       d="m 223.4571,561.2707 19.251,19.252 -8.347,0 -4.173,-4.174 -4.173,4.174 -8.347,0 -6.732,-6.732 1.678,6.732 -20.796,0 c -2.681,-0.003 -5.066,-2.145 -5.066,-4.838 0,-1.285 0.507,-2.457 1.312,-3.326 l 4.011,-3.964 c 0.27,-0.278 0.4,-0.611 0.396,-0.888 0.004,-0.661 -0.389,-1.168 -1.429,-1.168 l -8.445,0 -1.272,-5.068 14.102,0 c 2.681,0 5.083,2.119 5.086,4.814 -0.003,1.283 -0.507,2.461 -1.321,3.326 l -4.06,4.022 c -0.225,0.23 -0.352,0.552 -0.352,0.83 0,0.662 0.444,1.195 1.24,1.191 l 8.593,10e-4 -3.535,-14.184 6.737,0 1.455,5.838 5.839,-5.838 z m 54.90524,34.00452 -69.09124,-69.09952 -69.09252,69.09952 z m -56.52124,-18.92652 4.174,-4.174 -6.732,-6.731 -4.174,4.173 z"
       transform="matrix(1.447348,0,0,1.447348,-76.523854,-242.30809)" /></g></svg>