<?xml version="1.0" encoding="UTF-8"?>
<!-- Created with Inkscape (http://www.inkscape.org/) -->
<svg id="svg78926" width="13.35mm" height="10.365mm" version="1.1" viewBox="0 0 47.302 36.725" xmlns="http://www.w3.org/2000/svg" xmlns:cc="http://creativecommons.org/ns#" xmlns:dc="http://purl.org/dc/elements/1.1/" xmlns:rdf="http://www.w3.org/1999/02/22-rdf-syntax-ns#">
 <defs id="defs78928">
  <clipPath id="clipPath66766">
   <path id="path66768" d="m121.98 495.75h82.8v31.039h-82.8v-31.039z"/>
  </clipPath>
  <clipPath id="clipPath66750">
   <path id="path66752" d="m144.45 496.58h37.842v29.38h-37.842v-29.38z"/>
  </clipPath>
  <clipPath id="clipPath66710">
   <path id="path66712" d="m121.98 495.75h82.8v31.039h-82.8v-31.039z"/>
  </clipPath>
 </defs>
 <metadata id="metadata78931">
  <rdf:RDF>
   <cc:Work rdf:about="">
    <dc:format>image/svg+xml</dc:format>
    <dc:type rdf:resource="http://purl.org/dc/dcmitype/StillImage"/>
    <dc:title/>
   </cc:Work>
  </rdf:RDF>
 </metadata>
 <g id="layer1" transform="translate(-364.92 -425.43)">
  <g id="g66706" transform="matrix(1.25 0 0 -1.25 184.35 1082.9)">
   <g id="g66708" clip-path="url(#clipPath66710)">
    <g id="g66714" transform="translate(159.48 499.73)">
     <path id="path66716" d="m0 0-0.363-2.998c-0.012-0.089-0.06-0.134-0.143-0.134h-0.251c-0.084 0-0.125 0.039-0.125 0.118l-4e-3 0.021 0.198 1.556-0.752-1.591c-0.035-0.069-0.084-0.104-0.147-0.104h-0.394c-0.075 0-0.12 0.034-0.134 0.103l-0.353 1.575-0.189-1.544c-0.011-0.089-0.061-0.134-0.148-0.134h-0.248c-0.087 0-0.129 0.039-0.126 0.118 3e-3 5e-3 4e-3 0.012 4e-3 0.021l0.368 3.002c0.011 0.086 0.062 0.129 0.151 0.129h0.241c0.067 0 0.113-0.036 0.139-0.108l0.576-2.423 1.186 2.427c0.026 0.07 0.076 0.104 0.151 0.104h0.242c0.084 0 0.125-0.033 0.125-0.099 0-0.012-1e-3 -0.025-4e-3 -0.039" fill="#e32b23"/>
    </g>
    <g id="g66718" transform="translate(160.43 499.3)">
     <path id="path66720" d="m0 0-0.078-0.089c-3e-3 -0.021-7e-3 -0.057-0.013-0.107h1e-3l-0.218-1.765c3e-3 -0.059 4e-3 -0.092 4e-3 -0.101 0.021-0.114 0.081-0.172 0.182-0.172h0.663c0.069 0 0.128 0.028 0.178 0.084 0.049 0.055 0.078 0.12 0.086 0.193l0.221 1.803c3e-3 0.064-0.013 0.119-0.046 0.167s-0.082 0.072-0.146 0.072h-0.66c-0.067 0-0.125-0.028-0.174-0.085m-0.172-2.723c-0.202 0-0.367 0.065-0.496 0.193-0.128 0.128-0.189 0.293-0.183 0.495 2e-3 0.018 5e-3 0.045 8e-3 0.083l0.212 1.76c0.026 0.22 0.12 0.403 0.283 0.548s0.354 0.217 0.573 0.217h0.658c0.225 0 0.401-0.072 0.528-0.216 0.101-0.116 0.151-0.271 0.151-0.468v-0.082l-0.216-1.763c-0.026-0.219-0.12-0.402-0.281-0.548-0.162-0.146-0.354-0.219-0.576-0.219h-0.661z" fill="#e32b23"/>
    </g>
    <g id="g66722" transform="translate(163.15 496.58)">
     <path id="path66724" d="m0 0c-0.401 0-0.702 0.043-0.904 0.13-0.063 0.026-0.094 0.072-0.091 0.138 0 0.015 2e-3 0.028 4e-3 0.039l0.026 0.139c0.021 0.115 0.077 0.171 0.169 0.168 0.02 0 0.039-3e-3 0.056-8e-3 0.182-0.052 0.453-0.078 0.814-0.078 0.144 0 0.269 0.041 0.376 0.123 0.106 0.082 0.173 0.193 0.199 0.332v0.034c0 0.064-0.039 0.126-0.117 0.187-0.026 0.02-0.137 0.079-0.333 0.177-0.337 0.171-0.545 0.288-0.623 0.351-0.147 0.124-0.221 0.279-0.221 0.464 0 0.332 0.142 0.61 0.424 0.836 0.225 0.176 0.488 0.264 0.788 0.264 0.392 0 0.687-0.044 0.886-0.131 0.061-0.026 0.091-0.072 0.091-0.139 0-0.012-1e-3 -0.023-4e-3 -0.035l-0.022-0.144c-0.017-0.113-0.076-0.168-0.177-0.165-0.012 3e-3 -0.029 6e-3 -0.052 9e-3 -0.199 0.057-0.464 0.086-0.796 0.086-0.147 0-0.274-0.041-0.38-0.123-0.107-0.083-0.172-0.196-0.195-0.341v-0.03c0-0.063 0.037-0.126 0.112-0.186 0.026-0.02 0.14-0.078 0.342-0.173 0.297-0.139 0.5-0.256 0.61-0.351 0.153-0.133 0.229-0.291 0.229-0.473v-0.129c-0.055-0.292-0.195-0.527-0.422-0.705-0.226-0.177-0.488-0.266-0.785-0.266h-4e-3z" fill="#e32b23"/>
    </g>
    <g id="g66726" transform="translate(165.4 497.96)">
     <path id="path66728" d="m0 0h0.628l-0.184 1.042-0.444-1.042zm0.994-1.376c-0.087 0-0.135 0.039-0.143 0.117h3e-3l-0.14 0.77h-0.92l-0.329-0.769c-0.035-0.078-0.086-0.118-0.155-0.118h-0.259c-0.089 0-0.132 0.039-0.129 0.117 0 6e-3 1e-3 0.01 4e-3 0.013 3e-3 0.02 7e-3 0.035 0.013 0.043l1.268 3.007c0.031 0.078 0.087 0.116 0.168 0.116h0.342c0.081 0 0.128-0.039 0.142-0.117l0.528-2.997c9e-3 -0.017 0.013-0.032 0.013-0.043v-9e-3c0-0.086-0.047-0.13-0.142-0.13h-0.264z" fill="#e32b23"/>
    </g>
    <g id="g66730" transform="translate(166.9 496.58)">
     <path id="path66732" d="m0 0c-0.092 0-0.137 0.043-0.134 0.129v0.021l0.026 0.202c0.011 0.091 0.065 0.137 0.16 0.137h0.125l0.29 2.318h-0.123c-0.094 0-0.139 0.042-0.136 0.125v0.017l0.025 0.206c0.012 0.094 0.067 0.141 0.165 0.141h0.783c0.089 0 0.134-0.043 0.134-0.129-3e-3 -2e-3 -4e-3 -8e-3 -4e-3 -0.017l-0.026-0.205c-0.012-0.092-0.063-0.138-0.154-0.138h-0.128l-0.285-2.318h0.121c0.089 0 0.134-0.043 0.134-0.129-3e-3 -3e-3 -4e-3 -8e-3 -4e-3 -0.017l-0.022-0.202c-0.011-0.094-0.062-0.141-0.151-0.141h-0.796z" fill="#e32b23"/>
    </g>
    <g id="g66734" transform="translate(168.99 496.58)">
     <path id="path66736" d="m0 0c-0.205 0-0.371 0.064-0.498 0.19-0.126 0.127-0.187 0.293-0.181 0.498 0 6e-3 3e-3 0.032 8e-3 0.078l0.212 1.76c0.026 0.22 0.12 0.404 0.282 0.55 0.161 0.147 0.353 0.22 0.575 0.22h0.549c0.205 0 0.371-0.064 0.498-0.191 0.115-0.119 0.173-0.286 0.173-0.501v-0.082l-0.022-0.177c-0.012-0.096-0.065-0.143-0.16-0.143h-0.251c-0.086 0-0.13 0.044-0.13 0.134 0 9e-3 3e-3 0.014 9e-3 0.017h-3e-3l0.022 0.177c0 0.185-0.064 0.277-0.191 0.277h-0.546c-0.067 0-0.125-0.029-0.176-0.087-0.05-0.058-0.08-0.122-0.088-0.194l-0.217-1.765 1e-3 -0.03c-3e-3 -0.062 0.012-0.118 0.045-0.167 0.033-0.05 0.08-0.075 0.141-0.075h0.549c0.063 0 0.122 0.029 0.175 0.088 0.054 0.058 0.085 0.121 0.093 0.189l-3e-3 -1e-3 0.022 0.186c0.012 0.096 0.063 0.143 0.156 0.143h0.245c0.089 0 0.134-0.043 0.134-0.129v-0.022l-0.022-0.182c-0.026-0.219-0.118-0.401-0.276-0.545-0.159-0.144-0.349-0.216-0.571-0.216h-0.554z" fill="#e32b23"/>
    </g>
    <g id="g66738" transform="translate(172.09 517.4)">
     <path id="path66740" d="m0 0c0-4.731-3.835-8.565-8.565-8.565-4.731 0-8.565 3.834-8.565 8.565 0 4.73 3.834 8.565 8.565 8.565 4.73 0 8.565-3.835 8.565-8.565" fill="#161412"/>
    </g>
    <g id="g66742" transform="translate(168.49 520.02)">
     <path id="path66744" d="m0 0c-1.847-1.577-2.503-1.627-5.185 0.068l-9e-3 -0.016c2.039-2.004 2.088-3.677-0.018-5.58l0.012-0.014c2.143 1.401 3.223 1.819 5.118 0.18l8e-3 0.014c-1.19 1.836-1.188 3.383 0.085 5.333l-0.011 0.015z" fill="#ddd"/>
    </g>
   </g>
  </g>
  <g id="g66746" transform="matrix(1.25 0 0 -1.25 184.35 1082.9)">
   <g id="g66748" clip-path="url(#clipPath66750)">
    <g id="g66754" transform="translate(158.91 523.21)">
     <path id="path66756" d="m0 0c0.239 5e-3 0.499-0.019 1.047-0.099 0.634-0.095 2.834-0.896 4.468-1.92 0.831-0.522 1.284-0.633 1.628-0.633 0.234 0 0.597 0.187 1.446 0.968 0.832 0.764 0.933 0.918 1.05 1.119 0.042 0.072 0.07 0.113 0.087 0.14-1.331 1.263-3.128 2.039-5.107 2.039-1.747 0-3.352-0.605-4.619-1.614m8.752-10.329c-0.307 0.355-1.031 1.006-1.718 1.043-0.688 0.037-1.135-0.4-2.315-0.969-1.394-0.67-2.569-1.005-3.075-1.155-0.441-0.129-1.157-0.246-1.598-0.249 1.261-0.987 2.847-1.578 4.573-1.578 1.937 0 3.701 0.744 5.024 1.959-0.13 0.202-0.612 0.627-0.891 0.949m3.291 4.517c0 1.472-0.429 2.841-1.166 3.995 0.065-0.237 0.076-0.448 0.045-0.743-0.091-0.876-0.38-1.733-0.542-2.16-0.164-0.43-0.361-1.063-0.344-1.343 0.018-0.279 0.073-0.335 0.146-0.671 0.071-0.335 0.668-1.508 0.704-2.477 0.014-0.348-6e-3 -0.5-0.053-0.663 0.764 1.167 1.21 2.562 1.21 4.062m-8.663-1.463c0.419 0.534 0.615 0.709 0.615 1.175 0 0.465-0.053 0.559-0.795 1.51-1.196 1.53-2.786 3.391-3.619 3.708-0.194 0.074-0.298 0.114-0.401 0.122-1.232-1.324-1.986-3.1-1.986-5.052 0-1.943 0.748-3.711 1.971-5.035 0.036-2e-3 0.075-5e-3 0.11-5e-3 0.216 0 0.299 0.066 0.524 0.169 0.705 0.315 2.966 2.627 3.581 3.408" fill="#e32b23"/>
    </g>
    <g id="g66758" transform="translate(182.14 506.6)">
     <path id="path66760" d="m0 0h-1.816l0.423 1.603c0.049 0.184-0.01 0.263-0.201 0.263h-0.769c-0.189 0-0.385-0.151-0.433-0.335l-1.26-4.736c-3e-3 -0.012-3e-3 -0.022-3e-3 -0.03l-3e-3 -2e-3c-0.015-0.083-0.012-0.099-0.012-0.173 0-0.386 0.197-0.57 0.292-0.66 0.18-0.167 0.516-0.263 0.922-0.263h1.168l0.488 1e-3 0.157 2e-3c0.088 2e-3 0.311 0.371 0.39 0.687 0.024 0.102 0.042 0.202 0.045 0.292l1e-3 0.01c0 0.024-7e-3 0.044-0.02 0.058-0.02 0.022-0.047 0.026-0.287 0.026h-1.764l5e-3 0.013 0.583 2.189h1.803c0.127 0 0.302 0.274 0.391 0.613 0.029 0.106 0.045 0.206 0.05 0.292h2e-3c6e-3 0.086-0.057 0.15-0.152 0.15m-14.887-1.255-0.484-1.832c-0.043-0.181-0.084-0.198-0.424-0.198-0.201 0-1.091 1e-3 -1.729 1e-3l0.587 2.225c0.638 1e-3 1.528 3e-3 1.73 3e-3 0.34 0 0.372-0.018 0.32-0.199m1.106 1.013c-0.183 0.159-0.535 0.26-0.966 0.26h-0.155c-0.043 4e-3 -0.078 6e-3 -0.096 6e-3h-1.962-0.73c-0.022 0-0.042-3e-3 -0.062-7e-3 -0.201-2e-3 -0.27-0.027-0.334-0.236-0.016-0.03-0.031-0.061-0.039-0.093l-1.423-5.392c-0.049-0.184 0.105-0.192 0.295-0.192h0.693c0.19 0 0.385 0.15 0.434 0.336l0.317 1.201h1.906c0.431 0 0.836 0.099 1.104 0.259 0.181 0.108 0.62 0.374 0.78 0.977l0.502 1.904c0.159 0.604-0.14 0.869-0.264 0.977m10.001 0.131h1e-3c6e-3 0.086-0.055 0.15-0.15 0.15h-0.179v1e-3h-1.562c-0.432 0-0.837-0.1-1.106-0.26-0.179-0.108-0.62-0.374-0.778-0.977l-7e-3 -0.022-0.082-0.309v-1e-3l-0.69-2.618c-0.05-0.185 0.104-0.192 0.295-0.192h0.692c0.19 0 0.386 0.151 0.434 0.335l0.727 2.749c0.043 0.181 0.084 0.199 0.425 0.199 0.071 0 0.213 0 0.396-2e-3h0.968v3e-3h0.165c0.127 0 0.312 0.312 0.401 0.651 0.029 0.106 0.045 0.205 0.05 0.293m-5.738-1.144-0.483-1.832c-0.043-0.181-0.085-0.198-0.425-0.198-0.073 0-0.845 2e-3 -1.016 1e-3 -0.182-1e-3 -0.325-1e-3 -0.398-1e-3 -0.34 0-0.371 0.017-0.32 0.198l0.484 1.832c0.045 0.181 0.084 0.199 0.425 0.199 0.072 0 0.138 0 0.321-2e-3 0.17-1e-3 1.019 2e-3 1.091 2e-3 0.34 0 0.373-0.018 0.321-0.199m1.377 0.058c0.159 0.603-0.14 0.869-0.266 0.977-0.183 0.16-0.535 0.26-0.966 0.26h-1.766c-0.43 0-0.836-0.1-1.103-0.26-0.181-0.108-0.62-0.374-0.779-0.977l-6e-3 -0.022h-1e-3l-0.503-1.904c-0.159-0.603 0.14-0.869 0.265-0.977 0.184-0.16 0.536-0.259 0.966-0.259h1.767c0.43 0 0.836 0.099 1.103 0.259 0.181 0.108 0.621 0.374 0.78 0.977l0.311 1.178 0.198 0.748zm-16.66 1.234-1.061-1.021-1.061 1.021h-0.014l-0.99-0.984 1.051-1.011-1.51-1.452 1.006-0.982 4.607 4.429h-2.028zm-3.145-0.983-0.997 0.983h-8e-3l-1.478-1.421 0.384 1.421h-5.075c-0.656 0-1.236-0.491-1.236-1.111 0-0.296 0.122-0.567 0.32-0.766l0.978-0.911c0.064-0.065 0.098-0.142 0.098-0.206 0-0.151-0.097-0.27-0.35-0.27h-2.062l-0.319-1.165h3.448c0.656 0 1.24 0.488 1.241 1.107 0 0.296-0.122 0.567-0.32 0.766l-0.99 0.926c-0.055 0.053-0.086 0.127-0.086 0.191 0 0.152 0.108 0.268 0.302 0.268h2.094l-0.872-3.258h1.639l0.373 1.396 1.455-1.396h7e-3l0.998 0.982-1.053 1.012 1.509 1.452zm8.154-1.037c-0.312 0.193-1.256 0.358-1.631 0.449-0.258 0.062-0.57 0.105-0.505 0.278 0.047 0.126 0.233 0.197 0.52 0.2 0.25 0 1.84-2e-3 2.112 0 0.151 0 0.363 0.132 0.521 0.733 0.085 0.323-0.036 0.325-0.222 0.325h-2.759c-0.43 0-0.822-0.251-1.134-0.657-0.311-0.408-0.475-0.897-0.424-1.176 0.061-0.332 0.331-0.509 0.706-0.637 0.373-0.128 0.946-0.248 1.225-0.324 0.302-0.079 0.791-0.112 0.71-0.294-0.059-0.132-0.13-0.205-0.425-0.199-0.34 8e-3 -1.864 3e-3 -2.16 0-0.332-3e-3 -0.493-0.287-0.621-0.775-0.079-0.297-0.013-0.299 0.272-0.299h2.326c0.431 0 0.836 0.099 1.104 0.259 0.181 0.108 0.621 0.374 0.779 0.977 0.203 0.766-0.066 0.936-0.394 1.14" fill="#231f1f"/>
    </g>
   </g>
  </g>
  <g id="g66762" transform="matrix(1.25 0 0 -1.25 184.35 1082.9)">
   <g id="g66764" clip-path="url(#clipPath66766)">
    <g id="g66770" transform="translate(153.19 506.65)">
     <path id="path66772" d="M 0,0 1.02,-1.007 2.033,0.002 0,0 Z" fill="#6c6f74"/>
    </g>
    <g id="g66774" transform="translate(153.75 503.2)">
     <path id="path66776" d="M 0,0 -1.02,-1.004 1.026,-1.002 0,0 Z" fill="#6c6f74"/>
    </g>
   </g>
  </g>
 </g>
</svg>
