<svg width="23.338mm" height="6.7302mm" version="1.1" viewBox="0 0 82.692 23.847" xmlns="http://www.w3.org/2000/svg">
 <defs>
  <clipPath id="a">
   <path d="m480.61 579.37h82.8v24.803h-82.8v-24.803z"/>
  </clipPath>
 </defs>
 <g transform="translate(-324.37 -506.15)">
  <g transform="matrix(1.25 0 0 -1.25 -286.8 1257.8)">
   <g clip-path="url(#a)">
    <g transform="translate(499.79 597.2)">
     <path d="m8.105 4.093v-18.959h-18.959v18.959l9.48-9.479z" fill="#e9128c"/>
    </g>
    <g transform="translate(514.22 601.31)">
     <path d="m0 0 4.301-4.314 4.302 4.314v-8.725h-1.944v4.229l-2.358-2.357-2.357 2.357v-4.229h-1.944v8.725z" fill="#e9128c"/>
    </g>
    <g transform="translate(530.43 596.9)">
     <path d="m0 0c0 1.385-1.057 2.539-2.455 2.539s-2.455-1.154-2.455-2.539c0-1.386 1.057-2.54 2.455-2.54s2.455 1.154 2.455 2.54m-6.866 0c0 2.43 1.98 4.411 4.411 4.411s4.411-1.981 4.411-4.411c0-2.431-1.98-4.411-4.411-4.411s-4.411 1.98-4.411 4.411" fill="#e9128c"/>
    </g>
    <g transform="translate(531.71 601.22)">
     <path d="M 0,0 2.162,0 4.07,-4.314 5.978,0 8.141,0 4.07,-8.725 0,0 Z" fill="#e9128c"/>
    </g>
    <path d="m540.3 601.22h1.944v-8.628h-1.944v8.628z" fill="#e9128c"/>
    <g transform="translate(543.45 601.22)">
     <path d="m0 0h5.346v-1.92h-3.402v-1.459h2.673v-1.871h-2.673v-1.458h3.402v-1.92h-5.346v8.628z" fill="#e9128c"/>
    </g>
    <g transform="translate(549.25 594.18)">
     <path d="m0 0 1.47 1.203c0.377-0.596 0.997-1.069 1.592-1.069 0.571 0 0.826 0.218 0.826 0.619 0 0.389-0.279 0.632-1.008 0.96l-0.486 0.219c-1.3 0.583-2.017 1.543-2.017 2.71 0 1.507 1.251 2.491 2.624 2.491 0.96 0 1.689-0.231 2.418-1.082l-1.312-1.385c-0.437 0.535-0.705 0.644-1.106 0.644-0.327 0-0.668-0.206-0.668-0.595 0-0.45 0.377-0.693 1.167-1.046l0.461-0.206c1.191-0.535 1.884-1.397 1.884-2.588 0-1.556-1.143-2.564-2.747-2.564-1.385 0-2.502 0.571-3.098 1.689" fill="#e9128c"/>
    </g>
    <g transform="translate(513.82 586.65)">
     <path d="m0 0c0 2.431 1.981 4.411 4.411 4.411 1.482 0 2.649-0.596 3.487-1.629l-1.47-1.202c-0.522 0.655-1.094 0.959-2.017 0.959-1.398 0-2.455-1.153-2.455-2.539s1.057-2.54 2.455-2.54c0.705 0 1.239 0.122 1.665 0.425v1.204h-2.078l0.826 1.823h3.135v-3.913c-0.851-0.973-2.09-1.41-3.548-1.41-2.43 0-4.411 1.98-4.411 4.411" fill="#e9128c"/>
    </g>
    <g transform="translate(525.75 587.47)">
     <path d="m0 0c0.522 0 0.899 0.376 0.899 0.851 0 0.474-0.377 0.862-0.899 0.862h-1.094v-1.713h1.094zm-1.094-5.14h-1.944v8.627h3.256c1.41 0 2.565-1.154 2.565-2.564 0-1.069-0.657-2.017-1.654-2.393l2.795-3.67h-2.321l-2.672 3.499h-0.025v-3.499z" fill="#e9128c"/>
    </g>
    <g transform="translate(529.82 590.96)">
     <path d="m0 0h5.347v-1.919h-3.402v-1.459h2.672v-1.871h-2.672v-1.458h3.402v-1.92h-5.347v8.627z" fill="#e9128c"/>
    </g>
    <g transform="translate(540.35 585.25)">
     <path d="m0 0-0.814 1.799-0.814-1.799h1.628zm-0.814 5.809 4.253-8.725h-2.042l-0.619 1.337h-3.184l-0.62-1.337h-2.041l4.253 8.725z" fill="#e9128c"/>
    </g>
    <g transform="translate(544.56 589.04)">
     <path d="m0 0h-2.065v1.919h6.087v-1.919h-2.077v-6.707h-1.945v6.707z" fill="#e9128c"/>
    </g>
    <g transform="translate(548.65 583.93)">
     <path d="m0 0 1.471 1.203c0.376-0.596 0.996-1.07 1.592-1.07 0.57 0 0.826 0.219 0.826 0.62 0 0.389-0.28 0.632-1.009 0.96l-0.486 0.218c-1.3 0.584-2.017 1.544-2.017 2.711 0 1.506 1.252 2.49 2.625 2.49 0.96 0 1.689-0.231 2.417-1.081l-1.312-1.385c-0.437 0.535-0.705 0.643-1.105 0.643-0.328 0-0.669-0.206-0.669-0.595 0-0.449 0.377-0.692 1.167-1.045l0.462-0.207c1.19-0.534 1.883-1.397 1.883-2.588 0-1.555-1.142-2.564-2.747-2.564-1.384 0-2.502 0.572-3.098 1.69" fill="#e9128c"/>
    </g>
   </g>
  </g>
 </g>
</svg>
