<svg height="6.686338mm" viewBox="0 0 82.580253 23.69175" width="23.305983mm" xmlns="http://www.w3.org/2000/svg" xmlns:xlink="http://www.w3.org/1999/xlink"><clipPath id="a"><path d="m121.975 539.122h82.8v24.803h-82.8z"/></clipPath><g clip-path="url(#a)" transform="matrix(1.25 0 0 -1.25 -162.928501 701.2495)"><g transform="translate(141.1818 556.8912)"><path d="m0 0-.571.572.921.922.572-.572zm2.065 2.065-.571-.571-.572.571h-1.143l-.922-.921.23.921h-2.849c-.367 0-.693-.293-.693-.662 0-.176.069-.337.179-.456l.55-.543c.036-.038.054-.083.054-.121 0-.091-.054-.16-.196-.16h-1.156l-.175-.694h1.932c.367 0 .696.29.696.659 0 .176-.069.337-.181.456l-.556.55c-.03.032-.048.076-.048.114 0 .091.061.164.17.164h1.177l-.484-1.943h.922l.2.799.8-.799h1.143l2.636 2.636zm6.029 2.022v-18.932h-18.933v18.932l9.467-9.466z" fill="#231f20"/></g><g transform="translate(155.5875 560.9994)"><path d="m0 0 4.296-4.308 4.296 4.308v-8.713h-1.942v4.223l-2.354-2.354-2.355 2.354v-4.223h-1.941z" fill="#231f20"/></g><g transform="translate(171.7752 556.5945)"><path d="m0 0c0 1.383-1.056 2.536-2.452 2.536-1.395 0-2.451-1.153-2.451-2.536 0-1.384 1.056-2.536 2.451-2.536 1.396 0 2.452 1.152 2.452 2.536m-6.856 0c0 2.427 1.977 4.405 4.404 4.405 2.428 0 4.405-1.978 4.405-4.405s-1.977-4.405-4.405-4.405c-2.427 0-4.404 1.978-4.404 4.405" fill="#231f20"/></g><g transform="translate(173.0607 560.9025)"><path d="m0 0h2.16l1.905-4.308 1.905 4.308h2.16l-4.065-8.713z" fill="#231f20"/></g><path d="m181.639 560.902h1.941v-8.616h-1.941z" fill="#231f20"/><g transform="translate(184.7812 560.9025)"><path d="m0 0h5.339v-1.918h-3.398v-1.456h2.671v-1.868h-2.671v-1.457h3.398v-1.917h-5.339z" fill="#231f20"/></g><g transform="translate(190.5693 553.8766)"><path d="m0 0 1.468 1.201c.377-.595.996-1.068 1.59-1.068.57 0 .825.218.825.619 0 .388-.279.631-1.007.959l-.485.218c-1.299.582-2.015 1.541-2.015 2.706 0 1.505 1.25 2.488 2.621 2.488.959 0 1.687-.231 2.415-1.08l-1.311-1.384c-.436.534-.703.644-1.104.644-.327 0-.667-.207-.667-.595 0-.449.376-.692 1.165-1.044l.461-.206c1.189-.534 1.881-1.395 1.881-2.585 0-1.553-1.141-2.56-2.743-2.56-1.383 0-2.499.57-3.094 1.687" fill="#231f20"/></g><g transform="translate(158.4026 546.5841)"><path d="m0 0c .149 0 .289.03.419.088.129.059.241.14.335.242.095.102.169.218.224.348.055.129.083.265.083.406 0 .283-.101.532-.301.749-.2.215-.453.324-.76.324h-.848v-2.157zm-2.734 3.924h2.757c.409 0 .788-.075 1.138-.224.349-.149.652-.351.907-.607.256-.255.456-.555.601-.901.146-.346.218-.715.218-1.108s-.072-.762-.218-1.107c-.145-.346-.345-.647-.601-.902-.255-.255-.558-.458-.907-.607-.35-.149-.729-.224-1.138-.224h-.871v-2.687h-1.886z" fill="#231f20"/></g><g transform="translate(166.1215 543.8621)"><path d="m0 0c .338 0 .652.065.943.195.29.129.542.306.754.53.212.223.379.485.501.783.121.299.182.617.182.955s-.061.656-.182.954c-.122.299-.289.56-.501.784s-.464.401-.754.53c-.291.13-.605.195-.943.195s-.652-.065-.943-.195c-.291-.129-.542-.306-.754-.53s-.379-.485-.501-.784c-.122-.298-.183-.616-.183-.954s.061-.656.183-.955c.122-.298.289-.56.501-.783.212-.224.463-.401.754-.53.291-.13.605-.195.943-.195m0-1.814c-.589 0-1.143.111-1.662.335-.518.224-.972.531-1.361.919-.388.389-.695.843-.919 1.361-.224.519-.336 1.073-.336 1.662s.112 1.143.336 1.662c.224.518.531.972.919 1.36.389.389.843.696 1.361.92.519.224 1.073.336 1.662.336s1.143-.112 1.662-.336c.518-.224.972-.531 1.36-.92.389-.388.696-.842.92-1.36.223-.519.336-1.073.336-1.662s-.113-1.143-.336-1.662c-.224-.518-.531-.972-.92-1.361-.388-.388-.842-.695-1.36-.919-.519-.224-1.073-.335-1.662-.335" fill="#231f20"/></g><g transform="translate(174.323 546.5841)"><path d="m0 0c .149 0 .289.03.419.088.129.059.241.14.335.242.095.102.169.218.224.348.055.129.083.265.083.406 0 .283-.101.532-.301.749-.2.215-.454.324-.76.324h-.848v-2.157zm-2.734 3.924h2.757c.409 0 .788-.075 1.138-.224.349-.149.652-.351.907-.607.256-.255.456-.555.601-.901s.218-.715.218-1.108-.073-.762-.218-1.107c-.145-.346-.345-.647-.601-.902-.255-.255-.558-.458-.907-.607-.35-.149-.729-.224-1.138-.224h-.871v-2.687h-1.886z" fill="#231f20"/></g><path d="m177.87 546.313h3.346v-1.697h-3.346z" fill="#231f20"/><g transform="translate(185.8597 542.0476)"><path d="m0 0c-.503 0-.964.083-1.385.247-.42.165-.781.401-1.083.707-.303.307-.539.673-.708 1.102-.169.428-.253.905-.253 1.432v4.973h1.885v-4.997c0-.51.142-.913.424-1.207.283-.295.656-.443 1.12-.443.463 0 .837.148 1.119.443.283.294.425.697.425 1.207v4.997h1.885v-4.973c0-.527-.084-1.004-.253-1.432-.17-.429-.405-.795-.708-1.102-.302-.306-.663-.542-1.083-.707-.42-.164-.882-.247-1.385-.247" fill="#231f20"/></g><g transform="translate(193.519 546.5841)"><path d="m0 0c .15 0 .289.03.418.088.131.059.242.14.337.242.094.102.169.218.223.348.055.129.083.265.083.406 0 .283-.1.532-.3.749-.201.215-.454.324-.761.324h-.849v-2.157zm-2.734 3.924h2.758c.409 0 .787-.075 1.136-.224.351-.149.653-.351.909-.607.255-.255.455-.555.6-.901.146-.346.219-.715.219-1.108s-.073-.762-.219-1.107c-.145-.346-.345-.647-.6-.902-.256-.255-.558-.458-.909-.607-.349-.149-.727-.224-1.136-.224h-.873v-2.687h-1.885z" fill="#231f20"/></g></g></svg>