<?xml version="1.0" encoding="UTF-8"?>
<!-- Created with Inkscape (http://www.inkscape.org/) -->
<svg id="svg83725" width="45.979mm" height="16.649mm" version="1.1" viewBox="0 0 162.92 58.993" xmlns="http://www.w3.org/2000/svg" xmlns:cc="http://creativecommons.org/ns#" xmlns:dc="http://purl.org/dc/elements/1.1/" xmlns:rdf="http://www.w3.org/1999/02/22-rdf-syntax-ns#">
 <metadata id="metadata83730">
  <rdf:RDF>
   <cc:Work rdf:about="">
    <dc:format>image/svg+xml</dc:format>
    <dc:type rdf:resource="http://purl.org/dc/dcmitype/StillImage"/>
    <dc:title/>
   </cc:Work>
  </rdf:RDF>
 </metadata>
 <g id="layer1" transform="translate(-240.52 -355.31)">
  <path id="path72158" d="m293.35 414.31h1.471v-58.993h-1.471v58.993z" fill="#fff"/>
  <path id="path2507" d="m403.44 409.15h-101.62v-46h101.62v46z" fill="#fff"/>
  <path id="path2509" d="m389.57 369.68h5.6871v26.958h4.8216v6.8014h-10.509v-33.76z" fill="#231f20"/>
  <path id="path2515" d="m350.38 385.75c4.0798-0.24732 3.709-5.3175 3.709-5.3175-0.61816-4.9465-3.709-4.6992-3.709-4.6992v10.017zm-13.105 7.7907-1.7308-10.264-1.4836 10.264h3.2144zm-31.279 9.7693v-33.636h7.6652l2.7199 14.097 3.0908-14.097h7.4179v30.297l4.8216-30.297h7.5415l4.698 30.297v-30.174h10.014s3.4617 0.61831 5.1925 5.4411l-0.74179-5.5648h6.058l2.8435 17.436 2.9672-17.313h17.061v6.3068h-5.0689v6.9251h4.8216v7.0487h-4.698v6.4304h4.9453v6.8014h-11.003v-32.399l-5.6871 32.399h-6.7998l-3.5853-21.517s-0.61816 5.9358-3.9562 8.6563l4.3271 12.861h-5.9343l-4.2035-11.253v11.253h-11.992l-0.61816-3.2152h-4.5744l-0.98906 3.2152h-11.374v-12.366l-2.9672 12.366h-3.0908l-2.7199-12.243v12.119l-6.1816 0.12366z" fill="#231f20"/>
  <path id="path72752" d="m266.76 372.16-1.3822-1.3846 2.2294-2.2318 1.3846 1.3846-2.2318 2.2318zm4.9987-4.9987-1.3822 1.3822-1.3846-1.3822h-2.7668l-2.2318 2.2294 0.55676-2.2294h-6.8965c-0.88839 0-1.6775 0.70926-1.6775 1.6025 0 0.42604 0.16712 0.81576 0.43329 1.1038l1.3314 1.3144c0.0895 0.092 0.13071 0.20092 0.13071 0.2929 0 0.22028-0.13071 0.38731-0.47445 0.38731h-2.7983l-0.42362 1.6799h4.6767c0.88839 0 1.6848-0.70199 1.6848-1.5952 0-0.42603-0.16713-0.81576-0.43814-1.1038l-1.3459-1.3314c-0.0726-0.0775-0.1162-0.18397-0.1162-0.27596 0-0.22028 0.14776-0.39699 0.41152-0.39699h2.8491l-1.1716 4.7034h2.2318l0.48413-1.9341 1.9365 1.9341h2.7668l6.3809-6.3809h-2.7668zm14.594-4.8946v45.828h-45.83v-45.828l22.916 22.914 22.914-22.914z" fill="#fff"/>
 </g>
</svg>
