<svg id="b" width="18.939mm" height="6.1009mm" version="1.1" viewBox="0 0 67.105 21.618" xmlns="http://www.w3.org/2000/svg">
 <defs id="c">
  <clipPath id="a">
   <path id="d" d="m390.96 699.87h82.8v24.803h-82.8v-24.803z"/>
  </clipPath>
 </defs>
 <g id="e" transform="translate(-246.45 -464.41)">
  <g id="f" transform="matrix(1.25 0 0 -1.25 -260.44 1365.6)">
   <g id="g" clip-path="url(#a)">
    <g id="h" transform="translate(452.65 707.05)">
     <path id="i" d="m0 0c-1.734 0-1.965 1.711-1.965 2.983 0 1.271 0.231 2.959 1.965 2.959s1.965-1.688 1.965-2.959c0-1.272-0.231-2.983-1.965-2.983m-26.564 0c-1.734 0-1.965 1.711-1.965 2.983 0 1.271 0.231 2.959 1.965 2.959s1.965-1.688 1.965-2.959c0-1.272-0.231-2.983-1.965-2.983m26.564 9.271c-2.958 0-4.851-1.273-5.803-3.089v7.297h-5.086v-5.734h-4.763v5.734h-5.086v-7.344c-0.944 1.841-2.843 3.136-5.826 3.136-3.724 0-5.759-2.02-6.354-4.599-0.854 1.288-2.412 1.922-3.981 2.357-2.335 0.647-4.693 0.901-4.786 2.08 0 0.925 1.133 1.11 1.827 1.11 0.509 0 1.087-0.115 1.503-0.416 0.416-0.277 0.693-0.694 0.601-1.318h4.809c-0.139 4.023-3.306 5.387-6.89 5.387-3.398 0-6.658-1.641-6.658-5.456 0-3.329 2.982-4.046 5.595-4.786 2.843-0.809 3.56-1.04 3.56-1.896 0-1.225-1.271-1.503-2.103-1.503-0.949 0-2.058 0.209-2.428 1.203-0.116 0.3-0.185 0.67-0.185 1.086h-5.087c0.047-5.271 5.387-5.942 7.26-5.942 3.032 0 6.251 0.947 7.286 3.69 0.858-2.078 2.814-3.597 6.031-3.597 2.983 0 4.882 1.306 5.826 3.153v-2.853h5.086v6.543h4.763v-6.543h5.086v2.806c0.952-1.823 2.845-3.106 5.803-3.106 4.508 0 6.543 2.982 6.543 6.312 0 3.329-2.035 6.288-6.543 6.288" fill="#fff"/>
    </g>
   </g>
  </g>
 </g>
</svg>
