<?xml version="1.0" encoding="UTF-8" standalone="no"?>
<!-- Created with Inkscape (http://www.inkscape.org/) -->

<svg
   xmlns:dc="http://purl.org/dc/elements/1.1/"
   xmlns:cc="http://creativecommons.org/ns#"
   xmlns:rdf="http://www.w3.org/1999/02/22-rdf-syntax-ns#"
   xmlns:svg="http://www.w3.org/2000/svg"
   xmlns="http://www.w3.org/2000/svg"
   xmlns:sodipodi="http://sodipodi.sourceforge.net/DTD/sodipodi-0.dtd"
   xmlns:inkscape="http://www.inkscape.org/namespaces/inkscape"
   width="68.580002mm"
   height="32.817108mm"
   viewBox="0 0 243 116.28109"
   id="svg310636"
   version="1.1"
   inkscape:version="0.91 r13725"
   sodipodi:docname="SoHo Pop-Up.svg">
  <defs
     id="defs310638">
    <clipPath
       clipPathUnits="userSpaceOnUse"
       id="clipPath2692">
      <path
         d="m 390.955,699.874 82.8,0 0,24.803 -82.8,0 0,-24.803 z"
         id="path2694"
         inkscape:connector-curvature="0" />
    </clipPath>
  </defs>
  <sodipodi:namedview
     id="base"
     pagecolor="#ffffff"
     bordercolor="#666666"
     borderopacity="1.0"
     inkscape:pageopacity="0.0"
     inkscape:pageshadow="2"
     inkscape:zoom="2.8"
     inkscape:cx="149.27826"
     inkscape:cy="69.998942"
     inkscape:document-units="px"
     inkscape:current-layer="layer1"
     showgrid="false"
     fit-margin-top="0"
     fit-margin-left="0"
     fit-margin-right="0"
     fit-margin-bottom="0"
     inkscape:window-width="1920"
     inkscape:window-height="1017"
     inkscape:window-x="-8"
     inkscape:window-y="-8"
     inkscape:window-maximized="1" />
  <metadata
     id="metadata310641">
    <rdf:RDF>
      <cc:Work
         rdf:about="">
        <dc:format>image/svg+xml</dc:format>
        <dc:type
           rdf:resource="http://purl.org/dc/dcmitype/StillImage" />
        <dc:title></dc:title>
      </cc:Work>
    </rdf:RDF>
  </metadata>
  <g
     inkscape:label="Layer 1"
     inkscape:groupmode="layer"
     id="layer1"
     transform="translate(-246.44753,-407.74704)">
    <g
       transform="matrix(4.5264883,0,0,-4.5264883,-1589.0987,3670.9934)"
       id="g2688"
       style="fill:#ffffff;fill-opacity:1">
      <g
         id="g2690"
         clip-path="url(#clipPath2692)"
         style="fill:#ffffff;fill-opacity:1">
        <g
           id="g2696"
           transform="translate(452.6532,707.0503)"
           style="fill:#ffffff;fill-opacity:1">
          <path
             d="m 0,0 c -1.734,0 -1.965,1.711 -1.965,2.983 0,1.271 0.231,2.959 1.965,2.959 1.734,0 1.965,-1.688 1.965,-2.959 C 1.965,1.711 1.734,0 0,0 m -26.564,0 c -1.734,0 -1.965,1.711 -1.965,2.983 0,1.271 0.231,2.959 1.965,2.959 1.734,0 1.965,-1.688 1.965,-2.959 C -24.599,1.711 -24.83,0 -26.564,0 M 0,9.271 c -2.958,0 -4.851,-1.273 -5.803,-3.089 l 0,7.297 -5.086,0 0,-5.734 -4.763,0 0,5.734 -5.086,0 0,-7.344 c -0.944,1.841 -2.843,3.136 -5.826,3.136 -3.724,0 -5.759,-2.02 -6.354,-4.599 -0.854,1.288 -2.412,1.922 -3.981,2.357 -2.335,0.647 -4.693,0.901 -4.786,2.08 0,0.925 1.133,1.11 1.827,1.11 0.509,0 1.087,-0.115 1.503,-0.416 0.416,-0.277 0.693,-0.694 0.601,-1.318 l 4.809,0 c -0.139,4.023 -3.306,5.387 -6.89,5.387 -3.398,0 -6.658,-1.641 -6.658,-5.456 0,-3.329 2.982,-4.046 5.595,-4.786 2.843,-0.809 3.56,-1.04 3.56,-1.896 0,-1.225 -1.271,-1.503 -2.103,-1.503 -0.949,0 -2.058,0.209 -2.428,1.203 -0.116,0.3 -0.185,0.67 -0.185,1.086 l -5.087,0 c 0.047,-5.271 5.387,-5.942 7.26,-5.942 3.032,0 6.251,0.947 7.286,3.69 0.858,-2.078 2.814,-3.597 6.031,-3.597 2.983,0 4.882,1.306 5.826,3.153 l 0,-2.853 5.086,0 0,6.543 4.763,0 0,-6.543 5.086,0 0,2.806 c 0.952,-1.823 2.845,-3.106 5.803,-3.106 4.508,0 6.543,2.982 6.543,6.312 0,3.329 -2.035,6.288 -6.543,6.288"
             style="fill:#ffffff;fill-opacity:1;fill-rule:nonzero;stroke:none"
             id="path2698"
             inkscape:connector-curvature="0" />
        </g>
      </g>
    </g>
    <g
       id="g4155"
       transform="translate(-56.890584,-32.347121)"
       style="fill:#ffffff;fill-opacity:1">
      <path
         d="m 426.39997,542.05851 c 0.47023,0 0.91206,-0.0947 1.32233,-0.27772 0.40711,-0.18632 0.76057,-0.44182 1.05722,-0.76372 0.29982,-0.32191 0.53335,-0.68799 0.70693,-1.09826 0.1737,-0.40711 0.26194,-0.83631 0.26194,-1.28129 0,-0.89312 -0.31875,-1.67894 -0.94993,-2.36377 -0.63118,-0.67852 -1.42962,-1.02252 -2.39849,-1.02252 l -2.6762,0 0,6.80728 2.6762,0 z m -8.62823,-12.38375 8.70082,0 c 1.29076,0 2.48685,0.23656 3.59142,0.70692 1.10141,0.47023 2.05764,1.10772 2.8624,1.91563 0.80791,0.80476 1.43909,1.75153 1.8967,2.84347 0.46076,1.09194 0.68798,2.25647 0.68798,3.49674 0,1.24027 -0.22722,2.40479 -0.68798,3.49358 -0.45761,1.09194 -1.08879,2.04187 -1.8967,2.84662 -0.80476,0.80476 -1.76099,1.44541 -2.8624,1.91563 -1.10457,0.47023 -2.30066,0.70693 -3.59142,0.70693 l -2.74879,0 0,8.4799 -5.95203,0 0,-26.40542 z"
         style="fill:#ffffff;fill-opacity:1;fill-rule:nonzero;stroke:none"
         id="path72756"
         inkscape:connector-curvature="0" />
      <path
         d="m 450.76008,550.64918 c 1.06669,0 2.05764,-0.20501 2.97601,-0.6154 0.91521,-0.40711 1.7105,-0.96571 2.37955,-1.67263 0.66905,-0.70376 1.19609,-1.53061 1.58111,-2.47107 0.38186,-0.94361 0.57437,-1.94719 0.57437,-3.01388 0,-1.0667 -0.19263,-2.07028 -0.57437,-3.01073 -0.38502,-0.94362 -0.91206,-1.76731 -1.58111,-2.47423 -0.66905,-0.70692 -1.46434,-1.26552 -2.37955,-1.67263 -0.91837,-0.41027 -1.90932,-0.6154 -2.97601,-0.6154 -1.0667,0 -2.05765,0.20526 -2.97602,0.6154 -0.91837,0.40711 -1.7105,0.96571 -2.37955,1.67263 -0.66905,0.70692 -1.19609,1.53061 -1.58111,2.47423 -0.38502,0.94045 -0.57753,1.94403 -0.57753,3.01073 0,1.06669 0.19264,2.07027 0.57753,3.01388 0.38502,0.94046 0.91206,1.76731 1.58111,2.47107 0.66905,0.70692 1.46118,1.26552 2.37955,1.67263 0.91837,0.41027 1.90932,0.6154 2.97602,0.6154 m 0,5.72481 c -1.85883,0 -3.6072,-0.35031 -5.24511,-1.05723 -1.63476,-0.70692 -3.06754,-1.67578 -4.29518,-2.90027 -1.22449,-1.22765 -2.19336,-2.66043 -2.90028,-4.29519 -0.70692,-1.63791 -1.06038,-3.38628 -1.06038,-5.2451 0,-1.85883 0.35346,-3.6072 1.06038,-5.24511 0.70692,-1.63476 1.67579,-3.06754 2.90028,-4.29203 1.22764,-1.22765 2.66042,-2.19651 4.29518,-2.90343 1.63791,-0.70692 3.38628,-1.06038 5.24511,-1.06038 1.85882,0 3.60719,0.35346 5.2451,1.06038 1.63476,0.70692 3.06754,1.67578 4.29203,2.90343 1.22765,1.22449 2.19651,2.65727 2.90343,4.29203 0.70377,1.63791 1.06038,3.38628 1.06038,5.24511 0,1.85882 -0.35661,3.60719 -1.06038,5.2451 -0.70692,1.63476 -1.67578,3.06754 -2.90343,4.29519 -1.22449,1.22449 -2.65727,2.19335 -4.29203,2.90027 -1.63791,0.70692 -3.38628,1.05723 -5.2451,1.05723"
         style="fill:#ffffff;fill-opacity:1;fill-rule:nonzero;stroke:none"
         id="path72760"
         inkscape:connector-curvature="0" />
      <path
         d="m 476.64289,542.05851 c 0.47023,0 0.91205,-0.0947 1.32232,-0.27772 0.40711,-0.18632 0.76057,-0.44182 1.05723,-0.76372 0.29981,-0.32191 0.53334,-0.68799 0.70692,-1.09826 0.1737,-0.40711 0.26194,-0.83631 0.26194,-1.28129 0,-0.89312 -0.31875,-1.67894 -0.94993,-2.36377 -0.63118,-0.67852 -1.43278,-1.02252 -2.39848,-1.02252 l -2.67621,0 0,6.80728 2.67621,0 z m -8.62824,-12.38375 8.70082,0 c 1.29077,0 2.48685,0.23656 3.59142,0.70692 1.10141,0.47023 2.05765,1.10772 2.8624,1.91563 0.80791,0.80476 1.43909,1.75153 1.8967,2.84347 0.4576,1.09194 0.68798,2.25647 0.68798,3.49674 0,1.24027 -0.2305,2.40479 -0.68798,3.49358 -0.45761,1.09194 -1.08879,2.04187 -1.8967,2.84662 -0.80475,0.80476 -1.76099,1.44541 -2.8624,1.91563 -1.10457,0.47023 -2.30065,0.70693 -3.59142,0.70693 l -2.74879,0 0,8.4799 -5.95203,0 0,-26.40542 z"
         style="fill:#ffffff;fill-opacity:1;fill-rule:nonzero;stroke:none"
         id="path72764"
         inkscape:connector-curvature="0" />
      <path
         inkscape:connector-curvature="0"
         id="path72766"
         style="fill:#ffffff;fill-opacity:1;fill-rule:nonzero;stroke:none"
         d="m 487.8375,542.91313 10.55965,0 0,5.35557 -10.55965,0 0,-5.35557 z" />
      <path
         d="m 513.05189,556.37525 c -1.58742,0 -3.04229,-0.26194 -4.37092,-0.77951 -1.32548,-0.52072 -2.46476,-1.26552 -3.41784,-2.23122 -0.95624,-0.96886 -1.70103,-2.12392 -2.23438,-3.47781 -0.53335,-1.35072 -0.79844,-2.85609 -0.79844,-4.51925 l 0,-15.69429 5.94887,0 0,15.77004 c 0,1.60951 0.44814,2.88133 1.3381,3.80917 0.89312,0.93099 2.07027,1.39806 3.53461,1.39806 1.46118,0 2.64149,-0.46707 3.53146,-1.39806 0.89312,-0.92784 1.34125,-2.19966 1.34125,-3.80917 l 0,-15.77004 5.94888,0 0,15.69429 c 0,1.66316 -0.2651,3.16853 -0.79845,4.51925 -0.5365,1.35389 -1.27814,2.50895 -2.23437,3.47781 -0.95309,0.9657 -2.09237,1.7105 -3.41784,2.23122 -1.32548,0.51757 -2.78351,0.77951 -4.37093,0.77951"
         style="fill:#ffffff;fill-opacity:1;fill-rule:nonzero;stroke:none"
         id="path72770"
         inkscape:connector-curvature="0" />
      <path
         d="m 537.22388,542.05851 c 0.47338,0 0.91205,-0.0947 1.31916,-0.27772 0.41343,-0.18632 0.76373,-0.44182 1.06354,-0.76372 0.29666,-0.32191 0.53335,-0.68799 0.70377,-1.09826 0.17345,-0.40711 0.26194,-0.83631 0.26194,-1.28129 0,-0.89312 -0.31559,-1.67894 -0.94993,-2.36377 -0.63118,-0.67852 -1.42962,-1.02252 -2.39848,-1.02252 l -2.67936,0 0,6.80728 2.67936,0 z m -8.62824,-12.38375 8.70398,0 c 1.29076,0 2.48369,0.23656 3.5851,0.70692 1.10772,0.47023 2.0608,1.10772 2.86872,1.91563 0.80475,0.80476 1.43593,1.75153 1.89354,2.84347 0.46076,1.09194 0.69114,2.25647 0.69114,3.49674 0,1.24027 -0.23051,2.40479 -0.69114,3.49358 -0.45761,1.09194 -1.08879,2.04187 -1.89354,2.84662 -0.80792,0.80476 -1.761,1.44541 -2.86872,1.91563 -1.10141,0.47023 -2.29434,0.70693 -3.5851,0.70693 l -2.7551,0 0,8.4799 -5.94888,0 0,-26.40542 z"
         style="fill:#ffffff;fill-opacity:1;fill-rule:nonzero;stroke:none"
         id="path72774"
         inkscape:connector-curvature="0" />
    </g>
  </g>
</svg>
