<svg height="32.817108mm" viewBox="0 0 243 116.28109" width="68.580002mm" xmlns="http://www.w3.org/2000/svg" xmlns:xlink="http://www.w3.org/1999/xlink"><clipPath id="a"><path d="m390.955 699.874h82.8v24.803h-82.8z"/></clipPath><g clip-path="url(#a)" transform="matrix(4.5264883 0 0 -4.5264883 -1835.54623 3263.24636)"><g transform="translate(452.6532 707.0503)"><path d="m0 0c-1.734 0-1.965 1.711-1.965 2.983 0 1.271.231 2.959 1.965 2.959s1.965-1.688 1.965-2.959c0-1.272-.231-2.983-1.965-2.983m-26.564 0c-1.734 0-1.965 1.711-1.965 2.983 0 1.271.231 2.959 1.965 2.959s1.965-1.688 1.965-2.959c0-1.272-.231-2.983-1.965-2.983m26.564 9.271c-2.958 0-4.851-1.273-5.803-3.089v7.297h-5.086v-5.734h-4.763v5.734h-5.086v-7.344c-.944 1.841-2.843 3.136-5.826 3.136-3.724 0-5.759-2.02-6.354-4.599-.854 1.288-2.412 1.922-3.981 2.357-2.335.647-4.693.901-4.786 2.08 0 .925 1.133 1.11 1.827 1.11.509 0 1.087-.115 1.503-.416.416-.277.693-.694.601-1.318h4.809c-.139 4.023-3.306 5.387-6.89 5.387-3.398 0-6.658-1.641-6.658-5.456 0-3.329 2.982-4.046 5.595-4.786 2.843-.809 3.56-1.04 3.56-1.896 0-1.225-1.271-1.503-2.103-1.503-.949 0-2.058.209-2.428 1.203-.116.3-.185.67-.185 1.086h-5.087c.047-5.271 5.387-5.942 7.26-5.942 3.032 0 6.251.947 7.286 3.69.858-2.078 2.814-3.597 6.031-3.597 2.983 0 4.882 1.306 5.826 3.153v-2.853h5.086v6.543h4.763v-6.543h5.086v2.806c.952-1.823 2.845-3.106 5.803-3.106 4.508 0 6.543 2.982 6.543 6.312 0 3.329-2.035 6.288-6.543 6.288" fill="#231f20"/></g></g><g fill="#231f20" transform="translate(-303.338114 -440.094161)"><path d="m426.39997 542.05851c.47023 0 .91206-.0947 1.32233-.27772.40711-.18632.76057-.44182 1.05722-.76372.29982-.32191.53335-.68799.70693-1.09826.1737-.40711.26194-.83631.26194-1.28129 0-.89312-.31875-1.67894-.94993-2.36377-.63118-.67852-1.42962-1.02252-2.39849-1.02252h-2.6762v6.80728zm-8.62823-12.38375h8.70082c1.29076 0 2.48685.23656 3.59142.70692 1.10141.47023 2.05764 1.10772 2.8624 1.91563.80791.80476 1.43909 1.75153 1.8967 2.84347.46076 1.09194.68798 2.25647.68798 3.49674s-.22722 2.40479-.68798 3.49358c-.45761 1.09194-1.08879 2.04187-1.8967 2.84662-.80476.80476-1.76099 1.44541-2.8624 1.91563-1.10457.47023-2.30066.70693-3.59142.70693h-2.74879v8.4799h-5.95203z"/><path d="m450.76008 550.64918c1.06669 0 2.05764-.20501 2.97601-.6154.91521-.40711 1.7105-.96571 2.37955-1.67263.66905-.70376 1.19609-1.53061 1.58111-2.47107.38186-.94361.57437-1.94719.57437-3.01388 0-1.0667-.19263-2.07028-.57437-3.01073-.38502-.94362-.91206-1.76731-1.58111-2.47423s-1.46434-1.26552-2.37955-1.67263c-.91837-.41027-1.90932-.6154-2.97601-.6154-1.0667 0-2.05765.20526-2.97602.6154-.91837.40711-1.7105.96571-2.37955 1.67263s-1.19609 1.53061-1.58111 2.47423c-.38502.94045-.57753 1.94403-.57753 3.01073 0 1.06669.19264 2.07027.57753 3.01388.38502.94046.91206 1.76731 1.58111 2.47107.66905.70692 1.46118 1.26552 2.37955 1.67263.91837.41027 1.90932.6154 2.97602.6154m0 5.72481c-1.85883 0-3.6072-.35031-5.24511-1.05723-1.63476-.70692-3.06754-1.67578-4.29518-2.90027-1.22449-1.22765-2.19336-2.66043-2.90028-4.29519-.70692-1.63791-1.06038-3.38628-1.06038-5.2451 0-1.85883.35346-3.6072 1.06038-5.24511.70692-1.63476 1.67579-3.06754 2.90028-4.29203 1.22764-1.22765 2.66042-2.19651 4.29518-2.90343 1.63791-.70692 3.38628-1.06038 5.24511-1.06038 1.85882 0 3.60719.35346 5.2451 1.06038 1.63476.70692 3.06754 1.67578 4.29203 2.90343 1.22765 1.22449 2.19651 2.65727 2.90343 4.29203.70377 1.63791 1.06038 3.38628 1.06038 5.24511 0 1.85882-.35661 3.60719-1.06038 5.2451-.70692 1.63476-1.67578 3.06754-2.90343 4.29519-1.22449 1.22449-2.65727 2.19335-4.29203 2.90027-1.63791.70692-3.38628 1.05723-5.2451 1.05723"/><path d="m476.64289 542.05851c.47023 0 .91205-.0947 1.32232-.27772.40711-.18632.76057-.44182 1.05723-.76372.29981-.32191.53334-.68799.70692-1.09826.1737-.40711.26194-.83631.26194-1.28129 0-.89312-.31875-1.67894-.94993-2.36377-.63118-.67852-1.43278-1.02252-2.39848-1.02252h-2.67621v6.80728zm-8.62824-12.38375h8.70082c1.29077 0 2.48685.23656 3.59142.70692 1.10141.47023 2.05765 1.10772 2.8624 1.91563.80791.80476 1.43909 1.75153 1.8967 2.84347.4576 1.09194.68798 2.25647.68798 3.49674s-.2305 2.40479-.68798 3.49358c-.45761 1.09194-1.08879 2.04187-1.8967 2.84662-.80475.80476-1.76099 1.44541-2.8624 1.91563-1.10457.47023-2.30065.70693-3.59142.70693h-2.74879v8.4799h-5.95203z"/><path d="m487.8375 542.91313h10.55965v5.35557h-10.55965z"/><path d="m513.05189 556.37525c-1.58742 0-3.04229-.26194-4.37092-.77951-1.32548-.52072-2.46476-1.26552-3.41784-2.23122-.95624-.96886-1.70103-2.12392-2.23438-3.47781-.53335-1.35072-.79844-2.85609-.79844-4.51925v-15.69429h5.94887v15.77004c0 1.60951.44814 2.88133 1.3381 3.80917.89312.93099 2.07027 1.39806 3.53461 1.39806 1.46118 0 2.64149-.46707 3.53146-1.39806.89312-.92784 1.34125-2.19966 1.34125-3.80917v-15.77004h5.94888v15.69429c0 1.66316-.2651 3.16853-.79845 4.51925-.5365 1.35389-1.27814 2.50895-2.23437 3.47781-.95309.9657-2.09237 1.7105-3.41784 2.23122-1.32548.51757-2.78351.77951-4.37093.77951"/><path d="m537.22388 542.05851c.47338 0 .91205-.0947 1.31916-.27772.41343-.18632.76373-.44182 1.06354-.76372.29666-.32191.53335-.68799.70377-1.09826.17345-.40711.26194-.83631.26194-1.28129 0-.89312-.31559-1.67894-.94993-2.36377-.63118-.67852-1.42962-1.02252-2.39848-1.02252h-2.67936v6.80728zm-8.62824-12.38375h8.70398c1.29076 0 2.48369.23656 3.5851.70692 1.10772.47023 2.0608 1.10772 2.86872 1.91563.80475.80476 1.43593 1.75153 1.89354 2.84347.46076 1.09194.69114 2.25647.69114 3.49674s-.23051 2.40479-.69114 3.49358c-.45761 1.09194-1.08879 2.04187-1.89354 2.84662-.80792.80476-1.761 1.44541-2.86872 1.91563-1.10141.47023-2.29434.70693-3.5851.70693h-2.7551v8.4799h-5.94888z"/></g></svg>