<?xml version="1.0" encoding="UTF-8"?>
<svg id="svg5" width="255.92pt" height="68.899pt" version="1.1" viewBox="0 0 255.92 68.899" xmlns="http://www.w3.org/2000/svg" xmlns:cc="http://creativecommons.org/ns#" xmlns:dc="http://purl.org/dc/elements/1.1/" xmlns:rdf="http://www.w3.org/1999/02/22-rdf-syntax-ns#">
 <metadata id="metadata11">
  <rdf:RDF>
   <cc:Work rdf:about="">
    <dc:format>image/svg+xml</dc:format>
    <dc:type rdf:resource="http://purl.org/dc/dcmitype/StillImage"/>
    <dc:title/>
   </cc:Work>
  </rdf:RDF>
 </metadata>
 <g id="#000000ff" transform="matrix(1 0 0 1 -8.32 -15.725)" fill="#fff">
  <path id="path2" d="m15.93 22.95c6.42-5.87 15.6-7.6 24.05-7.16 8.37 0.49 17.42 3.94 21.72 11.58 2.07 3.36 2.33 7.36 2.65 11.19h-18.85c-0.39-1.82-0.2-4-1.74-5.33-2.89-2.48-7.12-2.73-10.71-2.02-2.16 0.39-4.32 2.26-3.76 4.65 1.26 2.61 4.49 3.13 6.97 3.99 9.4 2.44 20.1 3.88 26.81 11.69 2.38-8.87 9.81-16.17 18.93-17.81 11.32-2.61 24.1 2.89 29.05 13.61v-30.29h18.84v23.28h19.665v-23.28h18.84v30.35c3.01-5.89 8.005-10.84 14.405-12.84 9.77-3.29 21.68-0.86 28.44 7.21 5.37 6.17 6.91 14.86 5.52 22.77 4.99-5.82 11.69-9.72 18.18-13.63 3.21-2 6.59-3.99 8.94-7.02 2.83-3.48 1.72-9.39-2.2-11.56-4.96-2.48-12.73 0.46-12.13 6.82h-18.18c0.3-8.08 4.38-16.36 12.05-19.76 10.1-4.44 22.84-4.27 32.08 2.14 9.89 6.87 10.86 22.87 2.29 31.16-6.59 6.53-15.55 9.865-22.51 15.915h28.96v15.745h-54.38c0.24-2.6 0.42-5.21 0.89-7.78-9.12 9.9-26.09 10.73-36.2 1.9-2.67-2.18-4.415-5.17-6.155-8.1v14.015h-18.84v-27.485h-19.665v27.485h-18.84v-14.025c-3.78 7.73-11.49 13.32-20.12 14.03-10.46 1.45-21.55-3.91-26.16-13.55-3.43 7.77-11.6 12.12-19.73 13.15-10.1 1.4-21.63 0.63-29.64-6.39-5.19-4.48-7.04-11.495-7.08-18.125h18.79c0.51 3.05 0.81 6.755 3.87 8.395 4.29 2.12 9.74 2.11 14.04 0.03 3.19-1.5 2.97-6.39-0.36-7.59-9.14-4.22-20.18-4.14-28.24-10.76-8.15-6.3-7.99-19.85-0.49-26.6m69.35 24.49c-3.22 1.07-4.76 4.51-5.29 7.62-0.67 4.33-0.49 9.19 2.11 12.9 2.84 4.01 9.8 3.47 12.01-0.93 2.46-4.95 2.4-11.13 0.06-16.11-1.55-3.23-5.58-4.65-8.89-3.48m103.99-0.03c-4.32 1.46-5.55 6.57-5.72 10.61-0.07 4.22 0.6 9.46 4.6 11.82 3.58 1.97 8.62 0.41 10.19-3.46 2.03-4.85 2-10.66-0.27-15.42-1.52-3.22-5.49-4.67-8.8-3.55z" fill="#fff"/>
 </g>
</svg>
