<svg width="68.58mm" height="32.817mm" version="1.1" viewBox="0 0 243 116.28" xmlns="http://www.w3.org/2000/svg">
 <defs>
  <clipPath id="a">
   <path d="m390.96 699.87h82.8v24.803h-82.8v-24.803z"/>
  </clipPath>
 </defs>
 <g transform="translate(-246.45 -407.75)" fill="#fff">
  <g transform="matrix(4.5265 0 0 -4.5265 -1589.1 3671)">
   <g clip-path="url(#a)" fill="#fff">
    <g transform="translate(452.65 707.05)" fill="#fff">
     <path d="m0 0c-1.734 0-1.965 1.711-1.965 2.983 0 1.271 0.231 2.959 1.965 2.959s1.965-1.688 1.965-2.959c0-1.272-0.231-2.983-1.965-2.983m-26.564 0c-1.734 0-1.965 1.711-1.965 2.983 0 1.271 0.231 2.959 1.965 2.959s1.965-1.688 1.965-2.959c0-1.272-0.231-2.983-1.965-2.983m26.564 9.271c-2.958 0-4.851-1.273-5.803-3.089v7.297h-5.086v-5.734h-4.763v5.734h-5.086v-7.344c-0.944 1.841-2.843 3.136-5.826 3.136-3.724 0-5.759-2.02-6.354-4.599-0.854 1.288-2.412 1.922-3.981 2.357-2.335 0.647-4.693 0.901-4.786 2.08 0 0.925 1.133 1.11 1.827 1.11 0.509 0 1.087-0.115 1.503-0.416 0.416-0.277 0.693-0.694 0.601-1.318h4.809c-0.139 4.023-3.306 5.387-6.89 5.387-3.398 0-6.658-1.641-6.658-5.456 0-3.329 2.982-4.046 5.595-4.786 2.843-0.809 3.56-1.04 3.56-1.896 0-1.225-1.271-1.503-2.103-1.503-0.949 0-2.058 0.209-2.428 1.203-0.116 0.3-0.185 0.67-0.185 1.086h-5.087c0.047-5.271 5.387-5.942 7.26-5.942 3.032 0 6.251 0.947 7.286 3.69 0.858-2.078 2.814-3.597 6.031-3.597 2.983 0 4.882 1.306 5.826 3.153v-2.853h5.086v6.543h4.763v-6.543h5.086v2.806c0.952-1.823 2.845-3.106 5.803-3.106 4.508 0 6.543 2.982 6.543 6.312 0 3.329-2.035 6.288-6.543 6.288" fill="#fff"/>
    </g>
   </g>
  </g>
  <g transform="translate(-56.891 -32.347)">
   <path d="m426.4 542.06c0.47023 0 0.91206-0.0947 1.3223-0.27772 0.40711-0.18632 0.76057-0.44182 1.0572-0.76372 0.29982-0.32191 0.53335-0.68799 0.70693-1.0983 0.1737-0.40711 0.26194-0.83631 0.26194-1.2813 0-0.89312-0.31875-1.6789-0.94993-2.3638-0.63118-0.67852-1.4296-1.0225-2.3985-1.0225h-2.6762v6.8073h2.6762zm-8.6282-12.384h8.7008c1.2908 0 2.4868 0.23656 3.5914 0.70692 1.1014 0.47023 2.0576 1.1077 2.8624 1.9156 0.80791 0.80476 1.4391 1.7515 1.8967 2.8435 0.46076 1.0919 0.68798 2.2565 0.68798 3.4967s-0.22722 2.4048-0.68798 3.4936c-0.45761 1.0919-1.0888 2.0419-1.8967 2.8466-0.80476 0.80476-1.761 1.4454-2.8624 1.9156-1.1046 0.47023-2.3007 0.70693-3.5914 0.70693h-2.7488v8.4799h-5.952v-26.405z"/>
   <path d="m450.76 550.65c1.0667 0 2.0576-0.20501 2.976-0.6154 0.91521-0.40711 1.7105-0.96571 2.3796-1.6726 0.66905-0.70376 1.1961-1.5306 1.5811-2.4711 0.38186-0.94361 0.57437-1.9472 0.57437-3.0139s-0.19263-2.0703-0.57437-3.0107c-0.38502-0.94362-0.91206-1.7673-1.5811-2.4742s-1.4643-1.2655-2.3796-1.6726c-0.91837-0.41027-1.9093-0.6154-2.976-0.6154s-2.0576 0.20526-2.976 0.6154c-0.91837 0.40711-1.7105 0.96571-2.3796 1.6726s-1.1961 1.5306-1.5811 2.4742c-0.38502 0.94045-0.57753 1.944-0.57753 3.0107s0.19264 2.0703 0.57753 3.0139c0.38502 0.94046 0.91206 1.7673 1.5811 2.4711 0.66905 0.70692 1.4612 1.2655 2.3796 1.6726 0.91837 0.41027 1.9093 0.6154 2.976 0.6154m0 5.7248c-1.8588 0-3.6072-0.35031-5.2451-1.0572-1.6348-0.70692-3.0675-1.6758-4.2952-2.9003-1.2245-1.2276-2.1934-2.6604-2.9003-4.2952-0.70692-1.6379-1.0604-3.3863-1.0604-5.2451s0.35346-3.6072 1.0604-5.2451c0.70692-1.6348 1.6758-3.0675 2.9003-4.292 1.2276-1.2276 2.6604-2.1965 4.2952-2.9034 1.6379-0.70692 3.3863-1.0604 5.2451-1.0604s3.6072 0.35346 5.2451 1.0604c1.6348 0.70692 3.0675 1.6758 4.292 2.9034 1.2276 1.2245 2.1965 2.6573 2.9034 4.292 0.70377 1.6379 1.0604 3.3863 1.0604 5.2451s-0.35661 3.6072-1.0604 5.2451c-0.70692 1.6348-1.6758 3.0675-2.9034 4.2952-1.2245 1.2245-2.6573 2.1934-4.292 2.9003-1.6379 0.70692-3.3863 1.0572-5.2451 1.0572"/>
   <path d="m476.64 542.06c0.47023 0 0.91205-0.0947 1.3223-0.27772 0.40711-0.18632 0.76057-0.44182 1.0572-0.76372 0.29981-0.32191 0.53334-0.68799 0.70692-1.0983 0.1737-0.40711 0.26194-0.83631 0.26194-1.2813 0-0.89312-0.31875-1.6789-0.94993-2.3638-0.63118-0.67852-1.4328-1.0225-2.3985-1.0225h-2.6762v6.8073h2.6762zm-8.6282-12.384h8.7008c1.2908 0 2.4868 0.23656 3.5914 0.70692 1.1014 0.47023 2.0576 1.1077 2.8624 1.9156 0.80791 0.80476 1.4391 1.7515 1.8967 2.8435 0.4576 1.0919 0.68798 2.2565 0.68798 3.4967s-0.2305 2.4048-0.68798 3.4936c-0.45761 1.0919-1.0888 2.0419-1.8967 2.8466-0.80475 0.80476-1.761 1.4454-2.8624 1.9156-1.1046 0.47023-2.3006 0.70693-3.5914 0.70693h-2.7488v8.4799h-5.952v-26.405z"/>
   <path d="m487.84 542.91h10.56v5.3556h-10.56v-5.3556z"/>
   <path d="m513.05 556.38c-1.5874 0-3.0423-0.26194-4.3709-0.77951-1.3255-0.52072-2.4648-1.2655-3.4178-2.2312-0.95624-0.96886-1.701-2.1239-2.2344-3.4778-0.53335-1.3507-0.79844-2.8561-0.79844-4.5192v-15.694h5.9489v15.77c0 1.6095 0.44814 2.8813 1.3381 3.8092 0.89312 0.93099 2.0703 1.3981 3.5346 1.3981 1.4612 0 2.6415-0.46707 3.5315-1.3981 0.89312-0.92784 1.3412-2.1997 1.3412-3.8092v-15.77h5.9489v15.694c0 1.6632-0.2651 3.1685-0.79845 4.5192-0.5365 1.3539-1.2781 2.509-2.2344 3.4778-0.95309 0.9657-2.0924 1.7105-3.4178 2.2312-1.3255 0.51757-2.7835 0.77951-4.3709 0.77951"/>
   <path d="m537.22 542.06c0.47338 0 0.91205-0.0947 1.3192-0.27772 0.41343-0.18632 0.76373-0.44182 1.0635-0.76372 0.29666-0.32191 0.53335-0.68799 0.70377-1.0983 0.17345-0.40711 0.26194-0.83631 0.26194-1.2813 0-0.89312-0.31559-1.6789-0.94993-2.3638-0.63118-0.67852-1.4296-1.0225-2.3985-1.0225h-2.6794v6.8073h2.6794zm-8.6282-12.384h8.704c1.2908 0 2.4837 0.23656 3.5851 0.70692 1.1077 0.47023 2.0608 1.1077 2.8687 1.9156 0.80475 0.80476 1.4359 1.7515 1.8935 2.8435 0.46076 1.0919 0.69114 2.2565 0.69114 3.4967s-0.23051 2.4048-0.69114 3.4936c-0.45761 1.0919-1.0888 2.0419-1.8935 2.8466-0.80792 0.80476-1.761 1.4454-2.8687 1.9156-1.1014 0.47023-2.2943 0.70693-3.5851 0.70693h-2.7551v8.4799h-5.9489v-26.405z"/>
  </g>
 </g>
</svg>
