<?xml version="1.0" encoding="UTF-8" standalone="no"?>
<!-- Created with Inkscape (http://www.inkscape.org/) -->

<svg
   xmlns:dc="http://purl.org/dc/elements/1.1/"
   xmlns:cc="http://creativecommons.org/ns#"
   xmlns:rdf="http://www.w3.org/1999/02/22-rdf-syntax-ns#"
   xmlns:svg="http://www.w3.org/2000/svg"
   xmlns="http://www.w3.org/2000/svg"
   xmlns:sodipodi="http://sodipodi.sourceforge.net/DTD/sodipodi-0.dtd"
   xmlns:inkscape="http://www.inkscape.org/namespaces/inkscape"
   width="22.638807mm"
   height="6.9087996mm"
   viewBox="0 0 22.638807 6.9087996"
   version="1.1"
   id="svg11821"
   inkscape:version="0.92.0 r15299"
   sodipodi:docname="Star Chinese Channel.svg">
  <defs
     id="defs11815">
    <linearGradient
       x1="0"
       y1="0"
       x2="1"
       y2="0"
       gradientUnits="userSpaceOnUse"
       gradientTransform="matrix(0.9720813,0,0,-0.9720813,340.03245,596.46656)"
       spreadMethod="pad"
       id="linearGradient6604">
      <stop
         style="stop-opacity:1;stop-color:#53af32"
         offset="0"
         id="stop6600" />
      <stop
         style="stop-opacity:1;stop-color:#76b82a"
         offset="1"
         id="stop6602" />
    </linearGradient>
    <linearGradient
       x1="0"
       y1="0"
       x2="1"
       y2="0"
       gradientUnits="userSpaceOnUse"
       gradientTransform="matrix(3.3637931,0,0,-3.3637931,336.22108,595.83974)"
       spreadMethod="pad"
       id="linearGradient6584">
      <stop
         style="stop-opacity:1;stop-color:#53af32"
         offset="0"
         id="stop6580" />
      <stop
         style="stop-opacity:1;stop-color:#76b82a"
         offset="1"
         id="stop6582" />
    </linearGradient>
    <linearGradient
       x1="0"
       y1="0"
       x2="1"
       y2="0"
       gradientUnits="userSpaceOnUse"
       gradientTransform="matrix(3.1399161,0,0,-3.1399161,332.72308,595.87822)"
       spreadMethod="pad"
       id="linearGradient6564">
      <stop
         style="stop-opacity:1;stop-color:#53af32"
         offset="0"
         id="stop6560" />
      <stop
         style="stop-opacity:1;stop-color:#76b82a"
         offset="1"
         id="stop6562" />
    </linearGradient>
    <linearGradient
       x1="0"
       y1="0"
       x2="1"
       y2="0"
       gradientUnits="userSpaceOnUse"
       gradientTransform="matrix(3.1399161,0,0,-3.1399161,329.05886,595.87822)"
       spreadMethod="pad"
       id="linearGradient6544">
      <stop
         style="stop-opacity:1;stop-color:#53af32"
         offset="0"
         id="stop6540" />
      <stop
         style="stop-opacity:1;stop-color:#76b82a"
         offset="1"
         id="stop6542" />
    </linearGradient>
    <linearGradient
       x1="0"
       y1="0"
       x2="1"
       y2="0"
       gradientUnits="userSpaceOnUse"
       gradientTransform="matrix(3.1527879,0,0,-3.1527879,325.38805,595.83338)"
       spreadMethod="pad"
       id="linearGradient6524">
      <stop
         style="stop-opacity:1;stop-color:#53af32"
         offset="0"
         id="stop6520" />
      <stop
         style="stop-opacity:1;stop-color:#76b82a"
         offset="1"
         id="stop6522" />
    </linearGradient>
    <linearGradient
       x1="0"
       y1="0"
       x2="1"
       y2="0"
       gradientUnits="userSpaceOnUse"
       gradientTransform="matrix(3.1399161,0,0,-3.1399161,321.92843,596.46656)"
       spreadMethod="pad"
       id="linearGradient6504">
      <stop
         style="stop-opacity:1;stop-color:#53af32"
         offset="0"
         id="stop6500" />
      <stop
         style="stop-opacity:1;stop-color:#76b82a"
         offset="1"
         id="stop6502" />
    </linearGradient>
    <linearGradient
       x1="0"
       y1="0"
       x2="1"
       y2="0"
       gradientUnits="userSpaceOnUse"
       gradientTransform="matrix(4.1311967,0,0,-4.1311967,317.43268,596.37063)"
       spreadMethod="pad"
       id="linearGradient6484">
      <stop
         style="stop-opacity:1;stop-color:#53af32"
         offset="0"
         id="stop6480" />
      <stop
         style="stop-opacity:1;stop-color:#76b82a"
         offset="1"
         id="stop6482" />
    </linearGradient>
    <linearGradient
       x1="0"
       y1="0"
       x2="1"
       y2="0"
       gradientUnits="userSpaceOnUse"
       gradientTransform="matrix(3.3637931,0,0,-3.3637931,312.16331,595.83974)"
       spreadMethod="pad"
       id="linearGradient6464">
      <stop
         style="stop-opacity:1;stop-color:#53af32"
         offset="0"
         id="stop6460" />
      <stop
         style="stop-opacity:1;stop-color:#76b82a"
         offset="1"
         id="stop6462" />
    </linearGradient>
    <linearGradient
       x1="0"
       y1="0"
       x2="1"
       y2="0"
       gradientUnits="userSpaceOnUse"
       gradientTransform="matrix(2.7818485,0,0,-2.7818485,309.17042,595.83985)"
       spreadMethod="pad"
       id="linearGradient6444">
      <stop
         style="stop-opacity:1;stop-color:#53af32"
         offset="0"
         id="stop6440" />
      <stop
         style="stop-opacity:1;stop-color:#76b82a"
         offset="1"
         id="stop6442" />
    </linearGradient>
    <linearGradient
       x1="0"
       y1="0"
       x2="1"
       y2="0"
       gradientUnits="userSpaceOnUse"
       gradientTransform="matrix(3.3637931,0,0,-3.3637931,305.67242,595.83974)"
       spreadMethod="pad"
       id="linearGradient6424">
      <stop
         style="stop-opacity:1;stop-color:#53af32"
         offset="0"
         id="stop6420" />
      <stop
         style="stop-opacity:1;stop-color:#76b82a"
         offset="1"
         id="stop6422" />
    </linearGradient>
    <linearGradient
       x1="0"
       y1="0"
       x2="1"
       y2="0"
       gradientUnits="userSpaceOnUse"
       gradientTransform="matrix(3.1399161,0,0,-3.1399161,302.17441,595.87822)"
       spreadMethod="pad"
       id="linearGradient6404">
      <stop
         style="stop-opacity:1;stop-color:#53af32"
         offset="0"
         id="stop6400" />
      <stop
         style="stop-opacity:1;stop-color:#76b82a"
         offset="1"
         id="stop6402" />
    </linearGradient>
    <linearGradient
       x1="0"
       y1="0"
       x2="1"
       y2="0"
       gradientUnits="userSpaceOnUse"
       gradientTransform="matrix(1.0232719,0,0,-1.0232719,300.58197,596.46656)"
       spreadMethod="pad"
       id="linearGradient6384">
      <stop
         style="stop-opacity:1;stop-color:#53af32"
         offset="0"
         id="stop6380" />
      <stop
         style="stop-opacity:1;stop-color:#76b82a"
         offset="1"
         id="stop6382" />
    </linearGradient>
    <linearGradient
       x1="0"
       y1="0"
       x2="1"
       y2="0"
       gradientUnits="userSpaceOnUse"
       gradientTransform="matrix(3.1399161,0,0,-3.1399161,296.89856,596.46656)"
       spreadMethod="pad"
       id="linearGradient6364">
      <stop
         style="stop-opacity:1;stop-color:#53af32"
         offset="0"
         id="stop6360" />
      <stop
         style="stop-opacity:1;stop-color:#76b82a"
         offset="1"
         id="stop6362" />
    </linearGradient>
    <linearGradient
       x1="0"
       y1="0"
       x2="1"
       y2="0"
       gradientUnits="userSpaceOnUse"
       gradientTransform="matrix(4.1311967,0,0,-4.1311967,292.40282,596.37063)"
       spreadMethod="pad"
       id="linearGradient6344">
      <stop
         style="stop-opacity:1;stop-color:#53af32"
         offset="0"
         id="stop6340" />
      <stop
         style="stop-opacity:1;stop-color:#76b82a"
         offset="1"
         id="stop6342" />
    </linearGradient>
    <linearGradient
       x1="0"
       y1="0"
       x2="1"
       y2="0"
       gradientUnits="userSpaceOnUse"
       gradientTransform="matrix(2.065549,0,0,-2.065549,288.54673,595.87899)"
       spreadMethod="pad"
       id="linearGradient6324">
      <stop
         style="stop-opacity:1;stop-color:#53af32"
         offset="0"
         id="stop6320" />
      <stop
         style="stop-opacity:1;stop-color:#76b82a"
         offset="1"
         id="stop6322" />
    </linearGradient>
    <linearGradient
       x1="0"
       y1="0"
       x2="1"
       y2="0"
       gradientUnits="userSpaceOnUse"
       gradientTransform="matrix(3.1527879,0,0,-3.1527879,284.87596,595.83338)"
       spreadMethod="pad"
       id="linearGradient6304">
      <stop
         style="stop-opacity:1;stop-color:#53af32"
         offset="0"
         id="stop6300" />
      <stop
         style="stop-opacity:1;stop-color:#76b82a"
         offset="1"
         id="stop6302" />
    </linearGradient>
    <linearGradient
       x1="0"
       y1="0"
       x2="1"
       y2="0"
       gradientUnits="userSpaceOnUse"
       gradientTransform="matrix(2.1871525,0,0,-2.1871525,282.49711,596.2555)"
       spreadMethod="pad"
       id="linearGradient6284">
      <stop
         style="stop-opacity:1;stop-color:#53af32"
         offset="0"
         id="stop6280" />
      <stop
         style="stop-opacity:1;stop-color:#76b82a"
         offset="1"
         id="stop6282" />
    </linearGradient>
    <linearGradient
       x1="0"
       y1="0"
       x2="1"
       y2="0"
       gradientUnits="userSpaceOnUse"
       gradientTransform="matrix(3.5429145,0,0,-3.5429145,278.76873,596.37063)"
       spreadMethod="pad"
       id="linearGradient6264">
      <stop
         style="stop-opacity:1;stop-color:#53af32"
         offset="0"
         id="stop6260" />
      <stop
         style="stop-opacity:1;stop-color:#76b82a"
         offset="1"
         id="stop6262" />
    </linearGradient>
    <linearGradient
       x1="0"
       y1="0"
       x2="1"
       y2="0"
       gradientUnits="userSpaceOnUse"
       gradientTransform="matrix(24.736789,0,0,-24.736789,277.79999,607.38815)"
       spreadMethod="pad"
       id="linearGradient6244">
      <stop
         style="stop-opacity:1;stop-color:#53af32"
         offset="0"
         id="stop6240" />
      <stop
         style="stop-opacity:1;stop-color:#76b82a"
         offset="1"
         id="stop6242" />
    </linearGradient>
    <linearGradient
       x1="0"
       y1="0"
       x2="1"
       y2="0"
       gradientUnits="userSpaceOnUse"
       gradientTransform="matrix(1.9809166,0,0,-1.9809166,338.9721,604.19125)"
       spreadMethod="pad"
       id="linearGradient6224">
      <stop
         style="stop-opacity:1;stop-color:#53af32"
         offset="0"
         id="stop6220" />
      <stop
         style="stop-opacity:1;stop-color:#76b82a"
         offset="1"
         id="stop6222" />
    </linearGradient>
    <linearGradient
       x1="0"
       y1="0"
       x2="1"
       y2="0"
       gradientUnits="userSpaceOnUse"
       gradientTransform="matrix(8.7436873,0,0,-8.7436873,331.86886,602.27932)"
       spreadMethod="pad"
       id="linearGradient6204">
      <stop
         style="stop-opacity:1;stop-color:#53af32"
         offset="0"
         id="stop6200" />
      <stop
         style="stop-opacity:1;stop-color:#76b82a"
         offset="1"
         id="stop6202" />
    </linearGradient>
    <linearGradient
       x1="0"
       y1="0"
       x2="1"
       y2="0"
       gradientUnits="userSpaceOnUse"
       gradientTransform="matrix(8.7441582,0,0,-8.7441582,331.80878,606.10337)"
       spreadMethod="pad"
       id="linearGradient6184">
      <stop
         style="stop-opacity:1;stop-color:#53af32"
         offset="0"
         id="stop6180" />
      <stop
         style="stop-opacity:1;stop-color:#76b82a"
         offset="1"
         id="stop6182" />
    </linearGradient>
    <linearGradient
       x1="0"
       y1="0"
       x2="1"
       y2="0"
       gradientUnits="userSpaceOnUse"
       gradientTransform="matrix(1.9809166,0,0,-1.9809166,331.46889,604.19125)"
       spreadMethod="pad"
       id="linearGradient6164">
      <stop
         style="stop-opacity:1;stop-color:#53af32"
         offset="0"
         id="stop6160" />
      <stop
         style="stop-opacity:1;stop-color:#76b82a"
         offset="1"
         id="stop6162" />
    </linearGradient>
    <linearGradient
       x1="0"
       y1="0"
       x2="1"
       y2="0"
       gradientUnits="userSpaceOnUse"
       gradientTransform="matrix(11.385073,0,0,-11.385073,330.58825,609.76301)"
       spreadMethod="pad"
       id="linearGradient6144">
      <stop
         style="stop-opacity:1;stop-color:#53af32"
         offset="0"
         id="stop6140" />
      <stop
         style="stop-opacity:1;stop-color:#76b82a"
         offset="1"
         id="stop6142" />
    </linearGradient>
    <linearGradient
       x1="0"
       y1="0"
       x2="1"
       y2="0"
       gradientUnits="userSpaceOnUse"
       gradientTransform="matrix(11.840745,0,0,-11.840745,318.00249,607.21156)"
       spreadMethod="pad"
       id="linearGradient6124">
      <stop
         style="stop-opacity:1;stop-color:#53af32"
         offset="0"
         id="stop6120" />
      <stop
         style="stop-opacity:1;stop-color:#76b82a"
         offset="1"
         id="stop6122" />
    </linearGradient>
    <linearGradient
       x1="0"
       y1="0"
       x2="1"
       y2="0"
       gradientUnits="userSpaceOnUse"
       gradientTransform="matrix(1.987539,0,0,-1.987539,315.146,607.75609)"
       spreadMethod="pad"
       id="linearGradient6104">
      <stop
         style="stop-opacity:1;stop-color:#53af32"
         offset="0"
         id="stop6100" />
      <stop
         style="stop-opacity:1;stop-color:#76b82a"
         offset="1"
         id="stop6102" />
    </linearGradient>
    <linearGradient
       x1="0"
       y1="0"
       x2="1"
       y2="0"
       gradientUnits="userSpaceOnUse"
       gradientTransform="matrix(10.058498,0,0,-10.058498,306.73364,607.19371)"
       spreadMethod="pad"
       id="linearGradient6084">
      <stop
         style="stop-opacity:1;stop-color:#53af32"
         offset="0"
         id="stop6080" />
      <stop
         style="stop-opacity:1;stop-color:#76b82a"
         offset="1"
         id="stop6082" />
    </linearGradient>
    <linearGradient
       x1="0"
       y1="0"
       x2="1"
       y2="0"
       gradientUnits="userSpaceOnUse"
       gradientTransform="matrix(1.9875609,0,0,-1.9875609,306.39211,607.75609)"
       spreadMethod="pad"
       id="linearGradient6064">
      <stop
         style="stop-opacity:1;stop-color:#53af32"
         offset="0"
         id="stop6060" />
      <stop
         style="stop-opacity:1;stop-color:#76b82a"
         offset="1"
         id="stop6062" />
    </linearGradient>
    <linearGradient
       x1="0"
       y1="0"
       x2="1"
       y2="0"
       gradientUnits="userSpaceOnUse"
       gradientTransform="matrix(0.3643522,0,0,-0.3643522,304.28435,607.50077)"
       spreadMethod="pad"
       id="linearGradient6044">
      <stop
         style="stop-opacity:1;stop-color:#53af32"
         offset="0"
         id="stop6040" />
      <stop
         style="stop-opacity:1;stop-color:#76b82a"
         offset="1"
         id="stop6042" />
    </linearGradient>
  </defs>
  <sodipodi:namedview
     id="base"
     pagecolor="#ffffff"
     bordercolor="#666666"
     borderopacity="1.0"
     inkscape:pageopacity="0.0"
     inkscape:pageshadow="2"
     inkscape:zoom="2.8"
     inkscape:cx="51.539462"
     inkscape:cy="-7.1740216"
     inkscape:document-units="mm"
     inkscape:current-layer="layer1"
     showgrid="false"
     fit-margin-top="0"
     fit-margin-left="0"
     fit-margin-right="0"
     fit-margin-bottom="0"
     inkscape:window-width="1920"
     inkscape:window-height="1017"
     inkscape:window-x="-8"
     inkscape:window-y="-8"
     inkscape:window-maximized="1" />
  <metadata
     id="metadata11818">
    <rdf:RDF>
      <cc:Work
         rdf:about="">
        <dc:format>image/svg+xml</dc:format>
        <dc:type
           rdf:resource="http://purl.org/dc/dcmitype/StillImage" />
        <dc:title></dc:title>
      </cc:Work>
    </rdf:RDF>
  </metadata>
  <g
     inkscape:label="Layer 1"
     inkscape:groupmode="layer"
     id="layer1"
     transform="translate(-86.198454,-158.23012)">
    <g
       transform="matrix(0.35277777,0,0,-0.35277777,-11.803211,374.70867)"
       id="g6028">
      <g
         id="g6030">
        <g
           id="g6036">
          <g
             id="g6038">
            <path
               d="m 304.285,601.362 h 0.364 v 12.278 h -0.364 z"
               style="fill:url(#linearGradient6044);stroke:none"
               id="path6046"
               inkscape:connector-curvature="0" />
          </g>
        </g>
      </g>
    </g>
    <g
       transform="matrix(0.35277777,0,0,-0.35277777,-11.803211,374.70867)"
       id="g6048">
      <g
         id="g6050">
        <g
           id="g6056">
          <g
             id="g6058">
            <path
               d="m 306.392,610.672 c 0.04,-0.194 0.061,-0.387 0.061,-0.581 v 0 -4.658 c 0,-0.194 -0.014,-0.392 -0.041,-0.593 v 0 c 0.656,0.411 1.312,0.819 1.968,1.222 v 0 3.4 c -0.669,0.403 -1.332,0.806 -1.988,1.21 z"
               style="fill:url(#linearGradient6064);stroke:none"
               id="path6066"
               inkscape:connector-curvature="0" />
          </g>
        </g>
      </g>
    </g>
    <g
       transform="matrix(0.35277777,0,0,-0.35277777,-11.803211,374.70867)"
       id="g6068">
      <g
         id="g6070">
        <g
           id="g6076">
          <g
             id="g6078">
            <path
               d="m 310.648,611.979 v -1.307 h -3.915 c 0.643,-0.387 1.279,-0.774 1.908,-1.161 v 0 h 2.007 v -3.497 h -2.007 c -0.616,-0.388 -1.233,-0.779 -1.847,-1.174 v 0 h 3.854 v -3.303 c 0.334,0.032 0.669,0.048 1.005,0.048 v 0 c 0.4,0 0.802,-0.016 1.204,-0.048 v 0 3.303 h 3.935 c -0.643,0.395 -1.272,0.786 -1.887,1.174 v 0 h -2.048 v 3.497 h 2.008 c 0.616,0.387 1.237,0.774 1.867,1.161 v 0 h -3.875 v 1.633 c 0,0.105 0.06,0.19 0.181,0.255 v 0 c 0.093,0.048 0.14,0.092 0.14,0.133 v 0 c 0,0.04 -0.081,0.06 -0.241,0.06 v 0 c -1.057,0 -1.847,0.033 -2.369,0.097 v 0 c 0.053,-0.307 0.08,-0.597 0.08,-0.871"
               style="fill:url(#linearGradient6084);stroke:none"
               id="path6086"
               inkscape:connector-curvature="0" />
          </g>
        </g>
      </g>
    </g>
    <g
       transform="matrix(0.35277777,0,0,-0.35277777,-11.803211,374.70867)"
       id="g6088">
      <g
         id="g6090">
        <g
           id="g6096">
          <g
             id="g6098">
            <path
               d="m 315.146,609.462 v -3.4 c 0.669,-0.403 1.331,-0.811 1.988,-1.222 v 0 c -0.041,0.201 -0.061,0.399 -0.061,0.593 v 0 4.658 c 0,0.194 0.013,0.387 0.04,0.581 v 0 c -0.655,-0.404 -1.312,-0.807 -1.967,-1.21"
               style="fill:url(#linearGradient6104);stroke:none"
               id="path6106"
               inkscape:connector-curvature="0" />
          </g>
        </g>
      </g>
    </g>
    <g
       transform="matrix(0.35277777,0,0,-0.35277777,-11.803211,374.70867)"
       id="g6108">
      <g
         id="g6110">
        <g
           id="g6116">
          <g
             id="g6118">
            <path
               d="m 322.519,612.415 c 0.318,-0.444 0.568,-0.924 0.748,-1.441 v 0 h -5.265 l 0.499,-1.161 h 7.367 c -0.041,-1.178 -0.284,-2.183 -0.728,-3.013 v 0 c -0.236,-0.468 -0.562,-0.912 -0.978,-1.33 v 0 c -1.318,1.064 -2.247,2.411 -2.788,4.041 v 0 c -0.582,-0.138 -1.201,-0.231 -1.852,-0.279 v 0 c 0.706,-1.88 1.698,-3.351 2.975,-4.416 v 0 c 0.153,-0.121 0.312,-0.246 0.479,-0.376 v 0 c -1.374,-0.903 -2.99,-1.483 -4.848,-1.742 v 0 c 0.61,-0.322 1.165,-0.685 1.664,-1.089 v 0 c 1.207,0.339 2.282,0.759 3.226,1.259 v 0 c 0.429,0.218 0.832,0.463 1.207,0.738 v 0 c 1.151,-0.678 2.635,-1.335 4.453,-1.972 v 0 c 0.347,0.499 0.736,0.927 1.165,1.282 v 0 c -1.762,0.387 -3.232,0.936 -4.411,1.645 v 0 c 0.249,0.251 0.486,0.517 0.707,0.8 v 0 c 0.833,1.096 1.429,2.581 1.79,4.452 v 0 h 1.311 l 0.457,1.161 h -4.682 c -0.208,0.67 -0.507,1.283 -0.894,1.841 v 0 c -0.486,-0.154 -1.02,-0.288 -1.602,-0.4"
               style="fill:url(#linearGradient6124);stroke:none"
               id="path6126"
               inkscape:connector-curvature="0" />
          </g>
        </g>
      </g>
    </g>
    <g
       transform="matrix(0.35277777,0,0,-0.35277777,-11.803211,374.70867)"
       id="g6128">
      <g
         id="g6130">
        <g
           id="g6136">
          <g
             id="g6138">
            <path
               d="m 331.448,608.402 h -0.86 c 0.094,-0.233 0.14,-0.448 0.14,-0.641 v 0 c 0,-0.194 -0.027,-0.383 -0.079,-0.569 v 0 c 0.026,-0.073 0.086,-0.109 0.179,-0.109 v 0 c 0.041,0 0.121,0.036 0.241,0.109 v 0 c 2.8,0.194 5.696,0.407 8.684,0.641 v 0 c 0.186,-0.314 0.36,-0.629 0.52,-0.944 v 0 c 0.546,0.267 1.113,0.489 1.7,0.666 v 0 c -1.013,1.831 -2.141,3.319 -3.381,4.465 v 0 c -0.333,-0.186 -0.834,-0.383 -1.501,-0.593 v 0 c 0.76,-0.863 1.413,-1.698 1.961,-2.504 v 0 c -0.16,-0.008 -0.32,-0.016 -0.48,-0.024 v 0 c -2.134,-0.195 -3.789,-0.333 -4.963,-0.413 v 0 l 2.382,3.752 c 0.133,0.055 0.2,0.1 0.2,0.133 v 0 c 0,0.048 -0.067,0.076 -0.2,0.085 v 0 c -0.827,0.056 -1.508,0.116 -2.042,0.181 v 0 c -0.546,-1.235 -1.38,-2.646 -2.501,-4.235"
               style="fill:url(#linearGradient6144);stroke:none"
               id="path6146"
               inkscape:connector-curvature="0" />
          </g>
        </g>
      </g>
    </g>
    <g
       transform="matrix(0.35277777,0,0,-0.35277777,-11.803211,374.70867)"
       id="g6148">
      <g
         id="g6150">
        <g
           id="g6156">
          <g
             id="g6158">
            <path
               d="m 331.469,606.648 c 0.04,-0.178 0.06,-0.359 0.06,-0.545 v 0 -3.823 c 0,-0.177 -0.014,-0.36 -0.04,-0.545 v 0 c 0.652,0.378 1.307,0.758 1.961,1.137 v 0 2.638 c -0.668,0.379 -1.328,0.759 -1.981,1.138 z"
               style="fill:url(#linearGradient6164);stroke:none"
               id="path6166"
               inkscape:connector-curvature="0" />
          </g>
        </g>
      </g>
    </g>
    <g
       transform="matrix(0.35277777,0,0,-0.35277777,-11.803211,374.70867)"
       id="g6168">
      <g
         id="g6170">
        <g
           id="g6176">
          <g
             id="g6178">
            <path
               d="m 331.808,606.648 c 0.641,-0.363 1.275,-0.726 1.901,-1.089 v 0 h 4.983 c 0.613,0.363 1.234,0.726 1.861,1.089 v 0 z"
               style="fill:url(#linearGradient6184);stroke:none"
               id="path6186"
               inkscape:connector-curvature="0" />
          </g>
        </g>
      </g>
    </g>
    <g
       transform="matrix(0.35277777,0,0,-0.35277777,-11.803211,374.70867)"
       id="g6188">
      <g
         id="g6190">
        <g
           id="g6196">
          <g
             id="g6198">
            <path
               d="m 333.709,602.824 c -0.613,-0.363 -1.227,-0.727 -1.84,-1.089 v 0 h 8.743 c -0.64,0.362 -1.266,0.726 -1.88,1.089 v 0 z"
               style="fill:url(#linearGradient6204);stroke:none"
               id="path6206"
               inkscape:connector-curvature="0" />
          </g>
        </g>
      </g>
    </g>
    <g
       transform="matrix(0.35277777,0,0,-0.35277777,-11.803211,374.70867)"
       id="g6208">
      <g
         id="g6210">
        <g
           id="g6216">
          <g
             id="g6218">
            <path
               d="m 338.972,605.51 v -2.638 c 0.667,-0.379 1.328,-0.759 1.981,-1.137 v 0 c -0.04,0.178 -0.06,0.359 -0.06,0.545 v 0 3.823 c 0,0.177 0.013,0.359 0.041,0.545 v 0 c -0.655,-0.379 -1.308,-0.759 -1.962,-1.138"
               style="fill:url(#linearGradient6224);stroke:none"
               id="path6226"
               inkscape:connector-curvature="0" />
          </g>
        </g>
      </g>
    </g>
    <g
       transform="matrix(0.35277777,0,0,-0.35277777,-11.803211,374.70867)"
       id="g6228">
      <g
         id="g6230">
        <g
           id="g6236">
          <g
             id="g6238">
            <path
               d="m 283.732,613.415 -0.312,-0.539 h -1.572 v -0.721 h 1.156 l -0.882,-1.528 h -1.658 l 1.402,2.428 h -1.889 l -1.817,-3.148 h 1.821 l -2.181,-3.779 h 1.349 v -4.767 h 1.889 v 7.105 l 0.832,1.441 h 6.185 v -8.546 h 1.889 v 3.148 h 1.889 l 0.72,1.248 v -4.396 h 1.888 v 4.138 l 0.9,1.558 v -1.828 h 1.603 l -2.233,-3.868 h 1.889 l 1.439,2.493 v -2.493 h 2.681 l 1.817,3.148 h -1.889 l -0.719,-1.246 v 1.966 h 1.709 v 7.826 h -6.297 v -2.428 h -8.006 v 2.249 h -2.026 l 0.311,0.539 z m 13.498,-1.079 h 2.519 v -7.107 h -0.916 l 0.52,0.899 h -1.889 l -0.234,-0.405 v 1.754 h 1.639 l 0.52,0.901 h -2.159 v 1.529 h 1.639 l 0.52,0.9 h -2.159 z m -12.336,-0.181 h 0.552 v -1.528 h -1.435 z m 10.447,-1.569 v -3.109 h -1.794 z m -5.397,-0.679 h 3.115 l -3.115,-5.398 z m 2.609,3.148 -1.143,-1.978 h 1.889 l 1.142,1.978 z m -3.599,0 -1.142,-1.978 h 1.889 l 1.142,1.978 z m -7.196,-6.927 h 5.577 v 3.059 h -5.577 z m 1.889,2.34 h 1.799 v -1.62 h -1.799 z m 0.9,-2.61 v -0.629 h -2.789 v -3.058 h 2.789 v -0.81 h 1.889 v 0.81 h 0.899 v 0.72 h -0.899 v 1.618 h 0.899 v 0.72 h -0.899 v 0.629 z m -0.9,-1.349 h 0.9 v -1.618 h -0.9 z"
               style="fill:url(#linearGradient6244);stroke:none"
               id="path6246"
               inkscape:connector-curvature="0" />
          </g>
        </g>
      </g>
    </g>
    <g
       transform="matrix(0.35277777,0,0,-0.35277777,-11.803211,374.70867)"
       id="g6248">
      <g
         id="g6250">
        <g
           id="g6256">
          <g
             id="g6258">
            <path
               d="m 279.881,598.576 c -0.192,-0.063 -0.356,-0.154 -0.495,-0.274 v 0 c -0.139,-0.12 -0.247,-0.261 -0.323,-0.426 v 0 c -0.077,-0.164 -0.115,-0.348 -0.115,-0.552 v 0 -0.013 c 0,-0.222 0.035,-0.408 0.105,-0.557 v 0 c 0.07,-0.149 0.169,-0.274 0.298,-0.374 v 0 c 0.128,-0.1 0.283,-0.184 0.466,-0.252 v 0 c 0.184,-0.069 0.388,-0.13 0.615,-0.186 v 0 c 0.187,-0.047 0.339,-0.092 0.457,-0.134 v 0 c 0.117,-0.043 0.209,-0.085 0.275,-0.128 v 0 c 0.065,-0.043 0.11,-0.089 0.134,-0.137 v 0 c 0.023,-0.05 0.035,-0.106 0.035,-0.17 v 0 -0.013 c 0,-0.132 -0.056,-0.235 -0.169,-0.31 v 0 c -0.113,-0.074 -0.272,-0.112 -0.477,-0.112 v 0 c -0.255,0 -0.491,0.049 -0.706,0.147 v 0 c -0.216,0.098 -0.426,0.231 -0.63,0.396 v 0 l -0.582,-0.696 c 0.268,-0.243 0.567,-0.423 0.895,-0.541 v 0 c 0.329,-0.117 0.663,-0.176 1.004,-0.176 v 0 c 0.243,0 0.465,0.031 0.665,0.093 v 0 c 0.2,0.062 0.373,0.151 0.518,0.268 v 0 c 0.145,0.118 0.258,0.263 0.339,0.436 v 0 c 0.081,0.173 0.122,0.369 0.122,0.591 v 0 0.013 c 0,0.196 -0.032,0.364 -0.093,0.506 v 0 c -0.062,0.14 -0.154,0.262 -0.275,0.367 v 0 c -0.122,0.104 -0.271,0.194 -0.447,0.268 v 0 c -0.178,0.075 -0.379,0.142 -0.605,0.202 v 0 c -0.192,0.051 -0.351,0.096 -0.476,0.134 v 0 c -0.126,0.038 -0.225,0.079 -0.298,0.122 v 0 c -0.072,0.042 -0.123,0.09 -0.151,0.143 v 0 c -0.027,0.054 -0.041,0.116 -0.041,0.189 v 0 0.013 c 0,0.11 0.048,0.203 0.144,0.278 v 0 c 0.096,0.075 0.24,0.112 0.432,0.112 v 0 c 0.192,0 0.383,-0.039 0.575,-0.118 v 0 c 0.192,-0.08 0.388,-0.187 0.589,-0.323 v 0 l 0.511,0.742 c -0.23,0.183 -0.482,0.324 -0.758,0.422 v 0 c -0.274,0.098 -0.576,0.147 -0.904,0.147 v 0 c -0.231,0 -0.441,-0.032 -0.634,-0.097"
               style="fill:url(#linearGradient6264);stroke:none"
               id="path6266"
               inkscape:connector-curvature="0" />
          </g>
        </g>
      </g>
    </g>
    <g
       transform="matrix(0.35277777,0,0,-0.35277777,-11.803211,374.70867)"
       id="g6268">
      <g
         id="g6270">
        <g
           id="g6276">
          <g
             id="g6278">
            <path
               d="m 282.906,598.436 v -0.876 h -0.409 v -0.831 h 0.409 v -1.625 c 0,-0.2 0.025,-0.365 0.074,-0.495 v 0 c 0.049,-0.13 0.117,-0.236 0.204,-0.317 v 0 c 0.088,-0.081 0.193,-0.137 0.314,-0.17 v 0 c 0.122,-0.031 0.257,-0.047 0.406,-0.047 v 0 c 0.162,0 0.305,0.018 0.428,0.054 v 0 c 0.124,0.037 0.237,0.084 0.34,0.144 v 0 0.78 c -0.15,-0.081 -0.31,-0.122 -0.48,-0.122 v 0 c -0.209,0 -0.314,0.111 -0.314,0.333 v 0 1.465 h 0.806 v 0.831 h -0.806 v 0.876 z"
               style="fill:url(#linearGradient6284);stroke:none"
               id="path6286"
               inkscape:connector-curvature="0" />
          </g>
        </g>
      </g>
    </g>
    <g
       transform="matrix(0.35277777,0,0,-0.35277777,-11.803211,374.70867)"
       id="g6288">
      <g
         id="g6290">
        <g
           id="g6296">
          <g
             id="g6298">
            <path
               d="m 285.758,597.522 c -0.204,-0.052 -0.4,-0.117 -0.588,-0.198 v 0 l 0.243,-0.743 c 0.158,0.06 0.308,0.106 0.451,0.138 v 0 c 0.143,0.032 0.308,0.048 0.495,0.048 v 0 c 0.243,0 0.427,-0.053 0.55,-0.16 v 0 c 0.124,-0.106 0.186,-0.262 0.186,-0.467 v 0 -0.057 c -0.124,0.043 -0.251,0.076 -0.38,0.102 v 0 c -0.131,0.025 -0.283,0.039 -0.457,0.039 v 0 c -0.206,0 -0.392,-0.023 -0.56,-0.068 v 0 c -0.169,-0.045 -0.313,-0.111 -0.435,-0.201 v 0 c -0.121,-0.089 -0.217,-0.203 -0.285,-0.339 v 0 c -0.068,-0.136 -0.102,-0.298 -0.102,-0.486 v 0 -0.013 c 0,-0.17 0.031,-0.32 0.093,-0.451 v 0 c 0.062,-0.13 0.146,-0.239 0.253,-0.329 v 0 c 0.106,-0.09 0.23,-0.157 0.373,-0.201 v 0 c 0.143,-0.045 0.295,-0.068 0.457,-0.068 v 0 c 0.239,0 0.442,0.04 0.608,0.118 v 0 c 0.166,0.08 0.309,0.185 0.428,0.317 v 0 -0.371 h 0.941 v 1.989 c 0,0.231 -0.03,0.439 -0.09,0.624 v 0 c -0.06,0.185 -0.153,0.342 -0.281,0.47 v 0 c -0.124,0.123 -0.281,0.218 -0.47,0.284 v 0 c -0.19,0.066 -0.419,0.099 -0.687,0.099 v 0 c -0.29,0 -0.538,-0.025 -0.743,-0.076 m 0.205,-2.673 c -0.098,0.072 -0.147,0.174 -0.147,0.307 v 0 0.012 c 0,0.154 0.06,0.271 0.179,0.352 v 0 c 0.12,0.081 0.283,0.122 0.492,0.122 v 0 c 0.12,0 0.231,-0.012 0.336,-0.035 v 0 c 0.105,-0.024 0.2,-0.055 0.285,-0.093 v 0 -0.173 c 0,-0.179 -0.069,-0.324 -0.208,-0.435 v 0 c -0.138,-0.11 -0.323,-0.166 -0.553,-0.166 v 0 c -0.158,0 -0.286,0.036 -0.384,0.109"
               style="fill:url(#linearGradient6304);stroke:none"
               id="path6306"
               inkscape:connector-curvature="0" />
          </g>
        </g>
      </g>
    </g>
    <g
       transform="matrix(0.35277777,0,0,-0.35277777,-11.803211,374.70867)"
       id="g6308">
      <g
         id="g6310">
        <g
           id="g6316">
          <g
             id="g6318">
            <path
               d="m 289.921,597.433 c -0.17,-0.142 -0.305,-0.329 -0.403,-0.564 v 0 0.691 h -0.972 v -3.428 h 0.972 v 1.267 c 0,0.413 0.093,0.718 0.279,0.914 v 0 c 0.186,0.196 0.44,0.294 0.764,0.294 v 0 h 0.052 v 1.017 c -0.025,10e-4 -0.048,0.002 -0.071,0.002 v 0 c -0.258,0 -0.464,-0.065 -0.621,-0.193"
               style="fill:url(#linearGradient6324);stroke:none"
               id="path6326"
               inkscape:connector-curvature="0" />
          </g>
        </g>
      </g>
    </g>
    <g
       transform="matrix(0.35277777,0,0,-0.35277777,-11.803211,374.70867)"
       id="g6328">
      <g
         id="g6330">
        <g
           id="g6336">
          <g
             id="g6338">
            <path
               d="m 293.791,598.504 c -0.286,-0.122 -0.531,-0.288 -0.736,-0.499 v 0 c -0.205,-0.212 -0.364,-0.456 -0.479,-0.736 v 0 c -0.116,-0.279 -0.173,-0.579 -0.173,-0.898 v 0 -0.013 c 0,-0.319 0.057,-0.62 0.173,-0.902 v 0 c 0.115,-0.282 0.274,-0.525 0.479,-0.732 v 0 c 0.205,-0.207 0.448,-0.37 0.729,-0.489 v 0 c 0.281,-0.12 0.586,-0.179 0.915,-0.179 v 0 c 0.217,0 0.413,0.018 0.588,0.054 v 0 c 0.175,0.036 0.336,0.09 0.483,0.16 v 0 c 0.146,0.07 0.282,0.155 0.406,0.252 v 0 c 0.124,0.098 0.243,0.21 0.358,0.333 v 0 l -0.627,0.633 c -0.174,-0.162 -0.351,-0.29 -0.527,-0.384 v 0 c -0.177,-0.093 -0.393,-0.14 -0.649,-0.14 v 0 c -0.193,0 -0.368,0.037 -0.528,0.112 v 0 c -0.16,0.074 -0.296,0.176 -0.41,0.304 v 0 c -0.112,0.128 -0.2,0.277 -0.264,0.447 v 0 c -0.064,0.171 -0.097,0.352 -0.097,0.544 v 0 0.012 c 0,0.192 0.033,0.373 0.097,0.541 v 0 c 0.064,0.168 0.153,0.316 0.268,0.445 v 0 c 0.115,0.127 0.253,0.227 0.412,0.3 v 0 c 0.16,0.072 0.334,0.108 0.522,0.108 v 0 c 0.226,0 0.429,-0.044 0.61,-0.134 v 0 c 0.181,-0.089 0.359,-0.213 0.534,-0.371 v 0 l 0.627,0.723 c -0.102,0.102 -0.213,0.196 -0.333,0.281 v 0 c -0.118,0.085 -0.249,0.158 -0.389,0.218 v 0 c -0.142,0.059 -0.298,0.106 -0.47,0.141 v 0 c -0.173,0.033 -0.364,0.05 -0.573,0.05 v 0 c -0.345,0 -0.661,-0.06 -0.946,-0.181"
               style="fill:url(#linearGradient6344);stroke:none"
               id="path6346"
               inkscape:connector-curvature="0" />
          </g>
        </g>
      </g>
    </g>
    <g
       transform="matrix(0.35277777,0,0,-0.35277777,-11.803211,374.70867)"
       id="g6348">
      <g
         id="g6350">
        <g
           id="g6356">
          <g
             id="g6358">
            <path
               d="m 296.898,598.801 v -4.669 h 0.972 v 1.913 c 0,0.229 0.055,0.403 0.164,0.521 v 0 c 0.108,0.117 0.257,0.175 0.444,0.175 v 0 c 0.188,0 0.333,-0.058 0.435,-0.175 v 0 c 0.102,-0.118 0.153,-0.292 0.153,-0.521 v 0 -1.913 h 0.972 v 2.22 c 0,0.396 -0.1,0.707 -0.303,0.933 v 0 c -0.202,0.226 -0.49,0.339 -0.86,0.339 v 0 c -0.124,0 -0.235,-0.015 -0.332,-0.045 v 0 c -0.099,-0.029 -0.189,-0.07 -0.27,-0.121 v 0 c -0.08,-0.052 -0.154,-0.11 -0.22,-0.176 v 0 c -0.067,-0.066 -0.127,-0.136 -0.183,-0.208 v 0 1.727 z"
               style="fill:url(#linearGradient6364);stroke:none"
               id="path6366"
               inkscape:connector-curvature="0" />
          </g>
        </g>
      </g>
    </g>
    <g
       transform="matrix(0.35277777,0,0,-0.35277777,-11.803211,374.70867)"
       id="g6368">
      <g
         id="g6370">
        <g
           id="g6376">
          <g
             id="g6378">
            <path
               d="m 300.582,597.937 h 1.023 v 0.863 h -1.023 z m 0.025,-3.805 h 0.973 v 3.428 h -0.973 z"
               style="fill:url(#linearGradient6384);stroke:none"
               id="path6386"
               inkscape:connector-curvature="0" />
          </g>
        </g>
      </g>
    </g>
    <g
       transform="matrix(0.35277777,0,0,-0.35277777,-11.803211,374.70867)"
       id="g6388">
      <g
         id="g6390">
        <g
           id="g6396">
          <g
             id="g6398">
            <path
               d="m 303.818,597.579 c -0.099,-0.029 -0.188,-0.07 -0.269,-0.121 v 0 c -0.081,-0.052 -0.154,-0.11 -0.22,-0.176 v 0 c -0.067,-0.066 -0.127,-0.136 -0.183,-0.208 v 0 0.486 h -0.972 v -3.428 h 0.972 v 1.913 c 0,0.229 0.055,0.403 0.164,0.521 v 0 c 0.108,0.117 0.256,0.175 0.444,0.175 v 0 c 0.188,0 0.333,-0.058 0.435,-0.175 v 0 c 0.102,-0.118 0.153,-0.292 0.153,-0.521 v 0 -1.913 h 0.972 v 2.22 c 0,0.396 -0.101,0.707 -0.303,0.933 v 0 c -0.203,0.226 -0.49,0.339 -0.861,0.339 v 0 c -0.123,0 -0.234,-0.015 -0.332,-0.045"
               style="fill:url(#linearGradient6404);stroke:none"
               id="path6406"
               inkscape:connector-curvature="0" />
          </g>
        </g>
      </g>
    </g>
    <g
       transform="matrix(0.35277777,0,0,-0.35277777,-11.803211,374.70867)"
       id="g6408">
      <g
         id="g6410">
        <g
           id="g6416">
          <g
             id="g6418">
            <path
               d="m 306.68,597.483 c -0.207,-0.094 -0.386,-0.221 -0.534,-0.383 v 0 c -0.15,-0.162 -0.266,-0.352 -0.349,-0.569 v 0 c -0.083,-0.218 -0.125,-0.448 -0.125,-0.691 v 0 -0.013 c 0,-0.265 0.045,-0.504 0.134,-0.719 v 0 c 0.09,-0.216 0.215,-0.402 0.375,-0.56 v 0 c 0.159,-0.157 0.349,-0.279 0.569,-0.364 v 0 c 0.219,-0.086 0.457,-0.128 0.713,-0.128 v 0 c 0.311,0 0.582,0.056 0.812,0.169 v 0 c 0.231,0.113 0.427,0.27 0.589,0.47 v 0 l -0.557,0.492 c -0.136,-0.123 -0.269,-0.212 -0.396,-0.268 v 0 c -0.128,-0.056 -0.273,-0.083 -0.435,-0.083 v 0 c -0.218,0 -0.4,0.056 -0.547,0.169 v 0 c -0.147,0.113 -0.244,0.28 -0.291,0.503 v 0 h 2.385 c 0.005,0.046 0.007,0.091 0.01,0.134 v 0 c 0.002,0.042 0.003,0.082 0.003,0.121 v 0 c 0,0.243 -0.033,0.476 -0.099,0.7 v 0 c -0.066,0.224 -0.169,0.422 -0.307,0.595 v 0 c -0.139,0.173 -0.312,0.311 -0.521,0.412 v 0 c -0.209,0.103 -0.457,0.154 -0.742,0.154 v 0 c -0.252,0 -0.48,-0.047 -0.687,-0.141 m 0.191,-0.837 c 0.126,0.131 0.292,0.198 0.496,0.198 v 0 c 0.204,0 0.369,-0.068 0.492,-0.202 v 0 c 0.124,-0.134 0.201,-0.31 0.231,-0.527 v 0 h -1.465 c 0.038,0.221 0.12,0.399 0.246,0.531"
               style="fill:url(#linearGradient6424);stroke:none"
               id="path6426"
               inkscape:connector-curvature="0" />
          </g>
        </g>
      </g>
    </g>
    <g
       transform="matrix(0.35277777,0,0,-0.35277777,-11.803211,374.70867)"
       id="g6428">
      <g
         id="g6430">
        <g
           id="g6436">
          <g
             id="g6438">
            <path
               d="m 310.108,597.541 c -0.152,-0.047 -0.284,-0.117 -0.397,-0.211 v 0 c -0.113,-0.094 -0.203,-0.208 -0.268,-0.342 v 0 c -0.067,-0.135 -0.099,-0.289 -0.099,-0.464 v 0 -0.013 c 0,-0.166 0.03,-0.307 0.092,-0.422 v 0 c 0.061,-0.114 0.141,-0.212 0.24,-0.291 v 0 c 0.098,-0.079 0.207,-0.143 0.329,-0.191 v 0 c 0.121,-0.05 0.242,-0.091 0.361,-0.126 v 0 c 0.094,-0.029 0.183,-0.057 0.269,-0.082 v 0 c 0.085,-0.026 0.161,-0.053 0.227,-0.081 v 0 c 0.066,-0.027 0.119,-0.06 0.156,-0.099 v 0 c 0.039,-0.038 0.058,-0.082 0.058,-0.134 v 0 -0.013 c 0,-0.077 -0.033,-0.138 -0.099,-0.186 v 0 c -0.066,-0.046 -0.169,-0.07 -0.31,-0.07 v 0 c -0.163,0 -0.336,0.034 -0.522,0.103 v 0 c -0.185,0.068 -0.371,0.17 -0.559,0.307 v 0 l -0.415,-0.64 c 0.23,-0.178 0.471,-0.31 0.725,-0.393 v 0 c 0.254,-0.083 0.502,-0.125 0.745,-0.125 v 0 c 0.184,0 0.355,0.023 0.515,0.068 v 0 c 0.16,0.044 0.3,0.111 0.419,0.201 v 0 c 0.119,0.09 0.212,0.204 0.279,0.343 v 0 c 0.065,0.138 0.099,0.303 0.099,0.494 v 0 0.013 c 0,0.158 -0.033,0.293 -0.097,0.403 v 0 c -0.064,0.111 -0.145,0.205 -0.243,0.282 v 0 c -0.098,0.076 -0.209,0.141 -0.332,0.194 v 0 c -0.124,0.054 -0.246,0.1 -0.364,0.138 v 0 c -0.095,0.03 -0.183,0.06 -0.266,0.09 v 0 c -0.083,0.03 -0.156,0.06 -0.221,0.093 v 0 c -0.064,0.031 -0.115,0.065 -0.153,0.101 v 0 c -0.039,0.037 -0.058,0.079 -0.058,0.126 v 0 0.012 c 0,0.069 0.03,0.125 0.089,0.169 v 0 c 0.061,0.045 0.15,0.068 0.269,0.068 v 0 c 0.124,0 0.267,-0.029 0.429,-0.087 v 0 c 0.162,-0.057 0.328,-0.135 0.498,-0.233 v 0 l 0.371,0.672 c -0.187,0.123 -0.393,0.22 -0.616,0.29 v 0 c -0.224,0.071 -0.445,0.107 -0.663,0.107 v 0 c -0.174,0 -0.337,-0.024 -0.488,-0.071"
               style="fill:url(#linearGradient6444);stroke:none"
               id="path6446"
               inkscape:connector-curvature="0" />
          </g>
        </g>
      </g>
    </g>
    <g
       transform="matrix(0.35277777,0,0,-0.35277777,-11.803211,374.70867)"
       id="g6448">
      <g
         id="g6450">
        <g
           id="g6456">
          <g
             id="g6458">
            <path
               d="m 313.17,597.483 c -0.207,-0.094 -0.384,-0.221 -0.533,-0.383 v 0 c -0.15,-0.162 -0.266,-0.352 -0.349,-0.569 v 0 c -0.083,-0.218 -0.125,-0.448 -0.125,-0.691 v 0 -0.013 c 0,-0.265 0.045,-0.504 0.134,-0.719 v 0 c 0.09,-0.216 0.215,-0.402 0.375,-0.56 v 0 c 0.16,-0.157 0.349,-0.279 0.568,-0.364 v 0 c 0.22,-0.086 0.458,-0.128 0.714,-0.128 v 0 c 0.311,0 0.582,0.056 0.812,0.169 v 0 c 0.23,0.113 0.427,0.27 0.589,0.47 v 0 l -0.557,0.492 c -0.136,-0.123 -0.269,-0.212 -0.397,-0.268 v 0 c -0.127,-0.056 -0.272,-0.083 -0.434,-0.083 v 0 c -0.218,0 -0.4,0.056 -0.547,0.169 v 0 c -0.147,0.113 -0.244,0.28 -0.291,0.503 v 0 h 2.385 c 0.004,0.046 0.008,0.091 0.01,0.134 v 0 c 0.002,0.042 0.003,0.082 0.003,0.121 v 0 c 0,0.243 -0.033,0.476 -0.1,0.7 v 0 c -0.065,0.224 -0.168,0.422 -0.306,0.595 v 0 c -0.139,0.173 -0.313,0.311 -0.522,0.412 v 0 c -0.208,0.103 -0.456,0.154 -0.741,0.154 v 0 c -0.252,0 -0.481,-0.047 -0.688,-0.141 m 0.192,-0.837 c 0.126,0.131 0.292,0.198 0.496,0.198 v 0 c 0.204,0 0.369,-0.068 0.492,-0.202 v 0 c 0.124,-0.134 0.201,-0.31 0.231,-0.527 v 0 h -1.465 c 0.038,0.221 0.121,0.399 0.246,0.531"
               style="fill:url(#linearGradient6464);stroke:none"
               id="path6466"
               inkscape:connector-curvature="0" />
          </g>
        </g>
      </g>
    </g>
    <g
       transform="matrix(0.35277777,0,0,-0.35277777,-11.803211,374.70867)"
       id="g6468">
      <g
         id="g6470">
        <g
           id="g6476">
          <g
             id="g6478">
            <path
               d="m 318.82,598.504 c -0.285,-0.122 -0.531,-0.288 -0.735,-0.499 v 0 c -0.205,-0.212 -0.364,-0.456 -0.48,-0.736 v 0 c -0.115,-0.279 -0.172,-0.579 -0.172,-0.898 v 0 -0.013 c 0,-0.319 0.057,-0.62 0.172,-0.902 v 0 c 0.116,-0.282 0.275,-0.525 0.48,-0.732 v 0 c 0.204,-0.207 0.448,-0.37 0.729,-0.489 v 0 c 0.282,-0.12 0.586,-0.179 0.915,-0.179 v 0 c 0.216,0 0.413,0.018 0.588,0.054 v 0 c 0.175,0.036 0.336,0.09 0.483,0.16 v 0 c 0.147,0.07 0.282,0.155 0.406,0.252 v 0 c 0.124,0.098 0.242,0.21 0.358,0.333 v 0 l -0.627,0.633 c -0.174,-0.162 -0.351,-0.29 -0.527,-0.384 v 0 c -0.177,-0.093 -0.393,-0.14 -0.649,-0.14 v 0 c -0.193,0 -0.368,0.037 -0.528,0.112 v 0 c -0.16,0.074 -0.296,0.176 -0.41,0.304 v 0 c -0.112,0.128 -0.201,0.277 -0.264,0.447 v 0 c -0.064,0.171 -0.097,0.352 -0.097,0.544 v 0 0.012 c 0,0.192 0.033,0.373 0.097,0.541 v 0 c 0.063,0.168 0.153,0.316 0.268,0.445 v 0 c 0.115,0.127 0.253,0.227 0.412,0.3 v 0 c 0.16,0.072 0.334,0.108 0.522,0.108 v 0 c 0.225,0 0.429,-0.044 0.61,-0.134 v 0 c 0.181,-0.089 0.359,-0.213 0.534,-0.371 v 0 l 0.627,0.723 c -0.102,0.102 -0.213,0.196 -0.333,0.281 v 0 c -0.119,0.085 -0.249,0.158 -0.39,0.218 v 0 c -0.141,0.059 -0.297,0.106 -0.469,0.141 v 0 c -0.173,0.033 -0.364,0.05 -0.573,0.05 v 0 c -0.345,0 -0.661,-0.06 -0.947,-0.181"
               style="fill:url(#linearGradient6484);stroke:none"
               id="path6486"
               inkscape:connector-curvature="0" />
          </g>
        </g>
      </g>
    </g>
    <g
       transform="matrix(0.35277777,0,0,-0.35277777,-11.803211,374.70867)"
       id="g6488">
      <g
         id="g6490">
        <g
           id="g6496">
          <g
             id="g6498">
            <path
               d="m 321.928,598.801 v -4.669 h 0.972 v 1.913 c 0,0.229 0.055,0.403 0.163,0.521 v 0 c 0.109,0.117 0.257,0.175 0.445,0.175 v 0 c 0.188,0 0.333,-0.058 0.435,-0.175 v 0 c 0.102,-0.118 0.153,-0.292 0.153,-0.521 v 0 -1.913 h 0.972 v 2.22 c 0,0.396 -0.101,0.707 -0.303,0.933 v 0 c -0.203,0.226 -0.49,0.339 -0.86,0.339 v 0 c -0.125,0 -0.235,-0.015 -0.333,-0.045 v 0 c -0.099,-0.029 -0.188,-0.07 -0.269,-0.121 v 0 c -0.081,-0.052 -0.154,-0.11 -0.22,-0.176 v 0 c -0.067,-0.066 -0.127,-0.136 -0.183,-0.208 v 0 1.727 z"
               style="fill:url(#linearGradient6504);stroke:none"
               id="path6506"
               inkscape:connector-curvature="0" />
          </g>
        </g>
      </g>
    </g>
    <g
       transform="matrix(0.35277777,0,0,-0.35277777,-11.803211,374.70867)"
       id="g6508">
      <g
         id="g6510">
        <g
           id="g6516">
          <g
             id="g6518">
            <path
               d="m 326.271,597.522 c -0.205,-0.052 -0.401,-0.117 -0.589,-0.198 v 0 l 0.243,-0.743 c 0.158,0.06 0.308,0.106 0.451,0.138 v 0 c 0.143,0.032 0.308,0.048 0.496,0.048 v 0 c 0.243,0 0.426,-0.053 0.55,-0.16 v 0 c 0.123,-0.106 0.185,-0.262 0.185,-0.467 v 0 -0.057 c -0.124,0.043 -0.25,0.076 -0.38,0.102 v 0 c -0.13,0.025 -0.283,0.039 -0.458,0.039 v 0 c -0.204,0 -0.391,-0.023 -0.559,-0.068 v 0 c -0.169,-0.045 -0.314,-0.111 -0.435,-0.201 v 0 c -0.122,-0.089 -0.216,-0.203 -0.285,-0.339 v 0 c -0.068,-0.136 -0.102,-0.298 -0.102,-0.486 v 0 -0.013 c 0,-0.17 0.031,-0.32 0.092,-0.451 v 0 c 0.063,-0.13 0.147,-0.239 0.253,-0.329 v 0 c 0.107,-0.09 0.232,-0.157 0.375,-0.201 v 0 c 0.142,-0.045 0.295,-0.068 0.457,-0.068 v 0 c 0.238,0 0.441,0.04 0.607,0.118 v 0 c 0.167,0.08 0.309,0.185 0.429,0.317 v 0 -0.371 h 0.939 v 1.989 c 0,0.231 -0.029,0.439 -0.089,0.624 v 0 c -0.059,0.185 -0.154,0.342 -0.281,0.47 v 0 c -0.124,0.123 -0.28,0.218 -0.47,0.284 v 0 c -0.19,0.066 -0.419,0.099 -0.688,0.099 v 0 c -0.289,0 -0.537,-0.025 -0.741,-0.076 m 0.204,-2.673 c -0.098,0.072 -0.147,0.174 -0.147,0.307 v 0 0.012 c 0,0.154 0.06,0.271 0.179,0.352 v 0 c 0.119,0.081 0.284,0.122 0.493,0.122 v 0 c 0.118,0 0.231,-0.012 0.335,-0.035 v 0 c 0.105,-0.024 0.199,-0.055 0.285,-0.093 v 0 -0.173 c 0,-0.179 -0.069,-0.324 -0.208,-0.435 v 0 c -0.139,-0.11 -0.323,-0.166 -0.553,-0.166 v 0 c -0.158,0 -0.286,0.036 -0.384,0.109"
               style="fill:url(#linearGradient6524);stroke:none"
               id="path6526"
               inkscape:connector-curvature="0" />
          </g>
        </g>
      </g>
    </g>
    <g
       transform="matrix(0.35277777,0,0,-0.35277777,-11.803211,374.70867)"
       id="g6528">
      <g
         id="g6530">
        <g
           id="g6536">
          <g
             id="g6538">
            <path
               d="m 330.702,597.579 c -0.098,-0.029 -0.187,-0.07 -0.268,-0.121 v 0 c -0.081,-0.052 -0.155,-0.11 -0.22,-0.176 v 0 c -0.067,-0.066 -0.128,-0.136 -0.183,-0.208 v 0 0.486 h -0.972 v -3.428 h 0.972 v 1.913 c 0,0.229 0.054,0.403 0.163,0.521 v 0 c 0.109,0.117 0.256,0.175 0.444,0.175 v 0 c 0.188,0 0.332,-0.058 0.435,-0.175 v 0 c 0.103,-0.118 0.154,-0.292 0.154,-0.521 v 0 -1.913 h 0.972 v 2.22 c 0,0.396 -0.102,0.707 -0.304,0.933 v 0 c -0.203,0.226 -0.489,0.339 -0.861,0.339 v 0 c -0.123,0 -0.234,-0.015 -0.332,-0.045"
               style="fill:url(#linearGradient6544);stroke:none"
               id="path6546"
               inkscape:connector-curvature="0" />
          </g>
        </g>
      </g>
    </g>
    <g
       transform="matrix(0.35277777,0,0,-0.35277777,-11.803211,374.70867)"
       id="g6548">
      <g
         id="g6550">
        <g
           id="g6556">
          <g
             id="g6558">
            <path
               d="m 334.366,597.579 c -0.098,-0.029 -0.187,-0.07 -0.268,-0.121 v 0 c -0.081,-0.052 -0.155,-0.11 -0.22,-0.176 v 0 c -0.067,-0.066 -0.127,-0.136 -0.183,-0.208 v 0 0.486 h -0.972 v -3.428 h 0.972 v 1.913 c 0,0.229 0.055,0.403 0.164,0.521 v 0 c 0.108,0.117 0.256,0.175 0.443,0.175 v 0 c 0.188,0 0.333,-0.058 0.436,-0.175 v 0 c 0.102,-0.118 0.153,-0.292 0.153,-0.521 v 0 -1.913 h 0.972 v 2.22 c 0,0.396 -0.101,0.707 -0.303,0.933 v 0 c -0.203,0.226 -0.49,0.339 -0.861,0.339 v 0 c -0.124,0 -0.235,-0.015 -0.333,-0.045"
               style="fill:url(#linearGradient6564);stroke:none"
               id="path6566"
               inkscape:connector-curvature="0" />
          </g>
        </g>
      </g>
    </g>
    <g
       transform="matrix(0.35277777,0,0,-0.35277777,-11.803211,374.70867)"
       id="g6568">
      <g
         id="g6570">
        <g
           id="g6576">
          <g
             id="g6578">
            <path
               d="m 337.228,597.483 c -0.207,-0.094 -0.385,-0.221 -0.534,-0.383 v 0 c -0.149,-0.162 -0.265,-0.352 -0.348,-0.569 v 0 c -0.084,-0.218 -0.125,-0.448 -0.125,-0.691 v 0 -0.013 c 0,-0.265 0.045,-0.504 0.134,-0.719 v 0 c 0.09,-0.216 0.214,-0.402 0.375,-0.56 v 0 c 0.159,-0.157 0.349,-0.279 0.568,-0.364 v 0 c 0.22,-0.086 0.458,-0.128 0.713,-0.128 v 0 c 0.312,0 0.583,0.056 0.813,0.169 v 0 c 0.23,0.113 0.426,0.27 0.589,0.47 v 0 l -0.558,0.492 c -0.136,-0.123 -0.268,-0.212 -0.396,-0.268 v 0 c -0.127,-0.056 -0.272,-0.083 -0.434,-0.083 v 0 c -0.218,0 -0.4,0.056 -0.548,0.169 v 0 c -0.146,0.113 -0.243,0.28 -0.29,0.503 v 0 h 2.385 c 0.004,0.046 0.008,0.091 0.01,0.134 v 0 c 0.001,0.042 0.003,0.082 0.003,0.121 v 0 c 0,0.243 -0.033,0.476 -0.1,0.7 v 0 c -0.065,0.224 -0.168,0.422 -0.307,0.595 v 0 c -0.138,0.173 -0.312,0.311 -0.521,0.412 v 0 c -0.208,0.103 -0.456,0.154 -0.741,0.154 v 0 c -0.252,0 -0.481,-0.047 -0.688,-0.141 m 0.192,-0.837 c 0.126,0.131 0.291,0.198 0.496,0.198 v 0 c 0.204,0 0.369,-0.068 0.492,-0.202 v 0 c 0.123,-0.134 0.201,-0.31 0.23,-0.527 v 0 h -1.464 c 0.038,0.221 0.121,0.399 0.246,0.531"
               style="fill:url(#linearGradient6584);stroke:none"
               id="path6586"
               inkscape:connector-curvature="0" />
          </g>
        </g>
      </g>
    </g>
    <g
       transform="matrix(0.35277777,0,0,-0.35277777,-11.803211,374.70867)"
       id="g6588">
      <g
         id="g6590">
        <g
           id="g6596">
          <g
             id="g6598">
            <path
               d="m 340.033,594.132 h 0.972 v 4.668 h -0.972 z"
               style="fill:url(#linearGradient6604);stroke:none"
               id="path6606"
               inkscape:connector-curvature="0" />
          </g>
        </g>
      </g>
    </g>
  </g>
</svg>
