<svg height="6.9088mm" viewBox="0 0 22.638807 6.9087996" width="22.638807mm" xmlns="http://www.w3.org/2000/svg" xmlns:xlink="http://www.w3.org/1999/xlink"><linearGradient id="a"><stop offset="0" stop-color="#53af32"/><stop offset="1" stop-color="#76b82a"/></linearGradient><linearGradient id="b" gradientTransform="matrix(.9720813 0 0 -.9720813 340.03245 596.46656)" gradientUnits="userSpaceOnUse" spreadMethod="pad" x1="0" x2="1" xlink:href="#a" y1="0" y2="0"/><linearGradient id="c" gradientTransform="matrix(3.3637931 0 0 -3.3637931 336.22108 595.83974)" gradientUnits="userSpaceOnUse" spreadMethod="pad" x1="0" x2="1" xlink:href="#a" y1="0" y2="0"/><linearGradient id="d" gradientTransform="matrix(3.1399161 0 0 -3.1399161 332.72308 595.87822)" gradientUnits="userSpaceOnUse" spreadMethod="pad" x1="0" x2="1" xlink:href="#a" y1="0" y2="0"/><linearGradient id="e" gradientTransform="matrix(3.1399161 0 0 -3.1399161 329.05886 595.87822)" gradientUnits="userSpaceOnUse" spreadMethod="pad" x1="0" x2="1" xlink:href="#a" y1="0" y2="0"/><linearGradient id="f" gradientTransform="matrix(3.1527879 0 0 -3.1527879 325.38805 595.83338)" gradientUnits="userSpaceOnUse" spreadMethod="pad" x1="0" x2="1" xlink:href="#a" y1="0" y2="0"/><linearGradient id="g" gradientTransform="matrix(3.1399161 0 0 -3.1399161 321.92843 596.46656)" gradientUnits="userSpaceOnUse" spreadMethod="pad" x1="0" x2="1" xlink:href="#a" y1="0" y2="0"/><linearGradient id="h" gradientTransform="matrix(4.1311967 0 0 -4.1311967 317.43268 596.37063)" gradientUnits="userSpaceOnUse" spreadMethod="pad" x1="0" x2="1" xlink:href="#a" y1="0" y2="0"/><linearGradient id="i" gradientTransform="matrix(3.3637931 0 0 -3.3637931 312.16331 595.83974)" gradientUnits="userSpaceOnUse" spreadMethod="pad" x1="0" x2="1" xlink:href="#a" y1="0" y2="0"/><linearGradient id="j" gradientTransform="matrix(2.7818485 0 0 -2.7818485 309.17042 595.83985)" gradientUnits="userSpaceOnUse" spreadMethod="pad" x1="0" x2="1" xlink:href="#a" y1="0" y2="0"/><linearGradient id="k" gradientTransform="matrix(3.3637931 0 0 -3.3637931 305.67242 595.83974)" gradientUnits="userSpaceOnUse" spreadMethod="pad" x1="0" x2="1" xlink:href="#a" y1="0" y2="0"/><linearGradient id="l" gradientTransform="matrix(3.1399161 0 0 -3.1399161 302.17441 595.87822)" gradientUnits="userSpaceOnUse" spreadMethod="pad" x1="0" x2="1" xlink:href="#a" y1="0" y2="0"/><linearGradient id="m" gradientTransform="matrix(1.0232719 0 0 -1.0232719 300.58197 596.46656)" gradientUnits="userSpaceOnUse" spreadMethod="pad" x1="0" x2="1" xlink:href="#a" y1="0" y2="0"/><linearGradient id="n" gradientTransform="matrix(3.1399161 0 0 -3.1399161 296.89856 596.46656)" gradientUnits="userSpaceOnUse" spreadMethod="pad" x1="0" x2="1" xlink:href="#a" y1="0" y2="0"/><linearGradient id="o" gradientTransform="matrix(4.1311967 0 0 -4.1311967 292.40282 596.37063)" gradientUnits="userSpaceOnUse" spreadMethod="pad" x1="0" x2="1" xlink:href="#a" y1="0" y2="0"/><linearGradient id="p" gradientTransform="matrix(2.065549 0 0 -2.065549 288.54673 595.87899)" gradientUnits="userSpaceOnUse" spreadMethod="pad" x1="0" x2="1" xlink:href="#a" y1="0" y2="0"/><linearGradient id="q" gradientTransform="matrix(3.1527879 0 0 -3.1527879 284.87596 595.83338)" gradientUnits="userSpaceOnUse" spreadMethod="pad" x1="0" x2="1" xlink:href="#a" y1="0" y2="0"/><linearGradient id="r" gradientTransform="matrix(2.1871525 0 0 -2.1871525 282.49711 596.2555)" gradientUnits="userSpaceOnUse" spreadMethod="pad" x1="0" x2="1" xlink:href="#a" y1="0" y2="0"/><linearGradient id="s" gradientTransform="matrix(3.5429145 0 0 -3.5429145 278.76873 596.37063)" gradientUnits="userSpaceOnUse" spreadMethod="pad" x1="0" x2="1" xlink:href="#a" y1="0" y2="0"/><linearGradient id="t" gradientTransform="matrix(24.736789 0 0 -24.736789 277.79999 607.38815)" gradientUnits="userSpaceOnUse" spreadMethod="pad" x1="0" x2="1" xlink:href="#a" y1="0" y2="0"/><linearGradient id="u" gradientTransform="matrix(1.9809166 0 0 -1.9809166 338.9721 604.19125)" gradientUnits="userSpaceOnUse" spreadMethod="pad" x1="0" x2="1" xlink:href="#a" y1="0" y2="0"/><linearGradient id="v" gradientTransform="matrix(8.7436873 0 0 -8.7436873 331.86886 602.27932)" gradientUnits="userSpaceOnUse" spreadMethod="pad" x1="0" x2="1" xlink:href="#a" y1="0" y2="0"/><linearGradient id="w" gradientTransform="matrix(8.7441582 0 0 -8.7441582 331.80878 606.10337)" gradientUnits="userSpaceOnUse" spreadMethod="pad" x1="0" x2="1" xlink:href="#a" y1="0" y2="0"/><linearGradient id="x" gradientTransform="matrix(1.9809166 0 0 -1.9809166 331.46889 604.19125)" gradientUnits="userSpaceOnUse" spreadMethod="pad" x1="0" x2="1" xlink:href="#a" y1="0" y2="0"/><linearGradient id="y" gradientTransform="matrix(11.385073 0 0 -11.385073 330.58825 609.76301)" gradientUnits="userSpaceOnUse" spreadMethod="pad" x1="0" x2="1" xlink:href="#a" y1="0" y2="0"/><linearGradient id="z" gradientTransform="matrix(11.840745 0 0 -11.840745 318.00249 607.21156)" gradientUnits="userSpaceOnUse" spreadMethod="pad" x1="0" x2="1" xlink:href="#a" y1="0" y2="0"/><linearGradient id="A" gradientTransform="matrix(1.987539 0 0 -1.987539 315.146 607.75609)" gradientUnits="userSpaceOnUse" spreadMethod="pad" x1="0" x2="1" xlink:href="#a" y1="0" y2="0"/><linearGradient id="B" gradientTransform="matrix(10.058498 0 0 -10.058498 306.73364 607.19371)" gradientUnits="userSpaceOnUse" spreadMethod="pad" x1="0" x2="1" xlink:href="#a" y1="0" y2="0"/><linearGradient id="C" gradientTransform="matrix(1.9875609 0 0 -1.9875609 306.39211 607.75609)" gradientUnits="userSpaceOnUse" spreadMethod="pad" x1="0" x2="1" xlink:href="#a" y1="0" y2="0"/><linearGradient id="D" gradientTransform="matrix(.3643522 0 0 -.3643522 304.28435 607.50077)" gradientUnits="userSpaceOnUse" spreadMethod="pad" x1="0" x2="1" xlink:href="#a" y1="0" y2="0"/><path d="m304.285 601.362h.364v12.278h-.364z" fill="url(#D)" transform="matrix(.35277777 0 0 -.35277777 -98.001665 216.47855)"/><path d="m306.392 610.672c.04-.194.061-.387.061-.581v-4.658c0-.194-.014-.392-.041-.593.656.411 1.312.819 1.968 1.222v3.4c-.669.403-1.332.806-1.988 1.21z" fill="url(#C)" transform="matrix(.35277777 0 0 -.35277777 -98.001665 216.47855)"/><path d="m310.648 611.979v-1.307h-3.915c.643-.387 1.279-.774 1.908-1.161h2.007v-3.497h-2.007c-.616-.388-1.233-.779-1.847-1.174h3.854v-3.303c.334.032.669.048 1.005.048.4 0 .802-.016 1.204-.048v3.303h3.935c-.643.395-1.272.786-1.887 1.174h-2.048v3.497h2.008c.616.387 1.237.774 1.867 1.161h-3.875v1.633c0 .105.06.19.181.255.093.048.14.092.14.133 0 .04-.081.06-.241.06-1.057 0-1.847.033-2.369.097.053-.307.08-.597.08-.871" fill="url(#B)" transform="matrix(.35277777 0 0 -.35277777 -98.001665 216.47855)"/><path d="m315.146 609.462v-3.4c.669-.403 1.331-.811 1.988-1.222-.041.201-.061.399-.061.593v4.658c0 .194.013.387.04.581-.655-.404-1.312-.807-1.967-1.21" fill="url(#A)" transform="matrix(.35277777 0 0 -.35277777 -98.001665 216.47855)"/><path d="m322.519 612.415c.318-.444.568-.924.748-1.441h-5.265l.499-1.161h7.367c-.041-1.178-.284-2.183-.728-3.013-.236-.468-.562-.912-.978-1.33-1.318 1.064-2.247 2.411-2.788 4.041-.582-.138-1.201-.231-1.852-.279.706-1.88 1.698-3.351 2.975-4.416.153-.121.312-.246.479-.376-1.374-.903-2.99-1.483-4.848-1.742.61-.322 1.165-.685 1.664-1.089 1.207.339 2.282.759 3.226 1.259.429.218.832.463 1.207.738 1.151-.678 2.635-1.335 4.453-1.972.347.499.736.927 1.165 1.282-1.762.387-3.232.936-4.411 1.645.249.251.486.517.707.8.833 1.096 1.429 2.581 1.79 4.452h1.311l.457 1.161h-4.682c-.208.67-.507 1.283-.894 1.841-.486-.154-1.02-.288-1.602-.4" fill="url(#z)" transform="matrix(.35277777 0 0 -.35277777 -98.001665 216.47855)"/><path d="m331.448 608.402h-.86c.094-.233.14-.448.14-.641 0-.194-.027-.383-.079-.569.026-.073.086-.109.179-.109.041 0 .121.036.241.109 2.8.194 5.696.407 8.684.641.186-.314.36-.629.52-.944.546.267 1.113.489 1.7.666-1.013 1.831-2.141 3.319-3.381 4.465-.333-.186-.834-.383-1.501-.593.76-.863 1.413-1.698 1.961-2.504-.16-.008-.32-.016-.48-.024-2.134-.195-3.789-.333-4.963-.413l2.382 3.752c.133.055.2.1.2.133 0 .048-.067.076-.2.085-.827.056-1.508.116-2.042.181-.546-1.235-1.38-2.646-2.501-4.235" fill="url(#y)" transform="matrix(.35277777 0 0 -.35277777 -98.001665 216.47855)"/><path d="m331.469 606.648c.04-.178.06-.359.06-.545v-3.823c0-.177-.014-.36-.04-.545.652.378 1.307.758 1.961 1.137v2.638c-.668.379-1.328.759-1.981 1.138z" fill="url(#x)" transform="matrix(.35277777 0 0 -.35277777 -98.001665 216.47855)"/><path d="m331.808 606.648c.641-.363 1.275-.726 1.901-1.089h4.983c.613.363 1.234.726 1.861 1.089z" fill="url(#w)" transform="matrix(.35277777 0 0 -.35277777 -98.001665 216.47855)"/><path d="m333.709 602.824c-.613-.363-1.227-.727-1.84-1.089h8.743c-.64.362-1.266.726-1.88 1.089z" fill="url(#v)" transform="matrix(.35277777 0 0 -.35277777 -98.001665 216.47855)"/><path d="m338.972 605.51v-2.638c.667-.379 1.328-.759 1.981-1.137-.04.178-.06.359-.06.545v3.823c0 .177.013.359.041.545-.655-.379-1.308-.759-1.962-1.138" fill="url(#u)" transform="matrix(.35277777 0 0 -.35277777 -98.001665 216.47855)"/><path d="m283.732 613.415-.312-.539h-1.572v-.721h1.156l-.882-1.528h-1.658l1.402 2.428h-1.889l-1.817-3.148h1.821l-2.181-3.779h1.349v-4.767h1.889v7.105l.832 1.441h6.185v-8.546h1.889v3.148h1.889l.72 1.248v-4.396h1.888v4.138l.9 1.558v-1.828h1.603l-2.233-3.868h1.889l1.439 2.493v-2.493h2.681l1.817 3.148h-1.889l-.719-1.246v1.966h1.709v7.826h-6.297v-2.428h-8.006v2.249h-2.026l.311.539zm13.498-1.079h2.519v-7.107h-.916l.52.899h-1.889l-.234-.405v1.754h1.639l.52.901h-2.159v1.529h1.639l.52.9h-2.159zm-12.336-.181h.552v-1.528h-1.435zm10.447-1.569v-3.109h-1.794zm-5.397-.679h3.115l-3.115-5.398zm2.609 3.148-1.143-1.978h1.889l1.142 1.978zm-3.599 0-1.142-1.978h1.889l1.142 1.978zm-7.196-6.927h5.577v3.059h-5.577zm1.889 2.34h1.799v-1.62h-1.799zm.9-2.61v-.629h-2.789v-3.058h2.789v-.81h1.889v.81h.899v.72h-.899v1.618h.899v.72h-.899v.629zm-.9-1.349h.9v-1.618h-.9z" fill="url(#t)" transform="matrix(.35277777 0 0 -.35277777 -98.001665 216.47855)"/><path d="m279.881 598.576c-.192-.063-.356-.154-.495-.274-.139-.12-.247-.261-.323-.426-.077-.164-.115-.348-.115-.552v-.013c0-.222.035-.408.105-.557.07-.149.169-.274.298-.374.128-.1.283-.184.466-.252.184-.069.388-.13.615-.186.187-.047.339-.092.457-.134.117-.043.209-.085.275-.128.065-.043.11-.089.134-.137.023-.05.035-.106.035-.17v-.013c0-.132-.056-.235-.169-.31-.113-.074-.272-.112-.477-.112-.255 0-.491.049-.706.147-.216.098-.426.231-.63.396l-.582-.696c.268-.243.567-.423.895-.541.329-.117.663-.176 1.004-.176.243 0 .465.031.665.093.2.062.373.151.518.268.145.118.258.263.339.436.081.173.122.369.122.591v.013c0 .196-.032.364-.093.506-.062.14-.154.262-.275.367-.122.104-.271.194-.447.268-.178.075-.379.142-.605.202-.192.051-.351.096-.476.134-.126.038-.225.079-.298.122-.072.042-.123.09-.151.143-.027.054-.041.116-.041.189v.013c0 .11.048.203.144.278.096.075.24.112.432.112.192 0 .383-.039.575-.118.192-.08.388-.187.589-.323l.511.742c-.23.183-.482.324-.758.422-.274.098-.576.147-.904.147-.231 0-.441-.032-.634-.097" fill="url(#s)" transform="matrix(.35277777 0 0 -.35277777 -98.001665 216.47855)"/><path d="m282.906 598.436v-.876h-.409v-.831h.409v-1.625c0-.2.025-.365.074-.495.049-.13.117-.236.204-.317.088-.081.193-.137.314-.17.122-.031.257-.047.406-.047.162 0 .305.018.428.054.124.037.237.084.34.144v.78c-.15-.081-.31-.122-.48-.122-.209 0-.314.111-.314.333v1.465h.806v.831h-.806v.876z" fill="url(#r)" transform="matrix(.35277777 0 0 -.35277777 -98.001665 216.47855)"/><path d="m285.758 597.522c-.204-.052-.4-.117-.588-.198l.243-.743c.158.06.308.106.451.138.143.032.308.048.495.048.243 0 .427-.053.55-.16.124-.106.186-.262.186-.467v-.057c-.124.043-.251.076-.38.102-.131.025-.283.039-.457.039-.206 0-.392-.023-.56-.068-.169-.045-.313-.111-.435-.201-.121-.089-.217-.203-.285-.339-.068-.136-.102-.298-.102-.486v-.013c0-.17.031-.32.093-.451.062-.13.146-.239.253-.329.106-.09.23-.157.373-.201.143-.045.295-.068.457-.068.239 0 .442.04.608.118.166.08.309.185.428.317v-.371h.941v1.989c0 .231-.03.439-.09.624-.06.185-.153.342-.281.47-.124.123-.281.218-.47.284-.19.066-.419.099-.687.099-.29 0-.538-.025-.743-.076m.205-2.673c-.098.072-.147.174-.147.307v.012c0 .154.06.271.179.352.12.081.283.122.492.122.12 0 .231-.012.336-.035.105-.024.2-.055.285-.093v-.173c0-.179-.069-.324-.208-.435-.138-.11-.323-.166-.553-.166-.158 0-.286.036-.384.109" fill="url(#q)" transform="matrix(.35277777 0 0 -.35277777 -98.001665 216.47855)"/><path d="m289.921 597.433c-.17-.142-.305-.329-.403-.564v.691h-.972v-3.428h.972v1.267c0 .413.093.718.279.914.186.196.44.294.764.294h.052v1.017c-.025.001-.048.002-.071.002-.258 0-.464-.065-.621-.193" fill="url(#p)" transform="matrix(.35277777 0 0 -.35277777 -98.001665 216.47855)"/><path d="m293.791 598.504c-.286-.122-.531-.288-.736-.499-.205-.212-.364-.456-.479-.736-.116-.279-.173-.579-.173-.898v-.013c0-.319.057-.62.173-.902.115-.282.274-.525.479-.732.205-.207.448-.37.729-.489.281-.12.586-.179.915-.179.217 0 .413.018.588.054.175.036.336.09.483.16.146.07.282.155.406.252.124.098.243.21.358.333l-.627.633c-.174-.162-.351-.29-.527-.384-.177-.093-.393-.14-.649-.14-.193 0-.368.037-.528.112-.16.074-.296.176-.41.304-.112.128-.2.277-.264.447-.064.171-.097.352-.097.544v.012c0 .192.033.373.097.541.064.168.153.316.268.445.115.127.253.227.412.3.16.072.334.108.522.108.226 0 .429-.044.61-.134.181-.089.359-.213.534-.371l.627.723c-.102.102-.213.196-.333.281-.118.085-.249.158-.389.218-.142.059-.298.106-.47.141-.173.033-.364.05-.573.05-.345 0-.661-.06-.946-.181" fill="url(#o)" transform="matrix(.35277777 0 0 -.35277777 -98.001665 216.47855)"/><path d="m296.898 598.801v-4.669h.972v1.913c0 .229.055.403.164.521.108.117.257.175.444.175.188 0 .333-.058.435-.175.102-.118.153-.292.153-.521v-1.913h.972v2.22c0 .396-.1.707-.303.933-.202.226-.49.339-.86.339-.124 0-.235-.015-.332-.045-.099-.029-.189-.07-.27-.121-.08-.052-.154-.11-.22-.176-.067-.066-.127-.136-.183-.208v1.727z" fill="url(#n)" transform="matrix(.35277777 0 0 -.35277777 -98.001665 216.47855)"/><path d="m300.582 597.937h1.023v.863h-1.023zm.025-3.805h.973v3.428h-.973z" fill="url(#m)" transform="matrix(.35277777 0 0 -.35277777 -98.001665 216.47855)"/><path d="m303.818 597.579c-.099-.029-.188-.07-.269-.121-.081-.052-.154-.11-.22-.176-.067-.066-.127-.136-.183-.208v.486h-.972v-3.428h.972v1.913c0 .229.055.403.164.521.108.117.256.175.444.175.188 0 .333-.058.435-.175.102-.118.153-.292.153-.521v-1.913h.972v2.22c0 .396-.101.707-.303.933-.203.226-.49.339-.861.339-.123 0-.234-.015-.332-.045" fill="url(#l)" transform="matrix(.35277777 0 0 -.35277777 -98.001665 216.47855)"/><path d="m306.68 597.483c-.207-.094-.386-.221-.534-.383-.15-.162-.266-.352-.349-.569-.083-.218-.125-.448-.125-.691v-.013c0-.265.045-.504.134-.719.09-.216.215-.402.375-.56.159-.157.349-.279.569-.364.219-.086.457-.128.713-.128.311 0 .582.056.812.169.231.113.427.27.589.47l-.557.492c-.136-.123-.269-.212-.396-.268-.128-.056-.273-.083-.435-.083-.218 0-.4.056-.547.169-.147.113-.244.28-.291.503h2.385c.005.046.007.091.01.134.002.042.003.082.003.121 0 .243-.033.476-.099.7-.066.224-.169.422-.307.595-.139.173-.312.311-.521.412-.209.103-.457.154-.742.154-.252 0-.48-.047-.687-.141m.191-.837c.126.131.292.198.496.198.204 0 .369-.068.492-.202.124-.134.201-.31.231-.527h-1.465c.038.221.12.399.246.531" fill="url(#k)" transform="matrix(.35277777 0 0 -.35277777 -98.001665 216.47855)"/><path d="m310.108 597.541c-.152-.047-.284-.117-.397-.211-.113-.094-.203-.208-.268-.342-.067-.135-.099-.289-.099-.464v-.013c0-.166.03-.307.092-.422.061-.114.141-.212.24-.291.098-.079.207-.143.329-.191.121-.05.242-.091.361-.126.094-.029.183-.057.269-.082.085-.026.161-.053.227-.081.066-.027.119-.06.156-.099.039-.038.058-.082.058-.134v-.013c0-.077-.033-.138-.099-.186-.066-.046-.169-.07-.31-.07-.163 0-.336.034-.522.103-.185.068-.371.17-.559.307l-.415-.64c.23-.178.471-.31.725-.393.254-.083.502-.125.745-.125.184 0 .355.023.515.068.16.044.3.111.419.201.119.09.212.204.279.343.065.138.099.303.099.494v.013c0 .158-.033.293-.097.403-.064.111-.145.205-.243.282-.098.076-.209.141-.332.194-.124.054-.246.1-.364.138-.095.03-.183.06-.266.09-.083.03-.156.06-.221.093-.064.031-.115.065-.153.101-.039.037-.058.079-.058.126v.012c0 .069.03.125.089.169.061.045.15.068.269.068.124 0 .267-.029.429-.087.162-.057.328-.135.498-.233l.371.672c-.187.123-.393.22-.616.29-.224.071-.445.107-.663.107-.174 0-.337-.024-.488-.071" fill="url(#j)" transform="matrix(.35277777 0 0 -.35277777 -98.001665 216.47855)"/><path d="m313.17 597.483c-.207-.094-.384-.221-.533-.383-.15-.162-.266-.352-.349-.569-.083-.218-.125-.448-.125-.691v-.013c0-.265.045-.504.134-.719.09-.216.215-.402.375-.56.16-.157.349-.279.568-.364.22-.086.458-.128.714-.128.311 0 .582.056.812.169.23.113.427.27.589.47l-.557.492c-.136-.123-.269-.212-.397-.268-.127-.056-.272-.083-.434-.083-.218 0-.4.056-.547.169-.147.113-.244.28-.291.503h2.385c.004.046.008.091.01.134.002.042.003.082.003.121 0 .243-.033.476-.1.7-.065.224-.168.422-.306.595-.139.173-.313.311-.522.412-.208.103-.456.154-.741.154-.252 0-.481-.047-.688-.141m.192-.837c.126.131.292.198.496.198.204 0 .369-.068.492-.202.124-.134.201-.31.231-.527h-1.465c.038.221.121.399.246.531" fill="url(#i)" transform="matrix(.35277777 0 0 -.35277777 -98.001665 216.47855)"/><path d="m318.82 598.504c-.285-.122-.531-.288-.735-.499-.205-.212-.364-.456-.48-.736-.115-.279-.172-.579-.172-.898v-.013c0-.319.057-.62.172-.902.116-.282.275-.525.48-.732.204-.207.448-.37.729-.489.282-.12.586-.179.915-.179.216 0 .413.018.588.054.175.036.336.09.483.16.147.07.282.155.406.252.124.098.242.21.358.333l-.627.633c-.174-.162-.351-.29-.527-.384-.177-.093-.393-.14-.649-.14-.193 0-.368.037-.528.112-.16.074-.296.176-.41.304-.112.128-.201.277-.264.447-.064.171-.097.352-.097.544v.012c0 .192.033.373.097.541.063.168.153.316.268.445.115.127.253.227.412.3.16.072.334.108.522.108.225 0 .429-.044.61-.134.181-.089.359-.213.534-.371l.627.723c-.102.102-.213.196-.333.281-.119.085-.249.158-.39.218-.141.059-.297.106-.469.141-.173.033-.364.05-.573.05-.345 0-.661-.06-.947-.181" fill="url(#h)" transform="matrix(.35277777 0 0 -.35277777 -98.001665 216.47855)"/><path d="m321.928 598.801v-4.669h.972v1.913c0 .229.055.403.163.521.109.117.257.175.445.175.188 0 .333-.058.435-.175.102-.118.153-.292.153-.521v-1.913h.972v2.22c0 .396-.101.707-.303.933-.203.226-.49.339-.86.339-.125 0-.235-.015-.333-.045-.099-.029-.188-.07-.269-.121-.081-.052-.154-.11-.22-.176-.067-.066-.127-.136-.183-.208v1.727z" fill="url(#g)" transform="matrix(.35277777 0 0 -.35277777 -98.001665 216.47855)"/><path d="m326.271 597.522c-.205-.052-.401-.117-.589-.198l.243-.743c.158.06.308.106.451.138.143.032.308.048.496.048.243 0 .426-.053.55-.16.123-.106.185-.262.185-.467v-.057c-.124.043-.25.076-.38.102-.13.025-.283.039-.458.039-.204 0-.391-.023-.559-.068-.169-.045-.314-.111-.435-.201-.122-.089-.216-.203-.285-.339-.068-.136-.102-.298-.102-.486v-.013c0-.17.031-.32.092-.451.063-.13.147-.239.253-.329.107-.09.232-.157.375-.201.142-.045.295-.068.457-.068.238 0 .441.04.607.118.167.08.309.185.429.317v-.371h.939v1.989c0 .231-.029.439-.089.624-.059.185-.154.342-.281.47-.124.123-.28.218-.47.284-.19.066-.419.099-.688.099-.289 0-.537-.025-.741-.076m.204-2.673c-.098.072-.147.174-.147.307v.012c0 .154.06.271.179.352.119.081.284.122.493.122.118 0 .231-.012.335-.035.105-.024.199-.055.285-.093v-.173c0-.179-.069-.324-.208-.435-.139-.11-.323-.166-.553-.166-.158 0-.286.036-.384.109" fill="url(#f)" transform="matrix(.35277777 0 0 -.35277777 -98.001665 216.47855)"/><path d="m330.702 597.579c-.098-.029-.187-.07-.268-.121-.081-.052-.155-.11-.22-.176-.067-.066-.128-.136-.183-.208v.486h-.972v-3.428h.972v1.913c0 .229.054.403.163.521.109.117.256.175.444.175.188 0 .332-.058.435-.175.103-.118.154-.292.154-.521v-1.913h.972v2.22c0 .396-.102.707-.304.933-.203.226-.489.339-.861.339-.123 0-.234-.015-.332-.045" fill="url(#e)" transform="matrix(.35277777 0 0 -.35277777 -98.001665 216.47855)"/><path d="m334.366 597.579c-.098-.029-.187-.07-.268-.121-.081-.052-.155-.11-.22-.176-.067-.066-.127-.136-.183-.208v.486h-.972v-3.428h.972v1.913c0 .229.055.403.164.521.108.117.256.175.443.175.188 0 .333-.058.436-.175.102-.118.153-.292.153-.521v-1.913h.972v2.22c0 .396-.101.707-.303.933-.203.226-.49.339-.861.339-.124 0-.235-.015-.333-.045" fill="url(#d)" transform="matrix(.35277777 0 0 -.35277777 -98.001665 216.47855)"/><path d="m337.228 597.483c-.207-.094-.385-.221-.534-.383-.149-.162-.265-.352-.348-.569-.084-.218-.125-.448-.125-.691v-.013c0-.265.045-.504.134-.719.09-.216.214-.402.375-.56.159-.157.349-.279.568-.364.22-.086.458-.128.713-.128.312 0 .583.056.813.169.23.113.426.27.589.47l-.558.492c-.136-.123-.268-.212-.396-.268-.127-.056-.272-.083-.434-.083-.218 0-.4.056-.548.169-.146.113-.243.28-.29.503h2.385c.004.046.008.091.01.134.001.042.003.082.003.121 0 .243-.033.476-.1.7-.065.224-.168.422-.307.595-.138.173-.312.311-.521.412-.208.103-.456.154-.741.154-.252 0-.481-.047-.688-.141m.192-.837c.126.131.291.198.496.198.204 0 .369-.068.492-.202.123-.134.201-.31.23-.527h-1.464c.038.221.121.399.246.531" fill="url(#c)" transform="matrix(.35277777 0 0 -.35277777 -98.001665 216.47855)"/><path d="m340.033 594.132h.972v4.668h-.972z" fill="url(#b)" transform="matrix(.35277777 0 0 -.35277777 -98.001665 216.47855)"/></svg>