<?xml version="1.0" encoding="UTF-8"?>
<!-- Created with Inkscape (http://www.inkscape.org/) -->
<svg id="svg11821" width="22.639mm" height="6.9088mm" version="1.1" viewBox="0 0 22.639 6.9088" xmlns="http://www.w3.org/2000/svg" xmlns:cc="http://creativecommons.org/ns#" xmlns:dc="http://purl.org/dc/elements/1.1/" xmlns:rdf="http://www.w3.org/1999/02/22-rdf-syntax-ns#">
 <defs id="defs11815">
  <linearGradient id="linearGradient6604" x2="1" gradientTransform="matrix(.97208 0 0 -.97208 340.03 596.47)" gradientUnits="userSpaceOnUse">
   <stop id="stop6600" stop-color="#53af32" offset="0"/>
   <stop id="stop6602" stop-color="#76b82a" offset="1"/>
  </linearGradient>
  <linearGradient id="linearGradient6584" x2="1" gradientTransform="matrix(3.3638 0 0 -3.3638 336.22 595.84)" gradientUnits="userSpaceOnUse">
   <stop id="stop6580" stop-color="#53af32" offset="0"/>
   <stop id="stop6582" stop-color="#76b82a" offset="1"/>
  </linearGradient>
  <linearGradient id="linearGradient6564" x2="1" gradientTransform="matrix(3.1399 0 0 -3.1399 332.72 595.88)" gradientUnits="userSpaceOnUse">
   <stop id="stop6560" stop-color="#53af32" offset="0"/>
   <stop id="stop6562" stop-color="#76b82a" offset="1"/>
  </linearGradient>
  <linearGradient id="linearGradient6544" x2="1" gradientTransform="matrix(3.1399 0 0 -3.1399 329.06 595.88)" gradientUnits="userSpaceOnUse">
   <stop id="stop6540" stop-color="#53af32" offset="0"/>
   <stop id="stop6542" stop-color="#76b82a" offset="1"/>
  </linearGradient>
  <linearGradient id="linearGradient6524" x2="1" gradientTransform="matrix(3.1528 0 0 -3.1528 325.39 595.83)" gradientUnits="userSpaceOnUse">
   <stop id="stop6520" stop-color="#53af32" offset="0"/>
   <stop id="stop6522" stop-color="#76b82a" offset="1"/>
  </linearGradient>
  <linearGradient id="linearGradient6504" x2="1" gradientTransform="matrix(3.1399 0 0 -3.1399 321.93 596.47)" gradientUnits="userSpaceOnUse">
   <stop id="stop6500" stop-color="#53af32" offset="0"/>
   <stop id="stop6502" stop-color="#76b82a" offset="1"/>
  </linearGradient>
  <linearGradient id="linearGradient6484" x2="1" gradientTransform="matrix(4.1312 0 0 -4.1312 317.43 596.37)" gradientUnits="userSpaceOnUse">
   <stop id="stop6480" stop-color="#53af32" offset="0"/>
   <stop id="stop6482" stop-color="#76b82a" offset="1"/>
  </linearGradient>
  <linearGradient id="linearGradient6464" x2="1" gradientTransform="matrix(3.3638 0 0 -3.3638 312.16 595.84)" gradientUnits="userSpaceOnUse">
   <stop id="stop6460" stop-color="#53af32" offset="0"/>
   <stop id="stop6462" stop-color="#76b82a" offset="1"/>
  </linearGradient>
  <linearGradient id="linearGradient6444" x2="1" gradientTransform="matrix(2.7818 0 0 -2.7818 309.17 595.84)" gradientUnits="userSpaceOnUse">
   <stop id="stop6440" stop-color="#53af32" offset="0"/>
   <stop id="stop6442" stop-color="#76b82a" offset="1"/>
  </linearGradient>
  <linearGradient id="linearGradient6424" x2="1" gradientTransform="matrix(3.3638 0 0 -3.3638 305.67 595.84)" gradientUnits="userSpaceOnUse">
   <stop id="stop6420" stop-color="#53af32" offset="0"/>
   <stop id="stop6422" stop-color="#76b82a" offset="1"/>
  </linearGradient>
  <linearGradient id="linearGradient6404" x2="1" gradientTransform="matrix(3.1399 0 0 -3.1399 302.17 595.88)" gradientUnits="userSpaceOnUse">
   <stop id="stop6400" stop-color="#53af32" offset="0"/>
   <stop id="stop6402" stop-color="#76b82a" offset="1"/>
  </linearGradient>
  <linearGradient id="linearGradient6384" x2="1" gradientTransform="matrix(1.0233 0 0 -1.0233 300.58 596.47)" gradientUnits="userSpaceOnUse">
   <stop id="stop6380" stop-color="#53af32" offset="0"/>
   <stop id="stop6382" stop-color="#76b82a" offset="1"/>
  </linearGradient>
  <linearGradient id="linearGradient6364" x2="1" gradientTransform="matrix(3.1399 0 0 -3.1399 296.9 596.47)" gradientUnits="userSpaceOnUse">
   <stop id="stop6360" stop-color="#53af32" offset="0"/>
   <stop id="stop6362" stop-color="#76b82a" offset="1"/>
  </linearGradient>
  <linearGradient id="linearGradient6344" x2="1" gradientTransform="matrix(4.1312 0 0 -4.1312 292.4 596.37)" gradientUnits="userSpaceOnUse">
   <stop id="stop6340" stop-color="#53af32" offset="0"/>
   <stop id="stop6342" stop-color="#76b82a" offset="1"/>
  </linearGradient>
  <linearGradient id="linearGradient6324" x2="1" gradientTransform="matrix(2.0655 0 0 -2.0655 288.55 595.88)" gradientUnits="userSpaceOnUse">
   <stop id="stop6320" stop-color="#53af32" offset="0"/>
   <stop id="stop6322" stop-color="#76b82a" offset="1"/>
  </linearGradient>
  <linearGradient id="linearGradient6304" x2="1" gradientTransform="matrix(3.1528 0 0 -3.1528 284.88 595.83)" gradientUnits="userSpaceOnUse">
   <stop id="stop6300" stop-color="#53af32" offset="0"/>
   <stop id="stop6302" stop-color="#76b82a" offset="1"/>
  </linearGradient>
  <linearGradient id="linearGradient6284" x2="1" gradientTransform="matrix(2.1872 0 0 -2.1872 282.5 596.26)" gradientUnits="userSpaceOnUse">
   <stop id="stop6280" stop-color="#53af32" offset="0"/>
   <stop id="stop6282" stop-color="#76b82a" offset="1"/>
  </linearGradient>
  <linearGradient id="linearGradient6264" x2="1" gradientTransform="matrix(3.5429 0 0 -3.5429 278.77 596.37)" gradientUnits="userSpaceOnUse">
   <stop id="stop6260" stop-color="#53af32" offset="0"/>
   <stop id="stop6262" stop-color="#76b82a" offset="1"/>
  </linearGradient>
  <linearGradient id="linearGradient6244" x2="1" gradientTransform="matrix(24.737 0 0 -24.737 277.8 607.39)" gradientUnits="userSpaceOnUse">
   <stop id="stop6240" stop-color="#53af32" offset="0"/>
   <stop id="stop6242" stop-color="#76b82a" offset="1"/>
  </linearGradient>
  <linearGradient id="linearGradient6224" x2="1" gradientTransform="matrix(1.9809 0 0 -1.9809 338.97 604.19)" gradientUnits="userSpaceOnUse">
   <stop id="stop6220" stop-color="#53af32" offset="0"/>
   <stop id="stop6222" stop-color="#76b82a" offset="1"/>
  </linearGradient>
  <linearGradient id="linearGradient6204" x2="1" gradientTransform="matrix(8.7437 0 0 -8.7437 331.87 602.28)" gradientUnits="userSpaceOnUse">
   <stop id="stop6200" stop-color="#53af32" offset="0"/>
   <stop id="stop6202" stop-color="#76b82a" offset="1"/>
  </linearGradient>
  <linearGradient id="linearGradient6184" x2="1" gradientTransform="matrix(8.7442 0 0 -8.7442 331.81 606.1)" gradientUnits="userSpaceOnUse">
   <stop id="stop6180" stop-color="#53af32" offset="0"/>
   <stop id="stop6182" stop-color="#76b82a" offset="1"/>
  </linearGradient>
  <linearGradient id="linearGradient6164" x2="1" gradientTransform="matrix(1.9809 0 0 -1.9809 331.47 604.19)" gradientUnits="userSpaceOnUse">
   <stop id="stop6160" stop-color="#53af32" offset="0"/>
   <stop id="stop6162" stop-color="#76b82a" offset="1"/>
  </linearGradient>
  <linearGradient id="linearGradient6144" x2="1" gradientTransform="matrix(11.385 0 0 -11.385 330.59 609.76)" gradientUnits="userSpaceOnUse">
   <stop id="stop6140" stop-color="#53af32" offset="0"/>
   <stop id="stop6142" stop-color="#76b82a" offset="1"/>
  </linearGradient>
  <linearGradient id="linearGradient6124" x2="1" gradientTransform="matrix(11.841 0 0 -11.841 318 607.21)" gradientUnits="userSpaceOnUse">
   <stop id="stop6120" stop-color="#53af32" offset="0"/>
   <stop id="stop6122" stop-color="#76b82a" offset="1"/>
  </linearGradient>
  <linearGradient id="linearGradient6104" x2="1" gradientTransform="matrix(1.9875 0 0 -1.9875 315.15 607.76)" gradientUnits="userSpaceOnUse">
   <stop id="stop6100" stop-color="#53af32" offset="0"/>
   <stop id="stop6102" stop-color="#76b82a" offset="1"/>
  </linearGradient>
  <linearGradient id="linearGradient6084" x2="1" gradientTransform="matrix(10.058 0 0 -10.058 306.73 607.19)" gradientUnits="userSpaceOnUse">
   <stop id="stop6080" stop-color="#53af32" offset="0"/>
   <stop id="stop6082" stop-color="#76b82a" offset="1"/>
  </linearGradient>
  <linearGradient id="linearGradient6064" x2="1" gradientTransform="matrix(1.9876 0 0 -1.9876 306.39 607.76)" gradientUnits="userSpaceOnUse">
   <stop id="stop6060" stop-color="#53af32" offset="0"/>
   <stop id="stop6062" stop-color="#76b82a" offset="1"/>
  </linearGradient>
  <linearGradient id="linearGradient6044" x2="1" gradientTransform="matrix(.36435 0 0 -.36435 304.28 607.5)" gradientUnits="userSpaceOnUse">
   <stop id="stop6040" stop-color="#53af32" offset="0"/>
   <stop id="stop6042" stop-color="#76b82a" offset="1"/>
  </linearGradient>
 </defs>
 <metadata id="metadata11818">
  <rdf:RDF>
   <cc:Work rdf:about="">
    <dc:format>image/svg+xml</dc:format>
    <dc:type rdf:resource="http://purl.org/dc/dcmitype/StillImage"/>
    <dc:title/>
   </cc:Work>
  </rdf:RDF>
 </metadata>
 <g id="layer1" transform="translate(-86.198 -158.23)">
  <g id="g6028" transform="matrix(.35278 0 0 -.35278 -11.803 374.71)">
   <g id="g6030">
    <g id="g6036">
     <g id="g6038">
      <path id="path6046" d="m304.28 601.36h0.364v12.278h-0.364z" fill="url(#linearGradient6044)"/>
     </g>
    </g>
   </g>
  </g>
  <g id="g6048" transform="matrix(.35278 0 0 -.35278 -11.803 374.71)">
   <g id="g6050">
    <g id="g6056">
     <g id="g6058">
      <path id="path6066" d="m306.39 610.67c0.04-0.194 0.061-0.387 0.061-0.581v-4.658c0-0.194-0.014-0.392-0.041-0.593 0.656 0.411 1.312 0.819 1.968 1.222v3.4c-0.669 0.403-1.332 0.806-1.988 1.21z" fill="url(#linearGradient6064)"/>
     </g>
    </g>
   </g>
  </g>
  <g id="g6068" transform="matrix(.35278 0 0 -.35278 -11.803 374.71)">
   <g id="g6070">
    <g id="g6076">
     <g id="g6078">
      <path id="path6086" d="m310.65 611.98v-1.307h-3.915c0.643-0.387 1.279-0.774 1.908-1.161h2.007v-3.497h-2.007c-0.616-0.388-1.233-0.779-1.847-1.174h3.854v-3.303c0.334 0.032 0.669 0.048 1.005 0.048 0.4 0 0.802-0.016 1.204-0.048v3.303h3.935c-0.643 0.395-1.272 0.786-1.887 1.174h-2.048v3.497h2.008c0.616 0.387 1.237 0.774 1.867 1.161h-3.875v1.633c0 0.105 0.06 0.19 0.181 0.255 0.093 0.048 0.14 0.092 0.14 0.133 0 0.04-0.081 0.06-0.241 0.06-1.057 0-1.847 0.033-2.369 0.097 0.053-0.307 0.08-0.597 0.08-0.871" fill="url(#linearGradient6084)"/>
     </g>
    </g>
   </g>
  </g>
  <g id="g6088" transform="matrix(.35278 0 0 -.35278 -11.803 374.71)">
   <g id="g6090">
    <g id="g6096">
     <g id="g6098">
      <path id="path6106" d="m315.15 609.46v-3.4c0.669-0.403 1.331-0.811 1.988-1.222-0.041 0.201-0.061 0.399-0.061 0.593v4.658c0 0.194 0.013 0.387 0.04 0.581-0.655-0.404-1.312-0.807-1.967-1.21" fill="url(#linearGradient6104)"/>
     </g>
    </g>
   </g>
  </g>
  <g id="g6108" transform="matrix(.35278 0 0 -.35278 -11.803 374.71)">
   <g id="g6110">
    <g id="g6116">
     <g id="g6118">
      <path id="path6126" d="m322.52 612.42c0.318-0.444 0.568-0.924 0.748-1.441h-5.265l0.499-1.161h7.367c-0.041-1.178-0.284-2.183-0.728-3.013-0.236-0.468-0.562-0.912-0.978-1.33-1.318 1.064-2.247 2.411-2.788 4.041-0.582-0.138-1.201-0.231-1.852-0.279 0.706-1.88 1.698-3.351 2.975-4.416 0.153-0.121 0.312-0.246 0.479-0.376-1.374-0.903-2.99-1.483-4.848-1.742 0.61-0.322 1.165-0.685 1.664-1.089 1.207 0.339 2.282 0.759 3.226 1.259 0.429 0.218 0.832 0.463 1.207 0.738 1.151-0.678 2.635-1.335 4.453-1.972 0.347 0.499 0.736 0.927 1.165 1.282-1.762 0.387-3.232 0.936-4.411 1.645 0.249 0.251 0.486 0.517 0.707 0.8 0.833 1.096 1.429 2.581 1.79 4.452h1.311l0.457 1.161h-4.682c-0.208 0.67-0.507 1.283-0.894 1.841-0.486-0.154-1.02-0.288-1.602-0.4" fill="url(#linearGradient6124)"/>
     </g>
    </g>
   </g>
  </g>
  <g id="g6128" transform="matrix(.35278 0 0 -.35278 -11.803 374.71)">
   <g id="g6130">
    <g id="g6136">
     <g id="g6138">
      <path id="path6146" d="m331.45 608.4h-0.86c0.094-0.233 0.14-0.448 0.14-0.641 0-0.194-0.027-0.383-0.079-0.569 0.026-0.073 0.086-0.109 0.179-0.109 0.041 0 0.121 0.036 0.241 0.109 2.8 0.194 5.696 0.407 8.684 0.641 0.186-0.314 0.36-0.629 0.52-0.944 0.546 0.267 1.113 0.489 1.7 0.666-1.013 1.831-2.141 3.319-3.381 4.465-0.333-0.186-0.834-0.383-1.501-0.593 0.76-0.863 1.413-1.698 1.961-2.504l-0.48-0.024c-2.134-0.195-3.789-0.333-4.963-0.413l2.382 3.752c0.133 0.055 0.2 0.1 0.2 0.133 0 0.048-0.067 0.076-0.2 0.085-0.827 0.056-1.508 0.116-2.042 0.181-0.546-1.235-1.38-2.646-2.501-4.235" fill="url(#linearGradient6144)"/>
     </g>
    </g>
   </g>
  </g>
  <g id="g6148" transform="matrix(.35278 0 0 -.35278 -11.803 374.71)">
   <g id="g6150">
    <g id="g6156">
     <g id="g6158">
      <path id="path6166" d="m331.47 606.65c0.04-0.178 0.06-0.359 0.06-0.545v-3.823c0-0.177-0.014-0.36-0.04-0.545 0.652 0.378 1.307 0.758 1.961 1.137v2.638c-0.668 0.379-1.328 0.759-1.981 1.138z" fill="url(#linearGradient6164)"/>
     </g>
    </g>
   </g>
  </g>
  <g id="g6168" transform="matrix(.35278 0 0 -.35278 -11.803 374.71)">
   <g id="g6170">
    <g id="g6176">
     <g id="g6178">
      <path id="path6186" d="m331.81 606.65c0.641-0.363 1.275-0.726 1.901-1.089h4.983c0.613 0.363 1.234 0.726 1.861 1.089z" fill="url(#linearGradient6184)"/>
     </g>
    </g>
   </g>
  </g>
  <g id="g6188" transform="matrix(.35278 0 0 -.35278 -11.803 374.71)">
   <g id="g6190">
    <g id="g6196">
     <g id="g6198">
      <path id="path6206" d="m333.71 602.82c-0.613-0.363-1.227-0.727-1.84-1.089h8.743c-0.64 0.362-1.266 0.726-1.88 1.089z" fill="url(#linearGradient6204)"/>
     </g>
    </g>
   </g>
  </g>
  <g id="g6208" transform="matrix(.35278 0 0 -.35278 -11.803 374.71)">
   <g id="g6210">
    <g id="g6216">
     <g id="g6218">
      <path id="path6226" d="m338.97 605.51v-2.638c0.667-0.379 1.328-0.759 1.981-1.137-0.04 0.178-0.06 0.359-0.06 0.545v3.823c0 0.177 0.013 0.359 0.041 0.545-0.655-0.379-1.308-0.759-1.962-1.138" fill="url(#linearGradient6224)"/>
     </g>
    </g>
   </g>
  </g>
  <g id="g6228" transform="matrix(.35278 0 0 -.35278 -11.803 374.71)">
   <g id="g6230">
    <g id="g6236">
     <g id="g6238">
      <path id="path6246" d="m283.73 613.42-0.312-0.539h-1.572v-0.721h1.156l-0.882-1.528h-1.658l1.402 2.428h-1.889l-1.817-3.148h1.821l-2.181-3.779h1.349v-4.767h1.889v7.105l0.832 1.441h6.185v-8.546h1.889v3.148h1.889l0.72 1.248v-4.396h1.888v4.138l0.9 1.558v-1.828h1.603l-2.233-3.868h1.889l1.439 2.493v-2.493h2.681l1.817 3.148h-1.889l-0.719-1.246v1.966h1.709v7.826h-6.297v-2.428h-8.006v2.249h-2.026l0.311 0.539zm13.498-1.079h2.519v-7.107h-0.916l0.52 0.899h-1.889l-0.234-0.405v1.754h1.639l0.52 0.901h-2.159v1.529h1.639l0.52 0.9h-2.159zm-12.336-0.181h0.552v-1.528h-1.435zm10.447-1.569v-3.109h-1.794zm-5.397-0.679h3.115l-3.115-5.398zm2.609 3.148-1.143-1.978h1.889l1.142 1.978zm-3.599 0-1.142-1.978h1.889l1.142 1.978zm-7.196-6.927h5.577v3.059h-5.577zm1.889 2.34h1.799v-1.62h-1.799zm0.9-2.61v-0.629h-2.789v-3.058h2.789v-0.81h1.889v0.81h0.899v0.72h-0.899v1.618h0.899v0.72h-0.899v0.629zm-0.9-1.349h0.9v-1.618h-0.9z" fill="url(#linearGradient6244)"/>
     </g>
    </g>
   </g>
  </g>
  <g id="g6248" transform="matrix(.35278 0 0 -.35278 -11.803 374.71)">
   <g id="g6250">
    <g id="g6256">
     <g id="g6258">
      <path id="path6266" d="m279.88 598.58c-0.192-0.063-0.356-0.154-0.495-0.274s-0.247-0.261-0.323-0.426c-0.077-0.164-0.115-0.348-0.115-0.552v-0.013c0-0.222 0.035-0.408 0.105-0.557s0.169-0.274 0.298-0.374c0.128-0.1 0.283-0.184 0.466-0.252 0.184-0.069 0.388-0.13 0.615-0.186 0.187-0.047 0.339-0.092 0.457-0.134 0.117-0.043 0.209-0.085 0.275-0.128 0.065-0.043 0.11-0.089 0.134-0.137 0.023-0.05 0.035-0.106 0.035-0.17v-0.013c0-0.132-0.056-0.235-0.169-0.31-0.113-0.074-0.272-0.112-0.477-0.112-0.255 0-0.491 0.049-0.706 0.147-0.216 0.098-0.426 0.231-0.63 0.396l-0.582-0.696c0.268-0.243 0.567-0.423 0.895-0.541 0.329-0.117 0.663-0.176 1.004-0.176 0.243 0 0.465 0.031 0.665 0.093s0.373 0.151 0.518 0.268c0.145 0.118 0.258 0.263 0.339 0.436s0.122 0.369 0.122 0.591v0.013c0 0.196-0.032 0.364-0.093 0.506-0.062 0.14-0.154 0.262-0.275 0.367-0.122 0.104-0.271 0.194-0.447 0.268-0.178 0.075-0.379 0.142-0.605 0.202-0.192 0.051-0.351 0.096-0.476 0.134-0.126 0.038-0.225 0.079-0.298 0.122-0.072 0.042-0.123 0.09-0.151 0.143-0.027 0.054-0.041 0.116-0.041 0.189v0.013c0 0.11 0.048 0.203 0.144 0.278s0.24 0.112 0.432 0.112 0.383-0.039 0.575-0.118c0.192-0.08 0.388-0.187 0.589-0.323l0.511 0.742c-0.23 0.183-0.482 0.324-0.758 0.422-0.274 0.098-0.576 0.147-0.904 0.147-0.231 0-0.441-0.032-0.634-0.097" fill="url(#linearGradient6264)"/>
     </g>
    </g>
   </g>
  </g>
  <g id="g6268" transform="matrix(.35278 0 0 -.35278 -11.803 374.71)">
   <g id="g6270">
    <g id="g6276">
     <g id="g6278">
      <path id="path6286" d="m282.91 598.44v-0.876h-0.409v-0.831h0.409v-1.625c0-0.2 0.025-0.365 0.074-0.495s0.117-0.236 0.204-0.317c0.088-0.081 0.193-0.137 0.314-0.17 0.122-0.031 0.257-0.047 0.406-0.047 0.162 0 0.305 0.018 0.428 0.054 0.124 0.037 0.237 0.084 0.34 0.144v0.78c-0.15-0.081-0.31-0.122-0.48-0.122-0.209 0-0.314 0.111-0.314 0.333v1.465h0.806v0.831h-0.806v0.876z" fill="url(#linearGradient6284)"/>
     </g>
    </g>
   </g>
  </g>
  <g id="g6288" transform="matrix(.35278 0 0 -.35278 -11.803 374.71)">
   <g id="g6290">
    <g id="g6296">
     <g id="g6298">
      <path id="path6306" d="m285.76 597.52c-0.204-0.052-0.4-0.117-0.588-0.198l0.243-0.743c0.158 0.06 0.308 0.106 0.451 0.138s0.308 0.048 0.495 0.048c0.243 0 0.427-0.053 0.55-0.16 0.124-0.106 0.186-0.262 0.186-0.467v-0.057c-0.124 0.043-0.251 0.076-0.38 0.102-0.131 0.025-0.283 0.039-0.457 0.039-0.206 0-0.392-0.023-0.56-0.068-0.169-0.045-0.313-0.111-0.435-0.201-0.121-0.089-0.217-0.203-0.285-0.339s-0.102-0.298-0.102-0.486v-0.013c0-0.17 0.031-0.32 0.093-0.451 0.062-0.13 0.146-0.239 0.253-0.329 0.106-0.09 0.23-0.157 0.373-0.201 0.143-0.045 0.295-0.068 0.457-0.068 0.239 0 0.442 0.04 0.608 0.118 0.166 0.08 0.309 0.185 0.428 0.317v-0.371h0.941v1.989c0 0.231-0.03 0.439-0.09 0.624s-0.153 0.342-0.281 0.47c-0.124 0.123-0.281 0.218-0.47 0.284-0.19 0.066-0.419 0.099-0.687 0.099-0.29 0-0.538-0.025-0.743-0.076m0.205-2.673c-0.098 0.072-0.147 0.174-0.147 0.307v0.012c0 0.154 0.06 0.271 0.179 0.352 0.12 0.081 0.283 0.122 0.492 0.122 0.12 0 0.231-0.012 0.336-0.035 0.105-0.024 0.2-0.055 0.285-0.093v-0.173c0-0.179-0.069-0.324-0.208-0.435-0.138-0.11-0.323-0.166-0.553-0.166-0.158 0-0.286 0.036-0.384 0.109" fill="url(#linearGradient6304)"/>
     </g>
    </g>
   </g>
  </g>
  <g id="g6308" transform="matrix(.35278 0 0 -.35278 -11.803 374.71)">
   <g id="g6310">
    <g id="g6316">
     <g id="g6318">
      <path id="path6326" d="m289.92 597.43c-0.17-0.142-0.305-0.329-0.403-0.564v0.691h-0.972v-3.428h0.972v1.267c0 0.413 0.093 0.718 0.279 0.914s0.44 0.294 0.764 0.294h0.052v1.017c-0.025 1e-3 -0.048 2e-3 -0.071 2e-3 -0.258 0-0.464-0.065-0.621-0.193" fill="url(#linearGradient6324)"/>
     </g>
    </g>
   </g>
  </g>
  <g id="g6328" transform="matrix(.35278 0 0 -.35278 -11.803 374.71)">
   <g id="g6330">
    <g id="g6336">
     <g id="g6338">
      <path id="path6346" d="m293.79 598.5c-0.286-0.122-0.531-0.288-0.736-0.499-0.205-0.212-0.364-0.456-0.479-0.736-0.116-0.279-0.173-0.579-0.173-0.898v-0.013c0-0.319 0.057-0.62 0.173-0.902 0.115-0.282 0.274-0.525 0.479-0.732s0.448-0.37 0.729-0.489c0.281-0.12 0.586-0.179 0.915-0.179 0.217 0 0.413 0.018 0.588 0.054s0.336 0.09 0.483 0.16c0.146 0.07 0.282 0.155 0.406 0.252 0.124 0.098 0.243 0.21 0.358 0.333l-0.627 0.633c-0.174-0.162-0.351-0.29-0.527-0.384-0.177-0.093-0.393-0.14-0.649-0.14-0.193 0-0.368 0.037-0.528 0.112-0.16 0.074-0.296 0.176-0.41 0.304-0.112 0.128-0.2 0.277-0.264 0.447-0.064 0.171-0.097 0.352-0.097 0.544v0.012c0 0.192 0.033 0.373 0.097 0.541s0.153 0.316 0.268 0.445c0.115 0.127 0.253 0.227 0.412 0.3 0.16 0.072 0.334 0.108 0.522 0.108 0.226 0 0.429-0.044 0.61-0.134 0.181-0.089 0.359-0.213 0.534-0.371l0.627 0.723c-0.102 0.102-0.213 0.196-0.333 0.281-0.118 0.085-0.249 0.158-0.389 0.218-0.142 0.059-0.298 0.106-0.47 0.141-0.173 0.033-0.364 0.05-0.573 0.05-0.345 0-0.661-0.06-0.946-0.181" fill="url(#linearGradient6344)"/>
     </g>
    </g>
   </g>
  </g>
  <g id="g6348" transform="matrix(.35278 0 0 -.35278 -11.803 374.71)">
   <g id="g6350">
    <g id="g6356">
     <g id="g6358">
      <path id="path6366" d="m296.9 598.8v-4.669h0.972v1.913c0 0.229 0.055 0.403 0.164 0.521 0.108 0.117 0.257 0.175 0.444 0.175 0.188 0 0.333-0.058 0.435-0.175 0.102-0.118 0.153-0.292 0.153-0.521v-1.913h0.972v2.22c0 0.396-0.1 0.707-0.303 0.933-0.202 0.226-0.49 0.339-0.86 0.339-0.124 0-0.235-0.015-0.332-0.045-0.099-0.029-0.189-0.07-0.27-0.121-0.08-0.052-0.154-0.11-0.22-0.176-0.067-0.066-0.127-0.136-0.183-0.208v1.727z" fill="url(#linearGradient6364)"/>
     </g>
    </g>
   </g>
  </g>
  <g id="g6368" transform="matrix(.35278 0 0 -.35278 -11.803 374.71)">
   <g id="g6370">
    <g id="g6376">
     <g id="g6378">
      <path id="path6386" d="m300.58 597.94h1.023v0.863h-1.023zm0.025-3.805h0.973v3.428h-0.973z" fill="url(#linearGradient6384)"/>
     </g>
    </g>
   </g>
  </g>
  <g id="g6388" transform="matrix(.35278 0 0 -.35278 -11.803 374.71)">
   <g id="g6390">
    <g id="g6396">
     <g id="g6398">
      <path id="path6406" d="m303.82 597.58c-0.099-0.029-0.188-0.07-0.269-0.121-0.081-0.052-0.154-0.11-0.22-0.176-0.067-0.066-0.127-0.136-0.183-0.208v0.486h-0.972v-3.428h0.972v1.913c0 0.229 0.055 0.403 0.164 0.521 0.108 0.117 0.256 0.175 0.444 0.175s0.333-0.058 0.435-0.175c0.102-0.118 0.153-0.292 0.153-0.521v-1.913h0.972v2.22c0 0.396-0.101 0.707-0.303 0.933-0.203 0.226-0.49 0.339-0.861 0.339-0.123 0-0.234-0.015-0.332-0.045" fill="url(#linearGradient6404)"/>
     </g>
    </g>
   </g>
  </g>
  <g id="g6408" transform="matrix(.35278 0 0 -.35278 -11.803 374.71)">
   <g id="g6410">
    <g id="g6416">
     <g id="g6418">
      <path id="path6426" d="m306.68 597.48c-0.207-0.094-0.386-0.221-0.534-0.383-0.15-0.162-0.266-0.352-0.349-0.569-0.083-0.218-0.125-0.448-0.125-0.691v-0.013c0-0.265 0.045-0.504 0.134-0.719 0.09-0.216 0.215-0.402 0.375-0.56 0.159-0.157 0.349-0.279 0.569-0.364 0.219-0.086 0.457-0.128 0.713-0.128 0.311 0 0.582 0.056 0.812 0.169 0.231 0.113 0.427 0.27 0.589 0.47l-0.557 0.492c-0.136-0.123-0.269-0.212-0.396-0.268-0.128-0.056-0.273-0.083-0.435-0.083-0.218 0-0.4 0.056-0.547 0.169s-0.244 0.28-0.291 0.503h2.385c5e-3 0.046 7e-3 0.091 0.01 0.134 2e-3 0.042 3e-3 0.082 3e-3 0.121 0 0.243-0.033 0.476-0.099 0.7s-0.169 0.422-0.307 0.595c-0.139 0.173-0.312 0.311-0.521 0.412-0.209 0.103-0.457 0.154-0.742 0.154-0.252 0-0.48-0.047-0.687-0.141m0.191-0.837c0.126 0.131 0.292 0.198 0.496 0.198s0.369-0.068 0.492-0.202c0.124-0.134 0.201-0.31 0.231-0.527h-1.465c0.038 0.221 0.12 0.399 0.246 0.531" fill="url(#linearGradient6424)"/>
     </g>
    </g>
   </g>
  </g>
  <g id="g6428" transform="matrix(.35278 0 0 -.35278 -11.803 374.71)">
   <g id="g6430">
    <g id="g6436">
     <g id="g6438">
      <path id="path6446" d="m310.11 597.54c-0.152-0.047-0.284-0.117-0.397-0.211s-0.203-0.208-0.268-0.342c-0.067-0.135-0.099-0.289-0.099-0.464v-0.013c0-0.166 0.03-0.307 0.092-0.422 0.061-0.114 0.141-0.212 0.24-0.291 0.098-0.079 0.207-0.143 0.329-0.191 0.121-0.05 0.242-0.091 0.361-0.126 0.094-0.029 0.183-0.057 0.269-0.082 0.085-0.026 0.161-0.053 0.227-0.081 0.066-0.027 0.119-0.06 0.156-0.099 0.039-0.038 0.058-0.082 0.058-0.134v-0.013c0-0.077-0.033-0.138-0.099-0.186-0.066-0.046-0.169-0.07-0.31-0.07-0.163 0-0.336 0.034-0.522 0.103-0.185 0.068-0.371 0.17-0.559 0.307l-0.415-0.64c0.23-0.178 0.471-0.31 0.725-0.393s0.502-0.125 0.745-0.125c0.184 0 0.355 0.023 0.515 0.068 0.16 0.044 0.3 0.111 0.419 0.201s0.212 0.204 0.279 0.343c0.065 0.138 0.099 0.303 0.099 0.494v0.013c0 0.158-0.033 0.293-0.097 0.403-0.064 0.111-0.145 0.205-0.243 0.282-0.098 0.076-0.209 0.141-0.332 0.194-0.124 0.054-0.246 0.1-0.364 0.138-0.095 0.03-0.183 0.06-0.266 0.09s-0.156 0.06-0.221 0.093c-0.064 0.031-0.115 0.065-0.153 0.101-0.039 0.037-0.058 0.079-0.058 0.126v0.012c0 0.069 0.03 0.125 0.089 0.169 0.061 0.045 0.15 0.068 0.269 0.068 0.124 0 0.267-0.029 0.429-0.087 0.162-0.057 0.328-0.135 0.498-0.233l0.371 0.672c-0.187 0.123-0.393 0.22-0.616 0.29-0.224 0.071-0.445 0.107-0.663 0.107-0.174 0-0.337-0.024-0.488-0.071" fill="url(#linearGradient6444)"/>
     </g>
    </g>
   </g>
  </g>
  <g id="g6448" transform="matrix(.35278 0 0 -.35278 -11.803 374.71)">
   <g id="g6450">
    <g id="g6456">
     <g id="g6458">
      <path id="path6466" d="m313.17 597.48c-0.207-0.094-0.384-0.221-0.533-0.383-0.15-0.162-0.266-0.352-0.349-0.569-0.083-0.218-0.125-0.448-0.125-0.691v-0.013c0-0.265 0.045-0.504 0.134-0.719 0.09-0.216 0.215-0.402 0.375-0.56 0.16-0.157 0.349-0.279 0.568-0.364 0.22-0.086 0.458-0.128 0.714-0.128 0.311 0 0.582 0.056 0.812 0.169s0.427 0.27 0.589 0.47l-0.557 0.492c-0.136-0.123-0.269-0.212-0.397-0.268-0.127-0.056-0.272-0.083-0.434-0.083-0.218 0-0.4 0.056-0.547 0.169s-0.244 0.28-0.291 0.503h2.385c4e-3 0.046 8e-3 0.091 0.01 0.134 2e-3 0.042 3e-3 0.082 3e-3 0.121 0 0.243-0.033 0.476-0.1 0.7-0.065 0.224-0.168 0.422-0.306 0.595-0.139 0.173-0.313 0.311-0.522 0.412-0.208 0.103-0.456 0.154-0.741 0.154-0.252 0-0.481-0.047-0.688-0.141m0.192-0.837c0.126 0.131 0.292 0.198 0.496 0.198s0.369-0.068 0.492-0.202c0.124-0.134 0.201-0.31 0.231-0.527h-1.465c0.038 0.221 0.121 0.399 0.246 0.531" fill="url(#linearGradient6464)"/>
     </g>
    </g>
   </g>
  </g>
  <g id="g6468" transform="matrix(.35278 0 0 -.35278 -11.803 374.71)">
   <g id="g6470">
    <g id="g6476">
     <g id="g6478">
      <path id="path6486" d="m318.82 598.5c-0.285-0.122-0.531-0.288-0.735-0.499-0.205-0.212-0.364-0.456-0.48-0.736-0.115-0.279-0.172-0.579-0.172-0.898v-0.013c0-0.319 0.057-0.62 0.172-0.902 0.116-0.282 0.275-0.525 0.48-0.732 0.204-0.207 0.448-0.37 0.729-0.489 0.282-0.12 0.586-0.179 0.915-0.179 0.216 0 0.413 0.018 0.588 0.054s0.336 0.09 0.483 0.16 0.282 0.155 0.406 0.252c0.124 0.098 0.242 0.21 0.358 0.333l-0.627 0.633c-0.174-0.162-0.351-0.29-0.527-0.384-0.177-0.093-0.393-0.14-0.649-0.14-0.193 0-0.368 0.037-0.528 0.112-0.16 0.074-0.296 0.176-0.41 0.304-0.112 0.128-0.201 0.277-0.264 0.447-0.064 0.171-0.097 0.352-0.097 0.544v0.012c0 0.192 0.033 0.373 0.097 0.541 0.063 0.168 0.153 0.316 0.268 0.445 0.115 0.127 0.253 0.227 0.412 0.3 0.16 0.072 0.334 0.108 0.522 0.108 0.225 0 0.429-0.044 0.61-0.134 0.181-0.089 0.359-0.213 0.534-0.371l0.627 0.723c-0.102 0.102-0.213 0.196-0.333 0.281-0.119 0.085-0.249 0.158-0.39 0.218-0.141 0.059-0.297 0.106-0.469 0.141-0.173 0.033-0.364 0.05-0.573 0.05-0.345 0-0.661-0.06-0.947-0.181" fill="url(#linearGradient6484)"/>
     </g>
    </g>
   </g>
  </g>
  <g id="g6488" transform="matrix(.35278 0 0 -.35278 -11.803 374.71)">
   <g id="g6490">
    <g id="g6496">
     <g id="g6498">
      <path id="path6506" d="m321.93 598.8v-4.669h0.972v1.913c0 0.229 0.055 0.403 0.163 0.521 0.109 0.117 0.257 0.175 0.445 0.175s0.333-0.058 0.435-0.175c0.102-0.118 0.153-0.292 0.153-0.521v-1.913h0.972v2.22c0 0.396-0.101 0.707-0.303 0.933-0.203 0.226-0.49 0.339-0.86 0.339-0.125 0-0.235-0.015-0.333-0.045-0.099-0.029-0.188-0.07-0.269-0.121-0.081-0.052-0.154-0.11-0.22-0.176-0.067-0.066-0.127-0.136-0.183-0.208v1.727z" fill="url(#linearGradient6504)"/>
     </g>
    </g>
   </g>
  </g>
  <g id="g6508" transform="matrix(.35278 0 0 -.35278 -11.803 374.71)">
   <g id="g6510">
    <g id="g6516">
     <g id="g6518">
      <path id="path6526" d="m326.27 597.52c-0.205-0.052-0.401-0.117-0.589-0.198l0.243-0.743c0.158 0.06 0.308 0.106 0.451 0.138s0.308 0.048 0.496 0.048c0.243 0 0.426-0.053 0.55-0.16 0.123-0.106 0.185-0.262 0.185-0.467v-0.057c-0.124 0.043-0.25 0.076-0.38 0.102-0.13 0.025-0.283 0.039-0.458 0.039-0.204 0-0.391-0.023-0.559-0.068-0.169-0.045-0.314-0.111-0.435-0.201-0.122-0.089-0.216-0.203-0.285-0.339-0.068-0.136-0.102-0.298-0.102-0.486v-0.013c0-0.17 0.031-0.32 0.092-0.451 0.063-0.13 0.147-0.239 0.253-0.329 0.107-0.09 0.232-0.157 0.375-0.201 0.142-0.045 0.295-0.068 0.457-0.068 0.238 0 0.441 0.04 0.607 0.118 0.167 0.08 0.309 0.185 0.429 0.317v-0.371h0.939v1.989c0 0.231-0.029 0.439-0.089 0.624-0.059 0.185-0.154 0.342-0.281 0.47-0.124 0.123-0.28 0.218-0.47 0.284s-0.419 0.099-0.688 0.099c-0.289 0-0.537-0.025-0.741-0.076m0.204-2.673c-0.098 0.072-0.147 0.174-0.147 0.307v0.012c0 0.154 0.06 0.271 0.179 0.352s0.284 0.122 0.493 0.122c0.118 0 0.231-0.012 0.335-0.035 0.105-0.024 0.199-0.055 0.285-0.093v-0.173c0-0.179-0.069-0.324-0.208-0.435-0.139-0.11-0.323-0.166-0.553-0.166-0.158 0-0.286 0.036-0.384 0.109" fill="url(#linearGradient6524)"/>
     </g>
    </g>
   </g>
  </g>
  <g id="g6528" transform="matrix(.35278 0 0 -.35278 -11.803 374.71)">
   <g id="g6530">
    <g id="g6536">
     <g id="g6538">
      <path id="path6546" d="m330.7 597.58c-0.098-0.029-0.187-0.07-0.268-0.121-0.081-0.052-0.155-0.11-0.22-0.176-0.067-0.066-0.128-0.136-0.183-0.208v0.486h-0.972v-3.428h0.972v1.913c0 0.229 0.054 0.403 0.163 0.521 0.109 0.117 0.256 0.175 0.444 0.175s0.332-0.058 0.435-0.175c0.103-0.118 0.154-0.292 0.154-0.521v-1.913h0.972v2.22c0 0.396-0.102 0.707-0.304 0.933-0.203 0.226-0.489 0.339-0.861 0.339-0.123 0-0.234-0.015-0.332-0.045" fill="url(#linearGradient6544)"/>
     </g>
    </g>
   </g>
  </g>
  <g id="g6548" transform="matrix(.35278 0 0 -.35278 -11.803 374.71)">
   <g id="g6550">
    <g id="g6556">
     <g id="g6558">
      <path id="path6566" d="m334.37 597.58c-0.098-0.029-0.187-0.07-0.268-0.121-0.081-0.052-0.155-0.11-0.22-0.176-0.067-0.066-0.127-0.136-0.183-0.208v0.486h-0.972v-3.428h0.972v1.913c0 0.229 0.055 0.403 0.164 0.521 0.108 0.117 0.256 0.175 0.443 0.175 0.188 0 0.333-0.058 0.436-0.175 0.102-0.118 0.153-0.292 0.153-0.521v-1.913h0.972v2.22c0 0.396-0.101 0.707-0.303 0.933-0.203 0.226-0.49 0.339-0.861 0.339-0.124 0-0.235-0.015-0.333-0.045" fill="url(#linearGradient6564)"/>
     </g>
    </g>
   </g>
  </g>
  <g id="g6568" transform="matrix(.35278 0 0 -.35278 -11.803 374.71)">
   <g id="g6570">
    <g id="g6576">
     <g id="g6578">
      <path id="path6586" d="m337.23 597.48c-0.207-0.094-0.385-0.221-0.534-0.383s-0.265-0.352-0.348-0.569c-0.084-0.218-0.125-0.448-0.125-0.691v-0.013c0-0.265 0.045-0.504 0.134-0.719 0.09-0.216 0.214-0.402 0.375-0.56 0.159-0.157 0.349-0.279 0.568-0.364 0.22-0.086 0.458-0.128 0.713-0.128 0.312 0 0.583 0.056 0.813 0.169s0.426 0.27 0.589 0.47l-0.558 0.492c-0.136-0.123-0.268-0.212-0.396-0.268-0.127-0.056-0.272-0.083-0.434-0.083-0.218 0-0.4 0.056-0.548 0.169-0.146 0.113-0.243 0.28-0.29 0.503h2.385c4e-3 0.046 8e-3 0.091 0.01 0.134 1e-3 0.042 3e-3 0.082 3e-3 0.121 0 0.243-0.033 0.476-0.1 0.7-0.065 0.224-0.168 0.422-0.307 0.595-0.138 0.173-0.312 0.311-0.521 0.412-0.208 0.103-0.456 0.154-0.741 0.154-0.252 0-0.481-0.047-0.688-0.141m0.192-0.837c0.126 0.131 0.291 0.198 0.496 0.198 0.204 0 0.369-0.068 0.492-0.202s0.201-0.31 0.23-0.527h-1.464c0.038 0.221 0.121 0.399 0.246 0.531" fill="url(#linearGradient6584)"/>
     </g>
    </g>
   </g>
  </g>
  <g id="g6588" transform="matrix(.35278 0 0 -.35278 -11.803 374.71)">
   <g id="g6590">
    <g id="g6596">
     <g id="g6598">
      <path id="path6606" d="m340.03 594.13h0.972v4.668h-0.972z" fill="url(#linearGradient6604)"/>
     </g>
    </g>
   </g>
  </g>
 </g>
</svg>
