<svg id="b" width="9.8737mm" height="8.7499mm" version="1.1" viewBox="0 0 34.986 31.004" xmlns="http://www.w3.org/2000/svg">
 <defs id="c">
  <clipPath id="a">
   <path id="d" d="m57.756 418.68h31.919v24.803h-31.919v-24.803z"/>
  </clipPath>
 </defs>
 <g id="e" transform="translate(-282.51 -354)">
  <g id="f" transform="matrix(1.25 0 0 -1.25 207.86 908.35)">
   <g id="g" clip-path="url(#a)">
    <g id="h" transform="translate(80.737 439.44)">
     <path id="i" d="m0 0-0.474-0.782-0.785-0.193c0.495-0.919 0.776-1.97 0.776-3.087 0-3.604-2.922-6.526-6.527-6.526-3.604 0-6.526 2.922-6.526 6.526s2.922 6.526 6.526 6.526c1.717 0 3.277-0.663 4.442-1.746l0.726 0.39 0.254 0.85c-1.436 1.294-3.336 2.083-5.422 2.083-4.475 0-8.102-3.628-8.102-8.103s3.627-8.102 8.102-8.102 8.103 3.627 8.103 8.102c0 1.481-0.399 2.868-1.093 4.062" fill="#fff"/>
    </g>
    <g id="j" transform="translate(72.941 433.28)">
     <path id="k" d="m0 0h-1.711v-1.576h5.357v1.576h-1.722v6.471h-1.699l-2.172-2.037 1.137-1.215 0.484 0.439c0.213 0.202 0.315 0.427 0.315 0.427h0.022s-0.011-0.315-0.011-0.619v-3.466z" fill="#fff"/>
    </g>
    <g id="l" transform="translate(61.209 419.93)">
     <path id="m" d="m0 0v1.172h0.652v0.755h-0.652v0.84h-1.015v-0.84h-0.453v-0.755h0.423v-1.208c0-1.046 0.96-1.178 1.456-1.178 0.169 0 0.284 0.018 0.284 0.018v0.767h-0.139c-0.2 0-0.556 0.054-0.556 0.429" fill="#fff"/>
    </g>
    <g id="n" transform="translate(63.767 421.14)">
     <path id="o" d="m0 0h-0.012s0.012 0.06 0.012 0.157v0.163c0 0.284-0.157 0.399-0.441 0.399h-0.985v-0.755h0.29c0.085 0 0.133-0.048 0.133-0.133v-1.468h-0.423v-0.755h1.891v0.755h-0.423v0.453c0 0.568 0.278 0.936 0.858 0.936 0.127 0 0.212-0.018 0.212-0.018v1.027s-0.061 0.012-0.121 0.012c-0.465 0-0.858-0.35-0.991-0.773" fill="#fff"/>
    </g>
    <g id="p" transform="translate(66.925 420.02)">
     <path id="q" d="m0 0c0-0.272-0.266-0.592-0.532-0.592-0.169 0-0.278 0.115-0.278 0.278 0 0.278 0.369 0.386 0.713 0.386h0.097v-0.072zm1.033-0.387v1.027c0 0.816-0.483 1.269-1.389 1.269-0.786 0-1.318-0.405-1.318-0.405l0.363-0.706s0.435 0.296 0.858 0.296c0.235 0 0.441-0.091 0.441-0.345v-0.09h-0.187c-0.484 0-1.662-0.133-1.662-1.046 0-0.628 0.478-0.96 1.021-0.96 0.665 0 0.918 0.513 0.918 0.513h0.013s-0.013-0.042-0.013-0.096v-0.018c0-0.151 0.115-0.327 0.417-0.327h0.9v0.755h-0.229c-0.085 0-0.133 0.049-0.133 0.133" fill="#fff"/>
    </g>
    <g id="r" transform="translate(70.322 419.54)">
     <path id="s" d="m0 0c-0.429 0-0.785 0.242-0.785 0.791 0 0.423 0.205 0.731 0.694 0.731 0.242 0 0.441-0.078 0.441-0.229v-0.188h0.888v0.496c0 0.574-0.749 0.791-1.371 0.791-1.009 0-1.703-0.737-1.703-1.637 0-1.015 0.845-1.619 1.77-1.619 0.501 0 1.021 0.175 1.353 0.477l-0.351 0.731c-0.265-0.211-0.622-0.344-0.936-0.344" fill="#fff"/>
    </g>
    <g id="t" transform="translate(75.006 419.61)">
     <path id="u" d="m0 0-0.308 0.556c-0.115 0.211-0.248 0.278-0.248 0.278v0.012l0.538 0.652h0.381v0.755h-1.619v-0.755h0.296l-0.327-0.399h-0.356v2.363h-1.468v-0.756h0.423v-2.809h-0.393v-0.755h1.662v0.755h-0.224v0.466h0.091c0.078 0 0.193 0 0.247-0.103l0.477-0.882c0.109-0.199 0.224-0.236 0.448-0.236h0.761v0.755h-0.151c-0.121 0-0.182 0.018-0.23 0.103" fill="#fff"/>
    </g>
    <g id="v" transform="translate(77.389 420.65)">
     <path id="w" d="m0 0c-0.296 0.079-0.544 0.151-0.544 0.339 0 0.12 0.127 0.156 0.296 0.156 0.224 0 0.314-0.072 0.314-0.169v-0.139h0.876v0.423c0 0.508-0.713 0.677-1.19 0.677-0.598 0-1.335-0.205-1.335-0.936 0-0.629 0.538-0.846 0.991-0.997 0.399-0.133 0.61-0.157 0.61-0.351 0-0.12-0.133-0.181-0.381-0.181-0.302 0-0.453 0.085-0.453 0.224v0.157h-0.876v-0.417c0-0.52 0.774-0.755 1.329-0.755 0.737 0 1.42 0.302 1.42 1.002 0 0.647-0.586 0.84-1.057 0.967" fill="#fff"/>
    </g>
    <path id="x" d="m80.268 423.07h-1.045v-0.816h1.045v0.816z" fill="#fff"/>
    <g id="y" transform="translate(80.268 421.86)">
     <path id="z" d="m0 0h-1.468v-0.755h0.423v-1.601h-0.393v-0.755h1.831v0.755h-0.393v2.356z" fill="#fff"/>
    </g>
    <g id="aa" transform="translate(82.475 419.54)">
     <path id="ab" d="m0 0c-0.356 0-0.604 0.308-0.604 0.761 0 0.483 0.278 0.749 0.622 0.749 0.399 0 0.598-0.362 0.598-0.773 0-0.501-0.302-0.737-0.616-0.737m1.631 0.097v3.431h-1.468v-0.755h0.423v-0.49c0-0.114 6e-3 -0.199 6e-3 -0.199h-0.012s-0.2 0.308-0.797 0.308c-0.858 0-1.438-0.64-1.438-1.631 0-0.96 0.544-1.625 1.371-1.625 0.725 0 0.96 0.514 0.96 0.514h0.013s-0.013-0.043-0.013-0.097v-0.018c0-0.151 0.115-0.326 0.417-0.326h0.901v0.755h-0.23c-0.085 0-0.133 0.048-0.133 0.133" fill="#fff"/>
    </g>
    <g id="ac" transform="translate(86.235 421.15)">
     <path id="ad" d="m0 0c0.23 0 0.393-0.211 0.393-0.459h-0.894c0.054 0.241 0.199 0.459 0.501 0.459m0.199-1.607c-0.332 0-0.646 0.175-0.724 0.574h1.975s0.024 0.211 0.024 0.314c0 0.864-0.52 1.504-1.45 1.504-1.003 0-1.619-0.713-1.619-1.625 0-0.827 0.598-1.631 1.71-1.631 0.839 0 1.341 0.435 1.341 0.435l-0.381 0.725s-0.416-0.296-0.876-0.296" fill="#fff"/>
    </g>
    <g id="ae" transform="translate(62.132 425.63)">
     <path id="af" d="m0 0-0.046 0.438h-2.319l-0.046-0.438h0.116s6e-3 0.044 0.011 0.075c0.016 0.111 0.092 0.196 0.199 0.196h0.579v-1.693c0-0.127-0.124-0.159-0.264-0.169v-0.117h1.126v0.117c-0.14 0.01-0.264 0.042-0.264 0.169v1.693h0.581c0.108 0 0.184-0.085 0.2-0.196 4e-3 -0.031 0.011-0.075 0.011-0.075h0.116m0.375-0.99 0.379 0.789 0.378-0.789h-0.757zm1.602-0.432-0.808 1.7c-0.046 0.094-0.136 0.16-0.245 0.16h-0.345v-0.117c0.105 0 0.184-0.044 0.134-0.156l-0.755-1.587c-0.058-0.112-0.074-0.16-0.233-0.169h-0.037v-0.117h0.611v0.117c-0.118-1e-3 -0.174 0.069-0.124 0.181l0.121 0.255h0.914l0.123-0.257c0.051-0.111-0.042-0.18-0.159-0.179v-0.117h1.073v0.117c-0.158 9e-3 -0.215 0.057-0.27 0.169m1.464 0.795c0.795 0 0.716-0.917 0.059-0.917h-0.292v0.917h0.233zm-0.233 0.9h0.206c0.586 0 0.615-0.728 2e-3 -0.728h-0.208v0.728zm-0.849-1.981h1.481c0.994 0 1.086 0.965 0.275 1.185v2e-3c0.63 0.18 0.529 0.959-0.354 0.959h-1.402v-0.117c0.14-0.01 0.239-0.043 0.239-0.17v-1.573c0-0.127-0.099-0.159-0.239-0.169v-0.117z" fill="#fff"/>
    </g>
   </g>
  </g>
 </g>
</svg>
