<svg height="8.749948mm" viewBox="0 0 34.985501 31.003751" width="9.873686mm" xmlns="http://www.w3.org/2000/svg" xmlns:xlink="http://www.w3.org/1999/xlink"><clipPath id="a"><path d="m57.756 418.677h31.919v24.803h-31.919z"/></clipPath><g clip-path="url(#a)" transform="matrix(1.25 0 0 -1.25 -74.65112 554.35)"><g transform="translate(80.737 439.4398)"><path d="m0 0-.474-.782-.785-.193c.495-.919.776-1.97.776-3.087 0-3.604-2.922-6.526-6.527-6.526-3.604 0-6.526 2.922-6.526 6.526 0 3.604 2.922 6.526 6.526 6.526 1.717 0 3.277-.663 4.442-1.746l.726.39.254.85c-1.436 1.294-3.336 2.083-5.422 2.083-4.475 0-8.102-3.628-8.102-8.103s3.627-8.102 8.102-8.102 8.103 3.627 8.103 8.102c0 1.481-.399 2.868-1.093 4.062" fill="#fff"/></g><g transform="translate(72.9407 433.282)"><path d="m0 0h-1.711v-1.576h5.357v1.576h-1.722v6.471h-1.699l-2.172-2.037 1.137-1.215.484.439c.213.202.315.427.315.427h.022c0 0-.011-.315-.011-.619z" fill="#fff"/></g><g transform="translate(61.2087 419.9338)"><path d="m0 0v1.172h.652v.755h-.652v.84h-1.015v-.84h-.453v-.755h.423v-1.208c0-1.046.96-1.178 1.456-1.178.169 0 .284.018.284.018v.767h-.139c-.2 0-.556.054-.556.429" fill="#fff"/></g><g transform="translate(63.7668 421.1418)"><path d="m0 0h-.012s.012.06.012.157v.163c0 .284-.157.399-.441.399h-.985v-.755h.29c.085 0 .133-.048.133-.133v-1.468h-.423v-.755h1.891v.755h-.423v.453c0 .568.278.936.858.936.127 0 .212-.018.212-.018v1.027s-.061.012-.121.012c-.465 0-.858-.35-.991-.773" fill="#fff"/></g><g transform="translate(66.9247 420.0242)"><path d="m0 0c0-.272-.266-.592-.532-.592-.169 0-.278.115-.278.278 0 .278.369.386.713.386l.097 0zm1.033-.387v1.027c0 .816-.483 1.269-1.389 1.269-.786 0-1.318-.405-1.318-.405l.363-.706s.435.296.858.296c.235 0 .441-.091.441-.345v-.09h-.187c-.484 0-1.662-.133-1.662-1.046 0-.628.478-.96 1.021-.96.665 0 .918.513.918.513h.013s-.013-.042-.013-.096v-.018c0-.151.115-.327.417-.327h.9v.755h-.229c-.085 0-.133.049-.133.133" fill="#fff"/></g><g transform="translate(70.3224 419.541)"><path d="m0 0c-.429 0-.785.242-.785.791 0 .423.205.731.694.731.242 0 .441-.078.441-.229v-.188h.888v.496c0 .574-.749.791-1.371.791-1.009 0-1.703-.737-1.703-1.637 0-1.015.845-1.619 1.77-1.619.501 0 1.021.175 1.353.477l-.351.731c-.265-.211-.622-.344-.936-.344" fill="#fff"/></g><g transform="translate(75.006 419.6074)"><path d="m0 0-.308.556c-.115.211-.248.278-.248.278v.012l.538.652h.381v.755h-1.619v-.755h.296l-.327-.399h-.356v2.363h-1.468v-.756h.423v-2.809h-.393v-.755h1.662v.755h-.224v.466h.091c.078 0 .193 0 .247-.103l.477-.882c.109-.199.224-.236.448-.236h.761v.755h-.151c-.121 0-.182.018-.23.103" fill="#fff"/></g><g transform="translate(77.389 420.6464)"><path d="m0 0c-.296.079-.544.151-.544.339 0 .12.127.156.296.156.224 0 .314-.072.314-.169v-.139h.876v.423c0 .508-.713.677-1.19.677-.598 0-1.335-.205-1.335-.936 0-.629.538-.846.991-.997.399-.133.61-.157.61-.351 0-.12-.133-.181-.381-.181-.302 0-.453.085-.453.224v.157h-.876v-.417c0-.52.774-.755 1.329-.755.737 0 1.42.302 1.42 1.002 0 .647-.586.84-1.057.967" fill="#fff"/></g><path d="m80.268 423.069h-1.045v-.816h1.045z" fill="#fff"/><g transform="translate(80.2675 421.8608)"><path d="m0 0h-1.468v-.755h.423v-1.601h-.393v-.755h1.831v.755h-.393z" fill="#fff"/></g><g transform="translate(82.4751 419.541)"><path d="m0 0c-.356 0-.604.308-.604.761 0 .483.278.749.622.749.399 0 .598-.362.598-.773 0-.501-.302-.737-.616-.737m1.631.097v3.431h-1.468v-.755h.423v-.49c0-.114.006-.199.006-.199h-.012s-.2.308-.797.308c-.858 0-1.438-.64-1.438-1.631 0-.96.544-1.625 1.371-1.625.725 0 .96.514.96.514h.013s-.013-.043-.013-.097v-.018c0-.151.115-.326.417-.326h.901v.755h-.23c-.085 0-.133.048-.133.133" fill="#fff"/></g><g transform="translate(86.2353 421.148)"><path d="m0 0c .23 0 .393-.211.393-.459h-.894c.054.241.199.459.501.459m.199-1.607c-.332 0-.646.175-.724.574h1.975s.024.211.024.314c0 .864-.52 1.504-1.45 1.504-1.003 0-1.619-.713-1.619-1.625 0-.827.598-1.631 1.71-1.631.839 0 1.341.435 1.341.435l-.381.725s-.416-.296-.876-.296" fill="#fff"/></g><g transform="translate(62.1319 425.6324)"><path d="m0 0-.046.438h-2.319l-.046-.438h.116s.006.044.011.075c.016.111.092.196.199.196h.579v-1.693c0-.127-.124-.159-.264-.169v-.117h1.126v.117c-.14.01-.264.042-.264.169v1.693h.581c.108 0 .184-.085.2-.196.004-.031.011-.075.011-.075zm.375-.99.379.789.378-.789zm1.602-.432-.808 1.7c-.046.094-.136.16-.245.16h-.345v-.117c.105 0 .184-.044.134-.156l-.755-1.587c-.058-.112-.074-.16-.233-.169h-.037v-.117h.611v.117c-.118-.001-.174.069-.124.181l.121.255h.914l.123-.257c.051-.111-.042-.18-.159-.179v-.117h1.073v.117c-.158.009-.215.057-.27.169m1.464.795c.795 0 .716-.917.059-.917h-.292v.917zm-.233.9h.206c.586 0 .615-.728.002-.728h-.208zm-.849-1.981h1.481c.994 0 1.086.965.275 1.185v.002c.63.18.529.959-.354.959h-1.402v-.117c.14-.01.239-.043.239-.17v-1.573c0-.127-.099-.159-.239-.169z" fill="#fff"/></g></g></svg>