<?xml version="1.0" encoding="UTF-8" standalone="no"?>
<!-- Created with Inkscape (http://www.inkscape.org/) -->

<svg
   xmlns:dc="http://purl.org/dc/elements/1.1/"
   xmlns:cc="http://creativecommons.org/ns#"
   xmlns:rdf="http://www.w3.org/1999/02/22-rdf-syntax-ns#"
   xmlns:svg="http://www.w3.org/2000/svg"
   xmlns="http://www.w3.org/2000/svg"
   xmlns:sodipodi="http://sodipodi.sourceforge.net/DTD/sodipodi-0.dtd"
   xmlns:inkscape="http://www.inkscape.org/namespaces/inkscape"
   width="9.8736858mm"
   height="8.7499475mm"
   viewBox="0 0 34.985501 31.003751"
   id="svg87169"
   version="1.1"
   inkscape:version="0.91 r13725"
   sodipodi:docname="TAB Trackside 2.svg">
  <defs
     id="defs87171">
    <clipPath
       clipPathUnits="userSpaceOnUse"
       id="clipPath66782">
      <path
         d="m 145.63,418.677 35.49,0 0,24.803 -35.49,0 0,-24.803 z"
         id="path66784"
         inkscape:connector-curvature="0" />
    </clipPath>
  </defs>
  <sodipodi:namedview
     id="base"
     pagecolor="#ffffff"
     bordercolor="#666666"
     borderopacity="1.0"
     inkscape:pageopacity="0.0"
     inkscape:pageshadow="2"
     inkscape:zoom="15.839192"
     inkscape:cx="24.132628"
     inkscape:cy="27.014074"
     inkscape:document-units="px"
     inkscape:current-layer="layer1"
     showgrid="false"
     fit-margin-top="0"
     fit-margin-left="0"
     fit-margin-right="0"
     fit-margin-bottom="0"
     inkscape:window-width="1920"
     inkscape:window-height="1017"
     inkscape:window-x="-8"
     inkscape:window-y="-8"
     inkscape:window-maximized="1" />
  <metadata
     id="metadata87174">
    <rdf:RDF>
      <cc:Work
         rdf:about="">
        <dc:format>image/svg+xml</dc:format>
        <dc:type
           rdf:resource="http://purl.org/dc/dcmitype/StillImage" />
        <dc:title></dc:title>
      </cc:Work>
    </rdf:RDF>
  </metadata>
  <g
     inkscape:label="Layer 1"
     inkscape:groupmode="layer"
     id="layer1"
     transform="translate(-251.07868,-331.14604)">
    <g
       transform="matrix(1.25,0,0,-1.25,64.352804,885.49604)"
       id="g66778">
      <g
         id="g66780"
         clip-path="url(#clipPath66782)">
        <g
           id="g66786"
           transform="translate(170.3969,439.4398)">
          <path
             d="m 0,0 -0.474,-0.782 -0.785,-0.193 c 0.495,-0.919 0.776,-1.97 0.776,-3.087 0,-3.604 -2.922,-6.526 -6.527,-6.526 -3.604,0 -6.526,2.922 -6.526,6.526 0,3.605 2.922,6.526 6.526,6.526 1.716,0 3.277,-0.663 4.442,-1.746 l 0.726,0.39 0.254,0.85 c -1.436,1.294 -3.336,2.083 -5.422,2.083 -4.475,0 -8.102,-3.628 -8.102,-8.103 0,-4.475 3.627,-8.102 8.102,-8.102 4.475,0 8.103,3.627 8.103,8.102 C 1.093,-2.581 0.694,-1.194 0,0"
             style="fill:#ef3d20;fill-opacity:1;fill-rule:nonzero;stroke:none"
             id="path66788"
             inkscape:connector-curvature="0" />
        </g>
        <g
           id="g66790"
           transform="translate(150.8685,419.9338)">
          <path
             d="m 0,0 0,1.172 0.652,0 0,0.755 -0.652,0 0,0.84 -1.015,0 0,-0.84 -0.453,0 0,-0.755 0.423,0 0,-1.208 c 0,-1.045 0.96,-1.178 1.456,-1.178 0.169,0 0.284,0.018 0.284,0.018 l 0,0.767 -0.139,0 C 0.356,-0.429 0,-0.375 0,0"
             style="fill:#ef3d20;fill-opacity:1;fill-rule:nonzero;stroke:none"
             id="path66792"
             inkscape:connector-curvature="0" />
        </g>
        <g
           id="g66794"
           transform="translate(153.4267,421.1419)">
          <path
             d="M 0,0 -0.012,0 C -0.012,0 0,0.06 0,0.157 L 0,0.32 c 0,0.284 -0.157,0.399 -0.441,0.399 l -0.985,0 0,-0.755 0.29,0 c 0.085,0 0.133,-0.049 0.133,-0.133 l 0,-1.468 -0.423,0 0,-0.755 1.891,0 0,0.755 -0.423,0 0,0.453 c 0,0.568 0.278,0.936 0.858,0.936 0.127,0 0.212,-0.018 0.212,-0.018 l 0,1.027 c 0,0 -0.061,0.012 -0.121,0.012 C 0.526,0.773 0.133,0.423 0,0"
             style="fill:#ef3d20;fill-opacity:1;fill-rule:nonzero;stroke:none"
             id="path66796"
             inkscape:connector-curvature="0" />
        </g>
        <g
           id="g66798"
           transform="translate(156.5845,420.0242)">
          <path
             d="m 0,0 c 0,-0.272 -0.266,-0.592 -0.532,-0.592 -0.169,0 -0.278,0.115 -0.278,0.278 0,0.278 0.369,0.386 0.713,0.386 L 0,0.072 0,0 Z m 1.033,-0.387 0,1.027 c 0,0.816 -0.483,1.269 -1.389,1.269 -0.786,0 -1.317,-0.405 -1.317,-0.405 l 0.362,-0.706 c 0,0 0.435,0.296 0.858,0.296 0.235,0 0.441,-0.091 0.441,-0.345 l 0,-0.09 -0.187,0 c -0.484,0 -1.662,-0.133 -1.662,-1.046 0,-0.628 0.478,-0.96 1.021,-0.96 0.665,0 0.918,0.513 0.918,0.513 l 0.013,0 c 0,0 -0.013,-0.042 -0.013,-0.096 l 0,-0.018 c 0,-0.151 0.115,-0.327 0.417,-0.327 l 0.901,0 0,0.756 -0.23,0 c -0.085,0 -0.133,0.048 -0.133,0.132"
             style="fill:#ef3d20;fill-opacity:1;fill-rule:nonzero;stroke:none"
             id="path66800"
             inkscape:connector-curvature="0" />
        </g>
        <g
           id="g66802"
           transform="translate(159.9822,419.5411)">
          <path
             d="m 0,0 c -0.429,0 -0.785,0.242 -0.785,0.791 0,0.423 0.205,0.731 0.694,0.731 0.242,0 0.441,-0.078 0.441,-0.229 l 0,-0.188 0.888,0 0,0.496 c 0,0.574 -0.749,0.791 -1.371,0.791 -1.009,0 -1.703,-0.737 -1.703,-1.637 0,-1.015 0.845,-1.619 1.77,-1.619 0.501,0 1.021,0.175 1.353,0.477 L 0.936,0.344 C 0.671,0.133 0.314,0 0,0"
             style="fill:#ef3d20;fill-opacity:1;fill-rule:nonzero;stroke:none"
             id="path66804"
             inkscape:connector-curvature="0" />
        </g>
        <g
           id="g66806"
           transform="translate(164.6659,419.6074)">
          <path
             d="m 0,0 -0.308,0.556 c -0.115,0.211 -0.248,0.278 -0.248,0.278 l 0,0.012 0.538,0.652 0.381,0 0,0.755 -1.619,0 0,-0.755 0.296,0 -0.327,-0.399 -0.356,0 0,2.363 -1.468,0 0,-0.756 0.423,0 0,-2.809 -0.393,0 0,-0.755 1.661,0 0,0.755 -0.223,0 0,0.466 0.091,0 c 0.078,0 0.193,0 0.247,-0.103 l 0.477,-0.882 c 0.109,-0.199 0.224,-0.236 0.447,-0.236 l 0.762,0 0,0.755 -0.151,0 C 0.109,-0.103 0.048,-0.085 0,0"
             style="fill:#ef3d20;fill-opacity:1;fill-rule:nonzero;stroke:none"
             id="path66808"
             inkscape:connector-curvature="0" />
        </g>
        <g
           id="g66810"
           transform="translate(167.0488,420.6465)">
          <path
             d="m 0,0 c -0.296,0.079 -0.544,0.151 -0.544,0.338 0,0.121 0.127,0.157 0.296,0.157 0.224,0 0.314,-0.072 0.314,-0.169 l 0,-0.139 0.876,0 0,0.423 c 0,0.508 -0.713,0.677 -1.19,0.677 -0.598,0 -1.335,-0.205 -1.335,-0.937 0,-0.628 0.538,-0.845 0.991,-0.996 0.399,-0.133 0.61,-0.157 0.61,-0.351 0,-0.12 -0.133,-0.181 -0.381,-0.181 -0.302,0 -0.453,0.085 -0.453,0.224 l 0,0.157 -0.876,0 0,-0.417 c 0,-0.52 0.774,-0.755 1.329,-0.755 0.737,0 1.42,0.302 1.42,1.002 C 1.057,-0.32 0.471,-0.127 0,0"
             style="fill:#ef3d20;fill-opacity:1;fill-rule:nonzero;stroke:none"
             id="path66812"
             inkscape:connector-curvature="0" />
        </g>
        <path
           d="m 169.927,423.069 -1.045,0 0,-0.816 1.045,0 0,0.816 z"
           style="fill:#ef3d20;fill-opacity:1;fill-rule:nonzero;stroke:none"
           id="path66814"
           inkscape:connector-curvature="0" />
        <g
           id="g66816"
           transform="translate(169.9273,421.8608)">
          <path
             d="m 0,0 -1.468,0 0,-0.755 0.423,0 0,-1.601 -0.393,0 0,-0.755 1.831,0 0,0.755 L 0,-2.356 0,0 Z"
             style="fill:#ef3d20;fill-opacity:1;fill-rule:nonzero;stroke:none"
             id="path66818"
             inkscape:connector-curvature="0" />
        </g>
        <g
           id="g66820"
           transform="translate(172.1349,419.5411)">
          <path
             d="m 0,0 c -0.356,0 -0.604,0.308 -0.604,0.761 0,0.483 0.278,0.749 0.622,0.749 0.399,0 0.598,-0.362 0.598,-0.773 C 0.616,0.236 0.314,0 0,0 m 1.631,0.097 0,3.431 -1.468,0 0,-0.755 0.423,0 0,-0.49 c 0,-0.114 0.006,-0.199 0.006,-0.199 l -0.012,0 c 0,0 -0.199,0.308 -0.797,0.308 -0.858,0 -1.438,-0.64 -1.438,-1.631 0,-0.96 0.544,-1.625 1.371,-1.625 0.725,0 0.961,0.513 0.961,0.513 l 0.012,0 c 0,0 -0.012,-0.042 -0.012,-0.096 l 0,-0.018 c 0,-0.151 0.114,-0.326 0.416,-0.326 l 0.901,0 0,0.755 -0.23,0 c -0.085,0 -0.133,0.048 -0.133,0.133"
             style="fill:#ef3d20;fill-opacity:1;fill-rule:nonzero;stroke:none"
             id="path66822"
             inkscape:connector-curvature="0" />
        </g>
        <g
           id="g66824"
           transform="translate(175.8951,421.148)">
          <path
             d="m 0,0 c 0.23,0 0.393,-0.212 0.393,-0.459 l -0.894,0 C -0.447,-0.218 -0.302,0 0,0 m 0.199,-1.607 c -0.332,0 -0.646,0.175 -0.724,0.574 l 1.975,0 c 0,0 0.024,0.211 0.024,0.314 0,0.864 -0.519,1.504 -1.45,1.504 -1.003,0 -1.619,-0.713 -1.619,-1.625 0,-0.827 0.598,-1.631 1.71,-1.631 0.84,0 1.341,0.435 1.341,0.435 l -0.381,0.725 c 0,0 -0.416,-0.296 -0.876,-0.296"
             style="fill:#ef3d20;fill-opacity:1;fill-rule:nonzero;stroke:none"
             id="path66826"
             inkscape:connector-curvature="0" />
        </g>
        <g
           id="g66828"
           transform="translate(151.7917,425.6324)">
          <path
             d="m 0,0 -0.046,0.438 -2.319,0 L -2.411,0 -2.295,0 c 0,0 0.006,0.044 0.011,0.075 0.016,0.111 0.092,0.196 0.199,0.196 l 0.579,0 0,-1.693 c 0,-0.127 -0.124,-0.159 -0.264,-0.169 l 0,-0.117 1.126,0 0,0.117 c -0.14,0.01 -0.264,0.042 -0.264,0.169 l 0,1.693 0.581,0 c 0.108,0 0.184,-0.085 0.2,-0.196 C -0.123,0.044 -0.116,0 -0.116,0 L 0,0 m 0.375,-0.99 0.379,0.789 0.378,-0.789 -0.757,0 z m 1.602,-0.432 -0.808,1.7 C 1.123,0.372 1.033,0.438 0.924,0.438 l -0.345,0 0,-0.117 c 0.105,0 0.184,-0.044 0.134,-0.156 L -0.042,-1.422 C -0.1,-1.534 -0.116,-1.582 -0.275,-1.591 l -0.037,0 0,-0.117 0.611,0 0,0.117 c -0.118,0 -0.174,0.069 -0.124,0.181 l 0.121,0.255 0.914,0 0.123,-0.257 C 1.384,-1.523 1.291,-1.591 1.174,-1.591 l 0,-0.117 1.073,0 0,0.117 c -0.158,0.009 -0.215,0.057 -0.27,0.169 m 1.464,0.795 c 0.795,0 0.716,-0.917 0.059,-0.917 l -0.292,0 0,0.917 0.233,0 z m -0.233,0.9 0.206,0 c 0.586,0 0.615,-0.728 0.002,-0.728 l -0.208,0 0,0.728 z m -0.849,-1.981 1.481,0 c 0.994,0 1.086,0.965 0.275,1.185 l 0,0.002 c 0.63,0.18 0.529,0.959 -0.354,0.959 l -1.402,0 0,-0.117 c 0.14,-0.01 0.239,-0.043 0.239,-0.17 l 0,-1.573 c 0,-0.127 -0.099,-0.159 -0.239,-0.169 l 0,-0.117 z"
             style="fill:#ef3d20;fill-opacity:1;fill-rule:nonzero;stroke:none"
             id="path66830"
             inkscape:connector-curvature="0" />
        </g>
        <g
           id="g66832"
           transform="translate(160.3677,432.605)">
          <path
             d="m 0,0 c 0,-0.269 0.034,-0.55 0.09,-0.864 l 5.777,0 0,2.524 -1.683,0 0,-0.953 -2.019,0 C 2.221,1.952 5.676,2.479 5.676,4.835 5.676,6.54 4.229,7.291 2.917,7.291 0.83,7.291 0.09,5.564 0.09,5.564 L 1.447,4.633 c 0,0 0.527,0.92 1.29,0.92 0.415,0 0.864,-0.18 0.864,-0.83 C 3.601,3.365 0,2.961 0,0"
             style="fill:#ef3d20;fill-opacity:1;fill-rule:nonzero;stroke:none"
             id="path66834"
             inkscape:connector-curvature="0" />
        </g>
      </g>
    </g>
  </g>
</svg>
