<?xml version="1.0" encoding="UTF-8"?>
<!-- Created with Inkscape (http://www.inkscape.org/) -->
<svg id="svg317594" width="18.86mm" height="7.4761mm" version="1.1" viewBox="0 0 66.827 26.49" xmlns="http://www.w3.org/2000/svg" xmlns:cc="http://creativecommons.org/ns#" xmlns:dc="http://purl.org/dc/elements/1.1/" xmlns:rdf="http://www.w3.org/1999/02/22-rdf-syntax-ns#">
 <metadata id="metadata317599">
  <rdf:RDF>
   <cc:Work rdf:about="">
    <dc:format>image/svg+xml</dc:format>
    <dc:type rdf:resource="http://purl.org/dc/dcmitype/StillImage"/>
    <dc:title/>
   </cc:Work>
  </rdf:RDF>
 </metadata>
 <g id="layer1" transform="translate(-264.92 -444.83)">
  <path id="path1942" d="m329.68 446.7h-62.69v16.625h62.69v-16.625z" fill="#e31536"/>
  <path id="path1946" d="m315.82 453.47-2.2-2.3738h-6.8412v0.8375c-0.0213 0.11125 0.0212 0.21375 0.30375 0.2925 0.24875 0.0625 0.56125 0.1875 0.8025 0.2875 0.21375 0.0863 0.27 0.21375 0.26 0.37625v4.5712c0.01 0.165-0.0462 0.295-0.26 0.38125-0.24125 0.095-0.55375 0.22-0.8025 0.29-0.2825 0.0738-0.325 0.17375-0.30375 0.285v0.84h4.27v-0.84c0.0213-0.11125-0.0275-0.21125-0.30625-0.285-0.24375-0.07-0.56125-0.195-0.79875-0.29-0.22-0.0862-0.27625-0.21625-0.2625-0.38125l-9e-3 -3.62c0-0.0863 0.06-0.15125 0.13875-0.15125l4.0312 4.6162 3.985-4.6875c0.0213-0.0375 0.0713-0.0587 0.11875-0.0587 0.0738 0 0.12 0.07 0.12 0.15125l0.01 3.75c6e-3 0.165-0.0475 0.295-0.265 0.38125-0.24375 0.095-0.5575 0.22-0.80125 0.29-0.27375 0.0738-0.32 0.17375-0.29875 0.285v0.84h8.16v-0.84c0.0225-0.11125-0.0188-0.21125-0.3025-0.285-0.24375-0.07-0.55875-0.195-0.8075-0.29-0.21125-0.0862-0.26625-0.21625-0.26-0.38125v-4.5712c-6e-3 -0.1625 0.0487-0.29 0.26-0.37625 0.24875-0.1 0.56375-0.225 0.8075-0.2875 0.28375-0.0788 0.325-0.18125 0.3025-0.2925v-0.8375h-6.8625l-2.0288 2.3688c-0.10875 0.0375-0.14125 0.0325-0.16 5e-3m-4.4-0.70125c-0.03-0.03-0.0512-0.0713-0.0512-0.1225 0-0.095 0.0725-0.1675 0.1625-0.1675h0.69125c0.0563-9e-3 0.11625 0.0138 0.15625 0.06l2.0788 2.1938c0.0838 0.0863 0.0838 0.23 2e-3 0.3175l-0.29 0.3325c-0.0787 0.09-0.20625 0.09-0.2875 0l-2.4762-2.6325 0.0137 0.0188zm9.09 0.13 0.58-0.2275c0.0975-0.0387 0.1725 0.0163 0.1725 0.11625v4.0338c0 0.10625-0.075 0.21625-0.1725 0.2575l-0.58 0.23375c-0.0925 0.0375-0.16875-0.02-0.16875-0.1175v-4.0362c0-0.1025 0.0762-0.22 0.16875-0.26m-29.796-0.7375c3.0338-1.8262 6.9312-1.59 10.506-1.0025 0.50125 0.0863 0.66625-0.525 0.66625-0.525l0.86125 0.0537 0.62 3.5412s-0.0513 0.0275-0.86375 0.2675c-0.1575 0.0575-0.2325-5e-3 -0.24375-0.0725-0.58-1.33-2.3925-2.1925-4.375-2.2375-0.88125 0.1-1.9712-2e-3 -2.3788 0.8725-0.2 0.41125-0.2 3.3162-0.0725 3.8688 0.0725 0.355 0.24375 0.7525 0.655 0.88 2.2225 0.49875 4.65-0.0188 6.5888-1.0725 0.15125-0.0575 0.24375 5e-3 0.28625 0.1325l0.43375 1.5038c-3.855 1.23-9.29 1.775-12.819-0.48-1.065-0.7125-1.7762-1.53-1.7762-2.8288 0-1.2562 0.855-2.21 1.9112-2.9012m2.6925 5.11c0.19125 0.0412 0.2875-0.18125 0.16625-0.30125-0.69125-0.63125-0.72-1.3975-0.725-1.9688 0-0.675 0.0337-1.3412 0.725-1.9725 0.12125-0.11375 0.025-0.33375-0.16625-0.29625-0.31625 0.02-1.745 0.8275-1.745 2.2038 0 1.4188 1.42 2.305 1.745 2.335m-6.8588-3.0725-0.8075 0.30625c-0.23625 0.095-0.2575-0.0487-0.385-0.18375-0.685-1.315-2.1812-2.285-3.645-1.8212v4.9612c-0.0125 0.165 0.0437 0.295 0.27625 0.38125 0.26125 0.095 0.5925 0.22 0.855 0.29 0.29625 0.0738 0.34375 0.17375 0.3225 0.285v0.84h-8.8588v-0.84c-0.0175-0.11125 0.0275-0.21125 0.32625-0.285 0.25625-0.07 0.595-0.195 0.8525-0.29 0.23-0.0862 0.28875-0.21625 0.28-0.38125v-4.9612c-1.4712-0.46375-2.9562 0.50625-3.645 1.8212-0.1275 0.135-0.15625 0.27875-0.38625 0.18375l-0.8075-0.30625c0.295-0.99125 0.8275-3.1025 0.8275-3.1025h13.966s0.52875 2.1112 0.82875 3.1025m-8.2675-0.84v4.0375c0 0.1 0.0813 0.15875 0.18 0.11875l0.61875-0.2275c0.10375-0.0413 0.18375-0.155 0.18375-0.2575v-4.0362c0-0.10875-0.08-0.1575-0.18375-0.12l-0.61875 0.23c-0.0987 0.0412-0.18 0.1575-0.18 0.255" fill="#231f20"/>
  <path id="path1948" d="m329.68 446.7h-62.69v16.625h62.69v-16.625zm1.8725 18.496h-66.441v-20.369h66.441v20.369z" fill="#231f20"/>
  <path id="path1952" d="m318.35 467.99c-0.965 0-1.7612 0.6475-1.7612 1.6525 0 1.03 0.79125 1.6475 1.7612 1.6475s1.7612-0.6175 1.7612-1.6475c0-1.005-0.79375-1.6525-1.7612-1.6525m0 1.0512c0.36625 0 0.59625 0.285 0.59625 0.62 0 0.36625-0.25 0.6125-0.59625 0.6125-0.3525 0-0.59625-0.24625-0.59625-0.6125 0-0.335 0.2275-0.62 0.59625-0.62" fill="#231f20"/>
  <path id="path1956" d="m326.3 467.99v3.2138h2.1275v-0.74875h-1.065v-0.495h0.9475v-0.72375h-0.9475v-0.50125h1.035v-0.745h-2.0975z" fill="#231f20"/>
  <path id="path1960" d="m329.17 470.88c0.46625 0.3225 0.8125 0.425 1.2138 0.425 0.6775 0 1.36-0.38125 1.36-1.1588 0-0.5525-0.26-0.85625-0.8725-0.96-0.24375-0.04-0.59-0.0462-0.57375-0.28875 0.0162-0.25 0.27-0.27125 0.37375-0.27125 0.24375 0 0.46625 0.1075 0.66625 0.24625l0.27125-0.67125c-0.30875-0.1925-0.6425-0.2825-1.0088-0.2825-0.685 0-1.3512 0.43125-1.3675 1.2062-7e-3 0.3225 0.285 0.6825 0.82875 0.7825 0.29 0.0537 0.68 0.0863 0.68 0.325 0 0.27125-0.30375 0.29-0.41625 0.295-0.325 0.02-0.61-0.165-0.81375-0.3275l-0.0537-0.0487-0.2875 0.72875z" fill="#231f20"/>
  <path id="path1964" d="m314.01 469.66h-0.0213l-0.575-1.6712h-1.0675l-0.37875 3.2175h1.0075l0.10875-1.4212c0.0138-0.1325 0.0463-0.23 0.0513-0.36375h0.0412c5e-3 0.13875 0.55 1.785 0.55 1.785h0.54375s0.5475-1.6462 0.5525-1.785h0.0412c7e-3 0.13375 0.04 0.23125 0.0562 0.36375l0.10375 1.4212h1.0125l-0.37875-3.2175h-1.0725l-0.575 1.6712h-0.0213 0.0213z" fill="#231f20"/>
  <path id="path1968" d="m321.89 469.97c-0.0512-0.1625-0.0675-0.31375-0.11375-0.46375l-0.4425-1.5175h-1.1025l1.2388 3.2138h0.92125l1.2412-3.2138h-1.095l-0.4475 1.5175c-0.0463 0.15-0.0625 0.30125-0.11625 0.46375h-0.0838z" fill="#231f20"/>
  <path id="path1970" d="m324.24 471.21h1.0375v-3.2162h-1.0375v3.2162z" fill="#231f20"/>
  <path id="path1974" d="m264.92 467.96v0.9l0.65125-0.0163v2.3625h1.085v-2.3625l0.6575 0.0163v-0.9h-2.3938z" fill="#231f20"/>
  <path id="path1978" d="m270.03 467.95v1.945c0 0.26-0.10875 0.48-0.41375 0.48-0.30875 0-0.41625-0.22-0.41625-0.48v-1.945h-1.0512v1.9375c0 0.9475 0.58 1.3838 1.4675 1.3838 0.885 0 1.465-0.43625 1.465-1.3838v-1.9375h-1.0512z" fill="#231f20"/>
  <path id="path1982" d="m271.88 471.2h1.0488v-1.3088h0.0237l0.76125 1.3088h1.2375l-0.7075-1.0375c-0.0725-0.0925-0.20625-0.3175-0.26625-0.36625v-0.0238c0.44125-0.15 0.74375-0.35875 0.74375-0.85125 0-0.82375-0.6725-0.9675-1.4062-0.9675h-1.435v3.2462zm1.0462-2.5412h0.1325c0.30875 0 0.57625 0.0437 0.57625 0.40125 0 0.34375-0.29125 0.385-0.5875 0.385h-0.12125v-0.78625z" fill="#231f20"/>
  <path id="path1986" d="m275.48 471.2h1.055v-1.0375c0-0.2175-5e-3 -0.43375-0.045-0.66125h0.0362l1.0075 1.6988h1.11v-3.2462h-1.0225v0.98125c0 0.27375-0.0288 0.55875 0.0213 0.8325h-0.0375l-1.0425-1.8138h-1.0825v3.2462z" fill="#231f20"/>
  <path id="path1990" d="m279.64 467.96v3.2512h2.1612v-0.76125h-1.0812v-0.49875h0.96125v-0.73125h-0.96125v-0.50625h1.045v-0.75375h-2.125z" fill="#231f20"/>
  <path id="path1994" d="m282.83 471.2h1.0538v-1.3088h0.02l0.76875 1.3088h1.2288l-0.71-1.0375c-0.0638-0.0925-0.20625-0.3175-0.26375-0.36625v-0.0238c0.43875-0.15 0.74-0.35875 0.74-0.85125 0-0.82375-0.665-0.9675-1.4025-0.9675h-1.435v3.2462zm1.0425-2.5412h0.13875c0.30375 0 0.5775 0.0437 0.5775 0.40125 0 0.34375-0.29375 0.385-0.59125 0.385h-0.125v-0.78625z" fill="#231f20"/>
  <path id="path1998" d="m290.84 468.06c-0.255-0.0863-0.53-0.1375-0.79625-0.1375-0.95375 0-1.7 0.76-1.7 1.7038 0 0.93125 0.7275 1.6525 1.6512 1.6525 0.2075 0 0.65125-0.0375 0.83125-0.17375v-1.0238c-0.21375 0.1375-0.38375 0.1625-0.6325 0.1575-0.4025-0.02-0.69125-0.27125-0.705-0.62875-2e-3 -0.43125 0.17-0.69625 0.555-0.765 0.30625-0.0512 0.58875 0.0275 0.79375 0.16375l2e-3 -0.94875z" fill="#231f20"/>
  <path id="path2002" d="m291.82 467.99v3.2438h2.0525v-0.905h-1.01v-2.3388h-1.0425z" fill="#231f20"/>
  <path id="path2006" d="m301.63 470.89c0.47375 0.3275 0.82625 0.43125 1.23 0.43125 0.68875 0 1.3712-0.3775 1.3712-1.1625 0-0.56375-0.26625-0.875-0.87875-0.97875-0.24875-0.035-0.595-0.035-0.57875-0.29 0.0162-0.24375 0.27625-0.27375 0.37625-0.27375 0.24375 0 0.47125 0.10875 0.67125 0.25l0.27125-0.6725c-0.31125-0.1975-0.6475-0.28875-1.01-0.28875-0.69375 0-1.3662 0.4325-1.3875 1.2188-5e-3 0.325 0.2875 0.69125 0.84 0.78875 0.29 0.0563 0.6825 0.0863 0.6825 0.33 0 0.27125-0.30375 0.2925-0.42 0.295-0.325 0.0163-0.61-0.1675-0.815-0.33625l-0.06-0.0425-0.2925 0.73125z" fill="#231f20"/>
  <path id="path2008" d="m305.13 471.24h1.0462v-3.2462h-1.0462v3.2462z" fill="#231f20"/>
  <path id="path2012" d="m298.47 470.89c0.46875 0.3275 0.82375 0.43125 1.2238 0.43125 0.69 0 1.3775-0.3775 1.3775-1.1625 0-0.56375-0.27125-0.875-0.88125-0.97875-0.25625-0.035-0.5975-0.035-0.58375-0.29 0.02-0.24375 0.275-0.27375 0.37875-0.27375 0.24625 0 0.47625 0.10875 0.66875 0.25l0.27625-0.6725c-0.315-0.1975-0.65125-0.28875-1.015-0.28875-0.6875 0-1.3625 0.4325-1.3812 1.2188-2e-3 0.325 0.28625 0.69125 0.83125 0.78875 0.29125 0.0563 0.68875 0.0863 0.68875 0.33 0 0.27125-0.305 0.2925-0.42125 0.295-0.325 0.0163-0.61125-0.1675-0.81625-0.33625l-0.06-0.0425-0.28625 0.73125z" fill="#231f20"/>
  <path id="path2016" d="m309.41 468.06c-0.24875-0.0863-0.5225-0.1375-0.79125-0.1375-0.95625 0-1.6988 0.76-1.6988 1.7038 0 0.93125 0.72625 1.6525 1.6475 1.6525 0.21125 0 0.6475-0.0375 0.82875-0.17375v-1.0238c-0.2025 0.1375-0.37625 0.1625-0.63125 0.1575-0.39-0.02-0.68875-0.27125-0.69875-0.62875-5e-3 -0.43125 0.1675-0.69625 0.5525-0.765 0.30875-0.0512 0.59125 0.0275 0.79125 0.16375v-0.94875z" fill="#231f20"/>
  <path id="path2020" d="m295.71 470.23 0.35-1.3988 0.0275-0.01 0.0275 0.01 0.34625 1.3988h-0.75125zm0.9025 0.5825 0.09 0.42h1.1025l-1.1212-3.2375h-1.1938l-1.1138 3.2375h1.0925l0.0975-0.42h1.0462z" fill="#231f20"/>
 </g>
</svg>
