<svg height="7.476103mm" viewBox="0 0 66.827497 26.49013" width="18.860205mm" xmlns="http://www.w3.org/2000/svg"><g transform="translate(-264.92113 -444.83145)"><path d="m329.6815 446.70395h-62.69v16.625h62.69z" fill="#e31536"/><path d="m315.82087 453.47207-2.2-2.37375h-6.84125v.8375c-.0213.11125.0212.21375.30375.2925.24875.0625.56125.1875.8025.2875.21375.0863.27.21375.26.37625v4.57125c.01.165-.0462.295-.26.38125-.24125.095-.55375.22-.8025.29-.2825.0738-.325.17375-.30375.285v.84h4.27v-.84c.0213-.11125-.0275-.21125-.30625-.285-.24375-.07-.56125-.195-.79875-.29-.22-.0862-.27625-.21625-.2625-.38125l-.009-3.62c0-.0863.06-.15125.13875-.15125l4.03125 4.61625 3.985-4.6875c.0213-.0375.0713-.0587.11875-.0587.0738 0 .12.07.12.15125l.01 3.75c.006.165-.0475.295-.265.38125-.24375.095-.5575.22-.80125.29-.27375.0738-.32.17375-.29875.285v.84h8.16v-.84c.0225-.11125-.0188-.21125-.3025-.285-.24375-.07-.55875-.195-.8075-.29-.21125-.0862-.26625-.21625-.26-.38125v-4.57125c-.006-.1625.0487-.29.26-.37625.24875-.1.56375-.225.8075-.2875.28375-.0788.325-.18125.3025-.2925v-.8375h-6.8625l-2.02875 2.36875c-.10875.0375-.14125.0325-.16.005m-4.4-.70125c-.03-.03-.0512-.0713-.0512-.1225 0-.095.0725-.1675.1625-.1675h.69125c.0563-.009.11625.0138.15625.06l2.07875 2.19375c.0838.0863.0838.23.002.3175l-.29.3325c-.0787.09-.20625.09-.2875 0l-2.47625-2.6325.0137.0188zm9.09.13.58-.2275c.0975-.0387.1725.0163.1725.11625v4.03375c0 .10625-.075.21625-.1725.2575l-.58.23375c-.0925.0375-.16875-.02-.16875-.1175v-4.03625c0-.1025.0762-.22.16875-.26m-29.79625-.7375c3.03375-1.82625 6.93125-1.59 10.50625-1.0025.50125.0863.66625-.525.66625-.525l.86125.0537.62 3.54125s-.0513.0275-.86375.2675c-.1575.0575-.2325-.005-.24375-.0725-.58-1.33-2.3925-2.1925-4.375-2.2375-.88125.1-1.97125-.002-2.37875.8725-.2.41125-.2 3.31625-.0725 3.86875.0725.355.24375.7525.655.88 2.2225.49875 4.65-.0188 6.58875-1.0725.15125-.0575.24375.005.28625.1325l.43375 1.50375c-3.855 1.23-9.29 1.775-12.81875-.48-1.065-.7125-1.77625-1.53-1.77625-2.82875 0-1.25625.855-2.21 1.91125-2.90125m2.6925 5.11c.19125.0412.2875-.18125.16625-.30125-.69125-.63125-.72-1.3975-.725-1.96875 0-.675.0337-1.34125.725-1.9725.12125-.11375.025-.33375-.16625-.29625-.31625.02-1.745.8275-1.745 2.20375 0 1.41875 1.42 2.305 1.745 2.335m-6.85875-3.0725-.8075.30625c-.23625.095-.2575-.0487-.385-.18375-.685-1.315-2.18125-2.285-3.645-1.82125v4.96125c-.0125.165.0437.295.27625.38125.26125.095.5925.22.855.29.29625.0738.34375.17375.3225.285v.84h-8.85875v-.84c-.0175-.11125.0275-.21125.32625-.285.25625-.07.595-.195.8525-.29.23-.0862.28875-.21625.28-.38125v-4.96125c-1.47125-.46375-2.95625.50625-3.645 1.82125-.1275.135-.15625.27875-.38625.18375l-.8075-.30625c.295-.99125.8275-3.1025.8275-3.1025h13.96625s.52875 2.11125.82875 3.1025m-8.2675-.84v4.0375c0 .1.0813.15875.18.11875l.61875-.2275c.10375-.0413.18375-.155.18375-.2575v-4.03625c0-.10875-.08-.1575-.18375-.12l-.61875.23c-.0987.0412-.18.1575-.18.255" fill="#231f20"/><path d="m329.6815 446.70395h-62.69v16.625h62.69zm1.8725 18.49625h-66.44125v-20.36875h66.44125z" fill="#231f20"/><g fill="#e31536"><path d="m318.35388 467.98857c-.965 0-1.76125.6475-1.76125 1.6525 0 1.03.79125 1.6475 1.76125 1.6475s1.76125-.6175 1.76125-1.6475c0-1.005-.79375-1.6525-1.76125-1.6525m0 1.05125c.36625 0 .59625.285.59625.62 0 .36625-.25.6125-.59625.6125-.3525 0-.59625-.24625-.59625-.6125 0-.335.2275-.62.59625-.62"/><path d="m326.30325 467.9912v3.21375h2.1275v-.74875h-1.065v-.495h.9475v-.72375h-.9475v-.50125h1.035v-.745z"/><path d="m329.17488 470.88195c.46625.3225.8125.425 1.21375.425.6775 0 1.36-.38125 1.36-1.15875 0-.5525-.26-.85625-.8725-.96-.24375-.04-.59-.0462-.57375-.28875.0162-.25.27-.27125.37375-.27125.24375 0 .46625.1075.66625.24625l.27125-.67125c-.30875-.1925-.6425-.2825-1.00875-.2825-.685 0-1.35125.43125-1.3675 1.20625-.007.3225.285.6825.82875.7825.29.0537.68.0863.68.325 0 .27125-.30375.29-.41625.295-.325.02-.61-.165-.81375-.3275l-.0537-.0487-.2875.72875z"/><path d="m314.0135 469.66032h-.0213l-.575-1.67125h-1.0675l-.37875 3.2175h1.0075l.10875-1.42125c.0138-.1325.0463-.23.0513-.36375h.0412c.005.13875.55 1.785.55 1.785h.54375s.5475-1.64625.5525-1.785h.0412c.007.13375.04.23125.0562.36375l.10375 1.42125h1.0125l-.37875-3.2175h-1.0725l-.575 1.67125h-.0213.0213z"/><path d="m321.88987 469.97182c-.0512-.1625-.0675-.31375-.11375-.46375l-.4425-1.5175h-1.1025l1.23875 3.21375h.92125l1.24125-3.21375h-1.095l-.4475 1.5175c-.0463.15-.0625.30125-.11625.46375h-.0838z"/><path d="m324.23525 471.2077h1.0375v-3.21625h-1.0375z"/><path d="m264.92113 467.95608v.9l.65125-.0163v2.3625h1.085v-2.3625l.6575.0163v-.9z"/><path d="m270.0295 467.95332v1.945c0 .26-.10875.48-.41375.48-.30875 0-.41625-.22-.41625-.48v-1.945h-1.05125v1.9375c0 .9475.58 1.38375 1.4675 1.38375.885 0 1.465-.43625 1.465-1.38375v-1.9375z"/><path d="m271.88275 471.1992h1.04875v-1.30875h.0237l.76125 1.30875h1.2375l-.7075-1.0375c-.0725-.0925-.20625-.3175-.26625-.36625v-.0238c.44125-.15.74375-.35875.74375-.85125 0-.82375-.6725-.9675-1.40625-.9675h-1.435v3.24625zm1.04625-2.54125h.1325c.30875 0 .57625.0437.57625.40125 0 .34375-.29125.385-.5875.385h-.12125z"/><path d="m275.48475 471.1992h1.055v-1.0375c0-.2175-.005-.43375-.045-.66125h.0362l1.0075 1.69875h1.11v-3.24625h-1.0225v.98125c0 .27375-.0288.55875.0213.8325h-.0375l-1.0425-1.81375h-1.0825z"/><path d="m279.63537 467.95608v3.25125h2.16125v-.76125h-1.08125v-.49875h.96125v-.73125h-.96125v-.50625h1.045v-.75375z"/><path d="m282.82962 471.1992h1.05375v-1.30875h.02l.76875 1.30875h1.22875l-.71-1.0375c-.0638-.0925-.20625-.3175-.26375-.36625v-.0238c.43875-.15.74-.35875.74-.85125 0-.82375-.665-.9675-1.4025-.9675h-1.435v3.24625zm1.0425-2.54125h.13875c.30375 0 .5775.0437.5775.40125 0 .34375-.29375.385-.59125.385h-.125z"/><path d="m290.83975 468.06182c-.255-.0863-.53-.1375-.79625-.1375-.95375 0-1.7.76-1.7 1.70375 0 .93125.7275 1.6525 1.65125 1.6525.2075 0 .65125-.0375.83125-.17375v-1.02375c-.21375.1375-.38375.1625-.6325.1575-.4025-.02-.69125-.27125-.705-.62875-.002-.43125.17-.69625.555-.765.30625-.0512.58875.0275.79375.16375l.002-.94875z"/><path d="m291.82325 467.99395v3.24375h2.0525v-.905h-1.01v-2.33875z"/><path d="m301.627 470.89033c.47375.3275.82625.43125 1.23.43125.68875 0 1.37125-.3775 1.37125-1.1625 0-.56375-.26625-.875-.87875-.97875-.24875-.035-.595-.035-.57875-.29.0162-.24375.27625-.27375.37625-.27375.24375 0 .47125.10875.67125.25l.27125-.6725c-.31125-.1975-.6475-.28875-1.01-.28875-.69375 0-1.36625.4325-1.3875 1.21875-.005.325.2875.69125.84.78875.29.0563.6825.0863.6825.33 0 .27125-.30375.2925-.42.295-.325.0163-.61-.1675-.815-.33625l-.06-.0425z"/><path d="m305.13025 471.2427h1.04625v-3.24625h-1.04625z"/><path d="m298.46775 470.89033c.46875.3275.82375.43125 1.22375.43125.69 0 1.3775-.3775 1.3775-1.1625 0-.56375-.27125-.875-.88125-.97875-.25625-.035-.5975-.035-.58375-.29.02-.24375.275-.27375.37875-.27375.24625 0 .47625.10875.66875.25l.27625-.6725c-.315-.1975-.65125-.28875-1.015-.28875-.6875 0-1.3625.4325-1.38125 1.21875-.002.325.28625.69125.83125.78875.29125.0563.68875.0863.68875.33 0 .27125-.305.2925-.42125.295-.325.0163-.61125-.1675-.81625-.33625l-.06-.0425z"/><path d="m309.40787 468.06182c-.24875-.0863-.5225-.1375-.79125-.1375-.95625 0-1.69875.76-1.69875 1.70375 0 .93125.72625 1.6525 1.6475 1.6525.21125 0 .6475-.0375.82875-.17375v-1.02375c-.2025.1375-.37625.1625-.63125.1575-.39-.02-.68875-.27125-.69875-.62875-.005-.43125.1675-.69625.5525-.765.30875-.0512.59125.0275.79125.16375z"/><path d="m295.7085 470.22933.35-1.39875.0275-.01.0275.01.34625 1.39875zm.9025.5825.09.42h1.1025l-1.12125-3.2375h-1.19375l-1.11375 3.2375h1.0925l.0975-.42z"/></g></g></svg>