<?xml version="1.0" encoding="UTF-8" standalone="no"?>
<!-- Created with Inkscape (http://www.inkscape.org/) -->

<svg
   xmlns:dc="http://purl.org/dc/elements/1.1/"
   xmlns:cc="http://creativecommons.org/ns#"
   xmlns:rdf="http://www.w3.org/1999/02/22-rdf-syntax-ns#"
   xmlns:svg="http://www.w3.org/2000/svg"
   xmlns="http://www.w3.org/2000/svg"
   xmlns:sodipodi="http://sodipodi.sourceforge.net/DTD/sodipodi-0.dtd"
   xmlns:inkscape="http://www.inkscape.org/namespaces/inkscape"
   width="18.860205mm"
   height="7.4761033mm"
   viewBox="0 0 66.827497 26.49013"
   id="svg317594"
   version="1.1"
   inkscape:version="0.91 r13725"
   sodipodi:docname="TCM.svg">
  <defs
     id="defs317596">
    <clipPath
       clipPathUnits="userSpaceOnUse"
       id="clipPath1934">
      <path
         d="m 211.635,539.122 82.8,0 0,24.803 -82.8,0 0,-24.803 z"
         id="path1936"
         inkscape:connector-curvature="0" />
    </clipPath>
  </defs>
  <sodipodi:namedview
     id="base"
     pagecolor="#ffffff"
     bordercolor="#666666"
     borderopacity="1.0"
     inkscape:pageopacity="0.0"
     inkscape:pageshadow="2"
     inkscape:zoom="7.9195959"
     inkscape:cx="60.260309"
     inkscape:cy="33.246932"
     inkscape:document-units="px"
     inkscape:current-layer="layer1"
     showgrid="false"
     fit-margin-top="0"
     fit-margin-left="0"
     fit-margin-right="0"
     fit-margin-bottom="0"
     inkscape:window-width="1920"
     inkscape:window-height="1017"
     inkscape:window-x="-8"
     inkscape:window-y="-8"
     inkscape:window-maximized="1" />
  <metadata
     id="metadata317599">
    <rdf:RDF>
      <cc:Work
         rdf:about="">
        <dc:format>image/svg+xml</dc:format>
        <dc:type
           rdf:resource="http://purl.org/dc/dcmitype/StillImage" />
        <dc:title></dc:title>
      </cc:Work>
    </rdf:RDF>
  </metadata>
  <g
     inkscape:label="Layer 1"
     inkscape:groupmode="layer"
     id="layer1"
     transform="translate(-264.92113,-444.83145)">
    <path
       d="m 329.6815,446.70395 -62.69,0 0,16.625 62.69,0 0,-16.625 z"
       style="fill:#e31536;fill-opacity:1;fill-rule:nonzero;stroke:none"
       id="path1942"
       inkscape:connector-curvature="0" />
    <path
       inkscape:connector-curvature="0"
       id="path1946"
       style="fill:#231f20;fill-opacity:1;fill-rule:nonzero;stroke:none"
       d="m 315.82087,453.47207 -2.2,-2.37375 -6.84125,0 0,0.8375 c -0.0213,0.11125 0.0212,0.21375 0.30375,0.2925 0.24875,0.0625 0.56125,0.1875 0.8025,0.2875 0.21375,0.0863 0.27,0.21375 0.26,0.37625 l 0,4.57125 c 0.01,0.165 -0.0462,0.295 -0.26,0.38125 -0.24125,0.095 -0.55375,0.22 -0.8025,0.29 -0.2825,0.0738 -0.325,0.17375 -0.30375,0.285 l 0,0.84 4.27,0 0,-0.84 c 0.0213,-0.11125 -0.0275,-0.21125 -0.30625,-0.285 -0.24375,-0.07 -0.56125,-0.195 -0.79875,-0.29 -0.22,-0.0862 -0.27625,-0.21625 -0.2625,-0.38125 l -0.009,-3.62 c 0,-0.0863 0.06,-0.15125 0.13875,-0.15125 l 4.03125,4.61625 3.985,-4.6875 c 0.0213,-0.0375 0.0713,-0.0587 0.11875,-0.0587 0.0738,0 0.12,0.07 0.12,0.15125 l 0.01,3.75 c 0.006,0.165 -0.0475,0.295 -0.265,0.38125 -0.24375,0.095 -0.5575,0.22 -0.80125,0.29 -0.27375,0.0738 -0.32,0.17375 -0.29875,0.285 l 0,0.84 8.16,0 0,-0.84 c 0.0225,-0.11125 -0.0188,-0.21125 -0.3025,-0.285 -0.24375,-0.07 -0.55875,-0.195 -0.8075,-0.29 -0.21125,-0.0862 -0.26625,-0.21625 -0.26,-0.38125 l 0,-4.57125 c -0.006,-0.1625 0.0487,-0.29 0.26,-0.37625 0.24875,-0.1 0.56375,-0.225 0.8075,-0.2875 0.28375,-0.0788 0.325,-0.18125 0.3025,-0.2925 l 0,-0.8375 -6.8625,0 -2.02875,2.36875 c -0.10875,0.0375 -0.14125,0.0325 -0.16,0.005 m -4.4,-0.70125 c -0.03,-0.03 -0.0512,-0.0713 -0.0512,-0.1225 0,-0.095 0.0725,-0.1675 0.1625,-0.1675 l 0.69125,0 c 0.0563,-0.009 0.11625,0.0138 0.15625,0.06 l 2.07875,2.19375 c 0.0838,0.0863 0.0838,0.23 0.002,0.3175 l -0.29,0.3325 c -0.0787,0.09 -0.20625,0.09 -0.2875,0 l -2.47625,-2.6325 0.0137,0.0188 z m 9.09,0.13 0.58,-0.2275 c 0.0975,-0.0387 0.1725,0.0163 0.1725,0.11625 l 0,4.03375 c 0,0.10625 -0.075,0.21625 -0.1725,0.2575 l -0.58,0.23375 c -0.0925,0.0375 -0.16875,-0.02 -0.16875,-0.1175 l 0,-4.03625 c 0,-0.1025 0.0762,-0.22 0.16875,-0.26 m -29.79625,-0.7375 c 3.03375,-1.82625 6.93125,-1.59 10.50625,-1.0025 0.50125,0.0863 0.66625,-0.525 0.66625,-0.525 l 0.86125,0.0537 0.62,3.54125 c 0,0 -0.0513,0.0275 -0.86375,0.2675 -0.1575,0.0575 -0.2325,-0.005 -0.24375,-0.0725 -0.58,-1.33 -2.3925,-2.1925 -4.375,-2.2375 -0.88125,0.1 -1.97125,-0.002 -2.37875,0.8725 -0.2,0.41125 -0.2,3.31625 -0.0725,3.86875 0.0725,0.355 0.24375,0.7525 0.655,0.88 2.2225,0.49875 4.65,-0.0188 6.58875,-1.0725 0.15125,-0.0575 0.24375,0.005 0.28625,0.1325 l 0.43375,1.50375 c -3.855,1.23 -9.29,1.775 -12.81875,-0.48 -1.065,-0.7125 -1.77625,-1.53 -1.77625,-2.82875 0,-1.25625 0.855,-2.21 1.91125,-2.90125 m 2.6925,5.11 c 0.19125,0.0412 0.2875,-0.18125 0.16625,-0.30125 -0.69125,-0.63125 -0.72,-1.3975 -0.725,-1.96875 0,-0.675 0.0337,-1.34125 0.725,-1.9725 0.12125,-0.11375 0.025,-0.33375 -0.16625,-0.29625 -0.31625,0.02 -1.745,0.8275 -1.745,2.20375 0,1.41875 1.42,2.305 1.745,2.335 m -6.85875,-3.0725 -0.8075,0.30625 c -0.23625,0.095 -0.2575,-0.0487 -0.385,-0.18375 -0.685,-1.315 -2.18125,-2.285 -3.645,-1.82125 l 0,4.96125 c -0.0125,0.165 0.0437,0.295 0.27625,0.38125 0.26125,0.095 0.5925,0.22 0.855,0.29 0.29625,0.0738 0.34375,0.17375 0.3225,0.285 l 0,0.84 -8.85875,0 0,-0.84 c -0.0175,-0.11125 0.0275,-0.21125 0.32625,-0.285 0.25625,-0.07 0.595,-0.195 0.8525,-0.29 0.23,-0.0862 0.28875,-0.21625 0.28,-0.38125 l 0,-4.96125 c -1.47125,-0.46375 -2.95625,0.50625 -3.645,1.82125 -0.1275,0.135 -0.15625,0.27875 -0.38625,0.18375 l -0.8075,-0.30625 c 0.295,-0.99125 0.8275,-3.1025 0.8275,-3.1025 l 13.96625,0 c 0,0 0.52875,2.11125 0.82875,3.1025 m -8.2675,-0.84 0,4.0375 c 0,0.1 0.0813,0.15875 0.18,0.11875 l 0.61875,-0.2275 c 0.10375,-0.0413 0.18375,-0.155 0.18375,-0.2575 l 0,-4.03625 c 0,-0.10875 -0.08,-0.1575 -0.18375,-0.12 l -0.61875,0.23 c -0.0987,0.0412 -0.18,0.1575 -0.18,0.255" />
    <path
       d="m 329.6815,446.70395 -62.69,0 0,16.625 62.69,0 0,-16.625 z m 1.8725,18.49625 -66.44125,0 0,-20.36875 66.44125,0 0,20.36875 z"
       style="fill:#231f20;fill-opacity:1;fill-rule:nonzero;stroke:none"
       id="path1948"
       inkscape:connector-curvature="0" />
    <path
       inkscape:connector-curvature="0"
       id="path1952"
       style="fill:#e31536;fill-opacity:1;fill-rule:nonzero;stroke:none"
       d="m 318.35388,467.98857 c -0.965,0 -1.76125,0.6475 -1.76125,1.6525 0,1.03 0.79125,1.6475 1.76125,1.6475 0.97,0 1.76125,-0.6175 1.76125,-1.6475 0,-1.005 -0.79375,-1.6525 -1.76125,-1.6525 m 0,1.05125 c 0.36625,0 0.59625,0.285 0.59625,0.62 0,0.36625 -0.25,0.6125 -0.59625,0.6125 -0.3525,0 -0.59625,-0.24625 -0.59625,-0.6125 0,-0.335 0.2275,-0.62 0.59625,-0.62" />
    <path
       inkscape:connector-curvature="0"
       id="path1956"
       style="fill:#e31536;fill-opacity:1;fill-rule:nonzero;stroke:none"
       d="m 326.30325,467.9912 0,3.21375 2.1275,0 0,-0.74875 -1.065,0 0,-0.495 0.9475,0 0,-0.72375 -0.9475,0 0,-0.50125 1.035,0 0,-0.745 -2.0975,0 z" />
    <path
       inkscape:connector-curvature="0"
       id="path1960"
       style="fill:#e31536;fill-opacity:1;fill-rule:nonzero;stroke:none"
       d="m 329.17488,470.88195 c 0.46625,0.3225 0.8125,0.425 1.21375,0.425 0.6775,0 1.36,-0.38125 1.36,-1.15875 0,-0.5525 -0.26,-0.85625 -0.8725,-0.96 -0.24375,-0.04 -0.59,-0.0462 -0.57375,-0.28875 0.0162,-0.25 0.27,-0.27125 0.37375,-0.27125 0.24375,0 0.46625,0.1075 0.66625,0.24625 l 0.27125,-0.67125 c -0.30875,-0.1925 -0.6425,-0.2825 -1.00875,-0.2825 -0.685,0 -1.35125,0.43125 -1.3675,1.20625 -0.007,0.3225 0.285,0.6825 0.82875,0.7825 0.29,0.0537 0.68,0.0863 0.68,0.325 0,0.27125 -0.30375,0.29 -0.41625,0.295 -0.325,0.02 -0.61,-0.165 -0.81375,-0.3275 l -0.0537,-0.0487 -0.2875,0.72875 z" />
    <path
       inkscape:connector-curvature="0"
       id="path1964"
       style="fill:#e31536;fill-opacity:1;fill-rule:nonzero;stroke:none"
       d="m 314.0135,469.66032 -0.0213,0 -0.575,-1.67125 -1.0675,0 -0.37875,3.2175 1.0075,0 0.10875,-1.42125 c 0.0138,-0.1325 0.0463,-0.23 0.0513,-0.36375 l 0.0412,0 c 0.005,0.13875 0.55,1.785 0.55,1.785 l 0.54375,0 c 0,0 0.5475,-1.64625 0.5525,-1.785 l 0.0412,0 c 0.007,0.13375 0.04,0.23125 0.0562,0.36375 l 0.10375,1.42125 1.0125,0 -0.37875,-3.2175 -1.0725,0 -0.575,1.67125 -0.0213,0 0.0213,0 z" />
    <path
       inkscape:connector-curvature="0"
       id="path1968"
       style="fill:#e31536;fill-opacity:1;fill-rule:nonzero;stroke:none"
       d="m 321.88987,469.97182 c -0.0512,-0.1625 -0.0675,-0.31375 -0.11375,-0.46375 l -0.4425,-1.5175 -1.1025,0 1.23875,3.21375 0.92125,0 1.24125,-3.21375 -1.095,0 -0.4475,1.5175 c -0.0463,0.15 -0.0625,0.30125 -0.11625,0.46375 l -0.0838,0 z" />
    <path
       d="m 324.23525,471.2077 1.0375,0 0,-3.21625 -1.0375,0 0,3.21625 z"
       style="fill:#e31536;fill-opacity:1;fill-rule:nonzero;stroke:none"
       id="path1970"
       inkscape:connector-curvature="0" />
    <path
       inkscape:connector-curvature="0"
       id="path1974"
       style="fill:#e31536;fill-opacity:1;fill-rule:nonzero;stroke:none"
       d="m 264.92113,467.95608 0,0.9 0.65125,-0.0163 0,2.3625 1.085,0 0,-2.3625 0.6575,0.0163 0,-0.9 -2.39375,0 z" />
    <path
       inkscape:connector-curvature="0"
       id="path1978"
       style="fill:#e31536;fill-opacity:1;fill-rule:nonzero;stroke:none"
       d="m 270.0295,467.95332 0,1.945 c 0,0.26 -0.10875,0.48 -0.41375,0.48 -0.30875,0 -0.41625,-0.22 -0.41625,-0.48 l 0,-1.945 -1.05125,0 0,1.9375 c 0,0.9475 0.58,1.38375 1.4675,1.38375 0.885,0 1.465,-0.43625 1.465,-1.38375 l 0,-1.9375 -1.05125,0 z" />
    <path
       inkscape:connector-curvature="0"
       id="path1982"
       style="fill:#e31536;fill-opacity:1;fill-rule:nonzero;stroke:none"
       d="m 271.88275,471.1992 1.04875,0 0,-1.30875 0.0237,0 0.76125,1.30875 1.2375,0 -0.7075,-1.0375 c -0.0725,-0.0925 -0.20625,-0.3175 -0.26625,-0.36625 l 0,-0.0238 c 0.44125,-0.15 0.74375,-0.35875 0.74375,-0.85125 0,-0.82375 -0.6725,-0.9675 -1.40625,-0.9675 l -1.435,0 0,3.24625 z m 1.04625,-2.54125 0.1325,0 c 0.30875,0 0.57625,0.0437 0.57625,0.40125 0,0.34375 -0.29125,0.385 -0.5875,0.385 l -0.12125,0 0,-0.78625 z" />
    <path
       inkscape:connector-curvature="0"
       id="path1986"
       style="fill:#e31536;fill-opacity:1;fill-rule:nonzero;stroke:none"
       d="m 275.48475,471.1992 1.055,0 0,-1.0375 c 0,-0.2175 -0.005,-0.43375 -0.045,-0.66125 l 0.0362,0 1.0075,1.69875 1.11,0 0,-3.24625 -1.0225,0 0,0.98125 c 0,0.27375 -0.0288,0.55875 0.0213,0.8325 l -0.0375,0 -1.0425,-1.81375 -1.0825,0 0,3.24625 z" />
    <path
       inkscape:connector-curvature="0"
       id="path1990"
       style="fill:#e31536;fill-opacity:1;fill-rule:nonzero;stroke:none"
       d="m 279.63537,467.95608 0,3.25125 2.16125,0 0,-0.76125 -1.08125,0 0,-0.49875 0.96125,0 0,-0.73125 -0.96125,0 0,-0.50625 1.045,0 0,-0.75375 -2.125,0 z" />
    <path
       inkscape:connector-curvature="0"
       id="path1994"
       style="fill:#e31536;fill-opacity:1;fill-rule:nonzero;stroke:none"
       d="m 282.82962,471.1992 1.05375,0 0,-1.30875 0.02,0 0.76875,1.30875 1.22875,0 -0.71,-1.0375 c -0.0638,-0.0925 -0.20625,-0.3175 -0.26375,-0.36625 l 0,-0.0238 c 0.43875,-0.15 0.74,-0.35875 0.74,-0.85125 0,-0.82375 -0.665,-0.9675 -1.4025,-0.9675 l -1.435,0 0,3.24625 z m 1.0425,-2.54125 0.13875,0 c 0.30375,0 0.5775,0.0437 0.5775,0.40125 0,0.34375 -0.29375,0.385 -0.59125,0.385 l -0.125,0 0,-0.78625 z" />
    <path
       inkscape:connector-curvature="0"
       id="path1998"
       style="fill:#e31536;fill-opacity:1;fill-rule:nonzero;stroke:none"
       d="m 290.83975,468.06182 c -0.255,-0.0863 -0.53,-0.1375 -0.79625,-0.1375 -0.95375,0 -1.7,0.76 -1.7,1.70375 0,0.93125 0.7275,1.6525 1.65125,1.6525 0.2075,0 0.65125,-0.0375 0.83125,-0.17375 l 0,-1.02375 c -0.21375,0.1375 -0.38375,0.1625 -0.6325,0.1575 -0.4025,-0.02 -0.69125,-0.27125 -0.705,-0.62875 -0.002,-0.43125 0.17,-0.69625 0.555,-0.765 0.30625,-0.0512 0.58875,0.0275 0.79375,0.16375 l 0.002,-0.94875 z" />
    <path
       inkscape:connector-curvature="0"
       id="path2002"
       style="fill:#e31536;fill-opacity:1;fill-rule:nonzero;stroke:none"
       d="m 291.82325,467.99395 0,3.24375 2.0525,0 0,-0.905 -1.01,0 0,-2.33875 -1.0425,0 z" />
    <path
       inkscape:connector-curvature="0"
       id="path2006"
       style="fill:#e31536;fill-opacity:1;fill-rule:nonzero;stroke:none"
       d="m 301.627,470.89033 c 0.47375,0.3275 0.82625,0.43125 1.23,0.43125 0.68875,0 1.37125,-0.3775 1.37125,-1.1625 0,-0.56375 -0.26625,-0.875 -0.87875,-0.97875 -0.24875,-0.035 -0.595,-0.035 -0.57875,-0.29 0.0162,-0.24375 0.27625,-0.27375 0.37625,-0.27375 0.24375,0 0.47125,0.10875 0.67125,0.25 l 0.27125,-0.6725 c -0.31125,-0.1975 -0.6475,-0.28875 -1.01,-0.28875 -0.69375,0 -1.36625,0.4325 -1.3875,1.21875 -0.005,0.325 0.2875,0.69125 0.84,0.78875 0.29,0.0563 0.6825,0.0863 0.6825,0.33 0,0.27125 -0.30375,0.2925 -0.42,0.295 -0.325,0.0163 -0.61,-0.1675 -0.815,-0.33625 l -0.06,-0.0425 -0.2925,0.73125 z" />
    <path
       d="m 305.13025,471.2427 1.04625,0 0,-3.24625 -1.04625,0 0,3.24625 z"
       style="fill:#e31536;fill-opacity:1;fill-rule:nonzero;stroke:none"
       id="path2008"
       inkscape:connector-curvature="0" />
    <path
       inkscape:connector-curvature="0"
       id="path2012"
       style="fill:#e31536;fill-opacity:1;fill-rule:nonzero;stroke:none"
       d="m 298.46775,470.89033 c 0.46875,0.3275 0.82375,0.43125 1.22375,0.43125 0.69,0 1.3775,-0.3775 1.3775,-1.1625 0,-0.56375 -0.27125,-0.875 -0.88125,-0.97875 -0.25625,-0.035 -0.5975,-0.035 -0.58375,-0.29 0.02,-0.24375 0.275,-0.27375 0.37875,-0.27375 0.24625,0 0.47625,0.10875 0.66875,0.25 l 0.27625,-0.6725 c -0.315,-0.1975 -0.65125,-0.28875 -1.015,-0.28875 -0.6875,0 -1.3625,0.4325 -1.38125,1.21875 -0.002,0.325 0.28625,0.69125 0.83125,0.78875 0.29125,0.0563 0.68875,0.0863 0.68875,0.33 0,0.27125 -0.305,0.2925 -0.42125,0.295 -0.325,0.0163 -0.61125,-0.1675 -0.81625,-0.33625 l -0.06,-0.0425 -0.28625,0.73125 z" />
    <path
       inkscape:connector-curvature="0"
       id="path2016"
       style="fill:#e31536;fill-opacity:1;fill-rule:nonzero;stroke:none"
       d="m 309.40787,468.06182 c -0.24875,-0.0863 -0.5225,-0.1375 -0.79125,-0.1375 -0.95625,0 -1.69875,0.76 -1.69875,1.70375 0,0.93125 0.72625,1.6525 1.6475,1.6525 0.21125,0 0.6475,-0.0375 0.82875,-0.17375 l 0,-1.02375 c -0.2025,0.1375 -0.37625,0.1625 -0.63125,0.1575 -0.39,-0.02 -0.68875,-0.27125 -0.69875,-0.62875 -0.005,-0.43125 0.1675,-0.69625 0.5525,-0.765 0.30875,-0.0512 0.59125,0.0275 0.79125,0.16375 l 0,-0.94875 z" />
    <path
       inkscape:connector-curvature="0"
       id="path2020"
       style="fill:#e31536;fill-opacity:1;fill-rule:nonzero;stroke:none"
       d="m 295.7085,470.22933 0.35,-1.39875 0.0275,-0.01 0.0275,0.01 0.34625,1.39875 -0.75125,0 z m 0.9025,0.5825 0.09,0.42 1.1025,0 -1.12125,-3.2375 -1.19375,0 -1.11375,3.2375 1.0925,0 0.0975,-0.42 1.04625,0 z" />
  </g>
</svg>
