<svg enable-background="new 0 0 640 360" height="239.252" viewBox="0 0 609.55444 239.252" width="609.55444" xmlns="http://www.w3.org/2000/svg" xmlns:xlink="http://www.w3.org/1999/xlink"><linearGradient id="a"><stop offset="0" stop-color="#f7941e"/><stop offset=".25" stop-color="#ffde17"/><stop offset=".5" stop-color="#f9ed32"/><stop offset=".75" stop-color="#ffde17"/><stop offset="1" stop-color="#fbb040"/></linearGradient><linearGradient id="b" gradientUnits="userSpaceOnUse" x1="534.94342" x2="603.43237" xlink:href="#a" y1="163.0117" y2="97.938499"/><linearGradient id="c" gradientUnits="userSpaceOnUse" x1="563.44141" x2="614.76038" xlink:href="#a" y1="175.9565" y2="127.3102"/><linearGradient id="d" gradientUnits="userSpaceOnUse" x1="579.81049" x2="625.82928" xlink:href="#a" y1="187.5762" y2="145.33031"/><g transform="translate(-15.223 -45.114)"><path d="m63.176 118.508s-21.746.49-19.546-22.051h-7.147l-21.26 40.93h65.547l-20.92 120.638s-2.047 18.278-24.894 18.399l-.733 5.219h89.433l.61-5.463s-17.685 1.223-17.516-14.661l20.242-122.374.291-1.76c7.292-1.589 18.56 0 18.56 0 11.677 2.017 24.199 7.525 21.912 22.101l7.947-.048 20.709-40.931h-133.235z"/><path d="m126.991 139.146.291-1.76z"/></g><path d="m192.856 73.579s-.245 18.814-1.161 24.312l-6.267 37.02h-5.829l-14.844 15.64 17.695 1.951-9.27 54.756s-3.179 24.325-26.145 24.051l-.606 5.035h89.433l.857-5.891s-21.183 3.187-17.641-19.526c1.512-9.701 5.265-31.162 9.066-52.565 22.565 2.419 39.852 16.38 39.852 16.38l35.92-42.396c-27.557-10.276-65.423-2.03-70.997-.723 3.124-17.409 5.507-30.554 5.507-30.554s2.689-10.63 29.812-8.675 31.443 9.844 23.113 14.696l5.719 5.829s10.424-16.859 42.354-33.72v-5.924l-146.568.304z"/><path d="m360.187 167.977c3.465-6.182 7.961-11.739 13.255-16.473.895-.801 1.821-1.569 2.76-2.321 6.4-5.534 14.286-10.014 24.021-12.83 4.649-.992 72.943-14.705 78.843 34.387h7.82l29.322-55.224h-6.842s-5.619 9.041-22.237 8.308c-16.615-.733-38.205-12.155-87.154-6.811-22.422 4.123-63.578 24.717-83.092 52.567.055.017 15.575 4.401 16.488 6.779l-27.166 32.09c1.526 42.46 16.888 74.649 101.024 75.917 28.936 0 55.016-10.113 73.453-26.296l-8.184-23.714-.03-.086c-5.869 7.426-12.439 13.297-19.168 17.97-4.996 3.062-10.429 5.513-16.216 7.193-10.513 5.868-23.111 9.292-36.663 9.29-11.466-.003-22.231-2.48-31.646-6.79-1.775-1.239-3.392-2.594-4.875-4.034-1.087-1.361-2.14-2.754-3.127-4.201-5.732-8.4-9.735-18.189-11.475-28.792-.637-3.886-.98-7.877-.979-11.955.003-9.646 1.861-18.834 5.219-27.192 1.307-6.314 3.569-12.292 6.649-17.782z" transform="translate(-15.223 -45.114)"/><g transform="translate(-15.223 -45.114)"><path d="m588.776 45.114s13.677 28.102-34.705 54.492-67.198 80.882 3.666 108.495c0 0-51.921-30.548 25.051-88.827 0 0 46.797-28.831 5.988-74.16z" fill="url(#b)"/><path d="m563.614 150.188s1.467-10.265 3.177-12.219c1.711-1.954-51.557 42.028-1.588 72.084 0 0-19.183-17.354 13.806-39.831 32.985-22.481 45.617-46.916 26.474-69.885 0 0 6.516 19.303-13.522 27.611-20.038 8.309-28.347 22.24-28.347 22.24z" fill="url(#c)"/><path d="m567.03 208.101s-4.398-8.556 20.525-14.178c24.923-5.62 50.337-25.903 29.568-64.999 0 0 3.172 27.613-28.836 41.296-32.01 13.684-28.099 30.799-21.257 37.881z" fill="url(#d)"/><path d="m589.057 204.077c-.896.602-2.005 1.346-3.266 2.19 1.301-.862 2.394-1.591 3.266-2.19z"/><path d="m565.742 211.167c-8.001 2.206-17.513 4.393-28.012 5.966-.008 0-.019.002-.026.002 0 0 .268 4.797.293 12.084-.012 3.29-.046 6.214-.059 7.23-.003.243-.005.387-.005.39.026-.015 34.292-21.603 47.857-30.571 1.261-.845 2.37-1.589 3.266-2.19.88-.604 1.532-1.067 1.873-1.34.063-.066.125-.13.167-.169.037-.037.062-.057.084-.077-.518.229-10.227 4.483-25.438 8.675z" fill="#e82433"/><path d="m591.181 202.491c-.022.021-.047.04-.084.077-.042.039-.104.103-.167.169-.341.272-.993.736-1.873 1.34-.872.599-1.965 1.328-3.266 2.19-13.565 8.969-47.831 30.557-47.857 30.571 0-.003.002-.146.005-.39-.06 3.081-.171 6.395-.358 9.836-.263 4.852-.674 9.947-1.3 15.01-.006.056-.008.093-.01.104.027-.03 32.096-34.505 47.352-50.833 3.489-3.771 6.043-6.52 7.081-7.6.05-.031.08-.052.128-.082.118-.127.233-.25.323-.342.018-.017.048-.051.064-.068 0 .001-.024.012-.038.018z" fill="#00a35b"/><path d="m591.154 202.542c-.09.092-.205.215-.323.342-.048.03-.078.051-.128.082-1.038 1.08-3.592 3.829-7.081 7.6-15.256 16.328-47.324 50.803-47.352 50.833.002-.011.004-.048.01-.104-.379 3.076-.84 6.132-1.393 9.112-.696 3.752-1.535 7.383-2.559 10.75 0 0 .719-.043 1.798-.181 1.523-.191 3.771-.57 5.775-1.285l51.14-76.951.141-.212c-.009.006-.019.009-.028.014z" fill="#0b6aad"/></g></svg>