<?xml version="1.0" encoding="UTF-8" standalone="no"?>
<!-- Generator: Adobe Illustrator 16.0.0, SVG Export Plug-In . SVG Version: 6.00 Build 0)  -->

<svg
   xmlns:dc="http://purl.org/dc/elements/1.1/"
   xmlns:cc="http://creativecommons.org/ns#"
   xmlns:rdf="http://www.w3.org/1999/02/22-rdf-syntax-ns#"
   xmlns:svg="http://www.w3.org/2000/svg"
   xmlns="http://www.w3.org/2000/svg"
   xmlns:sodipodi="http://sodipodi.sourceforge.net/DTD/sodipodi-0.dtd"
   xmlns:inkscape="http://www.inkscape.org/namespaces/inkscape"
   version="1.1"
   id="Layer_1"
   x="0px"
   y="0px"
   width="609.55444"
   height="239.252"
   viewBox="0 0 609.55444 239.252"
   enable-background="new 0 0 640 360"
   xml:space="preserve"
   inkscape:version="0.91 r13725"
   sodipodi:docname="TFC2011.svg"><metadata
     id="metadata70"><rdf:RDF><cc:Work
         rdf:about=""><dc:format>image/svg+xml</dc:format><dc:type
           rdf:resource="http://purl.org/dc/dcmitype/StillImage" /><dc:title></dc:title></cc:Work></rdf:RDF></metadata><defs
     id="defs68" /><sodipodi:namedview
     pagecolor="#ffffff"
     bordercolor="#666666"
     borderopacity="1"
     objecttolerance="10"
     gridtolerance="10"
     guidetolerance="10"
     inkscape:pageopacity="0"
     inkscape:pageshadow="2"
     inkscape:window-width="690"
     inkscape:window-height="480"
     id="namedview66"
     showgrid="false"
     fit-margin-top="0"
     fit-margin-left="0"
     fit-margin-right="0"
     fit-margin-bottom="0"
     inkscape:zoom="0.45"
     inkscape:cx="304.777"
     inkscape:cy="104.366"
     inkscape:window-x="0"
     inkscape:window-y="0"
     inkscape:window-maximized="0"
     inkscape:current-layer="Layer_1" /><g
     id="g3"
     transform="translate(-15.223,-45.114)"><path
       d="m 63.176,118.508 c 0,0 -21.746,0.49 -19.546,-22.051 l -7.147,0 -21.26,40.93 65.547,0 -20.92,120.638 c 0,0 -2.047,18.278 -24.894,18.399 l -0.733,5.219 89.433,0 0.61,-5.463 c 0,0 -17.685,1.223 -17.516,-14.661 l 20.242,-122.374 0,0 0.291,-1.76 c 7.292,-1.589 18.56,0 18.56,0 11.677,2.017 24.199,7.525 21.912,22.101 l 7.947,-0.048 20.709,-40.931 -133.235,0 z"
       id="path5"
	   style="opacity:1;fill:#ffffff"
       inkscape:connector-curvature="0" /><polygon
       points="126.991,139.146 126.991,139.146 127.282,137.386 "
       id="polygon7" /></g><path
     d="m 192.856,73.579 c 0,0 -0.245,18.814 -1.161,24.312 l -6.267,37.02 -5.829,0 -14.844,15.64 17.695,1.951 -9.27,54.756 c 0,0 -3.179,24.325 -26.145,24.051 l -0.606,5.035 89.433,0 0.857,-5.891 c 0,0 -21.183,3.187 -17.641,-19.526 1.512,-9.701 5.265,-31.162 9.066,-52.565 22.565,2.419 39.852,16.38 39.852,16.38 l 35.92,-42.396 c -27.557,-10.276 -65.423,-2.03 -70.997,-0.723 3.124,-17.409 5.507,-30.554 5.507,-30.554 0,0 2.689,-10.63 29.812,-8.675 27.123,1.955 31.443,9.844 23.113,14.696 l 5.719,5.829 c 0,0 10.424,-16.859 42.354,-33.72 l 0,-5.924 -146.568,0.304 z"
     id="path9"
	   style="opacity:1;fill:#ffffff"
     inkscape:connector-curvature="0" /><g
     id="g11"
     transform="translate(-15.223,-45.114)"><path
       d="m 360.187,167.977 c 3.465,-6.182 7.961,-11.739 13.255,-16.473 0.895,-0.801 1.821,-1.569 2.76,-2.321 6.4,-5.534 14.286,-10.014 24.021,-12.83 4.649,-0.992 72.943,-14.705 78.843,34.387 l 7.82,0 29.322,-55.224 -6.842,0 c 0,0 -5.619,9.041 -22.237,8.308 -16.615,-0.733 -38.205,-12.155 -87.154,-6.811 -22.422,4.123 -63.578,24.717 -83.092,52.567 0.055,0.017 15.575,4.401 16.488,6.779 l -27.166,32.09 c 1.526,42.46 16.888,74.649 101.024,75.917 28.936,0 55.016,-10.113 73.453,-26.296 l -8.184,-23.714 -0.03,-0.086 c -5.869,7.426 -12.439,13.297 -19.168,17.97 -4.996,3.062 -10.429,5.513 -16.216,7.193 -10.513,5.868 -23.111,9.292 -36.663,9.29 -11.466,-0.003 -22.231,-2.48 -31.646,-6.79 -1.775,-1.239 -3.392,-2.594 -4.875,-4.034 -1.087,-1.361 -2.14,-2.754 -3.127,-4.201 -5.732,-8.4 -9.735,-18.189 -11.475,-28.792 -0.637,-3.886 -0.98,-7.877 -0.979,-11.955 0.003,-9.646 1.861,-18.834 5.219,-27.192 1.307,-6.314 3.569,-12.292 6.649,-17.782 z"
       id="path13"
	   style="opacity:1;fill:#ffffff"
       inkscape:connector-curvature="0" /></g><g
     id="g15"
     transform="translate(-15.223,-45.114)"><linearGradient
       id="SVGID_1_"
       gradientUnits="userSpaceOnUse"
       x1="534.94342"
       y1="163.0117"
       x2="603.43237"
       y2="97.938499"><stop
         offset="0"
         style="stop-color:#F7941E"
         id="stop18" /><stop
         offset="0.25"
         style="stop-color:#FFDE17"
         id="stop20" /><stop
         offset="0.5"
         style="stop-color:#F9ED32"
         id="stop22" /><stop
         offset="0.75"
         style="stop-color:#FFDE17"
         id="stop24" /><stop
         offset="1"
         style="stop-color:#FBB040"
         id="stop26" /></linearGradient><path
       d="m 588.776,45.114 c 0,0 13.677,28.102 -34.705,54.492 -48.382,26.39 -67.198,80.882 3.666,108.495 0,0 -51.921,-30.548 25.051,-88.827 0,0 46.797,-28.831 5.988,-74.16 z"
       id="path28"
       inkscape:connector-curvature="0"
       style="fill:url(#SVGID_1_)" /><linearGradient
       id="SVGID_2_"
       gradientUnits="userSpaceOnUse"
       x1="563.44141"
       y1="175.9565"
       x2="614.76038"
       y2="127.3102"><stop
         offset="0"
         style="stop-color:#F7941E"
         id="stop31" /><stop
         offset="0.25"
         style="stop-color:#FFDE17"
         id="stop33" /><stop
         offset="0.5"
         style="stop-color:#F9ED32"
         id="stop35" /><stop
         offset="0.75"
         style="stop-color:#FFDE17"
         id="stop37" /><stop
         offset="1"
         style="stop-color:#FBB040"
         id="stop39" /></linearGradient><path
       d="m 563.614,150.188 c 0,0 1.467,-10.265 3.177,-12.219 1.711,-1.954 -51.557,42.028 -1.588,72.084 0,0 -19.183,-17.354 13.806,-39.831 32.985,-22.481 45.617,-46.916 26.474,-69.885 0,0 6.516,19.303 -13.522,27.611 -20.038,8.309 -28.347,22.24 -28.347,22.24 z"
       id="path41"
       inkscape:connector-curvature="0"
       style="fill:url(#SVGID_2_)" /><linearGradient
       id="SVGID_3_"
       gradientUnits="userSpaceOnUse"
       x1="579.81049"
       y1="187.5762"
       x2="625.82928"
       y2="145.33031"><stop
         offset="0"
         style="stop-color:#F7941E"
         id="stop44" /><stop
         offset="0.25"
         style="stop-color:#FFDE17"
         id="stop46" /><stop
         offset="0.5"
         style="stop-color:#F9ED32"
         id="stop48" /><stop
         offset="0.75"
         style="stop-color:#FFDE17"
         id="stop50" /><stop
         offset="1"
         style="stop-color:#FBB040"
         id="stop52" /></linearGradient><path
       d="m 567.03,208.101 c 0,0 -4.398,-8.556 20.525,-14.178 24.923,-5.62 50.337,-25.903 29.568,-64.999 0,0 3.172,27.613 -28.836,41.296 -32.01,13.684 -28.099,30.799 -21.257,37.881 z"
       id="path54"
       inkscape:connector-curvature="0"
       style="fill:url(#SVGID_3_)" /><g
       id="g56"><path
         d="m 589.057,204.077 c -0.896,0.602 -2.005,1.346 -3.266,2.19 1.301,-0.862 2.394,-1.591 3.266,-2.19 z"
         id="path58"
         inkscape:connector-curvature="0" /><path
         d="m 565.742,211.167 c -8.001,2.206 -17.513,4.393 -28.012,5.966 -0.008,0 -0.019,0.002 -0.026,0.002 0,0 0.268,4.797 0.293,12.084 -0.012,3.29 -0.046,6.214 -0.059,7.23 -0.003,0.243 -0.005,0.387 -0.005,0.39 0.026,-0.015 34.292,-21.603 47.857,-30.571 1.261,-0.845 2.37,-1.589 3.266,-2.19 0.88,-0.604 1.532,-1.067 1.873,-1.34 0.063,-0.066 0.125,-0.13 0.167,-0.169 0.037,-0.037 0.062,-0.057 0.084,-0.077 -0.518,0.229 -10.227,4.483 -25.438,8.675 z"
         id="path60"
         inkscape:connector-curvature="0"
         style="fill:#e82433" /><path
         d="m 591.181,202.491 c -0.022,0.021 -0.047,0.04 -0.084,0.077 -0.042,0.039 -0.104,0.103 -0.167,0.169 -0.341,0.272 -0.993,0.736 -1.873,1.34 -0.872,0.599 -1.965,1.328 -3.266,2.19 -13.565,8.969 -47.831,30.557 -47.857,30.571 0,-0.003 0.002,-0.146 0.005,-0.39 -0.06,3.081 -0.171,6.395 -0.358,9.836 -0.263,4.852 -0.674,9.947 -1.3,15.01 -0.006,0.056 -0.008,0.093 -0.01,0.104 0.027,-0.03 32.096,-34.505 47.352,-50.833 3.489,-3.771 6.043,-6.52 7.081,-7.6 0.05,-0.031 0.08,-0.052 0.128,-0.082 0.118,-0.127 0.233,-0.25 0.323,-0.342 0.018,-0.017 0.048,-0.051 0.064,-0.068 0,10e-4 -0.024,0.012 -0.038,0.018 z"
         id="path62"
         inkscape:connector-curvature="0"
         style="fill:#00a35b" /><path
         d="m 591.154,202.542 c -0.09,0.092 -0.205,0.215 -0.323,0.342 -0.048,0.03 -0.078,0.051 -0.128,0.082 -1.038,1.08 -3.592,3.829 -7.081,7.6 -15.256,16.328 -47.324,50.803 -47.352,50.833 0.002,-0.011 0.004,-0.048 0.01,-0.104 -0.379,3.076 -0.84,6.132 -1.393,9.112 -0.696,3.752 -1.535,7.383 -2.559,10.75 0,0 0.719,-0.043 1.798,-0.181 1.523,-0.191 3.771,-0.57 5.775,-1.285 l 51.14,-76.951 0.141,-0.212 c -0.009,0.006 -0.019,0.009 -0.028,0.014 z"
         id="path64"
         inkscape:connector-curvature="0"
         style="fill:#0b6aad" /></g></g></svg>