<svg width="800" height="204.92" version="1.1" viewBox="0 0 800 204.92" xmlns="http://www.w3.org/2000/svg">
 <defs>
  <linearGradient id="linearGradient834" x1=".25185" x2="178.69" y1="22.997" y2="22.997" gradientUnits="userSpaceOnUse">
   <stop stop-color="#00b7af" offset="0"/>
   <stop stop-color="#00ada6" offset="1"/>
  </linearGradient>
 </defs>
 <g transform="matrix(4.4833 0 0 4.4833 -1.1291 -.6453)" fill="url(#linearGradient834)" fill-rule="evenodd">
  <g transform="translate(-165,-151)" fill="url(#linearGradient834)">
   <g transform="translate(165,151)" fill="url(#linearGradient834)">
    <g fill="url(#linearGradient834)">
     <g fill="url(#linearGradient834)">
      <path d="m178.69 36.567s-14.797 7.7166-44.959 9.1664c-28.987 1.3934-57.47-10.077-84.685-9.0561s-42.868 8.4042-44.993 8.6069c-1.477 0.14146-2.6044-0.42092-3.4237-1.8989-0.62749-1.1307-0.49744-2.9915 0.51425-4.1074 1.2856-1.4181 14.572-10.335 48.53-10.439 30.68-0.09398 49.583 8.461 76.441 10.3 27.958 1.9152 52.575-2.572 52.575-2.572zm-95.586-26.157v-0.16867c1.8078-0.58959 2.7755-2.3984 2.7755-4.2914 0-4.8384-4.206-5.8059-8.2864-5.8059h-8.9579v21.119h10.472c3.6591 0 7.7395-1.471 7.7395-5.8059 0-2.5231-1.5146-4.2068-3.7432-5.0476zm19.6 2.7341v-0.12662c2.8596-0.96748 4.0784-2.3559 4.0784-5.5526 0-5.3009-3.9949-7.3204-8.7903-7.3204h-9.2111v21.119h7.4028v-6.7724h0.21015l1.346 2.7763 2.0189 3.9961h8.8333l-4.5848-6.8565c-0.46333-0.63164-0.92517-0.96798-1.3034-1.2633zm14.258 0.29539h5.9307v-5.5541h-5.9307v-1.9775h6.5187v-5.7638h-14.175v21.12h14.384v-5.7638h-6.7283zm16.948 0h5.8907v-5.5541h-5.8907v-1.9775h6.4776v-5.7638h-14.216v21.12h14.469v-5.7638h-6.7308zm9.4224-13.295v6.395h5.7616c0.63244 0 1.2199-0.12514 1.8518-0.25275l0.0841 0.084086c-0.67347 0.84135-1.3034 1.5991-1.8938 2.5656l-7.6114 12.328h20.566v-6.5216h-6.3931c-0.5459 0-1.2189 0.04353-1.7658 0.12811l-0.0841-0.12811 9.1686-14.598zm28.557 15.356v-2.0606h5.8882v-5.5541h-5.8882v-1.9775h6.4786v-5.7638h-14.217v21.12h14.384v-5.7638zm-171.14-15.356v6.858l4.2475-0.21071v14.473h7.697v-14.473l4.164 0.21071v-6.858zm29.736 0v7.1102h-4.7109v-7.1102h-7.4443v21.12h7.4443v-7.363h4.7109v7.363h7.3187v-21.12zm10.179 0v21.12h14.384v-5.7638h-6.7293v-2.0606h5.9302v-5.5541h-5.9302v-1.9775h6.5192v-5.7638zm57.074 9.2984c-0.29372 0.084581-0.63095 0.084581-0.9667 0.084581h-0.58941v-3.6192h0.67348c0.29421 0 0.63046 0 0.88264 0.042043 0.92665 0.16916 1.5561 0.54755 1.5561 1.7668 0 1.1366-0.71452 1.5991-1.5561 1.7257zm-21.997-4.166h1.5561c0.8416 0.042043 1.5146 0.29381 1.5146 1.3884 0 1.0941-0.67298 1.4305-1.5146 1.5581-0.25218 0-0.58941 0.083097-0.84061 0.083097h-0.71551zm1.5561 10.94h-1.5561v-3.4935h1.5561c1.1363 0.08557 2.4397 0.33733 2.4397 1.7693 0 1.4305-1.3034 1.6807-2.4397 1.7243z" fill="url(#linearGradient834)"/>
     </g>
    </g>
   </g>
  </g>
 </g>
</svg>
