<svg height="8.749948mm" viewBox="0 0 32.685249 31.003751" width="9.224504mm" xmlns="http://www.w3.org/2000/svg" xmlns:xlink="http://www.w3.org/1999/xlink"><clipPath id="a"><path d="m508.94 741.551h26.149v24.803h-26.149z"/></clipPath><g clip-path="url(#a)" transform="matrix(1.25 0 0 -1.25 -636.17563 957.9425)"><g transform="translate(526.5057 744.7888)"><path d="m0 0s-2.437-.706-2.574-.745c-.137-.04-.242-.061-.324-.068-.081-.01-.139-.006-.178.003-.042.008-.065.022-.077.034-.013.011-.016.022-.016.022l-.224.446c-.018.034-.045.061-.082.083-.037.019-.083.032-.136.038s-.116.004-.184-.004c-.068-.009-.143-.024-.224-.046-.08-.022-.168-.051-.259-.087-.09-.034-.186-.076-.283-.123-.099-.048-.2-.102-.302-.16-.102-.06-.205-.125-.31-.196l-1.369-.921s-.026-.019-.076-.05c-.049-.031-.123-.075-.216-.123-.094-.05-.208-.105-.339-.159-.132-.054-.281-.11-.447-.157-.167-.048-3.5-1.021-3.505-1.023-.004-.001-.007-.003-.007-.003s1.548 2.397 1.598 2.474c.085.133.184.254.283.358.1.107.2.197.289.271.09.073.169.13.225.168.057.038.09.059.09.059l1.667 1.023c.124.078.242.158.352.238s.211.162.305.242c.092.082.175.165.25.246.074.081.139.16.193.238.054.08.098.155.13.229.032.073.054.145.062.211.008.067.004.128-.013.185-.018.057-.05.109-.094.154l-.642.614s-.016.011-.032.039-.034.073-.038.138c-.004.066.006.153.044.266.038.115.106.257.218.43.066.103 2.468 3.852 2.472 3.855h.004l.001.003c.001.001 4.029.428 4.102.435.188.02.327.013.431-.01.104-.022.172-.059.217-.099.045-.039.068-.08.078-.112.013-.032.013-.053.013-.053l.096-.981c.007-.07.025-.129.059-.176.031-.05.074-.088.126-.113.053-.028.117-.046.187-.053.071-.006.15-.004.237.009s.181.036.28.068c.101.03.205.071.316.123.11.048.225.107.344.176.12.067.243.144.368.23l1.678 1.143s.033.024.091.061c.061.037.146.087.251.138.105.054.228.107.362.153.132.044.276.079.422.096.04.004 2.693.293 2.693.293s-2.698-2.989-2.774-3.073c-.128-.142-.251-.264-.365-.369-.114-.104-.218-.189-.306-.258s-.161-.12-.211-.153c-.051-.034-.079-.05-.079-.05l-1.436-.885c-.109-.067-.212-.136-.312-.208-.099-.07-.194-.142-.283-.215-.088-.073-.171-.146-.246-.219-.076-.071-.145-.144-.206-.213-.059-.07-.112-.136-.155-.201-.044-.064-.079-.124-.104-.181-.025-.056-.04-.109-.046-.157-.005-.047 0-.089.016-.125l.202-.466s.006-.008.007-.028c.003-.019-.001-.049-.016-.093-.015-.045-.043-.105-.094-.183-.052-.076-.124-.17-.228-.286z" fill="#ee2722"/></g><g transform="translate(514.6885 753.485)"><path d="m0 0-.954-2.071c-.062-.133-.106-.288-.132-.454-.026-.164-.035-.342-.029-.522.008-.179.031-.36.07-.534.04-.173.096-.339.166-.487.072-.149.154-.265.24-.349.087-.085.177-.136.268-.152.09-.016.18.003.265.058s.164.147.23.279l1.045 2.046c.074.145.127.314.16.498.035.185.048.385.041.584-.006.2-.034.401-.079.59-.047.188-.112.363-.196.516-.084.151-.179.264-.277.338-.096.073-.199.109-.298.107-.099-.003-.196-.041-.284-.116s-.168-.185-.236-.331m-2.436 4.557-.779-2.096c-.052-.136-.087-.288-.107-.448s-.027-.328-.02-.494c.007-.167.028-.333.061-.489.034-.154.083-.3.143-.427.061-.125.129-.219.202-.284.073-.063.149-.095.225-.093.075.001.15.034.221.101.069.067.134.167.189.301l.848 2.09c.06.148.102.314.129.492.026.177.036.365.028.548-.007.184-.03.366-.07.535-.04.166-.095.319-.165.447-.07.126-.149.214-.231.267-.081.053-.165.069-.247.051-.081-.017-.161-.07-.234-.154-.072-.084-.138-.2-.193-.347m-3.312-3.929 2.682 7.968c.174.528.387.97.624 1.316.241.355.509.611.787.755.283.149.576.181.862.083.291-.098.575-.333.827-.715.135-.204.255-.438.357-.697.104-.261.191-.545.262-.85.071-.306.125-.628.161-.963s.054-.679.056-1.03c.003-.096.01-.188.022-.276.013-.087.029-.171.049-.248.02-.079.043-.151.071-.217.026-.067.058-.127.091-.18.028-.045.058-.085.09-.121.033-.035.066-.066.101-.09.037-.026.074-.045.114-.058.038-.014.077-.022.12-.024.192.076.39.115.589.115.202 0 .406-.04.605-.122.204-.084.404-.21.598-.381.196-.173.384-.393.561-.659.328-.494.581-1.099.756-1.771.176-.675.269-1.41.28-2.15.008-.737-.065-1.475-.222-2.161-.153-.678-.386-1.299-.694-1.819 0 0-4.577-7.693-4.579-7.696.002.004-5.169 11.992-5.17 11.991" fill="#ee2722"/></g><g transform="translate(523.0747 763.0366)"><path d="m0 0c-.166.016-.304.006-.41-.028-.108-.033-.185-.09-.227-.166-.043-.077-.05-.171-.021-.282.031-.113.099-.239.208-.376l1.71-2.142c.122-.151.274-.297.444-.432.171-.134.36-.259.556-.361.197-.104.399-.19.595-.249.195-.06.383-.094.551-.097.169-.003.303.026.401.079.096.053.156.129.181.225.024.094.012.207-.037.332-.047.126-.132.261-.255.405l-1.736 2.046c-.11.131-.247.258-.401.375-.153.118-.323.226-.498.318-.176.094-.357.175-.538.233-.18.062-.357.103-.523.12m2.52-7.93c-.615-.039-1.165-.027-1.67.05-.511.079-.971.224-1.403.449s-.83.53-1.22.924c-.385.39-.757.863-1.141 1.429l-1.766 2.595-1.362 2.004-1.41 2.071c-.281.413-.462.742-.536.996-.074.251-.046.43.093.548.135.117.378.175.731.181.348.006.804-.036 1.37-.119l6.81-.989c.41-.059.756-.125 1.064-.208.306-.083.577-.185.835-.318.258-.132.506-.296.77-.504.264-.211.545-.465.866-.783.016-.015 2.506-2.669 2.506-2.669l2.598-2.776c.402-.43.71-.79.92-1.089.214-.305.327-.545.337-.735.01-.193-.086-.331-.289-.429-.207-.1-.526-.155-.961-.183z" fill="#ee2722"/></g></g></svg>