<?xml version="1.0" encoding="UTF-8"?>
<!-- Created with Inkscape (http://www.inkscape.org/) -->
<svg id="svg312380" width="9.2245mm" height="8.7499mm" version="1.1" viewBox="0 0 32.685 31.004" xmlns="http://www.w3.org/2000/svg" xmlns:cc="http://creativecommons.org/ns#" xmlns:dc="http://purl.org/dc/elements/1.1/" xmlns:rdf="http://www.w3.org/1999/02/22-rdf-syntax-ns#">
 <defs id="defs312382">
  <clipPath id="clipPath71632">
   <path id="path71634" d="m508.94 741.55h26.149v24.803h-26.149v-24.803z"/>
  </clipPath>
 </defs>
 <metadata id="metadata312385">
  <rdf:RDF>
   <cc:Work rdf:about="">
    <dc:format>image/svg+xml</dc:format>
    <dc:type rdf:resource="http://purl.org/dc/dcmitype/StillImage"/>
    <dc:title/>
   </cc:Work>
  </rdf:RDF>
 </metadata>
 <g id="layer1" transform="translate(-186.51 -539.72)">
  <g id="g71628" transform="matrix(1.25 0 0 -1.25 -449.66 1497.7)">
   <g id="g71630" clip-path="url(#clipPath71632)">
    <g id="g71636" transform="translate(526.51 744.79)">
     <path id="path71638" d="m0 0s-2.437-0.706-2.574-0.745c-0.137-0.04-0.242-0.061-0.324-0.068-0.081-0.01-0.139-6e-3 -0.178 3e-3 -0.042 8e-3 -0.065 0.022-0.077 0.034-0.013 0.011-0.016 0.022-0.016 0.022l-0.224 0.446c-0.018 0.034-0.045 0.061-0.082 0.083-0.037 0.019-0.083 0.032-0.136 0.038s-0.116 4e-3 -0.184-4e-3c-0.068-9e-3 -0.143-0.024-0.224-0.046-0.08-0.022-0.168-0.051-0.259-0.087-0.09-0.034-0.186-0.076-0.283-0.123-0.099-0.048-0.2-0.102-0.302-0.16-0.102-0.06-0.205-0.125-0.31-0.196l-1.369-0.921s-0.026-0.019-0.076-0.05c-0.049-0.031-0.123-0.075-0.216-0.123-0.094-0.05-0.208-0.105-0.339-0.159-0.132-0.054-0.281-0.11-0.447-0.157-0.167-0.048-3.5-1.021-3.505-1.023-4e-3 -1e-3 -7e-3 -3e-3 -7e-3 -3e-3s1.548 2.397 1.598 2.474c0.085 0.133 0.184 0.254 0.283 0.358 0.1 0.107 0.2 0.197 0.289 0.271 0.09 0.073 0.169 0.13 0.225 0.168 0.057 0.038 0.09 0.059 0.09 0.059l1.667 1.023c0.124 0.078 0.242 0.158 0.352 0.238s0.211 0.162 0.305 0.242c0.092 0.082 0.175 0.165 0.25 0.246 0.074 0.081 0.139 0.16 0.193 0.238 0.054 0.08 0.098 0.155 0.13 0.229 0.032 0.073 0.054 0.145 0.062 0.211 8e-3 0.067 4e-3 0.128-0.013 0.185-0.018 0.057-0.05 0.109-0.094 0.154l-0.642 0.614s-0.016 0.011-0.032 0.039-0.034 0.073-0.038 0.138c-4e-3 0.066 6e-3 0.153 0.044 0.266 0.038 0.115 0.106 0.257 0.218 0.43 0.066 0.103 2.468 3.852 2.472 3.855h4e-3l1e-3 3e-3c1e-3 1e-3 4.029 0.428 4.102 0.435 0.188 0.02 0.327 0.013 0.431-0.01 0.104-0.022 0.172-0.059 0.217-0.099 0.045-0.039 0.068-0.08 0.078-0.112 0.013-0.032 0.013-0.053 0.013-0.053l0.096-0.981c7e-3 -0.07 0.025-0.129 0.059-0.176 0.031-0.05 0.074-0.088 0.126-0.113 0.053-0.028 0.117-0.046 0.187-0.053 0.071-6e-3 0.15-4e-3 0.237 9e-3s0.181 0.036 0.28 0.068c0.101 0.03 0.205 0.071 0.316 0.123 0.11 0.048 0.225 0.107 0.344 0.176 0.12 0.067 0.243 0.144 0.368 0.23l1.678 1.143s0.033 0.024 0.091 0.061c0.061 0.037 0.146 0.087 0.251 0.138 0.105 0.054 0.228 0.107 0.362 0.153 0.132 0.044 0.276 0.079 0.422 0.096 0.04 4e-3 2.693 0.293 2.693 0.293s-2.698-2.989-2.774-3.073c-0.128-0.142-0.251-0.264-0.365-0.369-0.114-0.104-0.218-0.189-0.306-0.258s-0.161-0.12-0.211-0.153c-0.051-0.034-0.079-0.05-0.079-0.05l-1.436-0.885c-0.109-0.067-0.212-0.136-0.312-0.208-0.099-0.07-0.194-0.142-0.283-0.215-0.088-0.073-0.171-0.146-0.246-0.219-0.076-0.071-0.145-0.144-0.206-0.213-0.059-0.07-0.112-0.136-0.155-0.201-0.044-0.064-0.079-0.124-0.104-0.181-0.025-0.056-0.04-0.109-0.046-0.157-5e-3 -0.047 0-0.089 0.016-0.125l0.202-0.466s6e-3 -8e-3 7e-3 -0.028c3e-3 -0.019-1e-3 -0.049-0.016-0.093-0.015-0.045-0.043-0.105-0.094-0.183-0.052-0.076-0.124-0.17-0.228-0.286l-1.947-2.167z" fill="#ee2722"/>
    </g>
    <g id="g71640" transform="translate(514.69 753.48)">
     <path id="path71642" d="m0 0-0.954-2.071c-0.062-0.133-0.106-0.288-0.132-0.454-0.026-0.164-0.035-0.342-0.029-0.522 8e-3 -0.179 0.031-0.36 0.07-0.534 0.04-0.173 0.096-0.339 0.166-0.487 0.072-0.149 0.154-0.265 0.24-0.349 0.087-0.085 0.177-0.136 0.268-0.152 0.09-0.016 0.18 3e-3 0.265 0.058s0.164 0.147 0.23 0.279l1.045 2.046c0.074 0.145 0.127 0.314 0.16 0.498 0.035 0.185 0.048 0.385 0.041 0.584-6e-3 0.2-0.034 0.401-0.079 0.59-0.047 0.188-0.112 0.363-0.196 0.516-0.084 0.151-0.179 0.264-0.277 0.338-0.096 0.073-0.199 0.109-0.298 0.107-0.099-3e-3 -0.196-0.041-0.284-0.116s-0.168-0.185-0.236-0.331m-2.436 4.557-0.779-2.096c-0.052-0.136-0.087-0.288-0.107-0.448s-0.027-0.328-0.02-0.494c7e-3 -0.167 0.028-0.333 0.061-0.489 0.034-0.154 0.083-0.3 0.143-0.427 0.061-0.125 0.129-0.219 0.202-0.284 0.073-0.063 0.149-0.095 0.225-0.093 0.075 1e-3 0.15 0.034 0.221 0.101 0.069 0.067 0.134 0.167 0.189 0.301l0.848 2.09c0.06 0.148 0.102 0.314 0.129 0.492 0.026 0.177 0.036 0.365 0.028 0.548-7e-3 0.184-0.03 0.366-0.07 0.535-0.04 0.166-0.095 0.319-0.165 0.447-0.07 0.126-0.149 0.214-0.231 0.267-0.081 0.053-0.165 0.069-0.247 0.051-0.081-0.017-0.161-0.07-0.234-0.154-0.072-0.084-0.138-0.2-0.193-0.347m-3.312-3.929 2.682 7.968c0.174 0.528 0.387 0.97 0.624 1.316 0.241 0.355 0.509 0.611 0.787 0.755 0.283 0.149 0.576 0.181 0.862 0.083 0.291-0.098 0.575-0.333 0.827-0.715 0.135-0.204 0.255-0.438 0.357-0.697 0.104-0.261 0.191-0.545 0.262-0.85 0.071-0.306 0.125-0.628 0.161-0.963s0.054-0.679 0.056-1.03c3e-3 -0.096 0.01-0.188 0.022-0.276 0.013-0.087 0.029-0.171 0.049-0.248 0.02-0.079 0.043-0.151 0.071-0.217 0.026-0.067 0.058-0.127 0.091-0.18 0.028-0.045 0.058-0.085 0.09-0.121 0.033-0.035 0.066-0.066 0.101-0.09 0.037-0.026 0.074-0.045 0.114-0.058 0.038-0.014 0.077-0.022 0.12-0.024 0.192 0.076 0.39 0.115 0.589 0.115 0.202 0 0.406-0.04 0.605-0.122 0.204-0.084 0.404-0.21 0.598-0.381 0.196-0.173 0.384-0.393 0.561-0.659 0.328-0.494 0.581-1.099 0.756-1.771 0.176-0.675 0.269-1.41 0.28-2.15 8e-3 -0.737-0.065-1.475-0.222-2.161-0.153-0.678-0.386-1.299-0.694-1.819 0 0-4.577-7.693-4.579-7.696 2e-3 4e-3 -5.169 11.992-5.17 11.991" fill="#ee2722"/>
    </g>
    <g id="g71644" transform="translate(523.07 763.04)">
     <path id="path71646" d="m0 0c-0.166 0.016-0.304 6e-3 -0.41-0.028-0.108-0.033-0.185-0.09-0.227-0.166-0.043-0.077-0.05-0.171-0.021-0.282 0.031-0.113 0.099-0.239 0.208-0.376l1.71-2.142c0.122-0.151 0.274-0.297 0.444-0.432 0.171-0.134 0.36-0.259 0.556-0.361 0.197-0.104 0.399-0.19 0.595-0.249 0.195-0.06 0.383-0.094 0.551-0.097 0.169-3e-3 0.303 0.026 0.401 0.079 0.096 0.053 0.156 0.129 0.181 0.225 0.024 0.094 0.012 0.207-0.037 0.332-0.047 0.126-0.132 0.261-0.255 0.405l-1.736 2.046c-0.11 0.131-0.247 0.258-0.401 0.375-0.153 0.118-0.323 0.226-0.498 0.318-0.176 0.094-0.357 0.175-0.538 0.233-0.18 0.062-0.357 0.103-0.523 0.12m2.52-7.93c-0.615-0.039-1.165-0.027-1.67 0.05-0.511 0.079-0.971 0.224-1.403 0.449s-0.83 0.53-1.22 0.924c-0.385 0.39-0.757 0.863-1.141 1.429l-1.766 2.595-1.362 2.004-1.41 2.071c-0.281 0.413-0.462 0.742-0.536 0.996-0.074 0.251-0.046 0.43 0.093 0.548 0.135 0.117 0.378 0.175 0.731 0.181 0.348 6e-3 0.804-0.036 1.37-0.119l6.81-0.989c0.41-0.059 0.756-0.125 1.064-0.208 0.306-0.083 0.577-0.185 0.835-0.318 0.258-0.132 0.506-0.296 0.77-0.504 0.264-0.211 0.545-0.465 0.866-0.783 0.016-0.015 2.506-2.669 2.506-2.669l2.598-2.776c0.402-0.43 0.71-0.79 0.92-1.089 0.214-0.305 0.327-0.545 0.337-0.735 0.01-0.193-0.086-0.331-0.289-0.429-0.207-0.1-0.526-0.155-0.961-0.183l-7.142-0.445z" fill="#ee2722"/>
    </g>
   </g>
  </g>
 </g>
</svg>
