<?xml version="1.0" encoding="UTF-8" standalone="no"?>
<svg
   xmlns:dc="http://purl.org/dc/elements/1.1/"
   xmlns:cc="http://creativecommons.org/ns#"
   xmlns:rdf="http://www.w3.org/1999/02/22-rdf-syntax-ns#"
   xmlns:svg="http://www.w3.org/2000/svg"
   xmlns="http://www.w3.org/2000/svg"
   xmlns:xlink="http://www.w3.org/1999/xlink"
   xmlns:sodipodi="http://sodipodi.sourceforge.net/DTD/sodipodi-0.dtd"
   xmlns:inkscape="http://www.inkscape.org/namespaces/inkscape"
   width="970.75696pt"
   height="306.37pt"
   viewBox="0 0 970.75694 306.37"
   version="1.1"
   id="svg2"
   inkscape:version="0.92.0 r15299"
   sodipodi:docname="The Shopping Channel.svg">
  <metadata
     id="metadata90">
    <rdf:RDF>
      <cc:Work
         rdf:about="">
        <dc:format>image/svg+xml</dc:format>
        <dc:type
           rdf:resource="http://purl.org/dc/dcmitype/StillImage" />
        <dc:title></dc:title>
      </cc:Work>
    </rdf:RDF>
  </metadata>
  <defs
     id="defs88">
    <linearGradient
       inkscape:collect="always"
       id="linearGradient6676">
      <stop
         style="stop-color:#4b7245;stop-opacity:1"
         offset="0"
         id="stop6670" />
      <stop
         id="stop6672"
         offset="0.60973155"
         style="stop-color:#c1e7b4;stop-opacity:1" />
      <stop
         style="stop-color:#71ac69;stop-opacity:1"
         offset="1"
         id="stop6674" />
    </linearGradient>
    <linearGradient
       inkscape:collect="always"
       id="linearGradient6668">
      <stop
         style="stop-color:#6f886a;stop-opacity:1"
         offset="0"
         id="stop6662" />
      <stop
         id="stop6664"
         offset="0.60973155"
         style="stop-color:#e5f0e4;stop-opacity:1" />
      <stop
         style="stop-color:#a8cfa1;stop-opacity:1"
         offset="1"
         id="stop6666" />
    </linearGradient>
    <linearGradient
       inkscape:collect="always"
       id="linearGradient6660">
      <stop
         style="stop-color:#a2692a;stop-opacity:1"
         offset="0"
         id="stop6654" />
      <stop
         id="stop6656"
         offset="0.60973155"
         style="stop-color:#fae36d;stop-opacity:1" />
      <stop
         style="stop-color:#f6a040;stop-opacity:1"
         offset="1"
         id="stop6658" />
    </linearGradient>
    <linearGradient
       inkscape:collect="always"
       id="linearGradient6652">
      <stop
         style="stop-color:#a3772a;stop-opacity:1"
         offset="0"
         id="stop6646" />
      <stop
         id="stop6648"
         offset="0.60973155"
         style="stop-color:#fae96d;stop-opacity:1" />
      <stop
         style="stop-color:#f8b440;stop-opacity:1"
         offset="1"
         id="stop6650" />
    </linearGradient>
    <linearGradient
       inkscape:collect="always"
       id="linearGradient6644">
      <stop
         style="stop-color:#a5832b;stop-opacity:1"
         offset="0"
         id="stop6638" />
      <stop
         id="stop6640"
         offset="0.60973155"
         style="stop-color:#fbee71;stop-opacity:1" />
      <stop
         style="stop-color:#fbc742;stop-opacity:1"
         offset="1"
         id="stop6642" />
    </linearGradient>
    <linearGradient
       inkscape:collect="always"
       id="linearGradient6636">
      <stop
         style="stop-color:#772222;stop-opacity:1"
         offset="0"
         id="stop6630" />
      <stop
         id="stop6632"
         offset="0.60973155"
         style="stop-color:#e95959;stop-opacity:1" />
      <stop
         style="stop-color:#b43434;stop-opacity:1"
         offset="1"
         id="stop6634" />
    </linearGradient>
    <linearGradient
       inkscape:collect="always"
       id="linearGradient6628">
      <stop
         style="stop-color:#792627;stop-opacity:1"
         offset="0"
         id="stop6622" />
      <stop
         id="stop6624"
         offset="0.60973155"
         style="stop-color:#ea6365;stop-opacity:1" />
      <stop
         style="stop-color:#b83a3b;stop-opacity:1"
         offset="1"
         id="stop6626" />
    </linearGradient>
    <linearGradient
       inkscape:collect="always"
       id="linearGradient6620">
      <stop
         style="stop-color:#4e2440;stop-opacity:1"
         offset="0"
         id="stop6614" />
      <stop
         id="stop6616"
         offset="0.60973155"
         style="stop-color:#e354a8;stop-opacity:1" />
      <stop
         style="stop-color:#9d3162;stop-opacity:1"
         offset="1"
         id="stop6618" />
    </linearGradient>
    <linearGradient
       inkscape:collect="always"
       id="linearGradient6612">
      <stop
         style="stop-color:#4e2440;stop-opacity:1"
         offset="0"
         id="stop6606" />
      <stop
         id="stop6608"
         offset="0.60973155"
         style="stop-color:#ca5ea8;stop-opacity:1" />
      <stop
         style="stop-color:#763762;stop-opacity:1"
         offset="1"
         id="stop6610" />
    </linearGradient>
    <linearGradient
       inkscape:collect="always"
       id="linearGradient6604">
      <stop
         style="stop-color:#1b395a;stop-opacity:1"
         offset="0"
         id="stop6598" />
      <stop
         id="stop6600"
         offset="0.60973155"
         style="stop-color:#4693dd;stop-opacity:1" />
      <stop
         style="stop-color:#295689;stop-opacity:1"
         offset="1"
         id="stop6602" />
    </linearGradient>
    <linearGradient
       id="linearGradient6448"
       inkscape:collect="always">
      <stop
         id="stop6442"
         offset="0"
         style="stop-color:#004c6a;stop-opacity:1" />
      <stop
         style="stop-color:#00c5e4;stop-opacity:1"
         offset="0.60973155"
         id="stop6444" />
      <stop
         id="stop6446"
         offset="1"
         style="stop-color:#0073a2;stop-opacity:1" />
    </linearGradient>
    <linearGradient
       inkscape:collect="always"
       id="linearGradient6372">
      <stop
         style="stop-color:#105f7a;stop-opacity:1"
         offset="0"
         id="stop6368" />
      <stop
         id="stop6376"
         offset="0.60973155"
         style="stop-color:#28dfea;stop-opacity:1" />
      <stop
         style="stop-color:#1890ba;stop-opacity:1"
         offset="1"
         id="stop6370" />
    </linearGradient>
    <linearGradient
       inkscape:collect="always"
       xlink:href="#linearGradient6372"
       id="linearGradient6374"
       x1="31.975586"
       y1="130.66522"
       x2="31.975586"
       y2="38.033676"
       gradientUnits="userSpaceOnUse"
       gradientTransform="translate(-27.635415,63.198003)" />
    <linearGradient
       inkscape:collect="always"
       xlink:href="#linearGradient6448"
       id="linearGradient6374-7"
       x1="31.975586"
       y1="130.66522"
       x2="31.975586"
       y2="38.033676"
       gradientUnits="userSpaceOnUse"
       gradientTransform="matrix(0.60322913,0,0,1,-3.4351107,63.198101)" />
    <linearGradient
       inkscape:collect="always"
       xlink:href="#linearGradient6604"
       id="linearGradient6374-7-2"
       x1="31.975586"
       y1="130.66522"
       x2="31.975586"
       y2="38.033676"
       gradientUnits="userSpaceOnUse"
       gradientTransform="matrix(0.44836651,0,0,0.99999997,8.8760497,63.198106)" />
    <linearGradient
       inkscape:collect="always"
       xlink:href="#linearGradient6612"
       id="linearGradient6374-7-2-4"
       x1="31.975586"
       y1="130.66522"
       x2="31.975586"
       y2="38.033676"
       gradientUnits="userSpaceOnUse"
       gradientTransform="matrix(1.3359753,0,0,0.99999997,-6.6259617,63.198107)" />
    <linearGradient
       inkscape:collect="always"
       xlink:href="#linearGradient6620"
       id="linearGradient6374-7-2-5"
       x1="31.975586"
       y1="130.66522"
       x2="31.975586"
       y2="38.033676"
       gradientUnits="userSpaceOnUse"
       gradientTransform="matrix(0.28471738,0,0,0.99999997,36.958848,63.198105)" />
    <linearGradient
       inkscape:collect="always"
       xlink:href="#linearGradient6628"
       id="linearGradient6374-7-2-49"
       x1="31.975586"
       y1="130.66522"
       x2="31.975586"
       y2="38.033676"
       gradientUnits="userSpaceOnUse"
       gradientTransform="matrix(1.4049155,0,0,0.99999997,12.046907,63.198107)" />
    <linearGradient
       inkscape:collect="always"
       xlink:href="#linearGradient6636"
       id="linearGradient6374-7-2-7"
       x1="31.975586"
       y1="130.66522"
       x2="31.975586"
       y2="38.033676"
       gradientUnits="userSpaceOnUse"
       gradientTransform="matrix(0.58624744,0,0,0.99999997,51.577962,63.198102)" />
    <linearGradient
       inkscape:collect="always"
       xlink:href="#linearGradient6644"
       id="linearGradient6374-7-2-57"
       x1="31.975586"
       y1="130.66522"
       x2="31.975586"
       y2="38.033676"
       gradientUnits="userSpaceOnUse"
       gradientTransform="matrix(0.64640136,0,0,0.99999997,58.790032,63.198109)" />
    <linearGradient
       inkscape:collect="always"
       xlink:href="#linearGradient6652"
       id="linearGradient6374-7-2-3"
       x1="31.975586"
       y1="130.66522"
       x2="31.975586"
       y2="38.033676"
       gradientUnits="userSpaceOnUse"
       gradientTransform="matrix(0.25092303,0,0,0.99999997,80.73312,63.198101)" />
    <linearGradient
       inkscape:collect="always"
       xlink:href="#linearGradient6660"
       id="linearGradient6374-7-2-72"
       x1="31.975586"
       y1="130.66522"
       x2="31.975586"
       y2="38.033676"
       gradientUnits="userSpaceOnUse"
       gradientTransform="matrix(0.60320048,0,0,0.99999997,77.960966,63.198108)" />
    <linearGradient
       inkscape:collect="always"
       xlink:href="#linearGradient6668"
       id="linearGradient6374-7-2-31"
       x1="31.975586"
       y1="130.66522"
       x2="31.975586"
       y2="38.033676"
       gradientUnits="userSpaceOnUse"
       gradientTransform="matrix(0.47419704,0,0,0.99999997,88.947262,63.198102)" />
    <linearGradient
       inkscape:collect="always"
       xlink:href="#linearGradient6676"
       id="linearGradient6374-7-2-2"
       x1="31.975586"
       y1="130.66522"
       x2="31.975586"
       y2="38.033676"
       gradientUnits="userSpaceOnUse"
       gradientTransform="matrix(0.76692546,0,0,0.99999997,88.891944,63.198102)" />
  </defs>
  <sodipodi:namedview
     pagecolor="#ffffff"
     bordercolor="#666666"
     borderopacity="1"
     objecttolerance="10"
     gridtolerance="10"
     guidetolerance="10"
     inkscape:pageopacity="0"
     inkscape:pageshadow="2"
     inkscape:window-width="1920"
     inkscape:window-height="1017"
     id="namedview86"
     showgrid="false"
     fit-margin-top="0"
     fit-margin-left="0"
     fit-margin-right="0"
     fit-margin-bottom="0"
     inkscape:zoom="0.5"
     inkscape:cx="752.43459"
     inkscape:cy="92.234185"
     inkscape:window-x="-8"
     inkscape:window-y="-8"
     inkscape:window-maximized="1"
     inkscape:current-layer="svg2" />
  <g
     id="#636466ff"
     transform="translate(-0.99749927,-0.93604938)"
     style="fill:#ffffff;fill-opacity:1">
    <path
       d="m 620.5,0.97 c 4.83,-0.05 9.66,-0.03 14.5,-0.03 0,7.58 0,15.16 -0.01,22.73 7.2,-2.33 15.64,-4.41 22.58,-0.22 6.53,4.08 8.19,12.39 8.62,19.54 0.14,11.08 0.02,22.17 0.05,33.26 -4.83,0 -9.66,0 -14.48,0 -0.13,-10.47 0.23,-20.94 -0.2,-31.39 -0.32,-3.72 -0.81,-8.8 -4.92,-10.26 -3.89,-0.84 -7.82,0.66 -11.64,1.3 -0.01,13.45 0,26.9 0,40.35 -4.83,0 -9.66,0 -14.49,0 -0.03,-25.09 0,-50.19 -0.01,-75.28 z"
       id="path5"
       inkscape:connector-curvature="0"
       style="opacity:1;fill:#ffffff;fill-opacity:1" />
    <path
       d="m 564.51,16.25 c -0.02,-4.83 -0.02,-9.67 0,-14.5 16.75,0.01 33.49,-0.01 50.24,0.01 0,4.83 0,9.65 0,14.48 -5.83,0.02 -11.67,0 -17.5,0.01 -0.01,20 0.01,40 0,59.99 -4.92,0.01 -9.83,0.01 -14.74,0.01 -0.02,-19.99 -0.02,-39.98 0,-59.97 -6,-0.06 -12,-0.02 -18,-0.03 z"
       id="path7"
       inkscape:connector-curvature="0"
       style="opacity:1;fill:#ffffff;fill-opacity:1" />
    <path
       d="m 676.53,31.56 c 3.12,-6.07 9.63,-9.88 16.35,-10.38 8.34,-0.91 18.22,1.45 22.63,9.26 4.62,7.57 3.49,16.74 2.37,25.09 -10.24,-0.06 -20.49,-0.02 -30.73,-0.02 0.23,4.4 3.22,8.71 7.92,8.95 7.28,0.51 14.58,-0.4 21.86,-0.77 0.23,3.67 0.42,7.35 0.22,11.03 -9.84,2.32 -20.29,4.16 -30.27,1.69 -7.38,-1.81 -12.28,-8.73 -13.43,-15.97 -1.61,-9.59 -1.58,-20.1 3.08,-28.88 m 14.2,3.2 c -3.08,2.18 -3.24,6.31 -3.64,9.71 5.85,0.05 11.7,0.03 17.55,0.01 -0.39,-3.37 -0.36,-7.55 -3.47,-9.7 -3.07,-1.99 -7.37,-1.98 -10.44,-0.02 z"
       id="path9"
       inkscape:connector-curvature="0"
       style="opacity:1;fill:#ffffff;fill-opacity:1" />
    <path
       d="m 444.57,82.64 c 8.63,-6.43 19.94,-7.67 30.38,-6.95 8.16,0.39 16.08,2.92 23.41,6.43 -2.09,5.83 -4.24,11.63 -6.37,17.44 -9.27,-4.78 -20.41,-7.17 -30.55,-3.9 -4.83,1.56 -6.25,8.22 -3.21,12.02 2.01,2.49 5.01,3.91 7.89,5.16 8.93,3.5 18.34,6.25 26.29,11.78 5.96,4.15 9.7,11.08 10.2,18.3 0.67,7.24 -0.03,15.11 -4.61,21.07 -5.73,7.82 -15.68,10.87 -24.94,11.72 -13.78,1.08 -28.37,-0.12 -40.64,-7.02 2.08,-5.82 4.14,-11.63 6.2,-17.45 9.9,5.18 21.39,7.25 32.46,5.64 3.84,-0.58 8.18,-2.72 8.93,-6.91 1.1,-4.03 -1.03,-8.32 -4.53,-10.39 -10.63,-6.66 -24.3,-7.58 -33.66,-16.43 -11.5,-10.59 -9.81,-31.44 2.75,-40.51 z"
       id="path11"
       inkscape:connector-curvature="0"
       style="opacity:1;fill:#ffffff;fill-opacity:1" />
    <path
       d="m 510.51,76.24 c 6.41,0.02 12.82,0 19.24,0.01 0.01,10.02 -0.01,20.05 0.01,30.07 9.49,-3.08 20.8,-5.73 29.8,0.08 8.69,5.94 10.3,17.38 10.86,27.09 0.18,13.92 0.04,27.84 0.07,41.76 -6.42,0 -12.83,0.01 -19.24,-0.01 -0.02,-13.74 0.04,-27.47 -0.03,-41.21 -0.25,-4.8 -1.06,-10.91 -5.92,-13.24 -5.14,-1.47 -10.46,0.59 -15.54,1.48 -0.01,17.65 -0.03,35.3 0.01,52.95 -6.43,0.06 -12.85,0.02 -19.27,0.03 0,-33.01 -0.01,-66.01 0.01,-99.01 z"
       id="path13"
       inkscape:connector-curvature="0"
       style="opacity:1;fill:#ffffff;fill-opacity:1" />
    <path
       d="m 783.5,77.5 c 6.39,-0.02 12.79,0.04 19.19,-0.04 0.13,6.43 0.03,12.86 0.06,19.29 -6.42,0 -12.84,0.02 -19.26,-0.02 0.02,-6.41 0,-12.82 0.01,-19.23 z"
       id="path15"
       inkscape:connector-curvature="0"
       style="opacity:1;fill:#ffffff;fill-opacity:1" />
    <path
       d="m 601.6,103.75 c 9.89,-1.63 21.08,-1.21 29.36,5.1 7.71,5.87 10.52,15.9 11.17,25.17 0.53,10.39 0.11,21.55 -5.54,30.65 -4.12,6.82 -11.77,10.84 -19.53,11.78 -9.22,0.99 -19.4,0.37 -27,-5.54 -7.61,-5.84 -10.44,-15.77 -11.14,-24.94 -0.6,-10.14 -0.19,-20.97 4.96,-30.01 3.62,-6.55 10.45,-10.85 17.72,-12.21 m 4.6,16.47 c -4.17,1.34 -6.49,5.61 -7.24,9.68 -1.11,5.81 -1.06,11.8 -0.4,17.66 0.58,4.18 1.92,8.86 5.79,11.17 4.93,2.75 12.32,2.01 15.48,-3.07 2.86,-4.66 2.96,-10.36 3.17,-15.66 -0.18,-5.36 -0.23,-11.14 -3.14,-15.85 -2.78,-4.47 -8.95,-5.57 -13.66,-3.93 z"
       id="path17"
       inkscape:connector-curvature="0"
       style="opacity:1;fill:#ffffff;fill-opacity:1" />
    <path
       d="m 667.74,107.73 c 5.62,-2.98 11.85,-5.47 18.34,-4.69 7.78,0.38 15.46,4.57 19.1,11.61 5.26,9.88 5.15,21.48 4.62,32.36 -0.75,9.28 -3.28,19.75 -11.55,25.2 -9.02,5.69 -20.37,5.14 -30.5,3.57 -0.01,10.33 0.01,20.66 0,30.99 -5.21,0.04 -10.58,-0.09 -15.49,-2.02 -1.93,-0.75 -3.92,-2.39 -3.51,-4.69 0,-31.77 0,-63.54 0.01,-95.31 6.33,0 12.66,-0.01 19,0.01 -0.01,0.74 -0.02,2.23 -0.02,2.97 m 0.04,15.4 c -0.07,12.02 -0.01,24.03 -0.03,36.04 6.01,0.77 13.37,2.46 18.31,-2.14 4.43,-4.82 4.48,-11.89 4.68,-18.06 -0.25,-6.14 -0.79,-13.58 -6.3,-17.44 -5.28,-3.21 -11.45,-0.25 -16.66,1.6 z"
       id="path19"
       inkscape:connector-curvature="0"
       style="opacity:1;fill:#ffffff;fill-opacity:1" />
    <path
       d="m 735.51,107.71 c 6.25,-3.42 13.4,-5.81 20.59,-4.4 7.63,0.88 14.56,5.86 17.64,12.92 4.44,9.65 4.33,20.55 3.81,30.93 -0.75,8.97 -3.13,19 -10.84,24.57 -9.07,6.21 -20.83,5.65 -31.21,4.05 0,10.32 -0.01,20.64 0.01,30.97 -5.16,0.06 -10.48,-0.06 -15.36,-1.94 -2.01,-0.73 -4.05,-2.41 -3.65,-4.78 0,-31.76 -0.01,-63.52 0,-95.28 6.33,0 12.65,0 18.98,0 0.01,0.74 0.03,2.22 0.03,2.96 m 0.01,15.44 c -0.04,12.02 -0.01,24.04 -0.02,36.06 6.08,0.72 13.54,2.46 18.43,-2.31 4.33,-4.78 4.35,-11.76 4.57,-17.83 -0.25,-6.31 -0.84,-14.12 -6.77,-17.82 -5.25,-2.75 -11.15,0.08 -16.21,1.9 z"
       id="path21"
       inkscape:connector-curvature="0"
       style="opacity:1;fill:#ffffff;fill-opacity:1" />
    <path
       d="m 832,107.55 c 6.94,-2.97 14.49,-5.76 22.15,-4.16 6.28,0.97 11.77,5.22 14.48,10.94 3.93,8.29 4.24,17.7 4.12,26.71 -0.01,11.4 0,22.8 0,34.2 -6.33,0.01 -12.67,0.01 -19,0 -0.1,-13.46 0.2,-26.94 -0.15,-40.4 -0.39,-5.14 -0.93,-12.11 -6.62,-14.16 -5.08,-0.92 -10.09,1.04 -14.98,2.14 -0.01,17.47 0.01,34.95 0,52.43 -6.42,0 -12.83,0 -19.25,-0.01 0,-23.49 0,-46.99 0.01,-70.49 6.4,0 12.81,0 19.23,0 0,0.7 0.01,2.1 0.01,2.8 z"
       id="path23"
       inkscape:connector-curvature="0"
       style="opacity:1;fill:#ffffff;fill-opacity:1" />
    <path
       d="m 886.22,110.2 c 7.7,-6.74 18.78,-8.09 28.58,-6.49 9.33,2.18 18.96,0.61 28.44,0.77 -0.13,3.46 0.39,7.01 -0.33,10.42 -1.15,3.41 -5.03,4.16 -8.1,4.79 3.76,8.21 2.39,18.82 -3.4,25.76 -7.34,7.53 -18.9,8.17 -28.75,7.19 -0.89,2.9 -2.83,8.06 1.49,9.03 10.68,1.6 22.43,-0.79 32.25,4.83 5.82,3.19 8.05,10.19 7.9,16.46 0.42,7.17 -2.46,14.63 -8.29,18.98 -8.76,6.67 -20.42,7.65 -31.03,6.8 -7.53,-0.63 -15.69,-1.99 -21.44,-7.3 -5.12,-4.58 -6.28,-12.19 -4.74,-18.62 1.3,-5.06 5.23,-8.76 9.05,-12.05 -3.02,-2.69 -4.95,-6.55 -4.78,-10.64 0.72,-4.23 3.33,-7.77 5.48,-11.38 -4.46,-3.24 -7.73,-8.06 -8.81,-13.49 -1.9,-8.66 -0.47,-18.93 6.48,-25.06 m 17.11,9.31 c -5.48,1.67 -6.09,8.79 -4.29,13.37 2.04,4.96 8.53,5.71 13.07,4.23 6.51,-1.85 7.73,-11.16 3.57,-15.8 -3.32,-2.9 -8.31,-3.05 -12.35,-1.8 m -4.52,69.61 c 5.31,3.51 12.19,3.5 18.3,2.69 3.53,-0.53 8.07,-2.58 7.93,-6.79 0.42,-3.42 -2.83,-5.82 -5.93,-6.04 -6.14,-0.75 -12.38,-0.39 -18.5,-1.43 -2.54,2.98 -5.64,8.4 -1.8,11.57 z"
       id="path25"
       inkscape:connector-curvature="0"
       style="opacity:1;fill:#ffffff;fill-opacity:1" />
    <path
       d="m 783.51,175.25 c -0.02,-23.5 -0.02,-47 0,-70.5 6.41,0 12.83,-0.01 19.24,0.01 0,23.49 0,46.99 0,70.48 -6.41,0.02 -12.83,0 -19.24,0.01 z"
       id="path27"
       inkscape:connector-curvature="0"
       style="opacity:1;fill:#ffffff;fill-opacity:1" />
    <path
       d="m 552.8,214.79 c 6.27,-6.41 15.62,-8.11 24.23,-8.28 9.51,0.13 18.93,1.71 28.26,3.45 -0.23,5.7 -0.49,11.4 -0.57,17.11 -8.92,-0.51 -17.82,-1.89 -26.78,-1.53 -4.45,0.17 -9.11,2.06 -11.49,6.01 -3.38,5.48 -3.85,12.11 -4.3,18.37 -0.31,7.41 -0.31,14.89 0.74,22.24 0.79,4.74 2.08,9.89 5.99,13.05 3.93,3.23 9.31,3.41 14.16,3.3 7.24,-0.3 14.47,-0.93 21.7,-1.55 -0.1,5.89 0.43,11.77 0.25,17.66 -9.92,1.46 -19.9,2.92 -29.95,2.56 -7.81,0.02 -16.03,-2.02 -21.88,-7.44 -5.84,-5.45 -8.5,-13.36 -9.84,-21.04 -1.9,-11.47 -1.93,-23.19 -1.05,-34.76 0.97,-10.31 3.01,-21.47 10.53,-29.15 z"
       id="path29"
       inkscape:connector-curvature="0"
       style="opacity:1;fill:#ffffff;fill-opacity:1" />
    <path
       d="m 613.76,206.75 c 6.33,0 12.66,-0.01 18.99,0.01 -0.01,10.04 0.03,20.09 -0.02,30.14 8.14,-2.47 16.98,-5 25.38,-2.19 6.22,1.81 10.72,7.24 12.75,13.21 3.35,9.64 2.88,20.01 2.89,30.06 0,9.26 0,18.51 0,27.77 -6.41,0.01 -12.82,-0.02 -19.22,0.02 -0.14,-14.09 0.12,-28.2 -0.12,-42.29 -0.45,-4.61 -1.43,-10.72 -6.53,-12.37 -5.07,-1.02 -10.18,0.82 -15.13,1.81 0,17.61 0,35.22 0,52.83 -6.33,0 -12.66,0 -18.99,0 -0.02,-33 -0.01,-66 0,-99 z"
       id="path31"
       inkscape:connector-curvature="0"
       style="opacity:1;fill:#ffffff;fill-opacity:1" />
    <path
       d="m 952.76,206.75 c 6.32,0 12.66,-0.01 18.99,0.01 0,33 0.01,65.99 0,98.99 -6.34,0 -12.67,0 -18.99,0 -0.01,-33 -0.01,-66 0,-99 z"
       id="path33"
       inkscape:connector-curvature="0"
       style="opacity:1;fill:#ffffff;fill-opacity:1" />
    <path
       d="m 683.24,236.6 c 9.22,-1.41 18.48,-2.7 27.8,-3.1 6.73,-0.21 14.12,0.49 19.5,4.98 4.95,4.32 6.5,11.21 6.69,17.52 0.12,9.93 -0.13,19.86 0.1,29.78 -0.16,3.05 2.53,4.85 5.11,5.68 0.07,3.26 0.06,6.52 0.09,9.79 -5.95,5.15 -14.97,6.12 -21.52,1.54 -8.98,4.06 -19.8,6.52 -29.16,2.37 -11.8,-5.55 -15.22,-21.74 -9.32,-32.7 3.53,-6.29 10.89,-8.89 17.65,-9.77 5.92,-0.61 11.86,-0.93 17.8,-1.23 0.18,-3.69 0.58,-9.16 -4.02,-10.28 -10.04,-0.6 -20.11,0.34 -30.12,1.02 -0.13,-5.2 -0.27,-10.41 -0.6,-15.6 m 19.83,54.44 c 5.01,0.84 10.06,-0.66 14.94,-1.71 -0.02,-4.69 -0.01,-9.38 -0.01,-14.06 -4.34,0.35 -8.7,0.27 -13.03,0.69 -7.11,0.7 -8.07,12.41 -1.9,15.08 z"
       id="path35"
       inkscape:connector-curvature="0"
       style="opacity:1;fill:#ffffff;fill-opacity:1" />
    <path
       d="m 768.05,238.08 c 7.17,-3.1 15.12,-5.97 23.01,-3.95 6.05,1.16 11.24,5.48 13.71,11.1 3.6,7.69 4.06,16.4 3.99,24.76 -0.02,11.92 0,23.84 -0.01,35.76 -6.34,0 -12.66,0 -18.99,0 -0.11,-13.42 0.19,-26.85 -0.16,-40.26 -0.39,-4.99 -0.81,-11.55 -5.96,-14.02 -5.2,-1.46 -10.52,0.73 -15.57,1.88 -0.17,17.46 -0.01,34.94 -0.08,52.41 -6.41,-0.02 -12.82,-0.01 -19.23,-0.01 -0.02,-23.5 -0.01,-47 0,-70.5 6.39,-0.01 12.79,0.02 19.19,-0.02 0.03,0.71 0.07,2.14 0.1,2.85 z"
       id="path37"
       inkscape:connector-curvature="0"
       style="opacity:1;fill:#ffffff;fill-opacity:1" />
    <path
       d="m 837.75,238.16 c 6.63,-2.82 13.79,-5.63 21.14,-4.41 5.82,0.69 11.4,3.88 14.41,8.99 4.6,7.55 5.17,16.65 5.43,25.26 0.05,12.58 0,25.16 0.02,37.75 -6.43,-0.02 -12.86,0.06 -19.28,-0.05 0.01,-13.75 0.11,-27.5 -0.04,-41.24 -0.41,-4.89 -1.28,-11.38 -6.64,-13.25 -5.13,-0.84 -10.21,0.96 -15.09,2.33 0.11,17.4 0.02,34.81 0.05,52.21 -6.33,0 -12.66,0 -18.99,0 -0.01,-23.5 -0.02,-47 0,-70.5 6.32,0 12.65,0 18.98,0 0,0.72 0.01,2.18 0.01,2.91 z"
       id="path39"
       inkscape:connector-curvature="0"
       style="opacity:1;fill:#ffffff;fill-opacity:1" />
    <path
       d="m 894.03,240.92 c 8.12,-7.93 20.67,-8.75 31.19,-6.18 8.23,1.97 15.02,8.46 17.5,16.52 3.24,8.79 1.57,18.15 0.66,27.17 -13.4,0.16 -26.79,0.03 -40.18,0.06 0.47,3.14 0.98,6.61 3.5,8.84 3.3,3.01 8.03,3.33 12.28,3.2 7.76,-0.19 15.52,-0.64 23.26,-1.32 -0.09,4.74 0.15,9.48 0.33,14.22 -10.55,3.07 -21.59,4.28 -32.55,3.66 -7.85,-0.39 -16.01,-3.84 -20.34,-10.66 -4.83,-7.51 -5.56,-16.75 -5.68,-25.44 0.15,-10.65 2.17,-22.26 10.03,-30.07 m 14.72,9.83 c -4.66,2.6 -5.45,8.4 -5.61,13.22 7.57,0.06 15.15,0.01 22.73,0.03 -0.15,-4.23 -0.38,-9.12 -3.73,-12.18 -3.73,-2.88 -9.21,-3.03 -13.39,-1.07 z"
       id="path41"
       inkscape:connector-curvature="0"
       style="opacity:1;fill:#ffffff;fill-opacity:1" />
  </g>
  <g
     id="g6690"
     transform="matrix(3.267944,0,0,3.267944,0,-328.19254)">
    <path
       sodipodi:nodetypes="cccccc"
       d="m 6.00036e-5,101.13291 8.8710139964,0.003 0.0061,92.73398 H 0.0031 L 0,101.13298 Z"
       id="path51-2"
       inkscape:connector-curvature="0"
       style="opacity:1;fill:url(#linearGradient6374);fill-opacity:1;stroke-width:0.30600256" />
    <path
       sodipodi:nodetypes="cccccc"
       d="m 13.235412,101.13302 5.351254,0.003 0.0037,92.73397 h -5.3531 l -0.0019,-92.737 z"
       id="path51-2-2"
       inkscape:connector-curvature="0"
       style="opacity:1;fill:url(#linearGradient6374-7);fill-opacity:1;stroke-width:0.2376655" />
    <path
       sodipodi:nodetypes="cccccc"
       d="m 21.266871,101.13302 3.977466,0.003 0.0027,92.73397 h -3.978838 l -0.0014,-92.737 z"
       id="path51-2-2-5"
       inkscape:connector-curvature="0"
       style="opacity:1;fill:url(#linearGradient6374-7-2);fill-opacity:1;stroke-width:0.20489982" />
    <path
       sodipodi:nodetypes="cccccc"
       d="m 30.294347,101.13302 11.851454,0.003 0.0082,92.73397 H 30.298453 l -0.0042,-92.737 z"
       id="path51-2-2-5-9"
       inkscape:connector-curvature="0"
       style="opacity:1;fill:url(#linearGradient6374-7-2-4);fill-opacity:1;stroke-width:0.35369116" />
    <path
       sodipodi:nodetypes="cccccc"
       d="m 44.827148,101.13302 2.525732,0.003 0.0017,92.73397 h -2.526603 l -8.97e-4,-92.737 z"
       id="path51-2-2-5-1"
       inkscape:connector-curvature="0"
       style="opacity:1;fill:url(#linearGradient6374-7-2-5);fill-opacity:1;stroke-width:0.16327962" />
    <path
       sodipodi:nodetypes="cccccc"
       d="m 50.872413,101.13302 12.463026,0.003 0.0086,92.73397 H 50.876731 l -0.0044,-92.737 z"
       id="path51-2-2-5-96"
       inkscape:connector-curvature="0"
       style="opacity:1;fill:url(#linearGradient6374-7-2-49);fill-opacity:1;stroke-width:0.36270213" />
    <path
       sodipodi:nodetypes="cccccc"
       d="m 67.779188,101.13301 5.200609,0.003 0.0036,92.73398 h -5.202403 l -0.0018,-92.73701 z"
       id="path51-2-2-5-0"
       inkscape:connector-curvature="0"
       style="opacity:1;fill:url(#linearGradient6374-7-2-7);fill-opacity:1;stroke-width:0.23429632" />
    <path
       sodipodi:nodetypes="cccccc"
       d="m 76.653641,101.13302 5.734236,0.003 0.004,92.73397 h -5.736214 l -0.002,-92.737 z"
       id="path51-2-2-5-7"
       inkscape:connector-curvature="0"
       style="opacity:1;fill:url(#linearGradient6374-7-2-57);fill-opacity:1;stroke-width:0.24602324" />
    <path
       sodipodi:nodetypes="cccccc"
       d="m 87.667496,101.13301 2.225942,0.003 0.0015,92.73398 h -2.22671 l -7.9e-4,-92.73701 z"
       id="path51-2-2-5-4"
       inkscape:connector-curvature="0"
       style="opacity:1;fill:url(#linearGradient6374-7-2-3);fill-opacity:1;stroke-width:0.15328345" />
    <path
       sodipodi:nodetypes="cccccc"
       d="m 94.630697,101.13302 5.351004,0.003 0.004,92.73397 h -5.35285 l -0.0019,-92.737 z"
       id="path51-2-2-5-3"
       inkscape:connector-curvature="0"
       style="opacity:1;fill:url(#linearGradient6374-7-2-72);fill-opacity:1;stroke-width:0.23765986" />
    <path
       sodipodi:nodetypes="cccccc"
       d="m 102.05192,101.13301 4.20661,0.003 0.003,92.73398 h -4.20806 l -0.002,-92.73701 z"
       id="path51-2-2-5-30"
       inkscape:connector-curvature="0"
       style="opacity:1;fill:url(#linearGradient6374-7-2-31);fill-opacity:1;stroke-width:0.21071935" />
    <path
       sodipodi:nodetypes="cccccc"
       d="m 110.08629,101.13301 6.80341,0.003 0.005,92.73398 h -6.80575 l -0.003,-92.73701 z"
       id="path51-2-2-5-00"
       inkscape:connector-curvature="0"
       style="opacity:1;fill:url(#linearGradient6374-7-2-2);fill-opacity:1;stroke-width:0.2679795" />
  </g>
</svg>
