<svg width="1162.3" height="440.18" version="1.1" viewBox="0 0 1162.3 440.18" xml:space="preserve" xmlns="http://www.w3.org/2000/svg"><defs><clipPath id="a"><path d="m0 0h841.89v595.28h-841.89z"/></clipPath><clipPath id="b"><path d="m182.66 363.52h62.074v23.462h-62.074z"/></clipPath></defs><g transform="matrix(1.7688 0 0 -1.7688 -540.93 414.77)"><g transform="matrix(14.618,0,0,14.618,509.64,91.149)" fill="#3be7ff"><path d="m0 0h-2.23v2.575h-2.439v-7.296h2.439v2.616h2.23v-2.616h2.439v7.296h-2.439z" fill="#3be7ff"/></g><g transform="matrix(14.618,0,0,14.618,-4125.6,-1173.2)" fill="#3be7ff"><g clip-path="url(#a)" fill="#3be7ff"><g transform="translate(328.27,83.988)" fill="#3be7ff"><path d="m0 0v0.021c0 0.75-0.23 1.293-0.667 1.73-0.511 0.51-1.334 0.834-2.627 0.834h-3.564v-7.296h2.439v2.084h0.521l1.376-2.084h2.782l-1.699 2.481c0.887 0.427 1.439 1.166 1.439 2.23m-2.428-0.177c0-0.448-0.355-0.709-0.939-0.709h-1.052v1.428h1.062c0.563 0 0.929-0.229 0.929-0.698z" fill="#3be7ff"/></g></g></g><g transform="matrix(14.618,0,0,14.618,379.84,92.746)" fill="#3be7ff"><path d="m0 0h-2.623v-2.4h-2.441v-2.414h2.441v-2.513h2.623v2.513h2.441v2.414h-2.441z" fill="#3be7ff"/></g><g transform="matrix(14.618,0,0,14.618,849.14,14.896)" fill="#3be7ff"><path d="m0 0v0.792h3.564v1.762h-3.564v0.74h3.825v2.001h-6.222v-7.296h6.274v2.001z" fill="#3be7ff"/></g><g transform="matrix(14.618,0,0,14.618,793.48,93.274)" fill="#585858"><path transform="matrix(.051306 0 0 -.051306 -54.28 34.341)" d="m988.7 617.86-69.271 51.475v94.861h138.54v-94.861zm18.721 33.111c1.2371 3e-3 2.4517 0.37979 3.6211 1.2812 1.9101 1.4618 2.5345 3.4886 3.1387 5.5547 0.9356 3.2355 1.1107 6.6279 0.8184 9.9024-0.2534 3.0406-1.5011 5.9048-3.8985 8.0293-1.0135 0.87709-3.5074 0.68333-4.2676-0.38867-0.2923-0.38982-0.4881-0.97553-0.4297-1.4238 0.2145-1.6957 0.526-3.3726 0.8184-5.0488 0.039-0.23389 0.078-0.46724 0.039-0.68164-0.2924-1.8906-0.6042-3.7616-0.9356-5.6133-0.058-0.33134-0.3501-0.6429-0.584-0.79882-1.3058 1.3059-2.3 3.1579-2.8847 4.8926-0.6627 1.8711-1.2863 3.7618-1.8125 5.6719-0.3314 1.15-0.4108 2.3579-0.7031 3.5273-0.72126 2.8652-0.58293 5.8283-0.99224 8.7324-0.11694 0.87709-0.0195 1.7932-0.0195 2.8262 1.0914 0.17541 2.1227-0.0972 2.9218-0.81836 0.994-0.89658 2.1257-1.307 3.4121-1.502 1.3644-0.2144 2.6903-0.58422 4.0547-0.70117 1.3449-0.11694 1.5187 0.1747 2.0449 1.5391 0.3704 0.97456 1.033 3.0998 0.9356 4.1133-0.019 0.15592-0.096 0.31278-0.1934 0.44921-1.033 1.7347-2.5343 2.4362-4.0156 3.7031-1.3644 1.15-2.5336 1.247-3.6641 2.6309-1.7736 2.144-3.3725 2.864-5.0292 5.0859-0.35084 0.46778-0.54496 1.1516-0.56445 1.7363 0 3.216 0.0195 7.9324 0 11.148-0.039 2.2804-0.46847 4.5613-0.33204 6.8223 0.17542 2.8846-0.52535 5.6895-0.50586 8.5547 0.039 2.2804-0.43041 4.5809-0.78125 6.8613-0.48727 3.2745-1.0325 6.5498-1.6172 9.8242-0.23389 1.2669-0.83727 1.4806-1.4805 2.4746-0.25338 0.40931-0.43021 0.83874-0.6836 1.248-0.68218 1.1305-1.8305 0.81908-2.9609 1.1699-1.033 0.31185-2.9435-0.50808-3.0215-1.5801-0.0585-1.2669-1.2487-1.3635-1.5605-2.416-0.29237-0.91608 0.0783-2.0859 0.17578-3.002 0.15592-1.4423 0.40885-2.8838 0.7207-4.3066 0.23389-0.99403 0.0783-1.9688 0.17578-2.9629 0.23389-2.144 0.13684-4.3463 0.19531-6.5098 0.0975-3.0016 0.25403-6.0042 0.3125-8.9863 0.0585-3.7422 0.0586-7.4843 0.0586-11.227 0-1.0915-0.0391-2.182-0.0391-3.2734v-0.0391c-0.46778 0.19491-0.89713 0.36938-1.209 0.48632-1.2279 0.4483-2.125 0.95506-3.0801 0-0.95505-0.95505-0.64258-2.2617-0.64258-2.2617s-0.62304-3.4295-0.62304-4.2871 0.91601-1.3262 0.91601-2.3008c0-0.97456 1.0898-1.0703 2.0254-2.0059 0.91608-0.91608 1.9883-1.7363 1.9883-1.7363 0.29238-0.81862 0.42973-1.7538 0.44922-2.6504 0.11695-3.255 0.0396-6.5282 0.29297-9.7832 0.27288-3.8397 0.62311-7.6992 1.5977-11.461 0.15593-0.66269 0.35021-1.3255 0.64258-1.9492 1.3254-3.0406 2.4176-6.2382 4.1328-9.0449 2.5338-4.1906 5.9436-7.6398 10.797-9.1406 0.7529-0.23389 1.5039-0.36706 2.2461-0.36523zm-62.084 21.775c0.54575-0.039 1.1495 0.0981 1.6758 0.3125 0.7407 0.31185 1.4038 0.78002 2.125 1.1309 0.83815 0.4288 1.4228 1.404 1.8711 2.1836 0.46778 0.87709 0.3308 1.7536 0.68164 2.5527 1.1889 2.6508 0.44805 5.2614-0.11719 7.9121-1.0915 5.2236-2.5336 10.371-2.7285 15.77-0.15593 4.5414-0.89721 9.0621-1.248 13.604-0.17542 2.2999-2.4e-4 4.6395-0.11719 6.9394-0.2144 4.0736 0.60521 8.0102 1.4238 11.967 0.078 0.38982 0.21378 1.307 0.64258 1.502 0.039 0.0195 0.0587 0.0196 0.0977 0.0391 0.31186 0.039 0.60408-0.098 0.87696-0.25391 1.9296-1.0915 3.7614-2.0851 5.4961-3.5469 1.6957-1.4424 3.4901-2.8074 5.3027-4.1133 0.97454-0.70167 2.1236-1.1689 3.3516-0.68164 0.6432 0.25338 1.2283 0.68257 2.0469 1.1309 1.4813 2.3974 0.62405 4.8136-0.77929 7.2109-0.33135 0.54575-0.81901 0.97383-1.1309 1.5391-0.37033 0.74066-0.0397 1.4037-0.33203 2.0664-0.13644 0.31185-0.38916 0.56498-0.62305 0.81836-1.8126 1.8321-3.6831 3.6252-5.3203 5.6328-1.8516 2.3194-4.4448 2.7492-7.0371 3.334-0.35084 0.0974-0.7605-0.0194-1.1113 0.0586-5.1261 1.2279-8.8482-1.2476-11.947-4.8144-1.0525-1.2279-1.5008-3.06-1.9102-4.6973-0.83811-3.3719-1.6182-6.7825-2.1055-10.232-0.37033-2.5728-0.19376-5.2046-0.38867-7.8164-0.33135-4.1516 0.27192-8.2839 0.48632-12.416 0.25339-5.3405 1.0912-10.642 1.7344-15.963 0.60422-4.9897 1.306-9.9791 1.9297-14.988 0.35083-2.7677 2.4373-5.1458 5.166-5.75 0.66269-0.15592 1.3256-0.41019 1.9883-0.42968zm87.818 1.6074c0.2254-0.0142 0.458-0.0131 0.6992 4e-3 0.7797 0.0585 1.7729 0.0577 2.4356 0.56445 0.5652 0.44829 0.7026 1.9884 1.4043 2.0273 0.1754 0 0.3304-0.0586 0.5058-0.0391 1.2864 0.0974 2.1252 4.3458 2.2031 5.3203 0.078 1.2474 0.3518 2.4948 0.4297 3.7422 0.097 1.9101-0.3526 3.7225-0.8789 5.5547-0.8771 3.0601-2.318 5.8491-4.0527 8.4414-1.5398 2.3389-3.4303 4.4237-5.6133 6.2559-1.8711 1.5788-3.567 3.3912-5.75 4.6191-0.3118 0.17542-0.4871 0.60457-0.8769 1.1113 2.2999 1.7152 4.4824 3.0009 7.3086 2.4941 0.7796-0.13643 1.5778-0.25399 2.3769-0.29297 1.5008-0.0974 2.9248-0.5244 4.3477-0.99218 1.1889-0.37033 2.4361-0.60576 3.6836-0.74219 1.5982-0.15593 2.4754 1.2082 1.9101 2.7285-0.4093 1.15-0.4491 2.1445-1.3262 3.0606-2.2024 2.2999-4.424 3.6842-7.3476 4.9121-1.111 0.46778-2.2992 0.70202-3.4297 1.1113-1.15 0.40931-2.2215 0.73971-3.5273 0.48633-0.9551-0.2144-2.0275 0.27331-3.0411 0.21484-2.9821-0.19491-5.7899-1.0919-8.1093-3.041-0.8771-0.76014-1.8513-1.4023-2.67-2.3379-1.3643-1.5788-2.3583-3.373-2.8066-5.2246-0.7991-3.294-1.1303-6.7236 0.098-10.037 1.7346-4.6388 3.3917-9.3176 5.8086-13.645 1.6177-2.9041 3.3127-5.7886 5.3203-8.4199 1.4228-1.8906 3.4118-3.351 5.166-4.9883 0.4873-0.46778 1.0715-0.85815 1.6562-1.209 1.2791-0.76746 2.4987-1.58 4.0762-1.6797zm-60.486 2.6973c0.18699-6e-3 0.38029 0.0128 0.58007 0.0566 1.6762-0.039 2.8651 0.87738 3.7227 2.0273 0.62371 0.83811 0.93575 2.0256 1.0332 3.0781 0.11695 1.111-0.0587 2.3201-1.0332 3.1387-1.0135 0.8576-2.0068 1.8518-3.3906 1.9883-1.3254 0.15592-2.6909-0.39069-3.3926-1.3652-0.76015-1.0525-2.0466-1.929-1.9102-3.5078 0.11695-1.5593 0.81875-2.8264 1.9492-3.8789 0.31185-0.25338 0.7017-0.44787 0.95508-0.74023 0.42392-0.52625 0.92532-0.77769 1.4863-0.79688zm59.334 6.7988c-4.2685 4.6973-7.4844 9.8228-9.3555 15.729 5.8668-3.4889 10.525-11.343 9.3555-15.729zm-58.348 11.818c0.86887 7e-3 1.7467 0.25443 2.4922 0.74414 1.8126 1.189 2.5722 3.2563 2.5527 5.3613-0.0195 0.38982-0.0196 0.75862-0.0391 1.1484-0.15592 3.6643-0.83694 7.3298-1.3242 10.975-0.11694 0.8576 0.11626 2.2809-0.33203 3.041-0.15592 0.27288-0.36934 0.50647-0.46679 0.79883-0.27288 0.70167 0.1171 2.0075 0.0781 2.8066-0.0585 1.2474 0.21331 2.7678-0.52734 3.8398l-1.3438 1.9883c-0.29237 0.4288-0.60449 0.8754-1.0723 1.0703-0.89658 0.40931-2.5152-0.17512-3.2363-0.79883-1.2474-1.072-1.8504-2.4155-2.2207-4.0723-1.2669-5.8083-0.60438-11.578-0.0781-17.387 0.039-0.38982 0.0585-0.79968 0.0195-1.209-0.2144-2.3584 0.76011-4.3849 1.8711-6.334 0.75527-1.3278 2.1788-1.9848 3.627-1.9727z" fill="#49c1e3"/></g></g><g transform="matrix(18.753 0 0 -18.753 -3427.2 7257.1)" fill="#ff004f"><g clip-path="url(#b)" fill="#ff004f"><g transform="translate(242.35,384.84)" fill="#ff004f"><path d="m0 0-0.017-0.049-0.051-0.054c-0.053-0.044-0.07-0.081-0.087-0.13v-0.16l-0.052-0.033-0.035-0.074v-0.034l0.017-0.044v-0.034l-0.017-0.129-0.034-0.097-0.018-0.073 0.052-0.094v-0.046l0.017-0.066 0.018-0.043-0.018-0.037-0.138-0.138-0.017-0.061v-0.057l0.017-0.077c0-0.069-0.017-0.129-0.052-0.205v-0.033l0.017-0.021c-0.017-0.037-0.035-0.074 0.035-0.086l-0.017-0.071v-0.058l0.017-0.122c0-0.07-0.035-0.121-0.017-0.176l-0.018-0.141v-0.034l0.035-0.074v-0.046l-0.052-0.055-0.069-0.057 0.069-0.012 0.035-0.028-0.018-0.037v-0.047l-0.017-0.048v-0.023l0.035-0.109-0.035-0.144 0.017-0.089v-0.034c-0.017-0.049-0.035-0.097-0.086-0.152l-0.018-0.049c0.052-0.026 0-0.069 0.018-0.1l-0.035-0.144-0.018-0.06-0.068-0.127-0.035-0.12 0.035 0.04c0.017-0.043 0.017-0.078-0.053-0.112v-0.046l0.018-0.043-0.018-0.06-0.086-0.026 0.017-0.043-0.017-0.027-0.069-0.079-0.035-0.018-0.018-3e-3 -0.034-0.018-0.017-0.014 0.034-5e-3 0.087 2e-3 0.034-0.039 0.07 0.045c0-0.068-0.035-0.143-0.087-0.209l0.017-0.02v-0.24l-0.051-0.079-0.018-0.025 0.018-0.113-0.018-0.117c-0.035-0.075-0.017-0.14-0.017-0.209v-0.149l-0.018-0.049c-0.069-0.024-0.034-0.052-0.034-0.086l0.034 0.028 0.035 0.03 0.018-0.032c-0.018-0.06-0.035-0.12-0.07-0.185v-0.034c0-0.034-0.017-0.048-0.069-0.068l-0.017-0.026 0.017-0.078v-0.034l0.017-0.02-0.034-0.041-0.018-0.025 0.035 6e-3 0.017 0.025c0.018-0.054 0-0.092-0.034-0.132-0.035-0.051-0.035-0.051-0.122-0.078 0.087 3e-3 0.087-0.042 0.122-0.071l0.034 0.064 0.018 0.014 0.017-8e-3 -0.035-0.098-0.034-0.064v-0.034l0.052-3e-3 -0.035-0.029-0.035-0.086v-0.079c-0.052-0.044-0.052-0.09-0.034-0.122 0-0.046 0.017-0.077-0.035-0.12l-0.017-0.061-0.018-0.094-0.016-0.072c0-0.023-0.018-0.049-0.07-0.069l-0.034-0.029-0.07-0.012-0.034-6e-3 -0.035-0.063-0.087-3e-3h-0.069c-0.052-0.033-0.104-0.018-0.121 0.013l-0.104 0.028-0.086-2e-3 -0.104-0.042c-0.07-0.034-0.122-0.032-0.157-0.026-0.051 0.015-0.121-9e-3 -0.172-6e-3 -0.053 2e-3 -0.104 5e-3 -0.139 0.022-0.052 0.037-0.138 0.057-0.208 0.068-0.087 8e-3 -0.122 0.037-0.173 0.062-0.017 0.02-0.052 0.026-0.104 0.017-0.052 3e-3 -0.121 2e-3 -0.156 0.042l-0.069 0.023c-0.052 2e-3 -0.087 0.031-0.139 0.034l-0.034 0.017-0.087 0.111v0.023l-0.017 0.123v0.07l-0.052 0.048 0.017 0.094 0.018 0.014 0.017 0.061v0.035l-0.035 0.074c-0.017 8e-3 -0.051 0.037 0 0.08v0.023l-0.051 0.117 0.016 0.084 0.018 0.072c0 0.057-0.018 0.111 0.017 0.174l-0.017 9e-3 -0.018 0.1v0.035l0.018 0.094v0.116l0.017 0.105v0.069c-0.017 0.055-0.017 0.101 0.018 0.164v0.08c0 0.069 0 0.126 0.017 0.198l0.017 0.095v0.126c0 0.069 0 0.137 0.018 0.21l0.017 0.025c-0.035 0.075 0.017 0.164 0.034 0.236l0.018 0.037-0.018 0.077 0.035 0.086v0.011c-0.017 0.055 0 0.116 0.017 0.176 0 0.057 0.017 0.118 0.035 0.178 0.017 0.06 0.017 0.117 0.035 0.178l-0.018 0.088-0.069 0.012-0.017 9e-3 -0.018 0.031 0.052 0.123 0.07 0.196v0.057l0.069 0.024 0.035-0.041 0.017-0.1 0.034-0.028 0.07 0.023 0.034 0.155-0.017 0.02 0.017 0.037v0.046c-0.051 2e-3 -0.034 0.029-0.034 0.051l0.017 0.038-0.069-0.035-0.035-6e-3h-0.069l-0.052-9e-3 -0.017 0.043 0.034 0.041 0.017 0.014 0.104 6e-3 0.035 0.018v0.034l0.052 0.055 0.052 0.054c0.018 0.037 0 0.058-0.052 0.061l-0.034 5e-3v-0.035l-0.07-0.023-0.087 8e-3c-0.051 3e-3 -0.069 0.068-0.034 0.086l0.034 0.052v0.058l0.087 0.106-0.017 0.065-0.017 0.032c0.069 0.058 0.086 0.118 0.086 0.175v0.012c-0.052 3e-3 -0.035 0.029-0.035 0.052l0.018 0.106 0.017 0.048c0.052 0.021 0.052 0.056 0.052 0.078l-0.017 0.054-0.035-0.017-0.035-0.028c-0.086-0.027-0.121-0.091-0.155-0.131l-0.087-0.072-0.035 6e-3 -0.017 9e-3 -0.069-0.024-0.07-0.046 0.018-8e-3 -0.034-0.041-0.053-0.043-0.052-9e-3 -0.103 6e-3 -0.087-0.027 0.034-0.04c-0.051-0.02-0.086-0.038-0.138-0.023-0.052 3e-3 -0.121-9e-3 -0.156-0.05l-0.051-9e-3 -0.035 0.018 0.051 0.054 0.035 0.018 0.018 0.014-0.069 0.023-0.035-0.017c-0.069-0.024-0.122-0.044-0.157-0.085l-0.017-0.025 0.035-6e-3c0.052 9e-3 0.121 9e-3 0.156-0.019l0.052-0.06-0.104-0.029-0.052-9e-3 -0.035-6e-3 -0.017-3e-3 -0.087-0.015-0.017-3e-3 -0.018 8e-3c0.053 0.032 0.018 0.084 0.07 0.115l-0.104 6e-3 -0.017-0.015-0.035-0.017-0.035-0.04-0.069-0.012-0.104-0.041c-0.051-0.02-0.086-0.037-0.138-0.046l-0.086 0.019-0.088 0.078-0.016 0.043 0.051 0.123 0.018 0.026c0.069 0.047 0.121 0.112 0.225 0.13l0.121 0.078 0.07 0.035 0.034 6e-3 0.086 0.037 0.052 0.032 0.018 0.049 0.069 0.046 0.052-3e-3 0.052 0.02 0.086 0.073 0.07 0.046 0.052 0.032 0.035 0.017c0.068 0.023 0.138 0.07 0.172 0.121l0.122 0.136c0.086 0.026 0.104 0.087 0.139 0.127l0.051 0.054c0.052 0.021 0.07 0.058 0.104 0.087 0.035 0.041 0.086 0.072 0.139 0.104 0.051 0.02 0.086 0.061 0.121 0.1 0.052 0.079 0.121 0.147 0.173 0.225l0.069 0.046c0.052 0.033 0.104 0.076 0.121 0.124l0.018 0.038c0.051 0.043 0.051 0.089 0.069 0.126l0.035 0.086 0.069 0.139v0.011c0.07 0.057 0.121 0.123 0.208 0.162l0.086 0.071 0.052 0.066 0.069 0.036 0.087 0.048c0.035 0.041 0.086 0.073 0.156 0.073l0.018 3e-3c0.086 0.049 0.19 0.067 0.294 0.096l0.017 3e-3c0.069 0.057 0.156 0.06 0.242 0.11 0.035 0.017 0.087 0.015 0.139 0.035 0.086 0.037 0.173 0.018 0.259 0.033l0.018-9e-3c0.052-0.025 0.121-3e-3 0.19-0.014l0.035 0.018h0.069l0.087-0.065 0.052-0.037c0.052-0.014 0.069-0.069 0.139-0.08l0.017-8e-3c0.034-0.075 0.121-0.129 0.156-0.203l0.035-0.052 0.051-0.095 0.017-0.043zm-4.468-4.961c-0.308-0.015-0.609-0.044-0.642-0.05-0.034-5e-3 -0.18-5e-3 -0.187-7e-3l-0.186-0.022 0.293 0.014c0.016-1e-3 0.212-7e-3 0.245-6e-3 0.034 2e-3 -0.075 0.011-0.075 0.011s0.025 7e-3 0.124 0.011c0.099 5e-3 0.366 0.03 0.366 0.03l-0.107-0.025 0.035 2e-3c-0.077-0.021-0.152-0.04-0.23-0.071-0.057-0.022-0.116-0.038-0.178-0.062 0.079 0.023 0.176-4e-3 0.255-0.014-0.023-0.07-0.09-0.038-0.123-0.087-0.093-0.042-0.186-0.058-0.282-0.09l-0.069-0.031-0.012-6e-3 -0.02-7e-3c-0.039-0.012-0.076-9e-3 -0.116-0.016-0.031-6e-3 -0.064-0.013-0.097-0.021l-0.015 0.011-0.041-7e-3 0.02-0.012c-0.072-0.016-0.146-0.031-0.216-0.041-0.056-8e-3 -0.109 1e-3 -0.162-0.019l-0.017-6e-3 -9e-3 1e-3 -7e-3 -8e-3c-0.045-0.017-0.1-0.037-0.153-0.038-0.081 0-0.16 3e-3 -0.241 4e-3l-1e-3 -9e-3 -0.01-0.028-8e-3 -0.047-1e-3 -5e-3c-0.014-0.041-0.024-0.08-0.031-0.117v-4e-3l-4e-3 -0.023-7e-3 -0.042c-8e-3 0.045-2e-3 0.109-0.01 0.146-5e-3 0.029 2e-3 0.078 0.013 0.129-0.013-1e-3 -0.027-3e-3 -0.04-4e-3 -6e-3 -0.039-0.01-0.074-5e-3 -0.093 0.014-0.057-0.01-0.229-0.015-0.267-5e-3 -0.039 0.025-0.033 0.046 0.011l-0.02-0.081h-6e-3l-0.011-0.047-4e-3 -0.026c-9e-3 -0.031-4e-3 -0.077-0.022-0.099l-0.025-0.082-1e-3 -6e-3 -0.011-0.045-1e-3 -0.01-0.021-0.059 8e-3 -0.057-1e-3 -0.012-0.021-0.056c-0.034-0.063-0.041-0.087-0.03-0.139 7e-3 -0.032 6e-3 -0.044 2e-3 -0.058l-4e-3 -5e-3c-5e-3 -0.053-0.033-0.083-0.04-0.134l-0.031-0.07-0.044-0.077-2e-3 -0.011-0.028-0.022-0.011 0.037-0.018-0.052-0.072-0.011-7e-3 -1e-3c-0.018-0.017-0.048-0.023-0.081-0.024 0.015 0.17 0.083 0.572 0.108 0.753 0.029 0.204 0.067 0.324 0.074 0.456 5e-3 0.089 0.01 0.224 9e-3 0.286-2e-3 0-5e-3 0-7e-3 1e-3 -0.01-0.079-0.023-0.239-0.031-0.298-9e-3 -0.065-0.041-0.259-0.059-0.346-0.017-0.086-0.051-0.091-0.056-0.209-6e-3 -0.118-0.037-0.388-0.047-0.46-5e-3 -0.033-0.011-0.109-0.017-0.183h-6e-3c-0.026-0.01-0.06-0.011-0.092-0.013l-0.053-6e-3 -7e-3 -6e-3 -0.01-5e-3c0.022 0.185 0.092 0.763 0.106 0.815 2e-3 0.043 0.061 0.485 0.091 0.721h-3e-3l-0.089-0.619-0.129-0.925-0.054-0.012-0.041-7e-3 0.061 0.6s-0.052-0.415-0.085-0.599l-7e-3 -1e-3h-2e-3c0.012 0.085 0.033 0.198 0.027 0.254-6e-3 0.062 3e-3 0.125 9e-3 0.173 7e-3 0.047-0.011 0.133-0.015 0.109-3e-3 -0.024-0.016-0.225-0.028-0.264-0.013-0.038 5e-3 -0.066 0-0.157-2e-3 -0.035-0.013-0.081-0.029-0.125l-0.04-0.012c0.015 0.079 0.04 0.164 0.025 0.192-0.023 0.038-2e-3 -0.011-0.022-0.073-9e-3 -0.031-0.025-0.081-0.039-0.131l-0.056-0.017 2e-3 0.01c0.012 0.06 0.034 0.14 0.038 0.197 5e-3 0.058-4e-3 0.124-0.014 0.109-9e-3 -0.014-0.012-0.086-0.021-0.127-5e-3 -0.019-0.018-0.061-0.035-0.109 3e-3 0.032 6e-3 0.066 9e-3 0.091 8e-3 0.061 0.017 0.265 0.017 0.265s-0.023-0.19-0.047-0.264l-0.061-0.188-0.011 1e-3c0.017 0.077 0.038 0.17 0.049 0.207 0.021 0.069 0.017 0.36 0.017 0.36s-0.025-0.195-0.042-0.264l-0.025-0.106c0 0.044-5e-3 0.084-5e-3 0.084l-0.04 0.032-7e-3 -0.211-7e-3 -0.084-0.017 0.01 4e-3 0.079c2e-3 0.029-0.011-0.015-0.021-0.048l-9e-3 2e-3c6e-3 0.07 0.012 0.221 0.01 0.206l-0.032-0.202-6e-3 8e-3h-7e-3l0.02 0.314-0.058-0.297 2e-3 -1e-3 -1e-3 -0.017h-0.04l-0.029-0.018c-0.018-0.028-0.054-0.039-0.097-0.042h-6e-3l-0.012-9e-3 0.013 0.099c0.049 0.36 0.075 0.727 0.075 0.767 0 0.039 0.031 0.201 0.029 0.21l0.01 0.213-0.043-0.33c-5e-3 -0.019-0.054-0.235-0.06-0.272-5e-3 -0.038 0.031 0.081 0.031 0.081s4e-3 -0.03-0.011-0.142c-0.016-0.111-0.038-0.414-0.038-0.414l-0.011 0.125-0.023-0.189c-0.01-0.075-0.012-0.106-0.021-0.154l-2e-3 -0.013c-0.027-7e-3 -0.058-9e-3 -0.091-9e-3l-0.043 0.011c-0.03 8e-3 -0.054 0.048-0.04 0.075 3e-3 0.031 6e-3 0.062 1e-3 0.087l-2e-3 0.029-5e-3 6e-3 -1e-3 0.04 0.01 0.061 0.011 0.028 4e-3 0.029 4e-3 0.023-5e-3 7e-3 3e-3 0.026 4e-3 0.025-2e-3 0.029 0.017-9e-3 -0.017 0.029 1e-3 4e-3 0.028 0.015-0.027 1e-3v0.013l-2e-3 2e-3 0.041 0.058-0.036-7e-3v5e-3c-5e-3 0.03-1e-3 0.068 3e-3 0.105l2e-3 0.012c0.017 0.042 0.037 0.081 0.025 0.108-0.033-0.017 0.023-0.038-0.027-0.044l2e-3 0.017 1e-3 6e-3 1e-3 0.047-3e-3 3e-3c0.012 0.07 0.036 0.153 9e-3 0.203l4e-3 0.034 0.03 0.032-0.014 0.017v2e-3l-3e-3 4e-3c0.012 0.021 0.012 0.05 0.01 0.083v2e-3 -2e-3l-4e-3 0.046 2e-3 0.01 3e-3 0.026 1e-3 8e-3 9e-3 0.046 5e-3 0.015 3e-3 6e-3 0.04 0.033 7e-3 0.046-0.033-0.024 0.016 0.098 8e-3 0.012 7e-3 0.046 0.013 0.082 8e-3 0.012 5e-3 0.017-8e-3 1e-3 -0.04-4e-3c-0.036-0.011-0.074-0.016-0.116-0.015-0.038-0.015-0.089-3e-3 -0.134-3e-3h-4e-3l-0.04-8e-3c-0.081-0.01-0.161-0.022-0.25-0.013l-0.014 1e-3 -0.036-4e-3h-7e-3l-1e-3 -5e-3 -0.066 4e-3h-0.014c-0.074-0.017-0.158 3e-3 -0.21 0.028h-7e-3c-0.076 8e-3 -0.156 0.046-0.225 0.076h-3e-3c-0.107 0.056-0.24 0.12-0.284 0.244l0.037 0.017h0.012l0.028 0.024 0.037 0.015c0.033 4e-3 0.067 0 0.1 1e-3 0.042 1e-3 0.084 1e-3 0.126 3e-3 0.07 4e-3 0.057-8e-3 0.102 1e-3 0.045 0.01-0.039 0.017-0.069 0.019-0.029 2e-3 -0.049 6e-3 -0.089-4e-3 -0.04-9e-3 -0.115 0-0.14-1e-3l-0.049 0.013 2e-3 0.029-0.016 0.019v0.023h-0.016l-0.014 9e-3c0.048 0.013 0.105 0.01 0.154 0.014 0.043 3e-3 0.097 0.016 0.14 7e-3l0.296 0.023-0.262-0.011-0.332-0.017-1e-3 7e-3 -0.013 0.017 0.023 0.037 0.202 0.024s-0.135-0.011-0.2-9e-3l-2e-3 6e-3 0.083 9e-3 0.059 0.013 0.036 0.021-0.09-0.01c-0.013 5e-3 -0.022-0.011-0.053-0.017l-0.051 9e-3 -1e-3 5e-3h-1e-3l-3e-3 0.016 0.073 5e-3 -0.025 5e-3 -0.066 0.016-7e-3 0.03 0.091-4e-3 0.037 0.021h-0.044l-0.038 0.01 0.031 5e-3 0.09 0.017-0.091 2e-3 -0.074 0.021 1e-3 6e-3 0.08-0.01 0.121 0.027h-0.09l-0.037 4e-3 0.028 0.012 0.01 0.029-0.071-0.018-0.039-6e-3 1e-3 -1e-3 -8e-3 -2e-3 4e-3 0.011 0.043 0.011-0.026 0.014 0.079 0.016-0.084-1e-3v6e-3l0.124 0.024-0.102 6e-3 -1e-3 -2e-3 -0.019-6e-3c-6e-3 0.031-0.041 9e-3 -0.03 0.051l0.039 0.049 0.048 0.024c0.039 0.01 0.08 5e-3 0.12 0.01 0.033 5e-3 0.07 7e-3 0.103 0.018l0.071 4e-3 0.072 0.016-0.113-8e-3 -0.093 0.01 0.028-0.011s-0.01-6e-3 -0.048-8e-3 -0.141-0.02-0.141-0.02l0.042 0.02-0.013-1e-3c0.03 0.017 0.059 0.033 0.09 0.059l0.064 0.048-0.083 0.014-6e-3 4e-3 -1e-3 8e-3c7e-3 0.03 0.039 0.057 0.059 0.078 0.027 0.03 0.071 0.045 0.103 0.067l0.032 0.032 8e-3 6e-3 0.045 0.012 0.038 0.017 6e-3 -0.01 0.015 6e-3 -7e-3 0.01 0.084 0.033 0.063 0.014 7e-3 6e-3 3e-3 -2e-3 3e-3 7e-3 0.061 0.031c0.037-1e-3 0.073-9e-3 0.111-9e-3l0.052 0.011 0.058-7e-3c0.037 7e-3 0.074 0.013 0.113 0.017l0.066 0.017 0.016 5e-3c0.049 0.013 0.097 0.031 0.151 0.034l0.08 0.011 0.05 3e-3h7e-3c0.057 0.012 0.123 0.015 0.178 0.011h4e-3c0.035 0.017 0.078-1e-3 0.103 5e-3h0.011l0.069 1e-3c0 3e-3 1e-3 7e-3 2e-3 0.01l6e-3 0.012c-2e-3 0.114-8e-3 0.228 1e-3 0.358 2e-3 0.032-1e-3 0.079 0.015 0.099l1e-3 6e-3c0.012 0.168 0.042 0.391 0.076 0.566 7e-3 0.038 0.023 0.09 0.044 0.123 0.014 0.022 0.05 0.04 0.08 0.071l0.049 0.064 0.061 0.03c0.061 0.044 0.112 0.135 0.177 0.131h0.013l0.041 0.018c0.032-3e-3 0.046-0.02 0.064-0.034l0.037 0.035 0.025-0.04c0.075 0.016 0.082 0.056 0.14 0.048 0.036-4e-3 0.056-0.041 0.095-0.039l0.065 0.018h7e-3c0.074 0.011 0.134-9e-3 0.192-0.021 0.049 0.021 0.116 0.094 0.163 0.037l-1e-3 -6e-3h6e-3c0.04-6e-3 0.057 0.013 0.091 0.013h6e-3c0.146 0.026 0.184-0.092 0.281-0.136l-1e-3 -6e-3h6e-3c0.036-0.01 0.065-0.025 0.066-0.063l1e-3 -0.035-9e-3 -0.058-8e-3 -0.012-2e-3 -0.012-9e-3 -0.058-4e-3 -0.064c-4e-3 -0.031 2e-3 -0.052-7e-3 -0.087l-3e-3 -0.018 5e-3 -6e-3c6e-3 -0.035 1e-3 -0.08-7e-3 -0.128l-3e-3 -0.017-0.011-0.07-0.01-0.065-0.019-0.081-1e-3 -6e-3 -0.02-0.088-1e-3 -6e-3 -0.017-0.07-0.01-0.023-0.024-0.076c-6e-3 -0.026-0.018-0.046-0.018-0.076l-0.028-0.053v-6e-3c-0.014-0.042-0.03-0.081-0.056-0.111l-1e-3 -6e-3 -6e-3 -0.026-4e-3 -0.013-3e-3 -0.01-5e-3 -0.016-1e-3 -5e-3 -6e-3 -0.018-1e-3 -5e-3c8e-3 0 0.017-1e-3 0.025-1e-3 -0.01-1e-3 -0.017-1e-3 -0.026-2e-3l-1e-3 -2e-3 0.06 5e-3 0.091-9e-3c0.091-0.022 0.171-0.029 0.242-0.025-0.039-0.011-0.101-0.013-0.136-0.022-0.056-0.015-0.21 8e-3 -0.261 9e-3h-5e-3l-7e-3 -0.032c0.068-1e-3 0.206-0.017 0.249-3e-3 0.048 0.015 0.201 0.013 0.235 0.012 0.035 0 0.026 0.022-0.014 0.033l-0.016 8e-3 0.037 6e-3 0.028-6e-3 0.041-2e-3 0.025-2e-3 0.07-4e-3 0.035-1e-3c0.033-1e-3 0.055-0.013 0.09-0.011l0.072-9e-3 0.025-1e-3 -0.046-0.01c-0.017-0.014 0.02-0.025 0.05-0.017s0.052 0.02 0.11 1e-3c0.059-0.019 0.081-0.023 0.125-0.01l0.028-7e-3h6e-3l0.034-7e-3c0.044-6e-3 0.083-0.017 0.117-0.034l0.042-0.019 0.043-0.013 0.084-0.038 0.021-1e-3c0.019 8e-3 0.043-0.015 0.073-9e-3 0.031 0 0.062 8e-3 0.088 2e-3l-1e-3 -0.012 8e-3 -0.032-0.026-1e-3h-3e-3c-0.031-6e-3 -0.06-0.013-0.082-0.038-0.147-0.012-0.513-0.018-0.675-0.025-0.182-8e-3 -0.292 4e-3 -0.408-9e-3s-0.328-0.042-0.268-0.04c0.061 3e-3 0.225 0.018 0.283 0.02 0.057 3e-3 0.231 6e-3 0.309 5e-3 0.077-1e-3 0.087-0.024 0.19-0.012 0.103 0.013 0.342 0.027 0.406 0.03 0.028 1e-3 0.087 6e-3 0.148 0.012l-0.018-0.058 0.038-0.019 6e-3 -0.028 0.034-2e-3h4e-3l0.044-7e-3c-0.079-4e-3 -0.713-0.041-0.766-0.037-0.052-6e-3 -0.77-0.039-0.769-0.041l0.681 0.026 0.864 0.036 3e-3 -7e-3 0.035-0.019c-0.01-0.033-0.04-0.019-0.055-0.043l-0.524-0.037s0.352 0.019 0.522 0.021l4e-3 -7e-3c-0.075-2e-3 -0.169-4e-3 -0.215-0.015-0.053-0.013-0.108-0.016-0.151-0.017-0.042-2e-3 -0.113-0.027-0.092-0.026 0.021 2e-3 0.197 0.02 0.233 0.016 0.035-4e-3 0.057 0.013 0.136 0.022 0.036 4e-3 0.087 0 0.133-7e-3l4e-3 -6e-3h3e-3l0.01-0.017c-0.075-3e-3 -0.167 7e-3 -0.19-0.01-0.03-0.021 9e-3 1e-3 0.066-5e-3 0.041-4e-3 0.114-0.011 0.172-0.014l0.026-3e-3 8e-3 -0.03c-0.022-3e-3 -0.042-1e-3 -0.072-1e-3 -0.054 0-0.126 5e-3 -0.177 0-0.05-4e-3 -0.107-0.02-0.092-0.025 0.014-5e-3 0.077 3e-3 0.113 2e-3 0.017-1e-3 0.056-5e-3 0.1-0.01l-0.08-6e-3c-0.054-2e-3 -0.233-0.024-0.233-0.024s0.169 9e-3 0.237 2e-3l0.196-0.02v-7e-3c-0.073 2e-3 -0.172 5e-3 -0.21 8e-3 -0.063 6e-3 -0.315-0.037-0.315-0.037s0.173 9e-3 0.236 6e-3l0.095-3e-3c-0.037-7e-3 -0.071-0.016-0.071-0.016l-0.022-0.033 0.184 0.024 0.101 9e-3 -4e-3 2e-3 0.021 2e-3 -8e-3 -0.012c-0.037-8e-3 -0.084-0.013-0.111-0.016-0.044-4e-3 0.105-0.011 0.068-0.013-0.036-2e-3 -0.22-0.024-0.204-0.023l0.22 5e-3 -1e-3 -6e-3 -0.319-0.033 0.267-2e-3v2e-3l0.051 7e-3 0.082-0.015v-5e-3l-8e-3 2e-3 0.012-0.012 9e-3 -0.01 5e-3 -7e-3c-0.044-0.036-0.108-0.065-0.17-0.087m-7.172 3.956v-9.127l13.98 2.499 0.043 9.773z" fill="#3be7ff"/></g></g></g></svg>
