<svg id="b" version="1.1" viewBox="0 0 800 194.99" xml:space="preserve" xmlns="http://www.w3.org/2000/svg"><defs id="c"><clipPath id="a"><path id="d" d="m0 0h841.89v595.28h-841.89z"/></clipPath><clipPath id="e"><path id="f" d="m0 0h841.89v595.28h-841.89z"/></clipPath></defs><g id="g" transform="matrix(1.3333 0 0 -1.3333 -407.76 175.84)"><g id="h" transform="matrix(14.618 0 0 14.618 509.64 91.149)" fill="#3be7ff"><path id="i" d="m0 0h-2.23v2.575h-2.439v-7.296h2.439v2.616h2.23v-2.616h2.439v7.296h-2.439z" fill="#3be7ff"/></g><g id="j" transform="matrix(14.618 0 0 14.618 -4125.6 -1173.2)" fill="#3be7ff"><g id="k" clip-path="url(#a)" fill="#3be7ff"><g id="l" transform="translate(328.27 83.988)" fill="#3be7ff"><path id="m" d="m0 0v0.021c0 0.75-0.23 1.293-0.667 1.73-0.511 0.51-1.334 0.834-2.627 0.834h-3.564v-7.296h2.439v2.084h0.521l1.376-2.084h2.782l-1.699 2.481c0.887 0.427 1.439 1.166 1.439 2.23m-2.428-0.177c0-0.448-0.355-0.709-0.939-0.709h-1.052v1.428h1.062c0.563 0 0.929-0.229 0.929-0.698z" fill="#3be7ff"/></g></g></g><g id="n" transform="matrix(14.618 0 0 14.618 379.84 92.746)" fill="#3be7ff"><path id="o" d="m0 0h-2.623v-2.4h-2.441v-2.414h2.441v-2.513h2.623v2.513h2.441v2.414h-2.441z" fill="#3be7ff"/></g><g id="p" transform="matrix(14.618 0 0 14.618 849.14 14.896)" fill="#3be7ff"><path id="q" d="m0 0v0.792h3.564v1.762h-3.564v0.74h3.825v2.001h-6.222v-7.296h6.274v2.001z" fill="#3be7ff"/></g><g id="r" transform="matrix(14.618 0 0 14.618 793.48 93.274)" fill="#585858"><path id="s" transform="matrix(.051306 0 0 -.051306 -54.28 34.341)" d="m988.7 617.86-69.271 51.475v94.861h138.54v-94.861zm18.721 33.111c1.2371 3e-3 2.4517 0.37979 3.6211 1.2812 1.9101 1.4618 2.5345 3.4886 3.1387 5.5547 0.9356 3.2355 1.1107 6.6279 0.8184 9.9024-0.2534 3.0406-1.5011 5.9048-3.8985 8.0293-1.0135 0.87709-3.5074 0.68333-4.2676-0.38867-0.2923-0.38982-0.4881-0.97553-0.4297-1.4238 0.2145-1.6957 0.526-3.3726 0.8184-5.0488 0.039-0.23389 0.078-0.46724 0.039-0.68164-0.2924-1.8906-0.6042-3.7616-0.9356-5.6133-0.058-0.33134-0.3501-0.6429-0.584-0.79882-1.3058 1.3059-2.3 3.1579-2.8847 4.8926-0.6627 1.8711-1.2863 3.7618-1.8125 5.6719-0.3314 1.15-0.4108 2.3579-0.7031 3.5273-0.72126 2.8652-0.58293 5.8283-0.99224 8.7324-0.11694 0.87709-0.0195 1.7932-0.0195 2.8262 1.0914 0.17541 2.1227-0.0972 2.9218-0.81836 0.994-0.89658 2.1257-1.307 3.4121-1.502 1.3644-0.2144 2.6903-0.58422 4.0547-0.70117 1.3449-0.11694 1.5187 0.1747 2.0449 1.5391 0.3704 0.97456 1.033 3.0998 0.9356 4.1133-0.019 0.15592-0.096 0.31278-0.1934 0.44921-1.033 1.7347-2.5343 2.4362-4.0156 3.7031-1.3644 1.15-2.5336 1.247-3.6641 2.6309-1.7736 2.144-3.3725 2.864-5.0292 5.0859-0.35084 0.46778-0.54496 1.1516-0.56445 1.7363 0 3.216 0.0195 7.9324 0 11.148-0.039 2.2804-0.46847 4.5613-0.33204 6.8223 0.17542 2.8846-0.52535 5.6895-0.50586 8.5547 0.039 2.2804-0.43041 4.5809-0.78125 6.8613-0.48727 3.2745-1.0325 6.5498-1.6172 9.8242-0.23389 1.2669-0.83727 1.4806-1.4805 2.4746-0.25338 0.40931-0.43021 0.83874-0.6836 1.248-0.68218 1.1305-1.8305 0.81908-2.9609 1.1699-1.033 0.31185-2.9435-0.50808-3.0215-1.5801-0.0585-1.2669-1.2487-1.3635-1.5605-2.416-0.29237-0.91608 0.0783-2.0859 0.17578-3.002 0.15592-1.4423 0.40885-2.8838 0.7207-4.3066 0.23389-0.99403 0.0783-1.9688 0.17578-2.9629 0.23389-2.144 0.13684-4.3463 0.19531-6.5098 0.0975-3.0016 0.25403-6.0042 0.3125-8.9863 0.0585-3.7422 0.0586-7.4843 0.0586-11.227 0-1.0915-0.0391-2.182-0.0391-3.2734v-0.0391c-0.46778 0.19491-0.89713 0.36938-1.209 0.48632-1.2279 0.4483-2.125 0.95506-3.0801 0-0.95505-0.95505-0.64258-2.2617-0.64258-2.2617s-0.62304-3.4295-0.62304-4.2871 0.91601-1.3262 0.91601-2.3008c0-0.97456 1.0898-1.0703 2.0254-2.0059 0.91608-0.91608 1.9883-1.7363 1.9883-1.7363 0.29238-0.81862 0.42973-1.7538 0.44922-2.6504 0.11695-3.255 0.0396-6.5282 0.29297-9.7832 0.27288-3.8397 0.62311-7.6992 1.5977-11.461 0.15593-0.66269 0.35021-1.3255 0.64258-1.9492 1.3254-3.0406 2.4176-6.2382 4.1328-9.0449 2.5338-4.1906 5.9436-7.6398 10.797-9.1406 0.7529-0.23389 1.5039-0.36706 2.2461-0.36523zm-62.084 21.775c0.54575-0.039 1.1495 0.0981 1.6758 0.3125 0.7407 0.31185 1.4038 0.78002 2.125 1.1309 0.83815 0.4288 1.4228 1.404 1.8711 2.1836 0.46778 0.87709 0.3308 1.7536 0.68164 2.5527 1.1889 2.6508 0.44805 5.2614-0.11719 7.9121-1.0915 5.2236-2.5336 10.371-2.7285 15.77-0.15593 4.5414-0.89721 9.0621-1.248 13.604-0.17542 2.2999-2.4e-4 4.6395-0.11719 6.9394-0.2144 4.0736 0.60521 8.0102 1.4238 11.967 0.078 0.38982 0.21378 1.307 0.64258 1.502 0.039 0.0195 0.0587 0.0196 0.0977 0.0391 0.31186 0.039 0.60408-0.098 0.87696-0.25391 1.9296-1.0915 3.7614-2.0851 5.4961-3.5469 1.6957-1.4424 3.4901-2.8074 5.3027-4.1133 0.97454-0.70167 2.1236-1.1689 3.3516-0.68164 0.6432 0.25338 1.2283 0.68257 2.0469 1.1309 1.4813 2.3974 0.62405 4.8136-0.77929 7.2109-0.33135 0.54575-0.81901 0.97383-1.1309 1.5391-0.37033 0.74066-0.0397 1.4037-0.33203 2.0664-0.13644 0.31185-0.38916 0.56498-0.62305 0.81836-1.8126 1.8321-3.6831 3.6252-5.3203 5.6328-1.8516 2.3194-4.4448 2.7492-7.0371 3.334-0.35084 0.0974-0.7605-0.0194-1.1113 0.0586-5.1261 1.2279-8.8482-1.2476-11.947-4.8144-1.0525-1.2279-1.5008-3.06-1.9102-4.6973-0.83811-3.3719-1.6182-6.7825-2.1055-10.232-0.37033-2.5728-0.19376-5.2046-0.38867-7.8164-0.33135-4.1516 0.27192-8.2839 0.48632-12.416 0.25339-5.3405 1.0912-10.642 1.7344-15.963 0.60422-4.9897 1.306-9.9791 1.9297-14.988 0.35083-2.7677 2.4373-5.1458 5.166-5.75 0.66269-0.15592 1.3256-0.41019 1.9883-0.42968zm87.818 1.6074c0.2254-0.0142 0.458-0.0131 0.6992 4e-3 0.7797 0.0585 1.7729 0.0577 2.4356 0.56445 0.5652 0.44829 0.7026 1.9884 1.4043 2.0273 0.1754 0 0.3304-0.0586 0.5058-0.0391 1.2864 0.0974 2.1252 4.3458 2.2031 5.3203 0.078 1.2474 0.3518 2.4948 0.4297 3.7422 0.097 1.9101-0.3526 3.7225-0.8789 5.5547-0.8771 3.0601-2.318 5.8491-4.0527 8.4414-1.5398 2.3389-3.4303 4.4237-5.6133 6.2559-1.8711 1.5788-3.567 3.3912-5.75 4.6191-0.3118 0.17542-0.4871 0.60457-0.8769 1.1113 2.2999 1.7152 4.4824 3.0009 7.3086 2.4941 0.7796-0.13643 1.5778-0.25399 2.3769-0.29297 1.5008-0.0974 2.9248-0.5244 4.3477-0.99218 1.1889-0.37033 2.4361-0.60576 3.6836-0.74219 1.5982-0.15593 2.4754 1.2082 1.9101 2.7285-0.4093 1.15-0.4491 2.1445-1.3262 3.0606-2.2024 2.2999-4.424 3.6842-7.3476 4.9121-1.111 0.46778-2.2992 0.70202-3.4297 1.1113-1.15 0.40931-2.2215 0.73971-3.5273 0.48633-0.9551-0.2144-2.0275 0.27331-3.0411 0.21484-2.9821-0.19491-5.7899-1.0919-8.1093-3.041-0.8771-0.76014-1.8513-1.4023-2.67-2.3379-1.3643-1.5788-2.3583-3.373-2.8066-5.2246-0.7991-3.294-1.1303-6.7236 0.098-10.037 1.7346-4.6388 3.3917-9.3176 5.8086-13.645 1.6177-2.9041 3.3127-5.7886 5.3203-8.4199 1.4228-1.8906 3.4118-3.351 5.166-4.9883 0.4873-0.46778 1.0715-0.85815 1.6562-1.209 1.2791-0.76746 2.4987-1.58 4.0762-1.6797zm-60.486 2.6973c0.18699-6e-3 0.38029 0.0128 0.58007 0.0566 1.6762-0.039 2.8651 0.87738 3.7227 2.0273 0.62371 0.83811 0.93575 2.0256 1.0332 3.0781 0.11695 1.111-0.0587 2.3201-1.0332 3.1387-1.0135 0.8576-2.0068 1.8518-3.3906 1.9883-1.3254 0.15592-2.6909-0.39069-3.3926-1.3652-0.76015-1.0525-2.0466-1.929-1.9102-3.5078 0.11695-1.5593 0.81875-2.8264 1.9492-3.8789 0.31185-0.25338 0.7017-0.44787 0.95508-0.74023 0.42392-0.52625 0.92532-0.77769 1.4863-0.79688zm59.334 6.7988c-4.2685 4.6973-7.4844 9.8228-9.3555 15.729 5.8668-3.4889 10.525-11.343 9.3555-15.729zm-58.348 11.818c0.86887 7e-3 1.7467 0.25443 2.4922 0.74414 1.8126 1.189 2.5722 3.2563 2.5527 5.3613-0.0195 0.38982-0.0196 0.75862-0.0391 1.1484-0.15592 3.6643-0.83694 7.3298-1.3242 10.975-0.11694 0.8576 0.11626 2.2809-0.33203 3.041-0.15592 0.27288-0.36934 0.50647-0.46679 0.79883-0.27288 0.70167 0.1171 2.0075 0.0781 2.8066-0.0585 1.2474 0.21331 2.7678-0.52734 3.8398l-1.3438 1.9883c-0.29237 0.4288-0.60449 0.8754-1.0723 1.0703-0.89658 0.40931-2.5152-0.17512-3.2363-0.79883-1.2474-1.072-1.8504-2.4155-2.2207-4.0723-1.2669-5.8083-0.60438-11.578-0.0781-17.387 0.039-0.38982 0.0585-0.79968 0.0195-1.209-0.2144-2.3584 0.76011-4.3849 1.8711-6.334 0.75527-1.3278 2.1788-1.9848 3.627-1.9727z" fill="#49c1e3"/></g><g id="t" transform="matrix(14.618 0 0 14.618 -4125.6 -1173.2)" fill="#fff"/></g></svg>
