<?xml version="1.0" encoding="UTF-8"?>
<!-- Created with Inkscape (http://www.inkscape.org/) -->
<svg id="svg3106" width="1164.1" height="440" version="1.1" viewBox="0 0 1091.4 412.5" xmlns="http://www.w3.org/2000/svg" xmlns:cc="http://creativecommons.org/ns#" xmlns:dc="http://purl.org/dc/elements/1.1/" xmlns:rdf="http://www.w3.org/1999/02/22-rdf-syntax-ns#">
 <defs id="defs8">
  <clipPath id="clipPath116">
   <path id="path114" d="m182.66 363.52h62.074v23.462h-62.074z"/>
  </clipPath>
  <clipPath id="clipPath92">
   <path id="path90" d="m182.66 363.52h62.074v23.462h-62.074z"/>
  </clipPath>
 </defs>
 <metadata id="metadata3111">
  <rdf:RDF>
   <cc:Work rdf:about="">
    <dc:format>image/svg+xml</dc:format>
    <dc:type rdf:resource="http://purl.org/dc/dcmitype/StillImage"/>
    <dc:title/>
   </cc:Work>
  </rdf:RDF>
 </metadata>
 <g id="g4548" transform="matrix(1.7308 0 0 1.7308 -2045.4 114.65)" fill="#ff004f">
  <g id="g78" transform="matrix(10.158 0 0 -10.158 1643 104.58)">
   <path id="path80" d="m0 0h-8.646v-3.205h8.646v2.758z" fill="#ff004f"/>
  </g>
  <g id="g82" transform="matrix(10.158 0 0 -10.158 1377 71.049)">
   <path id="path84" d="m0 0h-3.074v3.548h-3.361v-10.054h3.361v3.606h3.074v-3.606h3.361v10.054h-3.361z" fill="#ff004f"/>
  </g>
  <g id="g86" transform="matrix(10.158 0 0 -10.158 -673.71 3864.8)">
   <g id="g88" clip-path="url(#clipPath92)" fill="#ff004f">
    <g id="g94" transform="translate(217.29 370.01)">
     <path id="path96" d="m0 0v0.03c0 1.033-0.316 1.781-0.919 2.383-0.704 0.704-1.839 1.149-3.62 1.149h-4.912v-10.054h3.361v2.872h0.718l1.896-2.872h3.835l-2.342 3.418c1.222 0.589 1.983 1.609 1.983 3.074m-3.347-0.244c0-0.618-0.488-0.977-1.293-0.977h-1.45v1.968h1.464c0.776 0 1.279-0.315 1.279-0.962z" fill="#ff004f"/>
    </g>
    <g id="g98" transform="translate(186.02 373.61)">
     <path id="path100" d="m0 0v-3.307h-3.364v-3.328h3.364v-3.462h3.615v3.462h3.364v3.328h-3.364v3.307z" fill="#ff004f"/>
    </g>
   </g>
  </g>
  <g id="g102" transform="matrix(10.158 0 0 -10.158 1669.8 69.946)">
   <path id="path104" d="m0 0v-10.055h8.647v2.758h-5.343v1.091h4.912v2.428h-4.912v1.02h5.271v2.758z" fill="#ff004f"/>
  </g>
  <g id="g106" transform="matrix(10.158 0 0 -10.158 1555.1 35.006)">
   <path id="path108" d="m0 0v-3.205h8.646v3.205z" fill="#ff004f"/>
  </g>
 </g>
 <g id="g110" transform="matrix(17.582 0 0 -17.582 -3211.5 6803.7)" fill="#ff004f">
  <g id="g112" clip-path="url(#clipPath116)" fill="#ff004f">
   <g id="g118" transform="translate(242.35 384.84)" fill="#ff004f">
    <path id="path120" d="m0 0-0.017-0.049-0.051-0.054c-0.053-0.044-0.07-0.081-0.087-0.13v-0.16l-0.052-0.033-0.035-0.074v-0.034l0.017-0.044v-0.034l-0.017-0.129-0.034-0.097-0.018-0.073 0.052-0.094v-0.046l0.017-0.066 0.018-0.043-0.018-0.037-0.138-0.138-0.017-0.061v-0.057l0.017-0.077c0-0.069-0.017-0.129-0.052-0.205v-0.033l0.017-0.021c-0.017-0.037-0.035-0.074 0.035-0.086l-0.017-0.071v-0.058l0.017-0.122c0-0.07-0.035-0.121-0.017-0.176l-0.018-0.141v-0.034l0.035-0.074v-0.046l-0.052-0.055-0.069-0.057 0.069-0.012 0.035-0.028-0.018-0.037v-0.047l-0.017-0.048v-0.023l0.035-0.109-0.035-0.144 0.017-0.089v-0.034c-0.017-0.049-0.035-0.097-0.086-0.152l-0.018-0.049c0.052-0.026 0-0.069 0.018-0.1l-0.035-0.144-0.018-0.06-0.068-0.127-0.035-0.12 0.035 0.04c0.017-0.043 0.017-0.078-0.053-0.112v-0.046l0.018-0.043-0.018-0.06-0.086-0.026 0.017-0.043-0.017-0.027-0.069-0.079-0.035-0.018-0.018-3e-3 -0.034-0.018-0.017-0.014 0.034-5e-3 0.087 2e-3 0.034-0.039 0.07 0.045c0-0.068-0.035-0.143-0.087-0.209l0.017-0.02v-0.24l-0.051-0.079-0.018-0.025 0.018-0.113-0.018-0.117c-0.035-0.075-0.017-0.14-0.017-0.209v-0.149l-0.018-0.049c-0.069-0.024-0.034-0.052-0.034-0.086l0.034 0.028 0.035 0.03 0.018-0.032c-0.018-0.06-0.035-0.12-0.07-0.185v-0.034c0-0.034-0.017-0.048-0.069-0.068l-0.017-0.026 0.017-0.078v-0.034l0.017-0.02-0.034-0.041-0.018-0.025 0.035 6e-3 0.017 0.025c0.018-0.054 0-0.092-0.034-0.132-0.035-0.051-0.035-0.051-0.122-0.078 0.087 3e-3 0.087-0.042 0.122-0.071l0.034 0.064 0.018 0.014 0.017-8e-3 -0.035-0.098-0.034-0.064v-0.034l0.052-3e-3 -0.035-0.029-0.035-0.086v-0.079c-0.052-0.044-0.052-0.09-0.034-0.122 0-0.046 0.017-0.077-0.035-0.12l-0.017-0.061-0.018-0.094-0.016-0.072c0-0.023-0.018-0.049-0.07-0.069l-0.034-0.029-0.07-0.012-0.034-6e-3 -0.035-0.063-0.087-3e-3h-0.069c-0.052-0.033-0.104-0.018-0.121 0.013l-0.104 0.028-0.086-2e-3 -0.104-0.042c-0.07-0.034-0.122-0.032-0.157-0.026-0.051 0.015-0.121-9e-3 -0.172-6e-3 -0.053 2e-3 -0.104 5e-3 -0.139 0.022-0.052 0.037-0.138 0.057-0.208 0.068-0.087 8e-3 -0.122 0.037-0.173 0.062-0.017 0.02-0.052 0.026-0.104 0.017-0.052 3e-3 -0.121 2e-3 -0.156 0.042l-0.069 0.023c-0.052 2e-3 -0.087 0.031-0.139 0.034l-0.034 0.017-0.087 0.111v0.023l-0.017 0.123v0.07l-0.052 0.048 0.017 0.094 0.018 0.014 0.017 0.061v0.035l-0.035 0.074c-0.017 8e-3 -0.051 0.037 0 0.08v0.023l-0.051 0.117 0.016 0.084 0.018 0.072c0 0.057-0.018 0.111 0.017 0.174l-0.017 9e-3 -0.018 0.1v0.035l0.018 0.094v0.116l0.017 0.105v0.069c-0.017 0.055-0.017 0.101 0.018 0.164v0.08c0 0.069 0 0.126 0.017 0.198l0.017 0.095v0.126c0 0.069 0 0.137 0.018 0.21l0.017 0.025c-0.035 0.075 0.017 0.164 0.034 0.236l0.018 0.037-0.018 0.077 0.035 0.086v0.011c-0.017 0.055 0 0.116 0.017 0.176 0 0.057 0.017 0.118 0.035 0.178 0.017 0.06 0.017 0.117 0.035 0.178l-0.018 0.088-0.069 0.012-0.017 9e-3 -0.018 0.031 0.052 0.123 0.07 0.196v0.057l0.069 0.024 0.035-0.041 0.017-0.1 0.034-0.028 0.07 0.023 0.034 0.155-0.017 0.02 0.017 0.037v0.046c-0.051 2e-3 -0.034 0.029-0.034 0.051l0.017 0.038-0.069-0.035-0.035-6e-3h-0.069l-0.052-9e-3 -0.017 0.043 0.034 0.041 0.017 0.014 0.104 6e-3 0.035 0.018v0.034l0.052 0.055 0.052 0.054c0.018 0.037 0 0.058-0.052 0.061l-0.034 5e-3v-0.035l-0.07-0.023-0.087 8e-3c-0.051 3e-3 -0.069 0.068-0.034 0.086l0.034 0.052v0.058l0.087 0.106-0.017 0.065-0.017 0.032c0.069 0.058 0.086 0.118 0.086 0.175v0.012c-0.052 3e-3 -0.035 0.029-0.035 0.052l0.018 0.106 0.017 0.048c0.052 0.021 0.052 0.056 0.052 0.078l-0.017 0.054-0.035-0.017-0.035-0.028c-0.086-0.027-0.121-0.091-0.155-0.131l-0.087-0.072-0.035 6e-3 -0.017 9e-3 -0.069-0.024-0.07-0.046 0.018-8e-3 -0.034-0.041-0.053-0.043-0.052-9e-3 -0.103 6e-3 -0.087-0.027 0.034-0.04c-0.051-0.02-0.086-0.038-0.138-0.023-0.052 3e-3 -0.121-9e-3 -0.156-0.05l-0.051-9e-3 -0.035 0.018 0.051 0.054 0.035 0.018 0.018 0.014-0.069 0.023-0.035-0.017c-0.069-0.024-0.122-0.044-0.157-0.085l-0.017-0.025 0.035-6e-3c0.052 9e-3 0.121 9e-3 0.156-0.019l0.052-0.06-0.104-0.029-0.052-9e-3 -0.035-6e-3 -0.017-3e-3 -0.087-0.015-0.017-3e-3 -0.018 8e-3c0.053 0.032 0.018 0.084 0.07 0.115l-0.104 6e-3 -0.017-0.015-0.035-0.017-0.035-0.04-0.069-0.012-0.104-0.041c-0.051-0.02-0.086-0.037-0.138-0.046l-0.086 0.019-0.088 0.078-0.016 0.043 0.051 0.123 0.018 0.026c0.069 0.047 0.121 0.112 0.225 0.13l0.121 0.078 0.07 0.035 0.034 6e-3 0.086 0.037 0.052 0.032 0.018 0.049 0.069 0.046 0.052-3e-3 0.052 0.02 0.086 0.073 0.07 0.046 0.052 0.032 0.035 0.017c0.068 0.023 0.138 0.07 0.172 0.121l0.122 0.136c0.086 0.026 0.104 0.087 0.139 0.127l0.051 0.054c0.052 0.021 0.07 0.058 0.104 0.087 0.035 0.041 0.086 0.072 0.139 0.104 0.051 0.02 0.086 0.061 0.121 0.1 0.052 0.079 0.121 0.147 0.173 0.225l0.069 0.046c0.052 0.033 0.104 0.076 0.121 0.124l0.018 0.038c0.051 0.043 0.051 0.089 0.069 0.126l0.035 0.086 0.069 0.139v0.011c0.07 0.057 0.121 0.123 0.208 0.162l0.086 0.071 0.052 0.066 0.069 0.036 0.087 0.048c0.035 0.041 0.086 0.073 0.156 0.073l0.018 3e-3c0.086 0.049 0.19 0.067 0.294 0.096l0.017 3e-3c0.069 0.057 0.156 0.06 0.242 0.11 0.035 0.017 0.087 0.015 0.139 0.035 0.086 0.037 0.173 0.018 0.259 0.033l0.018-9e-3c0.052-0.025 0.121-3e-3 0.19-0.014l0.035 0.018h0.069l0.087-0.065 0.052-0.037c0.052-0.014 0.069-0.069 0.139-0.08l0.017-8e-3c0.034-0.075 0.121-0.129 0.156-0.203l0.035-0.052 0.051-0.095 0.017-0.043zm-4.468-4.961c-0.308-0.015-0.609-0.044-0.642-0.05-0.034-5e-3 -0.18-5e-3 -0.187-7e-3l-0.186-0.022 0.293 0.014c0.016-1e-3 0.212-7e-3 0.245-6e-3 0.034 2e-3 -0.075 0.011-0.075 0.011s0.025 7e-3 0.124 0.011c0.099 5e-3 0.366 0.03 0.366 0.03l-0.107-0.025 0.035 2e-3c-0.077-0.021-0.152-0.04-0.23-0.071-0.057-0.022-0.116-0.038-0.178-0.062 0.079 0.023 0.176-4e-3 0.255-0.014-0.023-0.07-0.09-0.038-0.123-0.087-0.093-0.042-0.186-0.058-0.282-0.09l-0.069-0.031-0.012-6e-3 -0.02-7e-3c-0.039-0.012-0.076-9e-3 -0.116-0.016-0.031-6e-3 -0.064-0.013-0.097-0.021l-0.015 0.011-0.041-7e-3 0.02-0.012c-0.072-0.016-0.146-0.031-0.216-0.041-0.056-8e-3 -0.109 1e-3 -0.162-0.019l-0.017-6e-3 -9e-3 1e-3 -7e-3 -8e-3c-0.045-0.017-0.1-0.037-0.153-0.038-0.081 0-0.16 3e-3 -0.241 4e-3l-1e-3 -9e-3 -0.01-0.028-8e-3 -0.047-1e-3 -5e-3c-0.014-0.041-0.024-0.08-0.031-0.117v-4e-3l-4e-3 -0.023-7e-3 -0.042c-8e-3 0.045-2e-3 0.109-0.01 0.146-5e-3 0.029 2e-3 0.078 0.013 0.129-0.013-1e-3 -0.027-3e-3 -0.04-4e-3 -6e-3 -0.039-0.01-0.074-5e-3 -0.093 0.014-0.057-0.01-0.229-0.015-0.267-5e-3 -0.039 0.025-0.033 0.046 0.011l-0.02-0.081h-6e-3l-0.011-0.047-4e-3 -0.026c-9e-3 -0.031-4e-3 -0.077-0.022-0.099l-0.025-0.082-1e-3 -6e-3 -0.011-0.045-1e-3 -0.01-0.021-0.059 8e-3 -0.057-1e-3 -0.012-0.021-0.056c-0.034-0.063-0.041-0.087-0.03-0.139 7e-3 -0.032 6e-3 -0.044 2e-3 -0.058l-4e-3 -5e-3c-5e-3 -0.053-0.033-0.083-0.04-0.134l-0.031-0.07-0.044-0.077-2e-3 -0.011-0.028-0.022-0.011 0.037-0.018-0.052-0.072-0.011-7e-3 -1e-3c-0.018-0.017-0.048-0.023-0.081-0.024 0.015 0.17 0.083 0.572 0.108 0.753 0.029 0.204 0.067 0.324 0.074 0.456 5e-3 0.089 0.01 0.224 9e-3 0.286-2e-3 0-5e-3 0-7e-3 1e-3 -0.01-0.079-0.023-0.239-0.031-0.298-9e-3 -0.065-0.041-0.259-0.059-0.346-0.017-0.086-0.051-0.091-0.056-0.209-6e-3 -0.118-0.037-0.388-0.047-0.46-5e-3 -0.033-0.011-0.109-0.017-0.183h-6e-3c-0.026-0.01-0.06-0.011-0.092-0.013l-0.053-6e-3 -7e-3 -6e-3 -0.01-5e-3c0.022 0.185 0.092 0.763 0.106 0.815 2e-3 0.043 0.061 0.485 0.091 0.721h-3e-3l-0.089-0.619-0.129-0.925-0.054-0.012-0.041-7e-3 0.061 0.6s-0.052-0.415-0.085-0.599l-7e-3 -1e-3h-2e-3c0.012 0.085 0.033 0.198 0.027 0.254-6e-3 0.062 3e-3 0.125 9e-3 0.173 7e-3 0.047-0.011 0.133-0.015 0.109-3e-3 -0.024-0.016-0.225-0.028-0.264-0.013-0.038 5e-3 -0.066 0-0.157-2e-3 -0.035-0.013-0.081-0.029-0.125l-0.04-0.012c0.015 0.079 0.04 0.164 0.025 0.192-0.023 0.038-2e-3 -0.011-0.022-0.073-9e-3 -0.031-0.025-0.081-0.039-0.131l-0.056-0.017 2e-3 0.01c0.012 0.06 0.034 0.14 0.038 0.197 5e-3 0.058-4e-3 0.124-0.014 0.109-9e-3 -0.014-0.012-0.086-0.021-0.127-5e-3 -0.019-0.018-0.061-0.035-0.109 3e-3 0.032 6e-3 0.066 9e-3 0.091 8e-3 0.061 0.017 0.265 0.017 0.265s-0.023-0.19-0.047-0.264l-0.061-0.188-0.011 1e-3c0.017 0.077 0.038 0.17 0.049 0.207 0.021 0.069 0.017 0.36 0.017 0.36s-0.025-0.195-0.042-0.264l-0.025-0.106c0 0.044-5e-3 0.084-5e-3 0.084l-0.04 0.032-7e-3 -0.211-7e-3 -0.084-0.017 0.01 4e-3 0.079c2e-3 0.029-0.011-0.015-0.021-0.048l-9e-3 2e-3c6e-3 0.07 0.012 0.221 0.01 0.206l-0.032-0.202-6e-3 8e-3h-7e-3l0.02 0.314-0.058-0.297 2e-3 -1e-3 -1e-3 -0.017h-0.04l-0.029-0.018c-0.018-0.028-0.054-0.039-0.097-0.042h-6e-3l-0.012-9e-3 0.013 0.099c0.049 0.36 0.075 0.727 0.075 0.767 0 0.039 0.031 0.201 0.029 0.21l0.01 0.213-0.043-0.33c-5e-3 -0.019-0.054-0.235-0.06-0.272-5e-3 -0.038 0.031 0.081 0.031 0.081s4e-3 -0.03-0.011-0.142c-0.016-0.111-0.038-0.414-0.038-0.414l-0.011 0.125-0.023-0.189c-0.01-0.075-0.012-0.106-0.021-0.154l-2e-3 -0.013c-0.027-7e-3 -0.058-9e-3 -0.091-9e-3l-0.043 0.011c-0.03 8e-3 -0.054 0.048-0.04 0.075 3e-3 0.031 6e-3 0.062 1e-3 0.087l-2e-3 0.029-5e-3 6e-3 -1e-3 0.04 0.01 0.061 0.011 0.028 4e-3 0.029 4e-3 0.023-5e-3 7e-3 3e-3 0.026 4e-3 0.025-2e-3 0.029 0.017-9e-3 -0.017 0.029 1e-3 4e-3 0.028 0.015-0.027 1e-3v0.013l-2e-3 2e-3 0.041 0.058-0.036-7e-3v5e-3c-5e-3 0.03-1e-3 0.068 3e-3 0.105l2e-3 0.012c0.017 0.042 0.037 0.081 0.025 0.108-0.033-0.017 0.023-0.038-0.027-0.044l2e-3 0.017 1e-3 6e-3 1e-3 0.047-3e-3 3e-3c0.012 0.07 0.036 0.153 9e-3 0.203l4e-3 0.034 0.03 0.032-0.014 0.017v2e-3l-3e-3 4e-3c0.012 0.021 0.012 0.05 0.01 0.083v2e-3 -2e-3l-4e-3 0.046 2e-3 0.01 3e-3 0.026 1e-3 8e-3 9e-3 0.046 5e-3 0.015 3e-3 6e-3 0.04 0.033 7e-3 0.046-0.033-0.024 0.016 0.098 8e-3 0.012 7e-3 0.046 0.013 0.082 8e-3 0.012 5e-3 0.017-8e-3 1e-3 -0.04-4e-3c-0.036-0.011-0.074-0.016-0.116-0.015-0.038-0.015-0.089-3e-3 -0.134-3e-3h-4e-3l-0.04-8e-3c-0.081-0.01-0.161-0.022-0.25-0.013l-0.014 1e-3 -0.036-4e-3h-7e-3l-1e-3 -5e-3 -0.066 4e-3h-0.014c-0.074-0.017-0.158 3e-3 -0.21 0.028h-7e-3c-0.076 8e-3 -0.156 0.046-0.225 0.076h-3e-3c-0.107 0.056-0.24 0.12-0.284 0.244l0.037 0.017h0.012l0.028 0.024 0.037 0.015c0.033 4e-3 0.067 0 0.1 1e-3 0.042 1e-3 0.084 1e-3 0.126 3e-3 0.07 4e-3 0.057-8e-3 0.102 1e-3 0.045 0.01-0.039 0.017-0.069 0.019-0.029 2e-3 -0.049 6e-3 -0.089-4e-3 -0.04-9e-3 -0.115 0-0.14-1e-3l-0.049 0.013 2e-3 0.029-0.016 0.019v0.023h-0.016l-0.014 9e-3c0.048 0.013 0.105 0.01 0.154 0.014 0.043 3e-3 0.097 0.016 0.14 7e-3l0.296 0.023-0.262-0.011-0.332-0.017-1e-3 7e-3 -0.013 0.017 0.023 0.037 0.202 0.024s-0.135-0.011-0.2-9e-3l-2e-3 6e-3 0.083 9e-3 0.059 0.013 0.036 0.021-0.09-0.01c-0.013 5e-3 -0.022-0.011-0.053-0.017l-0.051 9e-3 -1e-3 5e-3h-1e-3l-3e-3 0.016 0.073 5e-3 -0.025 5e-3 -0.066 0.016-7e-3 0.03 0.091-4e-3 0.037 0.021h-0.044l-0.038 0.01 0.031 5e-3 0.09 0.017-0.091 2e-3 -0.074 0.021 1e-3 6e-3 0.08-0.01 0.121 0.027h-0.09l-0.037 4e-3 0.028 0.012 0.01 0.029-0.071-0.018-0.039-6e-3 1e-3 -1e-3 -8e-3 -2e-3 4e-3 0.011 0.043 0.011-0.026 0.014 0.079 0.016-0.084-1e-3v6e-3l0.124 0.024-0.102 6e-3 -1e-3 -2e-3 -0.019-6e-3c-6e-3 0.031-0.041 9e-3 -0.03 0.051l0.039 0.049 0.048 0.024c0.039 0.01 0.08 5e-3 0.12 0.01 0.033 5e-3 0.07 7e-3 0.103 0.018l0.071 4e-3 0.072 0.016-0.113-8e-3 -0.093 0.01 0.028-0.011s-0.01-6e-3 -0.048-8e-3 -0.141-0.02-0.141-0.02l0.042 0.02-0.013-1e-3c0.03 0.017 0.059 0.033 0.09 0.059l0.064 0.048-0.083 0.014-6e-3 4e-3 -1e-3 8e-3c7e-3 0.03 0.039 0.057 0.059 0.078 0.027 0.03 0.071 0.045 0.103 0.067l0.032 0.032 8e-3 6e-3 0.045 0.012 0.038 0.017 6e-3 -0.01 0.015 6e-3 -7e-3 0.01 0.084 0.033 0.063 0.014 7e-3 6e-3 3e-3 -2e-3 3e-3 7e-3 0.061 0.031c0.037-1e-3 0.073-9e-3 0.111-9e-3l0.052 0.011 0.058-7e-3c0.037 7e-3 0.074 0.013 0.113 0.017l0.066 0.017 0.016 5e-3c0.049 0.013 0.097 0.031 0.151 0.034l0.08 0.011 0.05 3e-3h7e-3c0.057 0.012 0.123 0.015 0.178 0.011h4e-3c0.035 0.017 0.078-1e-3 0.103 5e-3h0.011l0.069 1e-3c0 3e-3 1e-3 7e-3 2e-3 0.01l6e-3 0.012c-2e-3 0.114-8e-3 0.228 1e-3 0.358 2e-3 0.032-1e-3 0.079 0.015 0.099l1e-3 6e-3c0.012 0.168 0.042 0.391 0.076 0.566 7e-3 0.038 0.023 0.09 0.044 0.123 0.014 0.022 0.05 0.04 0.08 0.071l0.049 0.064 0.061 0.03c0.061 0.044 0.112 0.135 0.177 0.131h0.013l0.041 0.018c0.032-3e-3 0.046-0.02 0.064-0.034l0.037 0.035 0.025-0.04c0.075 0.016 0.082 0.056 0.14 0.048 0.036-4e-3 0.056-0.041 0.095-0.039l0.065 0.018h7e-3c0.074 0.011 0.134-9e-3 0.192-0.021 0.049 0.021 0.116 0.094 0.163 0.037l-1e-3 -6e-3h6e-3c0.04-6e-3 0.057 0.013 0.091 0.013h6e-3c0.146 0.026 0.184-0.092 0.281-0.136l-1e-3 -6e-3h6e-3c0.036-0.01 0.065-0.025 0.066-0.063l1e-3 -0.035-9e-3 -0.058-8e-3 -0.012-2e-3 -0.012-9e-3 -0.058-4e-3 -0.064c-4e-3 -0.031 2e-3 -0.052-7e-3 -0.087l-3e-3 -0.018 5e-3 -6e-3c6e-3 -0.035 1e-3 -0.08-7e-3 -0.128l-3e-3 -0.017-0.011-0.07-0.01-0.065-0.019-0.081-1e-3 -6e-3 -0.02-0.088-1e-3 -6e-3 -0.017-0.07-0.01-0.023-0.024-0.076c-6e-3 -0.026-0.018-0.046-0.018-0.076l-0.028-0.053v-6e-3c-0.014-0.042-0.03-0.081-0.056-0.111l-1e-3 -6e-3 -6e-3 -0.026-4e-3 -0.013-3e-3 -0.01-5e-3 -0.016-1e-3 -5e-3 -6e-3 -0.018-1e-3 -5e-3c8e-3 0 0.017-1e-3 0.025-1e-3 -0.01-1e-3 -0.017-1e-3 -0.026-2e-3l-1e-3 -2e-3 0.06 5e-3 0.091-9e-3c0.091-0.022 0.171-0.029 0.242-0.025-0.039-0.011-0.101-0.013-0.136-0.022-0.056-0.015-0.21 8e-3 -0.261 9e-3h-5e-3l-7e-3 -0.032c0.068-1e-3 0.206-0.017 0.249-3e-3 0.048 0.015 0.201 0.013 0.235 0.012 0.035 0 0.026 0.022-0.014 0.033l-0.016 8e-3 0.037 6e-3 0.028-6e-3 0.041-2e-3 0.025-2e-3 0.07-4e-3 0.035-1e-3c0.033-1e-3 0.055-0.013 0.09-0.011l0.072-9e-3 0.025-1e-3 -0.046-0.01c-0.017-0.014 0.02-0.025 0.05-0.017s0.052 0.02 0.11 1e-3c0.059-0.019 0.081-0.023 0.125-0.01l0.028-7e-3h6e-3l0.034-7e-3c0.044-6e-3 0.083-0.017 0.117-0.034l0.042-0.019 0.043-0.013 0.084-0.038 0.021-1e-3c0.019 8e-3 0.043-0.015 0.073-9e-3 0.031 0 0.062 8e-3 0.088 2e-3l-1e-3 -0.012 8e-3 -0.032-0.026-1e-3h-3e-3c-0.031-6e-3 -0.06-0.013-0.082-0.038-0.147-0.012-0.513-0.018-0.675-0.025-0.182-8e-3 -0.292 4e-3 -0.408-9e-3s-0.328-0.042-0.268-0.04c0.061 3e-3 0.225 0.018 0.283 0.02 0.057 3e-3 0.231 6e-3 0.309 5e-3 0.077-1e-3 0.087-0.024 0.19-0.012 0.103 0.013 0.342 0.027 0.406 0.03 0.028 1e-3 0.087 6e-3 0.148 0.012l-0.018-0.058 0.038-0.019 6e-3 -0.028 0.034-2e-3h4e-3l0.044-7e-3c-0.079-4e-3 -0.713-0.041-0.766-0.037-0.052-6e-3 -0.77-0.039-0.769-0.041l0.681 0.026 0.864 0.036 3e-3 -7e-3 0.035-0.019c-0.01-0.033-0.04-0.019-0.055-0.043l-0.524-0.037s0.352 0.019 0.522 0.021l4e-3 -7e-3c-0.075-2e-3 -0.169-4e-3 -0.215-0.015-0.053-0.013-0.108-0.016-0.151-0.017-0.042-2e-3 -0.113-0.027-0.092-0.026 0.021 2e-3 0.197 0.02 0.233 0.016 0.035-4e-3 0.057 0.013 0.136 0.022 0.036 4e-3 0.087 0 0.133-7e-3l4e-3 -6e-3h3e-3l0.01-0.017c-0.075-3e-3 -0.167 7e-3 -0.19-0.01-0.03-0.021 9e-3 1e-3 0.066-5e-3 0.041-4e-3 0.114-0.011 0.172-0.014l0.026-3e-3 8e-3 -0.03c-0.022-3e-3 -0.042-1e-3 -0.072-1e-3 -0.054 0-0.126 5e-3 -0.177 0-0.05-4e-3 -0.107-0.02-0.092-0.025 0.014-5e-3 0.077 3e-3 0.113 2e-3 0.017-1e-3 0.056-5e-3 0.1-0.01l-0.08-6e-3c-0.054-2e-3 -0.233-0.024-0.233-0.024s0.169 9e-3 0.237 2e-3l0.196-0.02v-7e-3c-0.073 2e-3 -0.172 5e-3 -0.21 8e-3 -0.063 6e-3 -0.315-0.037-0.315-0.037s0.173 9e-3 0.236 6e-3l0.095-3e-3c-0.037-7e-3 -0.071-0.016-0.071-0.016l-0.022-0.033 0.184 0.024 0.101 9e-3 -4e-3 2e-3 0.021 2e-3 -8e-3 -0.012c-0.037-8e-3 -0.084-0.013-0.111-0.016-0.044-4e-3 0.105-0.011 0.068-0.013-0.036-2e-3 -0.22-0.024-0.204-0.023l0.22 5e-3 -1e-3 -6e-3 -0.319-0.033 0.267-2e-3v2e-3l0.051 7e-3 0.082-0.015v-5e-3l-8e-3 2e-3 0.012-0.012 9e-3 -0.01 5e-3 -7e-3c-0.044-0.036-0.108-0.065-0.17-0.087m-7.172 3.956v-9.127l13.98 2.499 0.043 9.773z" fill="#ff004f"/>
   </g>
  </g>
 </g>
</svg>
