<?xml version="1.0" encoding="UTF-8" standalone="no"?>
<!-- Created with Inkscape (http://www.inkscape.org/) -->

<svg
   xmlns:dc="http://purl.org/dc/elements/1.1/"
   xmlns:cc="http://creativecommons.org/ns#"
   xmlns:rdf="http://www.w3.org/1999/02/22-rdf-syntax-ns#"
   xmlns:svg="http://www.w3.org/2000/svg"
   xmlns="http://www.w3.org/2000/svg"
   xmlns:sodipodi="http://sodipodi.sourceforge.net/DTD/sodipodi-0.dtd"
   xmlns:inkscape="http://www.inkscape.org/namespaces/inkscape"
   width="1065.6"
   height="254.22115"
   id="svg3106"
   version="1.1"
   inkscape:version="0.92.0 r15299"
   sodipodi:docname="Three.svg"
   viewBox="0 0 999.00002 238.33232">
  <defs
     id="defs3108" />
  <sodipodi:namedview
     id="base"
     pagecolor="#ffffff"
     bordercolor="#666666"
     borderopacity="1.0"
     inkscape:pageopacity="0.0"
     inkscape:pageshadow="2"
     inkscape:zoom="0.56123047"
     inkscape:cx="407.27369"
     inkscape:cy="66.629357"
     inkscape:document-units="px"
     inkscape:current-layer="layer1"
     showgrid="false"
     fit-margin-left="0"
     fit-margin-bottom="0"
     fit-margin-top="0"
     fit-margin-right="0"
     inkscape:window-width="1920"
     inkscape:window-height="1017"
     inkscape:window-x="-8"
     inkscape:window-y="-8"
     inkscape:window-maximized="1" />
  <metadata
     id="metadata3111">
    <rdf:RDF>
      <cc:Work
         rdf:about="">
        <dc:format>image/svg+xml</dc:format>
        <dc:type
           rdf:resource="http://purl.org/dc/dcmitype/StillImage" />
        <dc:title></dc:title>
      </cc:Work>
    </rdf:RDF>
  </metadata>
  <g
     inkscape:label="Layer 1"
     inkscape:groupmode="layer"
     id="layer1"
     transform="translate(-15.895,-379.70186)">
    <path
       style="fill:#ff004f;fill-rule:evenodd"
       inkscape:connector-curvature="0"
       id="path3051"
       d="M 664.98837,436.30829 H 817.70166 V 379.70325 H 664.98837 Z m 0,120.96467 H 817.70166 V 500.66792 H 664.98559 v 56.60504 z m 255.53708,12.05265 V 550.0511 h 86.75405 V 507.17065 H 920.52545 V 489.1647 h 93.10095 V 440.45334 H 862.17893 V 618.03279 H 1014.895 v -48.7044 H 920.52545 Z M 139.1478,439.70501 H 75.309774 v 58.40633 H 15.895 v 58.76798 h 59.413383 v 61.1493 H 139.1478 V 556.8821 h 59.4106 v -58.76798 h -59.40782 v -58.4105 z m 488.39598,63.66693 v -0.51465 c 0,-18.2605 -5.58748,-31.46347 -16.23248,-42.09874 -12.44073,-12.42126 -32.47192,-20.29408 -63.93261,-20.29408 h -86.75406 v 177.56971 h 59.35219 v -50.72824 h 12.67162 l 33.48036,50.72824 h 67.72575 L 592.53058,557.6513 c 21.56681,-10.38768 35.0132,-28.39363 35.0132,-54.27936 z M 355.254,442.36452 h -54.27936 v -62.66266 h -59.36609 v 177.57388 h 59.36609 V 493.59072 H 355.254 v 63.68224 h 59.36331 V 379.70325 H 355.254 v 62.66266 z m 213.18519,65.32774 c 0,10.90511 -8.62951,17.2437 -22.83258,17.2437 h -25.62145 v -34.76004 h 25.86487 c 13.70372,0 22.58916,5.57496 22.58916,16.99473 v 0.52022 z" />
  </g>
</svg>
