<svg height="254.22115" viewBox="0 0 999.00002 238.33232" width="1065.6" xmlns="http://www.w3.org/2000/svg"><path d="m664.98837 436.30829h152.71329v-56.60504h-152.71329zm0 120.96467h152.71329v-56.60504h-152.71607v56.60504zm255.53708 12.05265v-19.27451h86.75405v-42.88045h-86.75405v-18.00595h93.10095v-48.71136h-151.44747v177.57945h152.71607v-48.7044h-94.36955zm-781.37765-129.6206h-63.838026v58.40633h-59.414774v58.76798h59.413383v61.1493h63.839417v-61.14652h59.4106v-58.76798h-59.40782v-58.4105zm488.39598 63.66693v-.51465c0-18.2605-5.58748-31.46347-16.23248-42.09874-12.44073-12.42126-32.47192-20.29408-63.93261-20.29408h-86.75406v177.56971h59.35219v-50.72824h12.67162l33.48036 50.72824h67.72575l-41.32397-60.38288c21.56681-10.38768 35.0132-28.39363 35.0132-54.27936zm-272.28978-61.00742h-54.27936v-62.66266h-59.36609v177.57388h59.36609v-63.68502h54.27936v63.68224h59.36331v-177.56971h-59.36331v62.66266zm213.18519 65.32774c0 10.90511-8.62951 17.2437-22.83258 17.2437h-25.62145v-34.76004h25.86487c13.70372 0 22.58916 5.57496 22.58916 16.99473v.52022z" fill="#ff004f" fill-rule="evenodd" transform="translate(-15.895 -379.70186)"/></svg>