<?xml version="1.0" encoding="UTF-8" standalone="no"?>
<!-- Created with Inkscape (http://www.inkscape.org/) -->

<svg
   xmlns:dc="http://purl.org/dc/elements/1.1/"
   xmlns:cc="http://creativecommons.org/ns#"
   xmlns:rdf="http://www.w3.org/1999/02/22-rdf-syntax-ns#"
   xmlns:svg="http://www.w3.org/2000/svg"
   xmlns="http://www.w3.org/2000/svg"
   xmlns:sodipodi="http://sodipodi.sourceforge.net/DTD/sodipodi-0.dtd"
   xmlns:inkscape="http://www.inkscape.org/namespaces/inkscape"
   width="13.535764mm"
   height="6.6837273mm"
   viewBox="0 0 47.961368 23.682498"
   id="svg319518"
   version="1.1"
   inkscape:version="0.91 r13725"
   sodipodi:docname="TLC.svg">
  <defs
     id="defs319520">
    <clipPath
       clipPathUnits="userSpaceOnUse"
       id="clipPath70676">
      <path
         d="m 321.505,658.622 42.378,0 0,24.803 -42.378,0 0,-24.803 z"
         id="path70678"
         inkscape:connector-curvature="0" />
    </clipPath>
    <clipPath
       clipPathUnits="userSpaceOnUse"
       id="clipPath70664">
      <path
         d="m 324.353,661.55 39.531,0 0,18.947 -39.531,0 0,-18.947 z"
         id="path70666"
         inkscape:connector-curvature="0" />
    </clipPath>
  </defs>
  <sodipodi:namedview
     id="base"
     pagecolor="#ffffff"
     bordercolor="#666666"
     borderopacity="1.0"
     inkscape:pageopacity="0.0"
     inkscape:pageshadow="2"
     inkscape:zoom="15.839192"
     inkscape:cx="34.073942"
     inkscape:cy="3.3004584"
     inkscape:document-units="px"
     inkscape:current-layer="layer1"
     showgrid="false"
     fit-margin-top="0"
     fit-margin-left="0"
     fit-margin-right="0"
     fit-margin-bottom="0"
     inkscape:window-width="1920"
     inkscape:window-height="1017"
     inkscape:window-x="-8"
     inkscape:window-y="-8"
     inkscape:window-maximized="1" />
  <metadata
     id="metadata319523">
    <rdf:RDF>
      <cc:Work
         rdf:about="">
        <dc:format>image/svg+xml</dc:format>
        <dc:type
           rdf:resource="http://purl.org/dc/dcmitype/StillImage" />
        <dc:title></dc:title>
      </cc:Work>
    </rdf:RDF>
  </metadata>
  <g
     inkscape:label="Layer 1"
     inkscape:groupmode="layer"
     id="layer1"
     transform="translate(-235.28963,-594.80663)">
    <path
       inkscape:connector-curvature="0"
       id="path70670"
       style="fill:#961a1f;fill-opacity:1;fill-rule:nonzero;stroke:none"
       d="m 250.37838,616.85163 c 0,0.90125 -0.7375,1.6375 -1.6375,1.6375 l -11.81375,0 c -0.90125,0 -1.6375,-0.73625 -1.6375,-1.6375 l 0,-20.4075 c 0,-0.90125 0.73625,-1.6375 1.6375,-1.6375 l 11.81375,0 c 0.9,0 1.6375,0.73625 1.6375,1.6375 l 0,20.4075" />
    <path
       inkscape:connector-curvature="0"
       id="path70682"
       style="fill:#961a1f;fill-opacity:1;fill-rule:nonzero;stroke:none"
       d="m 266.81488,616.85163 c 0,0.90125 -0.7375,1.6375 -1.6375,1.6375 l -11.81375,0 c -0.90125,0 -1.6375,-0.73625 -1.6375,-1.6375 l 0,-20.4075 c 0,-0.90125 0.73625,-1.6375 1.6375,-1.6375 l 11.81375,0 c 0.9,0 1.6375,0.73625 1.6375,1.6375 l 0,20.4075" />
    <path
       inkscape:connector-curvature="0"
       id="path70686"
       style="fill:#961a1f;fill-opacity:1;fill-rule:nonzero;stroke:none"
       d="m 283.251,616.85163 c 0,0.90125 -0.7375,1.6375 -1.6375,1.6375 l -11.81375,0 c -0.90125,0 -1.6375,-0.73625 -1.6375,-1.6375 l 0,-20.4075 c 0,-0.90125 0.73625,-1.6375 1.6375,-1.6375 l 11.81375,0 c 0.9,0 1.6375,0.73625 1.6375,1.6375 l 0,20.4075" />
    <path
       inkscape:connector-curvature="0"
       id="path70690"
       style="fill:#ffffff;fill-opacity:1;fill-rule:nonzero;stroke:none"
       d="m 247.59763,601.42813 -0.002,-0.0125 -0.002,-0.0113 -0.003,-0.0112 -0.005,-0.0113 -0.004,-0.0113 c -0.015,-0.0312 -0.04,-0.0588 -0.0687,-0.0775 l -0.01,-0.006 -0.0113,-0.005 -0.01,-0.005 -0.0112,-0.004 -0.0113,-0.004 -0.0125,-0.002 -0.0113,-0.003 -0.0125,-0.001 -0.0125,0 -8.97125,-0.008 -0.0125,10e-4 -0.0125,0 -0.0113,0.002 -0.0125,0.003 -0.0112,0.004 -0.0113,0.004 c -0.0288,0.0125 -0.0537,0.0312 -0.0737,0.055 l -0.007,0.009 -0.006,0.01 -0.006,0.01 -0.005,0.01 -0.005,0.0113 -0.004,0.0113 -0.004,0.0113 -0.002,0.0125 -0.002,0.0112 -0.001,0.0125 0,0.0125 0,1.73875 0,0.0125 0.001,0.0125 0.002,0.0125 0.002,0.0112 0.004,0.0113 0.004,0.0113 c 0.0125,0.0325 0.035,0.0612 0.0637,0.0825 l 0.01,0.006 0.01,0.006 0.01,0.005 0.01,0.005 0.0113,0.004 0.0112,0.004 0.0125,0.003 0.0113,0.002 0.0125,10e-4 0.0125,0 2.64375,0 0.0525,0.003 0.0513,0.005 0.0512,0.007 0.05,0.0113 0.0475,0.015 c 0.1575,0.0525 0.29625,0.15625 0.395,0.29 l 0.0275,0.0412 0.025,0.0425 0.0225,0.045 0.02,0.0462 0.0175,0.0475 0.015,0.0488 0.0112,0.05 0.009,0.05 0.005,0.0525 0.001,0.0538 0,8.18375 0,0.0125 0.001,0.0125 0.002,0.0125 0.002,0.0113 0.004,0.0125 0.004,0.0113 0.005,0.01 c 0.015,0.0337 0.0375,0.0575 0.0675,0.0788 l 0.01,0.006 0.0112,0.005 0.01,0.005 0.0112,0.004 0.0112,0.004 0.0125,0.003 0.0112,0.002 0.0125,10e-4 0.0125,0 1.76,0 0.0125,0 0.0125,-10e-4 0.0125,-0.002 0.0113,-0.003 0.0112,-0.004 c 0.0325,-0.01 0.0637,-0.0325 0.0863,-0.0588 l 0.006,-0.009 0.007,-0.01 c 0.0325,-0.0538 0.03,-0.0975 0.0288,-0.16 l 0,-8.1275 0.002,-0.0538 0.005,-0.0525 0.008,-0.05 0.001,-0.004 0.01,-0.0462 c 0.0387,-0.14625 0.1175,-0.27875 0.22625,-0.3825 l 0.0375,-0.0338 0.0387,-0.03 c 0.1375,-0.1025 0.3025,-0.15625 0.47375,-0.15625 l 2.58625,0.008 0,0 0.0125,-0.001 c 0.095,-0.006 0.17,-0.0825 0.17625,-0.17625 l 0,-0.0125 0,-1.73875 0,-0.0125 -0.001,-0.0125" />
    <path
       inkscape:connector-curvature="0"
       id="path70694"
       style="fill:#ffffff;fill-opacity:1;fill-rule:nonzero;stroke:none"
       d="m 262.98262,610.61775 -10e-4,-0.0125 -0.003,-0.0125 -0.002,-0.0113 -0.004,-0.0113 c -0.0163,-0.0538 -0.0575,-0.0975 -0.10875,-0.1175 l -0.0113,-0.005 -0.0113,-0.004 -0.0112,-0.002 -0.0125,-10e-4 -0.0125,-10e-4 -0.0112,0 -0.055,0 -0.002,-10e-4 -0.01,-0.006 -0.01,-0.004 c -0.02,-0.009 -0.0475,-0.015 -0.07,-0.0137 l -4.1975,0 -0.0663,-0.002 -0.065,-0.006 -0.0637,-0.01 -0.0625,-0.015 c -0.2975,-0.0775 -0.55,-0.29875 -0.66875,-0.5825 l -0.004,-0.0112 -0.0225,-0.0613 -0.0188,-0.0625 -0.015,-0.0637 -0.01,-0.0663 -0.008,-0.0675 -0.002,-0.0688 0,-7.9125 0,-0.0125 -10e-4,-0.0125 c -0.004,-0.025 -0.01,-0.0462 -0.0225,-0.0675 l -0.006,-0.0112 -0.006,-0.009 -0.007,-0.01 -0.007,-0.009 -0.007,-0.008 -0.009,-0.009 -0.01,-0.006 -0.01,-0.007 c -0.0163,-0.0113 -0.0337,-0.0188 -0.0537,-0.0238 l -0.0113,-0.002 -0.0125,-0.003 c -0.60125,-0.01 -1.2075,0.004 -1.80875,0 l -0.0125,0.003 -0.0112,0.002 -0.0112,0.004 c -0.0563,0.0188 -0.1025,0.065 -0.12,0.12125 l -0.004,0.0113 -0.003,0.0125 -0.002,0.0112 -0.001,0.0125 0,0.0125 0,8.5425 0.004,0.17 0.01,0.16625 0.0187,0.16125 0.025,0.15875 0.0325,0.15375 0.04,0.14875 c 0.0775,0.26 0.195,0.50875 0.35875,0.725 l 0.045,0.0562 0.0463,0.055 0.0487,0.0538 c 0.33,0.35 0.76375,0.545 1.235,0.62625 l 0.18125,0.025 0.19,0.015 0.19875,0.005 5.055,0 c 0.0113,-0.015 0.0188,-0.0325 0.0275,-0.05 -0.007,0.0175 -0.0162,0.035 -0.0275,0.05 l 10e-4,0 0.0112,0 c 0.0425,-0.003 0.0888,-0.0225 0.1175,-0.0512 l 0.009,-0.009 0.007,-0.009 c 0.0275,-0.0325 0.045,-0.08 0.0437,-0.1225 l 0,-1.725 0,-0.0125" />
    <path
       inkscape:connector-curvature="0"
       id="path70702"
       style="fill:#ffffff;fill-opacity:1;fill-rule:nonzero;stroke:none"
       d="m 280.31562,611.05437 c 0.0637,-0.0812 0.06,-0.1975 -0.015,-0.2725 l -1.22375,-1.225 c -0.0725,-0.0725 -0.185,-0.0788 -0.26625,-0.02 -0.005,0.002 -0.01,0.006 -0.0125,0.009 -0.62,0.56125 -1.43875,0.9025 -2.33625,0.9025 -1.9325,0 -3.49875,-1.57875 -3.49875,-3.5275 0,-1.94875 1.56625,-3.52875 3.49875,-3.52875 0.8925,0 1.70625,0.3375 2.32375,0.89125 0.002,10e-4 0.02,0.0162 0.0288,0.0212 0.0163,0.01 0.03,0.0188 0.0337,0.02 0,0 0.001,0 0.001,0 0.075,0.0337 0.16625,0.02 0.22875,-0.0425 l 1.2225,-1.2225 c 0.08,-0.0812 0.08,-0.21125 0,-0.29125 l -10e-4,0 c 0,0 0,0 0,0 -1.005,-0.9425 -2.3525,-1.52 -3.83375,-1.52 -3.11125,0 -5.63125,2.53875 -5.63125,5.6725 0,3.1325 2.52,5.67125 5.63125,5.67125 1.465,0 2.79875,-0.565 3.8,-1.49 0.0213,-0.0175 0.0475,-0.0437 0.05,-0.0475" />
  </g>
</svg>
