<svg height="6.683727mm" viewBox="0 0 47.961368 23.682498" width="13.535764mm" xmlns="http://www.w3.org/2000/svg"><g transform="translate(-235.28963 -594.80663)"><g fill="#961a1f"><path d="m250.37838 616.85163c0 .90125-.7375 1.6375-1.6375 1.6375h-11.81375c-.90125 0-1.6375-.73625-1.6375-1.6375v-20.4075c0-.90125.73625-1.6375 1.6375-1.6375h11.81375c.9 0 1.6375.73625 1.6375 1.6375z"/><path d="m266.81488 616.85163c0 .90125-.7375 1.6375-1.6375 1.6375h-11.81375c-.90125 0-1.6375-.73625-1.6375-1.6375v-20.4075c0-.90125.73625-1.6375 1.6375-1.6375h11.81375c.9 0 1.6375.73625 1.6375 1.6375z"/><path d="m283.251 616.85163c0 .90125-.7375 1.6375-1.6375 1.6375h-11.81375c-.90125 0-1.6375-.73625-1.6375-1.6375v-20.4075c0-.90125.73625-1.6375 1.6375-1.6375h11.81375c.9 0 1.6375.73625 1.6375 1.6375z"/></g><path d="m247.59763 601.42813-.002-.0125-.002-.0113-.003-.0112-.005-.0113-.004-.0113c-.015-.0312-.04-.0588-.0687-.0775l-.01-.006-.0113-.005-.01-.005-.0112-.004-.0113-.004-.0125-.002-.0113-.003-.0125-.001h-.0125l-8.97125-.008-.0125.001h-.0125l-.0113.002-.0125.003-.0112.004-.0113.004c-.0288.0125-.0537.0312-.0737.055l-.007.009-.006.01-.006.01-.005.01-.005.0113-.004.0113-.004.0113-.002.0125-.002.0112-.001.0125v.0125 1.73875.0125l.001.0125.002.0125.002.0112.004.0113.004.0113c.0125.0325.035.0612.0637.0825l.01.006.01.006.01.005.01.005.0113.004.0112.004.0125.003.0113.002.0125.001h.0125 2.64375l.0525.003.0513.005.0512.007.05.0113.0475.015c.1575.0525.29625.15625.395.29l.0275.0412.025.0425.0225.045.02.0462.0175.0475.015.0488.0112.05.009.05.005.0525.001.0538v8.18375.0125l.001.0125.002.0125.002.0113.004.0125.004.0113.005.01c.015.0337.0375.0575.0675.0788l.01.006.0112.005.01.005.0112.004.0112.004.0125.003.0112.002.0125.001h.0125 1.76.0125l.0125-.001.0125-.002.0113-.003.0112-.004c.0325-.01.0637-.0325.0863-.0588l.006-.009.007-.01c.0325-.0538.03-.0975.0288-.16v-8.1275l.002-.0538.005-.0525.008-.05.001-.004.01-.0462c.0387-.14625.1175-.27875.22625-.3825l.0375-.0338.0387-.03c.1375-.1025.3025-.15625.47375-.15625l2.58625.008.0125-.001c.095-.006.17-.0825.17625-.17625v-.0125-1.73875-.0125l-.001-.0125" fill="#fff"/><path d="m262.98262 610.61775-.001-.0125-.003-.0125-.002-.0113-.004-.0113c-.0163-.0538-.0575-.0975-.10875-.1175l-.0113-.005-.0113-.004-.0112-.002-.0125-.001-.0125-.001h-.0112-.055l-.002-.001-.01-.006-.01-.004c-.02-.009-.0475-.015-.07-.0137h-4.1975l-.0663-.002-.065-.006-.0637-.01-.0625-.015c-.2975-.0775-.55-.29875-.66875-.5825l-.004-.0112-.0225-.0613-.0188-.0625-.015-.0637-.01-.0663-.008-.0675-.002-.0688v-7.9125-.0125l-.001-.0125c-.004-.025-.01-.0462-.0225-.0675l-.006-.0112-.006-.009-.007-.01-.007-.009-.007-.008-.009-.009-.01-.006-.01-.007c-.0163-.0113-.0337-.0188-.0537-.0238l-.0113-.002-.0125-.003c-.60125-.01-1.2075.004-1.80875 0l-.0125.003-.0112.002-.0112.004c-.0563.0188-.1025.065-.12.12125l-.004.0113-.003.0125-.002.0112-.001.0125v.0125 8.5425l.004.17.01.16625.0187.16125.025.15875.0325.15375.04.14875c.0775.26.195.50875.35875.725l.045.0562.0463.055.0487.0538c.33.35.76375.545 1.235.62625l.18125.025.19.015.19875.005h5.055c.0113-.015.0188-.0325.0275-.05-.007.0175-.0162.035-.0275.05h.001.0112c.0425-.003.0888-.0225.1175-.0512l.009-.009.007-.009c.0275-.0325.045-.08.0437-.1225v-1.725-.0125" fill="#fff"/><path d="m280.31562 611.05437c.0637-.0812.06-.1975-.015-.2725l-1.22375-1.225c-.0725-.0725-.185-.0788-.26625-.02-.005.002-.01.006-.0125.009-.62.56125-1.43875.9025-2.33625.9025-1.9325 0-3.49875-1.57875-3.49875-3.5275s1.56625-3.52875 3.49875-3.52875c.8925 0 1.70625.3375 2.32375.89125.002.001.02.0162.0288.0212.0163.01.03.0188.0337.02h.001c.075.0337.16625.02.22875-.0425l1.2225-1.2225c.08-.0812.08-.21125 0-.29125h-.001c-1.005-.9425-2.3525-1.52-3.83375-1.52-3.11125 0-5.63125 2.53875-5.63125 5.6725 0 3.1325 2.52 5.67125 5.63125 5.67125 1.465 0 2.79875-.565 3.8-1.49.0213-.0175.0475-.0437.05-.0475" fill="#fff"/></g></svg>