<?xml version="1.0" encoding="UTF-8"?>
<!-- Created with Inkscape (http://www.inkscape.org/) -->
<svg id="svg319518" width="13.536mm" height="6.6837mm" version="1.1" viewBox="0 0 47.961 23.682" xmlns="http://www.w3.org/2000/svg" xmlns:cc="http://creativecommons.org/ns#" xmlns:dc="http://purl.org/dc/elements/1.1/" xmlns:rdf="http://www.w3.org/1999/02/22-rdf-syntax-ns#">
 <metadata id="metadata319523">
  <rdf:RDF>
   <cc:Work rdf:about="">
    <dc:format>image/svg+xml</dc:format>
    <dc:type rdf:resource="http://purl.org/dc/dcmitype/StillImage"/>
    <dc:title/>
   </cc:Work>
  </rdf:RDF>
 </metadata>
 <g id="layer1" transform="translate(-235.29 -594.81)">
  <path id="path70670" d="m250.38 616.85c0 0.90125-0.7375 1.6375-1.6375 1.6375h-11.814c-0.90125 0-1.6375-0.73625-1.6375-1.6375v-20.408c0-0.90125 0.73625-1.6375 1.6375-1.6375h11.814c0.9 0 1.6375 0.73625 1.6375 1.6375v20.408" fill="#961a1f"/>
  <path id="path70682" d="m266.81 616.85c0 0.90125-0.7375 1.6375-1.6375 1.6375h-11.814c-0.90125 0-1.6375-0.73625-1.6375-1.6375v-20.408c0-0.90125 0.73625-1.6375 1.6375-1.6375h11.814c0.9 0 1.6375 0.73625 1.6375 1.6375v20.408" fill="#961a1f"/>
  <path id="path70686" d="m283.25 616.85c0 0.90125-0.7375 1.6375-1.6375 1.6375h-11.814c-0.90125 0-1.6375-0.73625-1.6375-1.6375v-20.408c0-0.90125 0.73625-1.6375 1.6375-1.6375h11.814c0.9 0 1.6375 0.73625 1.6375 1.6375v20.408" fill="#961a1f"/>
  <path id="path70690" d="m247.6 601.43-2e-3 -0.0125-2e-3 -0.0113-3e-3 -0.0112-5e-3 -0.0113-4e-3 -0.0113c-0.015-0.0312-0.04-0.0588-0.0687-0.0775l-0.01-6e-3 -0.0113-5e-3 -0.01-5e-3 -0.0112-4e-3 -0.0113-4e-3 -0.0125-2e-3 -0.0113-3e-3 -0.0125-1e-3h-0.0125l-8.9712-8e-3 -0.0125 1e-3h-0.0125l-0.0113 2e-3 -0.0125 3e-3 -0.0112 4e-3 -0.0113 4e-3c-0.0288 0.0125-0.0537 0.0312-0.0737 0.055l-7e-3 9e-3 -0.012 0.02-5e-3 0.01-5e-3 0.0113-8e-3 0.0226-2e-3 0.0125-2e-3 0.0112-1e-3 0.0125v0.0125 1.7388 0.0125l1e-3 0.0125 2e-3 0.0125 2e-3 0.0112 8e-3 0.0226c0.0125 0.0325 0.035 0.0612 0.0637 0.0825l0.02 0.012 0.02 0.01 0.0113 4e-3 0.0112 4e-3 0.0125 3e-3 0.0113 2e-3 0.0125 1e-3h0.0125 2.6438l0.0525 3e-3 0.0513 5e-3 0.0512 7e-3 0.05 0.0113 0.0475 0.015c0.1575 0.0525 0.29625 0.15625 0.395 0.29l0.0275 0.0412 0.025 0.0425 0.0225 0.045 0.02 0.0462 0.0175 0.0475 0.015 0.0488 0.0112 0.05 9e-3 0.05 5e-3 0.0525 1e-3 0.0538v8.1838 0.0125l1e-3 0.0125 2e-3 0.0125 2e-3 0.0113 4e-3 0.0125 4e-3 0.0113 5e-3 0.01c0.015 0.0337 0.0375 0.0575 0.0675 0.0788l0.01 6e-3 0.0112 5e-3 0.01 5e-3 0.0224 8e-3 0.0125 3e-3 0.0112 2e-3 0.0125 1e-3h0.0125 1.76 0.0125l0.0125-1e-3 0.0125-2e-3 0.0113-3e-3 0.0112-4e-3c0.0325-0.01 0.0637-0.0325 0.0863-0.0588l6e-3 -9e-3 7e-3 -0.01c0.0325-0.0538 0.03-0.0975 0.0288-0.16v-8.1275l2e-3 -0.0538 5e-3 -0.0525 8e-3 -0.05 1e-3 -4e-3 0.01-0.0462c0.0387-0.14625 0.1175-0.27875 0.22625-0.3825l0.0375-0.0338 0.0387-0.03c0.1375-0.1025 0.3025-0.15625 0.47375-0.15625l2.5862 8e-3 0.0125-1e-3c0.095-6e-3 0.17-0.0825 0.17625-0.17625v-0.0125-1.7388-0.0125l-1e-3 -0.0125" fill="#fff"/>
  <path id="path70694" d="m262.98 610.62-1e-3 -0.0125-3e-3 -0.0125-2e-3 -0.0113-4e-3 -0.0113c-0.0163-0.0538-0.0575-0.0975-0.10875-0.1175l-0.0113-5e-3 -0.0113-4e-3 -0.0112-2e-3 -0.025-2e-3h-0.0112-0.055l-2e-3 -1e-3 -0.01-6e-3 -0.01-4e-3c-0.02-9e-3 -0.0475-0.015-0.07-0.0137h-4.1975l-0.0663-2e-3 -0.065-6e-3 -0.0637-0.01-0.0625-0.015c-0.2975-0.0775-0.55-0.29875-0.66875-0.5825l-4e-3 -0.0112-0.0225-0.0613-0.0188-0.0625-0.015-0.0637-0.01-0.0663-8e-3 -0.0675-2e-3 -0.0688v-7.9125-0.0125l-1e-3 -0.0125c-4e-3 -0.025-0.01-0.0462-0.0225-0.0675l-6e-3 -0.0112-6e-3 -9e-3 -7e-3 -0.01-7e-3 -9e-3 -7e-3 -8e-3 -9e-3 -9e-3 -0.01-6e-3 -0.01-7e-3c-0.0163-0.0113-0.0337-0.0188-0.0537-0.0238l-0.0113-2e-3 -0.0125-3e-3c-0.60125-0.01-1.2075 4e-3 -1.8088 0l-0.0125 3e-3 -0.0112 2e-3 -0.0112 4e-3c-0.0563 0.0188-0.1025 0.065-0.12 0.12125l-4e-3 0.0113-3e-3 0.0125-2e-3 0.0112-1e-3 0.0125v0.0125 8.5425l4e-3 0.17 0.01 0.16625 0.0187 0.16125 0.025 0.15875 0.0325 0.15375 0.04 0.14875c0.0775 0.26 0.195 0.50875 0.35875 0.725l0.045 0.0562 0.0463 0.055 0.0487 0.0538c0.33 0.35 0.76375 0.545 1.235 0.62625l0.18125 0.025 0.19 0.015 0.19875 5e-3h5.055c0.0113-0.015 0.0188-0.0325 0.0275-0.05-7e-3 0.0175-0.0162 0.035-0.0275 0.05h1e-3 0.0112c0.0425-3e-3 0.0888-0.0225 0.1175-0.0512l9e-3 -9e-3 7e-3 -9e-3c0.0275-0.0325 0.045-0.08 0.0437-0.1225v-1.725-0.0125" fill="#fff"/>
  <path id="path70702" d="m280.32 611.05c0.0637-0.0812 0.06-0.1975-0.015-0.2725l-1.2238-1.225c-0.0725-0.0725-0.185-0.0788-0.26625-0.02-5e-3 2e-3 -0.01 6e-3 -0.0125 9e-3 -0.62 0.56125-1.4388 0.9025-2.3362 0.9025-1.9325 0-3.4988-1.5788-3.4988-3.5275s1.5662-3.5288 3.4988-3.5288c0.8925 0 1.7062 0.3375 2.3238 0.89125 2e-3 1e-3 0.02 0.0162 0.0288 0.0212 0.0163 0.01 0.03 0.0188 0.0337 0.02h1e-3c0.075 0.0337 0.16625 0.02 0.22875-0.0425l1.2225-1.2225c0.08-0.0812 0.08-0.21125 0-0.29125h-1e-3c-1.005-0.9425-2.3525-1.52-3.8338-1.52-3.1112 0-5.6312 2.5388-5.6312 5.6725 0 3.1325 2.52 5.6712 5.6312 5.6712 1.465 0 2.7988-0.565 3.8-1.49 0.0213-0.0175 0.0475-0.0437 0.05-0.0475" fill="#fff"/>
 </g>
</svg>
