<?xml version="1.0" encoding="UTF-8" standalone="no"?>
<!-- Created with Inkscape (http://www.inkscape.org/) -->

<svg
   xmlns:dc="http://purl.org/dc/elements/1.1/"
   xmlns:cc="http://creativecommons.org/ns#"
   xmlns:rdf="http://www.w3.org/1999/02/22-rdf-syntax-ns#"
   xmlns:svg="http://www.w3.org/2000/svg"
   xmlns="http://www.w3.org/2000/svg"
   xmlns:sodipodi="http://sodipodi.sourceforge.net/DTD/sodipodi-0.dtd"
   xmlns:inkscape="http://www.inkscape.org/namespaces/inkscape"
   width="18.285496mm"
   height="5.7212458mm"
   viewBox="0 0 64.791127 20.272131"
   id="svg79639"
   version="1.1"
   inkscape:version="0.91 r13725"
   sodipodi:docname="TV3.svg">
  <defs
     id="defs79641">
    <clipPath
       clipPathUnits="userSpaceOnUse"
       id="clipPath72238">
      <path
         d="m 480.614,96.171 82.8,0 0,24.803 -82.8,0 0,-24.803 z"
         id="path72240"
         inkscape:connector-curvature="0" />
    </clipPath>
  </defs>
  <sodipodi:namedview
     id="base"
     pagecolor="#ffffff"
     bordercolor="#666666"
     borderopacity="1.0"
     inkscape:pageopacity="0.0"
     inkscape:pageshadow="2"
     inkscape:zoom="5.6"
     inkscape:cx="101.65789"
     inkscape:cy="13.176308"
     inkscape:document-units="px"
     inkscape:current-layer="layer1"
     showgrid="false"
     fit-margin-top="0"
     fit-margin-left="0"
     fit-margin-right="0"
     fit-margin-bottom="0"
     inkscape:window-width="1920"
     inkscape:window-height="1017"
     inkscape:window-x="-8"
     inkscape:window-y="-8"
     inkscape:window-maximized="1" />
  <metadata
     id="metadata79644">
    <rdf:RDF>
      <cc:Work
         rdf:about="">
        <dc:format>image/svg+xml</dc:format>
        <dc:type
           rdf:resource="http://purl.org/dc/dcmitype/StillImage" />
        <dc:title></dc:title>
      </cc:Work>
    </rdf:RDF>
  </metadata>
  <g
     inkscape:label="Layer 1"
     inkscape:groupmode="layer"
     id="layer1"
     transform="translate(-424.44109,-436.51185)">
    <g
       id="g4216">
      <g
         transform="matrix(1.25,0,0,-1.25,485.19847,443.99648)"
         id="g72242">
        <path
           inkscape:connector-curvature="0"
           id="path72244"
           style="fill:#ffffff;fill-opacity:1;fill-rule:nonzero;stroke:none"
           d="M 0,0 C 0,-0.882 -0.383,-1.674 -0.987,-2.227 -0.383,-2.781 0,-3.573 0,-4.455 l 0,-0.26 c 0,-1.667 -1.357,-3.024 -3.025,-3.024 l -3.6,0 c -1.725,0 -3.023,0.828 -3.023,1.925 l 0,1.131 1.592,0 0,-1.062 c 0.1,-0.13 0.607,-0.403 1.431,-0.403 l 3.6,0 c 0.79,0 1.432,0.644 1.432,1.433 l 0,0.26 c 0,0.789 -0.642,1.432 -1.432,1.432 l -3.372,0 0,1.591 3.372,0 c 0.79,0 1.432,0.643 1.432,1.432 l 0,0.26 c 0,0.789 -0.642,1.431 -1.432,1.431 l -3.6,0 c -0.824,0 -1.331,-0.271 -1.431,-0.4 l 0,-1.062 -1.592,-0.002 0,1.131 c 0,1.097 1.298,1.926 3.023,1.926 l 3.6,0 C -1.357,3.284 0,1.927 0,0.26 L 0,0 Z m -12.99,-10.23 16.217,0 0,16.217 -16.217,0 0,-16.217 z" />
      </g>
      <g
         transform="matrix(1.25,0,0,-1.25,454.06972,436.90235)"
         id="g72246">
        <path
           inkscape:connector-curvature="0"
           id="path72248"
           style="fill:#ffffff;fill-opacity:1;fill-rule:nonzero;stroke:none"
           d="m 0,0 0.071,0.312 -1.436,0 0.152,-0.645 C -0.81,-0.216 -0.406,-0.106 0,0" />
      </g>
      <g
         transform="matrix(1.25,0,0,-1.25,450.0996,438.09635)"
         id="g72250">
        <path
           inkscape:connector-curvature="0"
           id="path72252"
           style="fill:#ffffff;fill-opacity:1;fill-rule:nonzero;stroke:none"
           d="m 0,0 0.048,1.267 -1.645,0 0.438,-1.68 C -0.776,-0.27 -0.389,-0.132 0,0" />
      </g>
      <g
         transform="matrix(1.25,0,0,-1.25,463.25834,438.12623)"
         id="g72254">
        <path
           inkscape:connector-curvature="0"
           id="path72256"
           style="fill:#ffffff;fill-opacity:1;fill-rule:nonzero;stroke:none"
           d="m 0,0 c -0.331,0.205 -0.791,0.491 -0.922,0.574 0.318,0.047 0.576,0.079 0.761,0.099 C -0.14,0.641 0.09,0.277 0.21,0.086 0.14,0.058 0.069,0.03 0,0 m -2.005,-0.978 c -0.45,0.31 -1.262,0.862 -1.549,1.06 0.44,0.098 0.847,0.181 1.22,0.253 0.03,-0.051 0.062,-0.101 0.062,-0.101 0,0 0.371,-0.622 0.612,-1.027 -0.113,-0.059 -0.227,-0.121 -0.345,-0.185 m -1.948,-1.171 c -0.587,0.356 -2.001,1.209 -2.473,1.493 0.512,0.15 1.003,0.283 1.47,0.402 0.003,-0.003 0.006,-0.007 0.006,-0.007 0,0 0.89,-1.178 1.286,-1.7 -0.096,-0.061 -0.193,-0.123 -0.289,-0.188 M -6.065,-3.66 c -0.73,0.382 -3.029,1.585 -3.657,1.913 0.647,0.24 1.276,0.458 1.884,0.655 0.251,-0.262 1.674,-1.733 2.178,-2.256 -0.134,-0.101 -0.27,-0.205 -0.405,-0.312 m -2.11,-1.826 c -0.876,0.447 -4.114,2.105 -4.736,2.422 0.629,0.286 1.248,0.553 1.856,0.8 0.462,-0.404 2.619,-2.292 3.266,-2.859 -0.129,-0.12 -0.257,-0.24 -0.386,-0.363 m 5.538,6.777 C -6.315,0.756 -9.901,-0.386 -13.252,-1.878 l 0,-2.492 c 1.12,-0.885 2.903,-2.29 3.5,-2.761 -0.175,-0.202 -0.349,-0.405 -0.52,-0.616 -0.527,0.218 -1.742,0.718 -2.98,1.229 l 0,-2.38 c 0.599,-0.455 1.104,-0.839 1.386,-1.054 -0.156,-0.244 -0.307,-0.496 -0.453,-0.75 l -0.933,0.364 0,-4.588 16.216,0 0,16.217 -5.601,0 z" />
      </g>
      <g
         transform="matrix(1.25,0,0,-1.25,439.75009,442.70773)"
         id="g72258">
        <path
           inkscape:connector-curvature="0"
           id="path72260"
           style="fill:#ffffff;fill-opacity:1;fill-rule:nonzero;stroke:none"
           d="m 0,0 c 0.4,0.22 0.803,0.436 1.21,0.648 l -0.566,4.308 -2.983,0 L 0,0 Z" />
      </g>
      <g
         transform="matrix(1.25,0,0,-1.25,444.56947,440.29185)"
         id="g72262">
        <path
           inkscape:connector-curvature="0"
           id="path72264"
           style="fill:#ffffff;fill-opacity:1;fill-rule:nonzero;stroke:none"
           d="m 0,0 c 0.038,0.016 0.076,0.032 0.114,0.049 l 0,2.975 -1.394,0 L 0,0 Z" />
      </g>
      <g
         transform="matrix(1.25,0,0,-1.25,431.70984,452.42048)"
         id="g72266">
        <path
           inkscape:connector-curvature="0"
           id="path72268"
           style="fill:#ffffff;fill-opacity:1;fill-rule:nonzero;stroke:none"
           d="m 0,0 7.825,-3.49 2.577,0 0,1.111 -9.59,3.154 C 1.878,1.762 2.968,2.662 4.068,3.487 4.571,3.156 8.248,0.74 10.402,-0.674 l 0,2.39 -5.71,2.231 C 5.658,4.646 6.63,5.285 7.596,5.871 7.781,5.73 9.066,4.754 10.402,3.74 l 0,1.828 C 9.369,5.994 8.554,6.328 8.458,6.367 8.665,6.488 8.876,6.611 9.09,6.738 9.529,6.982 9.967,7.212 10.402,7.435 l 0,1.386 C 3.229,5.318 -2.688,0.329 -5.815,-3.455 l 0,-0.035 2.638,0 C -2.158,-2.229 -1.094,-1.068 0,0" />
      </g>
      <g
         transform="matrix(1.25,0,0,-1.25,425.35997,440.23485)"
         id="g72270">
        <path
           inkscape:connector-curvature="0"
           id="path72272"
           style="fill:#ffffff;fill-opacity:1;fill-rule:nonzero;stroke:none"
           d="m 0,0 3.534,-7.272 c 0.317,0.252 0.643,0.504 0.975,0.757 L 2.971,1.541 c 0.545,0.261 0.765,0.38 1.393,0.64 l 3.402,-6.407 c 0.317,0.205 0.637,0.41 0.961,0.612 l -1.168,6.592 -8.294,0 0,-3.436 C -0.538,-0.33 -0.313,-0.186 0,0" />
      </g>
    </g>
  </g>
</svg>
