<?xml version="1.0" encoding="UTF-8" standalone="no"?>
<!-- Created with Inkscape (http://www.inkscape.org/) -->

<svg
   xmlns:dc="http://purl.org/dc/elements/1.1/"
   xmlns:cc="http://creativecommons.org/ns#"
   xmlns:rdf="http://www.w3.org/1999/02/22-rdf-syntax-ns#"
   xmlns:svg="http://www.w3.org/2000/svg"
   xmlns="http://www.w3.org/2000/svg"
   xmlns:xlink="http://www.w3.org/1999/xlink"
   xmlns:sodipodi="http://sodipodi.sourceforge.net/DTD/sodipodi-0.dtd"
   xmlns:inkscape="http://www.inkscape.org/namespaces/inkscape"
   width="741.80511"
   height="327.271"
   id="svg5207"
   version="1.1"
   inkscape:version="0.91 r13725"
   sodipodi:docname="TVNZ 2 +1.svg"
   inkscape:export-filename="C:\Users\Jasmeet\Desktop\TVNZ 2 Plus 1.png"
   inkscape:export-xdpi="485.95776"
   inkscape:export-ydpi="485.95776">
  <defs
     id="defs5209">
    <linearGradient
       id="SVGID_145_"
       gradientUnits="userSpaceOnUse"
       x1="311.88699"
       y1="498.02249"
       x2="261.10931"
       y2="466.539">
      <stop
         offset="0"
         style="stop-color:#DD4C2F"
         id="stop1319" />
      <stop
         offset="1"
         style="stop-color:#991F21"
         id="stop1321" />
    </linearGradient>
    <clipPath
       id="SVGID_144_">
      <path
         inkscape:connector-curvature="0"
         d="m 286.5,452.4 c -16.5,0 -29.9,13.4 -29.9,29.9 0,16.5 13.4,29.9 29.9,29.9 16.5,0 29.9,-13.4 29.9,-29.9 0,-16.5 -13.4,-29.9 -29.9,-29.9 z m -4.4,49.3 c -9.6,0 -17.4,-7.8 -17.4,-17.4 0,-9.6 7.8,-17.4 17.4,-17.4 9.6,0 17.4,7.8 17.4,17.4 0,9.6 -7.8,17.4 -17.4,17.4 z"
         id="use1316" />
    </clipPath>
    <linearGradient
       id="SVGID_146_"
       gradientUnits="userSpaceOnUse"
       x1="276.4465"
       y1="461.37769"
       x2="307.4588"
       y2="497.4328">
      <stop
         offset="0"
         style="stop-color:#DD4C2F"
         id="stop1326" />
      <stop
         offset="1"
         style="stop-color:#991F21"
         id="stop1328" />
    </linearGradient>
    <clipPath
       id="clipPath5136">
      <path
         inkscape:connector-curvature="0"
         d="m 286.5,452.4 c -16.5,0 -29.9,13.4 -29.9,29.9 0,16.5 13.4,29.9 29.9,29.9 16.5,0 29.9,-13.4 29.9,-29.9 0,-16.5 -13.4,-29.9 -29.9,-29.9 z m -4.4,49.3 c -9.6,0 -17.4,-7.8 -17.4,-17.4 0,-9.6 7.8,-17.4 17.4,-17.4 9.6,0 17.4,7.8 17.4,17.4 0,9.6 -7.8,17.4 -17.4,17.4 z"
         id="use5138" />
    </clipPath>
    <linearGradient
       id="SVGID_147_"
       gradientUnits="userSpaceOnUse"
       x1="273.3085"
       y1="504.90549"
       x2="305.35681"
       y2="472.85721">
      <stop
         offset="0"
         style="stop-color:#DD4C2F"
         id="stop1333" />
      <stop
         offset="1"
         style="stop-color:#991F21"
         id="stop1335" />
    </linearGradient>
    <clipPath
       id="clipPath5143">
      <path
         inkscape:connector-curvature="0"
         d="m 286.5,452.4 c -16.5,0 -29.9,13.4 -29.9,29.9 0,16.5 13.4,29.9 29.9,29.9 16.5,0 29.9,-13.4 29.9,-29.9 0,-16.5 -13.4,-29.9 -29.9,-29.9 z m -4.4,49.3 c -9.6,0 -17.4,-7.8 -17.4,-17.4 0,-9.6 7.8,-17.4 17.4,-17.4 9.6,0 17.4,7.8 17.4,17.4 0,9.6 -7.8,17.4 -17.4,17.4 z"
         id="use5145" />
    </clipPath>
    <linearGradient
       id="SVGID_148_"
       gradientUnits="userSpaceOnUse"
       x1="299.6651"
       y1="497.91901"
       x2="261.12369"
       y2="474.02231">
      <stop
         offset="0"
         style="stop-color:#DD4C2F"
         id="stop1340" />
      <stop
         offset="1"
         style="stop-color:#991F21"
         id="stop1342" />
    </linearGradient>
    <clipPath
       id="clipPath5150">
      <path
         inkscape:connector-curvature="0"
         d="m 286.5,452.4 c -16.5,0 -29.9,13.4 -29.9,29.9 0,16.5 13.4,29.9 29.9,29.9 16.5,0 29.9,-13.4 29.9,-29.9 0,-16.5 -13.4,-29.9 -29.9,-29.9 z m -4.4,49.3 c -9.6,0 -17.4,-7.8 -17.4,-17.4 0,-9.6 7.8,-17.4 17.4,-17.4 9.6,0 17.4,7.8 17.4,17.4 0,9.6 -7.8,17.4 -17.4,17.4 z"
         id="use5152" />
    </clipPath>
    <linearGradient
       id="SVGID_139_"
       gradientUnits="userSpaceOnUse"
       x1="381.89801"
       y1="498.02249"
       x2="331.12021"
       y2="466.539">
      <stop
         offset="0"
         style="stop-color:#BB4897"
         id="stop1279" />
      <stop
         offset="1"
         style="stop-color:#5D2D7C"
         id="stop1281" />
    </linearGradient>
    <clipPath
       id="SVGID_138_">
      <use
         xlink:href="#SVGID_137_"
         style="overflow:visible"
         id="use1276"
         x="0"
         y="0"
         width="1003.5"
         height="592" />
    </clipPath>
    <linearGradient
       id="SVGID_140_"
       gradientUnits="userSpaceOnUse"
       x1="357.8338"
       y1="455.9841"
       x2="366.09341"
       y2="502.82629">
      <stop
         offset="0"
         style="stop-color:#BB4897"
         id="stop1286" />
      <stop
         offset="1"
         style="stop-color:#5D2D7C"
         id="stop1288" />
    </linearGradient>
    <clipPath
       id="clipPath5358">
      <use
         xlink:href="#SVGID_137_"
         style="overflow:visible"
         id="use5360"
         x="0"
         y="0"
         width="1003.5"
         height="592" />
    </clipPath>
    <linearGradient
       id="SVGID_141_"
       gradientUnits="userSpaceOnUse"
       x1="343.31949"
       y1="504.90549"
       x2="375.3678"
       y2="472.85721">
      <stop
         offset="0"
         style="stop-color:#BB4897"
         id="stop1293" />
      <stop
         offset="1"
         style="stop-color:#5D2D7C"
         id="stop1295" />
    </linearGradient>
    <clipPath
       id="clipPath5365">
      <use
         xlink:href="#SVGID_137_"
         style="overflow:visible"
         id="use5367"
         x="0"
         y="0"
         width="1003.5"
         height="592" />
    </clipPath>
    <linearGradient
       id="SVGID_142_"
       gradientUnits="userSpaceOnUse"
       x1="369.67609"
       y1="497.91901"
       x2="331.1347"
       y2="474.02231">
      <stop
         offset="0"
         style="stop-color:#BB4897"
         id="stop1300" />
      <stop
         offset="1"
         style="stop-color:#5D2D7C"
         id="stop1302" />
    </linearGradient>
    <clipPath
       id="clipPath5372">
      <use
         xlink:href="#SVGID_137_"
         style="overflow:visible"
         id="use5374"
         x="0"
         y="0"
         width="1003.5"
         height="592" />
    </clipPath>
  </defs>
  <sodipodi:namedview
     id="base"
     pagecolor="#ffffff"
     bordercolor="#666666"
     borderopacity="1.0"
     inkscape:pageopacity="0.0"
     inkscape:pageshadow="2"
     inkscape:zoom="0.40506722"
     inkscape:cx="-497.86907"
     inkscape:cy="503.20343"
     inkscape:document-units="px"
     inkscape:current-layer="layer1"
     showgrid="false"
     fit-margin-left="0.5"
     fit-margin-bottom="0.5"
     fit-margin-top="0.5"
     fit-margin-right="0.5"
     inkscape:window-width="1920"
     inkscape:window-height="1017"
     inkscape:window-x="-8"
     inkscape:window-y="-8"
     inkscape:window-maximized="1" />
  <metadata
     id="metadata5212">
    <rdf:RDF>
      <cc:Work
         rdf:about="">
        <dc:format>image/svg+xml</dc:format>
        <dc:type
           rdf:resource="http://purl.org/dc/dcmitype/StillImage" />
        <dc:title></dc:title>
      </cc:Work>
    </rdf:RDF>
  </metadata>
  <g
     inkscape:label="Layer 1"
     inkscape:groupmode="layer"
     id="layer1"
     transform="translate(-51.23966,-186.75325)">
    <g
       id="g1018"
       transform="matrix(2.9103176,0,0,2.9103176,-334.26832,-1044.5384)"
       style="fill:#ffffff;fill-opacity:1">
      <g
         id="g1020"
         style="fill:#ffffff;fill-opacity:1">
        <path
           d="m 244.7,490.7 c -0.1,-0.2 -0.4,-0.4 -0.7,-0.4 l -13.7,0 12.5,-13.8 c 1,-1.1 1.5,-2.4 1.5,-3.9 0,-3.2 -2.6,-5.8 -5.8,-5.8 l -22.4,0 c -0.1,0 -0.2,0.1 -0.2,0.2 l 0,4 -0.3,-0.3 c -0.5,-0.5 -1,-1 -1.6,-1.5 -1.5,-1.1 -3.2,-2 -5.2,-2.6 -2,-0.6 -4.1,-0.9 -6.4,-0.9 -2.3,0 -4.4,0.3 -6.4,0.9 -2,0.6 -3.7,1.5 -5.2,2.6 -0.6,0.4 -1.1,0.9 -1.6,1.5 l -0.3,0.3 0,-4 c 0,-0.1 -0.1,-0.2 -0.2,-0.2 l -4.7,0 c -0.1,0 -3.4,-0.1 -5,3.8 -1.6,4 -7.8,17.2 -7.8,17.4 l -0.2,0.3 -0.1,-0.4 c -0.1,-0.1 -5.8,-14.4 -6.9,-17.4 -1,-2.8 -4,-3.8 -4.9,-3.8 l -10.5,0 0,-7.5 c 0,-0.5 -0.4,-0.8 -0.8,-0.8 l -8.4,0 c -0.5,0 -0.8,0.4 -0.8,0.8 l 0,7.5 -5.1,0 c -0.3,0 -0.5,0.1 -0.7,0.4 -0.2,0.2 -0.2,0.5 -0.1,0.8 l 3.4,7.3 c 0.2,0.4 0.6,0.7 1.1,0.7 l 1.4,0 0,12.6 c 0,3.5 1.1,6.4 3.4,8.4 2.2,2.1 5.4,3.2 9.4,3.2 1.4,0 2.8,-0.1 4,-0.4 1.3,-0.3 2.5,-0.6 3.5,-1 0.6,-0.2 1.1,-0.4 1.5,-0.6 0.2,-0.1 0.4,-0.3 0.5,-0.6 0.1,-0.3 0.1,-0.5 0,-0.8 l -2.9,-6.1 c -0.1,-0.2 -0.4,-0.3 -0.6,-0.3 -1.1,0.4 -2.4,0.6 -3.6,0.6 -0.6,0 -1.2,-0.1 -1.8,-0.2 -0.6,-0.1 -1.2,-0.4 -1.6,-0.7 -0.5,-0.4 -0.9,-0.8 -1.2,-1.4 -0.3,-0.6 -0.5,-1.4 -0.5,-2.4 l 0,-10.2 6.6,0 c 0.1,0 0.1,0 0.6,0.9 0.3,0.5 0.6,1.3 1.1,2.2 0.8,1.7 1.9,4 3.3,7 2.4,5.1 5,10.6 6,12.7 0.1,0.3 0.4,0.5 0.7,0.5 l 8.3,0 c 0.3,0 0.6,-0.2 0.7,-0.5 l 10.5,-22.3 -0.1,1 c -0.1,0.6 -0.1,1.3 -0.1,1.9 l 0,19 c 0,0.5 0.4,0.8 0.8,0.8 l 8.1,0 c 0.5,0 0.8,-0.4 0.8,-0.8 l 0,-16.6 c 0,-4.6 2.1,-6.9 6.2,-6.9 2,0 3.5,0.6 4.6,1.7 1.1,1.1 1.6,2.9 1.6,5.2 l 0,16.6 c 0,0.5 0.4,0.8 0.8,0.8 l 31.2,0 c 0.4,0 0.9,-0.3 1,-0.7 l 3.3,-7.1 c 0.2,-0.2 0.2,-0.5 0,-0.7 z m -26.6,-14.7 13.5,0 -13.5,13.9 0,-13.9 z"
           id="path1022"
           inkscape:connector-curvature="0"
           style="fill:#ffffff;fill-opacity:1" />
      </g>
      <linearGradient
         id="SVGID_102_"
         gradientUnits="userSpaceOnUse"
         x1="236.6132"
         y1="421.75369"
         x2="141.36749"
         y2="362.69891">
        <stop
           offset="0"
           style="stop-color:#52F5FF"
           id="stop1025" />
        <stop
           offset="1"
           style="stop-color:#124595"
           id="stop1027" />
      </linearGradient>
      <linearGradient
         id="SVGID_103_"
         gradientUnits="userSpaceOnUse"
         x1="170.1362"
         y1="353.01761"
         x2="228.3071"
         y2="420.64749">
        <stop
           offset="9.139785e-02"
           style="stop-color:#51DAD3"
           id="stop1032" />
        <stop
           offset="0.6237"
           style="stop-color:#33A4FF"
           id="stop1034" />
        <stop
           offset="1"
           style="stop-color:#124595"
           id="stop1036" />
      </linearGradient>
      <linearGradient
         id="SVGID_104_"
         gradientUnits="userSpaceOnUse"
         x1="164.25011"
         y1="434.6644"
         x2="224.3643"
         y2="374.55011">
        <stop
           offset="0"
           style="stop-color:#52F5FF"
           id="stop1041" />
        <stop
           offset="1"
           style="stop-color:#124595"
           id="stop1043" />
      </linearGradient>
      <linearGradient
         id="SVGID_105_"
         gradientUnits="userSpaceOnUse"
         x1="213.6881"
         y1="421.55951"
         x2="141.3945"
         y2="376.7356">
        <stop
           offset="0"
           style="stop-color:#52F5FF"
           id="stop1048" />
        <stop
           offset="0.8441"
           style="stop-color:#124595"
           id="stop1050" />
      </linearGradient>
    </g>
    <path
       inkscape:connector-curvature="0"
       id="path1268"
       d="m 592.94551,386.39859 -50.19554,0 c 4.91043,-6.54724 14.18569,-10.91207 27.82579,-15.82251 15.8225,-6.00164 30.5538,-12.54888 30.5538,-34.37303 0,-22.91535 -15.8225,-36.00984 -45.83071,-36.00984 -28.91699,0 -44.19389,12.54888 -44.19389,29.4626 0,11.45768 17.45931,12.54888 22.91535,12.00328 2.72802,-6.00164 8.72966,-14.1857 19.64173,-14.1857 9.82087,0 15.27691,3.27363 15.27691,10.91208 0,7.63845 -10.91208,9.82086 -24.00657,15.8225 -15.2769,6.54725 -34.37303,18.00493 -34.37303,37.10105 l 0,4.36483 0,2.18242 0,7.63845 c 0,4.91043 3.81923,8.72966 8.72966,8.72966 l 12.00328,0 c 0,0 0,0 0,0 l 62.19882,0 c 4.91043,0 8.72966,-3.81923 8.72966,-8.72966 l 0,-10.36647 c -0.5456,-4.36483 -4.36483,-8.72966 -9.27526,-8.72966 z"
       style="fill:#ffffff;fill-opacity:1" />
    <g
       id="g1270"
       transform="matrix(5.4560368,0,0,5.4560368,-1365.2261,-2281.0578)">
      <defs
         id="defs1272">
        <path
           inkscape:connector-curvature="0"
           d="m 356.5,452.4 c -16.5,0 -29.9,13.4 -29.9,29.9 0,16.5 13.4,29.9 29.9,29.9 16.5,0 29.9,-13.4 29.9,-29.9 0,-16.5 -13.4,-29.9 -29.9,-29.9 z m -4.4,49.3 c -9.6,0 -17.4,-7.8 -17.4,-17.4 0,-9.6 7.8,-17.4 17.4,-17.4 9.6,0 17.4,7.8 17.4,17.4 0,9.6 -7.8,17.4 -17.4,17.4 z"
           id="SVGID_137_" />
      </defs>
      <clipPath
         id="clipPath5397">
        <use
           height="592"
           width="1003.5"
           y="0"
           x="0"
           id="use5399"
           style="overflow:visible"
           xlink:href="#SVGID_137_" />
      </clipPath>
      <linearGradient
         y2="466.539"
         x2="331.12021"
         y1="498.02249"
         x1="381.89801"
         gradientUnits="userSpaceOnUse"
         id="linearGradient5401">
        <stop
           id="stop5403"
           style="stop-color:#BB4897"
           offset="0" />
        <stop
           id="stop5405"
           style="stop-color:#5D2D7C"
           offset="1" />
      </linearGradient>
      <path
         inkscape:connector-curvature="0"
         style="fill:url(#SVGID_139_)"
         clip-path="url(#SVGID_138_)"
         id="path1283"
         d="m 356.5,452.4 c -16.5,0 -29.9,13.4 -29.9,29.9 0,16.5 13.4,29.9 29.9,29.9 16.5,0 29.9,-13.4 29.9,-29.9 0,-16.5 -13.4,-29.9 -29.9,-29.9 z m 0.5,56.1 c -13.9,0 -25.3,-11.3 -25.3,-25.3 0,-13.9 11.3,-25.3 25.3,-25.3 14,0 25.3,11.3 25.3,25.3 0,14 -11.3,25.3 -25.3,25.3 z"
         class="st93" />
      <linearGradient
         y2="502.82629"
         x2="366.09341"
         y1="455.9841"
         x1="357.8338"
         gradientUnits="userSpaceOnUse"
         id="linearGradient5408">
        <stop
           id="stop5410"
           style="stop-color:#BB4897"
           offset="0" />
        <stop
           id="stop5412"
           style="stop-color:#5D2D7C"
           offset="1" />
      </linearGradient>
      <path
         inkscape:connector-curvature="0"
         style="fill:url(#SVGID_140_)"
         clip-path="url(#SVGID_138_)"
         id="path1290"
         d="m 362,455.6 c -13.1,0 -23.8,10.6 -23.8,23.8 0,13.1 10.6,23.8 23.8,23.8 13.2,0 23.8,-10.6 23.8,-23.8 -0.1,-13.1 -10.7,-23.8 -23.8,-23.8 z m 1.1,43.5 c -11.5,0 -20.8,-9.3 -20.8,-20.8 0,-11.5 9.3,-20.8 20.8,-20.8 11.5,0 20.8,9.3 20.8,20.8 0,11.5 -9.3,20.8 -20.8,20.8 z"
         class="st94" />
      <linearGradient
         y2="472.85721"
         x2="375.3678"
         y1="504.90549"
         x1="343.31949"
         gradientUnits="userSpaceOnUse"
         id="linearGradient5415">
        <stop
           id="stop5417"
           style="stop-color:#BB4897"
           offset="0" />
        <stop
           id="stop5419"
           style="stop-color:#5D2D7C"
           offset="1" />
      </linearGradient>
      <path
         inkscape:connector-curvature="0"
         style="fill:url(#SVGID_141_)"
         clip-path="url(#SVGID_138_)"
         id="path1297"
         d="m 359.3,466.2 c -12.5,0 -22.7,10.1 -22.7,22.7 0,12.5 10.1,22.7 22.7,22.7 12.5,0 22.7,-10.1 22.7,-22.7 0,-12.5 -10.1,-22.7 -22.7,-22.7 z m -1.3,41.2 c -10.8,0 -19.6,-8.8 -19.6,-19.6 0,-10.8 8.8,-19.6 19.6,-19.6 10.8,0 19.6,8.8 19.6,19.6 0,10.8 -8.8,19.6 -19.6,19.6 z"
         class="st95" />
      <linearGradient
         y2="474.02231"
         x2="331.1347"
         y1="497.91901"
         x1="369.67609"
         gradientUnits="userSpaceOnUse"
         id="linearGradient5422">
        <stop
           id="stop5424"
           style="stop-color:#BB4897"
           offset="0" />
        <stop
           id="stop5426"
           style="stop-color:#5D2D7C"
           offset="1" />
      </linearGradient>
      <path
         inkscape:connector-curvature="0"
         style="fill:url(#SVGID_142_)"
         clip-path="url(#SVGID_138_)"
         id="path1304"
         d="m 350.4,463.3 c -12.5,0 -22.7,10.2 -22.7,22.7 0,12.5 10.2,22.7 22.7,22.7 12.5,0 22.7,-10.2 22.7,-22.7 0,-12.6 -10.2,-22.7 -22.7,-22.7 z m 1.7,38.4 c -9.6,0 -17.4,-7.8 -17.4,-17.4 0,-9.6 7.8,-17.4 17.4,-17.4 9.6,0 17.4,7.8 17.4,17.4 0,9.6 -7.8,17.4 -17.4,17.4 z"
         class="st96" />
    </g>
    <rect
       style="opacity:1;fill:#000000;fill-opacity:1;stroke:none;stroke-opacity:1"
       id="rect4209"
       width="94.081619"
       height="62.92083"
       x="664.38641"
       y="329.32904" />
    <path
       style="opacity:1;fill:#ffffff;fill-opacity:1"
       inkscape:connector-curvature="0"
       id="path23"
       d="m 739.24095,313.84178 c 11.00005,-0.675 22.43761,1.21294 31.71266,7.43797 11.31255,7.21254 19.25009,19.4876 21.0876,32.78767 1.91251,12.78756 -1.72501,26.28763 -9.90005,36.32518 -8.21254,10.28755 -20.9251,16.86264 -34.08767,17.43765 l -109.50383,0 c 13.10241,-23.45771 15.60552,-52.42334 6.949,-77.67114 -0.23204,-0.67677 -0.47614,-1.34903 -0.727,-2.01803 -0.44108,-1.1763 -0.90777,-2.34253 -1.392,-3.50553 -0.64678,-1.55341 -1.34418,-3.07294 -2.07588,-4.59235 -0.69546,-1.44412 -1.43471,-2.87969 -2.20911,-4.28952 -0.15611,-0.28417 -0.31437,-0.56729 -0.47301,-0.84922 -0.20044,-0.35621 -0.39732,-0.71054 -0.606,-1.06268 m 81.35019,25.10056 6.18753,11.71256 6.22475,-3.15002 0,39.12526 16.42509,0 0,-54.71327 -14.42508,0 -14.41229,7.02547 m -31.84994,0.1125 0,14.38707 -14.61307,0 0,11.58806 14.48784,0 0.12523,14.80007 11.47506,0 0.137,-14.80007 14.86307,0 0,-11.58806 -15.00007,0 0,-14.38707 z"
       sodipodi:nodetypes="ccccccsssssscccccccccccccccccccccc" />
  </g>
</svg>
