<svg height="472.543" width="1000.0001" xmlns="http://www.w3.org/2000/svg" xmlns:xlink="http://www.w3.org/1999/xlink"><linearGradient id="a"><stop offset="0" stop-color="#808285"/><stop offset=".9946" stop-color="#231f20"/></linearGradient><linearGradient id="b" gradientUnits="userSpaceOnUse" x1="451.909" x2="401.1312" xlink:href="#a" y1="498.02249" y2="466.539"/><clipPath id="c"><path d="m426.5 452.4c-16.5 0-29.9 13.4-29.9 29.9s13.4 29.9 29.9 29.9 29.9-13.4 29.9-29.9-13.4-29.9-29.9-29.9zm-4.4 49.3c-9.6 0-17.4-7.8-17.4-17.4s7.8-17.4 17.4-17.4 17.4 7.8 17.4 17.4-7.8 17.4-17.4 17.4z" height="592" transform="" width="1003.5"/></clipPath><linearGradient id="d" gradientUnits="userSpaceOnUse" x1="416.46851" x2="447.48071" xlink:href="#a" y1="461.37769" y2="497.4328"/><linearGradient id="e" gradientUnits="userSpaceOnUse" x1="413.33051" x2="445.37881" xlink:href="#a" y1="504.90549" y2="472.85721"/><linearGradient id="f" gradientUnits="userSpaceOnUse" x1="439.68701" x2="401.1456" xlink:href="#a" y1="497.91901" y2="474.02231"/><g transform="translate(38.754811 -43.936792)"><path d="m244.7 490.7c-.1-.2-.4-.4-.7-.4h-13.7l12.5-13.8c1-1.1 1.5-2.4 1.5-3.9 0-3.2-2.6-5.8-5.8-5.8h-22.4c-.1 0-.2.1-.2.2v4l-.3-.3c-.5-.5-1-1-1.6-1.5-1.5-1.1-3.2-2-5.2-2.6s-4.1-.9-6.4-.9-4.4.3-6.4.9-3.7 1.5-5.2 2.6c-.6.4-1.1.9-1.6 1.5l-.3.3v-4c0-.1-.1-.2-.2-.2h-4.7c-.1 0-3.4-.1-5 3.8-1.6 4-7.8 17.2-7.8 17.4l-.2.3-.1-.4c-.1-.1-5.8-14.4-6.9-17.4-1-2.8-4-3.8-4.9-3.8h-10.5v-7.5c0-.5-.4-.8-.8-.8h-8.4c-.5 0-.8.4-.8.8v7.5h-5.1c-.3 0-.5.1-.7.4-.2.2-.2.5-.1.8l3.4 7.3c.2.4.6.7 1.1.7h1.4v12.6c0 3.5 1.1 6.4 3.4 8.4 2.2 2.1 5.4 3.2 9.4 3.2 1.4 0 2.8-.1 4-.4 1.3-.3 2.5-.6 3.5-1 .6-.2 1.1-.4 1.5-.6.2-.1.4-.3.5-.6s.1-.5 0-.8l-2.9-6.1c-.1-.2-.4-.3-.6-.3-1.1.4-2.4.6-3.6.6-.6 0-1.2-.1-1.8-.2s-1.2-.4-1.6-.7c-.5-.4-.9-.8-1.2-1.4s-.5-1.4-.5-2.4v-10.2h6.6c.1 0 .1 0 .6.9.3.5.6 1.3 1.1 2.2.8 1.7 1.9 4 3.3 7 2.4 5.1 5 10.6 6 12.7.1.3.4.5.7.5h8.3c.3 0 .6-.2.7-.5l10.5-22.3-.1 1c-.1.6-.1 1.3-.1 1.9v19c0 .5.4.8.8.8h8.1c.5 0 .8-.4.8-.8v-16.6c0-4.6 2.1-6.9 6.2-6.9 2 0 3.5.6 4.6 1.7s1.6 2.9 1.6 5.2v16.6c0 .5.4.8.8.8h31.2c.4 0 .9-.3 1-.7l3.3-7.1c.2-.2.2-.5 0-.7zm-26.6-14.7h13.5l-13.5 13.9z" fill="#fff" transform="matrix(4.2061349 0 0 4.2061349 -596.13263 -1735.7809)"/><path d="m771.49721 277.05415c-3.94267-18.9248-14.1936-36.27254-30.75281-46.52347-16.5592-11.03947-37.06107-14.98214-56.7744-14.98214-18.9248 0-37.06107 0-55.98587 0v126.16535h42.5808l-26.0216 38.63814h36.27253c14.98214 0 30.75281-1.57707 44.94641-7.88534 16.5592-6.30826 30.7528-18.9248 38.63814-35.484 9.4624-18.9248 11.03947-40.2152 7.0968-59.92854zm-41.79227 30.7528c-1.57707 10.25094-7.88534 20.50187-17.34774 26.02161-12.61653 7.0968-27.59867 7.0968-41.00374 7.0968 0-29.17574 0-58.35148 0-86.73868 9.4624 0 19.71334 0 29.17574 2.3656 10.25093 2.3656 19.71334 7.88534 25.23307 17.34774 4.7312 9.4624 5.51973 22.07893 3.94267 33.90693z" fill="#fff"/><g transform="matrix(7.8853342 0 0 7.8853342 -2638.1213 -3522.8884)"><path clip-path="url(#c)" d="m426.5 452.4c-16.5 0-29.9 13.4-29.9 29.9s13.4 29.9 29.9 29.9 29.9-13.4 29.9-29.9-13.4-29.9-29.9-29.9zm.5 56.1c-13.9 0-25.3-11.3-25.3-25.3 0-13.9 11.3-25.3 25.3-25.3 13.9 0 25.3 11.3 25.3 25.3s-11.3 25.3-25.3 25.3z" fill="url(#b)"/><path clip-path="url(#c)" d="m432 455.6c-13.1 0-23.8 10.6-23.8 23.8 0 13.1 10.6 23.8 23.8 23.8 13.1 0 23.8-10.6 23.8-23.8 0-13.1-10.7-23.8-23.8-23.8zm1.1 43.5c-11.5 0-20.8-9.3-20.8-20.8s9.3-20.8 20.8-20.8 20.8 9.3 20.8 20.8-9.3 20.8-20.8 20.8z" fill="url(#d)"/><path clip-path="url(#c)" d="m429.4 466.2c-12.5 0-22.7 10.1-22.7 22.7 0 12.5 10.1 22.7 22.7 22.7 12.5 0 22.7-10.1 22.7-22.7-.1-12.5-10.2-22.7-22.7-22.7zm-1.4 41.2c-10.8 0-19.6-8.8-19.6-19.6s8.8-19.6 19.6-19.6 19.6 8.8 19.6 19.6-8.8 19.6-19.6 19.6z" fill="url(#e)"/><path clip-path="url(#c)" d="m420.4 463.3c-12.5 0-22.7 10.2-22.7 22.7s10.2 22.7 22.7 22.7 22.7-10.2 22.7-22.7c0-12.6-10.2-22.7-22.7-22.7zm1.7 38.4c-9.6 0-17.4-7.8-17.4-17.4s7.8-17.4 17.4-17.4 17.4 7.8 17.4 17.4-7.8 17.4-17.4 17.4z" fill="url(#f)"/></g></g></svg>