<?xml version="1.0" encoding="UTF-8"?>
<!-- Created with Inkscape (http://www.inkscape.org/) -->
<svg id="svg5207" width="1e3" height="472.54" version="1.1" xmlns="http://www.w3.org/2000/svg" xmlns:cc="http://creativecommons.org/ns#" xmlns:dc="http://purl.org/dc/elements/1.1/" xmlns:rdf="http://www.w3.org/1999/02/22-rdf-syntax-ns#" xmlns:xlink="http://www.w3.org/1999/xlink">
 <defs id="defs5209">
  <linearGradient id="SVGID_133_" x1="451.91" x2="401.13" y1="498.02" y2="466.54" gradientUnits="userSpaceOnUse">
   <stop id="stop1239" stop-color="#808285" offset="0"/>
   <stop id="stop1241" stop-color="#231F20" offset=".9946"/>
  </linearGradient>
  <clipPath id="SVGID_132_">
   <use id="use1236" width="1003.5" height="592" xlink:href="#SVGID_131_"/>
  </clipPath>
  <linearGradient id="SVGID_134_" x1="416.47" x2="447.48" y1="461.38" y2="497.43" gradientUnits="userSpaceOnUse">
   <stop id="stop1246" stop-color="#808285" offset="0"/>
   <stop id="stop1248" stop-color="#231F20" offset=".9946"/>
  </linearGradient>
  <linearGradient id="SVGID_135_" x1="413.33" x2="445.38" y1="504.91" y2="472.86" gradientUnits="userSpaceOnUse">
   <stop id="stop1253" stop-color="#808285" offset="0"/>
   <stop id="stop1255" stop-color="#231F20" offset=".9946"/>
  </linearGradient>
  <linearGradient id="SVGID_136_" x1="439.69" x2="401.15" y1="497.92" y2="474.02" gradientUnits="userSpaceOnUse">
   <stop id="stop1260" stop-color="#808285" offset="0"/>
   <stop id="stop1262" stop-color="#231F20" offset=".9946"/>
  </linearGradient>
 </defs>
 <metadata id="metadata5212">
  <rdf:RDF>
   <cc:Work rdf:about="">
    <dc:format>image/svg+xml</dc:format>
    <dc:type rdf:resource="http://purl.org/dc/dcmitype/StillImage"/>
    <dc:title/>
   </cc:Work>
  </rdf:RDF>
 </metadata>
 <g id="layer1" transform="translate(38.755 -43.937)">
  <g id="g1018" transform="matrix(4.2061 0 0 4.2061 -596.13 -1735.8)" fill="#fff">
   <g id="g1020" fill="#fff">
    <path id="path1022" d="m244.7 490.7c-0.1-0.2-0.4-0.4-0.7-0.4h-13.7l12.5-13.8c1-1.1 1.5-2.4 1.5-3.9 0-3.2-2.6-5.8-5.8-5.8h-22.4c-0.1 0-0.2 0.1-0.2 0.2v4l-0.3-0.3c-0.5-0.5-1-1-1.6-1.5-1.5-1.1-3.2-2-5.2-2.6s-4.1-0.9-6.4-0.9-4.4 0.3-6.4 0.9-3.7 1.5-5.2 2.6c-0.6 0.4-1.1 0.9-1.6 1.5l-0.3 0.3v-4c0-0.1-0.1-0.2-0.2-0.2h-4.7c-0.1 0-3.4-0.1-5 3.8-1.6 4-7.8 17.2-7.8 17.4l-0.2 0.3-0.1-0.4c-0.1-0.1-5.8-14.4-6.9-17.4-1-2.8-4-3.8-4.9-3.8h-10.5v-7.5c0-0.5-0.4-0.8-0.8-0.8h-8.4c-0.5 0-0.8 0.4-0.8 0.8v7.5h-5.1c-0.3 0-0.5 0.1-0.7 0.4-0.2 0.2-0.2 0.5-0.1 0.8l3.4 7.3c0.2 0.4 0.6 0.7 1.1 0.7h1.4v12.6c0 3.5 1.1 6.4 3.4 8.4 2.2 2.1 5.4 3.2 9.4 3.2 1.4 0 2.8-0.1 4-0.4 1.3-0.3 2.5-0.6 3.5-1 0.6-0.2 1.1-0.4 1.5-0.6 0.2-0.1 0.4-0.3 0.5-0.6s0.1-0.5 0-0.8l-2.9-6.1c-0.1-0.2-0.4-0.3-0.6-0.3-1.1 0.4-2.4 0.6-3.6 0.6-0.6 0-1.2-0.1-1.8-0.2s-1.2-0.4-1.6-0.7c-0.5-0.4-0.9-0.8-1.2-1.4s-0.5-1.4-0.5-2.4v-10.2h6.6c0.1 0 0.1 0 0.6 0.9 0.3 0.5 0.6 1.3 1.1 2.2 0.8 1.7 1.9 4 3.3 7 2.4 5.1 5 10.6 6 12.7 0.1 0.3 0.4 0.5 0.7 0.5h8.3c0.3 0 0.6-0.2 0.7-0.5l10.5-22.3-0.1 1c-0.1 0.6-0.1 1.3-0.1 1.9v19c0 0.5 0.4 0.8 0.8 0.8h8.1c0.5 0 0.8-0.4 0.8-0.8v-16.6c0-4.6 2.1-6.9 6.2-6.9 2 0 3.5 0.6 4.6 1.7s1.6 2.9 1.6 5.2v16.6c0 0.5 0.4 0.8 0.8 0.8h31.2c0.4 0 0.9-0.3 1-0.7l3.3-7.1c0.2-0.2 0.2-0.5 0-0.7zm-26.6-14.7h13.5l-13.5 13.9v-13.9z" fill="#fff"/>
   </g>
  </g>
  <path id="path1228" d="m771.5 277.05c-3.9427-18.925-14.194-36.273-30.753-46.523-16.559-11.039-37.061-14.982-56.774-14.982h-55.986v126.17h42.581l-26.022 38.638h36.273c14.982 0 30.753-1.5771 44.946-7.8853 16.559-6.3083 30.753-18.925 38.638-35.484 9.4624-18.925 11.039-40.215 7.0968-59.929zm-41.792 30.753c-1.5771 10.251-7.8853 20.502-17.348 26.022-12.617 7.0968-27.599 7.0968-41.004 7.0968v-86.739c9.4624 0 19.713 0 29.176 2.3656 10.251 2.3656 19.713 7.8853 25.233 17.348 4.7312 9.4624 5.5197 22.079 3.9427 33.907z" fill="#fff"/>
  <g id="g1230" transform="matrix(7.8853 0 0 7.8853 -2638.1 -3522.9)">
   <defs id="defs1232">
    <path id="SVGID_131_" d="m426.5 452.4c-16.5 0-29.9 13.4-29.9 29.9s13.4 29.9 29.9 29.9 29.9-13.4 29.9-29.9-13.4-29.9-29.9-29.9zm-4.4 49.3c-9.6 0-17.4-7.8-17.4-17.4s7.8-17.4 17.4-17.4 17.4 7.8 17.4 17.4-7.8 17.4-17.4 17.4z"/>
   </defs>
   <clipPath id="clipPath5621">
    <use id="use5623" width="1003.5" height="592" xlink:href="#SVGID_131_"/>
   </clipPath>
   <path id="path1243" class="st89" d="m426.5 452.4c-16.5 0-29.9 13.4-29.9 29.9s13.4 29.9 29.9 29.9 29.9-13.4 29.9-29.9-13.4-29.9-29.9-29.9zm0.5 56.1c-13.9 0-25.3-11.3-25.3-25.3 0-13.9 11.3-25.3 25.3-25.3 13.9 0 25.3 11.3 25.3 25.3s-11.3 25.3-25.3 25.3z" clip-path="url(#SVGID_132_)" fill="url(#SVGID_133_)"/>
   <path id="path1250" class="st90" d="m432 455.6c-13.1 0-23.8 10.6-23.8 23.8 0 13.1 10.6 23.8 23.8 23.8 13.1 0 23.8-10.6 23.8-23.8 0-13.1-10.7-23.8-23.8-23.8zm1.1 43.5c-11.5 0-20.8-9.3-20.8-20.8s9.3-20.8 20.8-20.8 20.8 9.3 20.8 20.8-9.3 20.8-20.8 20.8z" clip-path="url(#SVGID_132_)" fill="url(#SVGID_134_)"/>
   <path id="path1257" class="st91" d="m429.4 466.2c-12.5 0-22.7 10.1-22.7 22.7 0 12.5 10.1 22.7 22.7 22.7 12.5 0 22.7-10.1 22.7-22.7-0.1-12.5-10.2-22.7-22.7-22.7zm-1.4 41.2c-10.8 0-19.6-8.8-19.6-19.6s8.8-19.6 19.6-19.6 19.6 8.8 19.6 19.6-8.8 19.6-19.6 19.6z" clip-path="url(#SVGID_132_)" fill="url(#SVGID_135_)"/>
   <path id="path1264" class="st92" d="m420.4 463.3c-12.5 0-22.7 10.2-22.7 22.7s10.2 22.7 22.7 22.7 22.7-10.2 22.7-22.7c0-12.6-10.2-22.7-22.7-22.7zm1.7 38.4c-9.6 0-17.4-7.8-17.4-17.4s7.8-17.4 17.4-17.4 17.4 7.8 17.4 17.4-7.8 17.4-17.4 17.4z" clip-path="url(#SVGID_132_)" fill="url(#SVGID_136_)"/>
  </g>
 </g>
</svg>
