<?xml version="1.0" encoding="UTF-8"?>
<!-- Created with Inkscape (http://www.inkscape.org/) -->
<svg id="svg5207" width="521" height="760" version="1.1" xmlns="http://www.w3.org/2000/svg" xmlns:cc="http://creativecommons.org/ns#" xmlns:dc="http://purl.org/dc/elements/1.1/" xmlns:rdf="http://www.w3.org/1999/02/22-rdf-syntax-ns#">
 <defs id="defs5209">
  <linearGradient id="linearGradient250" x2="1" gradientTransform="matrix(-29.633,18.373,18.373,29.633,96.214,361.31)" gradientUnits="userSpaceOnUse">
   <stop id="stop246" stop-color="#d94322" offset="0"/>
   <stop id="stop248" stop-color="#9c1f1a" offset="1"/>
  </linearGradient>
  <linearGradient id="linearGradient270" x2="1" gradientTransform="matrix(18.098,-21.041,-21.041,-18.098,75.532,382.69)" gradientUnits="userSpaceOnUse">
   <stop id="stop266" stop-color="#d94322" offset="0"/>
   <stop id="stop268" stop-color="#9c1f1a" offset="1"/>
  </linearGradient>
  <linearGradient id="linearGradient290" x2="1" gradientTransform="matrix(18.703,18.703,18.703,-18.703,73.7,357.29)" gradientUnits="userSpaceOnUse">
   <stop id="stop286" stop-color="#d94322" offset="0"/>
   <stop id="stop288" stop-color="#9c1f1a" offset="1"/>
  </linearGradient>
  <linearGradient id="linearGradient310" x2="1" gradientTransform="matrix(-22.492,13.945,13.945,22.492,89.081,361.37)" gradientUnits="userSpaceOnUse">
   <stop id="stop306" stop-color="#d94322" offset="0"/>
   <stop id="stop308" stop-color="#9c1f1a" offset="1"/>
  </linearGradient>
  <clipPath id="clipPath320">
   <path id="path318" d="m63.967 353.06h40.057v34.861h-40.057z"/>
  </clipPath>
 </defs>
 <metadata id="metadata5212">
  <rdf:RDF>
   <cc:Work rdf:about="">
    <dc:format>image/svg+xml</dc:format>
    <dc:type rdf:resource="http://purl.org/dc/dcmitype/StillImage"/>
    <dc:title/>
   </cc:Work>
  </rdf:RDF>
 </metadata>
 <path id="path1022" d="m520.31 716.36c-0.46429-0.92858-1.8571-1.8571-3.25-1.8571h-63.607l58.036-64.071c4.6429-5.1071 6.9642-11.143 6.9642-18.107 0-14.857-12.071-26.929-26.929-26.929h-104c-0.46428 0-0.92857 0.46429-0.92857 0.92857v18.571l-1.3929-1.3929c-2.3215-2.3215-4.6429-4.6429-7.4286-6.9642-6.9642-5.1071-14.857-9.2857-24.144-12.071-9.2864-2.7858-19.035-4.1786-29.714-4.1786-10.679 0-20.428 1.3929-29.714 4.1786-9.2864 2.7858-17.178 6.9642-24.144 12.071-2.7858 1.8571-5.1071 4.1786-7.4286 6.9642l-1.3929 1.3929v-18.571c0-0.46428-0.46429-0.92857-0.92858-0.92857h-21.821c-0.46429 0-15.786-0.46429-23.215 17.643-7.4286 18.571-36.214 79.857-36.214 80.786l-0.92857 1.3929-0.46429-1.8571c-0.46429-0.46429-26.929-66.857-32.036-80.786-4.6429-13-18.571-17.643-22.749-17.643h-48.75v-34.821c0-2.3215-1.8571-3.7142-3.7142-3.7142h-39.001c-2.3215 0-3.7142 1.8571-3.7142 3.7142v34.821h-23.679c-1.3929 0-2.3215 0.46428-3.25 1.8571-0.92857 0.92858-0.92857 2.3215-0.46429 3.7142l15.786 33.893c0.92857 1.8571 2.7858 3.25 5.1071 3.25h6.5v58.501c0 16.25 5.1071 29.714 15.786 39.001 10.214 9.75 25.072 14.857 43.643 14.857 6.5 0 13-0.46429 18.571-1.8571 6.0358-1.3929 11.607-2.7858 16.25-4.6429 2.7858-0.92857 5.1071-1.8571 6.9642-2.7858 0.92857-0.46429 1.8571-1.3929 2.3215-2.7858 0.46439-1.3929 0.46428-2.3215 0-3.7142l-13.464-28.322c-0.46429-0.92858-1.8571-1.3929-2.7858-1.3929-5.1071 1.8571-11.143 2.7858-16.714 2.7858-2.7858 0-5.5715-0.46429-8.3571-0.92857-2.7856-0.46429-5.5715-1.8571-7.4286-3.25-2.3215-1.8571-4.1786-3.7142-5.5715-6.5-1.3929-2.7858-2.3215-6.5-2.3215-11.143v-47.357h30.643c0.46429 0 0.46429 0 2.7858 4.1786 1.3929 2.3215 2.7858 6.0358 5.1071 10.214 3.7142 7.8929 8.8215 18.571 15.321 32.5 11.143 23.679 23.215 49.214 27.858 58.965 0.46429 1.3929 1.8571 2.3215 3.25 2.3215h38.535c1.3929 0 2.7858-0.92858 3.25-2.3215l48.75-103.54-0.46428 4.6429c-0.46429 2.7858-0.46429 6.0358-0.46429 8.8215v88.215c0 2.3215 1.8571 3.7142 3.7142 3.7142h37.607c2.3215 0 3.7142-1.8571 3.7142-3.7142v-77.072c0-21.357 9.75-32.036 28.786-32.036 9.2857 0 16.25 2.7858 21.357 7.8929s7.4286 13.464 7.4286 24.144v77.072c0 2.3215 1.8571 3.7142 3.7142 3.7142h144.86c1.8571 0 4.1786-1.3929 4.6429-3.25l15.321-32.964c0.92857-0.92858 0.92857-2.3215 0-3.25zm-123.5-68.25h62.679l-62.679 64.536z" fill="#fff" stroke-width="4.6429"/>
 <g id="g4716" transform="matrix(1.5968 0 0 1.5968 -583.59 -.82234)">
  <path id="path232" d="m518.13 116.28c-1.0202-0.21526-2.0964-0.14039-3.1166 0.0936l-37.025 8.6853c-3.3974 1.2073-5.6623 4.4269-5.6529 8.0302 0.0281 7.1129 0.0655 14.965 0.1123 17.595 0.0842 4.455 4.2116 7.74 8.5823 6.8041 8.6759-1.8625 9.5931-2.2556 11.165-2.9949l0.0562 68.322c0 4.9042 3.9776 8.8818 8.8818 8.8818h15.134c4.9042 0 8.8818-3.9776 8.8818-8.8818v-97.85c0-4.2678-3.0043-7.8242-7.0194-8.6853" fill="#fff"/>
  <g id="g234" transform="matrix(9.3591,0,0,-9.3591,-233.21,3631.2)">
   <g id="g236">
    <g id="g242">
     <g id="g244">
      <path id="path252" d="m63.967 370.5c0-9.627 7.804-17.43 17.431-17.43 9.626 0 17.43 7.803 17.43 17.43s-7.804 17.431-17.43 17.431c-9.627 0-17.431-7.804-17.431-17.431m2.981-0.58c0 8.141 6.599 14.74 14.74 14.74 8.14 0 14.739-6.599 14.739-14.74 0-8.14-6.599-14.739-14.739-14.739-8.141 0-14.74 6.599-14.74 14.739" fill="url(#linearGradient250)"/>
     </g>
    </g>
   </g>
  </g>
  <g id="g254" transform="matrix(9.3591,0,0,-9.3591,-233.21,3631.2)">
   <g id="g256">
    <g id="g262">
     <g id="g264">
      <path id="path272" d="m71.27 376.11c0.903 1.003 2.002 1.823 3.237 2.403 2.037 3.845 6.08 6.464 10.735 6.464 6.705 0 12.142-5.436 12.142-12.142s-5.437-12.142-12.142-12.142c-0.342 0-0.681 0.014-1.015 0.041-1.349-0.852-2.912-1.394-4.59-1.529 1.536-0.586 3.202-0.907 4.944-0.907 7.664 0 13.876 6.213 13.876 13.876 0 1.481-0.232 2.906-0.661 4.245-0.553 1.532-1.316 2.964-2.252 4.263-2.539 3.267-6.505 5.369-10.963 5.369-6.297 0-11.614-4.194-13.311-9.941" fill="url(#linearGradient270)"/>
     </g>
    </g>
   </g>
  </g>
  <g id="g274" transform="matrix(9.3591,0,0,-9.3591,-233.21,3631.2)">
   <g id="g276">
    <g id="g282">
     <g id="g284">
      <path id="path292" d="m79.673 379.43c1.048-0.088 2.051-0.335 2.984-0.718 6.125-0.212 11.026-5.244 11.026-11.421 0-6.312-5.118-11.429-11.429-11.429-4.16 0-7.802 2.223-9.8 5.546-0.959 0.771-1.774 1.714-2.4 2.779 1.15-6.131 6.531-10.772 12.998-10.772 7.303 0 13.225 5.921 13.225 13.225s-5.922 13.225-13.225 13.225c-1.167 0-2.3-0.151-3.379-0.435" fill="url(#linearGradient290)"/>
     </g>
    </g>
   </g>
  </g>
  <g id="g294" transform="matrix(9.3591,0,0,-9.3591,-233.21,3631.2)">
   <g id="g296">
    <g id="g302">
     <g id="g304">
      <path id="path312" d="m64.606 368.34c0-7.307 5.923-13.231 13.23-13.231s13.23 5.924 13.23 13.231c0 7.306-5.923 13.23-13.23 13.23s-13.23-5.924-13.23-13.23m4.059 0.977c0 5.606 4.544 10.15 10.149 10.15 5.604 0 10.148-4.544 10.148-10.15 0-5.604-4.544-10.148-10.148-10.148-5.605 0-10.149 4.544-10.149 10.148" fill="url(#linearGradient310)"/>
     </g>
    </g>
   </g>
  </g>
  <g id="g314" transform="matrix(9.3591,0,0,-9.3591,-233.21,3631.2)"></g>
 </g>
</svg>
