<?xml version="1.0" encoding="UTF-8"?>
<!-- Created with Inkscape (http://www.inkscape.org/) -->
<svg id="svg5207" width="741.81" height="327.27" version="1.1" xmlns="http://www.w3.org/2000/svg" xmlns:cc="http://creativecommons.org/ns#" xmlns:dc="http://purl.org/dc/elements/1.1/" xmlns:rdf="http://www.w3.org/1999/02/22-rdf-syntax-ns#">
 <defs id="defs5209">
  <linearGradient id="linearGradient250" x2="1" gradientTransform="matrix(-29.633 18.373 18.373 29.633 96.214 361.31)" gradientUnits="userSpaceOnUse">
   <stop id="stop246" stop-color="#d94322" offset="0"/>
   <stop id="stop248" stop-color="#9c1f1a" offset="1"/>
  </linearGradient>
  <linearGradient id="linearGradient270" x2="1" gradientTransform="matrix(18.098 -21.041 -21.041 -18.098 75.532 382.69)" gradientUnits="userSpaceOnUse">
   <stop id="stop266" stop-color="#d94322" offset="0"/>
   <stop id="stop268" stop-color="#9c1f1a" offset="1"/>
  </linearGradient>
  <linearGradient id="linearGradient290" x2="1" gradientTransform="matrix(18.703 18.703 18.703 -18.703 73.7 357.29)" gradientUnits="userSpaceOnUse">
   <stop id="stop286" stop-color="#d94322" offset="0"/>
   <stop id="stop288" stop-color="#9c1f1a" offset="1"/>
  </linearGradient>
  <linearGradient id="linearGradient310" x2="1" gradientTransform="matrix(-22.492 13.945 13.945 22.492 89.081 361.37)" gradientUnits="userSpaceOnUse">
   <stop id="stop306" stop-color="#d94322" offset="0"/>
   <stop id="stop308" stop-color="#9c1f1a" offset="1"/>
  </linearGradient>
  <clipPath id="clipPath320">
   <path id="path318" d="m63.967 353.06h40.057v34.861h-40.057z"/>
  </clipPath>
 </defs>
 <metadata id="metadata5212">
  <rdf:RDF>
   <cc:Work rdf:about="">
    <dc:format>image/svg+xml</dc:format>
    <dc:type rdf:resource="http://purl.org/dc/dcmitype/StillImage"/>
    <dc:title/>
   </cc:Work>
  </rdf:RDF>
 </metadata>
 <path id="path1022" d="m326.64 196.8c-0.29103-0.58206-1.1641-1.1641-2.0372-1.1641h-39.871l36.379-40.162c2.9103-3.2013 4.3654-6.9847 4.3654-11.35 0-9.313-7.5668-16.88-16.88-16.88h-65.191c-0.29103 0-0.58206 0.29103-0.58206 0.58206v11.641l-0.87309-0.87309c-1.4552-1.4552-2.9103-2.9103-4.6565-4.3654-4.3654-3.2013-9.313-5.8206-15.134-7.5668s-11.932-2.6193-18.626-2.6193-12.805 0.87309-18.626 2.6193-10.768 4.3654-15.134 7.5668c-1.7462 1.1641-3.2013 2.6193-4.6565 4.3654l-0.87309 0.87309v-11.641c0-0.29103-0.29103-0.58206-0.58206-0.58206h-13.678c-0.29103 0-9.895-0.29103-14.552 11.059-4.6565 11.641-22.7 50.057-22.7 50.639l-0.58206 0.87309-0.29103-1.1641c-0.29103-0.29103-16.88-41.908-20.081-50.639-2.9103-8.1488-11.641-11.059-14.26-11.059h-30.558v-21.827c0-1.4552-1.1641-2.3282-2.3282-2.3282h-24.447c-1.4552 0-2.3282 1.1641-2.3282 2.3282v21.827h-14.843c-0.87309 0-1.4552 0.29103-2.0372 1.1641-0.58206 0.58206-0.58206 1.4552-0.29103 2.3282l9.895 21.245c0.58206 1.1641 1.7462 2.0372 3.2013 2.0372h4.0744v36.67c0 10.186 3.2013 18.626 9.895 24.447 6.4027 6.1116 15.716 9.313 27.357 9.313 4.0744 0 8.1488-0.29103 11.641-1.1641 3.7834-0.87309 7.2758-1.7462 10.186-2.9103 1.7462-0.58206 3.2013-1.1641 4.3654-1.7462 0.58206-0.29103 1.1641-0.87309 1.4552-1.7462s0.29103-1.4552 0-2.3282l-8.4399-17.753c-0.29103-0.58206-1.1641-0.87309-1.7462-0.87309-3.2013 1.1641-6.9847 1.7462-10.477 1.7462-1.7462 0-3.4924-0.29103-5.2385-0.58206s-3.4924-1.1641-4.6565-2.0372c-1.4552-1.1641-2.6193-2.3282-3.4924-4.0744s-1.4552-4.0744-1.4552-6.9847v-29.685h19.208c0.29103 0 0.29103 0 1.7462 2.6193 0.87309 1.4552 1.7462 3.7834 3.2013 6.4027 2.3282 4.9475 5.5296 11.641 9.604 20.372 6.9847 14.843 14.552 30.849 17.462 36.961 0.29103 0.87309 1.1641 1.4552 2.0372 1.4552h24.155c0.87309 0 1.7462-0.58206 2.0372-1.4552l30.558-64.9-0.29103 2.9103c-0.29103 1.7462-0.29103 3.7834-0.29103 5.5296v55.296c0 1.4552 1.1641 2.3282 2.3282 2.3282h23.573c1.4552 0 2.3282-1.1641 2.3282-2.3282v-48.311c0-13.387 6.1116-20.081 18.044-20.081 5.8206 0 10.186 1.7462 13.387 4.9475s4.6565 8.4399 4.6565 15.134v48.311c0 1.4552 1.1641 2.3282 2.3282 2.3282h90.801c1.1641 0 2.6193-0.87309 2.9103-2.0372l9.604-20.663c0.58206-0.58206 0.58206-1.4552 0-2.0372zm-77.414-42.781h39.289l-39.289 40.453z" fill="#fff" stroke-width="2.9103"/>
 <g id="g4716">
  <path id="path232" d="m518.13 116.28c-1.0202-0.21526-2.0964-0.14039-3.1166 0.0936l-37.025 8.6853c-3.3974 1.2073-5.6623 4.4269-5.6529 8.0302 0.0281 7.1129 0.0655 14.965 0.1123 17.595 0.0842 4.455 4.2116 7.74 8.5823 6.8041 8.6759-1.8625 9.5931-2.2556 11.165-2.9949l0.0562 68.322c0 4.9042 3.9776 8.8818 8.8818 8.8818h15.134c4.9042 0 8.8818-3.9776 8.8818-8.8818v-97.85c0-4.2678-3.0043-7.8242-7.0194-8.6853" fill="#fff"/>
  <g id="g234" transform="matrix(9.3591 0 0 -9.3591 -233.21 3631.2)">
   <g id="g236">
    <g id="g242">
     <g id="g244">
      <path id="path252" d="m63.967 370.5c0-9.627 7.804-17.43 17.431-17.43 9.626 0 17.43 7.803 17.43 17.43s-7.804 17.431-17.43 17.431c-9.627 0-17.431-7.804-17.431-17.431m2.981-0.58c0 8.141 6.599 14.74 14.74 14.74 8.14 0 14.739-6.599 14.739-14.74 0-8.14-6.599-14.739-14.739-14.739-8.141 0-14.74 6.599-14.74 14.739" fill="url(#linearGradient250)"/>
     </g>
    </g>
   </g>
  </g>
  <g id="g254" transform="matrix(9.3591 0 0 -9.3591 -233.21 3631.2)">
   <g id="g256">
    <g id="g262">
     <g id="g264">
      <path id="path272" d="m71.27 376.11c0.903 1.003 2.002 1.823 3.237 2.403 2.037 3.845 6.08 6.464 10.735 6.464 6.705 0 12.142-5.436 12.142-12.142s-5.437-12.142-12.142-12.142c-0.342 0-0.681 0.014-1.015 0.041-1.349-0.852-2.912-1.394-4.59-1.529 1.536-0.586 3.202-0.907 4.944-0.907 7.664 0 13.876 6.213 13.876 13.876 0 1.481-0.232 2.906-0.661 4.245-0.553 1.532-1.316 2.964-2.252 4.263-2.539 3.267-6.505 5.369-10.963 5.369-6.297 0-11.614-4.194-13.311-9.941" fill="url(#linearGradient270)"/>
     </g>
    </g>
   </g>
  </g>
  <g id="g274" transform="matrix(9.3591 0 0 -9.3591 -233.21 3631.2)">
   <g id="g276">
    <g id="g282">
     <g id="g284">
      <path id="path292" d="m79.673 379.43c1.048-0.088 2.051-0.335 2.984-0.718 6.125-0.212 11.026-5.244 11.026-11.421 0-6.312-5.118-11.429-11.429-11.429-4.16 0-7.802 2.223-9.8 5.546-0.959 0.771-1.774 1.714-2.4 2.779 1.15-6.131 6.531-10.772 12.998-10.772 7.303 0 13.225 5.921 13.225 13.225s-5.922 13.225-13.225 13.225c-1.167 0-2.3-0.151-3.379-0.435" fill="url(#linearGradient290)"/>
     </g>
    </g>
   </g>
  </g>
  <g id="g294" transform="matrix(9.3591 0 0 -9.3591 -233.21 3631.2)">
   <g id="g296">
    <g id="g302">
     <g id="g304">
      <path id="path312" d="m64.606 368.34c0-7.307 5.923-13.231 13.23-13.231s13.23 5.924 13.23 13.231c0 7.306-5.923 13.23-13.23 13.23s-13.23-5.924-13.23-13.23m4.059 0.977c0 5.606 4.544 10.15 10.149 10.15 5.604 0 10.148-4.544 10.148-10.15 0-5.604-4.544-10.148-10.148-10.148-5.605 0-10.149 4.544-10.149 10.148" fill="url(#linearGradient310)"/>
     </g>
    </g>
   </g>
  </g>
  <g id="g314" transform="matrix(9.3591 0 0 -9.3591 -233.21 3631.2)">
   <g id="g316" clip-path="url(#clipPath320)">
    <g id="g322" transform="translate(98.995 374.48)">
     <path id="path324" d="m0 0h-11.445c0.896-1.513 1.412-3.277 1.412-5.163 0-1.775-0.457-3.443-1.258-4.895h11.291c2.777 0 5.029 2.252 5.029 5.029s-2.252 5.029-5.029 5.029" fill="#fff"/>
    </g>
    <g id="g326" transform="translate(95.558 370.23)">
     <path id="path328" d="m0 0h-1.535v1.535c0 0.023-0.018 0.041-0.041 0.041h-1.134c-0.023 0-0.041-0.018-0.041-0.041v-1.535h-1.535c-0.023 0-0.042-0.019-0.042-0.042v-1.133c0-0.023 0.019-0.042 0.042-0.042h1.535v-1.534c0-0.023 0.018-0.042 0.041-0.042h1.134c0.023 0 0.041 0.019 0.041 0.042v1.534h1.535c0.023 0 0.042 0.019 0.042 0.042v1.133c0 0.023-0.019 0.042-0.042 0.042" fill="#1d1d1b"/>
    </g>
    <g id="g330" transform="translate(97.546 372.51)">
     <path id="path332" d="m0 0v1e-3l-1.287-0.678c-0.02-0.01-0.028-0.035-0.017-0.056l0.619-1.176c0.01-0.02 0.036-0.028 0.056-0.017l0.628 0.331v-4.14c0-0.023 0.018-0.041 0.041-0.041h1.654c0.023 0 0.041 0.018 0.041 0.041v5.693c0 0.023-0.018 0.042-0.041 0.042z" fill="#1d1d1b"/>
    </g>
   </g>
  </g>
 </g>
</svg>
