<?xml version="1.0" encoding="UTF-8" standalone="no"?>
<!-- Created with Inkscape (http://www.inkscape.org/) -->

<svg
   xmlns:dc="http://purl.org/dc/elements/1.1/"
   xmlns:cc="http://creativecommons.org/ns#"
   xmlns:rdf="http://www.w3.org/1999/02/22-rdf-syntax-ns#"
   xmlns:svg="http://www.w3.org/2000/svg"
   xmlns="http://www.w3.org/2000/svg"
   xmlns:xlink="http://www.w3.org/1999/xlink"
   xmlns:sodipodi="http://sodipodi.sourceforge.net/DTD/sodipodi-0.dtd"
   xmlns:inkscape="http://www.inkscape.org/namespaces/inkscape"
   width="741.80511"
   height="327.271"
   id="svg5207"
   version="1.1"
   inkscape:version="0.91 r13725"
   sodipodi:docname="TVNZ 1 +1.svg"
   inkscape:export-filename="C:\Users\Jasmeet\Desktop\TVNZ 1 Plus 1.png"
   inkscape:export-xdpi="485.95776"
   inkscape:export-ydpi="485.95776">
  <defs
     id="defs5209">
    <linearGradient
       id="SVGID_145_"
       gradientUnits="userSpaceOnUse"
       x1="311.88699"
       y1="498.02249"
       x2="261.10931"
       y2="466.539">
      <stop
         offset="0"
         style="stop-color:#DD4C2F"
         id="stop1319" />
      <stop
         offset="1"
         style="stop-color:#991F21"
         id="stop1321" />
    </linearGradient>
    <clipPath
       id="SVGID_144_">
      <use
         xlink:href="#SVGID_143_"
         style="overflow:visible"
         id="use1316"
         x="0"
         y="0"
         width="1003.5"
         height="592" />
    </clipPath>
    <linearGradient
       id="SVGID_146_"
       gradientUnits="userSpaceOnUse"
       x1="276.4465"
       y1="461.37769"
       x2="307.4588"
       y2="497.4328">
      <stop
         offset="0"
         style="stop-color:#DD4C2F"
         id="stop1326" />
      <stop
         offset="1"
         style="stop-color:#991F21"
         id="stop1328" />
    </linearGradient>
    <linearGradient
       id="SVGID_147_"
       gradientUnits="userSpaceOnUse"
       x1="273.3085"
       y1="504.90549"
       x2="305.35681"
       y2="472.85721">
      <stop
         offset="0"
         style="stop-color:#DD4C2F"
         id="stop1333" />
      <stop
         offset="1"
         style="stop-color:#991F21"
         id="stop1335" />
    </linearGradient>
    <linearGradient
       id="SVGID_148_"
       gradientUnits="userSpaceOnUse"
       x1="299.6651"
       y1="497.91901"
       x2="261.12369"
       y2="474.02231">
      <stop
         offset="0"
         style="stop-color:#DD4C2F"
         id="stop1340" />
      <stop
         offset="1"
         style="stop-color:#991F21"
         id="stop1342" />
    </linearGradient>
    <linearGradient
       y2="362.69891"
       x2="141.36749"
       y1="421.75369"
       x1="236.6132"
       gradientUnits="userSpaceOnUse"
       id="SVGID_102_">
      <stop
         id="stop1025"
         style="stop-color:#52F5FF"
         offset="0" />
      <stop
         id="stop1027"
         style="stop-color:#124595"
         offset="1" />
    </linearGradient>
    <linearGradient
       y2="420.64749"
       x2="228.3071"
       y1="353.01761"
       x1="170.1362"
       gradientUnits="userSpaceOnUse"
       id="SVGID_103_">
      <stop
         id="stop1032"
         style="stop-color:#51DAD3"
         offset="9.139785e-02" />
      <stop
         id="stop1034"
         style="stop-color:#33A4FF"
         offset="0.6237" />
      <stop
         id="stop1036"
         style="stop-color:#124595"
         offset="1" />
    </linearGradient>
    <linearGradient
       y2="374.55011"
       x2="224.3643"
       y1="434.6644"
       x1="164.25011"
       gradientUnits="userSpaceOnUse"
       id="SVGID_104_">
      <stop
         id="stop1041"
         style="stop-color:#52F5FF"
         offset="0" />
      <stop
         id="stop1043"
         style="stop-color:#124595"
         offset="1" />
    </linearGradient>
    <linearGradient
       y2="376.7356"
       x2="141.3945"
       y1="421.55951"
       x1="213.6881"
       gradientUnits="userSpaceOnUse"
       id="SVGID_105_">
      <stop
         id="stop1048"
         style="stop-color:#52F5FF"
         offset="0" />
      <stop
         id="stop1050"
         style="stop-color:#124595"
         offset="0.8441" />
    </linearGradient>
  </defs>
  <sodipodi:namedview
     id="base"
     pagecolor="#ffffff"
     bordercolor="#666666"
     borderopacity="1.0"
     inkscape:pageopacity="0.0"
     inkscape:pageshadow="2"
     inkscape:zoom="1.4142136"
     inkscape:cx="488.55584"
     inkscape:cy="180.72622"
     inkscape:document-units="px"
     inkscape:current-layer="layer1"
     showgrid="false"
     fit-margin-left="0.5"
     fit-margin-bottom="0.5"
     fit-margin-top="0.5"
     fit-margin-right="0.5"
     inkscape:window-width="1920"
     inkscape:window-height="1017"
     inkscape:window-x="-8"
     inkscape:window-y="-8"
     inkscape:window-maximized="1" />
  <metadata
     id="metadata5212">
    <rdf:RDF>
      <cc:Work
         rdf:about="">
        <dc:format>image/svg+xml</dc:format>
        <dc:type
           rdf:resource="http://purl.org/dc/dcmitype/StillImage" />
        <dc:title></dc:title>
      </cc:Work>
    </rdf:RDF>
  </metadata>
  <g
     inkscape:label="Layer 1"
     inkscape:groupmode="layer"
     id="layer1"
     transform="translate(-22.74131,-265.76575)">
    <g
       style="fill:#ffffff;fill-opacity:1"
       id="g1020"
       transform="matrix(2.9103176,0,0,2.9103176,-362.76667,-965.50618)">
      <path
         style="fill:#ffffff;fill-opacity:1"
         inkscape:connector-curvature="0"
         id="path1022"
         d="m 244.7,490.7 c -0.1,-0.2 -0.4,-0.4 -0.7,-0.4 l -13.7,0 12.5,-13.8 c 1,-1.1 1.5,-2.4 1.5,-3.9 0,-3.2 -2.6,-5.8 -5.8,-5.8 l -22.4,0 c -0.1,0 -0.2,0.1 -0.2,0.2 l 0,4 -0.3,-0.3 c -0.5,-0.5 -1,-1 -1.6,-1.5 -1.5,-1.1 -3.2,-2 -5.2,-2.6 -2,-0.6 -4.1,-0.9 -6.4,-0.9 -2.3,0 -4.4,0.3 -6.4,0.9 -2,0.6 -3.7,1.5 -5.2,2.6 -0.6,0.4 -1.1,0.9 -1.6,1.5 l -0.3,0.3 0,-4 c 0,-0.1 -0.1,-0.2 -0.2,-0.2 l -4.7,0 c -0.1,0 -3.4,-0.1 -5,3.8 -1.6,4 -7.8,17.2 -7.8,17.4 l -0.2,0.3 -0.1,-0.4 c -0.1,-0.1 -5.8,-14.4 -6.9,-17.4 -1,-2.8 -4,-3.8 -4.9,-3.8 l -10.5,0 0,-7.5 c 0,-0.5 -0.4,-0.8 -0.8,-0.8 l -8.4,0 c -0.5,0 -0.8,0.4 -0.8,0.8 l 0,7.5 -5.1,0 c -0.3,0 -0.5,0.1 -0.7,0.4 -0.2,0.2 -0.2,0.5 -0.1,0.8 l 3.4,7.3 c 0.2,0.4 0.6,0.7 1.1,0.7 l 1.4,0 0,12.6 c 0,3.5 1.1,6.4 3.4,8.4 2.2,2.1 5.4,3.2 9.4,3.2 1.4,0 2.8,-0.1 4,-0.4 1.3,-0.3 2.5,-0.6 3.5,-1 0.6,-0.2 1.1,-0.4 1.5,-0.6 0.2,-0.1 0.4,-0.3 0.5,-0.6 0.1,-0.3 0.1,-0.5 0,-0.8 l -2.9,-6.1 c -0.1,-0.2 -0.4,-0.3 -0.6,-0.3 -1.1,0.4 -2.4,0.6 -3.6,0.6 -0.6,0 -1.2,-0.1 -1.8,-0.2 -0.6,-0.1 -1.2,-0.4 -1.6,-0.7 -0.5,-0.4 -0.9,-0.8 -1.2,-1.4 -0.3,-0.6 -0.5,-1.4 -0.5,-2.4 l 0,-10.2 6.6,0 c 0.1,0 0.1,0 0.6,0.9 0.3,0.5 0.6,1.3 1.1,2.2 0.8,1.7 1.9,4 3.3,7 2.4,5.1 5,10.6 6,12.7 0.1,0.3 0.4,0.5 0.7,0.5 l 8.3,0 c 0.3,0 0.6,-0.2 0.7,-0.5 l 10.5,-22.3 -0.1,1 c -0.1,0.6 -0.1,1.3 -0.1,1.9 l 0,19 c 0,0.5 0.4,0.8 0.8,0.8 l 8.1,0 c 0.5,0 0.8,-0.4 0.8,-0.8 l 0,-16.6 c 0,-4.6 2.1,-6.9 6.2,-6.9 2,0 3.5,0.6 4.6,1.7 1.1,1.1 1.6,2.9 1.6,5.2 l 0,16.6 c 0,0.5 0.4,0.8 0.8,0.8 l 31.2,0 c 0.4,0 0.9,-0.3 1,-0.7 l 3.3,-7.1 c 0.2,-0.2 0.2,-0.5 0,-0.7 z m -26.6,-14.7 13.5,0 -13.5,13.9 0,-13.9 z" />
    </g>
    <path
       inkscape:connector-curvature="0"
       id="path1308"
       d="m 540.94657,381.93373 c -1.0912,0 -2.18241,0 -3.27362,0 l -37.10105,8.72966 c -3.27362,1.0912 -5.45604,4.36483 -5.45604,8.18405 0,7.09285 0,14.7313 0,17.45932 0,4.36483 4.36483,7.63845 8.72966,6.54724 8.72966,-1.63681 9.82087,-2.18241 10.91208,-2.72801 l 0,68.20046 c 0,4.91043 3.81922,8.72965 8.72966,8.72965 l 15.2769,0 c 4.91043,0 8.72966,-3.81922 8.72966,-8.72965 l 0,-97.66306 c 0.5456,-4.36483 -2.72802,-7.63845 -6.54725,-8.72966 z"
       style="fill:#ffffff;fill-opacity:1" />
    <g
       id="g1310"
       transform="matrix(5.4560368,0,0,5.4560368,-1011.8415,-2202.0453)">
      <defs
         id="defs1312">
        <path
           inkscape:connector-curvature="0"
           d="m 286.5,452.4 c -16.5,0 -29.9,13.4 -29.9,29.9 0,16.5 13.4,29.9 29.9,29.9 16.5,0 29.9,-13.4 29.9,-29.9 0,-16.5 -13.4,-29.9 -29.9,-29.9 z m -4.4,49.3 c -9.6,0 -17.4,-7.8 -17.4,-17.4 0,-9.6 7.8,-17.4 17.4,-17.4 9.6,0 17.4,7.8 17.4,17.4 0,9.6 -7.8,17.4 -17.4,17.4 z"
           id="SVGID_143_" />
      </defs>
      <clipPath
         id="clipPath5175">
        <use
           height="592"
           width="1003.5"
           y="0"
           x="0"
           id="use5177"
           style="overflow:visible"
           xlink:href="#SVGID_143_" />
      </clipPath>
      <linearGradient
         y2="466.539"
         x2="261.10931"
         y1="498.02249"
         x1="311.88699"
         gradientUnits="userSpaceOnUse"
         id="linearGradient5179">
        <stop
           id="stop5181"
           style="stop-color:#DD4C2F"
           offset="0" />
        <stop
           id="stop5183"
           style="stop-color:#991F21"
           offset="1" />
      </linearGradient>
      <path
         inkscape:connector-curvature="0"
         style="fill:url(#SVGID_145_)"
         clip-path="url(#SVGID_144_)"
         id="path1323"
         d="m 286.5,452.4 c -16.5,0 -29.9,13.4 -29.9,29.9 0,16.5 13.4,29.9 29.9,29.9 16.5,0 29.9,-13.4 29.9,-29.9 0,-16.5 -13.4,-29.9 -29.9,-29.9 z m 0.5,56.1 c -13.9,0 -25.3,-11.3 -25.3,-25.3 0,-13.9 11.3,-25.3 25.3,-25.3 14,0 25.3,11.3 25.3,25.3 0,14 -11.4,25.3 -25.3,25.3 z"
         class="st97" />
      <linearGradient
         y2="497.4328"
         x2="307.4588"
         y1="461.37769"
         x1="276.4465"
         gradientUnits="userSpaceOnUse"
         id="linearGradient5186">
        <stop
           id="stop5188"
           style="stop-color:#DD4C2F"
           offset="0" />
        <stop
           id="stop5190"
           style="stop-color:#991F21"
           offset="1" />
      </linearGradient>
      <path
         inkscape:connector-curvature="0"
         style="fill:url(#SVGID_146_)"
         clip-path="url(#SVGID_144_)"
         id="path1330"
         d="m 292,455.6 c -13.1,0 -23.8,10.6 -23.8,23.8 0,13.2 10.6,23.8 23.8,23.8 13.2,0 23.8,-10.6 23.8,-23.8 0,-13.2 -10.7,-23.8 -23.8,-23.8 z m 1.1,43.5 c -11.5,0 -20.8,-9.3 -20.8,-20.8 0,-11.5 9.3,-20.8 20.8,-20.8 11.5,0 20.8,9.3 20.8,20.8 0,11.5 -9.3,20.8 -20.8,20.8 z"
         class="st98" />
      <linearGradient
         y2="472.85721"
         x2="305.35681"
         y1="504.90549"
         x1="273.3085"
         gradientUnits="userSpaceOnUse"
         id="linearGradient5193">
        <stop
           id="stop5195"
           style="stop-color:#DD4C2F"
           offset="0" />
        <stop
           id="stop5197"
           style="stop-color:#991F21"
           offset="1" />
      </linearGradient>
      <path
         inkscape:connector-curvature="0"
         style="fill:url(#SVGID_147_)"
         clip-path="url(#SVGID_144_)"
         id="path1337"
         d="m 289.3,466.2 c -12.5,0 -22.7,10.1 -22.7,22.7 0,12.5 10.1,22.7 22.7,22.7 12.5,0 22.7,-10.1 22.7,-22.7 0,-12.5 -10.2,-22.7 -22.7,-22.7 z m -1.3,41.2 c -10.8,0 -19.6,-8.8 -19.6,-19.6 0,-10.8 8.8,-19.6 19.6,-19.6 10.8,0 19.6,8.8 19.6,19.6 -0.1,10.8 -8.8,19.6 -19.6,19.6 z"
         class="st99" />
      <linearGradient
         y2="474.02231"
         x2="261.12369"
         y1="497.91901"
         x1="299.6651"
         gradientUnits="userSpaceOnUse"
         id="linearGradient5200">
        <stop
           id="stop5202"
           style="stop-color:#DD4C2F"
           offset="0" />
        <stop
           id="stop5204"
           style="stop-color:#991F21"
           offset="1" />
      </linearGradient>
      <path
         sodipodi:nodetypes="ssssssssss"
         inkscape:connector-curvature="0"
         style="fill:url(#SVGID_148_)"
         clip-path="url(#SVGID_144_)"
         id="path1344"
         d="m 280.4,463.3 c -12.5,0 -22.7,10.2 -22.7,22.7 0,12.5 10.2,22.7 22.7,22.7 12.5,0 22.7,-10.2 22.7,-22.7 0,-12.6 -10.2,-22.7 -22.7,-22.7 z m 1.7,38.4 c -9.6,0 -17.4,-7.8 -17.4,-17.4 0,-9.6 7.8,-17.4 17.4,-17.4 9.6,0 17.39996,7.8 17.39996,17.4 0,9.6 -7.79996,17.4 -17.39996,17.4 z"
         class="st100" />
    </g>
    <rect
       style="opacity:1;fill:#000000;fill-opacity:1;stroke:none;stroke-opacity:1"
       id="rect4209"
       width="94.081619"
       height="62.92083"
       x="635.88812"
       y="408.34143" />
    <g
       id="g4176"
       transform="matrix(1.2500063,0,0,1.2500062,23.982359,110.40978)"
       style="fill:#ffffff;fill-opacity:1">
      <path
         sodipodi:nodetypes="ccccccsssssscccccccccccccccccccccc"
         d="m 549.40542,225.9544 c 8.8,-0.54 17.95,0.97035 25.37,5.95035 9.05,5.77 15.4,15.59 16.87,26.23 1.53,10.23 -1.38,21.03 -7.92,29.06 -6.57,8.23 -16.74,13.49005 -27.27,13.95005 l -87.60262,0 c 10.48187,-18.76607 12.48435,-41.93846 5.55917,-62.1366 -0.18563,-0.54141 -0.38091,-1.07922 -0.5816,-1.61442 -0.35286,-0.94103 -0.72621,-1.87401 -1.11359,-2.80441 -0.51742,-1.24272 -1.07534,-2.45834 -1.6607,-3.67386 -0.55636,-1.15529 -1.14776,-2.30374 -1.76728,-3.4316 -0.12488,-0.22733 -0.25149,-0.45383 -0.3784,-0.67937 -0.16035,-0.28497 -0.31786,-0.56843 -0.4848,-0.85014 m 65.07982,20.08035 4.95,9.37 4.97978,-2.52 0,31.30005 13.14,0 0,-43.7704 -11.54,0 -11.52978,5.62035 m -25.47982,0.09 0,11.5096 -11.6904,0 0,9.2704 11.59022,0 0.10018,11.84 9.18,0 0.1096,-11.84 11.8904,0 0,-9.2704 -12,0 0,-11.5096 z"
         id="path23"
         inkscape:connector-curvature="0"
         style="opacity:1;fill:#ffffff;fill-opacity:1" />
    </g>
  </g>
</svg>
