<svg height="472.55862" width="999.99994" xmlns="http://www.w3.org/2000/svg" xmlns:xlink="http://www.w3.org/1999/xlink"><linearGradient id="a"><stop offset="0" stop-color="#dd4c2f"/><stop offset="1" stop-color="#991f21"/></linearGradient><linearGradient id="b" gradientUnits="userSpaceOnUse" x1="311.88699" x2="261.10931" xlink:href="#a" y1="498.02249" y2="466.539"/><clipPath id="c"><path d="m286.5 452.4c-16.5 0-29.9 13.4-29.9 29.9s13.4 29.9 29.9 29.9 29.9-13.4 29.9-29.9-13.4-29.9-29.9-29.9zm-4.4 49.3c-9.6 0-17.4-7.8-17.4-17.4s7.8-17.4 17.4-17.4 17.4 7.8 17.4 17.4-7.8 17.4-17.4 17.4z" height="592" transform="" width="1003.5"/></clipPath><linearGradient id="d" gradientUnits="userSpaceOnUse" x1="276.4465" x2="307.4588" xlink:href="#a" y1="461.37769" y2="497.4328"/><linearGradient id="e" gradientUnits="userSpaceOnUse" x1="273.3085" x2="305.35681" xlink:href="#a" y1="504.90549" y2="472.85721"/><linearGradient id="f" gradientUnits="userSpaceOnUse" x1="299.6651" x2="261.12369" xlink:href="#a" y1="497.91901" y2="474.02231"/><path d="m244.7 490.7c-.1-.2-.4-.4-.7-.4h-13.7l12.5-13.8c1-1.1 1.5-2.4 1.5-3.9 0-3.2-2.6-5.8-5.8-5.8h-22.4c-.1 0-.2.1-.2.2v4l-.3-.3c-.5-.5-1-1-1.6-1.5-1.5-1.1-3.2-2-5.2-2.6s-4.1-.9-6.4-.9-4.4.3-6.4.9-3.7 1.5-5.2 2.6c-.6.4-1.1.9-1.6 1.5l-.3.3v-4c0-.1-.1-.2-.2-.2h-4.7c-.1 0-3.4-.1-5 3.8-1.6 4-7.8 17.2-7.8 17.4l-.2.3-.1-.4c-.1-.1-5.8-14.4-6.9-17.4-1-2.8-4-3.8-4.9-3.8h-10.5v-7.5c0-.5-.4-.8-.8-.8h-8.4c-.5 0-.8.4-.8.8v7.5h-5.1c-.3 0-.5.1-.7.4-.2.2-.2.5-.1.8l3.4 7.3c.2.4.6.7 1.1.7h1.4v12.6c0 3.5 1.1 6.4 3.4 8.4 2.2 2.1 5.4 3.2 9.4 3.2 1.4 0 2.8-.1 4-.4 1.3-.3 2.5-.6 3.5-1 .6-.2 1.1-.4 1.5-.6.2-.1.4-.3.5-.6s.1-.5 0-.8l-2.9-6.1c-.1-.2-.4-.3-.6-.3-1.1.4-2.4.6-3.6.6-.6 0-1.2-.1-1.8-.2s-1.2-.4-1.6-.7c-.5-.4-.9-.8-1.2-1.4s-.5-1.4-.5-2.4v-10.2h6.6c.1 0 .1 0 .6.9.3.5.6 1.3 1.1 2.2.8 1.7 1.9 4 3.3 7 2.4 5.1 5 10.6 6 12.7.1.3.4.5.7.5h8.3c.3 0 .6-.2.7-.5l10.5-22.3-.1 1c-.1.6-.1 1.3-.1 1.9v19c0 .5.4.8.8.8h8.1c.5 0 .8-.4.8-.8v-16.6c0-4.6 2.1-6.9 6.2-6.9 2 0 3.5.6 4.6 1.7s1.6 2.9 1.6 5.2v16.6c0 .5.4.8.8.8h31.2c.4 0 .9-.3 1-.7l3.3-7.1c.2-.2.2-.5 0-.7zm-26.6-14.7h13.5l-13.5 13.9z" transform="matrix(4.2062744 0 0 4.2062744 -557.396322 -1779.77669)"/><g transform="matrix(7.8855957 0 0 7.8855957 -1495.502512 -3566.94349)"><path d="m284.6 473.6c-.2 0-.4 0-.6 0l-6.8 1.6c-.6.2-1 .8-1 1.5v3.2c0 .8.8 1.4 1.6 1.2 1.6-.3 1.8-.4 2-.5v12.5c0 .9.7 1.6 1.6 1.6h2.8c.9 0 1.6-.7 1.6-1.6v-17.9c.1-.8-.5-1.4-1.2-1.6z"/><path clip-path="url(#c)" d="m286.5 452.4c-16.5 0-29.9 13.4-29.9 29.9s13.4 29.9 29.9 29.9 29.9-13.4 29.9-29.9-13.4-29.9-29.9-29.9zm.5 56.1c-13.9 0-25.3-11.3-25.3-25.3 0-13.9 11.3-25.3 25.3-25.3s25.3 11.3 25.3 25.3-11.4 25.3-25.3 25.3z" fill="url(#b)"/><path clip-path="url(#c)" d="m292 455.6c-13.1 0-23.8 10.6-23.8 23.8s10.6 23.8 23.8 23.8 23.8-10.6 23.8-23.8-10.7-23.8-23.8-23.8zm1.1 43.5c-11.5 0-20.8-9.3-20.8-20.8s9.3-20.8 20.8-20.8 20.8 9.3 20.8 20.8-9.3 20.8-20.8 20.8z" fill="url(#d)"/><path clip-path="url(#c)" d="m289.3 466.2c-12.5 0-22.7 10.1-22.7 22.7 0 12.5 10.1 22.7 22.7 22.7 12.5 0 22.7-10.1 22.7-22.7 0-12.5-10.2-22.7-22.7-22.7zm-1.3 41.2c-10.8 0-19.6-8.8-19.6-19.6s8.8-19.6 19.6-19.6 19.6 8.8 19.6 19.6c-.1 10.8-8.8 19.6-19.6 19.6z" fill="url(#e)"/><path clip-path="url(#c)" d="m280.4 463.3c-12.5 0-22.7 10.2-22.7 22.7s10.2 22.7 22.7 22.7 22.7-10.2 22.7-22.7c0-12.6-10.2-22.7-22.7-22.7zm1.7 38.4c-9.6 0-17.4-7.8-17.4-17.4s7.8-17.4 17.4-17.4 17.4 7.8 17.4 17.4-7.8 17.4-17.4 17.4z" fill="url(#f)"/></g></svg>