<svg id="g" version="1.1" viewBox="0 0 598.65 760" xmlns="http://www.w3.org/2000/svg">
 <defs id="h">
  <clipPath id="f">
   <path id="i" d="m125.21 353.06h40.057v34.861h-40.057z"/>
  </clipPath>
  <linearGradient id="d" x2="1" gradientTransform="matrix(-29.633 18.373 18.373 29.633 157.46 361.31)" gradientUnits="userSpaceOnUse">
   <stop id="j" stop-color="#bf408e" offset="0"/>
   <stop id="k" stop-color="#5d2874" offset="1"/>
  </linearGradient>
  <linearGradient id="c" x2="1" gradientTransform="matrix(4.8201 -27.336 -27.336 -4.8201 143.41 385.84)" gradientUnits="userSpaceOnUse">
   <stop id="l" stop-color="#bf408e" offset="0"/>
   <stop id="m" stop-color="#5d2874" offset="1"/>
  </linearGradient>
  <linearGradient id="b" x2="1" gradientTransform="matrix(18.703 18.703 18.703 -18.703 134.94 357.29)" gradientUnits="userSpaceOnUse">
   <stop id="n" stop-color="#bf408e" offset="0"/>
   <stop id="o" stop-color="#5d2874" offset="1"/>
  </linearGradient>
  <linearGradient id="a" x2="1" gradientTransform="matrix(-22.492 13.945 13.945 22.492 150.32 361.37)" gradientUnits="userSpaceOnUse">
   <stop id="p" stop-color="#bf408e" offset="0"/>
   <stop id="q" stop-color="#5d2874" offset="1"/>
  </linearGradient>
  <clipPath id="e">
   <path id="r" d="m125.21 353.06h40.057v34.861h-40.057z"/>
  </clipPath>
 </defs>
 <g id="s" transform="matrix(4.6428 0 0 4.6428 -615.8 -1561.9)" fill="#1d1d1b">
  <g id="t" fill="#1d1d1b">
   <path id="u" d="m244.7 490.7c-0.1-0.2-0.4-0.4-0.7-0.4h-13.7l12.5-13.8c1-1.1 1.5-2.4 1.5-3.9 0-3.2-2.6-5.8-5.8-5.8h-22.4c-0.1 0-0.2 0.1-0.2 0.2v4l-0.3-0.3c-0.5-0.5-1-1-1.6-1.5-1.5-1.1-3.2-2-5.2-2.6s-4.1-0.9-6.4-0.9-4.4 0.3-6.4 0.9-3.7 1.5-5.2 2.6c-0.6 0.4-1.1 0.9-1.6 1.5l-0.3 0.3v-4c0-0.1-0.1-0.2-0.2-0.2h-4.7c-0.1 0-3.4-0.1-5 3.8-1.6 4-7.8 17.2-7.8 17.4l-0.2 0.3-0.1-0.4c-0.1-0.1-5.8-14.4-6.9-17.4-1-2.8-4-3.8-4.9-3.8h-10.5v-7.5c0-0.5-0.4-0.8-0.8-0.8h-8.4c-0.5 0-0.8 0.4-0.8 0.8v7.5h-5.1c-0.3 0-0.5 0.1-0.7 0.4-0.2 0.2-0.2 0.5-0.1 0.8l3.4 7.3c0.2 0.4 0.6 0.7 1.1 0.7h1.4v12.6c0 3.5 1.1 6.4 3.4 8.4 2.2 2.1 5.4 3.2 9.4 3.2 1.4 0 2.8-0.1 4-0.4 1.3-0.3 2.5-0.6 3.5-1 0.6-0.2 1.1-0.4 1.5-0.6 0.2-0.1 0.4-0.3 0.5-0.6s0.1-0.5 0-0.8l-2.9-6.1c-0.1-0.2-0.4-0.3-0.6-0.3-1.1 0.4-2.4 0.6-3.6 0.6-0.6 0-1.2-0.1-1.8-0.2s-1.2-0.4-1.6-0.7c-0.5-0.4-0.9-0.8-1.2-1.4s-0.5-1.4-0.5-2.4v-10.2h6.6c0.1 0 0.1 0 0.6 0.9 0.3 0.5 0.6 1.3 1.1 2.2 0.8 1.7 1.9 4 3.3 7 2.4 5.1 5 10.6 6 12.7 0.1 0.3 0.4 0.5 0.7 0.5h8.3c0.3 0 0.6-0.2 0.7-0.5l10.5-22.3-0.1 1c-0.1 0.6-0.1 1.3-0.1 1.9v19c0 0.5 0.4 0.8 0.8 0.8h8.1c0.5 0 0.8-0.4 0.8-0.8v-16.6c0-4.6 2.1-6.9 6.2-6.9 2 0 3.5 0.6 4.6 1.7s1.6 2.9 1.6 5.2v16.6c0 0.5 0.4 0.8 0.8 0.8h31.2c0.4 0 0.9-0.3 1-0.7l3.3-7.1c0.2-0.2 0.2-0.5 0-0.7zm-26.6-14.7h13.5l-13.5 13.9z" fill="#fff"/>
  </g>
 </g>
 <g id="v" transform="matrix(14.945 0 0 -14.945 -1871.2 5797.6)">
  <g id="w">
   <g id="x" clip-path="url(#f)">
    <g id="y" transform="translate(144.01 366.61)">
     <path id="z" d="m0 0-5.375-2e-3c0.508 0.724 1.516 1.152 2.959 1.707 1.702 0.629 3.274 1.369 3.274 3.662 0 2.423-1.72 3.866-4.883 3.866-3.071 0-4.74-1.35-4.74-3.126 0-1.211 1.845-1.353 2.423-1.278 0.272 0.656 0.94 1.5 2.076 1.5 1.036 0 1.629-0.371 1.629-1.147s-1.166-1.054-2.553-1.701c-1.61-0.722-3.663-1.905-3.663-3.996v-1.528c0-0.525 0.426-0.95 0.951-0.95h7.902c0.525 0 0.95 0.425 0.95 0.95v1.093c0 0.524-0.425 0.95-0.95 0.95" fill="#fff"/>
    </g>
   </g>
  </g>
  <g id="aa">
   <g id="ab">
    <g id="ac">
     <g id="ad">
      <g id="ae">
       <path id="af" d="m125.21 370.5c0-9.627 7.805-17.43 17.431-17.43 9.627 0 17.431 7.803 17.431 17.43s-7.804 17.431-17.431 17.431c-9.626 0-17.431-7.804-17.431-17.431m2.982-0.58c0 8.141 6.598 14.74 14.739 14.74 8.14 0 14.739-6.599 14.739-14.74 0-8.14-6.599-14.739-14.739-14.739-8.141 0-14.739 6.599-14.739 14.739" fill="url(#d)"/>
      </g>
     </g>
    </g>
   </g>
   <g id="ag">
    <g id="ah">
     <g id="ai">
      <g id="aj">
       <path id="ak" d="m132.51 376.11c0.903 1.003 2.002 1.823 3.237 2.403 2.037 3.845 6.08 6.464 10.735 6.464 6.706 0 12.142-5.436 12.142-12.142s-5.436-12.142-12.142-12.142c-0.342 0-0.679 0.014-1.014 0.041-1.349-0.852-2.913-1.394-4.591-1.529 1.536-0.586 3.202-0.907 4.944-0.907 7.664 0 13.877 6.213 13.877 13.876 0 1.481-0.233 2.906-0.662 4.245-0.552 1.532-1.316 2.964-2.252 4.263-2.539 3.267-6.505 5.369-10.963 5.369-6.297 0-11.614-4.194-13.311-9.941" fill="url(#c)"/>
      </g>
     </g>
    </g>
   </g>
   <g id="al">
    <g id="am">
     <g id="an">
      <g id="ao">
       <path id="ap" d="m140.92 379.43c1.048-0.088 2.051-0.335 2.984-0.718 6.126-0.212 11.025-5.244 11.025-11.421 0-6.312-5.116-11.429-11.429-11.429-4.16 0-7.801 2.223-9.8 5.546-0.959 0.771-1.773 1.714-2.399 2.779 1.15-6.131 6.532-10.772 12.997-10.772 7.304 0 13.225 5.921 13.225 13.225s-5.921 13.225-13.225 13.225c-1.167 0-2.3-0.151-3.378-0.435" fill="url(#b)"/>
      </g>
     </g>
    </g>
   </g>
   <g id="aq">
    <g id="ar">
     <g id="as">
      <g id="at">
       <path id="au" d="m125.85 368.34c0-7.307 5.923-13.23 13.23-13.23s13.23 5.923 13.23 13.23-5.923 13.23-13.23 13.23-13.23-5.923-13.23-13.23m13.946-9.167c-5.484 0.138-9.887 4.627-9.887 10.144 0 5.606 4.544 10.15 10.149 10.15s10.149-4.544 10.149-10.15c0-5.604-4.544-10.148-10.149-10.148-0.087 0-0.174 1e-3 -0.262 4e-3" fill="url(#a)"/>
      </g>
     </g>
    </g>
   </g>
  </g>
  <g id="av">
   <g id="aw" clip-path="url(#e)">
    <g id="ax" transform="translate(160.24 374.48)">
     <path id="ay" d="m0 0h-11.445c0.896-1.513 1.412-3.277 1.412-5.163 0-1.775-0.457-3.443-1.258-4.895h11.291c2.777 0 5.029 2.252 5.029 5.029s-2.252 5.029-5.029 5.029" fill="#fff"/>
    </g>
    <g id="az" transform="translate(156.8 370.23)">
     <path id="ba" d="m0 0h-1.535v1.535c0 0.023-0.018 0.041-0.041 0.041h-1.134c-0.023 0-0.041-0.018-0.041-0.041v-1.535h-1.535c-0.023 0-0.042-0.019-0.042-0.042v-1.133c0-0.023 0.019-0.042 0.042-0.042h1.535v-1.534c0-0.023 0.018-0.042 0.041-0.042h1.134c0.023 0 0.041 0.019 0.041 0.042v1.534h1.535c0.023 0 0.042 0.019 0.042 0.042v1.133c0 0.023-0.019 0.042-0.042 0.042" fill="#1d1d1b"/>
    </g>
    <g id="bb" transform="translate(158.79 372.51)">
     <path id="bc" d="m0 0v1e-3l-1.287-0.678c-0.02-0.01-0.028-0.035-0.017-0.056l0.619-1.176c0.01-0.02 0.036-0.028 0.056-0.017l0.628 0.331v-4.14c0-0.023 0.018-0.041 0.041-0.041h1.654c0.023 0 0.041 0.018 0.041 0.041v5.693c0 0.023-0.018 0.042-0.041 0.042z" fill="#1d1d1b"/>
    </g>
   </g>
  </g>
 </g>
</svg>
