<?xml version="1.0" encoding="UTF-8" standalone="no"?>
<!-- Created with Inkscape (http://www.inkscape.org/) -->

<svg
   xmlns:dc="http://purl.org/dc/elements/1.1/"
   xmlns:cc="http://creativecommons.org/ns#"
   xmlns:rdf="http://www.w3.org/1999/02/22-rdf-syntax-ns#"
   xmlns:svg="http://www.w3.org/2000/svg"
   xmlns="http://www.w3.org/2000/svg"
   xmlns:sodipodi="http://sodipodi.sourceforge.net/DTD/sodipodi-0.dtd"
   xmlns:inkscape="http://www.inkscape.org/namespaces/inkscape"
   width="22.521334mm"
   height="4.8058915mm"
   viewBox="0 0 79.800001 17.028749"
   id="svg83068"
   version="1.1"
   inkscape:version="0.91 r13725"
   sodipodi:docname="TVNZ Kidzone.svg">
  <defs
     id="defs83070">
    <clipPath
       clipPathUnits="userSpaceOnUse"
       id="clipPath3174">
      <path
         d="m 400.434,263.401 63.84,0 0,13.623 -63.84,0 0,-13.623 z"
         id="path3176"
         inkscape:connector-curvature="0" />
    </clipPath>
    <clipPath
       clipPathUnits="userSpaceOnUse"
       id="clipPath3126">
      <path
         d="m 398.31,257.811 68.088,0 0,24.803 -68.088,0 0,-24.803 z"
         id="path3128"
         inkscape:connector-curvature="0" />
    </clipPath>
  </defs>
  <sodipodi:namedview
     id="base"
     pagecolor="#ffffff"
     bordercolor="#666666"
     borderopacity="1.0"
     inkscape:pageopacity="0.0"
     inkscape:pageshadow="2"
     inkscape:zoom="0.35"
     inkscape:cx="-452.24286"
     inkscape:cy="-71.48563"
     inkscape:document-units="px"
     inkscape:current-layer="layer1"
     showgrid="false"
     fit-margin-top="0"
     fit-margin-left="0"
     fit-margin-right="0"
     fit-margin-bottom="0"
     inkscape:window-width="1920"
     inkscape:window-height="1017"
     inkscape:window-x="-8"
     inkscape:window-y="-8"
     inkscape:window-maximized="1" />
  <metadata
     id="metadata83073">
    <rdf:RDF>
      <cc:Work
         rdf:about="">
        <dc:format>image/svg+xml</dc:format>
        <dc:type
           rdf:resource="http://purl.org/dc/dcmitype/StillImage" />
        <dc:title></dc:title>
      </cc:Work>
    </rdf:RDF>
  </metadata>
  <g
     inkscape:label="Layer 1"
     inkscape:groupmode="layer"
     id="layer1"
     transform="translate(-400.1,-443.84783)">
    <g
       transform="matrix(1.25,0,0,-1.25,-100.4425,790.12795)"
       id="g3122">
      <g
         id="g3124"
         clip-path="url(#clipPath3126)">
        <g
           id="g3130"
           transform="translate(407.112,268.5284)">
          <path
             d="M 0,0 0.893,0.926 C 1.344,1.4 1.57,1.895 1.57,2.413 1.57,2.788 1.463,3.127 1.248,3.43 1.033,3.733 0.744,3.945 0.38,4.066 0.182,4.132 -0.017,4.165 -0.215,4.165 c -0.617,0 -1.118,-0.248 -1.504,-0.743 l -1.305,-1.703 0,4.612 c 0,0.506 -0.18,0.939 -0.538,1.297 C -3.92,7.986 -4.353,8.165 -4.859,8.165 -5.355,8.165 -5.782,7.984 -6.14,7.62 -6.498,7.256 -6.678,6.826 -6.678,6.331 l 0,-9.587 c 0,-0.507 0.18,-0.945 0.538,-1.314 0.358,-0.369 0.79,-0.554 1.297,-0.554 0.496,0 0.923,0.179 1.281,0.538 0.358,0.358 0.538,0.796 0.538,1.314 l 0,1.784 1.917,-2.825 c 0.352,-0.519 0.854,-0.778 1.504,-0.778 0.198,0 0.369,0.023 0.512,0.066 0.386,0.122 0.703,0.348 0.95,0.678 0.248,0.331 0.372,0.7 0.372,1.108 0,0.418 -0.121,0.771 -0.363,1.058 L 0,0 Z"
             style="fill:#fccd31;fill-opacity:1;fill-rule:nonzero;stroke:none"
             id="path3132"
             inkscape:connector-curvature="0" />
        </g>
        <g
           id="g3134"
           transform="translate(411.6408,277.0241)">
          <path
             d="m 0,0 c -0.529,0 -0.983,-0.19 -1.364,-0.57 -0.38,-0.38 -0.57,-0.846 -0.57,-1.397 0,-0.562 0.188,-1.03 0.562,-1.405 0.375,-0.374 0.832,-0.562 1.372,-0.562 0.54,0 0.997,0.188 1.372,0.562 0.374,0.375 0.562,0.838 0.562,1.389 0,0.54 -0.188,1.005 -0.562,1.396 C 0.997,-0.195 0.54,0 0,0"
             style="fill:#fccd31;fill-opacity:1;fill-rule:nonzero;stroke:none"
             id="path3136"
             inkscape:connector-curvature="0" />
        </g>
        <g
           id="g3138"
           transform="translate(411.6572,272.7102)">
          <path
             d="m 0,0 c -0.518,0 -0.956,-0.179 -1.314,-0.537 -0.358,-0.358 -0.537,-0.796 -0.537,-1.314 l 0,-5.57 c 0,-0.518 0.179,-0.956 0.537,-1.314 0.358,-0.358 0.791,-0.537 1.298,-0.537 0.517,0 0.956,0.182 1.314,0.545 0.358,0.364 0.537,0.804 0.537,1.322 l 0,5.537 c 0,0.507 -0.179,0.945 -0.537,1.314 C 0.94,-0.184 0.507,0 0,0"
             style="fill:#fccd31;fill-opacity:1;fill-rule:nonzero;stroke:none"
             id="path3140"
             inkscape:connector-curvature="0" />
        </g>
        <g
           id="g3142"
           transform="translate(423.5591,276.1435)">
          <path
             d="m 0,0 c -0.353,0.37 -0.785,0.554 -1.293,0.554 -0.508,0 -0.942,-0.179 -1.301,-0.537 -0.359,-0.359 -0.539,-0.792 -0.539,-1.299 l 0,-2.564 c -0.121,0.055 -0.215,0.093 -0.281,0.115 -0.54,0.199 -1.069,0.297 -1.587,0.297 -0.684,0 -1.351,-0.186 -2.001,-0.56 -0.684,-0.396 -1.225,-0.956 -1.622,-1.681 -0.396,-0.724 -0.595,-1.494 -0.595,-2.307 0,-0.318 0.028,-0.625 0.083,-0.923 0.176,-0.966 0.581,-1.782 1.215,-2.446 0.633,-0.665 1.38,-1.074 2.24,-1.228 0.297,-0.055 0.561,-0.082 0.793,-0.082 0.85,0 1.533,0.277 2.049,0.832 0.069,-0.103 0.149,-0.201 0.243,-0.294 0.358,-0.359 0.792,-0.538 1.301,-0.538 0.52,0 0.954,0.17 1.303,0.512 0.348,0.342 0.523,0.783 0.523,1.324 l 0,9.51 C 0.531,-0.808 0.353,-0.37 0,0 m -3.07,-8.256 c -0.132,-0.809 -0.535,-1.218 -1.207,-1.229 -0.352,0 -0.655,0.137 -0.909,0.41 -0.254,0.273 -0.38,0.628 -0.38,1.065 0,0.109 0.005,0.196 0.016,0.262 0.144,0.797 0.552,1.196 1.224,1.196 0.087,0 0.181,-0.011 0.281,-0.033 0.528,-0.12 0.853,-0.497 0.975,-1.131 l 0,-0.54 z"
             style="fill:#fccd31;fill-opacity:1;fill-rule:nonzero;stroke:none"
             id="path3144"
             inkscape:connector-curvature="0" />
        </g>
        <g
           id="g3146"
           transform="translate(432.3083,266.8442)">
          <path
             d="M 0,0 -2.147,0 0.894,3.648 C 0.981,3.78 1.048,3.885 1.092,3.962 1.169,4.127 1.208,4.314 1.208,4.523 1.208,4.82 1.111,5.085 0.917,5.316 0.724,5.547 0.478,5.684 0.179,5.728 0.013,5.75 -0.137,5.761 -0.269,5.761 l -5.724,0 c -0.442,0 -0.818,-0.16 -1.128,-0.48 -0.31,-0.319 -0.465,-0.705 -0.465,-1.157 0,-0.44 0.159,-0.821 0.476,-1.14 0.317,-0.32 0.699,-0.48 1.144,-0.48 l 1.736,0 -3.025,-3.599 c -0.22,-0.264 -0.331,-0.567 -0.331,-0.908 0,-0.33 0.108,-0.611 0.323,-0.842 0.215,-0.231 0.493,-0.363 0.834,-0.396 0.11,-0.011 0.265,-0.017 0.463,-0.017 l 5.998,0 c 0.441,0 0.816,0.161 1.124,0.48 0.309,0.32 0.463,0.705 0.463,1.157 0,0.453 -0.157,0.835 -0.471,1.15 C 0.834,-0.157 0.452,0 0,0"
             style="fill:#7dd5ea;fill-opacity:1;fill-rule:nonzero;stroke:none"
             id="path3148"
             inkscape:connector-curvature="0" />
        </g>
        <g
           id="g3150"
           transform="translate(442.1713,271.5887)">
          <path
             d="m 0,0 c -0.903,0.794 -2,1.191 -3.289,1.191 -1.388,0 -2.554,-0.463 -3.495,-1.39 -0.943,-0.926 -1.409,-2.04 -1.397,-3.341 0.011,-1.301 0.487,-2.401 1.429,-3.299 0.94,-0.897 2.097,-1.346 3.47,-1.348 0.912,10e-4 1.747,0.216 2.505,0.645 0.76,0.43 1.356,1.019 1.785,1.769 0.397,0.706 0.595,1.467 0.595,2.283 C 1.603,-2.101 1.069,-0.938 0,0 m -2.297,-4.583 c -0.232,-0.332 -0.557,-0.498 -0.975,-0.498 -0.353,0 -0.656,0.144 -0.91,0.431 -0.253,0.287 -0.38,0.663 -0.38,1.127 0,0.32 0.072,0.596 0.215,0.828 0.276,0.442 0.634,0.663 1.075,0.663 0.44,0 0.798,-0.221 1.074,-0.663 0.143,-0.232 0.215,-0.502 0.215,-0.812 0,-0.43 -0.105,-0.789 -0.314,-1.076"
             style="fill:#7dd5ea;fill-opacity:1;fill-rule:nonzero;stroke:none"
             id="path3152"
             inkscape:connector-curvature="0" />
        </g>
        <g
           id="g3154"
           transform="translate(438.8989,263.4011)">
          <path
             d="M 0,0 -0.01,0 -0.017,0 0,0 Z"
             style="fill:#7dd5ea;fill-opacity:1;fill-rule:nonzero;stroke:none"
             id="path3156"
             inkscape:connector-curvature="0" />
        </g>
        <g
           id="g3158"
           transform="translate(451.1354,272.6441)">
          <path
             d="m 0,0 c -0.265,0.055 -0.529,0.083 -0.793,0.083 -0.739,0 -1.488,-0.232 -2.248,-0.694 -0.071,-0.044 -0.127,-0.081 -0.171,-0.115 -0.062,0.089 -0.133,0.174 -0.214,0.255 -0.359,0.358 -0.792,0.537 -1.301,0.537 -0.507,0 -0.937,-0.176 -1.289,-0.529 -0.27,-0.27 -0.436,-0.591 -0.499,-0.964 -0.023,-0.121 -0.035,-0.246 -0.035,-0.376 l 0.005,-5.536 c 0,-0.528 0.176,-0.969 0.529,-1.322 0.352,-0.352 0.788,-0.529 1.306,-0.529 0.506,0 0.939,0.179 1.297,0.537 0.358,0.358 0.537,0.796 0.537,1.314 l 0,3.455 c 0,0.253 0.088,0.474 0.265,0.661 0.176,0.187 0.396,0.281 0.661,0.281 0.264,0 0.485,-0.091 0.661,-0.273 0.176,-0.182 0.265,-0.405 0.265,-0.669 l 0,-3.471 c 0,-0.518 0.181,-0.956 0.545,-1.314 0.363,-0.358 0.804,-0.537 1.322,-0.537 0.507,0 0.94,0.184 1.298,0.554 0.358,0.368 0.536,0.807 0.536,1.313 l 0,4.281 c 0,0.727 -0.242,1.378 -0.726,1.951 C 1.466,-0.534 0.815,-0.165 0,0"
             style="fill:#7dd5ea;fill-opacity:1;fill-rule:nonzero;stroke:none"
             id="path3160"
             inkscape:connector-curvature="0" />
        </g>
        <g
           id="g3162"
           transform="translate(430.2951,275.0941)">
          <path
             d="m 0,0 c 0,0.098 0.079,0.177 0.177,0.177 l 0.969,0 C 1.243,0.177 1.323,0.098 1.323,0 l 0,-1.505 0.436,0 0,1.505 c 0,0.338 -0.275,0.613 -0.613,0.613 l -0.969,0 C -0.161,0.613 -0.436,0.338 -0.436,0 l 0,-1.505 0.436,0 L 0,0 Z"
             style="fill:#7dd5ea;fill-opacity:1;fill-rule:nonzero;stroke:none"
             id="path3164"
             inkscape:connector-curvature="0" />
        </g>
        <g
           id="g3166"
           transform="translate(432.4716,273.6027)">
          <path
             d="m 0,0 1.737,0 -0.164,0.423 -1.138,0 C 0.78,0.827 1.5,1.67 1.5,1.67 1.593,1.788 1.58,1.89 1.58,1.89 1.58,2.012 1.456,2.102 1.339,2.102 l -1.466,0 0,-0.424 1.077,0 C 0.637,1.311 -0.158,0.38 -0.158,0.38 -0.192,0.336 -0.23,0.268 -0.213,0.168 -0.196,0.073 -0.094,0.002 0,0"
             style="fill:#7dd5ea;fill-opacity:1;fill-rule:nonzero;stroke:none"
             id="path3168"
             inkscape:connector-curvature="0" />
        </g>
      </g>
    </g>
    <g
       transform="matrix(1.25,0,0,-1.25,-100.4425,790.12795)"
       id="g3170">
      <g
         id="g3172"
         clip-path="url(#clipPath3174)">
        <g
           id="g3178"
           transform="translate(426.482,273.6056)">
          <path
             d="m 0,0 0.417,0 0,1.684 0.602,0 c 0.125,0 0.177,-0.146 0.201,-0.2 C 1.244,1.43 1.822,0.131 1.822,0.131 1.869,0.028 1.968,-0.037 2.118,-0.037 c 0.142,0 0.217,0.058 0.262,0.145 l 10e-4,0.002 0.898,1.994 -0.456,0 c 0,0 -0.646,-1.484 -0.718,-1.65 C 2.059,0.561 1.656,1.549 1.602,1.669 1.548,1.788 1.453,2.116 1.042,2.116 L -0.738,2.117 -0.863,1.684 0,1.684 0,0 Z"
             style="fill:#7dd5ea;fill-opacity:1;fill-rule:nonzero;stroke:none"
             id="path3180"
             inkscape:connector-curvature="0" />
        </g>
        <g
           id="g3182"
           transform="translate(462.7655,266.8263)">
          <path
             d="m 0,0 c -0.221,0 -0.565,-0.063 -1.033,-0.188 -0.469,-0.126 -0.824,-0.189 -1.066,-0.189 -0.512,0 -0.952,0.072 -1.323,0.215 -0.393,0.154 -0.677,0.334 -0.851,0.539 l 4.276,0 c 0.551,0 0.943,0.11 1.174,0.331 C 1.409,0.929 1.519,1.309 1.508,1.85 1.497,2.457 1.284,3.077 0.871,3.712 0.458,4.347 -0.085,4.857 -0.757,5.243 -1.181,5.488 -1.648,5.661 -2.156,5.763 -2.493,5.83 -2.847,5.868 -3.221,5.872 -4.183,5.879 -5.037,5.677 -5.785,5.264 -6.117,5.081 -6.428,4.857 -6.718,4.591 -7.661,3.726 -8.138,2.665 -8.149,1.409 c -0.021,-1.399 0.46,-2.545 1.446,-3.437 0.986,-0.893 2.301,-1.339 3.943,-1.339 0.958,0 1.796,0.121 2.512,0.363 1.124,0.374 1.686,0.935 1.686,1.683 0,0.363 -0.132,0.674 -0.397,0.933 C 0.777,-0.129 0.43,0 0,0 m -4.231,2.324 c 0.143,0.455 0.407,0.727 0.793,0.817 0.76,0 1.14,-0.323 1.14,-0.967 l -1.966,0 c 0,0.033 0.01,0.084 0.033,0.15"
             style="fill:#7dd5ea;fill-opacity:1;fill-rule:nonzero;stroke:none"
             id="path3184"
             inkscape:connector-curvature="0" />
        </g>
      </g>
    </g>
  </g>
</svg>
