<?xml version="1.0" encoding="UTF-8" standalone="no"?>
<!-- Created with Inkscape (http://www.inkscape.org/) -->

<svg
   xmlns:dc="http://purl.org/dc/elements/1.1/"
   xmlns:cc="http://creativecommons.org/ns#"
   xmlns:rdf="http://www.w3.org/1999/02/22-rdf-syntax-ns#"
   xmlns:svg="http://www.w3.org/2000/svg"
   xmlns="http://www.w3.org/2000/svg"
   xmlns:xlink="http://www.w3.org/1999/xlink"
   xmlns:sodipodi="http://sodipodi.sourceforge.net/DTD/sodipodi-0.dtd"
   xmlns:inkscape="http://www.inkscape.org/namespaces/inkscape"
   width="999.99994"
   height="472.55862"
   id="svg5207"
   version="1.1"
   inkscape:version="0.48.5 r10040"
   sodipodi:docname="New document 3">
  <defs
     id="defs5209">
    <linearGradient
       id="SVGID_145_"
       gradientUnits="userSpaceOnUse"
       x1="311.88699"
       y1="498.02249"
       x2="261.10931"
       y2="466.539">
      <stop
         offset="0"
         style="stop-color:#DD4C2F"
         id="stop1319" />
      <stop
         offset="1"
         style="stop-color:#991F21"
         id="stop1321" />
    </linearGradient>
    <clipPath
       id="SVGID_144_">
      <use
         xlink:href="#SVGID_143_"
         style="overflow:visible"
         id="use1316"
         x="0"
         y="0"
         width="1003.5"
         height="592" />
    </clipPath>
    <linearGradient
       id="SVGID_146_"
       gradientUnits="userSpaceOnUse"
       x1="276.4465"
       y1="461.37769"
       x2="307.4588"
       y2="497.4328">
      <stop
         offset="0"
         style="stop-color:#DD4C2F"
         id="stop1326" />
      <stop
         offset="1"
         style="stop-color:#991F21"
         id="stop1328" />
    </linearGradient>
    <clipPath
       id="clipPath5136">
      <use
         xlink:href="#SVGID_143_"
         style="overflow:visible"
         id="use5138"
         x="0"
         y="0"
         width="1003.5"
         height="592" />
    </clipPath>
    <linearGradient
       id="SVGID_147_"
       gradientUnits="userSpaceOnUse"
       x1="273.3085"
       y1="504.90549"
       x2="305.35681"
       y2="472.85721">
      <stop
         offset="0"
         style="stop-color:#DD4C2F"
         id="stop1333" />
      <stop
         offset="1"
         style="stop-color:#991F21"
         id="stop1335" />
    </linearGradient>
    <clipPath
       id="clipPath5143">
      <use
         xlink:href="#SVGID_143_"
         style="overflow:visible"
         id="use5145"
         x="0"
         y="0"
         width="1003.5"
         height="592" />
    </clipPath>
    <linearGradient
       id="SVGID_148_"
       gradientUnits="userSpaceOnUse"
       x1="299.6651"
       y1="497.91901"
       x2="261.12369"
       y2="474.02231">
      <stop
         offset="0"
         style="stop-color:#DD4C2F"
         id="stop1340" />
      <stop
         offset="1"
         style="stop-color:#991F21"
         id="stop1342" />
    </linearGradient>
    <clipPath
       id="clipPath5150">
      <use
         xlink:href="#SVGID_143_"
         style="overflow:visible"
         id="use5152"
         x="0"
         y="0"
         width="1003.5"
         height="592" />
    </clipPath>
  </defs>
  <sodipodi:namedview
     id="base"
     pagecolor="#ffffff"
     bordercolor="#666666"
     borderopacity="1.0"
     inkscape:pageopacity="0.0"
     inkscape:pageshadow="2"
     inkscape:zoom="0.40506722"
     inkscape:cx="747.40128"
     inkscape:cy="-69.144825"
     inkscape:document-units="px"
     inkscape:current-layer="layer1"
     showgrid="false"
     fit-margin-left="0.5"
     fit-margin-bottom="0.5"
     fit-margin-top="0.5"
     fit-margin-right="0.5"
     inkscape:window-width="1050"
     inkscape:window-height="1035"
     inkscape:window-x="863"
     inkscape:window-y="-14"
     inkscape:window-maximized="0" />
  <metadata
     id="metadata5212">
    <rdf:RDF>
      <cc:Work
         rdf:about="">
        <dc:format>image/svg+xml</dc:format>
        <dc:type
           rdf:resource="http://purl.org/dc/dcmitype/StillImage" />
        <dc:title></dc:title>
      </cc:Work>
    </rdf:RDF>
  </metadata>
  <g
     inkscape:label="Layer 1"
     inkscape:groupmode="layer"
     id="layer1"
     transform="translate(-22.741312,-120.47809)">
    <g
       id="g1018"
       transform="matrix(4.2062744,0,0,4.2062744,-534.65501,-1659.2986)"
       style="fill:#000000;fill-opacity:1">
      <g
         id="g1020"
         style="fill:#000000;fill-opacity:1">
        <path
           d="m 244.7,490.7 c -0.1,-0.2 -0.4,-0.4 -0.7,-0.4 l -13.7,0 12.5,-13.8 c 1,-1.1 1.5,-2.4 1.5,-3.9 0,-3.2 -2.6,-5.8 -5.8,-5.8 l -22.4,0 c -0.1,0 -0.2,0.1 -0.2,0.2 v 4 l -0.3,-0.3 c -0.5,-0.5 -1,-1 -1.6,-1.5 -1.5,-1.1 -3.2,-2 -5.2,-2.6 -2,-0.6 -4.1,-0.9 -6.4,-0.9 -2.3,0 -4.4,0.3 -6.4,0.9 -2,0.6 -3.7,1.5 -5.2,2.6 -0.6,0.4 -1.1,0.9 -1.6,1.5 l -0.3,0.3 v -4 c 0,-0.1 -0.1,-0.2 -0.2,-0.2 l -4.7,0 c -0.1,0 -3.4,-0.1 -5,3.8 -1.6,4 -7.8,17.2 -7.8,17.4 l -0.2,0.3 -0.1,-0.4 c -0.1,-0.1 -5.8,-14.4 -6.9,-17.4 -1,-2.8 -4,-3.8 -4.9,-3.8 h -10.5 v -7.5 c 0,-0.5 -0.4,-0.8 -0.8,-0.8 h -8.4 c -0.5,0 -0.8,0.4 -0.8,0.8 v 7.5 h -5.1 c -0.3,0 -0.5,0.1 -0.7,0.4 -0.2,0.2 -0.2,0.5 -0.1,0.8 l 3.4,7.3 c 0.2,0.4 0.6,0.7 1.1,0.7 h 1.4 v 12.6 c 0,3.5 1.1,6.4 3.4,8.4 2.2,2.1 5.4,3.2 9.4,3.2 1.4,0 2.8,-0.1 4,-0.4 1.3,-0.3 2.5,-0.6 3.5,-1 0.6,-0.2 1.1,-0.4 1.5,-0.6 0.2,-0.1 0.4,-0.3 0.5,-0.6 0.1,-0.3 0.1,-0.5 0,-0.8 l -2.9,-6.1 c -0.1,-0.2 -0.4,-0.3 -0.6,-0.3 -1.1,0.4 -2.4,0.6 -3.6,0.6 -0.6,0 -1.2,-0.1 -1.8,-0.2 -0.6,-0.1 -1.2,-0.4 -1.6,-0.7 -0.5,-0.4 -0.9,-0.8 -1.2,-1.4 -0.3,-0.6 -0.5,-1.4 -0.5,-2.4 V 476 h 6.6 c 0.1,0 0.1,0 0.6,0.9 0.3,0.5 0.6,1.3 1.1,2.2 0.8,1.7 1.9,4 3.3,7 2.4,5.1 5,10.6 6,12.7 0.1,0.3 0.4,0.5 0.7,0.5 l 8.3,0 c 0.3,0 0.6,-0.2 0.7,-0.5 l 10.5,-22.3 -0.1,1 c -0.1,0.6 -0.1,1.3 -0.1,1.9 v 19 c 0,0.5 0.4,0.8 0.8,0.8 h 8.1 c 0.5,0 0.8,-0.4 0.8,-0.8 v -16.6 c 0,-4.6 2.1,-6.9 6.2,-6.9 2,0 3.5,0.6 4.6,1.7 1.1,1.1 1.6,2.9 1.6,5.2 v 16.6 c 0,0.5 0.4,0.8 0.8,0.8 l 31.2,0 c 0.4,0 0.9,-0.3 1,-0.7 l 3.3,-7.1 c 0.2,-0.2 0.2,-0.5 0,-0.7 z M 218.1,476 h 13.5 l -13.5,13.9 V 476 z"
           id="path1022"
           inkscape:connector-curvature="0"
           style="fill:#000000;fill-opacity:1" />
      </g>
      <linearGradient
         id="SVGID_102_"
         gradientUnits="userSpaceOnUse"
         x1="236.6132"
         y1="421.75369"
         x2="141.36749"
         y2="362.69891">
        <stop
           offset="0"
           style="stop-color:#52F5FF"
           id="stop1025" />
        <stop
           offset="1"
           style="stop-color:#124595"
           id="stop1027" />
      </linearGradient>
      <linearGradient
         id="SVGID_103_"
         gradientUnits="userSpaceOnUse"
         x1="170.1362"
         y1="353.01761"
         x2="228.3071"
         y2="420.64749">
        <stop
           offset="9.139785e-02"
           style="stop-color:#51DAD3"
           id="stop1032" />
        <stop
           offset="0.6237"
           style="stop-color:#33A4FF"
           id="stop1034" />
        <stop
           offset="1"
           style="stop-color:#124595"
           id="stop1036" />
      </linearGradient>
      <linearGradient
         id="SVGID_104_"
         gradientUnits="userSpaceOnUse"
         x1="164.25011"
         y1="434.6644"
         x2="224.3643"
         y2="374.55011">
        <stop
           offset="0"
           style="stop-color:#52F5FF"
           id="stop1041" />
        <stop
           offset="1"
           style="stop-color:#124595"
           id="stop1043" />
      </linearGradient>
      <linearGradient
         id="SVGID_105_"
         gradientUnits="userSpaceOnUse"
         x1="213.6881"
         y1="421.55951"
         x2="141.3945"
         y2="376.7356">
        <stop
           offset="0"
           style="stop-color:#52F5FF"
           id="stop1048" />
        <stop
           offset="0.8441"
           style="stop-color:#124595"
           id="stop1050" />
      </linearGradient>
    </g>
    <g
       id="g1306"
       transform="matrix(7.8855957,0,0,7.8855957,-1472.7612,-3446.4654)">
      <path
         d="m 284.6,473.6 c -0.2,0 -0.4,0 -0.6,0 l -6.8,1.6 c -0.6,0.2 -1,0.8 -1,1.5 0,1.3 0,2.7 0,3.2 0,0.8 0.8,1.4 1.6,1.2 1.6,-0.3 1.8,-0.4 2,-0.5 l 0,12.5 c 0,0.9 0.7,1.6 1.6,1.6 h 2.8 c 0.9,0 1.6,-0.7 1.6,-1.6 v -17.9 c 0.1,-0.8 -0.5,-1.4 -1.2,-1.6 z"
         id="path1308"
         inkscape:connector-curvature="0" />
      <g
         id="g1310">
        <defs
           id="defs1312">
          <path
             id="SVGID_143_"
             d="m 286.5,452.4 c -16.5,0 -29.9,13.4 -29.9,29.9 0,16.5 13.4,29.9 29.9,29.9 16.5,0 29.9,-13.4 29.9,-29.9 0,-16.5 -13.4,-29.9 -29.9,-29.9 z m -4.4,49.3 c -9.6,0 -17.4,-7.8 -17.4,-17.4 0,-9.6 7.8,-17.4 17.4,-17.4 9.6,0 17.4,7.8 17.4,17.4 0,9.6 -7.8,17.4 -17.4,17.4 z"
             inkscape:connector-curvature="0" />
        </defs>
        <clipPath
           id="clipPath5175">
          <use
             xlink:href="#SVGID_143_"
             style="overflow:visible"
             id="use5177"
             x="0"
             y="0"
             width="1003.5"
             height="592" />
        </clipPath>
        <linearGradient
           id="linearGradient5179"
           gradientUnits="userSpaceOnUse"
           x1="311.88699"
           y1="498.02249"
           x2="261.10931"
           y2="466.539">
          <stop
             offset="0"
             style="stop-color:#DD4C2F"
             id="stop5181" />
          <stop
             offset="1"
             style="stop-color:#991F21"
             id="stop5183" />
        </linearGradient>
        <path
           class="st97"
           d="m 286.5,452.4 c -16.5,0 -29.9,13.4 -29.9,29.9 0,16.5 13.4,29.9 29.9,29.9 16.5,0 29.9,-13.4 29.9,-29.9 0,-16.5 -13.4,-29.9 -29.9,-29.9 z m 0.5,56.1 c -13.9,0 -25.3,-11.3 -25.3,-25.3 0,-13.9 11.3,-25.3 25.3,-25.3 14,0 25.3,11.3 25.3,25.3 0,14 -11.4,25.3 -25.3,25.3 z"
           id="path1323"
           clip-path="url(#SVGID_144_)"
           style="fill:url(#SVGID_145_)"
           inkscape:connector-curvature="0" />
        <linearGradient
           id="linearGradient5186"
           gradientUnits="userSpaceOnUse"
           x1="276.4465"
           y1="461.37769"
           x2="307.4588"
           y2="497.4328">
          <stop
             offset="0"
             style="stop-color:#DD4C2F"
             id="stop5188" />
          <stop
             offset="1"
             style="stop-color:#991F21"
             id="stop5190" />
        </linearGradient>
        <path
           class="st98"
           d="m 292,455.6 c -13.1,0 -23.8,10.6 -23.8,23.8 0,13.2 10.6,23.8 23.8,23.8 13.2,0 23.8,-10.6 23.8,-23.8 0,-13.2 -10.7,-23.8 -23.8,-23.8 z m 1.1,43.5 c -11.5,0 -20.8,-9.3 -20.8,-20.8 0,-11.5 9.3,-20.8 20.8,-20.8 11.5,0 20.8,9.3 20.8,20.8 0,11.5 -9.3,20.8 -20.8,20.8 z"
           id="path1330"
           clip-path="url(#SVGID_144_)"
           style="fill:url(#SVGID_146_)"
           inkscape:connector-curvature="0" />
        <linearGradient
           id="linearGradient5193"
           gradientUnits="userSpaceOnUse"
           x1="273.3085"
           y1="504.90549"
           x2="305.35681"
           y2="472.85721">
          <stop
             offset="0"
             style="stop-color:#DD4C2F"
             id="stop5195" />
          <stop
             offset="1"
             style="stop-color:#991F21"
             id="stop5197" />
        </linearGradient>
        <path
           class="st99"
           d="m 289.3,466.2 c -12.5,0 -22.7,10.1 -22.7,22.7 0,12.5 10.1,22.7 22.7,22.7 12.5,0 22.7,-10.1 22.7,-22.7 0,-12.5 -10.2,-22.7 -22.7,-22.7 z m -1.3,41.2 c -10.8,0 -19.6,-8.8 -19.6,-19.6 0,-10.8 8.8,-19.6 19.6,-19.6 10.8,0 19.6,8.8 19.6,19.6 -0.1,10.8 -8.8,19.6 -19.6,19.6 z"
           id="path1337"
           clip-path="url(#SVGID_144_)"
           style="fill:url(#SVGID_147_)"
           inkscape:connector-curvature="0" />
        <linearGradient
           id="linearGradient5200"
           gradientUnits="userSpaceOnUse"
           x1="299.6651"
           y1="497.91901"
           x2="261.12369"
           y2="474.02231">
          <stop
             offset="0"
             style="stop-color:#DD4C2F"
             id="stop5202" />
          <stop
             offset="1"
             style="stop-color:#991F21"
             id="stop5204" />
        </linearGradient>
        <path
           class="st100"
           d="m 280.4,463.3 c -12.5,0 -22.7,10.2 -22.7,22.7 0,12.5 10.2,22.7 22.7,22.7 12.5,0 22.7,-10.2 22.7,-22.7 0,-12.6 -10.2,-22.7 -22.7,-22.7 z m 1.7,38.4 c -9.6,0 -17.4,-7.8 -17.4,-17.4 0,-9.6 7.8,-17.4 17.4,-17.4 9.6,0 17.4,7.8 17.4,17.4 0,9.6 -7.8,17.4 -17.4,17.4 z"
           id="path1344"
           clip-path="url(#SVGID_144_)"
           style="fill:url(#SVGID_148_)"
           inkscape:connector-curvature="0" />
      </g>
    </g>
  </g>
</svg>
