<?xml version="1.0" encoding="UTF-8" standalone="no"?>
<!-- Created with Inkscape (http://www.inkscape.org/) -->

<svg
   xmlns:dc="http://purl.org/dc/elements/1.1/"
   xmlns:cc="http://creativecommons.org/ns#"
   xmlns:rdf="http://www.w3.org/1999/02/22-rdf-syntax-ns#"
   xmlns:svg="http://www.w3.org/2000/svg"
   xmlns="http://www.w3.org/2000/svg"
   xmlns:xlink="http://www.w3.org/1999/xlink"
   xmlns:sodipodi="http://sodipodi.sourceforge.net/DTD/sodipodi-0.dtd"
   xmlns:inkscape="http://www.inkscape.org/namespaces/inkscape"
   width="1000.0001"
   height="472.543"
   id="svg5207"
   version="1.1"
   inkscape:version="0.91 r13725"
   sodipodi:docname="TVNZ Duke.svg"
   inkscape:export-filename="C:\Users\Jasmeet\Desktop\TVNZ Duke.png"
   inkscape:export-xdpi="360.36035"
   inkscape:export-ydpi="360.36035">
  <defs
     id="defs5209">
    <linearGradient
       id="SVGID_145_"
       gradientUnits="userSpaceOnUse"
       x1="311.88699"
       y1="498.02249"
       x2="261.10931"
       y2="466.539">
      <stop
         offset="0"
         style="stop-color:#DD4C2F"
         id="stop1319" />
      <stop
         offset="1"
         style="stop-color:#991F21"
         id="stop1321" />
    </linearGradient>
    <clipPath
       id="SVGID_144_">
      <path
         inkscape:connector-curvature="0"
         d="m 286.5,452.4 c -16.5,0 -29.9,13.4 -29.9,29.9 0,16.5 13.4,29.9 29.9,29.9 16.5,0 29.9,-13.4 29.9,-29.9 0,-16.5 -13.4,-29.9 -29.9,-29.9 z m -4.4,49.3 c -9.6,0 -17.4,-7.8 -17.4,-17.4 0,-9.6 7.8,-17.4 17.4,-17.4 9.6,0 17.4,7.8 17.4,17.4 0,9.6 -7.8,17.4 -17.4,17.4 z"
         id="use1316" />
    </clipPath>
    <linearGradient
       id="SVGID_146_"
       gradientUnits="userSpaceOnUse"
       x1="276.4465"
       y1="461.37769"
       x2="307.4588"
       y2="497.4328">
      <stop
         offset="0"
         style="stop-color:#DD4C2F"
         id="stop1326" />
      <stop
         offset="1"
         style="stop-color:#991F21"
         id="stop1328" />
    </linearGradient>
    <clipPath
       id="clipPath5136">
      <path
         inkscape:connector-curvature="0"
         d="m 286.5,452.4 c -16.5,0 -29.9,13.4 -29.9,29.9 0,16.5 13.4,29.9 29.9,29.9 16.5,0 29.9,-13.4 29.9,-29.9 0,-16.5 -13.4,-29.9 -29.9,-29.9 z m -4.4,49.3 c -9.6,0 -17.4,-7.8 -17.4,-17.4 0,-9.6 7.8,-17.4 17.4,-17.4 9.6,0 17.4,7.8 17.4,17.4 0,9.6 -7.8,17.4 -17.4,17.4 z"
         id="use5138" />
    </clipPath>
    <linearGradient
       id="SVGID_147_"
       gradientUnits="userSpaceOnUse"
       x1="273.3085"
       y1="504.90549"
       x2="305.35681"
       y2="472.85721">
      <stop
         offset="0"
         style="stop-color:#DD4C2F"
         id="stop1333" />
      <stop
         offset="1"
         style="stop-color:#991F21"
         id="stop1335" />
    </linearGradient>
    <clipPath
       id="clipPath5143">
      <path
         inkscape:connector-curvature="0"
         d="m 286.5,452.4 c -16.5,0 -29.9,13.4 -29.9,29.9 0,16.5 13.4,29.9 29.9,29.9 16.5,0 29.9,-13.4 29.9,-29.9 0,-16.5 -13.4,-29.9 -29.9,-29.9 z m -4.4,49.3 c -9.6,0 -17.4,-7.8 -17.4,-17.4 0,-9.6 7.8,-17.4 17.4,-17.4 9.6,0 17.4,7.8 17.4,17.4 0,9.6 -7.8,17.4 -17.4,17.4 z"
         id="use5145" />
    </clipPath>
    <linearGradient
       id="SVGID_148_"
       gradientUnits="userSpaceOnUse"
       x1="299.6651"
       y1="497.91901"
       x2="261.12369"
       y2="474.02231">
      <stop
         offset="0"
         style="stop-color:#DD4C2F"
         id="stop1340" />
      <stop
         offset="1"
         style="stop-color:#991F21"
         id="stop1342" />
    </linearGradient>
    <clipPath
       id="clipPath5150">
      <path
         inkscape:connector-curvature="0"
         d="m 286.5,452.4 c -16.5,0 -29.9,13.4 -29.9,29.9 0,16.5 13.4,29.9 29.9,29.9 16.5,0 29.9,-13.4 29.9,-29.9 0,-16.5 -13.4,-29.9 -29.9,-29.9 z m -4.4,49.3 c -9.6,0 -17.4,-7.8 -17.4,-17.4 0,-9.6 7.8,-17.4 17.4,-17.4 9.6,0 17.4,7.8 17.4,17.4 0,9.6 -7.8,17.4 -17.4,17.4 z"
         id="use5152" />
    </clipPath>
    <linearGradient
       id="SVGID_139_"
       gradientUnits="userSpaceOnUse"
       x1="381.89801"
       y1="498.02249"
       x2="331.12021"
       y2="466.539">
      <stop
         offset="0"
         style="stop-color:#BB4897"
         id="stop1279" />
      <stop
         offset="1"
         style="stop-color:#5D2D7C"
         id="stop1281" />
    </linearGradient>
    <clipPath
       id="SVGID_138_">
      <path
         inkscape:connector-curvature="0"
         d="m 356.5,452.4 c -16.5,0 -29.9,13.4 -29.9,29.9 0,16.5 13.4,29.9 29.9,29.9 16.5,0 29.9,-13.4 29.9,-29.9 0,-16.5 -13.4,-29.9 -29.9,-29.9 z m -4.4,49.3 c -9.6,0 -17.4,-7.8 -17.4,-17.4 0,-9.6 7.8,-17.4 17.4,-17.4 9.6,0 17.4,7.8 17.4,17.4 0,9.6 -7.8,17.4 -17.4,17.4 z"
         id="use1276" />
    </clipPath>
    <linearGradient
       id="SVGID_140_"
       gradientUnits="userSpaceOnUse"
       x1="357.8338"
       y1="455.9841"
       x2="366.09341"
       y2="502.82629">
      <stop
         offset="0"
         style="stop-color:#BB4897"
         id="stop1286" />
      <stop
         offset="1"
         style="stop-color:#5D2D7C"
         id="stop1288" />
    </linearGradient>
    <clipPath
       id="clipPath5358">
      <path
         inkscape:connector-curvature="0"
         d="m 356.5,452.4 c -16.5,0 -29.9,13.4 -29.9,29.9 0,16.5 13.4,29.9 29.9,29.9 16.5,0 29.9,-13.4 29.9,-29.9 0,-16.5 -13.4,-29.9 -29.9,-29.9 z m -4.4,49.3 c -9.6,0 -17.4,-7.8 -17.4,-17.4 0,-9.6 7.8,-17.4 17.4,-17.4 9.6,0 17.4,7.8 17.4,17.4 0,9.6 -7.8,17.4 -17.4,17.4 z"
         id="use5360" />
    </clipPath>
    <linearGradient
       id="SVGID_141_"
       gradientUnits="userSpaceOnUse"
       x1="343.31949"
       y1="504.90549"
       x2="375.3678"
       y2="472.85721">
      <stop
         offset="0"
         style="stop-color:#BB4897"
         id="stop1293" />
      <stop
         offset="1"
         style="stop-color:#5D2D7C"
         id="stop1295" />
    </linearGradient>
    <clipPath
       id="clipPath5365">
      <path
         inkscape:connector-curvature="0"
         d="m 356.5,452.4 c -16.5,0 -29.9,13.4 -29.9,29.9 0,16.5 13.4,29.9 29.9,29.9 16.5,0 29.9,-13.4 29.9,-29.9 0,-16.5 -13.4,-29.9 -29.9,-29.9 z m -4.4,49.3 c -9.6,0 -17.4,-7.8 -17.4,-17.4 0,-9.6 7.8,-17.4 17.4,-17.4 9.6,0 17.4,7.8 17.4,17.4 0,9.6 -7.8,17.4 -17.4,17.4 z"
         id="use5367" />
    </clipPath>
    <linearGradient
       id="SVGID_142_"
       gradientUnits="userSpaceOnUse"
       x1="369.67609"
       y1="497.91901"
       x2="331.1347"
       y2="474.02231">
      <stop
         offset="0"
         style="stop-color:#BB4897"
         id="stop1300" />
      <stop
         offset="1"
         style="stop-color:#5D2D7C"
         id="stop1302" />
    </linearGradient>
    <clipPath
       id="clipPath5372">
      <path
         inkscape:connector-curvature="0"
         d="m 356.5,452.4 c -16.5,0 -29.9,13.4 -29.9,29.9 0,16.5 13.4,29.9 29.9,29.9 16.5,0 29.9,-13.4 29.9,-29.9 0,-16.5 -13.4,-29.9 -29.9,-29.9 z m -4.4,49.3 c -9.6,0 -17.4,-7.8 -17.4,-17.4 0,-9.6 7.8,-17.4 17.4,-17.4 9.6,0 17.4,7.8 17.4,17.4 0,9.6 -7.8,17.4 -17.4,17.4 z"
         id="use5374" />
    </clipPath>
    <linearGradient
       id="SVGID_133_"
       gradientUnits="userSpaceOnUse"
       x1="451.909"
       y1="498.02249"
       x2="401.1312"
       y2="466.539">
      <stop
         offset="0"
         style="stop-color:#808285"
         id="stop1239" />
      <stop
         offset="0.9946"
         style="stop-color:#231F20"
         id="stop1241" />
    </linearGradient>
    <clipPath
       id="SVGID_132_">
      <use
         xlink:href="#SVGID_131_"
         style="overflow:visible"
         id="use1236"
         x="0"
         y="0"
         width="1003.5"
         height="592" />
    </clipPath>
    <linearGradient
       id="SVGID_134_"
       gradientUnits="userSpaceOnUse"
       x1="416.46851"
       y1="461.37769"
       x2="447.48071"
       y2="497.4328">
      <stop
         offset="0"
         style="stop-color:#808285"
         id="stop1246" />
      <stop
         offset="0.9946"
         style="stop-color:#231F20"
         id="stop1248" />
    </linearGradient>
    <clipPath
       id="clipPath5582">
      <use
         xlink:href="#SVGID_131_"
         style="overflow:visible"
         id="use5584"
         x="0"
         y="0"
         width="1003.5"
         height="592" />
    </clipPath>
    <linearGradient
       id="SVGID_135_"
       gradientUnits="userSpaceOnUse"
       x1="413.33051"
       y1="504.90549"
       x2="445.37881"
       y2="472.85721">
      <stop
         offset="0"
         style="stop-color:#808285"
         id="stop1253" />
      <stop
         offset="0.9946"
         style="stop-color:#231F20"
         id="stop1255" />
    </linearGradient>
    <clipPath
       id="clipPath5589">
      <use
         xlink:href="#SVGID_131_"
         style="overflow:visible"
         id="use5591"
         x="0"
         y="0"
         width="1003.5"
         height="592" />
    </clipPath>
    <linearGradient
       id="SVGID_136_"
       gradientUnits="userSpaceOnUse"
       x1="439.68701"
       y1="497.91901"
       x2="401.1456"
       y2="474.02231">
      <stop
         offset="0"
         style="stop-color:#808285"
         id="stop1260" />
      <stop
         offset="0.9946"
         style="stop-color:#231F20"
         id="stop1262" />
    </linearGradient>
    <clipPath
       id="clipPath5596">
      <use
         xlink:href="#SVGID_131_"
         style="overflow:visible"
         id="use5598"
         x="0"
         y="0"
         width="1003.5"
         height="592" />
    </clipPath>
  </defs>
  <sodipodi:namedview
     id="base"
     pagecolor="#ffffff"
     bordercolor="#666666"
     borderopacity="1.0"
     inkscape:pageopacity="0.0"
     inkscape:pageshadow="2"
     inkscape:zoom="1.0376562"
     inkscape:cx="411.57616"
     inkscape:cy="322.8478"
     inkscape:document-units="px"
     inkscape:current-layer="layer1"
     showgrid="false"
     fit-margin-left="0.5"
     fit-margin-bottom="0.5"
     fit-margin-top="0.5"
     fit-margin-right="0.5"
     inkscape:window-width="1920"
     inkscape:window-height="1017"
     inkscape:window-x="-8"
     inkscape:window-y="-8"
     inkscape:window-maximized="1" />
  <metadata
     id="metadata5212">
    <rdf:RDF>
      <cc:Work
         rdf:about="">
        <dc:format>image/svg+xml</dc:format>
        <dc:type
           rdf:resource="http://purl.org/dc/dcmitype/StillImage" />
        <dc:title />
      </cc:Work>
    </rdf:RDF>
  </metadata>
  <g
     inkscape:label="Layer 1"
     inkscape:groupmode="layer"
     id="layer1"
     transform="translate(38.754811,-43.936792)">
    <g
       id="g1018"
       transform="matrix(4.2061349,0,0,4.2061349,-596.13263,-1735.7809)"
       style="fill:#ffffff;fill-opacity:1">
      <g
         id="g1020"
         style="fill:#ffffff;fill-opacity:1">
        <path
           d="m 244.7,490.7 c -0.1,-0.2 -0.4,-0.4 -0.7,-0.4 l -13.7,0 12.5,-13.8 c 1,-1.1 1.5,-2.4 1.5,-3.9 0,-3.2 -2.6,-5.8 -5.8,-5.8 l -22.4,0 c -0.1,0 -0.2,0.1 -0.2,0.2 v 4 l -0.3,-0.3 c -0.5,-0.5 -1,-1 -1.6,-1.5 -1.5,-1.1 -3.2,-2 -5.2,-2.6 -2,-0.6 -4.1,-0.9 -6.4,-0.9 -2.3,0 -4.4,0.3 -6.4,0.9 -2,0.6 -3.7,1.5 -5.2,2.6 -0.6,0.4 -1.1,0.9 -1.6,1.5 l -0.3,0.3 v -4 c 0,-0.1 -0.1,-0.2 -0.2,-0.2 l -4.7,0 c -0.1,0 -3.4,-0.1 -5,3.8 -1.6,4 -7.8,17.2 -7.8,17.4 l -0.2,0.3 -0.1,-0.4 c -0.1,-0.1 -5.8,-14.4 -6.9,-17.4 -1,-2.8 -4,-3.8 -4.9,-3.8 h -10.5 v -7.5 c 0,-0.5 -0.4,-0.8 -0.8,-0.8 h -8.4 c -0.5,0 -0.8,0.4 -0.8,0.8 v 7.5 h -5.1 c -0.3,0 -0.5,0.1 -0.7,0.4 -0.2,0.2 -0.2,0.5 -0.1,0.8 l 3.4,7.3 c 0.2,0.4 0.6,0.7 1.1,0.7 h 1.4 v 12.6 c 0,3.5 1.1,6.4 3.4,8.4 2.2,2.1 5.4,3.2 9.4,3.2 1.4,0 2.8,-0.1 4,-0.4 1.3,-0.3 2.5,-0.6 3.5,-1 0.6,-0.2 1.1,-0.4 1.5,-0.6 0.2,-0.1 0.4,-0.3 0.5,-0.6 0.1,-0.3 0.1,-0.5 0,-0.8 l -2.9,-6.1 c -0.1,-0.2 -0.4,-0.3 -0.6,-0.3 -1.1,0.4 -2.4,0.6 -3.6,0.6 -0.6,0 -1.2,-0.1 -1.8,-0.2 -0.6,-0.1 -1.2,-0.4 -1.6,-0.7 -0.5,-0.4 -0.9,-0.8 -1.2,-1.4 -0.3,-0.6 -0.5,-1.4 -0.5,-2.4 V 476 h 6.6 c 0.1,0 0.1,0 0.6,0.9 0.3,0.5 0.6,1.3 1.1,2.2 0.8,1.7 1.9,4 3.3,7 2.4,5.1 5,10.6 6,12.7 0.1,0.3 0.4,0.5 0.7,0.5 l 8.3,0 c 0.3,0 0.6,-0.2 0.7,-0.5 l 10.5,-22.3 -0.1,1 c -0.1,0.6 -0.1,1.3 -0.1,1.9 v 19 c 0,0.5 0.4,0.8 0.8,0.8 h 8.1 c 0.5,0 0.8,-0.4 0.8,-0.8 v -16.6 c 0,-4.6 2.1,-6.9 6.2,-6.9 2,0 3.5,0.6 4.6,1.7 1.1,1.1 1.6,2.9 1.6,5.2 v 16.6 c 0,0.5 0.4,0.8 0.8,0.8 l 31.2,0 c 0.4,0 0.9,-0.3 1,-0.7 l 3.3,-7.1 c 0.2,-0.2 0.2,-0.5 0,-0.7 z M 218.1,476 h 13.5 l -13.5,13.9 V 476 z"
           id="path1022"
           inkscape:connector-curvature="0"
           style="fill:#ffffff;fill-opacity:1" />
      </g>
      <linearGradient
         id="SVGID_102_"
         gradientUnits="userSpaceOnUse"
         x1="236.6132"
         y1="421.75369"
         x2="141.36749"
         y2="362.69891">
        <stop
           offset="0"
           style="stop-color:#52F5FF"
           id="stop1025" />
        <stop
           offset="1"
           style="stop-color:#124595"
           id="stop1027" />
      </linearGradient>
      <linearGradient
         id="SVGID_103_"
         gradientUnits="userSpaceOnUse"
         x1="170.1362"
         y1="353.01761"
         x2="228.3071"
         y2="420.64749">
        <stop
           offset="9.139785e-02"
           style="stop-color:#51DAD3"
           id="stop1032" />
        <stop
           offset="0.6237"
           style="stop-color:#33A4FF"
           id="stop1034" />
        <stop
           offset="1"
           style="stop-color:#124595"
           id="stop1036" />
      </linearGradient>
      <linearGradient
         id="SVGID_104_"
         gradientUnits="userSpaceOnUse"
         x1="164.25011"
         y1="434.6644"
         x2="224.3643"
         y2="374.55011">
        <stop
           offset="0"
           style="stop-color:#52F5FF"
           id="stop1041" />
        <stop
           offset="1"
           style="stop-color:#124595"
           id="stop1043" />
      </linearGradient>
      <linearGradient
         id="SVGID_105_"
         gradientUnits="userSpaceOnUse"
         x1="213.6881"
         y1="421.55951"
         x2="141.3945"
         y2="376.7356">
        <stop
           offset="0"
           style="stop-color:#52F5FF"
           id="stop1048" />
        <stop
           offset="0.8441"
           style="stop-color:#124595"
           id="stop1050" />
      </linearGradient>
    </g>
    <path
       inkscape:connector-curvature="0"
       id="path1228"
       d="m 771.49721,277.05415 c -3.94267,-18.9248 -14.1936,-36.27254 -30.75281,-46.52347 -16.5592,-11.03947 -37.06107,-14.98214 -56.7744,-14.98214 -18.9248,0 -37.06107,0 -55.98587,0 0,41.79228 0,84.37308 0,126.16535 l 42.5808,0 -26.0216,38.63814 c 11.828,0 24.44453,0 36.27253,0 14.98214,0 30.75281,-1.57707 44.94641,-7.88534 16.5592,-6.30826 30.7528,-18.9248 38.63814,-35.484 9.4624,-18.9248 11.03947,-40.2152 7.0968,-59.92854 z m -41.79227,30.7528 c -1.57707,10.25094 -7.88534,20.50187 -17.34774,26.02161 -12.61653,7.0968 -27.59867,7.0968 -41.00374,7.0968 0,-29.17574 0,-58.35148 0,-86.73868 9.4624,0 19.71334,0 29.17574,2.3656 10.25093,2.3656 19.71334,7.88534 25.23307,17.34774 4.7312,9.4624 5.51973,22.07893 3.94267,33.90693 z"
       style="fill:#ffffff;fill-opacity:1" />
    <g
       id="g1230"
       transform="matrix(7.8853342,0,0,7.8853342,-2638.1213,-3522.8884)">
      <defs
         id="defs1232">
        <path
           inkscape:connector-curvature="0"
           d="m 426.5,452.4 c -16.5,0 -29.9,13.4 -29.9,29.9 0,16.5 13.4,29.9 29.9,29.9 16.5,0 29.9,-13.4 29.9,-29.9 0,-16.5 -13.4,-29.9 -29.9,-29.9 z m -4.4,49.3 c -9.6,0 -17.4,-7.8 -17.4,-17.4 0,-9.6 7.8,-17.4 17.4,-17.4 9.6,0 17.4,7.8 17.4,17.4 0,9.6 -7.8,17.4 -17.4,17.4 z"
           id="SVGID_131_" />
      </defs>
      <clipPath
         id="clipPath5621">
        <use
           height="592"
           width="1003.5"
           y="0"
           x="0"
           id="use5623"
           style="overflow:visible"
           xlink:href="#SVGID_131_" />
      </clipPath>
      <linearGradient
         y2="466.539"
         x2="401.1312"
         y1="498.02249"
         x1="451.909"
         gradientUnits="userSpaceOnUse"
         id="linearGradient5625">
        <stop
           id="stop5627"
           style="stop-color:#808285"
           offset="0" />
        <stop
           id="stop5629"
           style="stop-color:#231F20"
           offset="0.9946" />
      </linearGradient>
      <path
         inkscape:connector-curvature="0"
         style="fill:url(#SVGID_133_)"
         clip-path="url(#SVGID_132_)"
         id="path1243"
         d="m 426.5,452.4 c -16.5,0 -29.9,13.4 -29.9,29.9 0,16.5 13.4,29.9 29.9,29.9 16.5,0 29.9,-13.4 29.9,-29.9 0,-16.5 -13.4,-29.9 -29.9,-29.9 z m 0.5,56.1 c -13.9,0 -25.3,-11.3 -25.3,-25.3 0,-13.9 11.3,-25.3 25.3,-25.3 13.9,0 25.3,11.3 25.3,25.3 0,14 -11.3,25.3 -25.3,25.3 z"
         class="st89" />
      <linearGradient
         y2="497.4328"
         x2="447.48071"
         y1="461.37769"
         x1="416.46851"
         gradientUnits="userSpaceOnUse"
         id="linearGradient5632">
        <stop
           id="stop5634"
           style="stop-color:#808285"
           offset="0" />
        <stop
           id="stop5636"
           style="stop-color:#231F20"
           offset="0.9946" />
      </linearGradient>
      <path
         inkscape:connector-curvature="0"
         style="fill:url(#SVGID_134_)"
         clip-path="url(#SVGID_132_)"
         id="path1250"
         d="m 432,455.6 c -13.1,0 -23.8,10.6 -23.8,23.8 0,13.1 10.6,23.8 23.8,23.8 13.1,0 23.8,-10.6 23.8,-23.8 0,-13.1 -10.7,-23.8 -23.8,-23.8 z m 1.1,43.5 c -11.5,0 -20.8,-9.3 -20.8,-20.8 0,-11.5 9.3,-20.8 20.8,-20.8 11.5,0 20.8,9.3 20.8,20.8 0,11.5 -9.3,20.8 -20.8,20.8 z"
         class="st90" />
      <linearGradient
         y2="472.85721"
         x2="445.37881"
         y1="504.90549"
         x1="413.33051"
         gradientUnits="userSpaceOnUse"
         id="linearGradient5639">
        <stop
           id="stop5641"
           style="stop-color:#808285"
           offset="0" />
        <stop
           id="stop5643"
           style="stop-color:#231F20"
           offset="0.9946" />
      </linearGradient>
      <path
         inkscape:connector-curvature="0"
         style="fill:url(#SVGID_135_)"
         clip-path="url(#SVGID_132_)"
         id="path1257"
         d="m 429.4,466.2 c -12.5,0 -22.7,10.1 -22.7,22.7 0,12.5 10.1,22.7 22.7,22.7 12.5,0 22.7,-10.1 22.7,-22.7 -0.1,-12.5 -10.2,-22.7 -22.7,-22.7 z m -1.4,41.2 c -10.8,0 -19.6,-8.8 -19.6,-19.6 0,-10.8 8.8,-19.6 19.6,-19.6 10.8,0 19.6,8.8 19.6,19.6 0,10.8 -8.8,19.6 -19.6,19.6 z"
         class="st91" />
      <linearGradient
         y2="474.02231"
         x2="401.1456"
         y1="497.91901"
         x1="439.68701"
         gradientUnits="userSpaceOnUse"
         id="linearGradient5646">
        <stop
           id="stop5648"
           style="stop-color:#808285"
           offset="0" />
        <stop
           id="stop5650"
           style="stop-color:#231F20"
           offset="0.9946" />
      </linearGradient>
      <path
         inkscape:connector-curvature="0"
         style="fill:url(#SVGID_136_)"
         clip-path="url(#SVGID_132_)"
         id="path1264"
         d="m 420.4,463.3 c -12.5,0 -22.7,10.2 -22.7,22.7 0,12.5 10.2,22.7 22.7,22.7 12.5,0 22.7,-10.2 22.7,-22.7 0,-12.6 -10.2,-22.7 -22.7,-22.7 z m 1.7,38.4 c -9.6,0 -17.4,-7.8 -17.4,-17.4 0,-9.6 7.8,-17.4 17.4,-17.4 9.6,0 17.4,7.8 17.4,17.4 0,9.6 -7.8,17.4 -17.4,17.4 z"
         class="st92" />
    </g>
  </g>
</svg>
