<?xml version="1.0" encoding="UTF-8"?>
<!-- Created with Inkscape (http://www.inkscape.org/) -->
<svg id="svg5207" width="741.81" height="327.27" version="1.1" xmlns="http://www.w3.org/2000/svg" xmlns:cc="http://creativecommons.org/ns#" xmlns:dc="http://purl.org/dc/elements/1.1/" xmlns:rdf="http://www.w3.org/1999/02/22-rdf-syntax-ns#" xmlns:xlink="http://www.w3.org/1999/xlink">
 <defs id="defs5209">
  <linearGradient id="SVGID_139_" x1="381.9" x2="331.12" y1="498.02" y2="466.54" gradientUnits="userSpaceOnUse">
   <stop id="stop1279" stop-color="#BB4897" offset="0"/>
   <stop id="stop1281" stop-color="#5D2D7C" offset="1"/>
  </linearGradient>
  <clipPath id="SVGID_138_">
   <use id="use1276" width="1003.5" height="592" xlink:href="#SVGID_137_"/>
  </clipPath>
  <linearGradient id="SVGID_140_" x1="357.83" x2="366.09" y1="455.98" y2="502.83" gradientUnits="userSpaceOnUse">
   <stop id="stop1286" stop-color="#BB4897" offset="0"/>
   <stop id="stop1288" stop-color="#5D2D7C" offset="1"/>
  </linearGradient>
  <linearGradient id="SVGID_141_" x1="343.32" x2="375.37" y1="504.91" y2="472.86" gradientUnits="userSpaceOnUse">
   <stop id="stop1293" stop-color="#BB4897" offset="0"/>
   <stop id="stop1295" stop-color="#5D2D7C" offset="1"/>
  </linearGradient>
  <linearGradient id="SVGID_142_" x1="369.68" x2="331.13" y1="497.92" y2="474.02" gradientUnits="userSpaceOnUse">
   <stop id="stop1300" stop-color="#BB4897" offset="0"/>
   <stop id="stop1302" stop-color="#5D2D7C" offset="1"/>
  </linearGradient>
 </defs>
 <metadata id="metadata5212">
  <rdf:RDF>
   <cc:Work rdf:about="">
    <dc:format>image/svg+xml</dc:format>
    <dc:type rdf:resource="http://purl.org/dc/dcmitype/StillImage"/>
    <dc:title/>
   </cc:Work>
  </rdf:RDF>
 </metadata>
 <g id="layer1" transform="translate(-51.24 -186.75)">
  <g id="g1018" transform="matrix(2.9103 0 0 2.9103 -334.27 -1044.5)" fill="#fff">
   <g id="g1020" fill="#fff">
    <path id="path1022" d="m244.7 490.7c-0.1-0.2-0.4-0.4-0.7-0.4h-13.7l12.5-13.8c1-1.1 1.5-2.4 1.5-3.9 0-3.2-2.6-5.8-5.8-5.8h-22.4c-0.1 0-0.2 0.1-0.2 0.2v4l-0.3-0.3c-0.5-0.5-1-1-1.6-1.5-1.5-1.1-3.2-2-5.2-2.6s-4.1-0.9-6.4-0.9-4.4 0.3-6.4 0.9-3.7 1.5-5.2 2.6c-0.6 0.4-1.1 0.9-1.6 1.5l-0.3 0.3v-4c0-0.1-0.1-0.2-0.2-0.2h-4.7c-0.1 0-3.4-0.1-5 3.8-1.6 4-7.8 17.2-7.8 17.4l-0.2 0.3-0.1-0.4c-0.1-0.1-5.8-14.4-6.9-17.4-1-2.8-4-3.8-4.9-3.8h-10.5v-7.5c0-0.5-0.4-0.8-0.8-0.8h-8.4c-0.5 0-0.8 0.4-0.8 0.8v7.5h-5.1c-0.3 0-0.5 0.1-0.7 0.4-0.2 0.2-0.2 0.5-0.1 0.8l3.4 7.3c0.2 0.4 0.6 0.7 1.1 0.7h1.4v12.6c0 3.5 1.1 6.4 3.4 8.4 2.2 2.1 5.4 3.2 9.4 3.2 1.4 0 2.8-0.1 4-0.4 1.3-0.3 2.5-0.6 3.5-1 0.6-0.2 1.1-0.4 1.5-0.6 0.2-0.1 0.4-0.3 0.5-0.6s0.1-0.5 0-0.8l-2.9-6.1c-0.1-0.2-0.4-0.3-0.6-0.3-1.1 0.4-2.4 0.6-3.6 0.6-0.6 0-1.2-0.1-1.8-0.2s-1.2-0.4-1.6-0.7c-0.5-0.4-0.9-0.8-1.2-1.4s-0.5-1.4-0.5-2.4v-10.2h6.6c0.1 0 0.1 0 0.6 0.9 0.3 0.5 0.6 1.3 1.1 2.2 0.8 1.7 1.9 4 3.3 7 2.4 5.1 5 10.6 6 12.7 0.1 0.3 0.4 0.5 0.7 0.5h8.3c0.3 0 0.6-0.2 0.7-0.5l10.5-22.3-0.1 1c-0.1 0.6-0.1 1.3-0.1 1.9v19c0 0.5 0.4 0.8 0.8 0.8h8.1c0.5 0 0.8-0.4 0.8-0.8v-16.6c0-4.6 2.1-6.9 6.2-6.9 2 0 3.5 0.6 4.6 1.7s1.6 2.9 1.6 5.2v16.6c0 0.5 0.4 0.8 0.8 0.8h31.2c0.4 0 0.9-0.3 1-0.7l3.3-7.1c0.2-0.2 0.2-0.5 0-0.7zm-26.6-14.7h13.5l-13.5 13.9v-13.9z" fill="#fff"/>
   </g>
  </g>
  <path id="path1268" d="m592.95 386.4h-50.196c4.9104-6.5472 14.186-10.912 27.826-15.823 15.822-6.0016 30.554-12.549 30.554-34.373 0-22.915-15.822-36.01-45.831-36.01-28.917 0-44.194 12.549-44.194 29.463 0 11.458 17.459 12.549 22.915 12.003 2.728-6.0016 8.7297-14.186 19.642-14.186 9.8209 0 15.277 3.2736 15.277 10.912s-10.912 9.8209-24.007 15.822c-15.277 6.5472-34.373 18.005-34.373 37.101v4.3648 2.1824 7.6384c0 4.9104 3.8192 8.7297 8.7297 8.7297h12.003 62.199c4.9104 0 8.7297-3.8192 8.7297-8.7297v-10.366c-0.5456-4.3648-4.3648-8.7297-9.2753-8.7297z" fill="#fff"/>
  <g id="g1270" transform="matrix(5.456 0 0 5.456 -1365.2 -2281.1)">
   <defs id="defs1272">
    <path id="SVGID_137_" d="m356.5 452.4c-16.5 0-29.9 13.4-29.9 29.9s13.4 29.9 29.9 29.9 29.9-13.4 29.9-29.9-13.4-29.9-29.9-29.9zm-4.4 49.3c-9.6 0-17.4-7.8-17.4-17.4s7.8-17.4 17.4-17.4 17.4 7.8 17.4 17.4-7.8 17.4-17.4 17.4z"/>
   </defs>
   <clipPath id="clipPath5397">
    <use id="use5399" width="1003.5" height="592" xlink:href="#SVGID_137_"/>
   </clipPath>
   <path id="path1283" class="st93" d="m356.5 452.4c-16.5 0-29.9 13.4-29.9 29.9s13.4 29.9 29.9 29.9 29.9-13.4 29.9-29.9-13.4-29.9-29.9-29.9zm0.5 56.1c-13.9 0-25.3-11.3-25.3-25.3 0-13.9 11.3-25.3 25.3-25.3s25.3 11.3 25.3 25.3-11.3 25.3-25.3 25.3z" clip-path="url(#SVGID_138_)" fill="url(#SVGID_139_)"/>
   <path id="path1290" class="st94" d="m362 455.6c-13.1 0-23.8 10.6-23.8 23.8 0 13.1 10.6 23.8 23.8 23.8s23.8-10.6 23.8-23.8c-0.1-13.1-10.7-23.8-23.8-23.8zm1.1 43.5c-11.5 0-20.8-9.3-20.8-20.8s9.3-20.8 20.8-20.8 20.8 9.3 20.8 20.8-9.3 20.8-20.8 20.8z" clip-path="url(#SVGID_138_)" fill="url(#SVGID_140_)"/>
   <path id="path1297" class="st95" d="m359.3 466.2c-12.5 0-22.7 10.1-22.7 22.7 0 12.5 10.1 22.7 22.7 22.7 12.5 0 22.7-10.1 22.7-22.7 0-12.5-10.1-22.7-22.7-22.7zm-1.3 41.2c-10.8 0-19.6-8.8-19.6-19.6s8.8-19.6 19.6-19.6 19.6 8.8 19.6 19.6-8.8 19.6-19.6 19.6z" clip-path="url(#SVGID_138_)" fill="url(#SVGID_141_)"/>
   <path id="path1304" class="st96" d="m350.4 463.3c-12.5 0-22.7 10.2-22.7 22.7s10.2 22.7 22.7 22.7 22.7-10.2 22.7-22.7c0-12.6-10.2-22.7-22.7-22.7zm1.7 38.4c-9.6 0-17.4-7.8-17.4-17.4s7.8-17.4 17.4-17.4 17.4 7.8 17.4 17.4-7.8 17.4-17.4 17.4z" clip-path="url(#SVGID_138_)" fill="url(#SVGID_142_)"/>
  </g>
  <rect id="rect4209" x="664.39" y="329.33" width="94.082" height="62.921"/>
  <path id="path23" d="m739.24 313.84c11-0.675 22.438 1.2129 31.713 7.438 11.313 7.2125 19.25 19.488 21.088 32.788 1.9125 12.788-1.725 26.288-9.9 36.325-8.2125 10.288-20.925 16.863-34.088 17.438h-109.5c13.102-23.458 15.606-52.423 6.949-77.671-0.23204-0.67677-0.47614-1.349-0.727-2.018-0.44108-1.1763-0.90777-2.3425-1.392-3.5055-0.64678-1.5534-1.3442-3.0729-2.0759-4.5924-0.69546-1.4441-1.4347-2.8797-2.2091-4.2895-0.15611-0.28417-0.31437-0.56729-0.47301-0.84922-0.20044-0.35621-0.39732-0.71054-0.606-1.0627m81.35 25.101 6.1875 11.713 6.2248-3.15v39.125h16.425v-54.713h-14.425l-14.412 7.0255m-31.85 0.1125v14.387h-14.613v11.588h14.488l0.12523 14.8h11.475l0.137-14.8h14.863v-11.588h-15v-14.387z" fill="#fff"/>
 </g>
</svg>
