<svg height="327.271" width="741.80511" xmlns="http://www.w3.org/2000/svg" xmlns:xlink="http://www.w3.org/1999/xlink"><linearGradient id="a"><stop offset="0" stop-color="#bb4897"/><stop offset="1" stop-color="#5d2d7c"/></linearGradient><linearGradient id="b" gradientUnits="userSpaceOnUse" x1="381.89801" x2="331.12021" xlink:href="#a" y1="498.02249" y2="466.539"/><clipPath id="c"><path d="m356.5 452.4c-16.5 0-29.9 13.4-29.9 29.9s13.4 29.9 29.9 29.9 29.9-13.4 29.9-29.9-13.4-29.9-29.9-29.9zm-4.4 49.3c-9.6 0-17.4-7.8-17.4-17.4s7.8-17.4 17.4-17.4 17.4 7.8 17.4 17.4-7.8 17.4-17.4 17.4z" height="592" transform="" width="1003.5"/></clipPath><linearGradient id="d" gradientUnits="userSpaceOnUse" x1="357.8338" x2="366.09341" xlink:href="#a" y1="455.9841" y2="502.82629"/><linearGradient id="e" gradientUnits="userSpaceOnUse" x1="343.31949" x2="375.3678" xlink:href="#a" y1="504.90549" y2="472.85721"/><linearGradient id="f" gradientUnits="userSpaceOnUse" x1="369.67609" x2="331.1347" xlink:href="#a" y1="497.91901" y2="474.02231"/><g transform="translate(-51.23966 -186.75325)"><path d="m244.7 490.7c-.1-.2-.4-.4-.7-.4h-13.7l12.5-13.8c1-1.1 1.5-2.4 1.5-3.9 0-3.2-2.6-5.8-5.8-5.8h-22.4c-.1 0-.2.1-.2.2v4l-.3-.3c-.5-.5-1-1-1.6-1.5-1.5-1.1-3.2-2-5.2-2.6s-4.1-.9-6.4-.9-4.4.3-6.4.9-3.7 1.5-5.2 2.6c-.6.4-1.1.9-1.6 1.5l-.3.3v-4c0-.1-.1-.2-.2-.2h-4.7c-.1 0-3.4-.1-5 3.8-1.6 4-7.8 17.2-7.8 17.4l-.2.3-.1-.4c-.1-.1-5.8-14.4-6.9-17.4-1-2.8-4-3.8-4.9-3.8h-10.5v-7.5c0-.5-.4-.8-.8-.8h-8.4c-.5 0-.8.4-.8.8v7.5h-5.1c-.3 0-.5.1-.7.4-.2.2-.2.5-.1.8l3.4 7.3c.2.4.6.7 1.1.7h1.4v12.6c0 3.5 1.1 6.4 3.4 8.4 2.2 2.1 5.4 3.2 9.4 3.2 1.4 0 2.8-.1 4-.4 1.3-.3 2.5-.6 3.5-1 .6-.2 1.1-.4 1.5-.6.2-.1.4-.3.5-.6s.1-.5 0-.8l-2.9-6.1c-.1-.2-.4-.3-.6-.3-1.1.4-2.4.6-3.6.6-.6 0-1.2-.1-1.8-.2s-1.2-.4-1.6-.7c-.5-.4-.9-.8-1.2-1.4s-.5-1.4-.5-2.4v-10.2h6.6c.1 0 .1 0 .6.9.3.5.6 1.3 1.1 2.2.8 1.7 1.9 4 3.3 7 2.4 5.1 5 10.6 6 12.7.1.3.4.5.7.5h8.3c.3 0 .6-.2.7-.5l10.5-22.3-.1 1c-.1.6-.1 1.3-.1 1.9v19c0 .5.4.8.8.8h8.1c.5 0 .8-.4.8-.8v-16.6c0-4.6 2.1-6.9 6.2-6.9 2 0 3.5.6 4.6 1.7s1.6 2.9 1.6 5.2v16.6c0 .5.4.8.8.8h31.2c.4 0 .9-.3 1-.7l3.3-7.1c.2-.2.2-.5 0-.7zm-26.6-14.7h13.5l-13.5 13.9z" fill="#fff" transform="matrix(2.9103176 0 0 2.9103176 -334.26832 -1044.5384)"/><path d="m592.94551 386.39859h-50.19554c4.91043-6.54724 14.18569-10.91207 27.82579-15.82251 15.8225-6.00164 30.5538-12.54888 30.5538-34.37303 0-22.91535-15.8225-36.00984-45.83071-36.00984-28.91699 0-44.19389 12.54888-44.19389 29.4626 0 11.45768 17.45931 12.54888 22.91535 12.00328 2.72802-6.00164 8.72966-14.1857 19.64173-14.1857 9.82087 0 15.27691 3.27363 15.27691 10.91208s-10.91208 9.82086-24.00657 15.8225c-15.2769 6.54725-34.37303 18.00493-34.37303 37.10105v4.36483 2.18242 7.63845c0 4.91043 3.81923 8.72966 8.72966 8.72966h12.00328 62.19882c4.91043 0 8.72966-3.81923 8.72966-8.72966v-10.36647c-.5456-4.36483-4.36483-8.72966-9.27526-8.72966z" fill="#fff"/><g transform="matrix(5.4560368 0 0 5.4560368 -1365.2261 -2281.0578)"><path clip-path="url(#c)" d="m356.5 452.4c-16.5 0-29.9 13.4-29.9 29.9s13.4 29.9 29.9 29.9 29.9-13.4 29.9-29.9-13.4-29.9-29.9-29.9zm.5 56.1c-13.9 0-25.3-11.3-25.3-25.3 0-13.9 11.3-25.3 25.3-25.3s25.3 11.3 25.3 25.3-11.3 25.3-25.3 25.3z" fill="url(#b)"/><path clip-path="url(#c)" d="m362 455.6c-13.1 0-23.8 10.6-23.8 23.8 0 13.1 10.6 23.8 23.8 23.8s23.8-10.6 23.8-23.8c-.1-13.1-10.7-23.8-23.8-23.8zm1.1 43.5c-11.5 0-20.8-9.3-20.8-20.8s9.3-20.8 20.8-20.8 20.8 9.3 20.8 20.8-9.3 20.8-20.8 20.8z" fill="url(#d)"/><path clip-path="url(#c)" d="m359.3 466.2c-12.5 0-22.7 10.1-22.7 22.7 0 12.5 10.1 22.7 22.7 22.7 12.5 0 22.7-10.1 22.7-22.7 0-12.5-10.1-22.7-22.7-22.7zm-1.3 41.2c-10.8 0-19.6-8.8-19.6-19.6s8.8-19.6 19.6-19.6 19.6 8.8 19.6 19.6-8.8 19.6-19.6 19.6z" fill="url(#e)"/><path clip-path="url(#c)" d="m350.4 463.3c-12.5 0-22.7 10.2-22.7 22.7s10.2 22.7 22.7 22.7 22.7-10.2 22.7-22.7c0-12.6-10.2-22.7-22.7-22.7zm1.7 38.4c-9.6 0-17.4-7.8-17.4-17.4s7.8-17.4 17.4-17.4 17.4 7.8 17.4 17.4-7.8 17.4-17.4 17.4z" fill="url(#f)"/></g><path d="m664.38641 329.32904h94.081619v62.92083h-94.081619z"/><path d="m739.24095 313.84178c11.00005-.675 22.43761 1.21294 31.71266 7.43797 11.31255 7.21254 19.25009 19.4876 21.0876 32.78767 1.91251 12.78756-1.72501 26.28763-9.90005 36.32518-8.21254 10.28755-20.9251 16.86264-34.08767 17.43765h-109.50383c13.10241-23.45771 15.60552-52.42334 6.949-77.67114-.23204-.67677-.47614-1.34903-.727-2.01803-.44108-1.1763-.90777-2.34253-1.392-3.50553-.64678-1.55341-1.34418-3.07294-2.07588-4.59235-.69546-1.44412-1.43471-2.87969-2.20911-4.28952-.15611-.28417-.31437-.56729-.47301-.84922-.20044-.35621-.39732-.71054-.606-1.06268m81.35019 25.10056 6.18753 11.71256 6.22475-3.15002v39.12526h16.42509v-54.71327h-14.42508zm-31.84994.1125v14.38707h-14.61307v11.58806h14.48784l.12523 14.80007h11.47506l.137-14.80007h14.86307v-11.58806h-15.00007v-14.38707z" fill="#fff"/></g></svg>