<?xml version="1.0" encoding="UTF-8"?>
<!-- Generator: Adobe Illustrator 16.0.0, SVG Export Plug-In . SVG Version: 6.00 Build 0)  -->
<!DOCTYPE svg  PUBLIC '-//W3C//DTD SVG 1.1//EN'  'http://www.w3.org/Graphics/SVG/1.1/DTD/svg11.dtd'>
<svg id="svg5207" width="603px" height="750px" enable-background="new 0 0 603 750" version="1.1" viewBox="0 0 603 750" xml:space="preserve" xmlns="http://www.w3.org/2000/svg" xmlns:xlink="http://www.w3.org/1999/xlink">
<g id="g888" transform="matrix(1.0059 0 0 1 44 0)">
		<defs>
			<path id="SVGID_1_" d="m256 0c-141.27 0-256 114.73-256 256s114.73 256 256 256 256-114.73 256-256-114.73-256-256-256zm-37.673 422.1c-82.194 0-148.98-66.782-148.98-148.98s66.783-148.98 148.98-148.98c82.194 0 148.98 66.782 148.98 148.98s-66.783 148.98-148.98 148.98z"/>
		</defs>
		<clipPath id="SVGID_2_">
			<use overflow="visible" xlink:href="#SVGID_1_"/>
		</clipPath>
		<path id="path1243" d="m256 0c-141.27 0-256 114.73-256 256s114.73 256 256 256 256-114.73 256-256-114.73-256-256-256zm4.281 480.32c-119.01 0-216.62-96.749-216.62-216.62 0-119.01 96.75-216.62 216.62-216.62 119.01 0 216.62 96.749 216.62 216.62s-96.75 216.62-216.62 216.62z" clip-path="url(#SVGID_2_)" fill="#9ACA3E"/>
		<defs>
			<path id="SVGID_3_" d="m256 0c-141.27 0-256 114.73-256 256s114.73 256 256 256 256-114.73 256-256-114.73-256-256-256zm-37.673 422.1c-82.194 0-148.98-66.782-148.98-148.98s66.783-148.98 148.98-148.98c82.194 0 148.98 66.782 148.98 148.98s-66.783 148.98-148.98 148.98z"/>
		</defs>
		<clipPath id="SVGID_4_">
			<use overflow="visible" xlink:href="#SVGID_3_"/>
		</clipPath>
		<path id="path1250" d="m303.09 27.398c-112.16 0-203.77 90.756-203.77 203.77 0 112.16 90.756 203.77 203.77 203.77 112.16 0 203.77-90.756 203.77-203.77 0-112.16-91.611-203.77-203.77-203.77zm9.418 372.44c-98.461 0-178.09-79.625-178.09-178.09s79.625-178.09 178.09-178.09c98.462 0 178.09 79.625 178.09 178.09s-79.625 178.09-178.09 178.09z" clip-path="url(#SVGID_4_)" fill="#F47D4B"/>
		<defs>
			<path id="SVGID_5_" d="m256 0c-141.27 0-256 114.73-256 256s114.73 256 256 256 256-114.73 256-256-114.73-256-256-256zm-37.673 422.1c-82.194 0-148.98-66.782-148.98-148.98s66.783-148.98 148.98-148.98c82.194 0 148.98 66.782 148.98 148.98s-66.783 148.98-148.98 148.98z"/>
		</defs>
		<clipPath id="SVGID_6_">
			<use overflow="visible" xlink:href="#SVGID_5_"/>
		</clipPath>
		<path id="path1257" d="m280.83 118.15c-107.02 0-194.35 86.475-194.35 194.35 0 107.02 86.475 194.35 194.35 194.35 107.02 0 194.35-86.475 194.35-194.35-0.856-107.02-87.33-194.35-194.35-194.35zm-11.986 352.75c-92.468 0-167.81-75.346-167.81-167.81s75.344-167.81 167.81-167.81c92.468 0 167.81 75.344 167.81 167.81 0 92.467-75.345 167.81-167.81 167.81z" clip-path="url(#SVGID_6_)" fill="#E6477E"/>
		<defs>
			<path id="SVGID_7_" d="m256 0c-141.27 0-256 114.73-256 256s114.73 256 256 256 256-114.73 256-256-114.73-256-256-256zm-37.673 422.1c-82.194 0-148.98-66.782-148.98-148.98s66.783-148.98 148.98-148.98c82.194 0 148.98 66.782 148.98 148.98s-66.783 148.98-148.98 148.98z"/>
		</defs>
		<clipPath id="SVGID_8_">
			<use overflow="visible" xlink:href="#SVGID_7_"/>
		</clipPath>
		<path id="path1264" d="m203.77 93.324c-107.02 0-194.36 87.332-194.36 194.35 0 107.02 87.331 194.36 194.36 194.36 107.02 0 194.36-87.332 194.36-194.36 0-107.88-87.332-194.35-194.36-194.35zm14.555 328.78c-82.194 0-148.98-66.782-148.98-148.98s66.783-148.98 148.98-148.98c82.194 0 148.98 66.782 148.98 148.98s-66.783 148.98-148.98 148.98z" clip-path="url(#SVGID_8_)" fill="#15B2C6"/>
</g>
<g id="_x23_000000ff" transform="matrix(1.0045 0 0 1.0112 165.4 176.86)">
	<path id="path2" d="m54.34 18.33c19.18-11.8 42.51-16.47 64.76-13.23 12.07 1.75 23.77 5.84 34.38 11.82l-24.52 36.07c-12.12-5.989-26.54-7.33-39.47-3.22-12.47 3.85-23.43 12.38-30.08 23.63-8.83 14.69-9.62 33.86-2.1 49.25 5.41 11.369 14.99 20.68 26.55 25.67 13.73 6.02 30.02 5.8 43.59-0.58 13.67-6.29 24.42-18.639 28.48-33.16h-63.47l29.31-41.22h74.01c11.149 36.219-2.081 78.2-31.61 101.83-18.11 14.77-41.93 22.29-65.21 20.49-24.13-1.01-47.5-12.12-64.03-29.64-22.03-22.88-31.32-57.18-23.79-88.04 5.74-24.55 21.62-46.6 43.2-59.67z" fill="#1D1D1B"/>
</g>
<g id="_x23_000000ff-6" transform="matrix(1.0003 0 0 1.0065 -26.079 493.29)" fill="#1D1D1B">
		<path id="path2-5" d="m321.83 66.28c-3.223 0-4.556 1.307-4.556 3.761v29.5h-48.265c-3.031 0-4.53 2.5-5.95 4.56-8.02 11.97-16.32 23.76-24.22 35.82-8.84-12.52-17.19-25.381-25.97-37.941-1.25-1.97-3.185-2.439-5.82-2.439h-47.08c-2.286 0-3.157 2.552-1.9 4.321 17.53 24.069 35.02 48.179 52.61 72.208l-51.882 71.233c-1.488 2.065-0.538 4.139 1.749 4.139l47.553 0.109c2.463 0 4.39-0.93 5.6-2.81 8.5-12.24 16.53-24.811 25.15-36.96 7.82 11.95 15.96 23.69 23.9 35.56 1.762 2.633 3.331 4.276 6.24 4.21 15.97 0 31.939 0.069 47.909-0.031 2.314 0 3.429-2.147 1.75-4.139l-51.429-71.311 25.548-35.099h24.506v59.991c0.18 11.71 1.935 24.039 9.134 33.669 8.521 12.16 23.211 18.191 37.511 20.051 12.71 1.341 25.769-0.94 37.31-6.43 2.186-0.965 2.923-2.865 2.32-5.29l-8.84-33.821c-0.716-2.588-1.547-4.193-3.539-3.66-5.46 2.139-11.451 3.37-17.271 2.04-4.37-0.471-7.36-4.481-8.14-8.561-1.64-7.521-2.395-15.239-2.365-22.929v-35.061h51.421v106.13c0 3.233 0.855 4.599 4.124 4.599 14.02 0.07 28.04 0.031 42.06 0.02 3.132 0 4.596-0.855 4.596-3.72v-57.991c0.34-11.66 2.994-23.758 10.354-33.118 7.48-9.79 19.7-15.836 32.041-15.646h48.99c6.641 0.081 13.87 0.215 19.56 4.105 4.68 3.541 3.9 10.001 3.859 15.17-11.2-3.1-22.829-4.611-34.429-4.811-13.711 0.21-27.831 2.51-39.841 9.449-9.55 5.54-15.59 15.92-16.83 26.78-1.72 13.21-1.171 27.54 5.64 39.35 6 10.44 16.831 17.21 28.12 20.65 8.76 2.23 17.93 2.06 26.89 1.52 12.36-1.3 25.45-5.861 33.05-16.241 2.28 5.58 6.439 10.49 12.05 12.91 4.33 2.179 9.31 1.69 14.009 1.771 5.31-0.09 10.63 0.14 15.94-0.081 2.374 0 3.83-1.487 3.83-3.8v-56c0-11.576 0.49-21.43-1.491-31.98-2.159-17.45-8.32-35.6-22.21-47.201-12.14-10.34-28.659-12.75-44.06-13.299h-58.087c-7.27-0.05-14.881 0.44-21.381 4.01-7.48 4.05-13.65 10.62-16.9 18.509-0.75-4.109-1.5-8.399-3.899-11.919-4.27-6.59-11.75-10.6-19.821-10.6h-77.584v-29.528c0-2.429-1.283-3.73-4.354-3.73h-37.21zm236.06 118.49c8.156-0.179 16.402 1.606 23.808 4.875-0.05 8.86-2.159 18.849-9.729 24.379-5.94 4.511-13.82 4.13-20.829 3.35-6.04-0.91-12.7-3.05-15.91-8.679-4.75-7.65-0.12-18.671 8.28-21.381 4.626-1.624 9.487-2.437 14.38-2.544z"/>
	<path id="path4" d="m87.13 98.74c15-2.899 30.84-1.41 45.07 4.13 14.14 5.499 26.33 15.8 34.02 28.89 9.29 15.63 11.99 34.39 10.88 52.32-0.279 2.984-1.937 5.236-5.03 5.236h-99.18c1.65 7.64 6.41 14.655 13.17 18.654 9.91 6.281 22.43 8.761 33.84 5.71 8.34-2.38 14.38-8.85 21.06-13.94 0.679-0.535 1.364-0.636 2.11-0.04l20.53 16.66c2.386 1.974 5.292 4.262 2.83 7.139-13.06 15.31-31.27 26.78-51.36 29.75-16.3 1.649-33.27-0.75-47.83-8.51-17.69-9.26-31.33-25.85-37.05-44.98-2.57-9.37-4.83-19-3.91-28.79 1.81-13.521 5.48-27.11 13.06-38.621 10.68-16.898 28.06-29.698 47.79-33.608m-13.21 62.61h59.08c-1.53-14.23-14.92-25.69-29.09-25.85-14.48-0.32-28.5 11.29-29.99 25.85z"/>
</g>
</svg>
