<?xml version="1.0" encoding="UTF-8"?>
<!-- Created with Inkscape (http://www.inkscape.org/) -->
<svg id="svg5207" width="741.81" height="327.27" version="1.1" xmlns="http://www.w3.org/2000/svg" xmlns:cc="http://creativecommons.org/ns#" xmlns:dc="http://purl.org/dc/elements/1.1/" xmlns:rdf="http://www.w3.org/1999/02/22-rdf-syntax-ns#" xmlns:xlink="http://www.w3.org/1999/xlink">
 <defs id="defs5209">
  <linearGradient id="SVGID_145_" x1="311.89" x2="261.11" y1="498.02" y2="466.54" gradientUnits="userSpaceOnUse">
   <stop id="stop1319" stop-color="#DD4C2F" offset="0"/>
   <stop id="stop1321" stop-color="#991F21" offset="1"/>
  </linearGradient>
  <clipPath id="SVGID_144_">
   <use id="use1316" width="1003.5" height="592" xlink:href="#SVGID_143_"/>
  </clipPath>
  <linearGradient id="SVGID_146_" x1="276.45" x2="307.46" y1="461.38" y2="497.43" gradientUnits="userSpaceOnUse">
   <stop id="stop1326" stop-color="#DD4C2F" offset="0"/>
   <stop id="stop1328" stop-color="#991F21" offset="1"/>
  </linearGradient>
  <linearGradient id="SVGID_147_" x1="273.31" x2="305.36" y1="504.91" y2="472.86" gradientUnits="userSpaceOnUse">
   <stop id="stop1333" stop-color="#DD4C2F" offset="0"/>
   <stop id="stop1335" stop-color="#991F21" offset="1"/>
  </linearGradient>
  <linearGradient id="SVGID_148_" x1="299.67" x2="261.12" y1="497.92" y2="474.02" gradientUnits="userSpaceOnUse">
   <stop id="stop1340" stop-color="#DD4C2F" offset="0"/>
   <stop id="stop1342" stop-color="#991F21" offset="1"/>
  </linearGradient>
 </defs>
 <metadata id="metadata5212">
  <rdf:RDF>
   <cc:Work rdf:about="">
    <dc:format>image/svg+xml</dc:format>
    <dc:type rdf:resource="http://purl.org/dc/dcmitype/StillImage"/>
    <dc:title/>
   </cc:Work>
  </rdf:RDF>
 </metadata>
 <g id="layer1" transform="translate(-22.741 -265.77)">
  <g id="g1020" transform="matrix(2.9103 0 0 2.9103 -362.77 -965.51)" fill="#fff">
   <path id="path1022" d="m244.7 490.7c-0.1-0.2-0.4-0.4-0.7-0.4h-13.7l12.5-13.8c1-1.1 1.5-2.4 1.5-3.9 0-3.2-2.6-5.8-5.8-5.8h-22.4c-0.1 0-0.2 0.1-0.2 0.2v4l-0.3-0.3c-0.5-0.5-1-1-1.6-1.5-1.5-1.1-3.2-2-5.2-2.6s-4.1-0.9-6.4-0.9-4.4 0.3-6.4 0.9-3.7 1.5-5.2 2.6c-0.6 0.4-1.1 0.9-1.6 1.5l-0.3 0.3v-4c0-0.1-0.1-0.2-0.2-0.2h-4.7c-0.1 0-3.4-0.1-5 3.8-1.6 4-7.8 17.2-7.8 17.4l-0.2 0.3-0.1-0.4c-0.1-0.1-5.8-14.4-6.9-17.4-1-2.8-4-3.8-4.9-3.8h-10.5v-7.5c0-0.5-0.4-0.8-0.8-0.8h-8.4c-0.5 0-0.8 0.4-0.8 0.8v7.5h-5.1c-0.3 0-0.5 0.1-0.7 0.4-0.2 0.2-0.2 0.5-0.1 0.8l3.4 7.3c0.2 0.4 0.6 0.7 1.1 0.7h1.4v12.6c0 3.5 1.1 6.4 3.4 8.4 2.2 2.1 5.4 3.2 9.4 3.2 1.4 0 2.8-0.1 4-0.4 1.3-0.3 2.5-0.6 3.5-1 0.6-0.2 1.1-0.4 1.5-0.6 0.2-0.1 0.4-0.3 0.5-0.6s0.1-0.5 0-0.8l-2.9-6.1c-0.1-0.2-0.4-0.3-0.6-0.3-1.1 0.4-2.4 0.6-3.6 0.6-0.6 0-1.2-0.1-1.8-0.2s-1.2-0.4-1.6-0.7c-0.5-0.4-0.9-0.8-1.2-1.4s-0.5-1.4-0.5-2.4v-10.2h6.6c0.1 0 0.1 0 0.6 0.9 0.3 0.5 0.6 1.3 1.1 2.2 0.8 1.7 1.9 4 3.3 7 2.4 5.1 5 10.6 6 12.7 0.1 0.3 0.4 0.5 0.7 0.5h8.3c0.3 0 0.6-0.2 0.7-0.5l10.5-22.3-0.1 1c-0.1 0.6-0.1 1.3-0.1 1.9v19c0 0.5 0.4 0.8 0.8 0.8h8.1c0.5 0 0.8-0.4 0.8-0.8v-16.6c0-4.6 2.1-6.9 6.2-6.9 2 0 3.5 0.6 4.6 1.7s1.6 2.9 1.6 5.2v16.6c0 0.5 0.4 0.8 0.8 0.8h31.2c0.4 0 0.9-0.3 1-0.7l3.3-7.1c0.2-0.2 0.2-0.5 0-0.7zm-26.6-14.7h13.5l-13.5 13.9v-13.9z" fill="#fff"/>
  </g>
  <path id="path1308" d="m540.95 381.93h-3.2736l-37.101 8.7297c-3.2736 1.0912-5.456 4.3648-5.456 8.184v17.459c0 4.3648 4.3648 7.6384 8.7297 6.5472 8.7297-1.6368 9.8209-2.1824 10.912-2.728v68.2c0 4.9104 3.8192 8.7296 8.7297 8.7296h15.277c4.9104 0 8.7297-3.8192 8.7297-8.7296v-97.663c0.5456-4.3648-2.728-7.6384-6.5472-8.7297z" fill="#fff"/>
  <g id="g1310" transform="matrix(5.456 0 0 5.456 -1011.8 -2202)">
   <defs id="defs1312">
    <path id="SVGID_143_" d="m286.5 452.4c-16.5 0-29.9 13.4-29.9 29.9s13.4 29.9 29.9 29.9 29.9-13.4 29.9-29.9-13.4-29.9-29.9-29.9zm-4.4 49.3c-9.6 0-17.4-7.8-17.4-17.4s7.8-17.4 17.4-17.4 17.4 7.8 17.4 17.4-7.8 17.4-17.4 17.4z"/>
   </defs>
   <clipPath id="clipPath5175">
    <use id="use5177" width="1003.5" height="592" xlink:href="#SVGID_143_"/>
   </clipPath>
   <path id="path1323" class="st97" d="m286.5 452.4c-16.5 0-29.9 13.4-29.9 29.9s13.4 29.9 29.9 29.9 29.9-13.4 29.9-29.9-13.4-29.9-29.9-29.9zm0.5 56.1c-13.9 0-25.3-11.3-25.3-25.3 0-13.9 11.3-25.3 25.3-25.3s25.3 11.3 25.3 25.3-11.4 25.3-25.3 25.3z" clip-path="url(#SVGID_144_)" fill="url(#SVGID_145_)"/>
   <path id="path1330" class="st98" d="m292 455.6c-13.1 0-23.8 10.6-23.8 23.8s10.6 23.8 23.8 23.8 23.8-10.6 23.8-23.8-10.7-23.8-23.8-23.8zm1.1 43.5c-11.5 0-20.8-9.3-20.8-20.8s9.3-20.8 20.8-20.8 20.8 9.3 20.8 20.8-9.3 20.8-20.8 20.8z" clip-path="url(#SVGID_144_)" fill="url(#SVGID_146_)"/>
   <path id="path1337" class="st99" d="m289.3 466.2c-12.5 0-22.7 10.1-22.7 22.7 0 12.5 10.1 22.7 22.7 22.7 12.5 0 22.7-10.1 22.7-22.7 0-12.5-10.2-22.7-22.7-22.7zm-1.3 41.2c-10.8 0-19.6-8.8-19.6-19.6s8.8-19.6 19.6-19.6 19.6 8.8 19.6 19.6c-0.1 10.8-8.8 19.6-19.6 19.6z" clip-path="url(#SVGID_144_)" fill="url(#SVGID_147_)"/>
   <path id="path1344" class="st100" d="m280.4 463.3c-12.5 0-22.7 10.2-22.7 22.7s10.2 22.7 22.7 22.7 22.7-10.2 22.7-22.7c0-12.6-10.2-22.7-22.7-22.7zm1.7 38.4c-9.6 0-17.4-7.8-17.4-17.4s7.8-17.4 17.4-17.4 17.4 7.8 17.4 17.4-7.8 17.4-17.4 17.4z" clip-path="url(#SVGID_144_)" fill="url(#SVGID_148_)"/>
  </g>
  <rect id="rect4209" x="635.89" y="408.34" width="94.082" height="62.921"/>
  <g id="g4176" transform="matrix(1.25 0 0 1.25 23.982 110.41)" fill="#fff">
   <path id="path23" d="m549.41 225.95c8.8-0.54 17.95 0.97035 25.37 5.9504 9.05 5.77 15.4 15.59 16.87 26.23 1.53 10.23-1.38 21.03-7.92 29.06-6.57 8.23-16.74 13.49-27.27 13.95h-87.603c10.482-18.766 12.484-41.938 5.5592-62.137-0.18563-0.54141-0.38091-1.0792-0.5816-1.6144-0.35286-0.94103-0.72621-1.874-1.1136-2.8044-0.51742-1.2427-1.0753-2.4583-1.6607-3.6739-0.55636-1.1553-1.1478-2.3037-1.7673-3.4316-0.12488-0.22733-0.25149-0.45383-0.3784-0.67937-0.16035-0.28497-0.31786-0.56843-0.4848-0.85014m65.08 20.08 4.95 9.37 4.9798-2.52v31.3h13.14v-43.77h-11.54l-11.53 5.6204m-25.48 0.09v11.51h-11.69v9.2704h11.59l0.10018 11.84h9.18l0.1096-11.84h11.89v-9.2704h-12v-11.51z" fill="#fff"/>
  </g>
 </g>
</svg>
