<svg height="43.789944pt" viewBox="0 0 49.574402 43.789945" width="49.574402pt" xmlns="http://www.w3.org/2000/svg"><g fill="#fff" transform="matrix(.03718127 0 0 .03718127 -6.196468 22.65699)"><path d="m619.37 103.38c20.5-6.85 42.99-6.99 63.85-1.63 21.38 5.88 41.25 18.33 54.9 35.92l-35.93 29.16c-5.12-6.2-10.79-12.16-17.89-16.11-11.18-6.54-24.58-7.97-37.29-7-16.33 1.69-31.94 10.44-41.53 23.82-11.61 15.76-15.23 36.99-9.63 55.73 5.38 18.51 19.6 34.58 38.03 40.77 10.74 3.66 22.3 3.27 33.44 2.24 9.39-.89 18.81-3.75 26.42-9.48l-.05-29.41-50.06-.1 19.47-44.28 76.54.13-.33 95.28c-9.01 10.62-20.72 18.87-33.45 24.44-19.32 8.28-40.74 10.82-61.61 9.6-33.92-2.43-65.56-22.66-83.05-51.65-18.58-30.12-20.55-69.74-5.04-101.54 12.29-26.19 35.89-46.62 63.21-55.89z"/><path d="m1024.95 98.52 103.46 211.69975-50.61-.00005-13.84-32.22975-77.79.09-15.15 32.13975c-30.95.05-61.89.22025-92.83-.0897l-65.26-84.81-.19 84.74-47.5.02v-209.94l77.76-.07c17.04-.37 34.15 6.67 45.9 19.03 11.99 11.94 18.63 29.05 17.91 45.96-.37 16.25-7.49 32.25-19.48 43.27-5.9 5.62-13.1 9.62-20.53 12.85l60.01 78.06m-114.01026-155.91v41.64c8.41.08 16.81026.01 25.21026.04 4.25.03 8.65-.46 12.41-2.6 6.12-3.52 10.58-10.21 10.61-17.39.52-10.99-9.1-21.32-20.12-21.56-9.29-.21-18.81026.05-28.11026-.13m211.83026 52.66-19.15 43.12 39.48.02z"/><path d="m192.82 100.09h47.31l.11 126.96c.07 9.11 2.34 18.46 7.87 25.85 5.75 7.84 15.04 12.63 24.63 13.68 12.6 1.68 26.73-1.52 35.21-11.58 6.38-7.43 9.33-17.3 9.55-26.99l.2-127.94h47.26l.06 123.93c.49 23.32-7.02 47.51-23.81 64.21-12.72 13.11-30.2 21.07-48.17 23.64-21.18 2.81-43.7-.45-61.99-11.94-13.34-8.15-23.62-20.69-30.23-34.75-6.16-13.11-8.25-27.78-8.11-42.16z"/><path d="m396.73 100.08 67.28-.01c23.04-.62 46.29 10.27 59.93 28.96 9.12 12.33 14.03 27.65 13.84 42.98.03 19.02-7.92 37.94-21.7 51.08-11.89 11.42-27.91 18.3-44.34 19.31-9.22.48-18.46-.08-27.68.32l-.06 67.47-47.28-.01zm47.34 44.68.03 54.13c6.99.05 13.97.06 20.95.01 15.42.47 28.31-15.01 26.84-29.99-.88-12.33-11.41-23.34-23.87-24.1-7.98-.32-15.97-.2-23.95-.05z"/><path d="m1139.67 100.07 74.34.03c36.08-.03 71.45 19.89 90.22 50.68 9.81 15.95 15.94 34.41 15.97 53.24.65 30.08-13.57 59.47-35.68 79.5-14.39 12.74-32.26 21.7-51.24 24.97-8.34 1.51-16.83 1.88-25.28 1.79l-68.34-.1zm47.47 43.25-.11 123.65c11.58-.16 23.2.51 34.76-.5 16.46-1.66 31.38-11.64 40.29-25.42 10.54-16.19 12.74-37.07 7.44-55.48-4.74-16.69-17.09-31.32-33.37-37.69-15.46-6.86-32.67-3.75-49.01-4.56z"/><path d="m1344.03 100.07 130.11.02-.09 46.66-82.46.07v35.55l65.01.05.05 45.37-65.3.32.04 35.51 82.76.11.01 46.45-130.14.01z"/><path d="m254.99 355.18c19.88-3.4 40.82-1.53 59.45 6.39 18.63 8.17 35.58 20.76 47.53 37.34l-35.97 29.25c-7.73-11.67-18.91-21.18-32.15-25.93-14.6-5.03-31.26-4.42-45.16 2.49-17.18 7.62-29.23 24.37-33.17 42.5-2.73 13.33-1.45 27.56 4.32 39.94 7.09 16.07 21.4 29.07 38.52 33.5 11.77 2.83 24.44 2.51 35.93-1.4 13.19-4.44 23.86-14.25 31.72-25.5l35.93 28.61c-9.27 13.44-22.16 24.2-36.25 32.31-29.97 17.59-68.87 18.1-99.69 2.32-17.3-8.67-32.09-22.18-42.56-38.43-11.18-17.33-17.09-37.94-16.77-58.56-.1-22.88 7.83-45.54 21.59-63.75 16.27-21.16 40.35-36.43 66.73-41.08z"/><path d="m673.22 353.9 103.78 211.87-49.81.04-14.72-32.33h-77.94l-14.95 32.22-49.59.08zm-.01 97.68-19.41 43.17 39.38-.03z"/><path d="m787.99 353.85 132.62 111.23.16-109.31 46.98.13-.03 212.16-132.44-111.93-.1 109.69-47.19-.01z"/><path d="m1001.45 353.91 132.68 111.17.11-109.30975h46.99l-.04 211.92975-132.1-111.19-.18 109.31-47.53-.08z"/><path d="m380.18 355.82 47.54.13.04 82.03 83.98-.08.06-82.13 46.98.09-.02 209.91-46.9.03-.18-82.42-83.69-.04-.3 82.41-47.48.03z"/><path d="m1215.06 355.77h130.18l-.01 46.45-82.36.03-.19 35.74 65.05.13.02 45.01-64.8.19-.26 35.77 82.5.08-.02 46.64h-130.06z"/><path d="m1371.03 355.75h47.31l.06 162.94 81.57.12-.04 47.01h-128.86z"/></g><path d="m13.310724055673 4.563580472767h23.547842932976v7.5848897028h-23.547842932976z" fill="#fff" stroke="#fff" stroke-width=".198297608"/><path d="m223.4571 561.2707 19.251 19.252h-8.347l-4.173-4.174-4.173 4.174h-8.347l-6.732-6.732 1.678 6.732h-20.796c-2.681-.003-5.066-2.145-5.066-4.838 0-1.285.507-2.457 1.312-3.326l4.011-3.964c.27-.278.4-.611.396-.888.004-.661-.389-1.168-1.429-1.168h-8.445l-1.272-5.068h14.102c2.681 0 5.083 2.119 5.086 4.814-.003 1.283-.507 2.461-1.321 3.326l-4.06 4.022c-.225.23-.352.552-.352.83 0 .662.444 1.195 1.24 1.191l8.593.001-3.535-14.184h6.737l1.455 5.838 5.839-5.838zm54.90524 34.00452-69.09124-69.09952-69.09252 69.09952zm-56.52124-18.92652 4.174-4.174-6.732-6.731-4.174 4.173z" fill="#00babe" transform="matrix(.358757057929 0 0 -.358757057929 -50.290054503927 213.559183307561)"/></svg>