<svg height="8.157281mm" viewBox="0 0 73.390003 28.903751" width="20.71229mm" xmlns="http://www.w3.org/2000/svg" xmlns:xlink="http://www.w3.org/1999/xlink"><clipPath id="a"><path d="m32.314 699.874h82.801v24.803h-82.801z"/></clipPath><g clip-path="url(#a)" transform="matrix(1.25 0 0 -1.25 -55.44912 904.79625)"><g transform="translate(56.3553 701.185)"><path d="m0 0h-5.128l-6.868 16.796h2.332c2.511-.016 3.011-.634 3.506-1.871l3.578-8.836s4.046 9.86 4.185 10.15c.208.433.25.541.637.541h7.967l-.014-4.492c-3.623-3.89-4.549-8.707-4.922-9.034l.012 9.696z" fill="#ed135a"/></g><g transform="translate(66.5501 701.1817)"><path d="m0 0s-4.791.003-4.926.003c.016.504 1.726 4.916 4.926 7.443z" fill="#ed135a"/></g><g transform="translate(64.0871 718.8047)"><path d="m0 0c-1.348 0-2.442 1.093-2.442 2.442 0 1.348 1.094 2.441 2.442 2.441 1.349 0 2.442-1.093 2.442-2.441 0-1.349-1.093-2.442-2.442-2.442" fill="#ed135a"/></g><g transform="translate(92.1463 700.714)"><path d="m0 0c-5.222.021-6.894 3.792-7.346 4.191-.098-.064-2.018-4.19-6.889-4.19-3.034 0-4.812 1.871-4.812 1.871v-1.401l-4.876-.003v22.655h4.876s-.068-6.5 0-6.811c.275.283 2.069 1.754 5.044 1.779 3.438.029 6.139-2.774 6.654-4.333.559.97 2.84 4.339 7.358 4.32 6.738-.026 8.887-6.482 8.483-10.705-.618-.033-11.968-.033-12.212 0 .38-2.047 2.037-3.179 3.629-3.182h11.016v-4.19h-10.916zm3.765 10.868c-.533 1.755-2.051 2.997-3.74 2.997s-3.061-1.345-3.739-2.997zm-18.932 2.392c-2.147 0-3.887-1.914-3.887-4.275s1.74-4.275 3.887-4.275 3.887 1.914 3.887 4.275-1.74 4.275-3.887 4.275" fill="#ed145a"/></g></g></svg>