<?xml version="1.0" encoding="UTF-8"?>
<!-- Created with Inkscape (http://www.inkscape.org/) -->
<svg id="svg311220" width="20.712mm" height="8.1573mm" version="1.1" viewBox="0 0 73.39 28.904" xmlns="http://www.w3.org/2000/svg" xmlns:cc="http://creativecommons.org/ns#" xmlns:dc="http://purl.org/dc/elements/1.1/" xmlns:rdf="http://www.w3.org/1999/02/22-rdf-syntax-ns#">
 <defs id="defs311222">
  <clipPath id="clipPath30">
   <path id="path32" d="m32.314 699.87h82.801v24.803h-82.801v-24.803z"/>
  </clipPath>
 </defs>
 <metadata id="metadata311225">
  <rdf:RDF>
   <cc:Work rdf:about="">
    <dc:format>image/svg+xml</dc:format>
    <dc:type rdf:resource="http://purl.org/dc/dcmitype/StillImage"/>
    <dc:title/>
   </cc:Work>
  </rdf:RDF>
 </metadata>
 <g id="layer1" transform="translate(-320.45 -463.62)">
  <g id="g26" transform="matrix(1.25 0 0 -1.25 265 1368.4)">
   <g id="g28" clip-path="url(#clipPath30)">
    <g id="g34" transform="translate(56.355 701.18)">
     <path id="path36" d="m0 0h-5.128l-6.868 16.796h2.332c2.511-0.016 3.011-0.634 3.506-1.871l3.578-8.836s4.046 9.86 4.185 10.15c0.208 0.433 0.25 0.541 0.637 0.541h7.967l-0.014-4.492c-3.623-3.89-4.549-8.707-4.922-9.034l0.012 9.696-5.285-12.95" fill="#ed135a"/>
    </g>
    <g id="g38" transform="translate(66.55 701.18)">
     <path id="path40" d="m0 0s-4.791 3e-3 -4.926 3e-3c0.016 0.504 1.726 4.916 4.926 7.443v-7.446" fill="#ed135a"/>
    </g>
    <g id="g42" transform="translate(64.087 718.8)">
     <path id="path44" d="m0 0c-1.348 0-2.442 1.093-2.442 2.442 0 1.348 1.094 2.441 2.442 2.441 1.349 0 2.442-1.093 2.442-2.441 0-1.349-1.093-2.442-2.442-2.442" fill="#ed135a"/>
    </g>
    <g id="g46" transform="translate(92.146 700.71)">
     <path id="path48" d="m0 0c-5.222 0.021-6.894 3.792-7.346 4.191-0.098-0.064-2.018-4.19-6.889-4.19-3.034 0-4.812 1.871-4.812 1.871v-1.401l-4.876-3e-3v22.655h4.876s-0.068-6.5 0-6.811c0.275 0.283 2.069 1.754 5.044 1.779 3.438 0.029 6.139-2.774 6.654-4.333 0.559 0.97 2.84 4.339 7.358 4.32 6.738-0.026 8.887-6.482 8.483-10.705-0.618-0.033-11.968-0.033-12.212 0 0.38-2.047 2.037-3.179 3.629-3.182h11.016v-4.19h-10.916l-9e-3 -1e-3zm3.765 10.868c-0.533 1.755-2.051 2.997-3.74 2.997s-3.061-1.345-3.739-2.997h7.479zm-18.932 2.392c-2.147 0-3.887-1.914-3.887-4.275s1.74-4.275 3.887-4.275 3.887 1.914 3.887 4.275-1.74 4.275-3.887 4.275" fill="#ed145a"/>
    </g>
   </g>
  </g>
 </g>
</svg>
