<svg width="65.088mm" height="38.863mm" version="1.1" viewBox="0 0 230.62 137.7" xmlns="http://www.w3.org/2000/svg">
 <defs>
  <clipPath id="a">
   <path d="m32.314 699.87h82.801v24.803h-82.801z"/>
  </clipPath>
 </defs>
 <g transform="translate(-305.59 -384.66)">
  <g transform="matrix(3.9281 0 0 -3.9281 131.34 3227.9)">
   <g clip-path="url(#a)">
    <g transform="translate(56.355 701.18)">
     <path d="m0 0h-5.128l-6.868 16.796h2.332c2.511-0.016 3.011-0.634 3.506-1.871l3.578-8.836s4.046 9.86 4.185 10.15c0.208 0.433 0.25 0.541 0.637 0.541h7.967l-0.014-4.492c-3.623-3.89-4.549-8.707-4.922-9.034l0.012 9.696-5.285-12.95" fill="#ed135a"/>
    </g>
    <g transform="translate(66.55 701.18)">
     <path d="m0 0s-4.791 3e-3 -4.926 3e-3c0.016 0.504 1.726 4.916 4.926 7.443v-7.446" fill="#ed135a"/>
    </g>
    <g transform="translate(64.087 718.8)">
     <path d="m0 0c-1.348 0-2.442 1.093-2.442 2.442 0 1.348 1.094 2.441 2.442 2.441 1.349 0 2.442-1.093 2.442-2.441 0-1.349-1.093-2.442-2.442-2.442" fill="#ed135a"/>
    </g>
    <g transform="translate(92.146 700.71)">
     <path d="m0 0c-5.222 0.021-6.894 3.792-7.346 4.191-0.098-0.064-2.018-4.19-6.889-4.19-3.034 0-4.812 1.871-4.812 1.871v-1.401l-4.876-3e-3v22.655h4.876s-0.068-6.5 0-6.811c0.275 0.283 2.069 1.754 5.044 1.779 3.438 0.029 6.139-2.774 6.654-4.333 0.559 0.97 2.84 4.339 7.358 4.32 6.738-0.026 8.887-6.482 8.483-10.705-0.618-0.033-11.968-0.033-12.212 0 0.38-2.047 2.037-3.179 3.629-3.182h11.016v-4.19h-10.916zm3.765 10.868c-0.533 1.755-2.051 2.997-3.74 2.997s-3.061-1.345-3.739-2.997zm-18.932 2.392c-2.147 0-3.887-1.914-3.887-4.275s1.74-4.275 3.887-4.275 3.887 1.914 3.887 4.275-1.74 4.275-3.887 4.275" fill="#ed145a"/>
    </g>
   </g>
  </g>
  <g transform="matrix(1.0938 0 0 1.0938 -106.37 -86.195)" fill="#ed145a">
   <path d="m426.4 542.06c0.47023 0 0.91206-0.0947 1.3223-0.27772 0.40711-0.18632 0.76057-0.44182 1.0572-0.76372 0.29982-0.32191 0.53335-0.68799 0.70693-1.0983 0.1737-0.40711 0.26194-0.83631 0.26194-1.2813 0-0.89312-0.31875-1.6789-0.94993-2.3638-0.63118-0.67852-1.4296-1.0225-2.3985-1.0225h-2.6762v6.8073zm-8.6282-12.384h8.7008c1.2908 0 2.4868 0.23656 3.5914 0.70692 1.1014 0.47023 2.0576 1.1077 2.8624 1.9156 0.80791 0.80476 1.4391 1.7515 1.8967 2.8435 0.46076 1.0919 0.68798 2.2565 0.68798 3.4967s-0.22722 2.4048-0.68798 3.4936c-0.45761 1.0919-1.0888 2.0419-1.8967 2.8466-0.80476 0.80476-1.761 1.4454-2.8624 1.9156-1.1046 0.47023-2.3007 0.70693-3.5914 0.70693h-2.7488v8.4799h-5.952z"/>
   <path d="m450.76 550.65c1.0667 0 2.0576-0.20501 2.976-0.6154 0.91521-0.40711 1.7105-0.96571 2.3796-1.6726 0.66905-0.70376 1.1961-1.5306 1.5811-2.4711 0.38186-0.94361 0.57437-1.9472 0.57437-3.0139s-0.19263-2.0703-0.57437-3.0107c-0.38502-0.94362-0.91206-1.7673-1.5811-2.4742s-1.4643-1.2655-2.3796-1.6726c-0.91837-0.41027-1.9093-0.6154-2.976-0.6154s-2.0576 0.20526-2.976 0.6154c-0.91837 0.40711-1.7105 0.96571-2.3796 1.6726s-1.1961 1.5306-1.5811 2.4742c-0.38502 0.94045-0.57753 1.944-0.57753 3.0107s0.19264 2.0703 0.57753 3.0139c0.38502 0.94046 0.91206 1.7673 1.5811 2.4711 0.66905 0.70692 1.4612 1.2655 2.3796 1.6726 0.91837 0.41027 1.9093 0.6154 2.976 0.6154m0 5.7248c-1.8588 0-3.6072-0.35031-5.2451-1.0572-1.6348-0.70692-3.0675-1.6758-4.2952-2.9003-1.2245-1.2276-2.1934-2.6604-2.9003-4.2952-0.70692-1.6379-1.0604-3.3863-1.0604-5.2451s0.35346-3.6072 1.0604-5.2451c0.70692-1.6348 1.6758-3.0675 2.9003-4.292 1.2276-1.2276 2.6604-2.1965 4.2952-2.9034 1.6379-0.70692 3.3863-1.0604 5.2451-1.0604s3.6072 0.35346 5.2451 1.0604c1.6348 0.70692 3.0675 1.6758 4.292 2.9034 1.2276 1.2245 2.1965 2.6573 2.9034 4.292 0.70377 1.6379 1.0604 3.3863 1.0604 5.2451s-0.35661 3.6072-1.0604 5.2451c-0.70692 1.6348-1.6758 3.0675-2.9034 4.2952-1.2245 1.2245-2.6573 2.1934-4.292 2.9003-1.6379 0.70692-3.3863 1.0572-5.2451 1.0572"/>
   <path d="m476.64 542.06c0.47023 0 0.91205-0.0947 1.3223-0.27772 0.40711-0.18632 0.76057-0.44182 1.0572-0.76372 0.29981-0.32191 0.53334-0.68799 0.70692-1.0983 0.1737-0.40711 0.26194-0.83631 0.26194-1.2813 0-0.89312-0.31875-1.6789-0.94993-2.3638-0.63118-0.67852-1.4328-1.0225-2.3985-1.0225h-2.6762v6.8073zm-8.6282-12.384h8.7008c1.2908 0 2.4868 0.23656 3.5914 0.70692 1.1014 0.47023 2.0576 1.1077 2.8624 1.9156 0.80791 0.80476 1.4391 1.7515 1.8967 2.8435 0.4576 1.0919 0.68798 2.2565 0.68798 3.4967s-0.2305 2.4048-0.68798 3.4936c-0.45761 1.0919-1.0888 2.0419-1.8967 2.8466-0.80475 0.80476-1.761 1.4454-2.8624 1.9156-1.1046 0.47023-2.3006 0.70693-3.5914 0.70693h-2.7488v8.4799h-5.952z"/>
   <path d="m487.84 542.91h10.56v5.3556h-10.56z"/>
   <path d="m513.05 556.38c-1.5874 0-3.0423-0.26194-4.3709-0.77951-1.3255-0.52072-2.4648-1.2655-3.4178-2.2312-0.95624-0.96886-1.701-2.1239-2.2344-3.4778-0.53335-1.3507-0.79844-2.8561-0.79844-4.5192v-15.694h5.9489v15.77c0 1.6095 0.44814 2.8813 1.3381 3.8092 0.89312 0.93099 2.0703 1.3981 3.5346 1.3981 1.4612 0 2.6415-0.46707 3.5315-1.3981 0.89312-0.92784 1.3412-2.1997 1.3412-3.8092v-15.77h5.9489v15.694c0 1.6632-0.2651 3.1685-0.79845 4.5192-0.5365 1.3539-1.2781 2.509-2.2344 3.4778-0.95309 0.9657-2.0924 1.7105-3.4178 2.2312-1.3255 0.51757-2.7835 0.77951-4.3709 0.77951"/>
   <path d="m537.22 542.06c0.47338 0 0.91205-0.0947 1.3192-0.27772 0.41343-0.18632 0.76373-0.44182 1.0635-0.76372 0.29666-0.32191 0.53335-0.68799 0.70377-1.0983 0.17345-0.40711 0.26194-0.83631 0.26194-1.2813 0-0.89312-0.31559-1.6789-0.94993-2.3638-0.63118-0.67852-1.4296-1.0225-2.3985-1.0225h-2.6794v6.8073zm-8.6282-12.384h8.704c1.2908 0 2.4837 0.23656 3.5851 0.70692 1.1077 0.47023 2.0608 1.1077 2.8687 1.9156 0.80475 0.80476 1.4359 1.7515 1.8935 2.8435 0.46076 1.0919 0.69114 2.2565 0.69114 3.4967s-0.23051 2.4048-0.69114 3.4936c-0.45761 1.0919-1.0888 2.0419-1.8935 2.8466-0.80792 0.80476-1.761 1.4454-2.8687 1.9156-1.1014 0.47023-2.2943 0.70693-3.5851 0.70693h-2.7551v8.4799h-5.9489z"/>
  </g>
 </g>
</svg>
