<?xml version="1.0" encoding="UTF-8" standalone="no"?>
<!-- Created with Inkscape (http://www.inkscape.org/) -->

<svg
   xmlns:dc="http://purl.org/dc/elements/1.1/"
   xmlns:cc="http://creativecommons.org/ns#"
   xmlns:rdf="http://www.w3.org/1999/02/22-rdf-syntax-ns#"
   xmlns:svg="http://www.w3.org/2000/svg"
   xmlns="http://www.w3.org/2000/svg"
   xmlns:sodipodi="http://sodipodi.sourceforge.net/DTD/sodipodi-0.dtd"
   xmlns:inkscape="http://www.inkscape.org/namespaces/inkscape"
   width="65.087502mm"
   height="38.863087mm"
   viewBox="0 0 230.625 137.70384"
   id="svg311220"
   version="1.1"
   inkscape:version="0.92.1 r15371"
   sodipodi:docname="Vibe Pop-Up.svg">
  <defs
     id="defs311222">
    <clipPath
       clipPathUnits="userSpaceOnUse"
       id="clipPath30">
      <path
         d="m 32.314,699.874 h 82.801 v 24.803 H 32.314 Z"
         id="path32"
         inkscape:connector-curvature="0" />
    </clipPath>
  </defs>
  <sodipodi:namedview
     id="base"
     pagecolor="#ffffff"
     bordercolor="#666666"
     borderopacity="1.0"
     inkscape:pageopacity="0.0"
     inkscape:pageshadow="2"
     inkscape:zoom="1.4"
     inkscape:cx="4.53223"
     inkscape:cy="14.967715"
     inkscape:document-units="px"
     inkscape:current-layer="layer1"
     showgrid="false"
     fit-margin-top="0"
     fit-margin-left="0"
     fit-margin-right="0"
     fit-margin-bottom="0"
     inkscape:window-width="1920"
     inkscape:window-height="1017"
     inkscape:window-x="-8"
     inkscape:window-y="-8"
     inkscape:window-maximized="1" />
  <metadata
     id="metadata311225">
    <rdf:RDF>
      <cc:Work
         rdf:about="">
        <dc:format>image/svg+xml</dc:format>
        <dc:type
           rdf:resource="http://purl.org/dc/dcmitype/StillImage" />
        <dc:title></dc:title>
      </cc:Work>
    </rdf:RDF>
  </metadata>
  <g
     inkscape:label="Layer 1"
     inkscape:groupmode="layer"
     id="layer1"
     transform="translate(-305.58935,-384.66064)">
    <g
       transform="matrix(3.9280727,0,0,-3.9280727,131.34279,3227.945)"
       id="g26">
      <g
         id="g28"
         clip-path="url(#clipPath30)">
        <g
           id="g34"
           transform="translate(56.3553,701.185)">
          <path
             d="m 0,0 h -5.128 l -6.868,16.796 h 2.332 c 2.511,-0.016 3.011,-0.634 3.506,-1.871 L -2.58,6.089 c 0,0 4.046,9.86 4.185,10.15 0.208,0.433 0.25,0.541 0.637,0.541 h 7.967 L 10.195,12.288 C 6.572,8.398 5.646,3.581 5.273,3.254 L 5.285,12.95 0,0"
             style="fill:#ed135a;fill-opacity:1;fill-rule:nonzero;stroke:none"
             id="path36"
             inkscape:connector-curvature="0" />
        </g>
        <g
           id="g38"
           transform="translate(66.5501,701.1817)">
          <path
             d="M 0,0 C 0,0 -4.791,0.003 -4.926,0.003 -4.91,0.507 -3.2,4.919 0,7.446 V 0"
             style="fill:#ed135a;fill-opacity:1;fill-rule:nonzero;stroke:none"
             id="path40"
             inkscape:connector-curvature="0" />
        </g>
        <g
           id="g42"
           transform="translate(64.0871,718.8047)">
          <path
             d="M 0,0 C -1.348,0 -2.442,1.093 -2.442,2.442 -2.442,3.79 -1.348,4.883 0,4.883 1.349,4.883 2.442,3.79 2.442,2.442 2.442,1.093 1.349,0 0,0"
             style="fill:#ed135a;fill-opacity:1;fill-rule:nonzero;stroke:none"
             id="path44"
             inkscape:connector-curvature="0" />
        </g>
        <g
           id="g46"
           transform="translate(92.1463,700.714)">
          <path
             d="m 0,0 c -5.222,0.021 -6.894,3.792 -7.346,4.191 -0.098,-0.064 -2.018,-4.19 -6.889,-4.19 -3.034,0 -4.812,1.871 -4.812,1.871 V 0.471 l -4.876,-0.003 v 22.655 h 4.876 c 0,0 -0.068,-6.5 0,-6.811 0.275,0.283 2.069,1.754 5.044,1.779 3.438,0.029 6.139,-2.774 6.654,-4.333 0.559,0.97 2.84,4.339 7.358,4.32 C 6.747,18.052 8.896,11.596 8.492,7.373 7.874,7.34 -3.476,7.34 -3.72,7.373 -3.34,5.326 -1.683,4.194 -0.091,4.191 H 10.925 V 0.001 H 0.009 Z m 3.765,10.868 c -0.533,1.755 -2.051,2.997 -3.74,2.997 -1.689,0 -3.061,-1.345 -3.739,-2.997 z m -18.932,2.392 c -2.147,0 -3.887,-1.914 -3.887,-4.275 0,-2.361 1.74,-4.275 3.887,-4.275 2.147,0 3.887,1.914 3.887,4.275 0,2.361 -1.74,4.275 -3.887,4.275"
             style="fill:#ed145a;fill-opacity:1;fill-rule:nonzero;stroke:none"
             id="path48"
             inkscape:connector-curvature="0" />
        </g>
      </g>
    </g>
    <g
       id="g4155"
       transform="matrix(1.093793,0,0,1.093793,-106.36646,-86.194869)"
       style="fill:#ed145a;fill-opacity:1">
      <path
         d="m 426.39997,542.05851 c 0.47023,0 0.91206,-0.0947 1.32233,-0.27772 0.40711,-0.18632 0.76057,-0.44182 1.05722,-0.76372 0.29982,-0.32191 0.53335,-0.68799 0.70693,-1.09826 0.1737,-0.40711 0.26194,-0.83631 0.26194,-1.28129 0,-0.89312 -0.31875,-1.67894 -0.94993,-2.36377 -0.63118,-0.67852 -1.42962,-1.02252 -2.39849,-1.02252 h -2.6762 v 6.80728 z m -8.62823,-12.38375 h 8.70082 c 1.29076,0 2.48685,0.23656 3.59142,0.70692 1.10141,0.47023 2.05764,1.10772 2.8624,1.91563 0.80791,0.80476 1.43909,1.75153 1.8967,2.84347 0.46076,1.09194 0.68798,2.25647 0.68798,3.49674 0,1.24027 -0.22722,2.40479 -0.68798,3.49358 -0.45761,1.09194 -1.08879,2.04187 -1.8967,2.84662 -0.80476,0.80476 -1.76099,1.44541 -2.8624,1.91563 -1.10457,0.47023 -2.30066,0.70693 -3.59142,0.70693 h -2.74879 v 8.4799 h -5.95203 z"
         style="fill:#ed145a;fill-opacity:1;fill-rule:nonzero;stroke:none"
         id="path72756"
         inkscape:connector-curvature="0" />
      <path
         d="m 450.76008,550.64918 c 1.06669,0 2.05764,-0.20501 2.97601,-0.6154 0.91521,-0.40711 1.7105,-0.96571 2.37955,-1.67263 0.66905,-0.70376 1.19609,-1.53061 1.58111,-2.47107 0.38186,-0.94361 0.57437,-1.94719 0.57437,-3.01388 0,-1.0667 -0.19263,-2.07028 -0.57437,-3.01073 -0.38502,-0.94362 -0.91206,-1.76731 -1.58111,-2.47423 -0.66905,-0.70692 -1.46434,-1.26552 -2.37955,-1.67263 -0.91837,-0.41027 -1.90932,-0.6154 -2.97601,-0.6154 -1.0667,0 -2.05765,0.20526 -2.97602,0.6154 -0.91837,0.40711 -1.7105,0.96571 -2.37955,1.67263 -0.66905,0.70692 -1.19609,1.53061 -1.58111,2.47423 -0.38502,0.94045 -0.57753,1.94403 -0.57753,3.01073 0,1.06669 0.19264,2.07027 0.57753,3.01388 0.38502,0.94046 0.91206,1.76731 1.58111,2.47107 0.66905,0.70692 1.46118,1.26552 2.37955,1.67263 0.91837,0.41027 1.90932,0.6154 2.97602,0.6154 m 0,5.72481 c -1.85883,0 -3.6072,-0.35031 -5.24511,-1.05723 -1.63476,-0.70692 -3.06754,-1.67578 -4.29518,-2.90027 -1.22449,-1.22765 -2.19336,-2.66043 -2.90028,-4.29519 -0.70692,-1.63791 -1.06038,-3.38628 -1.06038,-5.2451 0,-1.85883 0.35346,-3.6072 1.06038,-5.24511 0.70692,-1.63476 1.67579,-3.06754 2.90028,-4.29203 1.22764,-1.22765 2.66042,-2.19651 4.29518,-2.90343 1.63791,-0.70692 3.38628,-1.06038 5.24511,-1.06038 1.85882,0 3.60719,0.35346 5.2451,1.06038 1.63476,0.70692 3.06754,1.67578 4.29203,2.90343 1.22765,1.22449 2.19651,2.65727 2.90343,4.29203 0.70377,1.63791 1.06038,3.38628 1.06038,5.24511 0,1.85882 -0.35661,3.60719 -1.06038,5.2451 -0.70692,1.63476 -1.67578,3.06754 -2.90343,4.29519 -1.22449,1.22449 -2.65727,2.19335 -4.29203,2.90027 -1.63791,0.70692 -3.38628,1.05723 -5.2451,1.05723"
         style="fill:#ed145a;fill-opacity:1;fill-rule:nonzero;stroke:none"
         id="path72760"
         inkscape:connector-curvature="0" />
      <path
         d="m 476.64289,542.05851 c 0.47023,0 0.91205,-0.0947 1.32232,-0.27772 0.40711,-0.18632 0.76057,-0.44182 1.05723,-0.76372 0.29981,-0.32191 0.53334,-0.68799 0.70692,-1.09826 0.1737,-0.40711 0.26194,-0.83631 0.26194,-1.28129 0,-0.89312 -0.31875,-1.67894 -0.94993,-2.36377 -0.63118,-0.67852 -1.43278,-1.02252 -2.39848,-1.02252 h -2.67621 v 6.80728 z m -8.62824,-12.38375 h 8.70082 c 1.29077,0 2.48685,0.23656 3.59142,0.70692 1.10141,0.47023 2.05765,1.10772 2.8624,1.91563 0.80791,0.80476 1.43909,1.75153 1.8967,2.84347 0.4576,1.09194 0.68798,2.25647 0.68798,3.49674 0,1.24027 -0.2305,2.40479 -0.68798,3.49358 -0.45761,1.09194 -1.08879,2.04187 -1.8967,2.84662 -0.80475,0.80476 -1.76099,1.44541 -2.8624,1.91563 -1.10457,0.47023 -2.30065,0.70693 -3.59142,0.70693 h -2.74879 v 8.4799 h -5.95203 z"
         style="fill:#ed145a;fill-opacity:1;fill-rule:nonzero;stroke:none"
         id="path72764"
         inkscape:connector-curvature="0" />
      <path
         inkscape:connector-curvature="0"
         id="path72766"
         style="fill:#ed145a;fill-opacity:1;fill-rule:nonzero;stroke:none"
         d="m 487.8375,542.91313 h 10.55965 v 5.35557 H 487.8375 Z" />
      <path
         d="m 513.05189,556.37525 c -1.58742,0 -3.04229,-0.26194 -4.37092,-0.77951 -1.32548,-0.52072 -2.46476,-1.26552 -3.41784,-2.23122 -0.95624,-0.96886 -1.70103,-2.12392 -2.23438,-3.47781 -0.53335,-1.35072 -0.79844,-2.85609 -0.79844,-4.51925 v -15.69429 h 5.94887 v 15.77004 c 0,1.60951 0.44814,2.88133 1.3381,3.80917 0.89312,0.93099 2.07027,1.39806 3.53461,1.39806 1.46118,0 2.64149,-0.46707 3.53146,-1.39806 0.89312,-0.92784 1.34125,-2.19966 1.34125,-3.80917 v -15.77004 h 5.94888 v 15.69429 c 0,1.66316 -0.2651,3.16853 -0.79845,4.51925 -0.5365,1.35389 -1.27814,2.50895 -2.23437,3.47781 -0.95309,0.9657 -2.09237,1.7105 -3.41784,2.23122 -1.32548,0.51757 -2.78351,0.77951 -4.37093,0.77951"
         style="fill:#ed145a;fill-opacity:1;fill-rule:nonzero;stroke:none"
         id="path72770"
         inkscape:connector-curvature="0" />
      <path
         d="m 537.22388,542.05851 c 0.47338,0 0.91205,-0.0947 1.31916,-0.27772 0.41343,-0.18632 0.76373,-0.44182 1.06354,-0.76372 0.29666,-0.32191 0.53335,-0.68799 0.70377,-1.09826 0.17345,-0.40711 0.26194,-0.83631 0.26194,-1.28129 0,-0.89312 -0.31559,-1.67894 -0.94993,-2.36377 -0.63118,-0.67852 -1.42962,-1.02252 -2.39848,-1.02252 h -2.67936 v 6.80728 z m -8.62824,-12.38375 h 8.70398 c 1.29076,0 2.48369,0.23656 3.5851,0.70692 1.10772,0.47023 2.0608,1.10772 2.86872,1.91563 0.80475,0.80476 1.43593,1.75153 1.89354,2.84347 0.46076,1.09194 0.69114,2.25647 0.69114,3.49674 0,1.24027 -0.23051,2.40479 -0.69114,3.49358 -0.45761,1.09194 -1.08879,2.04187 -1.89354,2.84662 -0.80792,0.80476 -1.761,1.44541 -2.86872,1.91563 -1.10141,0.47023 -2.29434,0.70693 -3.5851,0.70693 h -2.7551 v 8.4799 h -5.94888 z"
         style="fill:#ed145a;fill-opacity:1;fill-rule:nonzero;stroke:none"
         id="path72774"
         inkscape:connector-curvature="0" />
    </g>
  </g>
</svg>
