<?xml version="1.0" encoding="UTF-8" standalone="no"?>
<!-- Created with Inkscape (http://www.inkscape.org/) -->

<svg
   xmlns:dc="http://purl.org/dc/elements/1.1/"
   xmlns:cc="http://creativecommons.org/ns#"
   xmlns:rdf="http://www.w3.org/1999/02/22-rdf-syntax-ns#"
   xmlns:svg="http://www.w3.org/2000/svg"
   xmlns="http://www.w3.org/2000/svg"
   xmlns:sodipodi="http://sodipodi.sourceforge.net/DTD/sodipodi-0.dtd"
   xmlns:inkscape="http://www.inkscape.org/namespaces/inkscape"
   width="20.71229mm"
   height="8.1572809mm"
   viewBox="0 0 73.390003 28.903751"
   id="svg311220"
   version="1.1"
   inkscape:version="0.91 r13725"
   sodipodi:docname="Vibe.svg">
  <defs
     id="defs311222">
    <clipPath
       clipPathUnits="userSpaceOnUse"
       id="clipPath30">
      <path
         d="m 32.314,699.874 82.801,0 0,24.803 -82.801,0 0,-24.803 z"
         id="path32"
         inkscape:connector-curvature="0" />
    </clipPath>
  </defs>
  <sodipodi:namedview
     id="base"
     pagecolor="#ffffff"
     bordercolor="#666666"
     borderopacity="1.0"
     inkscape:pageopacity="0.0"
     inkscape:pageshadow="2"
     inkscape:zoom="0.35"
     inkscape:cx="-372.59071"
     inkscape:cy="-39.833805"
     inkscape:document-units="px"
     inkscape:current-layer="layer1"
     showgrid="false"
     fit-margin-top="0"
     fit-margin-left="0"
     fit-margin-right="0"
     fit-margin-bottom="0"
     inkscape:window-width="1920"
     inkscape:window-height="1017"
     inkscape:window-x="-8"
     inkscape:window-y="-8"
     inkscape:window-maximized="1" />
  <metadata
     id="metadata311225">
    <rdf:RDF>
      <cc:Work
         rdf:about="">
        <dc:format>image/svg+xml</dc:format>
        <dc:type
           rdf:resource="http://purl.org/dc/dcmitype/StillImage" />
        <dc:title></dc:title>
      </cc:Work>
    </rdf:RDF>
  </metadata>
  <g
     inkscape:label="Layer 1"
     inkscape:groupmode="layer"
     id="layer1"
     transform="translate(-320.44785,-463.62465)">
    <g
       transform="matrix(1.25,0,0,-1.25,264.99873,1368.4209)"
       id="g26">
      <g
         id="g28"
         clip-path="url(#clipPath30)">
        <g
           id="g34"
           transform="translate(56.3553,701.185)">
          <path
             d="m 0,0 -5.128,0 -6.868,16.796 2.332,0 c 2.511,-0.016 3.011,-0.634 3.506,-1.871 L -2.58,6.089 c 0,0 4.046,9.86 4.185,10.15 0.208,0.433 0.25,0.541 0.637,0.541 l 7.967,0 -0.014,-4.492 C 6.572,8.398 5.646,3.581 5.273,3.254 L 5.285,12.95 0,0"
             style="fill:#ed135a;fill-opacity:1;fill-rule:nonzero;stroke:none"
             id="path36"
             inkscape:connector-curvature="0" />
        </g>
        <g
           id="g38"
           transform="translate(66.5501,701.1817)">
          <path
             d="M 0,0 C 0,0 -4.791,0.003 -4.926,0.003 -4.91,0.507 -3.2,4.919 0,7.446 L 0,0"
             style="fill:#ed135a;fill-opacity:1;fill-rule:nonzero;stroke:none"
             id="path40"
             inkscape:connector-curvature="0" />
        </g>
        <g
           id="g42"
           transform="translate(64.0871,718.8047)">
          <path
             d="M 0,0 C -1.348,0 -2.442,1.093 -2.442,2.442 -2.442,3.79 -1.348,4.883 0,4.883 1.349,4.883 2.442,3.79 2.442,2.442 2.442,1.093 1.349,0 0,0"
             style="fill:#ed135a;fill-opacity:1;fill-rule:nonzero;stroke:none"
             id="path44"
             inkscape:connector-curvature="0" />
        </g>
        <g
           id="g46"
           transform="translate(92.1463,700.714)">
          <path
             d="m 0,0 c -5.222,0.021 -6.894,3.792 -7.346,4.191 -0.098,-0.064 -2.018,-4.19 -6.889,-4.19 -3.034,0 -4.812,1.871 -4.812,1.871 l 0,-1.401 -4.876,-0.003 0,22.655 4.876,0 c 0,0 -0.068,-6.5 0,-6.811 0.275,0.283 2.069,1.754 5.044,1.779 3.438,0.029 6.139,-2.774 6.654,-4.333 0.559,0.97 2.84,4.339 7.358,4.32 C 6.747,18.052 8.896,11.596 8.492,7.373 7.874,7.34 -3.476,7.34 -3.72,7.373 -3.34,5.326 -1.683,4.194 -0.091,4.191 l 11.016,0 0,-4.19 -10.916,0 L 0,0 Z m 3.765,10.868 c -0.533,1.755 -2.051,2.997 -3.74,2.997 -1.689,0 -3.061,-1.345 -3.739,-2.997 l 7.479,0 z m -18.932,2.392 c -2.147,0 -3.887,-1.914 -3.887,-4.275 0,-2.361 1.74,-4.275 3.887,-4.275 2.147,0 3.887,1.914 3.887,4.275 0,2.361 -1.74,4.275 -3.887,4.275"
             style="fill:#ed145a;fill-opacity:1;fill-rule:nonzero;stroke:none"
             id="path48"
             inkscape:connector-curvature="0" />
        </g>
      </g>
    </g>
  </g>
</svg>
