<svg width="211.67mm" height="129.73mm" version="1.1" viewBox="0 0 749.98 459.65" xmlns="http://www.w3.org/2000/svg">
 <defs>
  <clipPath id="a">
   <path d="m32.314 699.87h82.801v24.803h-82.801z"/>
  </clipPath>
 </defs>
 <g transform="matrix(12.774 0 0 -12.774 -566.64 9246.2)" clip-path="url(#a)">
  <g transform="translate(56.355,701.18)">
   <path d="m0 0h-5.128l-6.868 16.796h2.332c2.511-0.016 3.011-0.634 3.506-1.871l3.578-8.836s4.046 9.86 4.185 10.15c0.208 0.433 0.25 0.541 0.637 0.541h7.967l-0.014-4.492c-3.623-3.89-4.549-8.707-4.922-9.034l0.012 9.696-5.285-12.95" fill="#ed135a"/>
  </g>
  <g transform="translate(66.55,701.18)">
   <path d="m0 0s-4.791 3e-3 -4.926 3e-3c0.016 0.504 1.726 4.916 4.926 7.443v-7.446" fill="#ed135a"/>
  </g>
  <g transform="translate(64.087,718.8)">
   <path d="m0 0c-1.348 0-2.442 1.093-2.442 2.442 0 1.348 1.094 2.441 2.442 2.441 1.349 0 2.442-1.093 2.442-2.441 0-1.349-1.093-2.442-2.442-2.442" fill="#ed135a"/>
  </g>
  <g transform="translate(92.146,700.71)">
   <path d="m0 0c-5.222 0.021-6.894 3.792-7.346 4.191-0.098-0.064-2.018-4.19-6.889-4.19-3.034 0-4.812 1.871-4.812 1.871v-1.401l-4.876-3e-3v22.655h4.876s-0.068-6.5 0-6.811c0.275 0.283 2.069 1.754 5.044 1.779 3.438 0.029 6.139-2.774 6.654-4.333 0.559 0.97 2.84 4.339 7.358 4.32 6.738-0.026 8.887-6.482 8.483-10.705-0.618-0.033-11.968-0.033-12.212 0 0.38-2.047 2.037-3.179 3.629-3.182h11.016v-4.19h-10.916zm3.765 10.868c-0.533 1.755-2.051 2.997-3.74 2.997s-3.061-1.345-3.739-2.997zm-18.932 2.392c-2.147 0-3.887-1.914-3.887-4.275s1.74-4.275 3.887-4.275 3.887 1.914 3.887 4.275-1.74 4.275-3.887 4.275" fill="#ed145a"/>
  </g>
 </g>
 <g transform="matrix(3.8095 0 0 3.8095 -.00026053 4.4203e-5)" fill="#ed145a">
  <path d="m30.211 96.364c0-8.5345-6.5449-15.079-15.079-15.079-4.8694 0-8.8487 1.9896-11.257 5.6024v-4.9217h-3.8746v38.693h3.8746v-14.975c2.5132 3.6651 6.3878 5.6024 11.152 5.6024 8.5345 0 15.184-6.5449 15.184-14.922zm-3.9269 0c0 6.4402-4.8694 11.362-11.257 11.362-6.5449 0-11.414-4.9741-11.414-11.571 0-6.3354 5.0265-11.31 11.362-11.31 6.4402 0 11.31 4.9217 11.31 11.519z"/>
  <path d="m67.708 96.364c0-8.744-6.2831-15.079-14.87-15.079-8.4822 0-15.027 6.4402-15.027 14.818 0 8.7963 6.4402 15.184 15.341 15.184 8.3774 0 14.556-6.3354 14.556-14.922zm-3.9269 0.05236c0 6.5449-4.5029 11.31-10.734 11.31-6.5972 0-11.31-4.817-11.31-11.519 0-6.4925 4.7647-11.362 11.1-11.362 6.2831 0 10.943 4.9217 10.943 11.571z"/>
  <path d="m105.83 96.364c0-8.5345-6.5449-15.079-15.079-15.079-4.8694 0-8.8487 1.9896-11.257 5.6024v-4.9217h-3.8746v38.693h3.8746v-14.975c2.5132 3.6651 6.3878 5.6024 11.152 5.6024 8.5345 0 15.184-6.5449 15.184-14.922zm-3.9269 0c0 6.4402-4.8694 11.362-11.257 11.362-6.5449 0-11.414-4.9741-11.414-11.571 0-6.3354 5.0265-11.31 11.362-11.31 6.4402 0 11.31 4.9217 11.31 11.519z"/>
  <path d="m125.54 98.406v-3.2986h-14.189v3.2986z"/>
  <path d="m158.15 110.61v-28.64h-3.8746v14.713c0 7.8015-3.6651 11.048-8.901 11.048-5.5501 0-8.5869-3.0368-8.5869-10.315v-15.446h-3.8746v15.446c0 10.001 4.8694 13.875 12.147 13.875 4.4505 0 7.2779-1.5708 9.2152-5.1312v4.4505z"/>
  <path d="m196.87 96.364c0-8.5345-6.5449-15.079-15.079-15.079-4.8694 0-8.8487 1.9896-11.257 5.6024v-4.9217h-3.8746v38.693h3.8746v-14.975c2.5132 3.6651 6.3878 5.6024 11.152 5.6024 8.5345 0 15.184-6.5449 15.184-14.922zm-3.9269 0c0 6.4402-4.8694 11.362-11.257 11.362-6.5449 0-11.414-4.9741-11.414-11.571 0-6.3354 5.0265-11.31 11.362-11.31 6.4402 0 11.31 4.9217 11.31 11.519z"/>
 </g>
</svg>
