<?xml version="1.0" encoding="UTF-8"?>
<svg id="svg2" width="1487pt" height="557pt" version="1.1" viewBox="0 0 1487 557" xmlns="http://www.w3.org/2000/svg" xmlns:cc="http://creativecommons.org/ns#" xmlns:dc="http://purl.org/dc/elements/1.1/" xmlns:rdf="http://www.w3.org/1999/02/22-rdf-syntax-ns#">
 <metadata id="metadata35">
  <rdf:RDF>
   <cc:Work rdf:about="">
    <dc:format>image/svg+xml</dc:format>
    <dc:type rdf:resource="http://purl.org/dc/dcmitype/StillImage"/>
   </cc:Work>
  </rdf:RDF>
 </metadata>
 <path id="path5" d="m1004.8 0.79c83.19-0.02 166.39 0.03 249.58-0.03 26.14 79.8 51.92 159.73 77.81 239.62l77.844-239.62 76.596 0.03c-43.21 125.03-86.89 249.91-130.27 374.9-16.13-0.08-32.26 0.19-48.39-0.14-14.1-41.59-28.8-82.98-43.14-124.5-20.47-58.91-41-117.81-61.44-176.74-20.26 0.05-40.52-0.09-60.77 0.07 0.09 100.44 0.02 200.88 0.03 301.32-23.72-0.03-47.43 0.03-71.15-0.03 0.06-100.42-0.06-200.85 0.06-301.28-22.26-0.18-44.52-0.02-66.77-0.08-0.02-24.51-0.05-49.01 0.01-73.52z"/>
 <path id="path7" d="m1.03 1.53 103.01 0.05 90.94 335.78 90.95-335.82 68.3-0.03 59.26 218.47 31.61 117.23 91.41-335.74 102.93 0.09-145.95 507.87-83.6-0.12-89.79-307.5-89.82 307.58-83.51 0.02z"/>
 <path id="path9" d="m689.26 320.23c7.24-1.91 15.29-0.18 21.21 4.38 6.65 5.15 9.71 14.64 6.7 22.6-3.48 10.08-14.85 15.71-25.11 14.15-10.28-0.89-19.68-9.81-19.62-20.41-0.45-9.88 7.41-18.64 16.82-20.72z"/>
 <path id="path11" d="m532.68 403.57c9.12-10.66 22.56-16.99 36.33-18.9 12.16-1.22 25.11-0.77 36.04 5.33 4.61 2.31 8.19 6.09 12.09 9.38 0.08-3.94 0.05-7.87 0.14-11.81 13.01 0.08 26.02 0 39.03 0.04 0.08 37.05-0.1 74.1 0.09 111.15-8.06 0.9-16.19 0.19-24.28 0.38-4.92-0.16-9.91 0.47-14.78-0.27-0.32-4.11-0.02-8.24-0.22-12.36-2.86 2.67-5.36 5.74-8.55 8.04-5.63 4.3-12.5 6.78-19.49 7.72-14.94 1.47-30.83-0.42-43.64-8.77-13.02-8.45-23.13-21.92-26.07-37.32-3.59-18.31 1.03-38.38 13.31-52.61m49.81 12.15c-7.99 1.56-15.41 6.19-19.8 13.12-6.71 10.3-5.06 25.12 3.71 33.73 7.42 7.38 18.62 10.3 28.83 8.64 9.47-1.81 18.21-8.17 22.02-17.13 4.74-10.5 1.89-23.94-6.92-31.41-7.6-6.36-18.17-8.69-27.84-6.95z"/>
 <path id="path13" d="m797.96 386.17c8.08-1.61 16.61-1.56 24.59 0.56-0.61 10.18-1.39 20.35-1.93 30.54 5.65-12.18 15.54-22.39 27.93-27.72 11.35-5.21 24.12-6.16 36.41-4.95 10.97 1.43 21.59 6.51 28.73 15.12 0.03-4.02 0.04-8.04 0.04-12.05 13.03-0.19 26.06 0.05 39.1-0.12 0.83 14.12 0.13 28.31 0.36 42.45 0.06 22.87-0.11 45.74 0.09 68.6-6.35 1.18-12.85 0.32-19.26 0.57-6.79-0.32-13.64 0.58-20.38-0.49 0.12-4.19 0.1-8.38 0.04-12.57-6.49 8.9-16.66 14.85-27.6 16.12-13.48 1.31-27.71 0.11-39.82-6.38-16.91-9.06-29.64-26.53-31-45.91-1.32-10.16 0.96-20.3 3.9-29.96-7.61-2.99-16.11-4.49-24.16-2.48-7.62 1.76-14.11 7.29-17.45 14.31-3.24 6.88-4.04 14.62-4.02 22.14 0 15-0.01 30.01 0.01 45.02-13.03 0.39-26.09 0.24-39.12 0.08 0-37.16-0.05-74.31 0.03-111.46 13.02 0.03 26.04 0.01 39.06 0.01 0.04 5.67-0.02 11.34 0.05 17.01 5.64-8.73 13.98-16.28 24.4-18.44m81.54 29.52c-7.51 1.47-14.71 5.48-19.14 11.83-7.52 10.17-6.39 25.65 2.46 34.67 7.41 7.68 18.85 10.73 29.25 9 8.94-1.71 17.13-7.5 21.28-15.65 5.25-10.25 3.27-23.81-5.12-31.81-7.49-7.16-18.66-9.78-28.73-8.04z"/>
 <path id="path15" d="m1035.7 385.7c7.36-0.95 14.99-1.01 22.18 1.04-0.34 10.11-1.7 20.16-1.6 30.28 6.29-14.21 18.93-25.27 33.77-29.79 7.4-2.46 15.22-3.32 23-3.02 13.53-0.27 27.38 5.08 36.17 15.59 0.01-4.07 0-8.14 0.05-12.2 13.09 0 26.19 0.02 39.29-0.01 0.04 36.79 0.07 73.58-0.02 110.37 0.24 1.89-2.46 0.94-3.49 1.24-11.74-0.19-23.49 0.19-35.22-0.15l-0.46-0.3c-0.35-4.21-0.06-8.43-0.15-12.64-6.85 9.22-17.64 15.29-29.09 16.3-13.44 1.01-27.57-0.36-39.49-7.1-13.42-7.62-24.13-20.4-28.22-35.38-3.37-12.99-2.57-27.09 2.41-39.56-7.02-3.55-15.3-4.55-23.01-3.17-8.69 1.42-16.07 7.89-19.43 15.91-2.33 5.29-3.18 11.1-3.13 16.84 0.02 16.25-0.08 32.49 0.05 48.73-5.39 0.85-10.85 0.32-16.27 0.49-7.8-0.11-15.6 0.25-23.38-0.22 0.04-37.11-0.02-74.23 0.02-111.34 13.08-0.06 26.16 0.09 39.24-0.08 0.71 5.56 0.12 11.19 0.39 16.77 5.78-9.41 15.24-16.99 26.39-18.6m78.79 30.06c-10.58 2.03-20.3 9.91-22.86 20.62-2.58 9.1 0.32 19.4 6.85 26.15 11.85 11.8 33.45 12.48 45.13 0.04 10.55-9.93 10.66-28.36 0.42-38.54-7.68-7.4-19.17-10.23-29.54-8.27z"/>
 <path id="path17" d="m1244.5 400.49c9.01-10.45 22.63-16.82 36.5-16.28 16.9-0.77 34.36 5.27 46.18 17.59 13.12 13.24 18.23 33.1 15.37 51.28-2.36 18.99-15.35 35.89-32.4 44.21-9.98 4.83-21.29 5.87-32.23 5.26-12.62-0.51-25.35-5.74-33.39-15.74-0.2 23.14 0.03 46.27-0.12 69.4-13.04 0-26.07-0.01-39.11 0.01-0.14-56.2-0.04-112.4-0.05-168.61 13.06-0.02 26.13-0.01 39.19 0 0.01 4.29 0 8.58 0.06 12.88m20.97 15.34c-10.71 2.2-20.07 10.46-22.79 21.16-3.61 12 3.36 25.6 14.47 30.88 11.26 6.11 26.12 4.74 35.88-3.63 7.92-6.77 11.62-18.11 8.96-28.22-1.89-6.54-6.15-12.43-12.02-15.94-7.21-4.59-16.18-5.93-24.5-4.25z"/>
 <path id="path19" d="m1370.2 396.24c14.24-10.99 33.29-13.98 50.74-11.13 9.99 1.82 19.35 6.92 25.86 14.8 0.01-4.1 0.02-8.2 0.03-12.29 13.13-0.01 26.26-0.05 39.39 0.02 0.05 37-0.09 74 0.07 111-8.39 1.13-16.9 0.27-25.34 0.53-4.55-0.17-9.15 0.38-13.64-0.25-1.12-4.18-0.22-8.69-0.51-12.99-4.05 5-8.74 9.67-14.64 12.4-10.55 5.24-22.77 4.9-34.17 3.55-27.4-3.45-50.68-28.98-49.88-56.9-0.72-18.47 7.35-37.38 22.09-48.74m42.23 19.44c-8.44 1.6-16.35 6.63-20.62 14.19-5.91 10.09-4.18 23.92 3.95 32.31 7.44 7.73 18.96 10.74 29.4 9 8.94-1.77 17.18-7.56 21.24-15.81 5.3-10.41 3.02-24.19-5.65-32.1-7.57-6.78-18.42-9.32-28.32-7.59z"/>
 <path id="path21" d="m675.7 387.61c13.01-0.04 26.02 0.04 39.02-0.04 0.17 37.15 0.05 74.31 0.06 111.46-13.02 0.13-26.08 0.48-39.09-0.26 0-37.05-0.02-74.1 0.01-111.16z"/>
 <path id="path27" d="m801.96 41.95c11.93 1.19 23.73 3.38 35.63 4.86l6.4896 66.02-29.97 16.37c-15.63-26.02-16.65-57.99-12.15-87.25z" fill="#fff"/>
 <path id="path29" d="m717.5 127.3c0.26-0.02 0.78-0.04 1.04-0.06 9.01 11.95 17.59 24.24 26.51 36.26 5.54-8.18 10.94-16.45 16.48-24.64 7.36 9.92 13.95 20.41 21.01 30.55 18.16 26.72 36.26 53.49 54.47 80.18-65.77 0.16-131.55 0.14-197.32 0.01 1.24-2.67 2.79-5.17 4.43-7.6 24.5-38.21 48.82-76.54 73.38-114.7z" fill="#fff"/>
 <path id="path24-5" d="m950.15 23.219c-1.4999 0.0529-3.0096 0.89906-4.3296 1.5797-15.43 7.91-30.929 15.711-46.439 23.491-1.28 0.74-3.0803 1.3788-3.1703 3.2188 35.939 4e-3 72.675 0 108.38 0-0.09-1.84-1.8903-2.4788-3.1703-3.2188-15.51-7.78-31.011-15.581-46.441-23.491-1.3928-0.71817-2.9956-1.6162-4.5765-1.5766-0.083-2e-3 -0.1654-6e-3 -0.2485-3e-3zm-213.06 2.3906c-53.41 79.11-106.94 158.14-160.36 237.23-0.83 1.22-0.54969 2.771-0.62969 4.161 0.1 14.43-0.08 28.86 0.1 43.28 59.46-0.04 118.93-3.2e-4 178.4-0.0203-0.01 22.03 6.2e-4 44.069-9e-3 66.109 27.04 0.04 54.08-0.01 81.13 0.0203 0.03-22.03 9e-3 -44.07 9e-3 -66.1l43.8-9e-3 -0.0297-64.03h-22.83l-12.591-133.42-29.97 16.37c-15.63-26.02-16.65-57.99-12.15-87.25l35.631 4.8594-1.9109-21.2h-98.589zm100.5 21.2 6.4891 66.02 66.4-34.97-0.1891 22.791-14.031 0.0187-0.039 10.72 13.57 0.0297c-0.5875 71.045-2.9518 156.05-4.1703 232.9-9.09-0.02-18.171-9e-3 -27.261-9e-3 0.01 10.69 8e-4 21.38 0.011 32.07 44.25-0.01 88.51 0.019 132.77-0.011-0.01-10.68-0.01-21.359 0-32.039-7.21-0.03-14.42-0.021-21.62-0.011-0.07-77.54-0.041-155.08-0.011-232.61 3.4 0 6.8103 6.3e-4 10.22-9e-3 0.02-3.47 0.01-6.93 0.03-10.4-3.42 0-6.829-3.2e-4 -10.239-0.0203-0.09-16.59-0.02-33.18-0.03-49.77h-78.181c-0.03 1.74-0.049 3.4794-0.059 5.2094-14.13-1.82-28.22-3.8394-42.35-5.6094-10.41-1.56-20.949-2.45-31.309-4.3zm-119.05 80.43c9.01 11.95 17.589 24.241 26.509 36.261 5.54-8.18 10.94-16.451 16.48-24.641 7.36 9.92 13.951 20.41 21.011 30.55 18.16 26.72 36.259 53.49 54.469 80.18-65.77 0.16-131.55 0.14095-197.32 0.011l77.809-122.3 1.0406-0.061z" fill="#ff6c45"/>
</svg>
